<svg xmlns="http://www.w3.org/2000/svg" xmlns:xlink="http://www.w3.org/1999/xlink" width="559" zoomAndPan="magnify" viewBox="0 0 419.25 297.749993" height="396" preserveAspectRatio="xMidYMid meet" version="1.0"><defs><clipPath id="id1"><path d="M 46.8125 89.417969 L 371.734375 89.417969 L 371.734375 297.359375 L 46.8125 297.359375 Z M 46.8125 89.417969 " clip-rule="nonzero"/></clipPath><clipPath id="id2"><path d="M 188 0.140625 L 250 0.140625 L 250 43 L 188 43 Z M 188 0.140625 " clip-rule="nonzero"/></clipPath></defs><g clip-path="url(#id1)"><path fill="#f2f3f5" d="M 214.054688 89.777344 C 164.023438 89.777344 49.441406 115.628906 52.667969 139.054688 C 55.898438 162.480469 100.277344 158.441406 62.351562 190.753906 C 24.425781 223.066406 59.125 250.53125 131.746094 244.066406 C 204.371094 237.605469 137.398438 297.382812 224.542969 297.382812 C 311.691406 297.382812 252.785156 233.566406 298.78125 225.488281 C 344.777344 217.410156 402.070312 155.210938 352.847656 138.246094 C 303.625 121.285156 313.308594 89.777344 214.054688 89.777344 " fill-opacity="1" fill-rule="nonzero"/></g><path fill="#e4e6e9" d="M 264.890625 273.554688 C 264.890625 285.375 247.007812 294.960938 224.949219 294.960938 C 202.886719 294.960938 185.007812 285.375 185.007812 273.554688 C 185.007812 261.730469 202.886719 252.144531 224.949219 252.144531 C 247.007812 252.144531 264.890625 261.730469 264.890625 273.554688 " fill-opacity="1" fill-rule="nonzero"/><path fill="#e4e6e9" d="M 138.203125 217.816406 C 138.203125 229.636719 120.320312 239.222656 98.261719 239.222656 C 76.199219 239.222656 58.316406 229.636719 58.316406 217.816406 C 58.316406 205.992188 76.199219 196.40625 98.261719 196.40625 C 120.320312 196.40625 138.203125 205.992188 138.203125 217.816406 " fill-opacity="1" fill-rule="nonzero"/><path fill="#e4e6e9" d="M 139.011719 141.882812 C 139.011719 153.707031 121.128906 163.289062 99.066406 163.289062 C 77.007812 163.289062 59.125 153.707031 59.125 141.882812 C 59.125 130.058594 77.007812 120.476562 99.066406 120.476562 C 121.128906 120.476562 139.011719 130.058594 139.011719 141.882812 " fill-opacity="1" fill-rule="nonzero"/><path fill="#e4e6e9" d="M 260.046875 107.148438 C 260.046875 118.96875 242.167969 128.550781 220.105469 128.550781 C 198.046875 128.550781 180.164062 118.96875 180.164062 107.148438 C 180.164062 95.324219 198.046875 85.738281 220.105469 85.738281 C 242.167969 85.738281 260.046875 95.324219 260.046875 107.148438 " fill-opacity="1" fill-rule="nonzero"/><path fill="#e4e6e9" d="M 365.757812 164.5 C 365.757812 176.324219 347.871094 185.90625 325.8125 185.90625 C 303.753906 185.90625 285.871094 176.324219 285.871094 164.5 C 285.871094 152.679688 303.753906 143.09375 325.8125 143.09375 C 347.871094 143.09375 365.757812 152.679688 365.757812 164.5 " fill-opacity="1" fill-rule="nonzero"/><path fill="#edda6f" d="M 247.570312 182.304688 L 265.914062 181.296875 L 263.183594 168.46875 L 244.835938 169.476562 L 247.570312 182.304688 " fill-opacity="1" fill-rule="nonzero"/><path fill="#f8f492" d="M 246.808594 170.984375 C 247.316406 173.359375 248.472656 178.800781 248.855469 180.617188 C 250.957031 180.5 261.164062 179.941406 263.941406 179.785156 C 263.4375 177.414062 262.277344 171.976562 261.894531 170.15625 C 259.792969 170.273438 249.585938 170.835938 246.808594 170.984375 " fill-opacity="1" fill-rule="nonzero"/><path fill="#e979b9" d="M 238.804688 152.5625 L 257.152344 151.550781 L 254.421875 138.722656 L 236.074219 139.734375 L 238.804688 152.5625 " fill-opacity="1" fill-rule="nonzero"/><path fill="#f49ed0" d="M 238.046875 141.242188 C 238.554688 143.617188 239.710938 149.054688 240.097656 150.875 C 242.195312 150.757812 252.402344 150.195312 255.179688 150.042969 C 254.675781 147.671875 253.519531 142.226562 253.132812 140.410156 C 251.035156 140.527344 240.824219 141.089844 238.046875 141.242188 " fill-opacity="1" fill-rule="nonzero"/><path fill="#9fe0f8" d="M 233.222656 161.066406 L 251.570312 160.058594 L 248.839844 147.230469 L 230.492188 148.238281 L 233.222656 161.066406 " fill-opacity="1" fill-rule="nonzero"/><path fill="#c8edf5" d="M 232.464844 149.75 C 232.96875 152.121094 234.128906 157.5625 234.515625 159.378906 C 236.613281 159.261719 246.820312 158.699219 249.597656 158.546875 C 249.09375 156.171875 247.933594 150.738281 247.550781 148.921875 C 245.449219 149.035156 235.242188 149.59375 232.464844 149.75 " fill-opacity="1" fill-rule="nonzero"/><path fill="#523f4a" d="M 351.664062 150.066406 C 353.695312 150.441406 357.265625 152.917969 360.988281 154.351562 C 364.71875 155.78125 362.953125 161.453125 347.359375 163.332031 C 331.769531 165.207031 345.414062 148.917969 351.664062 150.066406 " fill-opacity="1" fill-rule="nonzero"/><path fill="#84563e" d="M 354.710938 143.054688 C 354.710938 143.054688 355.371094 151.824219 349.375 157.125 C 349.375 157.125 352.335938 160.363281 348.460938 164.925781 C 348.460938 164.925781 342.285156 166.074219 337.007812 170.4375 C 331.726562 174.804688 310.957031 186.398438 298.59375 174.835938 C 298.59375 174.835938 291.636719 176.257812 286.210938 168.835938 C 280.78125 161.414062 294.9375 150.0625 300.4375 147.457031 C 305.941406 144.847656 352.074219 131 354.710938 143.054688 " fill-opacity="1" fill-rule="nonzero"/><path fill="#b39e8e" d="M 335.882812 165.101562 C 328.027344 169.230469 323.203125 174.636719 323.339844 174.726562 C 323.550781 175.007812 328.660156 169.941406 336.296875 165.941406 C 344.390625 162.445312 349.59375 157.28125 349.375 157.125 C 349.210938 156.925781 343.890625 161.644531 335.882812 165.101562 " fill-opacity="1" fill-rule="nonzero"/><path fill="#b39e8e" d="M 306.15625 161.304688 C 299.023438 166.976562 297.71875 174.957031 298.59375 174.835938 C 298.296875 174.835938 299.828125 167.578125 306.785156 161.996094 C 313.433594 156.292969 317.839844 150.617188 317.613281 150.460938 C 317.421875 150.308594 312.78125 155.621094 306.15625 161.304688 " fill-opacity="1" fill-rule="nonzero"/><path fill="#9f4125" d="M 273.140625 138.644531 C 276.996094 140.105469 277.859375 143.292969 278.027344 146.679688 C 276.515625 147.527344 275.554688 148.050781 275.554688 148.050781 C 275.554688 148.050781 270.628906 147.09375 270.082031 141.332031 C 270.082031 141.332031 271.351562 140.242188 273.140625 138.644531 " fill-opacity="1" fill-rule="nonzero"/><path fill="#654e2d" d="M 273.386719 142.980469 C 269.472656 145.746094 265.898438 147.195312 266.035156 147.738281 C 266.121094 148.210938 270.3125 147.445312 274.445312 144.523438 C 278.574219 141.664062 281.070312 138.398438 280.691406 138.058594 C 280.3125 137.703125 277.320312 140.257812 273.386719 142.980469 " fill-opacity="1" fill-rule="nonzero"/><path fill="#be8f7f" d="M 262.554688 144.050781 C 266.234375 143.085938 269.773438 144.433594 270.457031 147.054688 C 271.140625 149.683594 268.710938 152.589844 265.03125 153.550781 C 261.351562 154.511719 257.8125 153.164062 257.128906 150.546875 C 256.445312 147.917969 258.871094 145.007812 262.554688 144.050781 " fill-opacity="1" fill-rule="nonzero"/><path fill="#ffffff" d="M 347.554688 130.886719 C 347.910156 131.222656 351.28125 139.460938 357.878906 143.792969 C 357.878906 143.792969 322.058594 168.101562 295.1875 147.789062 C 295.1875 147.789062 299.074219 145.738281 301.265625 139.324219 C 303.585938 132.539062 336.445312 120.21875 347.554688 130.886719 " fill-opacity="1" fill-rule="nonzero"/><path fill="#ef895e" d="M 324.421875 97.710938 C 334.546875 101.933594 340.667969 110.003906 345.992188 121.785156 C 351.3125 133.570312 356.949219 137.683594 356.949219 137.683594 C 356.949219 137.683594 345.976562 148.625 330.304688 150.933594 C 314.632812 153.242188 296.46875 145.578125 296.46875 145.578125 C 296.46875 145.578125 301.410156 139.660156 299.253906 129.542969 C 299.253906 129.542969 298.492188 133.917969 292.015625 138.265625 C 285.535156 142.613281 275.554688 148.050781 275.554688 148.050781 C 275.554688 148.050781 274.125 142.070312 270.082031 141.332031 C 270.082031 141.332031 281.300781 131.714844 284.347656 127.316406 C 287.394531 122.925781 288.949219 100.273438 298.121094 97.402344 C 307.289062 94.527344 316.132812 94.253906 324.421875 97.710938 " fill-opacity="1" fill-rule="nonzero"/><path fill="#c16234" d="M 273.140625 138.644531 C 276.996094 140.105469 277.859375 143.292969 278.027344 146.679688 C 276.515625 147.527344 275.554688 148.050781 275.554688 148.050781 C 275.554688 148.050781 274.125 142.070312 270.082031 141.332031 C 270.082031 141.332031 271.351562 140.242188 273.140625 138.644531 " fill-opacity="1" fill-rule="nonzero"/><path fill="#f2bfa3" d="M 296.546875 122.867188 C 299.785156 132.410156 302.5 139.929688 302.589844 139.953125 C 303.019531 139.863281 300.632812 132 297.445312 122.609375 C 294.40625 113.078125 296.082031 104.800781 295.703125 104.832031 C 295.578125 104.6875 293.441406 113.078125 296.546875 122.867188 " fill-opacity="1" fill-rule="nonzero"/><path fill="#ae755e" d="M 316.824219 98.0625 C 316.824219 98.0625 313.625 112.921875 308.269531 113.136719 C 302.917969 113.351562 301.136719 101.570312 303.4375 97.78125 C 305.742188 93.996094 316.824219 98.0625 316.824219 98.0625 " fill-opacity="1" fill-rule="nonzero"/><path fill="#f2bfa3" d="M 302.324219 97.101562 C 300.433594 100.207031 300.882812 107.175781 303.226562 111.167969 C 304.882812 113.976562 306.910156 114.496094 308.320312 114.441406 C 314.382812 114.199219 317.53125 100.984375 318.101562 98.335938 L 318.339844 97.226562 L 317.273438 96.835938 C 315.253906 96.09375 305.046875 92.628906 302.324219 97.101562 Z M 315.269531 98.925781 C 313.894531 104.566406 311.019531 111.71875 308.214844 111.828125 C 307.199219 111.871094 306.277344 111.199219 305.480469 109.839844 C 303.492188 106.460938 303.273438 100.566406 304.554688 98.464844 C 305.640625 96.671875 311.210938 97.613281 315.269531 98.925781 " fill-opacity="1" fill-rule="nonzero"/><path fill="#be8f7f" d="M 336.332031 82.082031 C 333.625 97.191406 319.199219 107.25 304.105469 104.542969 C 289.003906 101.839844 278.957031 87.394531 281.65625 72.289062 C 284.363281 57.167969 298.789062 47.113281 313.894531 49.824219 C 328.984375 52.523438 339.03125 66.964844 336.332031 82.082031 " fill-opacity="1" fill-rule="nonzero"/><path fill="#452735" d="M 323.136719 74.472656 C 322.773438 74.738281 321.8125 72.996094 320.015625 72.648438 C 318.1875 72.425781 316.589844 73.609375 316.40625 73.289062 C 316.164062 73.171875 317.464844 71.238281 320.195312 71.453125 C 322.9375 72.117188 323.347656 74.519531 323.136719 74.472656 " fill-opacity="1" fill-rule="nonzero"/><path fill="#452735" d="M 295.578125 69.640625 C 295.21875 69.910156 294.261719 68.167969 292.472656 67.816406 C 290.625 67.589844 289.035156 68.773438 288.847656 68.457031 C 288.609375 68.335938 289.902344 66.402344 292.640625 66.628906 C 295.378906 67.285156 295.785156 69.691406 295.578125 69.640625 " fill-opacity="1" fill-rule="nonzero"/><path fill="#a16145" d="M 303.746094 87.363281 C 303.785156 87.441406 302.699219 87.601562 301.796875 86.765625 C 300.949219 85.9375 300.742188 84.980469 300.847656 84.96875 C 300.949219 84.917969 301.316406 85.742188 302.070312 86.46875 C 302.84375 87.191406 303.742188 87.21875 303.746094 87.363281 " fill-opacity="1" fill-rule="nonzero"/><path fill="#be6b81" d="M 293.808594 82.792969 C 293.617188 83.957031 291.667969 84.609375 289.457031 84.25 C 287.246094 83.886719 285.613281 82.636719 285.800781 81.472656 C 285.996094 80.300781 287.941406 79.652344 290.15625 80.011719 C 292.363281 80.375 294 81.621094 293.808594 82.792969 " fill-opacity="1" fill-rule="nonzero"/><path fill="#be6b81" d="M 324.878906 86.421875 C 324.6875 87.59375 322.746094 88.246094 320.527344 87.875 C 318.324219 87.511719 316.6875 86.277344 316.875 85.101562 C 317.066406 83.933594 319.015625 83.28125 321.230469 83.644531 C 323.433594 84.011719 325.074219 85.253906 324.878906 86.421875 " fill-opacity="1" fill-rule="nonzero"/><path fill="#ffffff" d="M 297.503906 90.363281 L 310.089844 92.507812 C 310.089844 92.507812 309.625 99.113281 302.613281 97.140625 C 297.761719 95.78125 297.503906 90.363281 297.503906 90.363281 " fill-opacity="1" fill-rule="nonzero"/><path fill="#231f20" d="M 294.226562 75.769531 C 294.097656 77.042969 292.96875 77.964844 291.699219 77.835938 C 290.429688 77.710938 289.5 76.578125 289.636719 75.304688 C 289.761719 74.03125 290.890625 73.117188 292.164062 73.242188 C 293.433594 73.367188 294.355469 74.5 294.226562 75.769531 " fill-opacity="1" fill-rule="nonzero"/><path fill="#231f20" d="M 320.78125 79.648438 C 320.652344 80.921875 319.527344 81.847656 318.257812 81.71875 C 316.984375 81.589844 316.0625 80.457031 316.1875 79.183594 C 316.320312 77.921875 317.453125 76.992188 318.722656 77.117188 C 319.988281 77.246094 320.914062 78.382812 320.78125 79.648438 " fill-opacity="1" fill-rule="nonzero"/><path fill="#3d1a2a" d="M 341.433594 80.253906 C 341.636719 79.378906 341.378906 78.507812 340.816406 77.835938 C 341.0625 77.503906 341.25 77.136719 341.347656 76.710938 C 341.523438 75.992188 341.414062 75.269531 341.109375 74.625 C 341.792969 74.257812 342.3125 73.621094 342.5 72.824219 C 342.703125 71.953125 342.472656 71.085938 341.941406 70.421875 C 342.175781 70.085938 342.363281 69.710938 342.457031 69.292969 C 342.78125 67.9375 342.191406 66.578125 341.085938 65.804688 C 341.300781 65.480469 341.46875 65.113281 341.566406 64.707031 C 341.953125 63.085938 341.105469 61.453125 339.628906 60.71875 C 339.882812 60.3125 340.074219 59.859375 340.195312 59.367188 C 340.792969 56.800781 339.144531 54.210938 336.5 53.585938 C 335.816406 53.421875 335.140625 53.414062 334.492188 53.523438 C 335.105469 53.089844 335.570312 52.46875 335.757812 51.699219 C 336.167969 49.945312 334.980469 48.15625 333.089844 47.710938 C 332.335938 47.527344 331.585938 47.597656 330.925781 47.851562 C 330.929688 47.828125 330.945312 47.808594 330.957031 47.785156 C 331.367188 46.027344 330.167969 44.238281 328.289062 43.792969 C 327.308594 43.5625 326.335938 43.738281 325.570312 44.195312 C 325.207031 43.109375 324.265625 42.203125 323.003906 41.898438 C 322.089844 41.683594 321.199219 41.824219 320.460938 42.210938 C 320.054688 41.179688 319.144531 40.339844 317.925781 40.054688 C 316.882812 39.808594 315.839844 40.035156 315.050781 40.582031 C 314.589844 39.738281 313.765625 39.066406 312.71875 38.816406 C 311.394531 38.507812 310.09375 38.9375 309.28125 39.832031 C 308.800781 39.113281 308.035156 38.558594 307.097656 38.339844 C 305.367188 37.929688 303.671875 38.789062 303.070312 40.285156 C 301.339844 40 299.644531 40.625 298.570312 41.859375 C 298.21875 41.675781 297.839844 41.53125 297.441406 41.433594 C 294.796875 40.808594 292.164062 42.375 291.554688 44.945312 C 291.488281 45.246094 291.441406 45.546875 291.433594 45.839844 C 290.445312 46.136719 289.617188 46.816406 289.1875 47.765625 C 287.355469 47.851562 285.730469 49.101562 285.308594 50.933594 C 285.164062 51.503906 285.160156 52.09375 285.265625 52.636719 C 284.285156 53.023438 283.511719 53.847656 283.253906 54.929688 C 283.210938 55.117188 283.1875 55.308594 283.175781 55.488281 C 282.445312 56.042969 281.894531 56.820312 281.671875 57.75 C 281.535156 58.328125 281.535156 58.914062 281.65625 59.460938 C 280.632812 59.839844 279.839844 60.65625 279.582031 61.738281 C 279.332031 62.8125 279.671875 63.890625 280.398438 64.683594 C 279.347656 64.929688 278.472656 65.679688 278.226562 66.75 C 277.988281 67.746094 278.347656 68.734375 279.074219 69.4375 C 278.652344 69.957031 280.007812 76.027344 280.890625 76.238281 C 281.777344 76.449219 281.53125 74.6875 281.960938 72.863281 C 282.140625 72.113281 282.609375 71.125 282.539062 70.523438 C 283.859375 70.476562 283.898438 69.429688 284.195312 68.164062 C 284.285156 67.800781 284.269531 67.4375 284.214844 67.085938 C 284.445312 66.644531 284.648438 66.113281 284.785156 65.53125 C 284.78125 65.523438 284.785156 65.523438 284.789062 65.519531 C 285.648438 65.101562 286.3125 64.351562 286.535156 63.382812 C 286.574219 63.234375 286.578125 63.082031 286.59375 62.933594 C 288.402344 62.765625 289.945312 61.5625 290.363281 59.808594 C 290.386719 59.707031 290.40625 59.597656 290.414062 59.496094 C 291.355469 59.21875 292.144531 58.597656 292.582031 57.75 C 293.511719 57.871094 294.417969 57.746094 295.226562 57.433594 C 295.667969 57.804688 296.191406 58.105469 296.808594 58.25 C 298.425781 58.636719 300.019531 57.914062 300.742188 56.621094 C 300.925781 56.570312 301.105469 56.511719 301.289062 56.449219 C 301.960938 57.136719 302.855469 57.664062 303.886719 57.902344 C 304.417969 58.035156 304.945312 58.070312 305.460938 58.042969 C 305.953125 58.628906 306.632812 59.085938 307.460938 59.285156 C 308.328125 59.492188 309.1875 59.367188 309.917969 59.019531 C 310.277344 59.199219 310.667969 59.351562 311.089844 59.453125 C 312.542969 59.792969 313.992188 59.523438 315.117188 58.8125 C 315.792969 60.050781 317.011719 61.019531 318.546875 61.382812 C 318.613281 61.390625 318.675781 61.398438 318.738281 61.417969 C 319.230469 62.128906 319.996094 62.683594 320.9375 62.90625 C 321.609375 63.066406 322.269531 63.027344 322.875 62.851562 C 323.550781 64.003906 324.722656 64.914062 326.175781 65.269531 C 326.511719 66.457031 327.496094 67.449219 328.847656 67.769531 C 329.066406 67.820312 329.292969 67.847656 329.507812 67.863281 C 330.195312 68.988281 331.359375 69.859375 332.800781 70.207031 C 332.875 70.21875 332.957031 70.230469 333.023438 70.246094 C 333.019531 70.28125 333 70.316406 332.988281 70.355469 C 332.632812 71.875 333.386719 73.417969 334.753906 74.214844 C 334.605469 74.480469 334.476562 74.753906 334.402344 75.066406 C 334.105469 76.320312 334.621094 77.574219 335.613281 78.378906 C 335.554688 78.527344 335.4375 78.667969 335.460938 78.835938 C 336.085938 84.53125 334.269531 86.90625 335.152344 87.113281 C 336.039062 87.324219 339.125 86.363281 339.550781 84.542969 C 339.757812 83.675781 339.78125 82.855469 339.652344 82.199219 C 340.523438 81.875 341.207031 81.183594 341.433594 80.253906 " fill-opacity="1" fill-rule="nonzero"/><path fill="#6c5c6a" d="M 285.449219 57.40625 C 285.722656 57.386719 285.472656 56.296875 286.078125 55.238281 C 286.582031 54.105469 287.46875 53.453125 287.339844 53.3125 C 287.308594 53.207031 286.195312 53.695312 285.601562 54.996094 C 284.898438 56.242188 285.441406 57.507812 285.449219 57.40625 " fill-opacity="1" fill-rule="nonzero"/><path fill="#6c5c6a" d="M 292.847656 48.605469 C 293.042969 48.632812 293.066406 47.320312 294.34375 46.535156 C 295.5625 45.75 296.800781 45.503906 296.769531 45.351562 C 296.769531 45.21875 295.429688 45.210938 294.042969 46.089844 C 292.539062 47.035156 292.726562 48.714844 292.847656 48.605469 " fill-opacity="1" fill-rule="nonzero"/><path fill="#6c5c6a" d="M 336.71875 76.519531 C 336.65625 76.609375 338.195312 76.625 339.085938 75.148438 C 339.84375 73.703125 339.523438 72.378906 339.394531 72.414062 C 339.238281 72.414062 339.273438 73.660156 338.621094 74.882812 C 337.914062 76.09375 336.660156 76.3125 336.71875 76.519531 " fill-opacity="1" fill-rule="nonzero"/><path fill="#6c5c6a" d="M 332.015625 61.269531 C 332.101562 61.445312 332.277344 60.117188 331.21875 59.597656 C 330.324219 58.992188 329.460938 58.886719 329.433594 59.019531 C 329.382812 59.167969 330.140625 59.503906 330.910156 60.035156 C 331.808594 60.507812 331.746094 61.238281 332.015625 61.269531 " fill-opacity="1" fill-rule="nonzero"/><path fill="#6c5c6a" d="M 334.5 66.800781 C 334.367188 66.84375 335.320312 67.816406 336.714844 67.335938 C 337.972656 66.808594 338.503906 65.824219 338.382812 65.757812 C 338.265625 65.65625 337.574219 66.402344 336.527344 66.824219 C 335.460938 67.222656 334.59375 66.632812 334.5 66.800781 " fill-opacity="1" fill-rule="nonzero"/><path fill="#6c5c6a" d="M 327.578125 52.816406 C 327.699219 52.867188 327.585938 51.511719 326.203125 50.988281 C 324.898438 50.601562 323.867188 51.015625 323.914062 51.144531 C 323.941406 51.292969 324.945312 51.164062 326.023438 51.496094 C 327.097656 51.875 327.394531 52.882812 327.578125 52.816406 " fill-opacity="1" fill-rule="nonzero"/><path fill="#6c5c6a" d="M 298.296875 53.234375 C 298.515625 53.320312 298.507812 51.796875 300.082031 51.695312 C 301.488281 51.492188 302.71875 51.808594 302.753906 51.648438 C 302.796875 51.527344 301.617188 50.945312 299.988281 51.160156 C 298.015625 51.355469 298.164062 53.449219 298.296875 53.234375 " fill-opacity="1" fill-rule="nonzero"/><path fill="#6c5c6a" d="M 307.089844 46.0625 C 307.140625 45.980469 307.917969 44.460938 310.113281 45.371094 C 312.035156 45.953125 313.515625 46.777344 313.589844 46.632812 C 313.660156 46.527344 312.296875 45.476562 310.265625 44.855469 C 307.871094 43.765625 306.621094 46.054688 307.089844 46.0625 " fill-opacity="1" fill-rule="nonzero"/><path fill="#6c5c6a" d="M 282.320312 65.121094 C 282.53125 65.113281 282.285156 64.011719 282.863281 63.046875 C 283.46875 62.082031 284.632812 62.007812 284.582031 61.835938 C 284.65625 61.730469 283.289062 61.484375 282.414062 62.75 C 281.6875 64.054688 282.265625 65.179688 282.320312 65.121094 " fill-opacity="1" fill-rule="nonzero"/><path fill="#6c5c6a" d="M 321.015625 54.667969 C 320.902344 54.527344 320.382812 56.871094 318.246094 55.519531 C 316.453125 54.589844 315.210938 53.359375 315.097656 53.492188 C 315.011719 53.566406 316.0625 54.984375 318.011719 56.003906 C 320.574219 57.554688 321.421875 54.382812 321.015625 54.667969 " fill-opacity="1" fill-rule="nonzero"/><path fill="#be8f7f" d="M 335.25 79.714844 C 335.25 79.714844 338.234375 77.128906 339.589844 79.253906 C 340.945312 81.382812 338.464844 86.984375 333.542969 86.191406 L 335.25 79.714844 " fill-opacity="1" fill-rule="nonzero"/><path fill="#9fe0f8" d="M 168.878906 159.902344 L 153.320312 166.460938 L 140 156.769531 L 155.566406 150.210938 L 168.878906 159.902344 " fill-opacity="1" fill-rule="nonzero"/><path fill="#c8edf5" d="M 143.261719 157.144531 C 146.214844 159.289062 152.460938 163.835938 153.53125 164.617188 C 154.765625 164.097656 162.214844 160.960938 165.617188 159.523438 C 162.667969 157.378906 156.421875 152.835938 155.351562 152.054688 C 154.117188 152.574219 146.667969 155.710938 143.261719 157.144531 " fill-opacity="1" fill-rule="nonzero"/><path fill="#f8b069" d="M 176.042969 156.152344 L 159.0625 161.417969 L 149.566406 150.339844 L 166.542969 145.074219 L 176.042969 156.152344 " fill-opacity="1" fill-rule="nonzero"/><path fill="#f7d68c" d="M 152.390625 151.152344 C 154.410156 153.511719 158.625 158.429688 159.597656 159.5625 C 161.121094 159.089844 169.96875 156.34375 173.214844 155.335938 C 171.195312 152.980469 166.980469 148.0625 166.007812 146.929688 C 164.480469 147.40625 155.636719 150.148438 152.390625 151.152344 " fill-opacity="1" fill-rule="nonzero"/><path fill="#799fda" d="M 184.824219 158.988281 L 166.511719 160.460938 L 167.488281 147.378906 L 185.804688 145.90625 L 184.824219 158.988281 " fill-opacity="1" fill-rule="nonzero"/><path fill="#9ec1e9" d="M 168.992188 148.878906 C 168.859375 150.730469 168.441406 156.277344 168.261719 158.699219 C 171.035156 158.476562 181.226562 157.652344 183.316406 157.484375 C 183.457031 155.636719 183.875 150.089844 184.054688 147.667969 C 181.28125 147.894531 171.089844 148.710938 168.992188 148.878906 " fill-opacity="1" fill-rule="nonzero"/><path fill="#799fda" d="M 199.273438 156.847656 L 217.617188 155.839844 L 214.886719 143.007812 L 196.542969 144.015625 L 199.273438 156.847656 " fill-opacity="1" fill-rule="nonzero"/><path fill="#edda6f" d="M 199.007812 154.984375 L 217.351562 153.972656 L 214.621094 141.144531 L 196.273438 142.152344 L 199.007812 154.984375 " fill-opacity="1" fill-rule="nonzero"/><path fill="#e979b9" d="M 199.539062 152.855469 L 217.882812 151.84375 L 215.152344 139.011719 L 196.808594 140.023438 L 199.539062 152.855469 " fill-opacity="1" fill-rule="nonzero"/><path fill="#9fe0f8" d="M 197.941406 151.257812 L 216.289062 150.25 L 213.558594 137.417969 L 195.210938 138.425781 L 197.941406 151.257812 " fill-opacity="1" fill-rule="nonzero"/><path fill="#f8b069" d="M 200.070312 149.660156 L 218.414062 148.648438 L 215.683594 135.824219 L 197.335938 136.832031 L 200.070312 149.660156 " fill-opacity="1" fill-rule="nonzero"/><path fill="#799fda" d="M 198.738281 148.332031 L 217.085938 147.320312 L 214.355469 134.492188 L 196.007812 135.5 L 198.738281 148.332031 " fill-opacity="1" fill-rule="nonzero"/><path fill="#e979b9" d="M 197.144531 146.199219 L 215.492188 145.191406 L 212.761719 132.363281 L 194.414062 133.375 L 197.144531 146.199219 " fill-opacity="1" fill-rule="nonzero"/><path fill="#f49ed0" d="M 196.386719 134.882812 C 196.890625 137.253906 198.050781 142.695312 198.433594 144.511719 C 200.53125 144.394531 210.742188 143.835938 213.519531 143.679688 C 213.011719 141.308594 211.855469 135.867188 211.46875 134.050781 C 209.371094 134.167969 199.164062 134.730469 196.386719 134.882812 " fill-opacity="1" fill-rule="nonzero"/><path fill="#edda6f" d="M 159.546875 117.09375 L 145.3125 116.410156 L 146.25 96.820312 L 160.480469 97.5 L 159.546875 117.09375 " fill-opacity="1" fill-rule="nonzero"/><path fill="#f6f086" d="M 147.78125 98.511719 C 147.667969 100.984375 147.121094 112.402344 147 114.875 C 149.214844 114.980469 155.800781 115.292969 158.011719 115.402344 C 158.128906 112.929688 158.671875 101.507812 158.792969 99.039062 C 156.578125 98.929688 149.996094 98.617188 147.78125 98.511719 " fill-opacity="1" fill-rule="nonzero"/><path fill="#f8b069" d="M 166.722656 116.496094 L 152.8125 113.40625 L 157.054688 94.261719 L 170.960938 97.347656 L 166.722656 116.496094 " fill-opacity="1" fill-rule="nonzero"/><path fill="#f5c981" d="M 154.738281 112.179688 C 156.898438 112.660156 163.335938 114.089844 165.496094 114.566406 C 166.035156 112.148438 168.5 100.992188 169.039062 98.574219 C 166.878906 98.09375 160.441406 96.667969 158.277344 96.1875 C 157.742188 98.605469 155.269531 109.761719 154.738281 112.179688 " fill-opacity="1" fill-rule="nonzero"/><path fill="#e979b9" d="M 169.15625 125 L 157.753906 116.4375 L 169.507812 100.75 L 180.910156 109.308594 L 169.15625 125 " fill-opacity="1" fill-rule="nonzero"/><path fill="#f291c9" d="M 160.015625 116.117188 C 161.785156 117.445312 167.058594 121.40625 168.832031 122.734375 C 170.316406 120.757812 177.167969 111.613281 178.648438 109.628906 C 176.878906 108.300781 171.601562 104.339844 169.832031 103.011719 C 168.347656 104.992188 161.5 114.136719 160.015625 116.117188 " fill-opacity="1" fill-rule="nonzero"/><path fill="#cc5c85" d="M 77.8125 130.863281 C 79.992188 134.128906 77.261719 137.703125 68.03125 137.734375 C 58.804688 137.765625 58.429688 132.65625 63.851562 130.441406 C 69.269531 128.234375 73.753906 124.78125 77.8125 130.863281 " fill-opacity="1" fill-rule="nonzero"/><path fill="#6a5966" d="M 117.929688 121.519531 C 118.28125 121.910156 123.910156 127.65625 129.492188 131.082031 C 135.078125 134.507812 139.019531 145.285156 131.003906 147.824219 C 122.992188 150.367188 114.78125 149.359375 101.066406 147.125 C 87.359375 144.882812 80.765625 145.460938 80.765625 145.460938 C 80.765625 145.460938 78.878906 142.179688 79.777344 136.65625 C 79.777344 136.65625 67.074219 130.242188 80.488281 114.78125 C 93.90625 99.3125 113.257812 116.269531 117.929688 121.519531 " fill-opacity="1" fill-rule="nonzero"/><path fill="#9e96a3" d="M 100.921875 143.007812 C 88.683594 141.402344 79.679688 136.738281 79.777344 136.65625 C 79.898438 136.285156 88.96875 140.527344 101.046875 142.105469 C 113.105469 143.871094 122.96875 142.257812 122.976562 142.449219 C 123.089844 142.746094 113.128906 144.792969 100.921875 143.007812 " fill-opacity="1" fill-rule="nonzero"/><path fill="#eb7ca7" d="M 87.71875 137.25 C 90.382812 141.234375 87.046875 145.582031 75.796875 145.625 C 64.546875 145.664062 64.085938 139.4375 70.699219 136.742188 C 77.304688 134.046875 82.769531 129.839844 87.71875 137.25 " fill-opacity="1" fill-rule="nonzero"/><path fill="#654e2d" d="M 143.464844 116.011719 C 153.625 119.445312 162.65625 118.207031 162.640625 118.941406 C 162.789062 119.183594 153.625 121.332031 142.867188 117.726562 C 131.902344 114.078125 127.117188 105.179688 127.847656 105.0625 C 128.078125 104.804688 133.140625 112.59375 143.464844 116.011719 " fill-opacity="1" fill-rule="nonzero"/><path fill="#a587cb" d="M 122.933594 110.089844 C 122.933594 110.089844 119.035156 114.820312 126.144531 122.351562 C 126.144531 122.351562 123.613281 122.417969 118.917969 126.105469 C 114.226562 129.792969 100.375 135.128906 87.066406 131.222656 C 73.753906 127.3125 73.082031 119.027344 73.082031 119.027344 C 73.082031 119.027344 78.578125 113.15625 82.472656 103.230469 C 92.234375 78.34375 103.140625 74.910156 113.796875 77.871094 C 124.449219 80.828125 132.019531 106.074219 143.820312 109.753906 C 143.820312 109.753906 142.300781 118.285156 136.503906 120.074219 C 136.503906 120.074219 127.363281 117.175781 122.933594 110.089844 " fill-opacity="1" fill-rule="nonzero"/><path fill="#765eb0" d="M 139.746094 107.570312 C 139.050781 111.746094 136.4375 116.050781 132.589844 118.386719 C 134.835938 119.546875 136.503906 120.074219 136.503906 120.074219 C 142.300781 118.285156 143.820312 109.753906 143.820312 109.753906 C 142.40625 109.3125 141.054688 108.558594 139.746094 107.570312 " fill-opacity="1" fill-rule="nonzero"/><path fill="#d7b5df" d="M 122.636719 108.753906 C 126 114.617188 131.1875 117.125 130.886719 117.488281 C 130.972656 117.578125 125.394531 115.335938 121.867188 109.246094 C 118.367188 103.535156 113.496094 100.613281 113.726562 100.363281 C 113.746094 100.183594 118.972656 102.8125 122.636719 108.753906 " fill-opacity="1" fill-rule="nonzero"/><path fill="#f4ca9d" d="M 164.527344 113.976562 C 160.785156 114.207031 157.878906 116.5625 158.042969 119.230469 C 158.210938 121.910156 161.382812 123.886719 165.132812 123.65625 C 168.882812 123.417969 171.789062 121.066406 171.625 118.394531 C 171.457031 115.71875 168.28125 113.738281 164.527344 113.976562 " fill-opacity="1" fill-rule="nonzero"/><path fill="#f4ca9d" d="M 141.472656 67.746094 C 143.925781 68.929688 147.484375 70.273438 148.632812 70.378906 C 149.121094 69.726562 150.449219 67.089844 151.042969 65.410156 C 151.855469 65.300781 152.644531 64.734375 153.046875 63.835938 C 153.609375 62.605469 153.242188 61.230469 152.246094 60.667969 C 153.875 50.320312 149.285156 39.539062 139.785156 33.769531 C 127.234375 26.144531 110.894531 30.148438 103.28125 42.703125 C 95.660156 55.265625 99.230469 72.394531 112.207031 79.25 C 121.371094 84.089844 130.738281 84.238281 138.789062 79.828125 C 139.445312 79.464844 140.589844 79.179688 142.9375 77.140625 C 137.28125 74.378906 141.472656 67.746094 141.472656 67.746094 " fill-opacity="1" fill-rule="nonzero"/><path fill="#231f20" d="M 147.304688 54.6875 C 147.449219 56.207031 146.71875 57.515625 145.671875 57.617188 C 144.625 57.71875 143.652344 56.574219 143.5 55.066406 C 143.351562 53.554688 144.078125 52.246094 145.132812 52.140625 C 146.179688 52.035156 147.15625 53.179688 147.304688 54.6875 " fill-opacity="1" fill-rule="nonzero"/><path fill="#231f20" d="M 147 46.660156 C 146.6875 46.894531 145.855469 45.429688 144.445312 45.539062 C 142.972656 45.859375 141.804688 46.910156 141.597656 46.683594 C 141.398438 46.554688 142.152344 44.992188 144.3125 44.480469 C 146.839844 44.46875 147.210938 46.769531 147 46.660156 " fill-opacity="1" fill-rule="nonzero"/><path fill="#f3a4a1" d="M 145.234375 60.839844 C 145.027344 61.972656 143.132812 62.582031 140.980469 62.1875 C 138.839844 61.804688 137.269531 60.574219 137.472656 59.441406 C 137.671875 58.300781 139.582031 57.699219 141.722656 58.082031 C 143.867188 58.472656 145.449219 59.703125 145.234375 60.839844 " fill-opacity="1" fill-rule="nonzero"/><path fill="#ceaf21" d="M 104.128906 81.671875 C 104.128906 81.671875 107.785156 83.894531 111.253906 75.8125 C 114.726562 67.730469 110.777344 64.984375 110.777344 64.984375 C 110.777344 64.984375 105.015625 63.019531 107.164062 57.878906 C 109.171875 53.066406 115.183594 55.308594 115.351562 58.449219 C 115.351562 58.449219 126.792969 59.320312 134.25 51.148438 C 141.699219 42.984375 141.082031 35.449219 141.082031 35.449219 C 141.082031 35.449219 147.605469 40.308594 149.914062 44.757812 C 149.914062 44.757812 155.746094 36.316406 152.523438 32.210938 C 149.292969 28.101562 146.304688 29.5 141.335938 27.378906 C 136.367188 25.257812 122.953125 16.152344 104.820312 24.449219 C 86.691406 32.75 85.675781 58.480469 94.171875 66.863281 C 102.667969 75.242188 106.265625 78.140625 104.128906 81.671875 " fill-opacity="1" fill-rule="nonzero"/><path fill="#e9dc9c" d="M 116.519531 24.472656 C 116.617188 24.328125 111.6875 23.296875 106.507812 25.625 C 101.363281 27.890625 98.761719 31.714844 99.003906 31.832031 C 99.242188 32.0625 102.097656 28.699219 106.996094 26.558594 C 111.875 24.347656 116.535156 24.882812 116.519531 24.472656 " fill-opacity="1" fill-rule="nonzero"/><path fill="#e9dc9c" d="M 134.21875 31.476562 C 134.449219 31.417969 129.195312 27.414062 121.707031 27.667969 C 114.339844 27.859375 109.394531 31.304688 109.808594 31.664062 C 109.796875 31.738281 114.765625 28.855469 121.800781 28.675781 C 128.890625 28.414062 134.09375 31.84375 134.21875 31.476562 " fill-opacity="1" fill-rule="nonzero"/><path fill="#e9dc9c" d="M 116.394531 55.667969 C 115.941406 56 121.109375 49.253906 115.957031 41.375 C 109.613281 34.539062 101.25 35.800781 101.628906 35.785156 C 101.28125 36.285156 109.480469 35.726562 115.113281 41.941406 C 119.828125 48.898438 115.488281 55.78125 116.394531 55.667969 " fill-opacity="1" fill-rule="nonzero"/><path fill="#e9dc9c" d="M 107.363281 73.6875 C 107.429688 73.828125 108.652344 71.675781 107.1875 68.347656 C 105.957031 65.078125 102.890625 61.261719 100.886719 56.585938 C 96.992188 46.539062 104.207031 39.828125 104.199219 40.410156 C 103.996094 39.253906 95.742188 46.070312 99.914062 56.90625 C 102.035156 61.800781 105.175781 65.511719 106.503906 68.578125 C 108.058594 71.648438 107.175781 73.644531 107.363281 73.6875 " fill-opacity="1" fill-rule="nonzero"/><path fill="#e9dc9c" d="M 95.65625 61.425781 C 96.007812 61.246094 92.394531 57.765625 92.292969 52.363281 C 92.152344 47.039062 94.46875 43.191406 94.160156 43.074219 C 93.992188 42.871094 91.121094 46.609375 91.238281 52.328125 C 91.40625 58.21875 95.667969 61.679688 95.65625 61.425781 " fill-opacity="1" fill-rule="nonzero"/><path fill="#c94a5a" d="M 92.785156 33.714844 C 94.851562 31.769531 95.902344 34.90625 94.476562 38.261719 C 93.042969 41.617188 90.28125 43.523438 89.652344 42.851562 C 89.019531 42.183594 91.773438 34.671875 92.785156 33.714844 " fill-opacity="1" fill-rule="nonzero"/><path fill="#ceaf21" d="M 93.023438 33.648438 C 93.023438 33.648438 91.96875 29.914062 83.738281 26.867188 C 75.515625 23.828125 61.441406 31.296875 70.421875 46.203125 C 79.394531 61.117188 75.867188 61.839844 71.9375 61.175781 C 68.007812 60.511719 60.390625 57.328125 58.761719 61.414062 C 57.128906 65.503906 63.539062 68.207031 63.539062 68.207031 C 63.539062 68.207031 58.230469 63.824219 61.621094 62.351562 C 65.003906 60.878906 71.621094 67.6875 77.359375 63.605469 C 83.097656 59.515625 82.117188 55.132812 80.195312 51.335938 C 78.273438 47.535156 79.992188 43.117188 84.183594 42.582031 C 88.371094 42.039062 88.855469 42.378906 89.984375 41.132812 C 91.109375 39.882812 93.023438 33.648438 93.023438 33.648438 " fill-opacity="1" fill-rule="nonzero"/><path fill="#e9dc9c" d="M 70.003906 34.667969 C 69.277344 34.703125 73.015625 28.234375 80.859375 28.871094 C 88.535156 29.191406 92.1875 35.085938 91.808594 35.011719 C 91.679688 35.375 87.847656 30.171875 80.824219 29.941406 C 73.554688 29.351562 69.949219 34.828125 70.003906 34.667969 " fill-opacity="1" fill-rule="nonzero"/><path fill="#e9dc9c" d="M 68.820312 63.605469 C 68.8125 63.285156 71.558594 64.796875 75.460938 63.09375 C 77.1875 62.1875 79.601562 60.390625 78.597656 57.675781 C 77.890625 55.035156 76.167969 52.347656 75.105469 49.148438 C 73.695312 46.101562 74.558594 42.015625 77.402344 40.386719 C 80.101562 38.835938 82.488281 38.023438 84.722656 38.023438 C 89.214844 37.976562 90.078125 39.308594 89.976562 39.34375 C 89.929688 39.550781 88.984375 38.535156 84.757812 38.78125 C 81.246094 38.976562 72.867188 41.867188 76.117188 48.8125 C 77.117188 51.863281 78.820312 54.546875 79.550781 57.445312 C 80.652344 60.730469 77.601562 63.070312 75.761719 63.78125 C 71.410156 65.425781 68.691406 63.527344 68.820312 63.605469 " fill-opacity="1" fill-rule="nonzero"/><path fill="#654e2d" d="M 229.4375 277.640625 C 228.882812 277.433594 229.3125 275.1875 230.433594 272.742188 C 231.550781 270.277344 232.902344 268.5 233.429688 268.746094 C 233.953125 268.996094 233.464844 271.167969 232.355469 273.613281 C 231.234375 276.0625 229.976562 277.84375 229.4375 277.640625 " fill-opacity="1" fill-rule="nonzero"/><path fill="#f0608d" d="M 194.386719 213.367188 C 190.136719 216.523438 178.511719 231.558594 179.410156 236.859375 C 180.308594 242.15625 188.296875 243.054688 192.089844 243.554688 C 195.886719 244.054688 199.578125 218.265625 201.378906 216.269531 C 203.175781 214.269531 197.082031 211.367188 194.386719 213.367188 " fill-opacity="1" fill-rule="nonzero"/><path fill="#f182a6" d="M 253.300781 262.847656 C 255.625 263.5 253.101562 270.242188 251.402344 271.640625 C 249.707031 273.042969 242.117188 268.445312 242.117188 268.445312 C 242.117188 268.445312 250.804688 262.144531 253.300781 262.847656 " fill-opacity="1" fill-rule="nonzero"/><path fill="#b32b4d" d="M 229.234375 254.25 C 229.234375 254.25 241.320312 251.550781 247.507812 254.050781 C 253.699219 256.546875 242.417969 261.148438 237.824219 261.246094 C 233.230469 261.347656 229.234375 254.25 229.234375 254.25 " fill-opacity="1" fill-rule="nonzero"/><path fill="#ca4463" d="M 190.195312 259.851562 C 187.734375 260.929688 187.894531 269.546875 194.085938 272.542969 C 200.277344 275.542969 209.964844 272.144531 215.855469 271.84375 C 221.746094 271.546875 223.746094 273.34375 231.53125 272.640625 C 239.320312 271.945312 258.890625 265.347656 256.398438 257.648438 C 255.488281 254.851562 252 251.851562 243.316406 255.25 C 234.625 258.648438 232.832031 258.75 230.035156 258.953125 C 227.242188 259.148438 192.691406 258.75 190.195312 259.851562 " fill-opacity="1" fill-rule="nonzero"/><path fill="#f182a6" d="M 207.035156 210.46875 C 196.386719 211.269531 192.65625 223.53125 192.390625 231.792969 C 192.125 240.058594 188.796875 253.386719 186.398438 255.785156 C 184.003906 258.183594 188.53125 263.113281 195.980469 264.847656 C 203.441406 266.578125 220.347656 268.179688 227.808594 264.179688 C 235.261719 260.179688 237.523438 256.984375 237.523438 256.316406 C 237.523438 255.648438 231.398438 253.921875 231.53125 248.855469 C 231.664062 243.789062 230.214844 223.914062 224.742188 217.667969 C 218.089844 210.066406 214.183594 209.933594 207.035156 210.46875 " fill-opacity="1" fill-rule="nonzero"/><path fill="#f182a6" d="M 228.835938 276.675781 C 227.851562 276.839844 223.542969 283.070312 223.84375 283.769531 C 224.144531 284.46875 236.222656 289.570312 239.019531 289.769531 C 241.816406 289.96875 231.832031 276.175781 228.835938 276.675781 " fill-opacity="1" fill-rule="nonzero"/><path fill="#654e2d" d="M 248.707031 226.464844 C 248.21875 226.148438 249.429688 223.367188 251.410156 220.246094 C 253.394531 217.128906 255.402344 214.855469 255.894531 215.167969 C 256.386719 215.480469 255.171875 218.261719 253.191406 221.382812 C 251.207031 224.5 249.195312 226.777344 248.707031 226.464844 " fill-opacity="1" fill-rule="nonzero"/><path fill="#f0608d" d="M 217.152344 209.003906 C 219.738281 208.347656 225.808594 211.402344 230.335938 215 C 234.269531 218.128906 238.585938 223.394531 240.984375 223.53125 C 243.382812 223.664062 247.242188 218.199219 247.507812 217.398438 C 247.773438 216.597656 255.496094 222.0625 254.433594 224.195312 C 253.367188 226.332031 244.84375 238.058594 243.246094 238.324219 C 241.652344 238.589844 227.671875 230.992188 226.207031 229.660156 C 224.742188 228.332031 209.296875 211 217.152344 209.003906 " fill-opacity="1" fill-rule="nonzero"/><path fill="#91614a" d="M 176.878906 201.558594 C 174.621094 199.476562 168.628906 199.390625 164.347656 204.207031 C 160.0625 209.027344 161.015625 214.714844 166.035156 217.949219 C 171.066406 221.191406 172.421875 218.316406 172.421875 218.316406 C 172.421875 218.316406 169.40625 217.625 171.179688 215.996094 C 172.953125 214.367188 185.675781 209.675781 176.878906 201.558594 " fill-opacity="1" fill-rule="nonzero"/><path fill="#bf8e7a" d="M 170.734375 217.722656 C 170.960938 217.671875 166.789062 217.273438 165.066406 213 C 164.371094 208.378906 168.136719 206.125 167.929688 206.273438 C 168.292969 206.324219 164.921875 208.824219 165.605469 212.855469 C 167.058594 216.632812 171.050781 217.429688 170.734375 217.722656 " fill-opacity="1" fill-rule="nonzero"/><path fill="#bf8e7a" d="M 175.054688 208.613281 C 174.960938 208.414062 176.257812 207.90625 177.398438 206.796875 C 178.585938 205.671875 178.554688 204.28125 178.664062 204.261719 C 178.863281 204.152344 179.164062 205.882812 177.796875 207.1875 C 176.507812 208.433594 175.066406 208.695312 175.054688 208.613281 " fill-opacity="1" fill-rule="nonzero"/><path fill="#f38754" d="M 182.984375 204.828125 C 182.710938 208.269531 180.277344 210.800781 176.839844 207.007812 C 173.402344 203.21875 175.691406 198.667969 178.292969 199.878906 C 180.898438 201.085938 182.984375 204.828125 182.984375 204.828125 " fill-opacity="1" fill-rule="nonzero"/><path fill="#91614a" d="M 235.738281 179.398438 C 235.738281 179.398438 239.105469 170.785156 233.660156 160.46875 C 228.207031 150.148438 213.019531 151.863281 208.074219 155.1875 C 208.074219 155.1875 191.617188 150.460938 180.035156 163.21875 C 168.453125 175.96875 171.300781 193.300781 179.039062 205.160156 C 186.777344 217.011719 196.71875 215.246094 196.71875 215.246094 C 196.71875 215.246094 221.972656 216.976562 226.871094 208.789062 C 231.765625 200.597656 235.738281 179.398438 235.738281 179.398438 " fill-opacity="1" fill-rule="nonzero"/><path fill="#f4ca9d" d="M 228.265625 166.359375 C 228.265625 166.359375 233.375 172.402344 229.71875 181.390625 C 226.0625 190.378906 224.648438 192.148438 226.203125 194.546875 C 226.203125 194.546875 225.289062 195.410156 223.863281 192.976562 C 222.441406 190.546875 219.671875 191.628906 219.449219 195.335938 C 219.226562 199.035156 221.464844 200.769531 224.144531 201.328125 C 226.824219 201.886719 226.675781 206.65625 225.019531 210.640625 C 225.019531 210.640625 239.5625 205.394531 239.941406 188.875 C 240.316406 172.355469 228.265625 166.359375 228.265625 166.359375 " fill-opacity="1" fill-rule="nonzero"/><path fill="#bf8e7a" d="M 217.113281 207.363281 C 217.136719 207.089844 214.433594 207.726562 212.15625 205.652344 C 210.039062 203.542969 209.289062 201.078125 209.125 201.152344 C 208.996094 201.152344 209.5 203.78125 211.78125 206.0625 C 214.316406 208.347656 217.265625 207.378906 217.113281 207.363281 " fill-opacity="1" fill-rule="nonzero"/><path fill="#bf8e7a" d="M 215.664062 207.824219 C 215.585938 207.597656 213.199219 209.78125 209.710938 208.53125 C 206.394531 207.597656 204.035156 205.902344 203.945312 206.058594 C 203.851562 206.144531 206.097656 208.089844 209.578125 209.070312 C 213.273438 210.398438 215.894531 207.785156 215.664062 207.824219 " fill-opacity="1" fill-rule="nonzero"/><path fill="#bf8e7a" d="M 198.558594 213.800781 C 198.785156 213.675781 194.226562 209.730469 192.507812 202.816406 C 190.703125 195.996094 191.816406 190.195312 191.640625 190.21875 C 191.519531 190.128906 190.128906 195.980469 191.96875 202.957031 C 193.734375 210.046875 198.59375 213.929688 198.558594 213.800781 " fill-opacity="1" fill-rule="nonzero"/><path fill="#bf8e7a" d="M 191.128906 180.015625 C 191.441406 180.125 191.175781 173.878906 195.292969 167.859375 C 199.308594 161.808594 204.9375 159.289062 204.789062 159.175781 C 204.828125 159.003906 198.960938 161.34375 194.832031 167.546875 C 190.601562 173.746094 191.132812 180.148438 191.128906 180.015625 " fill-opacity="1" fill-rule="nonzero"/><path fill="#bf8e7a" d="M 223.847656 170.074219 C 223.875 170.132812 223.734375 166.453125 221.121094 162.949219 C 218.519531 159.382812 214.800781 158.53125 214.851562 158.6875 C 214.746094 158.835938 218.210938 159.878906 220.679688 163.296875 C 223.175781 166.625 223.570312 170.160156 223.847656 170.074219 " fill-opacity="1" fill-rule="nonzero"/><path fill="#bf8e7a" d="M 223.085938 191.773438 C 223.40625 191.808594 220.53125 189.171875 222.535156 185.851562 C 223.867188 181.976562 221.113281 179.363281 221.230469 179.53125 C 220.910156 179.53125 223.242188 182.289062 222.027344 185.621094 C 219.886719 189.335938 223.25 192.121094 223.085938 191.773438 " fill-opacity="1" fill-rule="nonzero"/><path fill="#bf8e7a" d="M 178.355469 201.902344 C 178.296875 202.011719 180.082031 202.304688 181.773438 201.078125 C 183.410156 199.875 184.007812 198.289062 183.871094 198.246094 C 183.726562 198.160156 182.941406 199.539062 181.445312 200.625 C 179.941406 201.726562 178.351562 201.699219 178.355469 201.902344 " fill-opacity="1" fill-rule="nonzero"/><path fill="#bf8e7a" d="M 177.113281 199.707031 C 177.296875 199.667969 176.742188 196.824219 176.988281 193.273438 C 177.191406 189.714844 177.863281 186.890625 177.714844 186.851562 C 177.570312 186.800781 176.640625 189.609375 176.433594 193.238281 C 176.179688 196.871094 177.003906 199.753906 177.113281 199.707031 " fill-opacity="1" fill-rule="nonzero"/><path fill="#bf8e7a" d="M 179.039062 205.160156 C 178.878906 205.121094 179.960938 207.167969 182.453125 207.21875 C 184.773438 207.300781 186.460938 206.410156 186.394531 206.292969 C 186.347656 206.128906 184.625 206.742188 182.488281 206.65625 C 180.261719 206.628906 179.199219 205.007812 179.039062 205.160156 " fill-opacity="1" fill-rule="nonzero"/><path fill="#f38754" d="M 222.519531 210.542969 C 223.589844 207.261719 222.320312 203.988281 217.6875 206.164062 C 213.058594 208.335938 213.421875 213.410156 216.285156 213.304688 C 219.15625 213.195312 222.519531 210.542969 222.519531 210.542969 " fill-opacity="1" fill-rule="nonzero"/><path fill="#91614a" d="M 221.800781 208.359375 C 224.789062 207.6875 230.023438 210.609375 231.328125 216.929688 C 232.636719 223.246094 228.964844 227.6875 223 227.984375 C 217.03125 228.269531 217.289062 225.101562 217.289062 225.101562 C 217.289062 225.101562 220.246094 226.015625 219.523438 223.71875 C 218.800781 221.417969 210.125 210.988281 221.800781 208.359375 " fill-opacity="1" fill-rule="nonzero"/><path fill="#bf8e7a" d="M 219.046875 225.433594 C 218.878906 225.277344 222.6875 227.019531 226.3125 224.183594 C 229.226562 220.523438 227.089844 216.691406 227.199219 216.929688 C 226.851562 216.789062 228.527344 220.636719 225.921875 223.785156 C 222.773438 226.332031 218.917969 225.019531 219.046875 225.433594 " fill-opacity="1" fill-rule="nonzero"/><path fill="#bf8e7a" d="M 219.855469 215.382812 C 220.03125 215.253906 219.160156 214.167969 218.734375 212.640625 C 218.265625 211.066406 218.992188 209.878906 218.898438 209.808594 C 218.78125 209.617188 217.660156 210.957031 218.191406 212.777344 C 218.6875 214.5 219.800781 215.449219 219.855469 215.382812 " fill-opacity="1" fill-rule="nonzero"/><path fill="#f4ca9d" d="M 259.679688 209.410156 C 261.347656 210.488281 261.476562 213.242188 259.976562 215.558594 C 258.476562 217.875 255.910156 218.875 254.242188 217.789062 C 252.574219 216.710938 252.445312 213.957031 253.941406 211.640625 C 255.449219 209.324219 258.015625 208.324219 259.679688 209.410156 " fill-opacity="1" fill-rule="nonzero"/><path fill="#edda6f" d="M 299.019531 155.871094 L 307.953125 166.976562 L 292.695312 179.277344 L 283.757812 168.171875 L 299.019531 155.871094 " fill-opacity="1" fill-rule="nonzero"/><path fill="#f6f086" d="M 292.941406 177.007812 C 294.867188 175.457031 303.757812 168.285156 305.683594 166.730469 C 304.296875 165.007812 300.160156 159.863281 298.769531 158.140625 C 296.84375 159.691406 287.953125 166.863281 286.027344 168.417969 C 287.414062 170.140625 291.550781 175.28125 292.941406 177.007812 " fill-opacity="1" fill-rule="nonzero"/><path fill="#9fe0f8" d="M 298.539062 160.449219 L 312.734375 161.722656 L 310.984375 181.257812 L 296.792969 179.984375 L 298.539062 160.449219 " fill-opacity="1" fill-rule="nonzero"/><path fill="#bbe9f4" d="M 309.523438 179.5 C 309.746094 177.035156 310.761719 165.652344 310.984375 163.1875 C 308.777344 162.988281 302.210938 162.402344 300.003906 162.203125 C 299.785156 164.667969 298.765625 176.050781 298.546875 178.519531 C 300.75 178.71875 307.320312 179.304688 309.523438 179.5 " fill-opacity="1" fill-rule="nonzero"/><path fill="#f8b069" d="M 293.804688 150.886719 L 300.734375 163.355469 L 283.609375 172.890625 L 276.683594 160.421875 L 293.804688 150.886719 " fill-opacity="1" fill-rule="nonzero"/><path fill="#f5c981" d="M 298.535156 162.730469 C 297.460938 160.792969 294.257812 155.023438 293.179688 153.085938 C 291.019531 154.289062 281.042969 159.847656 278.878906 161.050781 C 279.953125 162.988281 283.160156 168.753906 284.238281 170.691406 C 286.398438 169.488281 296.375 163.933594 298.535156 162.730469 " fill-opacity="1" fill-rule="nonzero"/><path fill="#f4ca9d" d="M 189.167969 36.019531 C 191.054688 35.414062 193.269531 37.054688 194.109375 39.6875 C 194.953125 42.3125 194.101562 44.9375 192.207031 45.542969 C 190.320312 46.144531 188.101562 44.507812 187.265625 41.878906 C 186.421875 39.246094 187.277344 36.625 189.167969 36.019531 " fill-opacity="1" fill-rule="nonzero"/><path fill="#f4ca9d" d="M 249.316406 37.308594 C 251.175781 37.996094 251.90625 40.65625 250.945312 43.246094 C 249.988281 45.832031 247.699219 47.371094 245.835938 46.675781 C 243.980469 45.984375 243.246094 43.324219 244.210938 40.738281 C 245.167969 38.152344 247.453125 36.613281 249.316406 37.308594 " fill-opacity="1" fill-rule="nonzero"/><path fill="#d46f7c" d="M 235.1875 58.226562 C 233.9375 58.230469 236.195312 76.886719 237.796875 79.179688 C 239.390625 81.476562 252.984375 75.609375 252.625 73.398438 C 252.265625 71.1875 245.625 64.394531 243.144531 62.101562 C 241.925781 60.972656 235.800781 58.222656 235.1875 58.226562 " fill-opacity="1" fill-rule="nonzero"/><path fill="#553516" d="M 200.425781 102.988281 C 199.507812 103.90625 204.238281 111.375 208.238281 113.363281 C 212.238281 115.355469 230.121094 119.210938 235.800781 114.601562 C 241.480469 109.992188 239.574219 105.796875 235.28125 104.40625 C 230.984375 103.019531 203.117188 100.28125 200.425781 102.988281 " fill-opacity="1" fill-rule="nonzero"/><path fill="#d46f7c" d="M 207.710938 57.589844 C 207.710938 57.589844 202.421875 57.402344 196.9375 61.210938 C 191.453125 65.019531 187.566406 67.230469 187.570312 68.929688 C 187.570312 70.628906 196.773438 77.304688 198.972656 77.796875 C 201.171875 78.296875 210.714844 60.082031 207.710938 57.589844 " fill-opacity="1" fill-rule="nonzero"/><path fill="#c94a5a" d="M 223.1875 56.554688 C 220.238281 55.992188 207.207031 56.191406 206.914062 58.390625 C 206.621094 60.589844 200.175781 80.195312 199.085938 83.496094 C 197.992188 86.796875 196.015625 95.597656 194.621094 97.101562 C 193.226562 98.605469 210.628906 109.859375 215.121094 111.148438 C 219.617188 112.4375 239.691406 113.09375 245.46875 108.78125 C 251.253906 104.472656 251.550781 103.070312 251.347656 102.472656 C 251.148438 101.875 242.644531 94.492188 240.535156 89.203125 C 238.425781 83.910156 236.375 59.421875 235.972656 58.722656 C 235.574219 58.023438 225.785156 57.046875 223.1875 56.554688 " fill-opacity="1" fill-rule="nonzero"/><path fill="#ecbe92" d="M 224.710938 67.445312 C 228.449219 65.355469 231.308594 61.960938 232.972656 57.949219 C 229.757812 57.417969 224.902344 56.878906 223.1875 56.554688 C 220.652344 56.070312 210.683594 56.152344 207.738281 57.578125 C 210.503906 65.25 216.308594 72.644531 224.710938 67.445312 " fill-opacity="1" fill-rule="nonzero"/><path fill="#654e2d" d="M 215.136719 117.949219 C 214.996094 118.507812 212.320312 118.101562 209.691406 116.46875 C 207.03125 114.894531 205.296875 113.039062 205.640625 112.570312 C 205.984375 112.097656 208.214844 113.140625 210.757812 114.648438 C 213.28125 116.210938 215.292969 117.375 215.136719 117.949219 " fill-opacity="1" fill-rule="nonzero"/><path fill="#654e2d" d="M 226.417969 116.921875 C 226.367188 116.3125 228.882812 115.589844 231.929688 114.578125 C 234.992188 113.601562 237.511719 112.78125 237.792969 113.296875 C 238.078125 113.800781 235.839844 115.542969 232.582031 116.589844 C 229.320312 117.664062 226.453125 117.476562 226.417969 116.921875 " fill-opacity="1" fill-rule="nonzero"/><path fill="#d46f7c" d="M 226.367188 93.132812 C 226.675781 93.660156 222.460938 95.222656 218.039062 92.882812 C 213.761719 90.675781 211.71875 87.289062 212.171875 86.96875 C 212.621094 86.570312 215.230469 89.078125 218.980469 90.996094 C 222.730469 92.996094 226.203125 92.546875 226.367188 93.132812 " fill-opacity="1" fill-rule="nonzero"/><path fill="#61431c" d="M 235.089844 109.207031 C 236.550781 108.5 240.246094 107.449219 243.667969 105.789062 C 246.742188 104.292969 249.570312 102.183594 250.746094 101.472656 C 253.242188 99.96875 259.734375 100.453125 260.738281 103.546875 C 261.746094 106.648438 258.457031 110.550781 253.570312 113.761719 C 248.6875 116.972656 239.105469 119.894531 237.410156 120.292969 C 235.710938 120.699219 232.59375 110.410156 235.089844 109.207031 " fill-opacity="1" fill-rule="nonzero"/><path fill="#b23244" d="M 228.46875 116.894531 C 228.3125 117.816406 224.25 122.75 222 123.058594 C 219.746094 123.367188 218.359375 116.480469 220.003906 115.566406 C 221.648438 114.65625 227.53125 115.714844 227.976562 115.933594 C 228.425781 116.148438 228.46875 116.894531 228.46875 116.894531 " fill-opacity="1" fill-rule="nonzero"/><path fill="#61431c" d="M 203.316406 100.980469 C 199.5 96.902344 193.503906 89.304688 186.128906 95.722656 C 178.757812 102.136719 192.554688 110.101562 196.15625 112.59375 C 199.753906 115.085938 202.457031 117.476562 203.253906 118.074219 C 204.054688 118.671875 213.320312 109.253906 212.320312 107.957031 C 211.316406 106.660156 204.71875 102.476562 203.316406 100.980469 " fill-opacity="1" fill-rule="nonzero"/><path fill="#be3f4f" d="M 213.039062 117.453125 C 213.140625 118.453125 217.152344 124.039062 219.546875 124.535156 C 221.941406 125.03125 223.925781 117.726562 222.222656 116.628906 C 220.527344 115.535156 214.136719 116.25 213.636719 116.453125 C 213.140625 116.652344 213.039062 117.453125 213.039062 117.453125 " fill-opacity="1" fill-rule="nonzero"/><path fill="#a24632" d="M 183.542969 70.722656 C 183.773438 73.308594 184.632812 75.457031 182.050781 75.6875 C 182.050781 75.6875 184.679688 78.304688 187.402344 74.515625 C 189.785156 71.191406 189.515625 67.074219 189.195312 64.429688 C 183.207031 64.726562 183.316406 68.21875 183.542969 70.722656 " fill-opacity="1" fill-rule="nonzero"/><path fill="#a24632" d="M 189.0625 63.410156 C 189.101562 63.71875 189.148438 64.0625 189.195312 64.429688 C 189.382812 64.421875 189.558594 64.402344 189.761719 64.398438 C 196.34375 64.316406 196.75 60.40625 195.722656 57.453125 C 195.640625 57.199219 195.542969 56.945312 195.453125 56.683594 C 194.554688 56.882812 193.648438 57.066406 192.792969 57.238281 C 189.054688 57.984375 188.742188 60.917969 189.0625 63.410156 " fill-opacity="1" fill-rule="nonzero"/><path fill="#a24632" d="M 196.015625 48.914062 C 193.457031 50.910156 194.476562 53.929688 195.453125 56.683594 C 198.5 56.015625 201.4375 55.128906 201.734375 53.621094 C 202.113281 51.671875 200.0625 45.765625 196.015625 48.914062 " fill-opacity="1" fill-rule="nonzero"/><path fill="#c94a5a" d="M 186.203125 60.304688 C 185.523438 60.304688 183.34375 63.554688 184.234375 63.964844 C 184.664062 64.160156 186.742188 64.203125 188.859375 64.328125 C 187.574219 62.316406 186.402344 60.304688 186.203125 60.304688 " fill-opacity="1" fill-rule="nonzero"/><path fill="#c94a5a" d="M 193.773438 65.328125 C 193.425781 64.695312 191.121094 64.464844 188.859375 64.328125 C 189.773438 65.769531 190.742188 67.203125 191.457031 67.917969 C 192.125 68.585938 194.441406 66.558594 193.773438 65.328125 " fill-opacity="1" fill-rule="nonzero"/><path fill="#a24632" d="M 255.242188 69.363281 C 255.066406 71.746094 254.304688 73.746094 256.6875 73.917969 C 256.6875 73.917969 254.296875 76.375 251.730469 72.917969 C 249.484375 69.886719 249.671875 66.085938 249.925781 63.636719 C 255.453125 63.816406 255.40625 67.046875 255.242188 69.363281 " fill-opacity="1" fill-rule="nonzero"/><path fill="#a24632" d="M 250.027344 62.695312 C 250 62.980469 249.964844 63.296875 249.925781 63.636719 C 249.753906 63.632812 249.589844 63.621094 249.402344 63.621094 C 243.328125 63.640625 242.890625 60.035156 243.800781 57.300781 C 243.871094 57.0625 243.953125 56.828125 244.03125 56.585938 C 244.863281 56.753906 245.707031 56.90625 246.496094 57.050781 C 249.964844 57.6875 250.292969 60.390625 250.027344 62.695312 " fill-opacity="1" fill-rule="nonzero"/><path fill="#a24632" d="M 243.394531 49.421875 C 245.785156 51.226562 244.894531 54.023438 244.03125 56.585938 C 241.207031 56.011719 238.484375 55.238281 238.191406 53.847656 C 237.808594 52.054688 239.617188 46.574219 243.394531 49.421875 " fill-opacity="1" fill-rule="nonzero"/><path fill="#c94a5a" d="M 250.878906 59.265625 C 251.425781 59.078125 254.085938 61.101562 253.480469 61.683594 C 253.1875 61.960938 251.515625 62.574219 249.839844 63.257812 C 250.320312 61.273438 250.71875 59.320312 250.878906 59.265625 " fill-opacity="1" fill-rule="nonzero"/><path fill="#c94a5a" d="M 246.144531 65.433594 C 246.246094 64.824219 248.046875 63.996094 249.839844 63.257812 C 249.5 64.675781 249.117188 66.105469 248.734375 66.882812 C 248.378906 67.605469 245.941406 66.613281 246.144531 65.433594 " fill-opacity="1" fill-rule="nonzero"/><path fill="#f4ca9d" d="M 249.0625 33.238281 C 248.496094 49.609375 234.777344 62.417969 218.425781 61.851562 C 202.078125 61.285156 189.277344 47.546875 189.847656 31.175781 C 190.414062 14.808594 204.128906 2 220.488281 2.570312 C 236.835938 3.136719 249.636719 16.871094 249.0625 33.238281 " fill-opacity="1" fill-rule="nonzero"/><g clip-path="url(#id2)"><path fill="#a24632" d="M 220.417969 0.738281 C 204.066406 0.167969 188.628906 12.171875 189 31.148438 C 189.066406 34.683594 190.226562 38.117188 191.25 41.300781 C 192.746094 39.855469 194.203125 35.5625 195.574219 28.980469 C 197.625 19.117188 224.925781 28.585938 232.246094 13.601562 C 232.246094 13.601562 231.859375 20.238281 237.425781 23.1875 C 242.992188 26.136719 243.894531 28.109375 243.71875 33.296875 C 243.59375 36.84375 245.679688 42.867188 247.085938 42.921875 C 248.25 39.90625 249.296875 36.53125 249.675781 33.136719 C 251.796875 14.292969 236.769531 1.304688 220.417969 0.738281 " fill-opacity="1" fill-rule="nonzero"/></g><path fill="#c08177" d="M 192.25 27.367188 C 192.3125 27.441406 192.105469 24.871094 194.460938 21.824219 C 196.945312 18.65625 202.519531 17.632812 208.074219 17.691406 C 213.726562 17.835938 218.757812 17.863281 222.222656 16.609375 C 225.738281 15.515625 227.191406 13.609375 227.226562 13.667969 C 227.410156 13.71875 226.023438 15.898438 222.425781 17.175781 C 218.925781 18.625 213.625 18.683594 208.082031 18.542969 C 202.558594 18.492188 197.289062 19.40625 194.910156 22.226562 C 192.59375 24.953125 192.519531 27.484375 192.25 27.367188 " fill-opacity="1" fill-rule="nonzero"/><path fill="#c08177" d="M 193.121094 20.917969 C 193.007812 20.976562 193.46875 18.675781 196.347656 17.066406 C 199.070312 15.398438 203.347656 14.15625 208.144531 13.839844 C 212.984375 13.621094 217.25 14.546875 219.960938 12.738281 C 222.652344 11.292969 223.703125 9.5625 223.800781 9.652344 C 223.90625 9.671875 223.019531 11.59375 220.246094 13.265625 C 217.464844 15.320312 212.75 14.472656 208.199219 14.683594 C 198.394531 14.820312 192.433594 20.410156 193.121094 20.917969 " fill-opacity="1" fill-rule="nonzero"/><path fill="#c08177" d="M 194.394531 16.902344 C 194.03125 16.84375 196.0625 12.71875 200.882812 10.6875 C 205.457031 8.472656 209.578125 7.984375 209.597656 8.1875 C 209.664062 8.4375 205.683594 9.304688 201.253906 11.449219 C 196.609375 13.425781 194.523438 16.972656 194.394531 16.902344 " fill-opacity="1" fill-rule="nonzero"/><path fill="#c08177" d="M 245.753906 30.53125 C 245.550781 30.625 244.621094 25.007812 238.953125 21.21875 C 236.351562 19.46875 233.625 17.027344 233.980469 14.480469 C 234.023438 12.21875 234.691406 10.96875 234.769531 11.007812 C 235.046875 10.761719 232.542969 17.308594 239.480469 20.546875 C 245.335938 24.449219 246.078125 30.695312 245.753906 30.53125 " fill-opacity="1" fill-rule="nonzero"/><path fill="#c08177" d="M 247.664062 31.574219 C 247.421875 31.59375 247.371094 26.011719 244.078125 20.109375 C 240.917969 14.210938 237.050781 10.285156 237.230469 10.121094 C 237.367188 9.941406 241.582031 13.667969 244.828125 19.714844 C 248.214844 25.789062 247.90625 31.660156 247.664062 31.574219 " fill-opacity="1" fill-rule="nonzero"/><path fill="#231f20" d="M 202.367188 27.441406 C 202.636719 27.703125 203.640625 26.410156 205.140625 26.371094 C 206.667969 26.425781 207.808594 27.601562 208.003906 27.367188 C 208.210938 27.292969 207.410156 25.558594 205.160156 25.375 C 202.84375 25.546875 202.195312 27.449219 202.367188 27.441406 " fill-opacity="1" fill-rule="nonzero"/><path fill="#231f20" d="M 230.34375 27.167969 C 230.585938 27.441406 231.652344 26.1875 233.15625 26.207031 C 234.679688 26.324219 235.769531 27.550781 235.976562 27.320312 C 236.183594 27.265625 235.457031 25.484375 233.214844 25.214844 C 230.894531 25.292969 230.167969 27.171875 230.34375 27.167969 " fill-opacity="1" fill-rule="nonzero"/><path fill="#e09f68" d="M 218.292969 45.796875 C 218.234375 45.867188 219.277344 46.199219 220.296875 45.511719 C 221.269531 44.832031 221.628906 43.921875 221.53125 43.890625 C 221.429688 43.828125 220.9375 44.582031 220.082031 45.175781 C 219.207031 45.769531 218.304688 45.652344 218.292969 45.796875 " fill-opacity="1" fill-rule="nonzero"/><path fill="#f3a4a1" d="M 231.636719 43.890625 C 231.636719 45.070312 233.457031 46.027344 235.695312 46.027344 C 237.933594 46.019531 239.746094 45.054688 239.75 43.867188 C 239.742188 42.683594 237.929688 41.726562 235.683594 41.734375 C 233.449219 41.742188 231.632812 42.707031 231.636719 43.890625 " fill-opacity="1" fill-rule="nonzero"/><path fill="#f3a4a1" d="M 198.675781 44.097656 C 198.683594 45.277344 200.492188 46.238281 202.734375 46.226562 C 204.972656 46.222656 206.785156 45.253906 206.78125 44.070312 C 206.78125 42.886719 204.957031 41.929688 202.722656 41.933594 C 200.484375 41.941406 198.667969 42.90625 198.675781 44.097656 " fill-opacity="1" fill-rule="nonzero"/><path fill="#ffffff" d="M 227.242188 48.769531 C 227.242188 48.769531 222.914062 49.675781 219.425781 49.675781 C 215.941406 49.683594 211.582031 48.621094 211.582031 48.621094 C 211.582031 48.621094 213.042969 57.113281 220.753906 56.328125 C 226.09375 55.785156 227.242188 48.769531 227.242188 48.769531 " fill-opacity="1" fill-rule="nonzero"/><path fill="#231f20" d="M 207.617188 38.441406 C 207.660156 39.652344 206.714844 40.664062 205.5 40.707031 C 204.296875 40.753906 203.277344 39.8125 203.234375 38.597656 C 203.191406 37.382812 204.136719 36.375 205.347656 36.324219 C 206.554688 36.277344 207.570312 37.226562 207.617188 38.441406 " fill-opacity="1" fill-rule="nonzero"/><path fill="#231f20" d="M 235.199219 38.21875 C 235.246094 39.433594 234.308594 40.453125 233.09375 40.496094 C 231.875 40.539062 230.863281 39.589844 230.828125 38.382812 C 230.78125 37.171875 231.726562 36.15625 232.933594 36.109375 C 234.140625 36.066406 235.160156 37.011719 235.199219 38.21875 " fill-opacity="1" fill-rule="nonzero"/><path fill="#edda6f" d="M 225.882812 96.03125 L 211.632812 96.03125 L 211.632812 76.414062 L 225.882812 76.414062 L 225.882812 96.03125 " fill-opacity="1" fill-rule="nonzero"/><path fill="#f6f086" d="M 213.25 78.03125 C 213.25 80.507812 213.25 91.9375 213.25 94.414062 C 215.460938 94.414062 222.054688 94.414062 224.269531 94.414062 C 224.269531 91.9375 224.269531 80.507812 224.269531 78.03125 C 222.054688 78.03125 215.460938 78.03125 213.25 78.03125 " fill-opacity="1" fill-rule="nonzero"/><path fill="#9fe0f8" d="M 222.617188 92.785156 L 212.722656 103.050781 L 198.621094 89.433594 L 208.515625 79.167969 L 222.617188 92.785156 " fill-opacity="1" fill-rule="nonzero"/><path fill="#bbe9f4" d="M 200.90625 89.394531 C 202.683594 91.113281 210.902344 99.046875 212.683594 100.765625 C 214.21875 99.171875 218.796875 94.421875 220.335938 92.824219 C 218.554688 91.105469 210.339844 83.171875 208.554688 81.453125 C 207.019531 83.046875 202.441406 87.800781 200.90625 89.394531 " fill-opacity="1" fill-rule="nonzero"/><path fill="#f8b069" d="M 233.027344 95.089844 L 218.980469 92.667969 L 222.304688 73.339844 L 236.34375 75.761719 L 233.027344 95.089844 " fill-opacity="1" fill-rule="nonzero"/><path fill="#f5c981" d="M 220.84375 91.351562 C 223.027344 91.726562 229.527344 92.847656 231.707031 93.222656 C 232.128906 90.785156 234.0625 79.519531 234.480469 77.082031 C 232.300781 76.703125 225.800781 75.582031 223.621094 75.207031 C 223.199219 77.648438 221.265625 88.910156 220.84375 91.351562 " fill-opacity="1" fill-rule="nonzero"/><path fill="#e979b9" d="M 235.855469 103.46875 L 224.0625 95.464844 L 235.054688 79.230469 L 246.851562 87.230469 L 235.855469 103.46875 " fill-opacity="1" fill-rule="nonzero"/><path fill="#f291c9" d="M 226.304688 95.03125 C 228.136719 96.273438 233.59375 99.980469 235.425781 101.226562 C 236.816406 99.171875 243.21875 89.714844 244.609375 87.664062 C 242.777344 86.421875 237.320312 82.714844 235.484375 81.472656 C 234.097656 83.523438 227.691406 92.984375 226.304688 95.03125 " fill-opacity="1" fill-rule="nonzero"/><path fill="#654e2d" d="M 239.050781 97 C 238.894531 96.601562 244.554688 93.605469 250.210938 88.304688 C 253.535156 86.292969 250.148438 82.671875 249.597656 80.371094 C 248.519531 78.027344 247.847656 76.550781 248.097656 76.390625 C 248.335938 76.234375 249.457031 77.433594 250.90625 79.648438 C 251.617188 80.761719 252.425781 82.117188 253.113281 83.808594 C 253.402344 84.699219 253.859375 85.519531 253.65625 87.007812 C 253.199219 88.488281 252.40625 89.019531 251.683594 89.820312 C 245.683594 95.449219 239.269531 97.699219 239.050781 97 " fill-opacity="1" fill-rule="nonzero"/><path fill="#f4ca9d" d="M 239.023438 98.261719 C 239.4375 99.894531 237.820312 101.710938 235.414062 102.316406 C 233.003906 102.925781 230.722656 102.09375 230.3125 100.460938 C 229.898438 98.828125 231.515625 97.011719 233.921875 96.402344 C 236.324219 95.796875 238.613281 96.625 239.023438 98.261719 " fill-opacity="1" fill-rule="nonzero"/><path fill="#654e2d" d="M 203.566406 94.953125 C 203.726562 94.554688 198.050781 91.582031 192.371094 86.308594 C 189.039062 84.308594 192.410156 80.675781 192.949219 78.367188 C 194.015625 76.019531 194.683594 74.542969 194.433594 74.382812 C 194.195312 74.226562 193.074219 75.433594 191.636719 77.652344 C 190.929688 78.769531 190.128906 80.125 189.449219 81.820312 C 189.164062 82.714844 188.710938 83.539062 188.917969 85.023438 C 189.382812 86.503906 190.183594 87.027344 190.90625 87.824219 C 196.933594 93.429688 203.355469 95.648438 203.566406 94.953125 " fill-opacity="1" fill-rule="nonzero"/><path fill="#f4ca9d" d="M 203.605469 96.210938 C 203.199219 97.84375 204.824219 99.652344 207.234375 100.25 C 209.644531 100.847656 211.921875 100.007812 212.324219 98.371094 C 212.730469 96.738281 211.105469 94.929688 208.695312 94.332031 C 206.289062 93.734375 204.007812 94.574219 203.605469 96.210938 " fill-opacity="1" fill-rule="nonzero"/><path fill="#9f4125" d="M 313.765625 149 C 317.914062 150.402344 319.488281 153.902344 320.140625 157.835938 C 318.6875 158.835938 317.449219 159.601562 316.652344 159.984375 C 316.652344 159.984375 310.023438 158.683594 311.09375 151.84375 C 311.09375 151.84375 312.195312 150.695312 313.765625 149 " fill-opacity="1" fill-rule="nonzero"/><path fill="#654e2d" d="M 315.425781 152.476562 C 310.902344 155.847656 306.433594 157.214844 306.585938 157.820312 C 306.613281 158.234375 311.652344 157.605469 316.53125 153.984375 C 321.457031 150.457031 323.671875 145.886719 323.222656 145.6875 C 322.769531 145.390625 320.027344 149.199219 315.425781 152.476562 " fill-opacity="1" fill-rule="nonzero"/><path fill="#be8f7f" d="M 301.148438 155.542969 C 304.675781 154.121094 308.355469 155.003906 309.367188 157.519531 C 310.378906 160.035156 308.34375 163.226562 304.816406 164.648438 C 301.285156 166.074219 297.609375 165.191406 296.59375 162.675781 C 295.582031 160.160156 297.621094 156.96875 301.148438 155.542969 " fill-opacity="1" fill-rule="nonzero"/><path fill="#ef895e" d="M 337.03125 117.265625 C 337.03125 117.265625 338.386719 136.054688 335.753906 142.339844 C 333.121094 148.628906 320.347656 158.210938 316.652344 159.984375 C 316.652344 159.984375 315.441406 153.300781 311.09375 151.84375 C 311.09375 151.84375 323.632812 138.78125 324.507812 135.5625 C 325.386719 132.335938 321.980469 107.351562 325.542969 106.898438 C 329.113281 106.441406 334.566406 111.421875 337.03125 117.265625 " fill-opacity="1" fill-rule="nonzero"/><path fill="#f2bfa3" d="M 325.761719 131.183594 C 324.78125 117.386719 324.425781 105.785156 326.222656 106.53125 C 323.941406 105.507812 323.824219 117.582031 324.828125 131.21875 C 325.523438 134.871094 323.683594 137.339844 321.660156 139.738281 C 319.804688 142.089844 318.023438 144.132812 316.539062 145.851562 C 313.550781 149.28125 311.671875 151.382812 311.773438 151.476562 C 311.859375 151.5625 313.90625 149.621094 317.027344 146.292969 C 318.582031 144.625 320.417969 142.625 322.332031 140.273438 C 324.324219 138.214844 326.527344 134.816406 325.761719 131.183594 " fill-opacity="1" fill-rule="nonzero"/><path fill="#f2bfa3" d="M 335.65625 141.964844 C 327.839844 153.597656 316.855469 159.113281 317.242188 159.347656 C 317.140625 159.488281 328.316406 154.535156 336.503906 142.363281 C 340.214844 128.242188 337.355469 116.550781 337.621094 116.625 C 336.875 116.484375 339.195312 128.519531 335.65625 141.964844 " fill-opacity="1" fill-rule="nonzero"/><path fill="#c16234" d="M 313.765625 149 C 317.914062 150.402344 319.488281 153.902344 320.140625 157.835938 C 318.6875 158.835938 317.449219 159.601562 316.652344 159.984375 C 316.652344 159.984375 315.441406 153.300781 311.09375 151.84375 C 311.09375 151.84375 312.195312 150.695312 313.765625 149 " fill-opacity="1" fill-rule="nonzero"/><path fill="#edda6f" d="M 258.402344 217.417969 L 245.128906 212.234375 L 252.253906 193.960938 L 265.527344 199.148438 L 258.402344 217.417969 " fill-opacity="1" fill-rule="nonzero"/><path fill="#f6f086" d="M 253.171875 196.054688 C 252.269531 198.359375 248.117188 209.007812 247.21875 211.3125 C 249.28125 212.121094 255.421875 214.519531 257.484375 215.324219 C 258.386719 213.019531 262.535156 202.367188 263.4375 200.066406 C 261.375 199.257812 255.234375 196.859375 253.171875 196.054688 " fill-opacity="1" fill-rule="nonzero"/><path fill="#9fe0f8" d="M 256.539062 213.207031 L 243.59375 219.171875 L 235.402344 201.355469 L 248.347656 195.390625 L 256.539062 213.207031 " fill-opacity="1" fill-rule="nonzero"/><path fill="#bbe9f4" d="M 237.542969 202.144531 C 238.578125 204.394531 243.351562 214.777344 244.386719 217.027344 C 246.394531 216.097656 252.386719 213.34375 254.398438 212.414062 C 253.363281 210.164062 248.59375 199.78125 247.558594 197.535156 C 245.546875 198.457031 239.554688 201.21875 237.542969 202.144531 " fill-opacity="1" fill-rule="nonzero"/><path fill="#f8b069" d="M 265.398438 219.144531 L 253.195312 211.777344 L 263.308594 194.980469 L 275.507812 202.34375 L 265.398438 219.144531 " fill-opacity="1" fill-rule="nonzero"/><path fill="#f5c981" d="M 255.410156 211.226562 C 257.304688 212.371094 262.949219 215.78125 264.847656 216.925781 C 266.125 214.800781 272.019531 205.015625 273.292969 202.894531 C 271.402344 201.75 265.753906 198.34375 263.859375 197.199219 C 262.582031 199.320312 256.6875 209.105469 255.410156 211.226562 " fill-opacity="1" fill-rule="nonzero"/><path fill="#e979b9" d="M 264.992188 227.980469 L 256.910156 216.226562 L 273.046875 205.105469 L 281.132812 216.855469 L 264.992188 227.980469 " fill-opacity="1" fill-rule="nonzero"/><path fill="#f291c9" d="M 259.15625 216.644531 C 260.414062 218.464844 264.148438 223.90625 265.40625 225.730469 C 267.445312 224.324219 276.847656 217.847656 278.886719 216.441406 C 277.632812 214.613281 273.890625 209.175781 272.632812 207.351562 C 270.597656 208.757812 261.195312 215.238281 259.15625 216.644531 " fill-opacity="1" fill-rule="nonzero"/><path fill="#654e2d" d="M 75.945312 224.476562 C 75.765625 223.839844 80.308594 222.453125 85.957031 221.785156 C 91.613281 221.082031 96.253906 221.101562 96.3125 221.679688 C 96.371094 222.257812 91.84375 223.183594 86.226562 223.886719 C 80.585938 224.546875 76.085938 224.964844 75.945312 224.476562 " fill-opacity="1" fill-rule="nonzero"/><path fill="#654e2d" d="M 139.316406 185.894531 C 139.410156 186.210938 135.203125 189.929688 127.621094 191.34375 C 122.769531 189.796875 122.597656 186.0625 121.351562 184.175781 C 120.484375 182.023438 120.210938 180.601562 120.476562 180.496094 C 120.75 180.386719 121.503906 181.585938 122.683594 183.5 C 123.769531 185.09375 125.664062 188.8125 127.632812 189.234375 C 133.710938 188.078125 139.121094 185.15625 139.316406 185.894531 " fill-opacity="1" fill-rule="nonzero"/><path fill="#252828" d="M 113.289062 200.886719 C 113.289062 200.886719 132.859375 210.886719 129.863281 214.480469 C 126.867188 218.078125 119.675781 219.679688 115.484375 219.476562 C 111.292969 219.28125 100.308594 201.085938 113.289062 200.886719 " fill-opacity="1" fill-rule="nonzero"/><path fill="#32b47a" d="M 116.683594 159.105469 C 116.683594 159.105469 122.324219 172.054688 126.640625 177.597656 C 127.523438 178.730469 128.917969 180.121094 128.636719 180.488281 C 127.136719 182.449219 121.726562 188.480469 113.484375 186.296875 C 113.484375 186.296875 104.5 156.703125 116.683594 159.105469 " fill-opacity="1" fill-rule="nonzero"/><path fill="#323737" d="M 74.746094 208.085938 C 76.390625 210.644531 80.738281 218.480469 88.523438 218.878906 C 88.523438 218.878906 86.925781 228.074219 89.125 228.675781 C 91.320312 229.277344 118.679688 229.277344 122.273438 222.277344 C 125.867188 215.28125 106.496094 205.484375 106.496094 205.484375 C 106.496094 205.484375 72.949219 205.285156 74.746094 208.085938 " fill-opacity="1" fill-rule="nonzero"/><path fill="#4bbf8f" d="M 111.089844 156.503906 C 107.09375 155.105469 100.90625 152.105469 93.519531 159.304688 C 86.128906 166.5 73.546875 181.496094 70.953125 191.292969 C 68.355469 201.085938 69.949219 208.886719 71.949219 209.285156 C 73.945312 209.683594 94.316406 208.886719 99.707031 208.886719 C 105.097656 208.886719 112.289062 206.082031 116.085938 203.289062 C 119.878906 200.488281 110.492188 188.894531 115.683594 176.097656 C 120.875 163.304688 115.082031 157.902344 111.089844 156.503906 " fill-opacity="1" fill-rule="nonzero"/><path fill="#ecbe92" d="M 115.699219 176.0625 C 120.863281 163.292969 115.082031 157.902344 111.089844 156.503906 C 109.75 156.035156 108.273438 155.65625 106.621094 155.632812 C 105.554688 164.441406 109.242188 171.78125 115.699219 176.0625 " fill-opacity="1" fill-rule="nonzero"/><path fill="#f4ca9d" d="M 146.332031 184.472656 C 146.738281 186.421875 144.878906 188.453125 142.175781 189.015625 C 139.480469 189.578125 136.960938 188.457031 136.558594 186.511719 C 136.152344 184.566406 138.015625 182.535156 140.710938 181.972656 C 143.414062 181.40625 145.929688 182.527344 146.332031 184.472656 " fill-opacity="1" fill-rule="nonzero"/><path fill="#4bbf8f" d="M 77.675781 224.011719 C 77.675781 224.011719 72.214844 222.347656 68.289062 224.34375 C 68.289062 224.34375 65.519531 238.351562 68.6875 238.804688 C 72.878906 239.40625 77.675781 224.011719 77.675781 224.011719 " fill-opacity="1" fill-rule="nonzero"/><path fill="#654e2d" d="M 122.039062 194.546875 C 122.222656 194.753906 121.289062 196.136719 119.292969 197.832031 C 117.304688 199.074219 114.15625 202.566406 109.34375 200.007812 C 103.523438 192.707031 104.042969 185.355469 104.160156 185.414062 C 104.878906 184.980469 105.863281 192.664062 110.476562 198.363281 C 112.832031 199.929688 116.660156 197.683594 118.507812 196.582031 C 120.605469 195.285156 121.851562 194.324219 122.039062 194.546875 " fill-opacity="1" fill-rule="nonzero"/><path fill="#5b6266" d="M 88.503906 218.820312 C 88.519531 218.300781 91.863281 218.265625 95.914062 217.078125 C 99.9375 215.953125 103.074219 214.472656 103.242188 215.039062 C 103.402344 215.59375 100.285156 217.050781 96.210938 218.191406 C 92.179688 219.386719 88.507812 219.480469 88.503906 218.820312 " fill-opacity="1" fill-rule="nonzero"/><path fill="#32b47a" d="M 92.320312 170.398438 C 93.507812 176.269531 95.910156 185.929688 97.566406 187.605469 C 98.980469 189.039062 111.351562 183.335938 110.351562 180.035156 C 109.425781 176.964844 106.382812 167.226562 105.328125 161.871094 C 104.273438 156.519531 98.339844 157.464844 95.339844 160.414062 C 92.34375 163.363281 91.960938 168.628906 92.320312 170.398438 " fill-opacity="1" fill-rule="nonzero"/><path fill="#edda6f" d="M 132.601562 188.996094 L 120.113281 193.332031 L 113.699219 174.796875 L 126.183594 170.464844 L 132.601562 188.996094 " fill-opacity="1" fill-rule="nonzero"/><path fill="#f6f086" d="M 115.640625 175.832031 C 116.453125 178.171875 120.191406 188.972656 121 191.3125 C 122.941406 190.636719 128.722656 188.632812 130.660156 187.960938 C 129.851562 185.621094 126.113281 174.820312 125.300781 172.480469 C 123.359375 173.15625 117.582031 175.160156 115.640625 175.832031 " fill-opacity="1" fill-rule="nonzero"/><path fill="#9fe0f8" d="M 128.679688 186.921875 L 123.367188 199.632812 L 106.554688 191.054688 L 111.867188 178.347656 L 128.679688 186.921875 " fill-opacity="1" fill-rule="nonzero"/><path fill="#bbe9f4" d="M 108.542969 190.324219 C 110.664062 191.40625 120.460938 196.40625 122.582031 197.488281 C 123.410156 195.511719 125.867188 189.632812 126.691406 187.65625 C 124.570312 186.574219 114.773438 181.574219 112.648438 180.492188 C 111.824219 182.464844 109.363281 188.347656 108.542969 190.324219 " fill-opacity="1" fill-rule="nonzero"/><path fill="#f8b069" d="M 138.554688 185.9375 L 125.457031 187.921875 L 122.042969 168.648438 L 135.140625 166.664062 L 138.554688 185.9375 " fill-opacity="1" fill-rule="nonzero"/><path fill="#f5c981" d="M 126.65625 186.105469 C 128.695312 185.800781 134.757812 184.882812 136.792969 184.574219 C 136.359375 182.140625 134.371094 170.910156 133.941406 168.472656 C 131.90625 168.78125 125.847656 169.703125 123.808594 170.011719 C 124.238281 172.445312 126.226562 183.675781 126.65625 186.105469 " fill-opacity="1" fill-rule="nonzero"/><path fill="#e979b9" d="M 143.78125 192.992188 L 130.824219 189.015625 L 135.148438 170.332031 L 148.105469 174.308594 L 143.78125 192.992188 " fill-opacity="1" fill-rule="nonzero"/><path fill="#f291c9" d="M 132.644531 187.925781 C 134.65625 188.542969 140.65625 190.382812 142.667969 191 C 143.214844 188.640625 145.734375 177.757812 146.28125 175.394531 C 144.265625 174.777344 138.273438 172.9375 136.257812 172.320312 C 135.710938 174.679688 133.195312 185.566406 132.644531 187.925781 " fill-opacity="1" fill-rule="nonzero"/><path fill="#f4ca9d" d="M 127.101562 191.664062 C 128.292969 193.253906 127.472656 195.886719 125.265625 197.542969 C 123.0625 199.199219 120.304688 199.253906 119.113281 197.664062 C 117.925781 196.074219 118.746094 193.441406 120.953125 191.789062 C 123.15625 190.132812 125.910156 190.074219 127.101562 191.664062 " fill-opacity="1" fill-rule="nonzero"/><path fill="#3d1a2a" d="M 147.714844 125.222656 C 147.714844 125.222656 149.863281 127.191406 148.945312 133.433594 C 148.023438 139.675781 147.367188 143.28125 150.03125 146.980469 C 150.03125 146.980469 140.953125 147.578125 141.695312 139.902344 C 142.4375 132.230469 142.570312 120.007812 147.714844 125.222656 " fill-opacity="1" fill-rule="nonzero"/><path fill="#f4ca9d" d="M 89.59375 130.605469 C 87.328125 146.019531 99.246094 160.699219 114.777344 162.960938 C 130.304688 165.21875 143.574219 154.195312 145.84375 138.78125 C 148.113281 123.375 137.363281 109.046875 121.832031 106.789062 C 106.304688 104.527344 91.871094 115.191406 89.59375 130.605469 " fill-opacity="1" fill-rule="nonzero"/><path fill="#3d1a2a" d="M 96.832031 123.457031 C 96.832031 123.457031 99.058594 122.683594 96.300781 128.363281 C 93.546875 134.027344 88.246094 133.039062 91.734375 146.695312 C 91.734375 146.695312 86.964844 143.011719 85.40625 135.464844 C 82.023438 119.101562 93.5 116.917969 96.832031 123.457031 " fill-opacity="1" fill-rule="nonzero"/><path fill="#3d1a2a" d="M 132.507812 117.429688 C 132.507812 117.429688 132.328125 121.894531 139.085938 125.75 C 145.839844 129.609375 145.398438 126.769531 145.230469 125.976562 C 145.230469 125.976562 148.199219 128.027344 151.503906 127.839844 C 154.804688 127.652344 154.667969 125.339844 153.996094 125.339844 C 153.316406 125.34375 150.195312 124.308594 148.054688 118.546875 C 145.925781 112.777344 142.5625 104.828125 134.78125 107.898438 C 134.78125 107.898438 134.078125 101.683594 122.136719 98.992188 C 110.191406 96.300781 103.890625 104.273438 98.164062 107.171875 C 92.429688 110.066406 89.597656 110.992188 85.039062 107.933594 C 85.039062 107.933594 82.046875 110.566406 88.28125 114.71875 C 88.28125 114.71875 85.929688 120.566406 79.128906 122.253906 C 79.128906 122.253906 86.09375 128.242188 96.152344 125.363281 C 96.152344 125.363281 105.507812 128.136719 114.355469 118.703125 C 114.355469 118.703125 113.742188 124.621094 115.109375 124.933594 C 116.472656 125.269531 125.1875 116.710938 125.1875 116.710938 C 125.1875 116.710938 124.773438 123.03125 126.375 123.515625 C 127.972656 124 132.507812 117.429688 132.507812 117.429688 " fill-opacity="1" fill-rule="nonzero"/><path fill="#535a5d" d="M 132.507812 117.429688 C 132.640625 117.5 133.800781 115.71875 134.496094 113.207031 C 135.222656 110.695312 135.070312 108.546875 134.878906 108.554688 C 134.695312 108.558594 134.554688 110.605469 133.855469 113.03125 C 133.183594 115.460938 132.320312 117.328125 132.507812 117.429688 " fill-opacity="1" fill-rule="nonzero"/><path fill="#535a5d" d="M 125.1875 116.710938 C 125.363281 116.894531 127.613281 114.355469 129.242188 110.65625 C 130.183594 108.953125 130.648438 106.890625 131.78125 106.605469 C 132.917969 106.363281 133.652344 107.128906 133.695312 106.980469 C 133.746094 107.023438 133.234375 106.027344 131.671875 106.140625 C 130.003906 106.585938 129.609375 108.71875 128.644531 110.371094 C 127.015625 114.046875 125.113281 116.605469 125.1875 116.710938 " fill-opacity="1" fill-rule="nonzero"/><path fill="#535a5d" d="M 114.535156 118.351562 C 114.867188 118.570312 117.546875 113.617188 121.289062 107.910156 C 123.054688 104.945312 125.535156 102.921875 127.851562 102.976562 C 130.066406 102.902344 131.335938 103.695312 131.367188 103.574219 C 131.433594 103.542969 130.210938 102.5625 127.84375 102.511719 C 125.355469 102.285156 122.453125 104.585938 120.746094 107.535156 C 116.933594 113.332031 114.574219 118.351562 114.535156 118.351562 " fill-opacity="1" fill-rule="nonzero"/><path fill="#535a5d" d="M 79.457031 122.683594 C 79.417969 122.632812 82.570312 123.878906 87.804688 123.277344 C 93.070312 122.796875 99.730469 119.367188 105.722656 114.253906 C 111.832031 109.308594 116.585938 103.753906 121.46875 101.984375 C 126.382812 99.914062 129.527344 102.246094 129.398438 102.144531 C 129.679688 102.121094 126.449219 99.515625 121.308594 101.539062 C 116.199219 103.292969 111.359375 108.851562 105.289062 113.742188 C 99.335938 118.820312 92.875 122.214844 87.738281 122.804688 C 82.636719 123.527344 79.472656 122.464844 79.457031 122.683594 " fill-opacity="1" fill-rule="nonzero"/><path fill="#535a5d" d="M 96.921875 125.351562 C 96.914062 125.394531 99.128906 124.796875 101.902344 122.542969 C 104.699219 120.339844 108.019531 116.753906 111.707031 112.863281 C 115.414062 109 118.800781 105.472656 121.847656 103.757812 C 124.886719 101.800781 127.21875 102.515625 127.15625 102.589844 C 127.351562 102.355469 124.792969 101.421875 121.613281 103.34375 C 118.40625 105.019531 114.933594 108.542969 111.222656 112.410156 C 107.519531 116.308594 104.28125 119.925781 101.609375 122.183594 C 98.960938 124.488281 96.871094 125.214844 96.921875 125.351562 " fill-opacity="1" fill-rule="nonzero"/><path fill="#535a5d" d="M 88.28125 114.71875 C 88.238281 114.714844 90.269531 115.398438 93.484375 114.660156 C 96.75 114.039062 100.53125 111.3125 103.980469 107.894531 C 107.429688 104.441406 110.71875 101.503906 113.652344 100.238281 C 116.515625 98.839844 118.578125 99.003906 118.554688 98.910156 C 118.613281 98.820312 116.464844 98.484375 113.457031 99.8125 C 110.390625 101.003906 106.941406 103.992188 103.515625 107.425781 C 100.074219 110.824219 96.480469 113.496094 93.363281 114.207031 C 90.304688 115.03125 88.277344 114.539062 88.28125 114.71875 " fill-opacity="1" fill-rule="nonzero"/><path fill="#535a5d" d="M 145.230469 125.976562 C 145.3125 125.882812 141.757812 122.84375 140.933594 117.144531 C 139.816406 111.402344 135.570312 108.429688 135.484375 108.769531 C 135.410156 108.796875 139.203125 111.726562 140.285156 117.3125 C 141.101562 123.074219 145.148438 126.28125 145.230469 125.976562 " fill-opacity="1" fill-rule="nonzero"/><path fill="#535a5d" d="M 143.871094 125.171875 C 144.046875 124.925781 140.300781 123.351562 137.566406 119.511719 C 134.804688 115.628906 134.972656 111.558594 134.804688 111.605469 C 134.605469 111.496094 134.121094 115.785156 137.019531 119.886719 C 139.914062 123.9375 143.902344 125.261719 143.871094 125.171875 " fill-opacity="1" fill-rule="nonzero"/><path fill="#231f20" d="M 104.296875 130.25 C 104.609375 130.582031 105.929688 128.707031 107.796875 128.726562 C 109.6875 128.867188 111.03125 130.71875 111.289062 130.4375 C 111.554688 130.371094 110.644531 128.1875 107.867188 127.84375 C 104.976562 127.941406 104.078125 130.253906 104.296875 130.25 " fill-opacity="1" fill-rule="nonzero"/><path fill="#231f20" d="M 129.773438 130.765625 C 130.058594 131.117188 131.578125 129.382812 133.4375 129.515625 C 135.324219 129.777344 136.46875 131.644531 136.742188 131.371094 C 137.003906 131.328125 136.238281 129.082031 133.484375 128.585938 C 130.597656 128.503906 129.5625 130.757812 129.773438 130.765625 " fill-opacity="1" fill-rule="nonzero"/><path fill="#e09f68" d="M 121.101562 147.089844 C 121.039062 147.167969 122.09375 147.535156 123.167969 146.886719 C 124.191406 146.242188 124.597656 145.335938 124.503906 145.285156 C 124.402344 145.226562 123.863281 145.96875 122.957031 146.539062 C 122.039062 147.101562 121.121094 146.953125 121.101562 147.089844 " fill-opacity="1" fill-rule="nonzero"/><path fill="#f3a4a1" d="M 131.152344 144.933594 C 131.097656 146.128906 132.925781 147.179688 135.222656 147.269531 C 137.507812 147.359375 139.402344 146.449219 139.449219 145.253906 C 139.5 144.050781 137.679688 143.003906 135.386719 142.917969 C 133.097656 142.832031 131.199219 143.734375 131.152344 144.933594 " fill-opacity="1" fill-rule="nonzero"/><path fill="#f3a4a1" d="M 99.589844 143.886719 C 99.546875 145.085938 101.363281 146.136719 103.65625 146.214844 C 105.949219 146.304688 107.84375 145.410156 107.886719 144.207031 C 107.9375 143 106.113281 141.957031 103.820312 141.871094 C 101.53125 141.78125 99.636719 142.683594 99.589844 143.886719 " fill-opacity="1" fill-rule="nonzero"/><path fill="#ffffff" d="M 126.761719 151.324219 L 113.214844 150.578125 C 113.214844 150.578125 111.847656 158.992188 119.566406 158.4375 C 124.914062 158.0625 126.761719 151.324219 126.761719 151.324219 " fill-opacity="1" fill-rule="nonzero"/><path fill="#231f20" d="M 130.675781 139.019531 C 130.542969 140.308594 131.484375 141.453125 132.792969 141.585938 C 134.085938 141.707031 135.25 140.785156 135.375 139.492188 C 135.511719 138.203125 134.570312 137.054688 133.261719 136.925781 C 131.96875 136.789062 130.804688 137.730469 130.675781 139.019531 " fill-opacity="1" fill-rule="nonzero"/><path fill="#231f20" d="M 104.789062 137.820312 C 104.664062 139.109375 105.597656 140.261719 106.902344 140.398438 C 108.199219 140.519531 109.359375 139.585938 109.484375 138.300781 C 109.617188 137.007812 108.671875 135.851562 107.378906 135.726562 C 106.070312 135.59375 104.925781 136.535156 104.789062 137.820312 " fill-opacity="1" fill-rule="nonzero"/><path fill="#f4ca9d" d="M 88.503906 138.007812 C 90.390625 137.398438 92.605469 139.039062 93.445312 141.667969 C 94.285156 144.296875 93.4375 146.921875 91.542969 147.527344 C 89.652344 148.128906 87.4375 146.492188 86.601562 143.863281 C 85.757812 141.234375 86.609375 138.609375 88.503906 138.007812 " fill-opacity="1" fill-rule="nonzero"/></svg>