<svg xmlns="http://www.w3.org/2000/svg" xmlns:xlink="http://www.w3.org/1999/xlink" width="559" zoomAndPan="magnify" viewBox="0 0 419.25 297.749993" height="396" preserveAspectRatio="xMidYMid meet" version="1.0"><defs><clipPath id="id1"><path d="M 0 0.140625 L 418.5 0.140625 L 418.5 297.359375 L 0 297.359375 Z M 0 0.140625 " clip-rule="nonzero"/></clipPath><clipPath id="id2"><path d="M 86.34375 66 L 332.652344 66 L 332.652344 225 L 86.34375 225 Z M 86.34375 66 " clip-rule="nonzero"/></clipPath><clipPath id="id3"><path d="M 120 196 L 176 196 L 176 251.363281 L 120 251.363281 Z M 120 196 " clip-rule="nonzero"/></clipPath><clipPath id="id4"><path d="M 243 196 L 299 196 L 299 251.363281 L 243 251.363281 Z M 243 196 " clip-rule="nonzero"/></clipPath><clipPath id="id5"><path d="M 86.34375 80 L 332.652344 80 L 332.652344 177 L 86.34375 177 Z M 86.34375 80 " clip-rule="nonzero"/></clipPath><clipPath id="id6"><path d="M 154 46.230469 L 189 46.230469 L 189 67 L 154 67 Z M 154 46.230469 " clip-rule="nonzero"/></clipPath><clipPath id="id7"><path d="M 175 46.230469 L 210 46.230469 L 210 67 L 175 67 Z M 175 46.230469 " clip-rule="nonzero"/></clipPath></defs><g clip-path="url(#id1)"><path fill="#639cb8" d="M 0 0.140625 L 418.5 0.140625 L 418.5 297.359375 L 0 297.359375 Z M 0 0.140625 " fill-opacity="1" fill-rule="nonzero"/><path fill="#ffffff" d="M 0 0.140625 L 418.5 0.140625 L 418.5 297.359375 L 0 297.359375 Z M 0 0.140625 " fill-opacity="1" fill-rule="nonzero"/><path fill="#639cb8" d="M 0 0.140625 L 418.5 0.140625 L 418.5 297.359375 L 0 297.359375 Z M 0 0.140625 " fill-opacity="1" fill-rule="nonzero"/></g><g clip-path="url(#id2)"><path fill="#ccd6dd" d="M 325.726562 94.09375 C 325.726562 87.257812 318.890625 66.746094 298.378906 66.746094 L 150.707031 66.746094 C 141.292969 66.746094 128.214844 78.992188 121.296875 94.09375 L 100.109375 128.285156 C 90.175781 132.378906 86.433594 144.222656 86.433594 155.636719 L 86.433594 196.660156 C 86.433594 211.765625 98.679688 224.011719 113.78125 224.011719 L 305.214844 224.011719 C 320.316406 224.011719 332.5625 211.765625 332.5625 196.660156 L 332.5625 141.960938 C 332.5625 134.9375 325.726562 94.09375 325.726562 94.09375 Z M 325.726562 94.09375 " fill-opacity="1" fill-rule="nonzero"/></g><path fill="#e1e8ed" d="M 147.964844 182.988281 C 125.628906 182.988281 107.503906 200.847656 106.992188 223.0625 C 109.179688 223.617188 111.421875 224.011719 113.78125 224.011719 L 188.988281 224.011719 C 188.988281 201.359375 170.625 182.988281 147.964844 182.988281 Z M 312.003906 223.054688 C 311.492188 200.847656 293.375 182.988281 271.03125 182.988281 C 248.386719 182.988281 230.007812 201.359375 230.007812 224.011719 L 305.214844 224.011719 C 307.574219 224.011719 309.824219 223.617188 312.003906 223.054688 Z M 312.003906 223.054688 " fill-opacity="1" fill-rule="nonzero"/><g clip-path="url(#id3)"><path fill="#292f33" d="M 175.3125 224.011719 C 175.3125 224.910156 175.269531 225.800781 175.183594 226.695312 C 175.09375 227.585938 174.964844 228.46875 174.789062 229.347656 C 174.613281 230.226562 174.394531 231.09375 174.136719 231.953125 C 173.875 232.808594 173.574219 233.652344 173.230469 234.480469 C 172.890625 235.308594 172.507812 236.117188 172.085938 236.90625 C 171.664062 237.695312 171.203125 238.464844 170.707031 239.207031 C 170.207031 239.953125 169.675781 240.671875 169.105469 241.363281 C 168.539062 242.058594 167.9375 242.71875 167.304688 243.351562 C 166.671875 243.988281 166.007812 244.585938 165.316406 245.15625 C 164.625 245.722656 163.90625 246.257812 163.160156 246.753906 C 162.414062 247.253906 161.648438 247.710938 160.859375 248.132812 C 160.066406 248.558594 159.257812 248.9375 158.433594 249.28125 C 157.605469 249.625 156.761719 249.925781 155.90625 250.1875 C 155.046875 250.445312 154.179688 250.664062 153.300781 250.839844 C 152.421875 251.011719 151.539062 251.144531 150.648438 251.230469 C 149.753906 251.320312 148.863281 251.363281 147.964844 251.363281 C 147.070312 251.363281 146.175781 251.320312 145.285156 251.230469 C 144.394531 251.144531 143.507812 251.011719 142.632812 250.839844 C 141.753906 250.664062 140.886719 250.445312 140.027344 250.1875 C 139.171875 249.925781 138.328125 249.625 137.5 249.28125 C 136.671875 248.9375 135.863281 248.558594 135.074219 248.132812 C 134.285156 247.710938 133.515625 247.253906 132.773438 246.753906 C 132.027344 246.257812 131.308594 245.722656 130.617188 245.15625 C 129.925781 244.585938 129.261719 243.988281 128.628906 243.351562 C 127.996094 242.71875 127.394531 242.058594 126.828125 241.363281 C 126.257812 240.671875 125.726562 239.953125 125.226562 239.207031 C 124.730469 238.464844 124.269531 237.695312 123.847656 236.90625 C 123.425781 236.117188 123.042969 235.308594 122.699219 234.480469 C 122.359375 233.652344 122.054688 232.808594 121.796875 231.953125 C 121.535156 231.09375 121.320312 230.226562 121.144531 229.347656 C 120.96875 228.46875 120.839844 227.585938 120.75 226.695312 C 120.664062 225.800781 120.617188 224.910156 120.617188 224.011719 C 120.617188 223.117188 120.664062 222.222656 120.75 221.332031 C 120.839844 220.441406 120.96875 219.554688 121.144531 218.675781 C 121.320312 217.796875 121.535156 216.929688 121.796875 216.074219 C 122.054688 215.214844 122.359375 214.375 122.699219 213.546875 C 123.042969 212.71875 123.425781 211.910156 123.847656 211.121094 C 124.269531 210.328125 124.730469 209.5625 125.226562 208.816406 C 125.726562 208.074219 126.257812 207.355469 126.828125 206.660156 C 127.394531 205.96875 127.996094 205.304688 128.628906 204.671875 C 129.261719 204.039062 129.925781 203.4375 130.617188 202.871094 C 131.308594 202.300781 132.027344 201.769531 132.773438 201.269531 C 133.515625 200.773438 134.285156 200.3125 135.074219 199.890625 C 135.863281 199.46875 136.671875 199.085938 137.5 198.742188 C 138.328125 198.402344 139.171875 198.101562 140.027344 197.839844 C 140.886719 197.578125 141.753906 197.363281 142.632812 197.1875 C 143.507812 197.011719 144.394531 196.882812 145.285156 196.792969 C 146.175781 196.707031 147.070312 196.660156 147.964844 196.660156 C 148.863281 196.660156 149.753906 196.707031 150.648438 196.792969 C 151.539062 196.882812 152.421875 197.011719 153.300781 197.1875 C 154.179688 197.363281 155.046875 197.578125 155.90625 197.839844 C 156.761719 198.101562 157.605469 198.402344 158.433594 198.742188 C 159.257812 199.085938 160.066406 199.46875 160.859375 199.890625 C 161.648438 200.3125 162.414062 200.773438 163.160156 201.269531 C 163.90625 201.769531 164.625 202.300781 165.316406 202.871094 C 166.007812 203.4375 166.671875 204.039062 167.304688 204.671875 C 167.9375 205.304688 168.539062 205.96875 169.105469 206.660156 C 169.675781 207.355469 170.207031 208.074219 170.707031 208.816406 C 171.203125 209.5625 171.664062 210.328125 172.085938 211.121094 C 172.507812 211.910156 172.890625 212.71875 173.230469 213.546875 C 173.574219 214.375 173.875 215.214844 174.136719 216.074219 C 174.394531 216.929688 174.613281 217.796875 174.789062 218.675781 C 174.964844 219.554688 175.09375 220.441406 175.183594 221.332031 C 175.269531 222.222656 175.3125 223.117188 175.3125 224.011719 Z M 175.3125 224.011719 " fill-opacity="1" fill-rule="nonzero"/></g><path fill="#99aab5" d="M 161.640625 224.011719 C 161.640625 224.910156 161.550781 225.800781 161.378906 226.679688 C 161.203125 227.5625 160.941406 228.417969 160.597656 229.246094 C 160.253906 230.074219 159.835938 230.863281 159.335938 231.609375 C 158.835938 232.355469 158.269531 233.046875 157.636719 233.683594 C 157 234.316406 156.308594 234.886719 155.5625 235.382812 C 154.816406 235.882812 154.027344 236.304688 153.199219 236.648438 C 152.371094 236.992188 151.515625 237.25 150.632812 237.425781 C 149.753906 237.601562 148.863281 237.6875 147.964844 237.6875 C 147.070312 237.6875 146.179688 237.601562 145.296875 237.425781 C 144.417969 237.25 143.5625 236.992188 142.734375 236.648438 C 141.902344 236.304688 141.117188 235.882812 140.371094 235.382812 C 139.625 234.886719 138.933594 234.316406 138.296875 233.683594 C 137.664062 233.046875 137.097656 232.355469 136.597656 231.609375 C 136.097656 230.863281 135.675781 230.074219 135.332031 229.246094 C 134.988281 228.417969 134.730469 227.5625 134.554688 226.679688 C 134.378906 225.800781 134.292969 224.910156 134.292969 224.011719 C 134.292969 223.113281 134.378906 222.226562 134.554688 221.34375 C 134.730469 220.464844 134.988281 219.609375 135.332031 218.78125 C 135.675781 217.949219 136.097656 217.160156 136.597656 216.414062 C 137.097656 215.667969 137.664062 214.976562 138.296875 214.34375 C 138.933594 213.707031 139.625 213.140625 140.371094 212.640625 C 141.117188 212.144531 141.902344 211.722656 142.734375 211.378906 C 143.5625 211.035156 144.417969 210.777344 145.296875 210.601562 C 146.179688 210.425781 147.070312 210.335938 147.964844 210.335938 C 148.863281 210.335938 149.753906 210.425781 150.632812 210.601562 C 151.515625 210.777344 152.371094 211.035156 153.199219 211.378906 C 154.027344 211.722656 154.816406 212.144531 155.5625 212.640625 C 156.308594 213.140625 157 213.707031 157.636719 214.34375 C 158.269531 214.976562 158.835938 215.667969 159.335938 216.414062 C 159.835938 217.160156 160.253906 217.949219 160.597656 218.78125 C 160.941406 219.609375 161.203125 220.464844 161.378906 221.34375 C 161.550781 222.226562 161.640625 223.113281 161.640625 224.011719 Z M 161.640625 224.011719 " fill-opacity="1" fill-rule="nonzero"/><g clip-path="url(#id4)"><path fill="#292f33" d="M 298.378906 224.011719 C 298.378906 224.910156 298.335938 225.800781 298.246094 226.695312 C 298.160156 227.585938 298.027344 228.46875 297.851562 229.347656 C 297.679688 230.226562 297.460938 231.09375 297.199219 231.953125 C 296.941406 232.808594 296.640625 233.652344 296.296875 234.480469 C 295.953125 235.308594 295.570312 236.117188 295.148438 236.90625 C 294.726562 237.695312 294.265625 238.464844 293.769531 239.207031 C 293.273438 239.953125 292.738281 240.671875 292.171875 241.363281 C 291.601562 242.058594 291.003906 242.71875 290.367188 243.351562 C 289.734375 243.988281 289.074219 244.585938 288.378906 245.15625 C 287.6875 245.722656 286.96875 246.257812 286.222656 246.753906 C 285.480469 247.253906 284.710938 247.710938 283.921875 248.132812 C 283.132812 248.558594 282.324219 248.9375 281.496094 249.28125 C 280.667969 249.625 279.828125 249.925781 278.96875 250.1875 C 278.113281 250.445312 277.246094 250.664062 276.367188 250.839844 C 275.488281 251.011719 274.601562 251.144531 273.710938 251.230469 C 272.820312 251.320312 271.925781 251.363281 271.03125 251.363281 C 270.136719 251.363281 269.242188 251.320312 268.351562 251.230469 C 267.460938 251.144531 266.574219 251.011719 265.695312 250.839844 C 264.816406 250.664062 263.949219 250.445312 263.09375 250.1875 C 262.234375 249.925781 261.394531 249.625 260.566406 249.28125 C 259.738281 248.9375 258.929688 248.558594 258.140625 248.132812 C 257.347656 247.710938 256.582031 247.253906 255.835938 246.753906 C 255.09375 246.257812 254.375 245.722656 253.683594 245.15625 C 252.988281 244.585938 252.328125 243.988281 251.691406 243.351562 C 251.058594 242.71875 250.460938 242.058594 249.890625 241.363281 C 249.324219 240.671875 248.789062 239.953125 248.292969 239.207031 C 247.792969 238.464844 247.335938 237.695312 246.914062 236.90625 C 246.488281 236.117188 246.109375 235.308594 245.765625 234.480469 C 245.421875 233.652344 245.121094 232.808594 244.859375 231.953125 C 244.601562 231.09375 244.382812 230.226562 244.207031 229.347656 C 244.035156 228.46875 243.902344 227.585938 243.816406 226.695312 C 243.726562 225.800781 243.683594 224.910156 243.683594 224.011719 C 243.683594 223.117188 243.726562 222.222656 243.816406 221.332031 C 243.902344 220.441406 244.035156 219.554688 244.207031 218.675781 C 244.382812 217.796875 244.601562 216.929688 244.859375 216.074219 C 245.121094 215.214844 245.421875 214.375 245.765625 213.546875 C 246.109375 212.71875 246.488281 211.910156 246.914062 211.121094 C 247.335938 210.328125 247.792969 209.5625 248.292969 208.816406 C 248.789062 208.074219 249.324219 207.355469 249.890625 206.660156 C 250.460938 205.96875 251.058594 205.304688 251.691406 204.671875 C 252.328125 204.039062 252.988281 203.4375 253.683594 202.871094 C 254.375 202.300781 255.09375 201.769531 255.835938 201.269531 C 256.582031 200.773438 257.347656 200.3125 258.140625 199.890625 C 258.929688 199.46875 259.738281 199.085938 260.566406 198.742188 C 261.394531 198.402344 262.234375 198.101562 263.09375 197.839844 C 263.949219 197.578125 264.816406 197.363281 265.695312 197.1875 C 266.574219 197.011719 267.460938 196.882812 268.351562 196.792969 C 269.242188 196.707031 270.136719 196.660156 271.03125 196.660156 C 271.925781 196.660156 272.820312 196.707031 273.710938 196.792969 C 274.601562 196.882812 275.488281 197.011719 276.367188 197.1875 C 277.246094 197.363281 278.113281 197.578125 278.96875 197.839844 C 279.828125 198.101562 280.667969 198.402344 281.496094 198.742188 C 282.324219 199.085938 283.132812 199.46875 283.921875 199.890625 C 284.710938 200.3125 285.480469 200.773438 286.222656 201.269531 C 286.96875 201.769531 287.6875 202.300781 288.378906 202.871094 C 289.074219 203.4375 289.734375 204.039062 290.367188 204.671875 C 291.003906 205.304688 291.601562 205.96875 292.171875 206.660156 C 292.738281 207.355469 293.273438 208.074219 293.769531 208.816406 C 294.265625 209.5625 294.726562 210.328125 295.148438 211.121094 C 295.570312 211.910156 295.953125 212.71875 296.296875 213.546875 C 296.640625 214.375 296.941406 215.214844 297.199219 216.074219 C 297.460938 216.929688 297.679688 217.796875 297.851562 218.675781 C 298.027344 219.554688 298.160156 220.441406 298.246094 221.332031 C 298.335938 222.222656 298.378906 223.117188 298.378906 224.011719 Z M 298.378906 224.011719 " fill-opacity="1" fill-rule="nonzero"/></g><path fill="#99aab5" d="M 284.703125 224.011719 C 284.703125 224.910156 284.617188 225.800781 284.441406 226.679688 C 284.265625 227.5625 284.007812 228.417969 283.664062 229.246094 C 283.320312 230.074219 282.898438 230.863281 282.398438 231.609375 C 281.902344 232.355469 281.335938 233.046875 280.699219 233.683594 C 280.066406 234.316406 279.375 234.886719 278.628906 235.382812 C 277.882812 235.882812 277.09375 236.304688 276.261719 236.648438 C 275.433594 236.992188 274.578125 237.25 273.699219 237.425781 C 272.816406 237.601562 271.929688 237.6875 271.03125 237.6875 C 270.132812 237.6875 269.242188 237.601562 268.363281 237.425781 C 267.484375 237.25 266.628906 236.992188 265.796875 236.648438 C 264.96875 236.304688 264.179688 235.882812 263.433594 235.382812 C 262.6875 234.886719 261.996094 234.316406 261.363281 233.683594 C 260.726562 233.046875 260.160156 232.355469 259.660156 231.609375 C 259.164062 230.863281 258.742188 230.074219 258.398438 229.246094 C 258.054688 228.417969 257.796875 227.5625 257.621094 226.679688 C 257.445312 225.800781 257.355469 224.910156 257.355469 224.011719 C 257.355469 223.113281 257.445312 222.226562 257.621094 221.34375 C 257.796875 220.464844 258.054688 219.609375 258.398438 218.78125 C 258.742188 217.949219 259.164062 217.160156 259.660156 216.414062 C 260.160156 215.667969 260.726562 214.976562 261.363281 214.34375 C 261.996094 213.707031 262.6875 213.140625 263.433594 212.640625 C 264.179688 212.144531 264.96875 211.722656 265.796875 211.378906 C 266.628906 211.035156 267.484375 210.777344 268.363281 210.601562 C 269.242188 210.425781 270.132812 210.335938 271.03125 210.335938 C 271.929688 210.335938 272.816406 210.425781 273.699219 210.601562 C 274.578125 210.777344 275.433594 211.035156 276.261719 211.378906 C 277.09375 211.722656 277.882812 212.144531 278.628906 212.640625 C 279.375 213.140625 280.066406 213.707031 280.699219 214.34375 C 281.335938 214.976562 281.902344 215.667969 282.398438 216.414062 C 282.898438 217.160156 283.320312 217.949219 283.664062 218.78125 C 284.007812 219.609375 284.265625 220.464844 284.441406 221.34375 C 284.617188 222.226562 284.703125 223.113281 284.703125 224.011719 Z M 284.703125 224.011719 " fill-opacity="1" fill-rule="nonzero"/><g clip-path="url(#id5)"><path fill="#dd2e44" d="M 86.433594 155.636719 L 332.5625 155.636719 L 332.5625 176.148438 L 86.433594 176.148438 Z M 298.378906 100.933594 L 277.867188 100.933594 L 277.867188 80.417969 L 264.195312 80.417969 L 264.195312 100.933594 L 243.683594 100.933594 L 243.683594 114.609375 L 264.195312 114.609375 L 264.195312 135.121094 L 277.867188 135.121094 L 277.867188 114.609375 L 298.378906 114.609375 Z M 298.378906 100.933594 " fill-opacity="1" fill-rule="nonzero"/></g><path fill="#55acee" d="M 141.128906 80.417969 L 175.3125 80.417969 L 175.3125 128.285156 L 113.78125 128.285156 Z M 141.128906 80.417969 " fill-opacity="1" fill-rule="nonzero"/><g clip-path="url(#id6)"><path fill="#dd2e44" d="M 188.988281 56.488281 C 188.988281 62.15625 184.398438 66.746094 178.734375 66.746094 L 165.058594 66.746094 C 159.390625 66.746094 154.804688 62.15625 154.804688 56.488281 C 154.804688 50.820312 159.390625 46.230469 165.058594 46.230469 L 178.734375 46.230469 C 184.398438 46.230469 188.988281 50.820312 188.988281 56.488281 Z M 188.988281 56.488281 " fill-opacity="1" fill-rule="nonzero"/></g><g clip-path="url(#id7)"><path fill="#55acee" d="M 209.5 56.488281 C 209.5 62.15625 204.910156 66.746094 199.242188 66.746094 L 185.570312 66.746094 C 179.902344 66.746094 175.3125 62.15625 175.3125 56.488281 C 175.3125 50.820312 179.902344 46.230469 185.570312 46.230469 L 199.242188 46.230469 C 204.910156 46.230469 209.5 50.820312 209.5 56.488281 Z M 209.5 56.488281 " fill-opacity="1" fill-rule="nonzero"/></g></svg>