<svg xmlns="http://www.w3.org/2000/svg" xmlns:xlink="http://www.w3.org/1999/xlink" width="559" zoomAndPan="magnify" viewBox="0 0 419.25 297.749993" height="396" preserveAspectRatio="xMidYMid meet" version="1.0"><defs><clipPath id="id1"><path d="M 0 0.140625 L 418.5 0.140625 L 418.5 297.359375 L 0 297.359375 Z M 0 0.140625 " clip-rule="nonzero"/></clipPath><clipPath id="id2"><path d="M 122 35 L 297 35 L 297 267.175781 L 122 267.175781 Z M 122 35 " clip-rule="nonzero"/></clipPath><clipPath id="id3"><path d="M 122 127 L 249 127 L 249 267.175781 L 122 267.175781 Z M 122 127 " clip-rule="nonzero"/></clipPath></defs><g clip-path="url(#id1)"><path fill="#7d445f" d="M 0 0.140625 L 418.5 0.140625 L 418.5 297.359375 L 0 297.359375 Z M 0 0.140625 " fill-opacity="1" fill-rule="nonzero"/><path fill="#ffffff" d="M 0 0.140625 L 418.5 0.140625 L 418.5 297.359375 L 0 297.359375 Z M 0 0.140625 " fill-opacity="1" fill-rule="nonzero"/><path fill="#7d445f" d="M 0 0.140625 L 418.5 0.140625 L 418.5 297.359375 L 0 297.359375 Z M 0 0.140625 " fill-opacity="1" fill-rule="nonzero"/></g><g clip-path="url(#id2)"><path fill="#ffd0bc" d="M 243.777344 241.679688 C 246.617188 247.015625 249.03125 251.929688 248.417969 253.257812 C 248.25 253.613281 247.652344 254.171875 246.730469 254.863281 C 246.269531 255.210938 245.726562 255.589844 245.117188 255.992188 C 244.507812 256.394531 243.828125 256.824219 243.09375 257.269531 C 242.726562 257.488281 242.347656 257.714844 241.957031 257.945312 C 238.816406 259.78125 234.910156 261.8125 231.089844 263.5 C 230.613281 263.710938 230.136719 263.914062 229.664062 264.113281 C 228.601562 264.5625 227.550781 264.976562 226.535156 265.347656 C 226.027344 265.535156 225.527344 265.707031 225.042969 265.871094 C 223.578125 266.355469 222.210938 266.730469 221.007812 266.949219 C 220.207031 267.09375 219.476562 267.171875 218.835938 267.167969 C 218.269531 267.164062 217.773438 267.097656 217.363281 266.960938 C 217.15625 266.894531 216.972656 266.804688 216.8125 266.699219 C 216.492188 266.488281 216.261719 266.199219 216.136719 265.828125 C 214.457031 260.796875 223.652344 251.273438 223.652344 251.273438 C 223.652344 251.273438 209.285156 233.960938 205.96875 229.328125 C 205.367188 228.492188 204.6875 227.199219 203.976562 225.652344 L 197.789062 227.125 L 193.585938 211.683594 L 169.484375 214.550781 C 169.484375 214.550781 168.316406 211.539062 166.648438 207.261719 L 166.167969 207.273438 C 166.167969 207.273438 163.1875 217.261719 160.09375 225.109375 C 158.476562 229.460938 156.625 233.503906 155.097656 234.265625 C 155.015625 234.308594 154.917969 234.34375 154.804688 234.375 C 154.472656 234.464844 154.015625 234.511719 153.457031 234.515625 C 152.707031 234.523438 151.777344 234.453125 150.707031 234.320312 C 150.347656 234.277344 149.976562 234.222656 149.589844 234.167969 C 148.820312 234.050781 147.996094 233.90625 147.128906 233.742188 C 146.261719 233.574219 145.355469 233.382812 144.421875 233.171875 C 143.953125 233.066406 143.480469 232.957031 143.003906 232.84375 C 140.609375 232.265625 138.09375 231.574219 135.667969 230.8125 C 135.183594 230.660156 134.703125 230.503906 134.226562 230.347656 C 132.324219 229.71875 130.503906 229.050781 128.886719 228.371094 C 128.074219 228.03125 127.3125 227.691406 126.617188 227.347656 C 125.917969 227.007812 125.285156 226.664062 124.726562 226.328125 C 123.050781 225.3125 122.070312 224.328125 122.152344 223.457031 C 122.398438 220.894531 125.6875 219.011719 129.308594 217.707031 C 130.863281 217.144531 132.476562 216.691406 133.9375 216.335938 C 134.425781 216.214844 134.898438 216.109375 135.34375 216.011719 C 135.789062 215.914062 136.207031 215.824219 136.597656 215.75 C 136.984375 215.671875 137.339844 215.605469 137.65625 215.546875 C 138.597656 215.378906 139.179688 215.296875 139.179688 215.296875 C 139.179688 215.296875 143.175781 192.71875 148.480469 186.761719 C 150.21875 184.8125 153.453125 183.53125 157.011719 182.683594 C 157.011719 182.679688 157.011719 182.679688 157.011719 182.675781 C 157.242188 182.621094 157.480469 182.570312 157.714844 182.519531 C 157.8125 182.5 157.90625 182.472656 158.003906 182.453125 C 157.023438 181.039062 156.101562 179.523438 155.242188 177.925781 C 152.140625 178.800781 148.671875 178.71875 144.992188 176.882812 C 137.472656 173.132812 136.808594 167.617188 136.808594 167.617188 C 136.808594 167.617188 133.714844 164.75 135.261719 160.558594 C 136.808594 156.371094 142.78125 153.941406 142.78125 153.941406 C 142.78125 153.941406 144.097656 151.578125 146.214844 148.671875 C 143.554688 132.613281 143.402344 116.125 144.179688 106.300781 C 145.949219 83.953125 155.148438 59.042969 172.777344 46.898438 C 197.542969 29.839844 232.53125 33.953125 247.566406 45.421875 C 262.601562 56.890625 274.855469 70.867188 278.984375 108.507812 C 280.011719 117.882812 281.636719 127.0625 283.503906 135.566406 C 290.601562 141.171875 293.464844 147.707031 292.46875 153.503906 C 292.125 155.515625 291.097656 157.511719 289.683594 159.34375 C 293.558594 172.292969 296.890625 180.632812 296.890625 180.632812 C 296.890625 180.632812 276.34375 199.46875 234.679688 201.691406 L 235.816406 218.082031 L 231.125 219.199219 C 231.136719 219.347656 231.15625 219.488281 231.175781 219.625 C 231.578125 222.316406 238.398438 233.171875 243.355469 241.882812 Z M 243.777344 241.679688 " fill-opacity="1" fill-rule="nonzero"/></g><path fill="#99bba2" d="M 236.085938 153.722656 L 237.808594 190.953125 C 237.808594 190.953125 236.550781 191.539062 234.019531 192.171875 C 233.921875 192.195312 233.832031 192.222656 233.730469 192.246094 C 228.761719 193.449219 219.191406 194.738281 204.640625 192.496094 C 183.195312 189.1875 173.023438 181.027344 173.023438 181.027344 C 173.136719 180.589844 173.304688 179.765625 173.511719 178.652344 C 174.273438 174.480469 175.546875 166.199219 176.535156 158.425781 L 168.429688 157.691406 L 168.339844 154.171875 L 167.878906 135.792969 C 168.503906 136.257812 169.148438 136.707031 169.804688 137.136719 C 169.871094 137.183594 169.941406 137.222656 170.007812 137.265625 C 170.65625 137.683594 171.316406 138.09375 171.996094 138.476562 C 172.78125 138.917969 173.578125 139.332031 174.378906 139.726562 C 174.636719 139.855469 174.902344 139.972656 175.164062 140.09375 C 175.707031 140.351562 176.257812 140.605469 176.808594 140.84375 C 177.117188 140.976562 177.429688 141.101562 177.738281 141.226562 C 178.253906 141.4375 178.773438 141.636719 179.292969 141.828125 C 179.617188 141.949219 179.9375 142.066406 180.261719 142.175781 C 180.789062 142.359375 181.316406 142.527344 181.847656 142.691406 C 182.160156 142.789062 182.472656 142.890625 182.789062 142.980469 C 183.375 143.152344 183.96875 143.304688 184.558594 143.453125 C 184.816406 143.515625 185.070312 143.589844 185.324219 143.648438 C 186.164062 143.847656 187.003906 144.023438 187.851562 144.179688 C 188.058594 144.21875 188.269531 144.246094 188.476562 144.28125 C 188.523438 144.289062 188.570312 144.296875 188.617188 144.304688 C 197.25 145.761719 206.148438 145.09375 214.527344 142.660156 C 214.957031 142.535156 215.382812 142.410156 215.808594 142.277344 C 215.992188 142.21875 216.175781 142.15625 216.359375 142.097656 C 217.667969 141.671875 218.964844 141.207031 220.238281 140.699219 C 220.269531 140.6875 220.296875 140.675781 220.324219 140.664062 C 220.894531 140.4375 221.457031 140.195312 222.019531 139.949219 C 222.230469 139.855469 222.4375 139.769531 222.648438 139.675781 C 223.1875 139.433594 223.71875 139.179688 224.25 138.925781 C 224.46875 138.816406 224.6875 138.710938 224.90625 138.605469 C 225.4375 138.339844 225.964844 138.066406 226.488281 137.785156 C 226.683594 137.683594 226.875 137.574219 227.066406 137.46875 C 227.613281 137.167969 228.160156 136.863281 228.695312 136.546875 C 228.804688 136.484375 228.914062 136.417969 229.023438 136.351562 C 231.546875 134.84375 233.949219 133.15625 236.207031 131.308594 C 236.3125 131.21875 236.421875 131.136719 236.527344 131.046875 C 237.023438 130.632812 237.511719 130.210938 237.996094 129.78125 C 238.121094 129.667969 238.25 129.554688 238.375 129.441406 C 238.851562 129.007812 239.324219 128.570312 239.785156 128.121094 C 239.886719 128.019531 239.992188 127.914062 240.09375 127.8125 C 240.578125 127.335938 241.054688 126.855469 241.519531 126.363281 C 242.582031 126.148438 243.636719 125.957031 244.675781 125.800781 L 245.394531 145.921875 L 245.59375 151.515625 Z M 236.085938 153.722656 " fill-opacity="1" fill-rule="nonzero"/><path fill="#c7783d" d="M 168.429688 157.691406 L 176.535156 158.425781 C 175.546875 166.199219 174.273438 174.480469 173.511719 178.652344 C 173.277344 179.804688 173.105469 180.71875 173.023438 181.027344 C 173.023438 181.027344 173.003906 181.027344 172.976562 181.027344 C 172.96875 181.027344 172.96875 181.027344 172.960938 181.027344 C 172.933594 181.027344 172.898438 181.027344 172.851562 181.027344 C 172.820312 181.027344 172.785156 181.027344 172.742188 181.027344 C 172.703125 181.027344 172.660156 181.027344 172.613281 181.027344 C 172.558594 181.027344 172.5 181.027344 172.4375 181.027344 C 172.425781 181.027344 172.414062 181.027344 172.402344 181.027344 C 170.414062 181.042969 163.917969 181.1875 158.003906 182.453125 C 157.023438 181.035156 156.101562 179.523438 155.242188 177.921875 C 158.472656 177.007812 161.308594 175.050781 163.5625 172.910156 C 167.984375 168.71875 161.351562 161.222656 161.351562 161.222656 C 161.351562 161.222656 162.238281 158.355469 166.660156 155.046875 C 167.113281 154.703125 167.6875 154.417969 168.339844 154.171875 Z M 289.683594 159.34375 C 285.664062 164.546875 278.484375 168.433594 274.558594 167.617188 C 269.253906 166.515625 268.367188 162.324219 268.367188 162.324219 C 268.367188 162.324219 264.390625 163.648438 261.957031 160.78125 C 259.523438 157.914062 263.503906 151.074219 263.503906 151.074219 C 263.503906 151.074219 258.417969 146.886719 248.027344 146.003906 C 247.144531 145.929688 246.265625 145.90625 245.394531 145.921875 L 245.59375 151.515625 L 236.085938 153.722656 L 237.808594 190.953125 C 237.808594 190.953125 236.550781 191.539062 234.019531 192.171875 L 234.679688 201.691406 C 276.34375 199.46875 296.890625 180.632812 296.890625 180.632812 C 296.890625 180.632812 293.558594 172.292969 289.683594 159.34375 Z M 258.15625 83.699219 C 258.691406 83.824219 259.210938 83.992188 259.710938 84.195312 C 267.492188 87.324219 270.90625 99.238281 266.074219 107.292969 C 261.367188 115.140625 247.246094 121.410156 244.902344 122.414062 C 243.84375 123.78125 242.714844 125.09375 241.527344 126.355469 C 254.019531 123.820312 264.957031 125.5 275.003906 130.34375 C 278.3125 131.9375 281.140625 133.699219 283.503906 135.566406 C 281.636719 127.0625 280.011719 117.882812 278.984375 108.507812 C 274.855469 70.867188 262.601562 56.890625 247.566406 45.421875 C 232.53125 33.949219 197.542969 29.839844 172.777344 46.898438 C 155.148438 59.039062 145.949219 83.953125 144.179688 106.300781 C 143.402344 116.125 143.554688 132.613281 146.214844 148.671875 C 148.4375 145.621094 151.542969 141.972656 154.941406 139.828125 C 158.40625 137.636719 163.621094 136.414062 167.8125 135.742188 C 158.34375 128.644531 152.792969 117.617188 151 105.578125 C 157.878906 98.453125 168.625 73.132812 168.625 73.132812 C 168.625 73.132812 166.5625 90.28125 172.292969 92.339844 C 178.023438 94.398438 183.527344 81.59375 183.527344 81.59375 C 183.527344 81.59375 183.296875 89.136719 189.027344 90.511719 C 194.757812 91.882812 200.71875 78.621094 200.71875 78.621094 C 200.71875 78.621094 199.113281 87.078125 204.84375 88.679688 C 210.574219 90.28125 215.847656 74.960938 215.847656 74.960938 C 215.847656 74.960938 215.617188 80.449219 222.035156 89.136719 C 226.992188 95.847656 235.308594 96.699219 238.839844 96.738281 C 240.199219 94.582031 248.84375 81.523438 258.15625 83.699219 Z M 174.441406 104.84375 C 171.179688 101.929688 167.746094 100.445312 166.777344 101.527344 C 165.804688 102.609375 167.664062 105.847656 170.925781 108.761719 C 174.1875 111.675781 177.617188 113.160156 178.589844 112.078125 C 179.5625 110.996094 177.703125 107.757812 174.441406 104.84375 Z M 202.328125 100.945312 C 199.484375 104.261719 198.074219 107.71875 199.179688 108.664062 C 200.285156 109.609375 203.492188 107.683594 206.335938 104.363281 C 209.183594 101.042969 210.59375 97.589844 209.488281 96.644531 C 208.378906 95.699219 205.175781 97.625 202.328125 100.945312 Z M 202.328125 100.945312 " fill-opacity="1" fill-rule="nonzero"/><path fill="#342d2a" d="M 173.0625 180.867188 C 173.046875 180.929688 173.035156 180.984375 173.023438 181.027344 C 173.035156 180.984375 173.050781 180.917969 173.0625 180.867188 Z M 173.0625 180.867188 C 173.175781 180.40625 173.328125 179.652344 173.511719 178.652344 C 173.3125 179.648438 173.152344 180.464844 173.0625 180.867188 Z M 234.679688 201.691406 L 234.019531 192.171875 C 233.921875 192.195312 233.832031 192.222656 233.730469 192.246094 C 228.761719 193.449219 219.191406 194.738281 204.640625 192.496094 C 183.195312 189.1875 173.023438 181.027344 173.023438 181.027344 C 173.023438 181.027344 173.003906 181.027344 172.976562 181.027344 C 172.972656 181.027344 172.964844 181.027344 172.960938 181.027344 C 172.933594 181.027344 172.898438 181.027344 172.855469 181.027344 C 172.820312 181.027344 172.785156 181.027344 172.742188 181.027344 C 172.703125 181.027344 172.660156 181.027344 172.613281 181.027344 C 172.558594 181.027344 172.5 181.027344 172.4375 181.027344 C 172.425781 181.027344 172.414062 181.027344 172.402344 181.027344 C 170.289062 181.042969 163.160156 181.207031 157.007812 182.675781 C 159.390625 188.648438 163.761719 199.851562 166.648438 207.257812 C 168.316406 211.539062 169.484375 214.550781 169.484375 214.550781 L 193.585938 211.683594 L 197.785156 227.125 L 203.976562 225.652344 L 231.121094 219.195312 L 235.816406 218.082031 Z M 170.796875 115.523438 C 172.371094 115.910156 173.796875 116.4375 175.253906 117.195312 C 176.253906 117.722656 177.242188 118.351562 178.238281 119.105469 C 178.285156 119.945312 178.542969 120.753906 178.914062 121.421875 C 179.453125 122.398438 180.171875 123.167969 180.949219 123.800781 C 182.511719 125.0625 184.273438 125.933594 186.164062 126.375 C 184.746094 125.078125 183.363281 123.839844 182.25 122.488281 C 181.105469 121.167969 180.371094 119.671875 180.609375 118.445312 C 180.734375 117.84375 181.046875 117.394531 181.636719 116.992188 C 182.226562 116.601562 183.027344 116.328125 183.863281 116.125 C 185.558594 115.722656 187.417969 115.59375 189.332031 115.417969 C 187.5625 114.632812 185.640625 114.242188 183.621094 114.304688 C 182.609375 114.359375 181.550781 114.535156 180.515625 115.078125 C 180 115.355469 179.5 115.746094 179.101562 116.253906 C 178.910156 116.492188 178.753906 116.761719 178.625 117.039062 C 178.203125 116.269531 177.675781 115.546875 177.0625 114.902344 C 175.671875 113.417969 173.777344 112.351562 171.859375 111.785156 C 169.929688 111.214844 167.925781 111.054688 166.003906 111.3125 C 165.039062 111.425781 164.09375 111.644531 163.179688 111.964844 C 162.265625 112.292969 161.371094 112.695312 160.5625 113.304688 C 162.484375 113.824219 164.230469 114.140625 165.929688 114.472656 C 167.625 114.804688 169.242188 115.113281 170.796875 115.523438 Z M 205.5 112.023438 C 207.039062 110.914062 208.652344 110.066406 210.5 109.34375 C 212.335938 108.621094 214.285156 108 216.289062 107.375 C 218.292969 106.746094 220.339844 106.113281 222.464844 105.304688 C 220.285156 104.605469 218.042969 104.417969 215.804688 104.472656 C 213.566406 104.542969 211.316406 104.9375 209.121094 105.71875 C 206.941406 106.472656 204.730469 107.796875 203.210938 109.714844 C 202.445312 110.660156 201.851562 111.738281 201.480469 112.871094 C 201.117188 114 200.929688 115.203125 201.160156 116.363281 C 202.527344 114.507812 203.960938 113.144531 205.5 112.023438 Z M 196.074219 139.808594 C 196.277344 139.882812 196.484375 139.949219 196.691406 140.003906 C 196.484375 139.945312 196.277344 139.882812 196.074219 139.808594 Z M 195.980469 139.777344 C 196.238281 137.808594 196.9375 135.484375 198.5 132.988281 C 200.007812 130.585938 202.078125 128.949219 204.152344 127.835938 C 198.949219 126.46875 192.511719 126.433594 189.511719 128.429688 C 185.199219 131.296875 190.472656 137.828125 195.980469 139.777344 Z M 196.074219 139.808594 C 196.042969 139.800781 196.011719 139.789062 195.980469 139.777344 C 195.980469 139.777344 195.976562 139.78125 195.976562 139.78125 C 196.007812 139.792969 196.039062 139.800781 196.074219 139.808594 Z M 196.074219 139.808594 " fill-opacity="1" fill-rule="nonzero"/><g clip-path="url(#id3)"><path fill="#ee6647" d="M 139.175781 215.296875 L 160.640625 223.59375 C 160.460938 224.101562 160.277344 224.605469 160.089844 225.109375 C 158.476562 229.460938 156.625 233.503906 155.097656 234.265625 C 154.765625 234.429688 154.203125 234.511719 153.453125 234.515625 C 152.707031 234.523438 151.773438 234.453125 150.703125 234.320312 C 150.347656 234.277344 149.976562 234.222656 149.589844 234.167969 C 148.820312 234.050781 147.992188 233.90625 147.128906 233.742188 C 146.261719 233.574219 145.355469 233.382812 144.421875 233.171875 C 143.953125 233.066406 143.480469 232.957031 143.003906 232.84375 C 140.609375 232.265625 138.09375 231.574219 135.667969 230.8125 C 135.183594 230.660156 134.703125 230.503906 134.226562 230.347656 C 132.324219 229.71875 130.503906 229.050781 128.886719 228.371094 C 128.074219 228.03125 127.3125 227.691406 126.617188 227.347656 C 123.824219 225.980469 122.042969 224.617188 122.152344 223.457031 C 122.398438 220.894531 125.6875 219.011719 129.308594 217.707031 C 130.863281 217.144531 132.476562 216.691406 133.9375 216.335938 C 134.425781 216.214844 134.894531 216.105469 135.34375 216.007812 C 135.789062 215.914062 136.207031 215.824219 136.597656 215.75 C 136.984375 215.671875 137.339844 215.605469 137.65625 215.546875 C 138.597656 215.378906 139.175781 215.296875 139.175781 215.296875 Z M 243.777344 241.679688 L 243.355469 241.882812 L 223.652344 251.269531 C 223.652344 251.269531 214.453125 260.796875 216.136719 265.828125 C 216.261719 266.199219 216.488281 266.488281 216.8125 266.699219 C 216.972656 266.804688 217.15625 266.894531 217.363281 266.960938 C 217.773438 267.097656 218.269531 267.164062 218.835938 267.167969 C 221.390625 267.179688 225.40625 265.90625 229.664062 264.113281 C 230.136719 263.914062 230.613281 263.707031 231.089844 263.5 C 234.910156 261.8125 238.816406 259.78125 241.953125 257.945312 C 242.347656 257.714844 242.726562 257.488281 243.09375 257.265625 C 243.828125 256.824219 244.503906 256.394531 245.117188 255.992188 C 245.726562 255.585938 246.269531 255.207031 246.730469 254.863281 C 247.652344 254.171875 248.25 253.613281 248.417969 253.257812 C 249.03125 251.929688 246.617188 247.015625 243.777344 241.679688 Z M 211.78125 132.816406 C 211.769531 132.761719 211.746094 132.710938 211.730469 132.660156 C 211.695312 132.554688 211.660156 132.453125 211.617188 132.347656 C 211.589844 132.289062 211.558594 132.226562 211.527344 132.167969 C 211.480469 132.074219 211.429688 131.984375 211.375 131.898438 C 211.335938 131.832031 211.292969 131.769531 211.25 131.707031 C 211.191406 131.625 211.128906 131.542969 211.066406 131.460938 C 211.011719 131.394531 210.960938 131.332031 210.90625 131.269531 C 210.835938 131.191406 210.761719 131.117188 210.6875 131.039062 C 210.625 130.976562 210.5625 130.914062 210.496094 130.851562 C 210.417969 130.777344 210.332031 130.707031 210.246094 130.636719 C 210.175781 130.574219 210.101562 130.511719 210.023438 130.449219 C 209.9375 130.382812 209.84375 130.320312 209.753906 130.253906 C 209.667969 130.191406 209.585938 130.128906 209.496094 130.070312 C 209.417969 130.015625 209.332031 129.964844 209.25 129.914062 C 209.019531 129.769531 208.78125 129.628906 208.53125 129.496094 C 208.46875 129.460938 208.410156 129.425781 208.34375 129.390625 C 208.203125 129.320312 208.058594 129.25 207.910156 129.179688 C 207.835938 129.144531 207.765625 129.109375 207.6875 129.074219 C 207.539062 129.003906 207.382812 128.9375 207.226562 128.871094 C 207.152344 128.839844 207.074219 128.804688 206.996094 128.773438 C 206.835938 128.707031 206.671875 128.644531 206.503906 128.582031 C 206.429688 128.554688 206.355469 128.527344 206.28125 128.5 C 206.105469 128.433594 205.925781 128.371094 205.746094 128.3125 C 205.679688 128.289062 205.613281 128.265625 205.542969 128.246094 C 205.351562 128.183594 205.160156 128.121094 204.964844 128.0625 C 204.910156 128.046875 204.859375 128.035156 204.808594 128.019531 C 204.59375 127.957031 204.375 127.894531 204.15625 127.835938 C 204.15625 127.835938 204.15625 127.835938 204.152344 127.835938 C 202.078125 128.949219 200.007812 130.585938 198.5 132.988281 C 196.933594 135.484375 196.238281 137.808594 195.976562 139.78125 C 196.214844 139.863281 196.453125 139.9375 196.691406 140.003906 C 196.730469 140.015625 196.773438 140.027344 196.816406 140.039062 C 197.058594 140.105469 197.300781 140.164062 197.542969 140.207031 C 203.523438 141.304688 212.339844 138.792969 211.867188 133.296875 C 211.855469 133.132812 211.824219 132.972656 211.78125 132.816406 Z M 211.78125 132.816406 " fill-opacity="1" fill-rule="nonzero"/></g></svg>