<svg xmlns="http://www.w3.org/2000/svg" xmlns:xlink="http://www.w3.org/1999/xlink" width="559" zoomAndPan="magnify" viewBox="0 0 419.25 297.749993" height="396" preserveAspectRatio="xMidYMid meet" version="1.0"><defs><clipPath id="id1"><path d="M 0 0.140625 L 418.5 0.140625 L 418.5 297.359375 L 0 297.359375 Z M 0 0.140625 " clip-rule="nonzero"/></clipPath><clipPath id="id2"><path d="M 79 59 L 342.835938 59 L 342.835938 243.5 L 79 243.5 Z M 79 59 " clip-rule="nonzero"/></clipPath></defs><g clip-path="url(#id1)"><path fill="#ffffff" d="M 0 0.140625 L 419.25 0.140625 L 419.25 304.097656 L 0 304.097656 Z M 0 0.140625 " fill-opacity="1" fill-rule="nonzero"/><path fill="#fcd778" d="M 0 0.140625 L 418.5 0.140625 L 418.5 297.359375 L 0 297.359375 Z M 0 0.140625 " fill-opacity="1" fill-rule="nonzero"/><path fill="#ffffff" d="M 0 0.140625 L 418.5 0.140625 L 418.5 297.359375 L 0 297.359375 Z M 0 0.140625 " fill-opacity="1" fill-rule="nonzero"/><path fill="#fcd778" d="M 0 0.140625 L 418.5 0.140625 L 418.5 297.359375 L 0 297.359375 Z M 0 0.140625 " fill-opacity="1" fill-rule="nonzero"/></g><path fill="#ffc05a" d="M 193.777344 160.09375 C 190.765625 156.519531 187.902344 152.296875 185.289062 148.328125 L 196.054688 150.6875 L 197.121094 150.917969 C 198.519531 151.210938 199.503906 152.421875 199.566406 153.863281 C 199.671875 156.039062 200.402344 158.984375 203.539062 159.402344 C 208.679688 160.09375 208.953125 154.410156 208.953125 154.410156 C 208.953125 154.410156 218.339844 160.03125 220.847656 156.582031 C 222.015625 154.953125 221.265625 153.007812 220.113281 151.421875 L 220.136719 151.421875 C 227.828125 154.492188 237.257812 159.488281 245.597656 167.53125 C 255.023438 176.644531 258.453125 188.535156 261.484375 199.003906 C 266.1875 215.304688 268.695312 220.570312 280.484375 220.570312 C 293.382812 220.570312 296.832031 197.5625 299.738281 169.769531 C 301.242188 155.246094 303.039062 142.957031 306.65625 134.472656 C 318.382812 106.761719 339.664062 103.5625 340.75 103.5625 L 340.75 125.695312 C 336.882812 128.140625 330.214844 133.300781 325.367188 143.75 C 321.789062 151.460938 321.664062 161.011719 320.515625 171.921875 C 317.464844 201.261719 313.28125 241.46875 280.484375 241.46875 C 251.972656 241.46875 245.867188 220.277344 241.394531 204.8125 C 238.867188 196.058594 236.484375 187.804688 231.070312 182.558594 C 228.621094 180.21875 225.988281 178.191406 223.355469 176.496094 L 222.226562 173.988281 C 221.160156 171.628906 218.734375 170.164062 216.164062 170.375 C 214.785156 170.480469 213.089844 170.480469 211.148438 170.207031 C 208.765625 169.894531 205.964844 169.183594 202.847656 167.804688 C 199.777344 166.445312 196.722656 163.582031 193.777344 160.09375 Z M 193.777344 160.09375 " fill-opacity="1" fill-rule="nonzero"/><path fill="#e7f2f1" d="M 229.898438 191 C 231.90625 195.472656 227.410156 200.402344 222.894531 198.417969 C 220.554688 197.394531 218.378906 195.554688 216.4375 192.753906 C 215.078125 190.792969 212.671875 189.851562 210.332031 190.269531 C 205.585938 191.105469 201.238281 191.3125 197.226562 190.917969 C 202.453125 183.644531 204.3125 175.933594 202.847656 167.804688 C 205.964844 169.183594 208.765625 169.894531 211.148438 170.207031 L 211.148438 170.226562 C 212.925781 176.957031 217.273438 179.671875 224.191406 178.378906 Z M 229.898438 191 " fill-opacity="1" fill-rule="nonzero"/><path fill="#e7f2f1" d="M 217.210938 148.367188 C 217.503906 148.597656 218.984375 149.832031 220.113281 151.421875 C 221.265625 153.007812 222.015625 154.953125 220.847656 156.582031 C 218.339844 160.03125 208.953125 154.410156 208.953125 154.410156 C 208.953125 154.410156 208.679688 160.09375 203.539062 159.402344 C 200.402344 158.984375 199.671875 156.039062 199.566406 153.863281 C 199.503906 152.421875 198.519531 151.210938 197.121094 150.917969 L 196.054688 150.6875 C 200.359375 143.480469 201.363281 136.289062 198.605469 129.101562 C 199.148438 129.269531 199.714844 129.4375 200.277344 129.625 C 211.898438 133.386719 226.21875 142.664062 225.027344 147.554688 C 223.917969 152.066406 217.773438 148.683594 217.210938 148.367188 Z M 217.210938 148.367188 " fill-opacity="1" fill-rule="nonzero"/><path fill="#c3ddda" d="M 223.355469 176.496094 L 224.191406 178.378906 C 217.273438 179.671875 212.925781 176.957031 211.148438 170.226562 L 211.148438 170.207031 C 213.089844 170.480469 214.785156 170.480469 216.164062 170.375 C 218.734375 170.164062 221.160156 171.628906 222.226562 173.988281 Z M 223.355469 176.496094 " fill-opacity="1" fill-rule="nonzero"/><path fill="#b8d3cf" d="M 202.847656 167.804688 C 204.3125 175.933594 202.453125 183.644531 197.226562 190.917969 C 190.828125 190.289062 185.351562 188.117188 180.730469 184.5 C 180.125 184.019531 179.394531 183.789062 178.640625 183.789062 C 178.054688 183.789062 177.449219 183.9375 176.929688 184.230469 C 174.984375 185.296875 174.441406 187.84375 175.839844 189.558594 C 178.328125 192.652344 180.605469 195.871094 182.675781 199.253906 C 175.839844 205.417969 168.066406 210.226562 159.328125 213.695312 C 155 209.410156 149.605469 203.371094 144.402344 195.617188 C 143.921875 194.886719 143.417969 194.132812 142.9375 193.363281 L 193.777344 160.09375 C 196.722656 163.582031 199.777344 166.445312 202.847656 167.804688 Z M 202.847656 167.804688 " fill-opacity="1" fill-rule="nonzero"/><path fill="#b8d3cf" d="M 198.605469 129.101562 C 201.363281 136.289062 200.359375 143.480469 196.054688 150.6875 L 185.289062 148.328125 L 185.269531 148.328125 C 181.714844 142.933594 178.621094 138.023438 176.382812 135.957031 C 176.320312 135.894531 176.238281 135.832031 176.175781 135.769531 C 178.539062 134.242188 180.085938 131.609375 180.085938 128.601562 C 180.085938 127.636719 179.917969 126.71875 179.625 125.863281 L 179.644531 125.863281 C 179.644531 125.863281 183.429688 125.863281 189.238281 126.886719 C 191.976562 127.367188 195.15625 128.078125 198.605469 129.101562 Z M 198.605469 129.101562 " fill-opacity="1" fill-rule="nonzero"/><path fill="#c3ddda" d="M 193.777344 160.09375 L 142.9375 193.363281 C 140.261719 189.183594 138.171875 184.667969 136.542969 180.21875 C 134.410156 174.40625 133.050781 168.660156 132.171875 163.792969 C 131.105469 157.878906 130.792969 153.257812 130.710938 151.398438 C 136.730469 151.023438 142.75 149.476562 148.414062 146.570312 C 149.167969 146.195312 149.941406 145.777344 150.695312 145.339844 C 151.402344 144.921875 152.113281 144.480469 152.804688 144.023438 C 152.867188 143.980469 152.929688 143.9375 152.992188 143.898438 C 158.175781 140.46875 162.441406 136.101562 165.679688 131.148438 C 165.679688 131.148438 171.535156 131.628906 176.175781 135.769531 C 176.238281 135.832031 176.320312 135.894531 176.382812 135.957031 C 178.621094 138.023438 181.714844 142.933594 185.269531 148.328125 L 185.289062 148.328125 C 187.902344 152.296875 190.765625 156.519531 193.777344 160.09375 Z M 179.058594 157.460938 C 179.058594 154.660156 176.78125 152.402344 173.980469 152.402344 C 171.179688 152.402344 168.921875 154.660156 168.921875 157.460938 C 168.921875 160.257812 171.179688 162.539062 173.980469 162.539062 C 176.78125 162.539062 179.058594 160.257812 179.058594 157.460938 Z M 155.980469 165.964844 C 155.980469 161.679688 152.492188 158.191406 148.207031 158.191406 C 143.898438 158.191406 140.429688 161.679688 140.429688 165.964844 C 140.429688 170.269531 143.898438 173.738281 148.207031 173.738281 C 152.492188 173.738281 155.980469 170.269531 155.980469 165.964844 Z M 155.980469 165.964844 " fill-opacity="1" fill-rule="nonzero"/><path fill="#c3ddda" d="M 189.804688 212.984375 C 190.828125 215.386719 190.035156 218.207031 187.859375 219.671875 L 182.90625 223.058594 C 179.601562 218.25 182.027344 209.851562 188.046875 209.117188 C 188.65625 210.394531 189.238281 211.667969 189.804688 212.984375 Z M 189.804688 212.984375 " fill-opacity="1" fill-rule="nonzero"/><path fill="#c2e6f9" d="M 172.265625 97.902344 L 189.238281 126.886719 C 183.429688 125.863281 179.644531 125.863281 179.644531 125.863281 L 179.625 125.863281 C 178.476562 122.476562 175.253906 120.050781 171.429688 120.050781 C 171.285156 120.050781 171.117188 120.050781 170.96875 120.074219 L 170.949219 120.074219 C 173.207031 112.988281 173.707031 105.339844 172.246094 97.902344 Z M 172.265625 97.902344 " fill-opacity="1" fill-rule="nonzero"/><path fill="#e7f2f1" d="M 182.675781 199.253906 C 184.664062 202.410156 186.4375 205.691406 188.046875 209.117188 C 182.027344 209.851562 179.601562 218.25 182.90625 223.058594 L 182.90625 223.078125 L 169.320312 232.355469 C 165.972656 234.632812 161.710938 231.25 163.109375 227.464844 C 163.507812 226.378906 164.09375 225.375 164.804688 224.394531 C 166.246094 222.535156 165.785156 219.589844 164.007812 218.019531 C 162.691406 216.890625 161.105469 215.429688 159.328125 213.695312 C 168.066406 210.226562 175.839844 205.417969 182.675781 199.253906 Z M 182.675781 199.253906 " fill-opacity="1" fill-rule="nonzero"/><path fill="#e7f2f1" d="M 179.625 125.863281 C 179.917969 126.71875 180.085938 127.636719 180.085938 128.601562 C 180.085938 131.609375 178.539062 134.242188 176.175781 135.769531 C 171.535156 131.628906 165.679688 131.148438 165.679688 131.148438 C 167.9375 127.699219 169.714844 123.960938 170.949219 120.074219 L 170.96875 120.074219 C 171.117188 120.050781 171.285156 120.050781 171.429688 120.050781 C 175.253906 120.050781 178.476562 122.476562 179.625 125.863281 Z M 179.625 125.863281 " fill-opacity="1" fill-rule="nonzero"/><path fill="#c2e6f9" d="M 177.785156 88.558594 C 179.25 91.089844 178.390625 94.328125 175.882812 95.789062 L 172.265625 97.902344 L 172.246094 97.902344 C 171.324219 93.054688 169.570312 88.289062 166.957031 83.796875 C 165.765625 81.746094 164.425781 79.824219 162.984375 78.046875 L 164.886719 76.941406 C 167.417969 75.476562 170.65625 76.3125 172.121094 78.84375 Z M 177.785156 88.558594 " fill-opacity="1" fill-rule="nonzero"/><path fill="#8ecaef" d="M 173.980469 152.402344 C 176.78125 152.402344 179.058594 154.660156 179.058594 157.460938 C 179.058594 160.257812 176.78125 162.539062 173.980469 162.539062 C 171.179688 162.539062 168.921875 160.257812 168.921875 157.460938 C 168.921875 154.660156 171.179688 152.402344 173.980469 152.402344 Z M 173.980469 152.402344 " fill-opacity="1" fill-rule="nonzero"/><path fill="#8ecaef" d="M 130.710938 151.398438 C 127.050781 151.609375 123.414062 151.378906 119.859375 150.710938 C 112.148438 149.289062 104.851562 145.859375 98.769531 140.679688 C 95.027344 137.460938 91.746094 133.59375 89.132812 129.101562 C 87.941406 127.054688 86.917969 124.941406 86.078125 122.8125 C 78.136719 102.5 85.933594 78.863281 105.375 67.535156 C 124.816406 56.230469 149.230469 61.101562 162.984375 78.046875 C 164.425781 79.824219 165.765625 81.746094 166.957031 83.796875 C 169.570312 88.289062 171.324219 93.054688 172.246094 97.902344 C 173.707031 105.339844 173.207031 112.988281 170.949219 120.074219 C 169.714844 123.960938 167.9375 127.699219 165.679688 131.148438 C 162.441406 136.101562 158.175781 140.46875 152.992188 143.898438 C 169.320312 132.800781 174.480469 110.773438 164.40625 93.472656 C 153.851562 75.351562 130.605469 69.207031 112.503906 79.761719 C 94.378906 90.316406 88.234375 113.53125 98.789062 131.652344 C 108.90625 149.015625 130.667969 155.371094 148.414062 146.570312 C 142.75 149.476562 136.730469 151.023438 130.710938 151.398438 Z M 130.710938 151.398438 " fill-opacity="1" fill-rule="nonzero"/><path fill="#354d77" d="M 164.40625 93.472656 C 174.480469 110.773438 169.320312 132.800781 152.992188 143.898438 C 152.929688 143.9375 152.867188 143.980469 152.804688 144.023438 C 152.113281 144.480469 151.425781 144.921875 150.695312 145.339844 C 149.941406 145.777344 149.167969 146.195312 148.414062 146.570312 C 130.667969 155.371094 108.90625 149.015625 98.789062 131.652344 C 88.234375 113.53125 94.378906 90.316406 112.503906 79.761719 C 130.605469 69.207031 153.851562 75.351562 164.40625 93.472656 Z M 114.570312 98.988281 C 116.578125 97.816406 117.269531 95.246094 116.097656 93.242188 C 114.925781 91.234375 112.355469 90.566406 110.347656 91.734375 C 108.34375 92.90625 107.671875 95.476562 108.84375 97.460938 C 110.015625 99.46875 112.585938 100.15625 114.570312 98.988281 Z M 111.164062 126.96875 C 111.832031 125.902344 111.855469 124.566406 111.226562 123.480469 C 108.53125 118.695312 107.757812 114.117188 108.929688 109.519531 C 109.386719 107.679688 108.257812 105.800781 106.417969 105.339844 C 104.957031 104.964844 103.449219 105.589844 102.65625 106.867188 C 102.46875 107.179688 102.34375 107.492188 102.257812 107.828125 C 100.671875 114.160156 101.675781 120.574219 105.25 126.863281 C 105.707031 127.660156 106.441406 128.246094 107.339844 128.472656 C 108.21875 128.726562 109.136719 128.621094 109.953125 128.160156 C 110.453125 127.867188 110.871094 127.472656 111.164062 126.96875 Z M 111.164062 126.96875 " fill-opacity="1" fill-rule="nonzero"/><path fill="#2f84b9" d="M 155.980469 165.964844 C 155.980469 166.476562 155.933594 166.980469 155.832031 167.480469 C 155.734375 167.980469 155.585938 168.46875 155.390625 168.941406 C 155.195312 169.410156 154.957031 169.859375 154.671875 170.285156 C 154.386719 170.707031 154.066406 171.101562 153.703125 171.460938 C 153.34375 171.824219 152.949219 172.144531 152.527344 172.429688 C 152.101562 172.710938 151.652344 172.953125 151.183594 173.148438 C 150.710938 173.34375 150.222656 173.488281 149.722656 173.589844 C 149.222656 173.6875 148.714844 173.738281 148.207031 173.738281 C 147.695312 173.738281 147.191406 173.6875 146.6875 173.589844 C 146.1875 173.488281 145.703125 173.34375 145.230469 173.148438 C 144.757812 172.953125 144.308594 172.710938 143.886719 172.429688 C 143.460938 172.144531 143.070312 171.824219 142.707031 171.460938 C 142.347656 171.101562 142.023438 170.707031 141.742188 170.285156 C 141.457031 169.859375 141.21875 169.410156 141.023438 168.941406 C 140.828125 168.46875 140.679688 167.980469 140.578125 167.480469 C 140.480469 166.980469 140.429688 166.476562 140.429688 165.964844 C 140.429688 165.453125 140.480469 164.949219 140.578125 164.449219 C 140.679688 163.949219 140.828125 163.460938 141.023438 162.988281 C 141.21875 162.519531 141.457031 162.070312 141.742188 161.644531 C 142.023438 161.222656 142.347656 160.828125 142.707031 160.46875 C 143.070312 160.105469 143.460938 159.785156 143.886719 159.5 C 144.308594 159.21875 144.757812 158.976562 145.230469 158.78125 C 145.703125 158.585938 146.1875 158.441406 146.6875 158.339844 C 147.191406 158.242188 147.695312 158.191406 148.207031 158.191406 C 148.714844 158.191406 149.222656 158.242188 149.722656 158.339844 C 150.222656 158.441406 150.710938 158.585938 151.183594 158.78125 C 151.652344 158.976562 152.101562 159.21875 152.527344 159.5 C 152.949219 159.785156 153.34375 160.105469 153.703125 160.46875 C 154.066406 160.828125 154.386719 161.222656 154.671875 161.644531 C 154.957031 162.070312 155.195312 162.519531 155.390625 162.988281 C 155.585938 163.460938 155.734375 163.949219 155.832031 164.449219 C 155.933594 164.949219 155.980469 165.453125 155.980469 165.964844 Z M 155.980469 165.964844 " fill-opacity="1" fill-rule="nonzero"/><path fill="#c2e6f9" d="M 142.9375 193.363281 C 143.417969 194.132812 143.921875 194.886719 144.402344 195.617188 C 138.382812 198.378906 133.238281 197.6875 129.140625 193.089844 C 129.457031 192.777344 129.726562 192.503906 129.9375 192.253906 C 133.363281 188.347656 136.542969 180.21875 136.542969 180.21875 C 138.171875 184.667969 140.261719 189.183594 142.9375 193.363281 Z M 142.9375 193.363281 " fill-opacity="1" fill-rule="nonzero"/><path fill="#b8d3cf" d="M 136.542969 180.21875 C 136.542969 180.21875 133.363281 188.347656 129.9375 192.253906 C 127.699219 183.226562 122.914062 177.101562 115.15625 174.449219 C 115.679688 174.074219 116.222656 173.613281 116.746094 173.070312 C 116.914062 172.902344 117.082031 172.714844 117.207031 172.503906 C 120.070312 168.742188 120.363281 161.136719 120.363281 161.136719 C 122.140625 163.269531 124.917969 164.648438 128.035156 164.648438 C 129.519531 164.648438 130.917969 164.355469 132.171875 163.792969 C 133.050781 168.660156 134.410156 174.40625 136.542969 180.21875 Z M 136.542969 180.21875 " fill-opacity="1" fill-rule="nonzero"/><path fill="#e7f2f1" d="M 130.710938 151.398438 C 130.792969 153.257812 131.105469 157.878906 132.171875 163.792969 C 130.917969 164.355469 129.519531 164.648438 128.035156 164.648438 C 124.917969 164.648438 122.140625 163.269531 120.363281 161.136719 C 119.085938 159.613281 118.335938 157.667969 118.335938 155.597656 C 118.335938 153.800781 118.898438 152.128906 119.859375 150.710938 C 123.414062 151.378906 127.050781 151.609375 130.710938 151.398438 Z M 130.710938 151.398438 " fill-opacity="1" fill-rule="nonzero"/><path fill="#e7f2f1" d="M 106.648438 197.457031 C 106.0625 198.085938 100.230469 204.226562 97.222656 201.074219 C 94.191406 197.894531 100.460938 192.128906 101.109375 191.542969 C 100.441406 191.960938 93.8125 195.996094 92.246094 192.109375 C 90.34375 187.386719 101.800781 182.117188 101.800781 182.117188 L 99.8125 178.773438 C 99.417969 178.105469 99.226562 177.375 99.226562 176.644531 C 99.226562 175.304688 99.855469 174.03125 101.003906 173.214844 C 102.550781 172.152344 104.621094 172.234375 106.0625 173.445312 L 109.617188 176.414062 C 109.617188 176.414062 112.335938 176.496094 115.15625 174.449219 C 122.914062 177.101562 127.699219 183.226562 129.9375 192.253906 C 129.726562 192.503906 129.457031 192.777344 129.140625 193.089844 C 124.4375 197.855469 109.09375 210.226562 104.808594 207.257812 C 101.171875 204.730469 106.167969 198.085938 106.648438 197.457031 Z M 106.648438 197.457031 " fill-opacity="1" fill-rule="nonzero"/><path fill="#c2e6f9" d="M 120.363281 161.136719 C 120.363281 161.136719 120.070312 168.742188 117.207031 172.503906 L 98.769531 140.679688 C 104.851562 145.859375 112.148438 149.289062 119.859375 150.710938 C 118.898438 152.128906 118.335938 153.800781 118.335938 155.597656 C 118.335938 157.667969 119.085938 159.613281 120.363281 161.136719 Z M 120.363281 161.136719 " fill-opacity="1" fill-rule="nonzero"/><path fill="#8ecaef" d="M 116.097656 93.242188 C 117.269531 95.246094 116.578125 97.816406 114.570312 98.988281 C 112.585938 100.15625 110.015625 99.46875 108.84375 97.460938 C 107.671875 95.476562 108.34375 92.90625 110.347656 91.734375 C 112.355469 90.566406 114.925781 91.234375 116.097656 93.242188 Z M 116.097656 93.242188 " fill-opacity="1" fill-rule="nonzero"/><path fill="#8ecaef" d="M 111.226562 123.480469 C 111.855469 124.566406 111.832031 125.902344 111.164062 126.96875 C 110.871094 127.472656 110.453125 127.867188 109.953125 128.160156 C 109.136719 128.621094 108.21875 128.726562 107.339844 128.472656 C 106.441406 128.246094 105.707031 127.660156 105.25 126.863281 C 101.675781 120.574219 100.671875 114.160156 102.257812 107.828125 C 102.34375 107.492188 102.46875 107.179688 102.65625 106.867188 C 103.449219 105.589844 104.957031 104.964844 106.417969 105.339844 C 108.257812 105.800781 109.386719 107.679688 108.929688 109.519531 C 107.757812 114.117188 108.53125 118.695312 111.226562 123.480469 Z M 111.226562 123.480469 " fill-opacity="1" fill-rule="nonzero"/><path fill="#c2e6f9" d="M 98.769531 140.679688 L 95.152344 142.769531 C 92.621094 144.253906 89.382812 143.394531 87.917969 140.867188 L 82.253906 131.148438 C 80.792969 128.640625 81.648438 125.402344 84.175781 123.917969 L 86.078125 122.8125 C 86.917969 124.941406 87.941406 127.054688 89.132812 129.101562 C 91.746094 133.59375 95.027344 137.460938 98.769531 140.679688 Z M 98.769531 140.679688 " fill-opacity="1" fill-rule="nonzero"/><path fill="#3a322b" d="M 117.902344 92.195312 C 116.152344 89.199219 112.296875 88.179688 109.304688 89.925781 C 107.851562 90.769531 106.816406 92.132812 106.386719 93.753906 C 105.957031 95.378906 106.1875 97.070312 107.035156 98.523438 C 107.878906 99.972656 109.238281 101.007812 110.863281 101.4375 C 111.398438 101.578125 111.941406 101.648438 112.476562 101.648438 C 113.574219 101.648438 114.65625 101.359375 115.628906 100.792969 C 117.082031 99.945312 118.117188 98.589844 118.546875 96.960938 C 118.976562 95.34375 118.746094 93.648438 117.902344 92.195312 Z M 114.503906 95.898438 C 114.359375 96.441406 114.015625 96.898438 113.527344 97.179688 C 113.042969 97.464844 112.476562 97.542969 111.925781 97.398438 C 111.382812 97.253906 110.929688 96.90625 110.644531 96.417969 C 110.363281 95.933594 110.285156 95.367188 110.429688 94.820312 C 110.574219 94.277344 110.917969 93.820312 111.40625 93.539062 C 111.738281 93.34375 112.105469 93.25 112.464844 93.25 C 113.191406 93.25 113.898438 93.628906 114.289062 94.296875 C 114.570312 94.789062 114.648438 95.355469 114.503906 95.898438 Z M 114.503906 95.898438 " fill-opacity="1" fill-rule="nonzero"/><path fill="#3a322b" d="M 110.949219 110.019531 C 111.691406 107.066406 109.890625 104.054688 106.933594 103.3125 C 104.582031 102.714844 102.148438 103.710938 100.875 105.785156 C 100.578125 106.265625 100.359375 106.789062 100.226562 107.332031 C 98.5 114.195312 99.578125 121.117188 103.433594 127.898438 C 104.164062 129.179688 105.347656 130.105469 106.773438 130.5 C 107.265625 130.632812 107.761719 130.699219 108.253906 130.699219 C 109.199219 130.699219 110.128906 130.457031 110.972656 129.976562 C 111.785156 129.519531 112.464844 128.859375 112.953125 128.066406 C 114.011719 126.347656 114.046875 124.195312 113.050781 122.441406 C 110.617188 118.152344 109.929688 114.089844 110.949219 110.019531 Z M 109.390625 125.875 C 109.273438 126.070312 109.109375 126.226562 108.910156 126.339844 C 108.59375 126.519531 108.238281 126.5625 107.890625 126.46875 C 107.535156 126.371094 107.253906 126.152344 107.070312 125.832031 C 103.765625 120.015625 102.828125 114.132812 104.28125 108.339844 C 104.316406 108.207031 104.367188 108.082031 104.4375 107.96875 C 104.691406 107.558594 105.113281 107.324219 105.574219 107.324219 C 105.6875 107.324219 105.800781 107.339844 105.914062 107.367188 C 106.636719 107.550781 107.074219 108.28125 106.894531 109.003906 C 105.601562 114.164062 106.421875 119.234375 109.417969 124.503906 C 109.660156 124.929688 109.652344 125.457031 109.390625 125.875 Z M 109.390625 125.875 " fill-opacity="1" fill-rule="nonzero"/><path fill="#3a322b" d="M 148.199219 156.113281 C 142.757812 156.113281 138.332031 160.535156 138.332031 165.976562 C 138.332031 171.414062 142.757812 175.839844 148.199219 175.839844 C 153.640625 175.839844 158.066406 171.414062 158.066406 165.976562 C 158.066406 160.539062 153.640625 156.113281 148.199219 156.113281 Z M 148.199219 171.660156 C 145.0625 171.660156 142.515625 169.109375 142.515625 165.976562 C 142.515625 162.839844 145.0625 160.289062 148.199219 160.289062 C 151.335938 160.289062 153.886719 162.839844 153.886719 165.976562 C 153.886719 169.109375 151.335938 171.660156 148.199219 171.660156 Z M 148.199219 171.660156 " fill-opacity="1" fill-rule="nonzero"/><path fill="#3a322b" d="M 173.984375 150.308594 C 170.035156 150.308594 166.824219 153.519531 166.824219 157.464844 C 166.824219 161.414062 170.035156 164.625 173.984375 164.625 C 177.929688 164.625 181.140625 161.414062 181.140625 157.464844 C 181.140625 153.519531 177.929688 150.308594 173.984375 150.308594 Z M 173.984375 160.441406 C 172.34375 160.441406 171.003906 159.105469 171.003906 157.464844 C 171.003906 155.820312 172.34375 154.484375 173.984375 154.484375 C 175.625 154.484375 176.960938 155.820312 176.960938 157.464844 C 176.960938 159.105469 175.625 160.441406 173.984375 160.441406 Z M 173.984375 160.441406 " fill-opacity="1" fill-rule="nonzero"/><g clip-path="url(#id2)"><path fill="#3a322b" d="M 342.839844 103.566406 C 342.839844 102.414062 341.90625 101.476562 340.75 101.476562 C 340.523438 101.476562 317.339844 103.875 304.726562 133.652344 C 300.839844 142.824219 299.027344 156.324219 297.652344 169.546875 C 294.964844 195.328125 291.628906 218.46875 280.484375 218.46875 C 270.308594 218.46875 268.175781 214.671875 263.484375 198.433594 C 260.390625 187.695312 256.878906 175.527344 247.046875 166.03125 C 240.8125 160.011719 233.375 155.03125 224.902344 151.191406 C 225.753906 150.65625 226.640625 149.722656 227.054688 148.039062 C 228.828125 140.769531 210.988281 130.890625 200.925781 127.636719 C 197.121094 126.40625 193.601562 125.570312 190.558594 125 L 175.121094 98.644531 L 176.929688 97.59375 C 178.632812 96.597656 179.847656 95.003906 180.351562 93.097656 C 180.851562 91.191406 180.582031 89.207031 179.59375 87.503906 L 173.933594 77.796875 C 172.941406 76.09375 171.347656 74.878906 169.441406 74.375 C 167.539062 73.871094 165.546875 74.140625 163.84375 75.132812 L 163.4375 75.367188 C 148.878906 58.78125 124.105469 54.226562 104.328125 65.738281 C 84.550781 77.253906 76.28125 101.039062 83.523438 121.886719 L 83.121094 122.121094 C 81.417969 123.113281 80.203125 124.707031 79.699219 126.613281 C 79.195312 128.519531 79.464844 130.507812 80.453125 132.210938 L 86.109375 141.917969 C 87.480469 144.269531 89.957031 145.582031 92.5 145.582031 C 93.761719 145.582031 95.039062 145.261719 96.203125 144.582031 L 98.007812 143.53125 L 114.621094 172.207031 C 112.933594 173.699219 111.21875 174.144531 110.328125 174.273438 L 107.414062 171.835938 C 105.253906 170.027344 102.128906 169.886719 99.808594 171.503906 C 97.136719 173.375 96.347656 177.035156 98.019531 179.835938 L 98.863281 181.253906 C 95.027344 183.328125 88.261719 187.824219 90.308594 192.894531 C 90.859375 194.25 91.859375 195.195312 93.210938 195.621094 C 93.8125 195.8125 94.453125 195.878906 95.097656 195.867188 C 94.660156 196.800781 94.359375 197.777344 94.3125 198.742188 C 94.246094 200.179688 94.726562 201.480469 95.703125 202.503906 C 96.691406 203.539062 97.988281 204.066406 99.417969 204.058594 C 100.097656 204.046875 100.785156 203.910156 101.457031 203.6875 C 101.382812 204.296875 101.375 204.898438 101.460938 205.484375 C 101.675781 206.933594 102.421875 208.140625 103.621094 208.96875 C 104.398438 209.507812 105.339844 209.75 106.402344 209.75 C 112.988281 209.75 124.140625 200.515625 129.097656 195.96875 C 131.644531 198.179688 134.566406 199.3125 137.785156 199.3125 C 139.644531 199.3125 141.605469 198.925781 143.644531 198.179688 C 148.609375 205.355469 153.664062 210.992188 157.699219 214.996094 C 157.726562 215.03125 157.761719 215.058594 157.792969 215.089844 C 159.664062 216.945312 161.332031 218.480469 162.628906 219.609375 C 163.621094 220.46875 163.871094 222.1875 163.144531 223.144531 C 162.292969 224.269531 161.625 225.480469 161.160156 226.734375 C 160.191406 229.339844 160.976562 232.128906 163.167969 233.839844 C 164.304688 234.730469 165.640625 235.179688 166.980469 235.179688 C 168.195312 235.179688 169.410156 234.8125 170.492188 234.074219 L 184.089844 224.792969 C 184.089844 224.792969 184.089844 224.792969 184.09375 224.792969 C 184.09375 224.792969 184.09375 224.789062 184.09375 224.789062 L 189.046875 221.410156 C 192.019531 219.382812 193.144531 215.492188 191.726562 212.164062 C 191.195312 210.917969 190.597656 209.730469 190.027344 208.515625 C 189.960938 208.308594 189.878906 208.117188 189.757812 207.945312 C 188.160156 204.605469 186.421875 201.382812 184.523438 198.308594 C 184.441406 198.148438 184.371094 197.980469 184.246094 197.84375 C 184.234375 197.828125 184.210938 197.820312 184.199219 197.808594 C 182.109375 194.46875 179.882812 191.253906 177.457031 188.257812 C 177.09375 187.8125 177.121094 187.332031 177.167969 187.089844 C 177.253906 186.65625 177.527344 186.289062 177.914062 186.078125 C 178.417969 185.804688 179.023438 185.828125 179.433594 186.144531 C 184.296875 189.949219 190.050781 192.191406 196.59375 192.914062 C 196.800781 192.976562 197.015625 193.011719 197.226562 193.011719 C 197.234375 193.011719 197.238281 193.003906 197.25 193.003906 C 201.414062 193.394531 205.898438 193.171875 210.691406 192.324219 C 212.261719 192.046875 213.835938 192.6875 214.71875 193.953125 C 216.800781 196.964844 219.277344 199.113281 222.066406 200.339844 C 224.886719 201.578125 228.003906 200.960938 230.207031 198.738281 C 232.488281 196.429688 233.113281 193.058594 231.800781 190.140625 L 228.699219 183.269531 C 229 183.542969 229.335938 183.792969 229.625 184.074219 C 234.632812 188.914062 236.945312 196.914062 239.390625 205.394531 C 243.777344 220.589844 250.40625 243.554688 280.488281 243.554688 C 315.167969 243.554688 319.464844 202.28125 322.605469 172.140625 C 322.828125 169.988281 323.015625 167.890625 323.195312 165.847656 C 323.921875 157.617188 324.550781 150.507812 327.273438 144.640625 C 330.722656 137.195312 335.636719 131.417969 341.871094 127.464844 C 342.476562 127.082031 342.84375 126.414062 342.84375 125.699219 Z M 222.988281 147.050781 C 222.859375 147.597656 222.675781 147.671875 222.597656 147.707031 C 221.785156 148.046875 219.640625 147.363281 218.222656 146.53125 C 217.273438 145.96875 216.054688 146.242188 215.433594 147.152344 C 214.8125 148.0625 215.003906 149.300781 215.871094 149.976562 C 217.417969 151.1875 220.050781 154.097656 219.144531 155.351562 C 218.527344 156.195312 214.203125 155.105469 210.03125 152.613281 C 209.398438 152.238281 208.617188 152.21875 207.972656 152.566406 C 207.324219 152.910156 206.90625 153.570312 206.871094 154.304688 C 206.851562 154.679688 206.605469 156.230469 205.734375 156.953125 C 205.570312 157.089844 205.058594 157.511719 203.824219 157.34375 C 203.273438 157.269531 201.820312 157.074219 201.664062 153.769531 C 201.578125 151.949219 200.570312 150.355469 199.078125 149.472656 C 201.992188 143.703125 202.859375 137.964844 201.695312 132.335938 C 213.339844 136.605469 223.59375 144.578125 222.988281 147.050781 Z M 143.589844 190.425781 C 135.53125 176.644531 133.445312 159.839844 132.921875 153.273438 C 139.375 152.609375 145.789062 150.625 151.746094 147.15625 C 152.902344 146.480469 154.015625 145.757812 155.085938 144.984375 C 159.636719 141.804688 163.515625 137.882812 166.632812 133.414062 C 168.425781 133.773438 172.03125 134.785156 174.96875 137.484375 C 176.714844 139.089844 179.320312 143.066406 182.078125 147.273438 C 184.6875 151.257812 187.601562 155.6875 190.707031 159.621094 Z M 130.65625 187.59375 C 128.242188 181.128906 124.308594 176.484375 118.882812 173.765625 C 118.886719 173.765625 118.886719 173.761719 118.886719 173.761719 C 120.703125 171.367188 121.597656 167.886719 122.035156 165.183594 C 123.796875 166.171875 125.84375 166.75 128.035156 166.75 C 128.886719 166.75 129.722656 166.664062 130.539062 166.496094 C 131.378906 170.699219 132.582031 175.398438 134.292969 180.191406 C 133.710938 181.589844 132.316406 184.785156 130.65625 187.59375 Z M 166.273438 121.710938 C 163.828125 130.96875 157.921875 138.726562 149.644531 143.542969 C 148.574219 144.167969 147.480469 144.707031 146.378906 145.226562 C 129.839844 152.722656 109.925781 146.617188 100.597656 130.601562 C 90.644531 113.511719 96.457031 91.515625 113.546875 81.570312 C 119.097656 78.335938 125.273438 76.683594 131.53125 76.683594 C 134.605469 76.683594 137.699219 77.082031 140.746094 77.886719 C 150.011719 80.332031 157.769531 86.238281 162.585938 94.511719 C 167.414062 102.792969 168.722656 112.449219 166.273438 121.710938 Z M 178.003906 128.609375 C 178.003906 130.300781 177.320312 131.882812 176.15625 133.074219 C 173.625 131.226562 170.972656 130.21875 168.988281 129.679688 C 170.324219 127.316406 171.476562 124.839844 172.398438 122.242188 C 175.5625 122.707031 178.003906 125.371094 178.003906 128.609375 Z M 129.792969 162.375 C 129.222656 162.5 128.636719 162.570312 128.035156 162.570312 C 123.839844 162.570312 120.425781 159.441406 120.425781 155.597656 C 120.425781 154.695312 120.628906 153.808594 120.996094 152.984375 C 123.347656 153.339844 125.722656 153.546875 128.117188 153.546875 C 128.320312 153.546875 128.527344 153.527344 128.730469 153.523438 C 128.890625 155.621094 129.199219 158.695312 129.792969 162.375 Z M 118.230469 161.785156 C 118.117188 163.296875 117.773438 165.824219 117.058594 168.078125 L 105.21875 147.640625 C 108.882812 149.660156 112.792969 151.171875 116.835938 152.164062 C 116.457031 153.265625 116.246094 154.421875 116.246094 155.601562 C 116.242188 157.886719 116.976562 160.011719 118.230469 161.785156 Z M 185.574219 144.984375 C 183.1875 141.339844 181.058594 138.105469 179.222656 135.929688 C 181.101562 133.972656 182.183594 131.375 182.183594 128.609375 C 182.183594 128.433594 182.164062 128.261719 182.15625 128.085938 C 185.144531 128.320312 190.539062 128.980469 196.96875 130.8125 C 198.875 136.535156 198.21875 142.28125 194.964844 148.304688 L 186.550781 146.46875 C 186.222656 145.96875 185.894531 145.472656 185.574219 144.984375 Z M 181 123.824219 C 179.535156 120.996094 176.832031 118.898438 173.648438 118.21875 C 174.617188 114.476562 175.074219 110.6875 175.117188 106.917969 L 185.234375 124.1875 C 183.402344 123.972656 181.960938 123.867188 181 123.824219 Z M 168.375 78.417969 C 169.203125 78.632812 169.890625 79.160156 170.320312 79.898438 L 175.976562 89.605469 C 176.40625 90.347656 176.523438 91.207031 176.304688 92.035156 C 176.085938 92.859375 175.5625 93.550781 174.824219 93.984375 L 173.640625 94.671875 C 172.570312 90.542969 170.960938 86.53125 168.753906 82.746094 C 167.929688 81.328125 167.039062 79.972656 166.09375 78.675781 C 166.796875 78.3125 167.59375 78.210938 168.375 78.417969 Z M 86.519531 95.488281 C 89.445312 84.402344 96.515625 75.121094 106.425781 69.351562 C 113.078125 65.480469 120.46875 63.5 127.960938 63.5 C 131.640625 63.5 135.34375 63.976562 138.992188 64.941406 C 150.082031 67.867188 159.367188 74.9375 165.140625 84.847656 C 168.832031 91.183594 170.78125 98.199219 170.957031 105.332031 C 170.128906 100.839844 168.566406 96.472656 166.203125 92.40625 C 160.820312 83.164062 152.160156 76.570312 141.816406 73.839844 C 131.472656 71.113281 120.6875 72.574219 111.441406 77.953125 C 92.355469 89.066406 85.871094 113.625 96.984375 132.703125 C 99.351562 136.765625 102.328125 140.25 105.730469 143.121094 C 99.800781 139.527344 94.65625 134.449219 90.929688 128.046875 C 85.15625 118.140625 83.59375 106.578125 86.519531 95.488281 Z M 89.726562 139.816406 L 84.070312 130.109375 C 83.636719 129.367188 83.519531 128.507812 83.742188 127.683594 C 83.945312 126.914062 84.433594 126.28125 85.09375 125.847656 C 85.757812 127.304688 86.492188 128.742188 87.316406 130.152344 C 89.542969 133.972656 92.230469 137.359375 95.265625 140.292969 L 94.101562 140.972656 C 92.574219 141.855469 90.613281 141.339844 89.726562 139.816406 Z M 106 205.535156 C 105.753906 205.363281 105.644531 205.1875 105.597656 204.878906 C 105.367188 203.304688 107.058594 200.328125 108.335938 198.71875 C 109.035156 197.832031 108.90625 196.550781 108.042969 195.824219 C 107.179688 195.09375 105.898438 195.1875 105.140625 196.019531 C 103.753906 197.5625 100.949219 199.859375 99.359375 199.882812 C 99.058594 199.867188 98.914062 199.820312 98.726562 199.625 C 98.566406 199.457031 98.472656 199.285156 98.492188 198.941406 C 98.5625 197.28125 100.910156 194.511719 102.554688 193.074219 C 103.378906 192.351562 103.507812 191.113281 102.847656 190.242188 C 102.1875 189.367188 100.964844 189.152344 100.046875 189.746094 C 98.496094 190.746094 95.613281 192.003906 94.472656 191.640625 C 94.371094 191.609375 94.285156 191.582031 94.183594 191.335938 C 93.523438 189.6875 98.121094 186.113281 102.679688 184.019531 C 103.21875 183.773438 103.625 183.308594 103.804688 182.742188 C 103.980469 182.175781 103.90625 181.5625 103.605469 181.050781 L 101.605469 177.699219 C 101.050781 176.769531 101.3125 175.554688 102.203125 174.933594 C 102.96875 174.398438 104.007812 174.441406 104.726562 175.042969 L 108.28125 178.019531 C 108.640625 178.320312 109.085938 178.492188 109.546875 178.503906 C 109.703125 178.507812 112.375 178.570312 115.367188 176.804688 C 121.445312 179.203125 125.460938 184.089844 127.589844 191.699219 C 122.066406 197.445312 108.304688 207.144531 106 205.535156 Z M 132.027344 192.996094 C 133.710938 190.882812 135.273438 188.007812 136.445312 185.59375 C 137.777344 188.617188 139.339844 191.613281 141.164062 194.480469 C 141.167969 194.488281 141.175781 194.496094 141.179688 194.503906 C 141.195312 194.53125 141.214844 194.550781 141.230469 194.578125 C 137.628906 195.675781 134.632812 195.175781 132.027344 192.996094 Z M 168.136719 230.621094 C 166.988281 231.398438 166.015625 230.757812 165.738281 230.542969 C 165.460938 230.328125 164.585938 229.507812 165.078125 228.183594 C 165.402344 227.308594 165.875 226.460938 166.476562 225.664062 C 168.523438 222.972656 168.015625 218.753906 165.375 216.453125 C 164.707031 215.875 163.917969 215.15625 163.082031 214.378906 C 170.039062 211.296875 176.433594 207.296875 182.160156 202.457031 C 183.1875 204.214844 184.179688 206.007812 185.109375 207.851562 C 183.109375 208.804688 181.460938 210.507812 180.421875 212.808594 C 179.019531 215.914062 178.984375 219.46875 180.195312 222.390625 Z M 186.691406 217.957031 L 183.78125 219.941406 C 183.328125 218.242188 183.445312 216.265625 184.226562 214.527344 C 184.617188 213.664062 185.429688 212.328125 186.867188 211.632812 C 187.199219 212.359375 187.5625 213.0625 187.878906 213.800781 C 188.515625 215.300781 188.019531 217.050781 186.691406 217.957031 Z M 175.917969 182.398438 C 174.4375 183.203125 173.398438 184.617188 173.070312 186.269531 C 172.742188 187.90625 173.15625 189.589844 174.207031 190.882812 C 176.246094 193.402344 178.125 196.09375 179.917969 198.871094 C 173.957031 203.992188 167.214844 208.132812 159.832031 211.210938 C 155.734375 207.0625 150.699219 201.269531 145.839844 193.949219 L 193.417969 162.839844 C 195.835938 165.527344 198.351562 167.769531 200.921875 169.160156 C 201.917969 176.015625 200.378906 182.40625 196.226562 188.625 C 190.800781 187.894531 186.027344 185.992188 182.007812 182.84375 C 180.289062 181.5 177.898438 181.324219 175.917969 182.398438 Z M 227.230469 195.792969 C 226.867188 196.160156 225.539062 197.296875 223.746094 196.507812 C 221.644531 195.585938 219.8125 193.96875 218.152344 191.574219 C 216.347656 188.964844 213.140625 187.644531 209.957031 188.203125 C 206.796875 188.765625 203.804688 189.003906 200.957031 188.976562 C 204.292969 183.246094 205.757812 177.21875 205.332031 170.984375 C 206.832031 171.476562 208.242188 171.832031 209.554688 172.070312 C 211.484375 177.800781 215.382812 180.789062 221.03125 180.789062 C 221.644531 180.789062 222.28125 180.746094 222.9375 180.675781 L 227.980469 191.859375 C 228.707031 193.464844 228.070312 194.945312 227.230469 195.792969 Z M 214.257812 172.527344 C 215.011719 172.53125 215.71875 172.511719 216.335938 172.460938 C 217.980469 172.324219 219.605469 173.285156 220.3125 174.851562 L 221.089844 176.578125 C 217.878906 176.585938 215.671875 175.277344 214.257812 172.527344 Z M 323.476562 142.878906 C 320.449219 149.40625 319.789062 156.851562 319.027344 165.472656 C 318.847656 167.496094 318.664062 169.570312 318.445312 171.703125 C 315.46875 200.261719 311.394531 239.367188 280.484375 239.367188 C 253.546875 239.367188 247.921875 219.886719 243.402344 204.222656 C 240.800781 195.199219 238.339844 186.675781 232.523438 181.0625 C 230.300781 178.914062 227.769531 176.914062 225.011719 175.097656 L 224.125 173.132812 C 222.691406 169.960938 219.460938 168.007812 215.992188 168.296875 C 213.34375 168.515625 209.046875 168.273438 203.699219 165.894531 C 199.078125 163.84375 194.257812 157.777344 189.914062 151.480469 L 196.675781 152.953125 C 197.136719 153.054688 197.464844 153.460938 197.488281 153.964844 C 197.695312 158.273438 199.796875 161.015625 203.265625 161.480469 C 203.65625 161.535156 204.019531 161.558594 204.371094 161.558594 C 206.289062 161.558594 207.605469 160.832031 208.410156 160.164062 C 209.328125 159.398438 209.929688 158.441406 210.320312 157.527344 C 214 159.34375 219.898438 161.433594 222.53125 157.800781 C 223.152344 156.949219 223.441406 156.054688 223.5 155.152344 C 231.402344 158.777344 238.335938 163.429688 244.140625 169.035156 C 253.171875 177.757812 256.515625 189.359375 259.46875 199.589844 C 263.964844 215.164062 266.738281 222.648438 280.484375 222.648438 C 295.15625 222.648438 298.699219 199.824219 301.808594 169.980469 C 303.15625 157.082031 304.902344 143.945312 308.574219 135.28125 C 317.867188 113.34375 333.121094 107.515625 338.660156 106.085938 L 338.660156 124.566406 C 332.195312 128.925781 327.089844 135.082031 323.476562 142.878906 Z M 323.476562 142.878906 " fill-opacity="1" fill-rule="nonzero"/></g></svg>