<svg xmlns="http://www.w3.org/2000/svg" xmlns:xlink="http://www.w3.org/1999/xlink" width="559" zoomAndPan="magnify" viewBox="0 0 419.25 297.749993" height="396" preserveAspectRatio="xMidYMid meet" version="1.0"><defs><filter x="0%" y="0%" width="100%" height="100%" id="id1"><feColorMatrix values="0 0 0 0 1 0 0 0 0 1 0 0 0 0 1 0 0 0 1 0" color-interpolation-filters="sRGB"/></filter><clipPath id="id2"><path d="M 0 0.140625 L 418.5 0.140625 L 418.5 297.359375 L 0 297.359375 Z M 0 0.140625 " clip-rule="nonzero"/></clipPath><mask id="id3"><g filter="url(#id1)"><rect x="-41.925" width="503.1" fill="#000000" y="-29.774999" height="357.299992" fill-opacity="0.498"/></g></mask><clipPath id="id4"><path d="M 0.152344 1 L 71.542969 1 L 71.542969 89.175781 L 0.152344 89.175781 Z M 0.152344 1 " clip-rule="nonzero"/></clipPath><clipPath id="id5"><rect x="0" width="72" y="0" height="90"/></clipPath><mask id="id6"><g filter="url(#id1)"><rect x="-41.925" width="503.1" fill="#000000" y="-29.774999" height="357.299992" fill-opacity="0.498"/></g></mask><clipPath id="id7"><path d="M 0.296875 0.398438 L 140.683594 0.398438 L 140.683594 97 L 0.296875 97 Z M 0.296875 0.398438 " clip-rule="nonzero"/></clipPath><clipPath id="id8"><rect x="0" width="141" y="0" height="98"/></clipPath></defs><g clip-path="url(#id2)"><path fill="#cc956e" d="M 0 0.140625 L 418.5 0.140625 L 418.5 297.359375 L 0 297.359375 Z M 0 0.140625 " fill-opacity="1" fill-rule="nonzero"/><path fill="#ffffff" d="M 0 0.140625 L 418.5 0.140625 L 418.5 297.359375 L 0 297.359375 Z M 0 0.140625 " fill-opacity="1" fill-rule="nonzero"/><path fill="#cc956e" d="M 0 0.140625 L 418.5 0.140625 L 418.5 297.359375 L 0 297.359375 Z M 0 0.140625 " fill-opacity="1" fill-rule="nonzero"/></g><path fill="#72412b" d="M 135.058594 63.4375 C 130.011719 58.328125 139.886719 37.484375 152.199219 43.882812 C 164.507812 50.277344 154.691406 65.617188 154.691406 65.617188 C 154.691406 65.617188 151.632812 67.1875 135.058594 63.4375 Z M 238.121094 198.421875 C 238.121094 198.421875 240.726562 205.09375 242.46875 209.878906 C 244.210938 214.664062 243.445312 241.269531 242.503906 243.019531 C 238.121094 246.390625 238.636719 248.632812 240.257812 249.65625 C 243.703125 251.832031 255.601562 250.878906 259.050781 247.425781 C 261.515625 245.976562 257.597656 231.671875 264.273438 219.742188 C 267.539062 213.90625 262.570312 206.800781 261.917969 204.511719 C 261.078125 201.582031 263.402344 194.613281 263.402344 194.613281 Z M 180.375 230.316406 C 179.089844 230.832031 172.003906 247.675781 168.972656 253.707031 C 165.9375 259.738281 153.449219 256.085938 151.339844 253.484375 C 148.855469 250.417969 151.609375 247.425781 153.957031 245.949219 C 156.964844 244.058594 157.902344 239.324219 158.613281 235.703125 C 160.125 228.0625 163.609375 219.675781 163.753906 211.984375 C 163.949219 201.613281 164.09375 191.894531 164.527344 191.605469 C 164.964844 191.3125 179.476562 192.765625 179.476562 192.765625 L 185.574219 196.679688 L 189.347656 198.132812 L 182.960938 224.285156 Z M 180.375 230.316406 " fill-opacity="1" fill-rule="nonzero"/><path fill="#a4754c" d="M 314.21875 182.027344 L 311.878906 186.308594 L 309.230469 182.027344 C 309.230469 182.027344 309.125 171.703125 307.492188 161.855469 C 306.203125 171.234375 302.105469 179.042969 299.433594 182.757812 C 294.425781 189.71875 293.121094 199.292969 295.734375 202.988281 C 302.917969 211.910156 300.085938 217.566406 298.78125 222.570312 C 297.476562 227.574219 297.476562 234.972656 296.605469 244.976562 C 295.734375 254.984375 278.097656 253.246094 276.359375 250.417969 C 274.617188 247.589844 279.1875 244.324219 279.1875 244.324219 C 279.1875 244.324219 282.234375 213.648438 275.921875 208.210938 C 269.609375 202.773438 268.484375 196.007812 268.484375 196.007812 C 268.484375 196.007812 261.066406 198.464844 220.117188 198.738281 C 219.25 201.230469 194.71875 217.132812 193.96875 218.292969 C 193.21875 219.453125 197.183594 237.292969 198.199219 243.964844 C 199.214844 250.636719 186.878906 254.984375 183.6875 253.972656 C 180.492188 252.957031 182.527344 242.367188 179.332031 235.261719 C 176.140625 228.152344 170.042969 214.230469 175.414062 209.300781 C 179.195312 205.824219 184.199219 200.554688 186.828125 197.742188 C 142.238281 192.484375 113.832031 166.511719 103.691406 136.484375 C 103.695312 136.488281 103.695312 136.492188 103.695312 136.496094 C 94.257812 142.183594 93.917969 107.046875 99.511719 93.125 C 96.488281 97.984375 93.699219 96.386719 94.355469 92.46875 C 98.925781 72.019531 109.695312 62.511719 109.695312 62.511719 C 106.664062 55.707031 106.613281 45.78125 115.144531 43.195312 C 122.757812 40.886719 127.21875 45.761719 129.644531 50.34375 C 132.082031 49.578125 135.566406 49.105469 140.582031 49.320312 C 157.417969 50.046875 167.285156 63.246094 164.820312 63.535156 C 162.351562 63.824219 155.53125 59.621094 155.53125 59.621094 C 155.53125 59.621094 164.546875 65.457031 161.421875 68.847656 C 169.476562 77.621094 179.105469 80.734375 183.613281 82.898438 C 189.058594 85.507812 188.839844 95.296875 183.398438 106.175781 C 177.953125 117.054688 157.707031 112.050781 146.167969 108.789062 C 138.765625 128.367188 150.742188 142.074219 166.851562 142.945312 C 182.960938 143.8125 184.703125 122.277344 198.417969 117.054688 C 212.132812 111.832031 220.625 88.554688 226.066406 80.070312 C 229.117188 75.316406 259.375 59.402344 270.480469 94.863281 C 279.933594 125.058594 286.546875 119.292969 296.234375 128.734375 C 296.234375 128.734375 310.828125 133.152344 313.148438 166.511719 C 313.519531 173.230469 313.792969 178.117188 314.21875 182.027344 Z M 314.21875 182.027344 L 311.878906 186.308594 L 309.230469 182.027344 C 309.230469 182.027344 309.125 171.703125 307.492188 161.855469 C 306.203125 171.234375 302.105469 179.042969 299.433594 182.757812 C 294.425781 189.71875 293.121094 199.292969 295.734375 202.988281 C 302.917969 211.910156 300.085938 217.566406 298.78125 222.570312 C 297.476562 227.574219 297.476562 234.972656 296.605469 244.976562 C 295.734375 254.984375 278.097656 253.246094 276.359375 250.417969 C 274.617188 247.589844 279.1875 244.324219 279.1875 244.324219 C 279.1875 244.324219 282.234375 213.648438 275.921875 208.210938 C 269.609375 202.773438 268.484375 196.007812 268.484375 196.007812 C 268.484375 196.007812 261.066406 198.464844 220.117188 198.738281 C 219.25 201.230469 194.71875 217.132812 193.96875 218.292969 C 193.21875 219.453125 197.183594 237.292969 198.199219 243.964844 C 199.214844 250.636719 186.878906 254.984375 183.6875 253.972656 C 180.492188 252.957031 182.527344 242.367188 179.332031 235.261719 C 176.140625 228.152344 170.042969 214.230469 175.414062 209.300781 C 179.195312 205.824219 184.199219 200.554688 186.828125 197.742188 C 142.238281 192.484375 113.832031 166.511719 103.691406 136.484375 C 103.695312 136.488281 103.695312 136.492188 103.695312 136.496094 C 94.257812 142.183594 93.917969 107.046875 99.511719 93.125 C 96.488281 97.984375 93.699219 96.386719 94.355469 92.46875 C 98.925781 72.019531 109.695312 62.511719 109.695312 62.511719 C 106.664062 55.707031 106.613281 45.78125 115.144531 43.195312 C 122.757812 40.886719 127.21875 45.761719 129.644531 50.34375 C 132.082031 49.578125 135.566406 49.105469 140.582031 49.320312 C 157.417969 50.046875 167.285156 63.246094 164.820312 63.535156 C 162.351562 63.824219 155.53125 59.621094 155.53125 59.621094 C 155.53125 59.621094 164.546875 65.457031 161.421875 68.847656 C 169.476562 77.621094 179.105469 80.734375 183.613281 82.898438 C 189.058594 85.507812 188.839844 95.296875 183.398438 106.175781 C 177.953125 117.054688 157.707031 112.050781 146.167969 108.789062 C 138.765625 128.367188 150.742188 142.074219 166.851562 142.945312 C 182.960938 143.8125 184.703125 122.277344 198.417969 117.054688 C 212.132812 111.832031 220.625 88.554688 226.066406 80.070312 C 229.117188 75.316406 259.375 59.402344 270.480469 94.863281 C 279.933594 125.058594 286.546875 119.292969 296.234375 128.734375 C 296.234375 128.734375 310.828125 133.152344 313.148438 166.511719 C 313.519531 173.230469 313.792969 178.117188 314.21875 182.027344 Z M 314.21875 182.027344 " fill-opacity="1" fill-rule="nonzero"/><path fill="#e1d7ce" d="M 140.3125 86.964844 C 145.101562 86.660156 150.296875 83.875 149.121094 75.523438 C 147.980469 67.445312 141.371094 66.945312 137.59375 67.339844 C 133.8125 67.730469 127.890625 70.75 129.25 78.472656 C 130.609375 86.191406 136.203125 87.226562 140.3125 86.964844 Z M 140.3125 86.964844 C 145.101562 86.660156 150.296875 83.875 149.121094 75.523438 C 147.980469 67.445312 141.371094 66.945312 137.59375 67.339844 C 133.8125 67.730469 127.890625 70.75 129.25 78.472656 C 130.609375 86.191406 136.203125 87.226562 140.3125 86.964844 Z M 140.3125 86.964844 " fill-opacity="1" fill-rule="nonzero"/><path fill="#231f20" d="M 136.867188 85.21875 C 135.332031 85.324219 133.53125 85.179688 131.957031 84.316406 C 130.734375 83.226562 129.523438 81.210938 129.050781 78.53125 C 128.433594 75.023438 129.523438 72.261719 131.027344 70.667969 C 132.234375 69.816406 133.609375 69.367188 134.742188 69.246094 C 137.691406 68.925781 142.84375 69.332031 143.730469 75.90625 C 144.648438 82.707031 140.597656 84.972656 136.867188 85.21875 Z M 136.867188 85.21875 C 135.332031 85.324219 133.53125 85.179688 131.957031 84.316406 C 130.734375 83.226562 129.523438 81.210938 129.050781 78.53125 C 128.433594 75.023438 129.523438 72.261719 131.027344 70.667969 C 132.234375 69.816406 133.609375 69.367188 134.742188 69.246094 C 137.691406 68.925781 142.84375 69.332031 143.730469 75.90625 C 144.648438 82.707031 140.597656 84.972656 136.867188 85.21875 Z M 136.867188 85.21875 " fill-opacity="1" fill-rule="nonzero"/><path fill="#cc956e" d="M 115.15625 62.511719 C 112.023438 58.84375 110.480469 49.992188 116.984375 48.019531 C 122.066406 46.480469 124.882812 50.101562 126.292969 53.101562 C 124.074219 54.382812 119.214844 57.53125 115.15625 62.511719 Z M 115.15625 62.511719 C 112.023438 58.84375 110.480469 49.992188 116.984375 48.019531 C 122.066406 46.480469 124.882812 50.101562 126.292969 53.101562 C 124.074219 54.382812 119.214844 57.53125 115.15625 62.511719 Z M 115.15625 62.511719 " fill-opacity="1" fill-rule="nonzero"/><g mask="url(#id3)"><g transform="matrix(1, 0, 0, 1, 94, 48)"><g clip-path="url(#id5)"><g clip-path="url(#id4)"><path fill="#72412b" d="M 36.710938 4.511719 C 35.644531 2.34375 35.644531 2.34375 35.644531 2.34375 C 38.082031 1.578125 41.566406 1.105469 46.582031 1.320312 C 63.417969 2.046875 73.285156 15.246094 70.820312 15.535156 C 68.351562 15.824219 61.53125 11.621094 61.53125 11.621094 C 61.53125 11.621094 70.546875 17.457031 67.421875 20.847656 C 67.421875 20.847656 63.417969 22.207031 57.03125 14.957031 C 50.644531 7.703125 44.546875 4.511719 36.710938 4.511719 Z M 9.867188 62.082031 C 8.996094 39.5625 18.457031 17.9375 18.457031 17.9375 C 18.457031 17.9375 16.667969 16.066406 15.695312 14.511719 C 15.695312 14.511719 4.925781 24.019531 0.355469 44.46875 C -0.300781 48.386719 2.488281 49.984375 5.511719 45.125 C -0.0820312 59.046875 0.257812 94.183594 9.695312 88.496094 L 9.691406 88.484375 C 9.691406 88.484375 6.445312 78.710938 6.117188 64.707031 C 7.726562 67.371094 10.015625 67.226562 9.867188 62.082031 Z M 9.867188 62.082031 " fill-opacity="1" fill-rule="nonzero"/></g></g></g></g><path fill="#72412b" d="M 314.21875 182.027344 C 314.21875 182.027344 315.761719 194.832031 322.078125 202.445312 C 325.015625 205.601562 319.421875 207.558594 314.21875 195.484375 C 315.328125 199.835938 317.683594 203.425781 318.554688 205.492188 C 319.421875 207.558594 311.953125 203.96875 310.539062 195.808594 C 309.121094 187.652344 309.230469 182.027344 309.230469 182.027344 C 309.230469 182.027344 311.914062 185.101562 314.21875 182.027344 Z M 188.386719 253.527344 C 188.363281 253.503906 185.695312 250.730469 187.679688 247.71875 C 187.847656 247.460938 187.761719 247.113281 187.5 246.953125 C 187.238281 246.792969 186.894531 246.871094 186.734375 247.132812 C 184.410156 250.886719 187.1875 253.785156 187.214844 253.8125 C 187.351562 253.835938 188.121094 253.632812 188.386719 253.527344 Z M 282.6875 252.535156 C 281.292969 247.457031 285.183594 245.679688 285.367188 245.609375 C 285.65625 245.5 285.804688 245.179688 285.695312 244.894531 C 285.589844 244.605469 285.269531 244.457031 284.980469 244.566406 C 284.929688 244.585938 280 246.488281 281.5 252.40625 C 281.515625 252.476562 282.328125 252.558594 282.6875 252.535156 Z M 268.484375 196.007812 C 268.46875 195.921875 267.050781 187.292969 267.761719 178.757812 C 267.789062 178.453125 267.558594 178.183594 267.253906 178.160156 C 266.9375 178.128906 266.679688 178.359375 266.652344 178.667969 C 265.929688 187.339844 267.382812 196.175781 267.398438 196.261719 C 267.75 196.207031 268.375 196.054688 268.484375 196.007812 Z M 186.261719 198.359375 L 191.851562 192.15625 C 192.058594 191.929688 192.039062 191.578125 191.808594 191.371094 C 191.582031 191.167969 191.230469 191.183594 191.023438 191.414062 L 185.433594 197.617188 C 185.230469 197.84375 185.246094 198.195312 185.476562 198.402344 C 185.582031 198.496094 185.714844 198.542969 185.847656 198.542969 C 186 198.542969 186.152344 198.480469 186.261719 198.359375 Z M 171.03125 104.195312 C 170.699219 104.179688 170.355469 104.132812 170.003906 104.054688 C 166.054688 103.167969 165.746094 98.683594 166.136719 96.4375 C 166.1875 96.136719 166.46875 95.933594 166.777344 95.984375 C 167.082031 96.039062 167.285156 96.324219 167.234375 96.628906 C 167.195312 96.851562 166.34375 102.09375 170.246094 102.96875 C 171.367188 103.21875 172.347656 103.078125 173.171875 102.546875 C 174.921875 101.421875 175.460938 98.90625 175.464844 98.878906 C 175.527344 98.578125 175.816406 98.386719 176.121094 98.445312 C 176.421875 98.507812 176.617188 98.800781 176.554688 99.101562 C 176.53125 99.222656 175.921875 102.09375 173.78125 103.476562 C 172.964844 104.003906 172.042969 104.246094 171.03125 104.195312 Z M 180.078125 87.359375 C 176.292969 86.050781 172.066406 88.878906 178.890625 90.511719 C 183.734375 91.671875 183.636719 88.585938 180.078125 87.359375 Z M 180.078125 87.359375 " fill-opacity="1" fill-rule="nonzero"/><g mask="url(#id6)"><g transform="matrix(1, 0, 0, 1, 125, 80)"><g clip-path="url(#id8)"><g clip-path="url(#id7)"><path fill="#72412b" d="M 132.011719 11.195312 C 129.96875 12.214844 128.746094 14.898438 131.164062 20.652344 C 133.5 26.207031 137.027344 26.019531 138.65625 25.230469 C 140.535156 24.324219 141.546875 21.054688 139.011719 15.449219 C 136.453125 9.796875 133.769531 10.316406 132.011719 11.195312 Z M 119.457031 1.636719 C 118.273438 2.722656 117.894531 4.65625 120.40625 7.695312 C 122.832031 10.632812 125.132812 9.738281 126.082031 8.890625 C 127.175781 7.914062 127.324219 5.660156 124.753906 2.734375 C 122.167969 -0.210938 120.476562 0.703125 119.457031 1.636719 Z M 119.5625 16.53125 C 118.566406 17.238281 118.042969 18.53125 119.441406 20.621094 C 120.796875 22.636719 122.5625 22.078125 123.355469 21.527344 C 124.269531 20.890625 124.671875 19.382812 123.214844 17.371094 C 121.746094 15.34375 120.414062 15.925781 119.5625 16.53125 Z M 73.542969 51.292969 C 74.816406 52.277344 76.789062 52.328125 79.363281 49.339844 C 81.851562 46.457031 80.585938 44.34375 79.589844 43.550781 C 78.441406 42.636719 76.191406 42.871094 73.738281 45.890625 C 71.269531 48.933594 72.453125 50.445312 73.542969 51.292969 Z M 1.457031 78.339844 C 0.132812 79.972656 0.0585938 82.589844 4.015625 86.179688 C 7.839844 89.644531 10.664062 88.078125 11.726562 86.800781 C 12.953125 85.328125 12.65625 82.332031 8.648438 78.902344 C 4.609375 75.449219 2.589844 76.9375 1.457031 78.339844 Z M 19.5 91.527344 C 18.871094 92.578125 19.082031 94.128906 21.792969 96.007812 C 24.414062 97.820312 25.945312 96.71875 26.457031 95.894531 C 27.042969 94.949219 26.574219 93.191406 23.847656 91.414062 C 21.101562 89.621094 20.039062 90.628906 19.5 91.527344 Z M 19.375 83.074219 C 18.734375 83.777344 18.777344 85.082031 20.191406 86.441406 C 21.558594 87.753906 22.8125 87.039062 23.324219 86.484375 C 23.914062 85.851562 23.96875 84.632812 22.527344 83.339844 C 21.070312 82.039062 19.921875 82.472656 19.375 83.074219 Z M 19.375 83.074219 " fill-opacity="1" fill-rule="nonzero"/></g></g></g></g></svg>