<svg xmlns="http://www.w3.org/2000/svg" xmlns:xlink="http://www.w3.org/1999/xlink" width="559" zoomAndPan="magnify" viewBox="0 0 419.25 297.749993" height="396" preserveAspectRatio="xMidYMid meet" version="1.0"><defs><clipPath id="id1"><path d="M 41 249 L 390 249 L 390 297.359375 L 41 297.359375 Z M 41 249 " clip-rule="nonzero"/></clipPath><clipPath id="id2"><path d="M 31 249 L 380 249 L 380 297.359375 L 31 297.359375 Z M 31 249 " clip-rule="nonzero"/></clipPath><clipPath id="id3"><path d="M 360 145 L 391.714844 145 L 391.714844 176 L 360 176 Z M 360 145 " clip-rule="nonzero"/></clipPath><clipPath id="id4"><path d="M 80 0.140625 L 190 0.140625 L 190 62 L 80 62 Z M 80 0.140625 " clip-rule="nonzero"/></clipPath><clipPath id="id5"><path d="M 27.117188 216 L 47 216 L 47 236 L 27.117188 236 Z M 27.117188 216 " clip-rule="nonzero"/></clipPath></defs><path fill="#66ccce" d="M 328.554688 18.824219 C 323.386719 18.824219 319.039062 22.253906 317.777344 26.914062 C 317.558594 26.898438 317.335938 26.890625 317.109375 26.890625 C 312 26.890625 307.851562 31.039062 307.851562 36.152344 C 307.851562 41.265625 312 45.414062 317.109375 45.414062 C 320.148438 45.414062 322.84375 43.953125 324.53125 41.695312 C 325.488281 42.183594 326.570312 42.460938 327.714844 42.460938 C 329.5625 42.460938 331.246094 41.738281 332.496094 40.566406 C 334 42.84375 336.558594 44.339844 339.457031 44.339844 C 342.660156 44.339844 345.441406 42.515625 346.855469 39.835938 C 347.742188 40.472656 348.824219 40.851562 349.996094 40.851562 C 352.957031 40.851562 355.363281 38.445312 355.363281 35.480469 C 355.363281 32.515625 352.957031 30.113281 349.996094 30.113281 C 348.703125 30.113281 347.519531 30.566406 346.589844 31.328125 C 345.109375 28.90625 342.472656 27.289062 339.457031 27.289062 L 339.425781 27.292969 C 338.300781 22.441406 333.859375 18.824219 328.554688 18.824219 " fill-opacity="1" fill-rule="evenodd"/><path fill="#ffffff" d="M 317.804688 30.816406 C 314.507812 30.816406 311.738281 33.003906 310.933594 35.972656 C 310.792969 35.964844 310.648438 35.957031 310.507812 35.957031 C 307.25 35.957031 304.601562 38.601562 304.601562 41.859375 C 304.601562 45.121094 307.25 47.765625 310.507812 47.765625 C 312.445312 47.765625 314.164062 46.835938 315.238281 45.398438 C 315.847656 45.707031 316.535156 45.886719 317.269531 45.886719 C 318.445312 45.886719 319.519531 45.425781 320.316406 44.675781 C 321.277344 46.125 322.90625 47.082031 324.753906 47.082031 C 326.796875 47.082031 328.570312 45.921875 329.472656 44.210938 C 330.035156 44.621094 330.726562 44.859375 331.472656 44.859375 C 333.363281 44.859375 334.894531 43.324219 334.894531 41.4375 C 334.894531 39.546875 333.363281 38.011719 331.472656 38.011719 C 330.648438 38.011719 329.894531 38.300781 329.304688 38.785156 C 328.359375 37.242188 326.675781 36.214844 324.753906 36.214844 L 324.734375 36.214844 C 324.015625 33.125 321.1875 30.816406 317.804688 30.816406 " fill-opacity="1" fill-rule="evenodd"/><path fill="#fbc707" d="M 208.746094 38.382812 C 289.613281 38.382812 355.199219 103.976562 355.199219 184.867188 C 355.199219 187.992188 355.085938 191.089844 354.894531 194.167969 L 62.59375 194.167969 C 62.398438 191.089844 62.292969 187.992188 62.292969 184.867188 C 62.292969 103.976562 127.871094 38.382812 208.746094 38.382812 " fill-opacity="1" fill-rule="evenodd"/><g clip-path="url(#id1)"><path fill="#5d6068" d="M 252.5625 249.0625 L 365.304688 249.0625 C 378.585938 249.0625 389.449219 259.929688 389.449219 273.210938 C 389.449219 286.496094 378.585938 297.363281 365.304688 297.363281 L 157.175781 297.363281 C 151.46875 297.363281 146.796875 292.695312 146.796875 286.988281 C 146.796875 281.277344 151.46875 276.605469 157.175781 276.605469 L 217.839844 276.605469 C 219.660156 276.628906 221.179688 275.046875 221.179688 273.207031 C 221.179688 271.367188 219.660156 269.789062 217.839844 269.808594 L 52.210938 269.808594 C 46.503906 269.808594 41.835938 265.140625 41.835938 259.433594 C 41.835938 253.722656 46.503906 249.050781 52.210938 249.050781 L 252.5625 249.050781 L 252.5625 249.0625 " fill-opacity="1" fill-rule="evenodd"/></g><path fill="#93998f" d="M 247.289062 286.117188 L 249.777344 286.117188 C 250.546875 286.117188 251.171875 286.742188 251.171875 287.511719 C 251.171875 288.277344 250.546875 288.90625 249.777344 288.90625 L 247.289062 288.90625 C 246.519531 288.90625 245.894531 288.277344 245.894531 287.511719 C 245.894531 286.742188 246.519531 286.117188 247.289062 286.117188 " fill-opacity="1" fill-rule="evenodd"/><path fill="#93998f" d="M 255.804688 286.117188 L 258.292969 286.117188 C 259.058594 286.117188 259.6875 286.742188 259.6875 287.511719 C 259.6875 288.277344 259.058594 288.90625 258.292969 288.90625 L 255.804688 288.90625 C 255.035156 288.90625 254.410156 288.277344 254.410156 287.511719 C 254.410156 286.742188 255.035156 286.117188 255.804688 286.117188 " fill-opacity="1" fill-rule="evenodd"/><path fill="#93998f" d="M 264.320312 286.117188 L 266.808594 286.117188 C 267.574219 286.117188 268.203125 286.742188 268.203125 287.511719 C 268.203125 288.277344 267.574219 288.90625 266.808594 288.90625 L 264.320312 288.90625 C 263.550781 288.90625 262.925781 288.277344 262.925781 287.511719 C 262.925781 286.742188 263.550781 286.117188 264.320312 286.117188 " fill-opacity="1" fill-rule="evenodd"/><path fill="#93998f" d="M 272.832031 286.117188 L 275.324219 286.117188 C 276.09375 286.117188 276.71875 286.742188 276.71875 287.511719 C 276.71875 288.277344 276.09375 288.90625 275.324219 288.90625 L 272.832031 288.90625 C 272.066406 288.90625 271.441406 288.277344 271.441406 287.511719 C 271.441406 286.742188 272.066406 286.117188 272.832031 286.117188 " fill-opacity="1" fill-rule="evenodd"/><path fill="#93998f" d="M 281.347656 286.117188 L 283.839844 286.117188 C 284.605469 286.117188 285.234375 286.742188 285.234375 287.511719 C 285.234375 288.277344 284.605469 288.90625 283.839844 288.90625 L 281.347656 288.90625 C 280.582031 288.90625 279.957031 288.277344 279.957031 287.511719 C 279.957031 286.742188 280.582031 286.117188 281.347656 286.117188 " fill-opacity="1" fill-rule="evenodd"/><path fill="#93998f" d="M 289.863281 286.117188 L 292.351562 286.117188 C 293.121094 286.117188 293.75 286.742188 293.75 287.511719 C 293.75 288.277344 293.121094 288.90625 292.351562 288.90625 L 289.863281 288.90625 C 289.097656 288.90625 288.472656 288.277344 288.472656 287.511719 C 288.472656 286.742188 289.097656 286.117188 289.863281 286.117188 " fill-opacity="1" fill-rule="evenodd"/><path fill="#93998f" d="M 298.378906 286.117188 L 300.871094 286.117188 C 301.636719 286.117188 302.265625 286.742188 302.265625 287.511719 C 302.265625 288.277344 301.636719 288.90625 300.871094 288.90625 L 298.378906 288.90625 C 297.613281 288.90625 296.984375 288.277344 296.984375 287.511719 C 296.984375 286.742188 297.613281 286.117188 298.378906 286.117188 " fill-opacity="1" fill-rule="evenodd"/><path fill="#93998f" d="M 306.894531 286.117188 L 309.386719 286.117188 C 310.152344 286.117188 310.777344 286.742188 310.777344 287.511719 C 310.777344 288.277344 310.152344 288.90625 309.386719 288.90625 L 306.894531 288.90625 C 306.128906 288.90625 305.5 288.277344 305.5 287.511719 C 305.5 286.742188 306.128906 286.117188 306.894531 286.117188 " fill-opacity="1" fill-rule="evenodd"/><path fill="#93998f" d="M 315.410156 286.117188 L 317.902344 286.117188 C 318.667969 286.117188 319.292969 286.742188 319.292969 287.511719 C 319.292969 288.277344 318.667969 288.90625 317.902344 288.90625 L 315.410156 288.90625 C 314.644531 288.90625 314.015625 288.277344 314.015625 287.511719 C 314.015625 286.742188 314.644531 286.117188 315.410156 286.117188 " fill-opacity="1" fill-rule="evenodd"/><path fill="#93998f" d="M 323.925781 286.117188 L 326.414062 286.117188 C 327.179688 286.117188 327.808594 286.742188 327.808594 287.511719 C 327.808594 288.277344 327.179688 288.90625 326.414062 288.90625 L 323.925781 288.90625 C 323.15625 288.90625 322.53125 288.277344 322.53125 287.511719 C 322.53125 286.742188 323.15625 286.117188 323.925781 286.117188 " fill-opacity="1" fill-rule="evenodd"/><path fill="#93998f" d="M 332.441406 286.117188 L 334.929688 286.117188 C 335.695312 286.117188 336.328125 286.742188 336.328125 287.511719 C 336.328125 288.277344 335.695312 288.90625 334.929688 288.90625 L 332.441406 288.90625 C 331.671875 288.90625 331.046875 288.277344 331.046875 287.511719 C 331.046875 286.742188 331.671875 286.117188 332.441406 286.117188 " fill-opacity="1" fill-rule="evenodd"/><path fill="#93998f" d="M 340.957031 286.117188 L 343.445312 286.117188 C 344.210938 286.117188 344.839844 286.742188 344.839844 287.511719 C 344.839844 288.277344 344.210938 288.90625 343.445312 288.90625 L 340.957031 288.90625 C 340.191406 288.90625 339.558594 288.277344 339.558594 287.511719 C 339.558594 286.742188 340.191406 286.117188 340.957031 286.117188 " fill-opacity="1" fill-rule="evenodd"/><path fill="#93998f" d="M 349.472656 286.117188 L 351.960938 286.117188 C 352.730469 286.117188 353.355469 286.742188 353.355469 287.511719 C 353.355469 288.277344 352.730469 288.90625 351.960938 288.90625 L 349.472656 288.90625 C 348.707031 288.90625 348.074219 288.277344 348.074219 287.511719 C 348.074219 286.742188 348.707031 286.117188 349.472656 286.117188 " fill-opacity="1" fill-rule="evenodd"/><path fill="#93998f" d="M 357.984375 286.117188 L 360.476562 286.117188 C 361.242188 286.117188 361.871094 286.742188 361.871094 287.511719 C 361.871094 288.277344 361.242188 288.90625 360.476562 288.90625 L 357.984375 288.90625 C 357.21875 288.90625 356.589844 288.277344 356.589844 287.511719 C 356.589844 286.742188 357.21875 286.117188 357.984375 286.117188 " fill-opacity="1" fill-rule="evenodd"/><path fill="#93998f" d="M 366.5 286.117188 L 368.992188 286.117188 C 369.757812 286.117188 370.386719 286.742188 370.386719 287.511719 C 370.386719 288.277344 369.757812 288.90625 368.992188 288.90625 L 366.5 288.90625 C 365.734375 288.90625 365.109375 288.277344 365.109375 287.511719 C 365.109375 286.742188 365.734375 286.117188 366.5 286.117188 " fill-opacity="1" fill-rule="evenodd"/><path fill="#93998f" d="M 160.273438 286.117188 L 162.765625 286.117188 C 163.53125 286.117188 164.15625 286.742188 164.15625 287.511719 C 164.15625 288.277344 163.53125 288.90625 162.765625 288.90625 L 160.273438 288.90625 C 159.503906 288.90625 158.878906 288.277344 158.878906 287.511719 C 158.878906 286.742188 159.503906 286.117188 160.273438 286.117188 " fill-opacity="1" fill-rule="evenodd"/><path fill="#93998f" d="M 168.789062 286.117188 L 171.277344 286.117188 C 172.042969 286.117188 172.675781 286.742188 172.675781 287.511719 C 172.675781 288.277344 172.042969 288.90625 171.277344 288.90625 L 168.789062 288.90625 C 168.019531 288.90625 167.394531 288.277344 167.394531 287.511719 C 167.394531 286.742188 168.019531 286.117188 168.789062 286.117188 " fill-opacity="1" fill-rule="evenodd"/><path fill="#93998f" d="M 177.304688 286.117188 L 179.792969 286.117188 C 180.5625 286.117188 181.1875 286.742188 181.1875 287.511719 C 181.1875 288.277344 180.5625 288.90625 179.792969 288.90625 L 177.304688 288.90625 C 176.535156 288.90625 175.910156 288.277344 175.910156 287.511719 C 175.910156 286.742188 176.535156 286.117188 177.304688 286.117188 " fill-opacity="1" fill-rule="evenodd"/><path fill="#93998f" d="M 185.820312 286.117188 L 188.308594 286.117188 C 189.078125 286.117188 189.703125 286.742188 189.703125 287.511719 C 189.703125 288.277344 189.078125 288.90625 188.308594 288.90625 L 185.820312 288.90625 C 185.050781 288.90625 184.421875 288.277344 184.421875 287.511719 C 184.421875 286.742188 185.050781 286.117188 185.820312 286.117188 " fill-opacity="1" fill-rule="evenodd"/><path fill="#93998f" d="M 194.335938 286.117188 L 196.824219 286.117188 C 197.59375 286.117188 198.21875 286.742188 198.21875 287.511719 C 198.21875 288.277344 197.59375 288.90625 196.824219 288.90625 L 194.335938 288.90625 C 193.566406 288.90625 192.941406 288.277344 192.941406 287.511719 C 192.941406 286.742188 193.566406 286.117188 194.335938 286.117188 " fill-opacity="1" fill-rule="evenodd"/><path fill="#93998f" d="M 202.847656 286.117188 L 205.339844 286.117188 C 206.105469 286.117188 206.734375 286.742188 206.734375 287.511719 C 206.734375 288.277344 206.105469 288.90625 205.339844 288.90625 L 202.847656 288.90625 C 202.082031 288.90625 201.457031 288.277344 201.457031 287.511719 C 201.457031 286.742188 202.082031 286.117188 202.847656 286.117188 " fill-opacity="1" fill-rule="evenodd"/><path fill="#93998f" d="M 211.363281 286.117188 L 213.851562 286.117188 C 214.621094 286.117188 215.25 286.742188 215.25 287.511719 C 215.25 288.277344 214.621094 288.90625 213.851562 288.90625 L 211.363281 288.90625 C 210.597656 288.90625 209.972656 288.277344 209.972656 287.511719 C 209.972656 286.742188 210.597656 286.117188 211.363281 286.117188 " fill-opacity="1" fill-rule="evenodd"/><path fill="#93998f" d="M 219.878906 286.117188 L 222.367188 286.117188 C 223.136719 286.117188 223.765625 286.742188 223.765625 287.511719 C 223.765625 288.277344 223.136719 288.90625 222.367188 288.90625 L 219.878906 288.90625 C 219.113281 288.90625 218.484375 288.277344 218.484375 287.511719 C 218.484375 286.742188 219.113281 286.117188 219.878906 286.117188 " fill-opacity="1" fill-rule="evenodd"/><path fill="#93998f" d="M 228.398438 286.117188 L 230.882812 286.117188 C 231.652344 286.117188 232.277344 286.742188 232.277344 287.511719 C 232.277344 288.277344 231.652344 288.90625 230.882812 288.90625 L 228.398438 288.90625 C 227.628906 288.90625 227 288.277344 227 287.511719 C 227 286.742188 227.628906 286.117188 228.398438 286.117188 " fill-opacity="1" fill-rule="evenodd"/><path fill="#93998f" d="M 236.910156 286.117188 L 239.398438 286.117188 C 240.167969 286.117188 240.792969 286.742188 240.792969 287.511719 C 240.792969 288.277344 240.167969 288.90625 239.398438 288.90625 L 236.910156 288.90625 C 236.144531 288.90625 235.515625 288.277344 235.515625 287.511719 C 235.515625 286.742188 236.144531 286.117188 236.910156 286.117188 " fill-opacity="1" fill-rule="evenodd"/><g clip-path="url(#id2)"><path fill="#5d6068" d="M 242.453125 249.0625 L 355.199219 249.0625 C 368.476562 249.0625 379.34375 259.929688 379.34375 273.210938 C 379.34375 286.496094 368.476562 297.363281 355.199219 297.363281 L 147.066406 297.363281 C 141.359375 297.363281 136.6875 292.695312 136.6875 286.988281 C 136.6875 281.277344 141.359375 276.605469 147.066406 276.605469 L 207.730469 276.605469 C 209.550781 276.628906 211.070312 275.046875 211.070312 273.207031 C 211.070312 271.367188 209.550781 269.789062 207.730469 269.808594 L 42.101562 269.808594 C 36.394531 269.808594 31.726562 265.140625 31.726562 259.433594 C 31.726562 253.722656 36.394531 249.050781 42.101562 249.050781 L 242.453125 249.050781 L 242.453125 249.0625 " fill-opacity="1" fill-rule="evenodd"/></g><path fill="#93998f" d="M 237.179688 286.117188 L 239.667969 286.117188 C 240.433594 286.117188 241.066406 286.742188 241.066406 287.511719 C 241.066406 288.277344 240.433594 288.90625 239.667969 288.90625 L 237.179688 288.90625 C 236.410156 288.90625 235.785156 288.277344 235.785156 287.511719 C 235.785156 286.742188 236.410156 286.117188 237.179688 286.117188 " fill-opacity="1" fill-rule="evenodd"/><path fill="#93998f" d="M 245.695312 286.117188 L 248.183594 286.117188 C 248.949219 286.117188 249.578125 286.742188 249.578125 287.511719 C 249.578125 288.277344 248.949219 288.90625 248.183594 288.90625 L 245.695312 288.90625 C 244.929688 288.90625 244.300781 288.277344 244.300781 287.511719 C 244.300781 286.742188 244.929688 286.117188 245.695312 286.117188 " fill-opacity="1" fill-rule="evenodd"/><path fill="#93998f" d="M 254.210938 286.117188 L 256.699219 286.117188 C 257.46875 286.117188 258.09375 286.742188 258.09375 287.511719 C 258.09375 288.277344 257.46875 288.90625 256.699219 288.90625 L 254.210938 288.90625 C 253.445312 288.90625 252.8125 288.277344 252.8125 287.511719 C 252.8125 286.742188 253.445312 286.117188 254.210938 286.117188 " fill-opacity="1" fill-rule="evenodd"/><path fill="#93998f" d="M 262.722656 286.117188 L 265.214844 286.117188 C 265.984375 286.117188 266.609375 286.742188 266.609375 287.511719 C 266.609375 288.277344 265.984375 288.90625 265.214844 288.90625 L 262.722656 288.90625 C 261.957031 288.90625 261.332031 288.277344 261.332031 287.511719 C 261.332031 286.742188 261.957031 286.117188 262.722656 286.117188 " fill-opacity="1" fill-rule="evenodd"/><path fill="#93998f" d="M 271.238281 286.117188 L 273.730469 286.117188 C 274.496094 286.117188 275.125 286.742188 275.125 287.511719 C 275.125 288.277344 274.496094 288.90625 273.730469 288.90625 L 271.238281 288.90625 C 270.472656 288.90625 269.847656 288.277344 269.847656 287.511719 C 269.847656 286.742188 270.472656 286.117188 271.238281 286.117188 " fill-opacity="1" fill-rule="evenodd"/><path fill="#93998f" d="M 279.753906 286.117188 L 282.246094 286.117188 C 283.011719 286.117188 283.640625 286.742188 283.640625 287.511719 C 283.640625 288.277344 283.011719 288.90625 282.246094 288.90625 L 279.753906 288.90625 C 278.988281 288.90625 278.363281 288.277344 278.363281 287.511719 C 278.363281 286.742188 278.988281 286.117188 279.753906 286.117188 " fill-opacity="1" fill-rule="evenodd"/><path fill="#93998f" d="M 288.269531 286.117188 L 290.757812 286.117188 C 291.527344 286.117188 292.15625 286.742188 292.15625 287.511719 C 292.15625 288.277344 291.527344 288.90625 290.757812 288.90625 L 288.269531 288.90625 C 287.503906 288.90625 286.875 288.277344 286.875 287.511719 C 286.875 286.742188 287.503906 286.117188 288.269531 286.117188 " fill-opacity="1" fill-rule="evenodd"/><path fill="#93998f" d="M 296.785156 286.117188 L 299.277344 286.117188 C 300.042969 286.117188 300.667969 286.742188 300.667969 287.511719 C 300.667969 288.277344 300.042969 288.90625 299.277344 288.90625 L 296.785156 288.90625 C 296.019531 288.90625 295.390625 288.277344 295.390625 287.511719 C 295.390625 286.742188 296.019531 286.117188 296.785156 286.117188 " fill-opacity="1" fill-rule="evenodd"/><path fill="#93998f" d="M 305.300781 286.117188 L 307.792969 286.117188 C 308.558594 286.117188 309.183594 286.742188 309.183594 287.511719 C 309.183594 288.277344 308.558594 288.90625 307.792969 288.90625 L 305.300781 288.90625 C 304.535156 288.90625 303.90625 288.277344 303.90625 287.511719 C 303.90625 286.742188 304.535156 286.117188 305.300781 286.117188 " fill-opacity="1" fill-rule="evenodd"/><path fill="#93998f" d="M 313.816406 286.117188 L 316.304688 286.117188 C 317.074219 286.117188 317.699219 286.742188 317.699219 287.511719 C 317.699219 288.277344 317.074219 288.90625 316.304688 288.90625 L 313.816406 288.90625 C 313.046875 288.90625 312.421875 288.277344 312.421875 287.511719 C 312.421875 286.742188 313.046875 286.117188 313.816406 286.117188 " fill-opacity="1" fill-rule="evenodd"/><path fill="#93998f" d="M 322.332031 286.117188 L 324.820312 286.117188 C 325.589844 286.117188 326.214844 286.742188 326.214844 287.511719 C 326.214844 288.277344 325.589844 288.90625 324.820312 288.90625 L 322.332031 288.90625 C 321.566406 288.90625 320.9375 288.277344 320.9375 287.511719 C 320.9375 286.742188 321.566406 286.117188 322.332031 286.117188 " fill-opacity="1" fill-rule="evenodd"/><path fill="#93998f" d="M 330.847656 286.117188 L 333.335938 286.117188 C 334.105469 286.117188 334.730469 286.742188 334.730469 287.511719 C 334.730469 288.277344 334.105469 288.90625 333.335938 288.90625 L 330.847656 288.90625 C 330.078125 288.90625 329.453125 288.277344 329.453125 287.511719 C 329.453125 286.742188 330.078125 286.117188 330.847656 286.117188 " fill-opacity="1" fill-rule="evenodd"/><path fill="#93998f" d="M 339.363281 286.117188 L 341.851562 286.117188 C 342.621094 286.117188 343.246094 286.742188 343.246094 287.511719 C 343.246094 288.277344 342.621094 288.90625 341.851562 288.90625 L 339.363281 288.90625 C 338.59375 288.90625 337.96875 288.277344 337.96875 287.511719 C 337.96875 286.742188 338.59375 286.117188 339.363281 286.117188 " fill-opacity="1" fill-rule="evenodd"/><path fill="#93998f" d="M 347.875 286.117188 L 350.367188 286.117188 C 351.132812 286.117188 351.761719 286.742188 351.761719 287.511719 C 351.761719 288.277344 351.132812 288.90625 350.367188 288.90625 L 347.875 288.90625 C 347.109375 288.90625 346.484375 288.277344 346.484375 287.511719 C 346.484375 286.742188 347.109375 286.117188 347.875 286.117188 " fill-opacity="1" fill-rule="evenodd"/><path fill="#93998f" d="M 356.390625 286.117188 L 358.882812 286.117188 C 359.648438 286.117188 360.277344 286.742188 360.277344 287.511719 C 360.277344 288.277344 359.648438 288.90625 358.882812 288.90625 L 356.390625 288.90625 C 355.625 288.90625 355 288.277344 355 287.511719 C 355 286.742188 355.625 286.117188 356.390625 286.117188 " fill-opacity="1" fill-rule="evenodd"/><path fill="#93998f" d="M 150.164062 286.117188 L 152.65625 286.117188 C 153.421875 286.117188 154.046875 286.742188 154.046875 287.511719 C 154.046875 288.277344 153.421875 288.90625 152.65625 288.90625 L 150.164062 288.90625 C 149.398438 288.90625 148.769531 288.277344 148.769531 287.511719 C 148.769531 286.742188 149.398438 286.117188 150.164062 286.117188 " fill-opacity="1" fill-rule="evenodd"/><path fill="#93998f" d="M 158.679688 286.117188 L 161.167969 286.117188 C 161.933594 286.117188 162.5625 286.742188 162.5625 287.511719 C 162.5625 288.277344 161.933594 288.90625 161.167969 288.90625 L 158.679688 288.90625 C 157.910156 288.90625 157.285156 288.277344 157.285156 287.511719 C 157.285156 286.742188 157.910156 286.117188 158.679688 286.117188 " fill-opacity="1" fill-rule="evenodd"/><path fill="#93998f" d="M 167.195312 286.117188 L 169.683594 286.117188 C 170.449219 286.117188 171.078125 286.742188 171.078125 287.511719 C 171.078125 288.277344 170.449219 288.90625 169.683594 288.90625 L 167.195312 288.90625 C 166.425781 288.90625 165.800781 288.277344 165.800781 287.511719 C 165.800781 286.742188 166.425781 286.117188 167.195312 286.117188 " fill-opacity="1" fill-rule="evenodd"/><path fill="#93998f" d="M 175.710938 286.117188 L 178.199219 286.117188 C 178.96875 286.117188 179.59375 286.742188 179.59375 287.511719 C 179.59375 288.277344 178.96875 288.90625 178.199219 288.90625 L 175.710938 288.90625 C 174.941406 288.90625 174.316406 288.277344 174.316406 287.511719 C 174.316406 286.742188 174.941406 286.117188 175.710938 286.117188 " fill-opacity="1" fill-rule="evenodd"/><path fill="#93998f" d="M 184.226562 286.117188 L 186.714844 286.117188 C 187.484375 286.117188 188.109375 286.742188 188.109375 287.511719 C 188.109375 288.277344 187.484375 288.90625 186.714844 288.90625 L 184.226562 288.90625 C 183.460938 288.90625 182.832031 288.277344 182.832031 287.511719 C 182.832031 286.742188 183.460938 286.117188 184.226562 286.117188 " fill-opacity="1" fill-rule="evenodd"/><path fill="#93998f" d="M 192.738281 286.117188 L 195.230469 286.117188 C 195.996094 286.117188 196.625 286.742188 196.625 287.511719 C 196.625 288.277344 195.996094 288.90625 195.230469 288.90625 L 192.738281 288.90625 C 191.972656 288.90625 191.347656 288.277344 191.347656 287.511719 C 191.347656 286.742188 191.972656 286.117188 192.738281 286.117188 " fill-opacity="1" fill-rule="evenodd"/><path fill="#93998f" d="M 201.253906 286.117188 L 203.742188 286.117188 C 204.511719 286.117188 205.140625 286.742188 205.140625 287.511719 C 205.140625 288.277344 204.511719 288.90625 203.742188 288.90625 L 201.253906 288.90625 C 200.488281 288.90625 199.863281 288.277344 199.863281 287.511719 C 199.863281 286.742188 200.488281 286.117188 201.253906 286.117188 " fill-opacity="1" fill-rule="evenodd"/><path fill="#93998f" d="M 209.769531 286.117188 L 212.261719 286.117188 C 213.027344 286.117188 213.65625 286.742188 213.65625 287.511719 C 213.65625 288.277344 213.027344 288.90625 212.261719 288.90625 L 209.769531 288.90625 C 209.003906 288.90625 208.375 288.277344 208.375 287.511719 C 208.375 286.742188 209.003906 286.117188 209.769531 286.117188 " fill-opacity="1" fill-rule="evenodd"/><path fill="#93998f" d="M 218.285156 286.117188 L 220.777344 286.117188 C 221.542969 286.117188 222.167969 286.742188 222.167969 287.511719 C 222.167969 288.277344 221.542969 288.90625 220.777344 288.90625 L 218.285156 288.90625 C 217.519531 288.90625 216.890625 288.277344 216.890625 287.511719 C 216.890625 286.742188 217.519531 286.117188 218.285156 286.117188 " fill-opacity="1" fill-rule="evenodd"/><path fill="#93998f" d="M 226.800781 286.117188 L 229.292969 286.117188 C 230.058594 286.117188 230.683594 286.742188 230.683594 287.511719 C 230.683594 288.277344 230.058594 288.90625 229.292969 288.90625 L 226.800781 288.90625 C 226.035156 288.90625 225.40625 288.277344 225.40625 287.511719 C 225.40625 286.742188 226.035156 286.117188 226.800781 286.117188 " fill-opacity="1" fill-rule="evenodd"/><path fill="#5d6068" d="M 174.707031 194.011719 L 61.960938 194.011719 C 48.683594 194.011719 37.816406 204.878906 37.816406 218.160156 C 37.816406 231.445312 48.683594 242.3125 61.960938 242.3125 L 270.09375 242.3125 C 275.800781 242.3125 280.46875 237.640625 280.46875 231.933594 C 280.46875 226.222656 275.800781 221.554688 270.09375 221.554688 L 209.429688 221.554688 C 207.605469 221.578125 206.089844 219.996094 206.089844 218.15625 C 206.089844 216.316406 207.605469 214.734375 209.429688 214.753906 L 375.054688 214.753906 C 380.761719 214.753906 385.433594 210.085938 385.433594 204.378906 C 385.433594 198.667969 380.761719 193.996094 375.054688 193.996094 L 174.707031 193.996094 L 174.707031 194.011719 " fill-opacity="1" fill-rule="evenodd"/><path fill="#93998f" d="M 179.976562 231.066406 L 177.488281 231.066406 C 176.722656 231.066406 176.09375 231.691406 176.09375 232.457031 C 176.09375 233.226562 176.722656 233.851562 177.488281 233.851562 L 179.976562 233.851562 C 180.746094 233.851562 181.375 233.226562 181.375 232.457031 C 181.375 231.691406 180.746094 231.066406 179.976562 231.066406 " fill-opacity="1" fill-rule="evenodd"/><path fill="#93998f" d="M 171.460938 231.066406 L 168.972656 231.066406 C 168.207031 231.066406 167.578125 231.691406 167.578125 232.457031 C 167.578125 233.226562 168.207031 233.851562 168.972656 233.851562 L 171.460938 233.851562 C 172.230469 233.851562 172.859375 233.226562 172.859375 232.457031 C 172.859375 231.691406 172.230469 231.066406 171.460938 231.066406 " fill-opacity="1" fill-rule="evenodd"/><path fill="#93998f" d="M 162.949219 231.066406 L 160.457031 231.066406 C 159.691406 231.066406 159.0625 231.691406 159.0625 232.457031 C 159.0625 233.226562 159.691406 233.851562 160.457031 233.851562 L 162.949219 233.851562 C 163.714844 233.851562 164.34375 233.226562 164.34375 232.457031 C 164.34375 231.691406 163.714844 231.066406 162.949219 231.066406 " fill-opacity="1" fill-rule="evenodd"/><path fill="#93998f" d="M 154.433594 231.066406 L 151.945312 231.066406 C 151.175781 231.066406 150.546875 231.691406 150.546875 232.457031 C 150.546875 233.226562 151.175781 233.851562 151.945312 233.851562 L 154.433594 233.851562 C 155.199219 233.851562 155.828125 233.226562 155.828125 232.457031 C 155.828125 231.691406 155.199219 231.066406 154.433594 231.066406 " fill-opacity="1" fill-rule="evenodd"/><path fill="#93998f" d="M 145.917969 231.066406 L 143.429688 231.066406 C 142.660156 231.066406 142.03125 231.691406 142.03125 232.457031 C 142.03125 233.226562 142.660156 233.851562 143.429688 233.851562 L 145.917969 233.851562 C 146.683594 233.851562 147.3125 233.226562 147.3125 232.457031 C 147.3125 231.691406 146.683594 231.066406 145.917969 231.066406 " fill-opacity="1" fill-rule="evenodd"/><path fill="#93998f" d="M 137.402344 231.066406 L 134.914062 231.066406 C 134.144531 231.066406 133.519531 231.691406 133.519531 232.457031 C 133.519531 233.226562 134.144531 233.851562 134.914062 233.851562 L 137.402344 233.851562 C 138.167969 233.851562 138.796875 233.226562 138.796875 232.457031 C 138.796875 231.691406 138.167969 231.066406 137.402344 231.066406 " fill-opacity="1" fill-rule="evenodd"/><path fill="#93998f" d="M 128.886719 231.066406 L 126.394531 231.066406 C 125.628906 231.066406 125.003906 231.691406 125.003906 232.457031 C 125.003906 233.226562 125.628906 233.851562 126.394531 233.851562 L 128.886719 233.851562 C 129.652344 233.851562 130.28125 233.226562 130.28125 232.457031 C 130.28125 231.691406 129.652344 231.066406 128.886719 231.066406 " fill-opacity="1" fill-rule="evenodd"/><path fill="#93998f" d="M 120.375 231.066406 L 117.878906 231.066406 C 117.117188 231.066406 116.488281 231.691406 116.488281 232.457031 C 116.488281 233.226562 117.117188 233.851562 117.878906 233.851562 L 120.375 233.851562 C 121.140625 233.851562 121.765625 233.226562 121.765625 232.457031 C 121.765625 231.691406 121.140625 231.066406 120.375 231.066406 " fill-opacity="1" fill-rule="evenodd"/><path fill="#93998f" d="M 111.855469 231.066406 L 109.367188 231.066406 C 108.601562 231.066406 107.972656 231.691406 107.972656 232.457031 C 107.972656 233.226562 108.601562 233.851562 109.367188 233.851562 L 111.855469 233.851562 C 112.625 233.851562 113.25 233.226562 113.25 232.457031 C 113.25 231.691406 112.625 231.066406 111.855469 231.066406 " fill-opacity="1" fill-rule="evenodd"/><path fill="#93998f" d="M 103.339844 231.066406 L 100.851562 231.066406 C 100.085938 231.066406 99.457031 231.691406 99.457031 232.457031 C 99.457031 233.226562 100.085938 233.851562 100.851562 233.851562 L 103.339844 233.851562 C 104.109375 233.851562 104.734375 233.226562 104.734375 232.457031 C 104.734375 231.691406 104.109375 231.066406 103.339844 231.066406 " fill-opacity="1" fill-rule="evenodd"/><path fill="#93998f" d="M 94.824219 231.066406 L 92.335938 231.066406 C 91.570312 231.066406 90.945312 231.691406 90.945312 232.457031 C 90.945312 233.226562 91.570312 233.851562 92.335938 233.851562 L 94.824219 233.851562 C 95.59375 233.851562 96.222656 233.226562 96.222656 232.457031 C 96.222656 231.691406 95.59375 231.066406 94.824219 231.066406 " fill-opacity="1" fill-rule="evenodd"/><path fill="#93998f" d="M 86.3125 231.066406 L 83.820312 231.066406 C 83.054688 231.066406 82.429688 231.691406 82.429688 232.457031 C 82.429688 233.226562 83.054688 233.851562 83.820312 233.851562 L 86.3125 233.851562 C 87.078125 233.851562 87.707031 233.226562 87.707031 232.457031 C 87.707031 231.691406 87.078125 231.066406 86.3125 231.066406 " fill-opacity="1" fill-rule="evenodd"/><path fill="#93998f" d="M 77.796875 231.066406 L 75.304688 231.066406 C 74.539062 231.066406 73.910156 231.691406 73.910156 232.457031 C 73.910156 233.226562 74.539062 233.851562 75.304688 233.851562 L 77.796875 233.851562 C 78.5625 233.851562 79.191406 233.226562 79.191406 232.457031 C 79.191406 231.691406 78.5625 231.066406 77.796875 231.066406 " fill-opacity="1" fill-rule="evenodd"/><path fill="#93998f" d="M 69.28125 231.066406 L 66.792969 231.066406 C 66.023438 231.066406 65.394531 231.691406 65.394531 232.457031 C 65.394531 233.226562 66.023438 233.851562 66.792969 233.851562 L 69.28125 233.851562 C 70.046875 233.851562 70.671875 233.226562 70.671875 232.457031 C 70.671875 231.691406 70.046875 231.066406 69.28125 231.066406 " fill-opacity="1" fill-rule="evenodd"/><path fill="#93998f" d="M 60.765625 231.066406 L 58.277344 231.066406 C 57.507812 231.066406 56.882812 231.691406 56.882812 232.457031 C 56.882812 233.226562 57.507812 233.851562 58.277344 233.851562 L 60.765625 233.851562 C 61.53125 233.851562 62.160156 233.226562 62.160156 232.457031 C 62.160156 231.691406 61.53125 231.066406 60.765625 231.066406 " fill-opacity="1" fill-rule="evenodd"/><path fill="#93998f" d="M 266.992188 231.066406 L 264.503906 231.066406 C 263.738281 231.066406 263.109375 231.691406 263.109375 232.457031 C 263.109375 233.226562 263.738281 233.851562 264.503906 233.851562 L 266.992188 233.851562 C 267.761719 233.851562 268.386719 233.226562 268.386719 232.457031 C 268.386719 231.691406 267.761719 231.066406 266.992188 231.066406 " fill-opacity="1" fill-rule="evenodd"/><path fill="#93998f" d="M 258.476562 231.066406 L 255.988281 231.066406 C 255.222656 231.066406 254.59375 231.691406 254.59375 232.457031 C 254.59375 233.226562 255.222656 233.851562 255.988281 233.851562 L 258.476562 233.851562 C 259.246094 233.851562 259.875 233.226562 259.875 232.457031 C 259.875 231.691406 259.246094 231.066406 258.476562 231.066406 " fill-opacity="1" fill-rule="evenodd"/><path fill="#93998f" d="M 249.960938 231.066406 L 247.472656 231.066406 C 246.703125 231.066406 246.082031 231.691406 246.082031 232.457031 C 246.082031 233.226562 246.703125 233.851562 247.472656 233.851562 L 249.960938 233.851562 C 250.730469 233.851562 251.359375 233.226562 251.359375 232.457031 C 251.359375 231.691406 250.730469 231.066406 249.960938 231.066406 " fill-opacity="1" fill-rule="evenodd"/><path fill="#93998f" d="M 241.449219 231.066406 L 238.957031 231.066406 C 238.191406 231.066406 237.566406 231.691406 237.566406 232.457031 C 237.566406 233.226562 238.191406 233.851562 238.957031 233.851562 L 241.449219 233.851562 C 242.214844 233.851562 242.84375 233.226562 242.84375 232.457031 C 242.84375 231.691406 242.214844 231.066406 241.449219 231.066406 " fill-opacity="1" fill-rule="evenodd"/><path fill="#93998f" d="M 232.933594 231.066406 L 230.441406 231.066406 C 229.675781 231.066406 229.046875 231.691406 229.046875 232.457031 C 229.046875 233.226562 229.675781 233.851562 230.441406 233.851562 L 232.933594 233.851562 C 233.703125 233.851562 234.324219 233.226562 234.324219 232.457031 C 234.324219 231.691406 233.703125 231.066406 232.933594 231.066406 " fill-opacity="1" fill-rule="evenodd"/><path fill="#93998f" d="M 224.417969 231.066406 L 221.929688 231.066406 C 221.160156 231.066406 220.53125 231.691406 220.53125 232.457031 C 220.53125 233.226562 221.160156 233.851562 221.929688 233.851562 L 224.417969 233.851562 C 225.1875 233.851562 225.808594 233.226562 225.808594 232.457031 C 225.808594 231.691406 225.1875 231.066406 224.417969 231.066406 " fill-opacity="1" fill-rule="evenodd"/><path fill="#93998f" d="M 215.902344 231.066406 L 213.414062 231.066406 C 212.644531 231.066406 212.019531 231.691406 212.019531 232.457031 C 212.019531 233.226562 212.644531 233.851562 213.414062 233.851562 L 215.902344 233.851562 C 216.667969 233.851562 217.296875 233.226562 217.296875 232.457031 C 217.296875 231.691406 216.667969 231.066406 215.902344 231.066406 " fill-opacity="1" fill-rule="evenodd"/><path fill="#93998f" d="M 207.386719 231.066406 L 204.898438 231.066406 C 204.128906 231.066406 203.503906 231.691406 203.503906 232.457031 C 203.503906 233.226562 204.128906 233.851562 204.898438 233.851562 L 207.386719 233.851562 C 208.152344 233.851562 208.78125 233.226562 208.78125 232.457031 C 208.78125 231.691406 208.152344 231.066406 207.386719 231.066406 " fill-opacity="1" fill-rule="evenodd"/><path fill="#93998f" d="M 198.875 231.066406 L 196.378906 231.066406 C 195.613281 231.066406 194.988281 231.691406 194.988281 232.457031 C 194.988281 233.226562 195.613281 233.851562 196.378906 233.851562 L 198.875 233.851562 C 199.640625 233.851562 200.265625 233.226562 200.265625 232.457031 C 200.265625 231.691406 199.640625 231.066406 198.875 231.066406 " fill-opacity="1" fill-rule="evenodd"/><path fill="#93998f" d="M 190.359375 231.066406 L 187.867188 231.066406 C 187.101562 231.066406 186.472656 231.691406 186.472656 232.457031 C 186.472656 233.226562 187.101562 233.851562 187.867188 233.851562 L 190.359375 233.851562 C 191.125 233.851562 191.75 233.226562 191.75 232.457031 C 191.75 231.691406 191.125 231.066406 190.359375 231.066406 " fill-opacity="1" fill-rule="evenodd"/><path fill="#d0a816" d="M 319.882812 248.675781 L 243.085938 248.675781 C 241.632812 248.675781 240.445312 249.867188 240.445312 251.320312 L 240.445312 273.542969 C 240.445312 274.996094 241.632812 276.1875 243.085938 276.1875 L 251.550781 276.1875 C 251.40625 275.523438 251.328125 274.839844 251.328125 274.136719 C 251.328125 268.902344 255.570312 264.652344 260.808594 264.652344 C 266.042969 264.652344 270.285156 268.902344 270.285156 274.136719 C 270.285156 274.839844 270.207031 275.523438 270.0625 276.1875 L 294.191406 276.1875 C 294.046875 275.523438 293.96875 274.839844 293.96875 274.136719 C 293.96875 268.902344 298.210938 264.652344 303.449219 264.652344 C 308.683594 264.652344 312.925781 268.902344 312.925781 274.136719 C 312.925781 274.839844 312.851562 275.523438 312.703125 276.1875 L 333.535156 276.1875 C 334.992188 276.1875 336.179688 274.996094 336.179688 273.542969 C 336.179688 272.148438 335.066406 270.4375 334.03125 268.335938 C 331.152344 262.492188 330.785156 248.675781 319.882812 248.675781 " fill-opacity="1" fill-rule="evenodd"/><path fill="#ed1c24" d="M 240.445312 256.84375 L 240.445312 263.949219 C 240.960938 264.226562 241.554688 264.386719 242.179688 264.386719 C 244.203125 264.386719 245.855469 262.734375 245.855469 260.714844 L 245.855469 260.078125 C 245.855469 258.058594 244.203125 256.40625 242.179688 256.40625 C 241.554688 256.40625 240.960938 256.5625 240.445312 256.84375 " fill-opacity="1" fill-rule="evenodd"/><path fill="#faed19" d="M 301.144531 232.40625 C 298.957031 232.40625 296.769531 232.40625 294.582031 232.40625 C 289.574219 232.40625 291.152344 235.808594 293.210938 238.273438 L 301.898438 248.675781 L 319.882812 248.675781 C 321.488281 248.675781 321.398438 248.164062 320.238281 247.035156 L 307.476562 234.59375 C 305.023438 232.199219 304.601562 232.40625 301.144531 232.40625 " fill-opacity="1" fill-rule="evenodd"/><path fill="#85d8f7" d="M 302.601562 235.242188 C 301.273438 235.242188 299.941406 235.242188 298.613281 235.242188 C 295.863281 235.242188 296.363281 237.308594 297.738281 238.929688 L 306.007812 248.675781 L 319.039062 248.675781 L 307.773438 237.363281 C 305.695312 235.273438 305.554688 235.242188 302.601562 235.242188 " fill-opacity="1" fill-rule="evenodd"/><path fill="#122126" d="M 303.449219 266.664062 C 299.324219 266.664062 295.980469 270.011719 295.980469 274.136719 C 295.980469 278.261719 299.324219 281.609375 303.449219 281.609375 C 307.574219 281.609375 310.921875 278.261719 310.921875 274.136719 C 310.921875 270.011719 307.574219 266.664062 303.449219 266.664062 " fill-opacity="1" fill-rule="evenodd"/><path fill="#6b8095" d="M 303.449219 270.011719 C 301.171875 270.011719 299.324219 271.859375 299.324219 274.136719 C 299.324219 276.414062 301.171875 278.261719 303.449219 278.261719 C 305.726562 278.261719 307.574219 276.414062 307.574219 274.136719 C 307.574219 271.859375 305.726562 270.011719 303.449219 270.011719 " fill-opacity="1" fill-rule="evenodd"/><path fill="#91dbe3" d="M 303.449219 272.371094 C 302.476562 272.371094 301.683594 273.164062 301.683594 274.136719 C 301.683594 275.109375 302.476562 275.902344 303.449219 275.902344 C 304.421875 275.902344 305.210938 275.109375 305.210938 274.136719 C 305.210938 273.164062 304.421875 272.371094 303.449219 272.371094 " fill-opacity="1" fill-rule="evenodd"/><path fill="#122126" d="M 260.871094 266.664062 C 256.746094 266.664062 253.398438 270.011719 253.398438 274.136719 C 253.398438 278.261719 256.746094 281.609375 260.871094 281.609375 C 264.992188 281.609375 268.339844 278.261719 268.339844 274.136719 C 268.339844 270.011719 264.992188 266.664062 260.871094 266.664062 " fill-opacity="1" fill-rule="evenodd"/><path fill="#6b8095" d="M 260.871094 270.011719 C 258.59375 270.011719 256.746094 271.859375 256.746094 274.136719 C 256.746094 276.414062 258.59375 278.261719 260.871094 278.261719 C 263.148438 278.261719 264.992188 276.414062 264.992188 274.136719 C 264.992188 271.859375 263.148438 270.011719 260.871094 270.011719 " fill-opacity="1" fill-rule="evenodd"/><path fill="#91dbe3" d="M 260.871094 272.371094 C 259.898438 272.371094 259.109375 273.164062 259.109375 274.136719 C 259.109375 275.109375 259.898438 275.902344 260.871094 275.902344 C 261.84375 275.902344 262.632812 275.109375 262.632812 274.136719 C 262.632812 273.164062 261.84375 272.371094 260.871094 272.371094 " fill-opacity="1" fill-rule="evenodd"/><path fill="#d8ecf7" d="M 240.445312 263.949219 L 240.445312 267.382812 L 243.238281 267.382812 L 243.238281 264.230469 C 242.902344 264.332031 242.546875 264.386719 242.179688 264.386719 C 241.554688 264.386719 240.960938 264.226562 240.445312 263.949219 " fill-opacity="1" fill-rule="evenodd"/><path fill="#dba614" d="M 271.914062 248.675781 L 273.636719 248.675781 L 273.636719 264.015625 L 271.914062 264.015625 Z M 271.914062 248.675781 " fill-opacity="1" fill-rule="evenodd"/><path fill="#e6cf7d" d="M 277.570312 255.539062 L 283.132812 255.539062 L 283.132812 253.277344 L 277.570312 253.277344 Z M 277.570312 255.539062 " fill-opacity="1" fill-rule="nonzero"/><path fill="#e6cf7d" d="M 318.328125 261.769531 L 273.636719 261.769531 L 273.636719 257.140625 L 316.015625 257.140625 C 317.289062 257.140625 318.328125 258.183594 318.328125 259.457031 L 318.328125 261.769531 M 271.914062 261.769531 L 246.921875 261.769531 L 246.921875 257.140625 L 271.914062 257.140625 L 271.914062 261.769531 " fill-opacity="1" fill-rule="nonzero"/><path fill="#edce7b" d="M 271.914062 261.769531 L 273.636719 261.769531 L 273.636719 257.140625 L 271.914062 257.140625 Z M 271.914062 261.769531 " fill-opacity="1" fill-rule="nonzero"/><path fill="#faed19" d="M 322.339844 253.285156 C 319.632812 255.332031 319.773438 260.089844 322.65625 263.90625 C 325.539062 267.71875 330.074219 269.15625 332.785156 267.105469 C 332.976562 266.960938 333.15625 266.800781 333.320312 266.625 C 331.917969 262.703125 330.929688 256.921875 328.136719 252.984375 C 326.042969 252.082031 323.890625 252.113281 322.339844 253.285156 " fill-opacity="1" fill-rule="evenodd"/><path fill="#bb5524" d="M 331.972656 262.222656 C 331.5625 260.804688 331.125 259.324219 330.597656 257.894531 C 328.808594 255.535156 326.003906 254.648438 324.328125 255.917969 C 322.648438 257.1875 322.738281 260.128906 324.523438 262.492188 C 326.308594 264.855469 329.121094 265.746094 330.796875 264.476562 C 331.484375 263.953125 331.875 263.152344 331.972656 262.222656 " fill-opacity="1" fill-rule="evenodd"/><path fill="#edf9f9" d="M 326.066406 258.214844 C 325.289062 258.800781 325.332031 260.164062 326.15625 261.257812 C 326.984375 262.351562 328.28125 262.761719 329.058594 262.175781 C 329.832031 261.589844 329.792969 260.226562 328.96875 259.132812 C 328.140625 258.039062 326.839844 257.628906 326.066406 258.214844 " fill-opacity="1" fill-rule="evenodd"/><path fill="#d85926" d="M 284.179688 241.53125 C 283.3125 241.53125 282.597656 242.246094 282.597656 243.117188 L 282.597656 248.675781 L 290.878906 248.675781 L 284.179688 241.53125 " fill-opacity="1" fill-rule="evenodd"/><path fill="#bb5324" d="M 255.339844 241.53125 C 254.46875 241.53125 253.757812 242.246094 253.757812 243.117188 L 253.757812 248.675781 L 262.039062 248.675781 L 255.339844 241.53125 " fill-opacity="1" fill-rule="evenodd"/><path fill="#872125" d="M 252.179688 243.230469 C 253.046875 243.230469 253.757812 243.773438 253.757812 244.433594 L 253.757812 248.675781 L 245.476562 248.675781 L 252.179688 243.230469 " fill-opacity="1" fill-rule="evenodd"/><path fill="#639933" d="M 60.328125 159.539062 C 68.773438 159.539062 75.660156 152.648438 75.660156 144.199219 C 75.660156 135.75 68.773438 128.859375 60.328125 128.859375 C 51.878906 128.859375 44.992188 135.75 44.992188 144.199219 C 44.992188 152.648438 51.878906 159.539062 60.328125 159.539062 " fill-opacity="1" fill-rule="evenodd"/><path fill="#8fd34e" d="M 57.609375 134.15625 C 61.5 134.15625 64.667969 130.984375 64.667969 127.097656 C 64.667969 123.207031 61.5 120.039062 57.609375 120.039062 C 53.726562 120.039062 50.554688 123.207031 50.554688 127.097656 C 50.554688 130.984375 53.726562 134.15625 57.609375 134.15625 " fill-opacity="1" fill-rule="evenodd"/><path fill="#75b63d" d="M 65.210938 142.027344 C 69.84375 142.027344 73.628906 138.246094 73.628906 133.609375 C 73.628906 128.976562 69.84375 125.195312 65.210938 125.195312 C 60.578125 125.195312 56.796875 128.976562 56.796875 133.609375 C 56.796875 138.246094 60.578125 142.027344 65.210938 142.027344 " fill-opacity="1" fill-rule="evenodd"/><path fill="#8fd350" d="M 52.722656 163.480469 C 57.957031 163.480469 62.226562 159.207031 62.226562 153.972656 C 62.226562 148.742188 57.957031 144.472656 52.722656 144.472656 C 47.492188 144.472656 43.226562 148.742188 43.226562 153.972656 C 43.226562 159.207031 47.492188 163.480469 52.722656 163.480469 " fill-opacity="1" fill-rule="evenodd"/><path fill="#8d3a27" d="M 66.964844 158.035156 L 66.964844 163.078125 C 66.964844 164.054688 66.164062 164.855469 65.1875 164.855469 L 61.207031 164.855469 L 61.207031 196.285156 C 61.207031 196.773438 60.8125 197.167969 60.328125 197.167969 C 59.839844 197.167969 59.441406 196.773438 59.441406 196.285156 L 59.441406 174.554688 L 55.28125 174.554688 C 54.304688 174.554688 53.503906 173.757812 53.503906 172.78125 L 53.503906 163.445312 L 53.527344 163.441406 L 53.648438 163.429688 L 53.738281 163.425781 L 53.757812 163.421875 L 53.804688 163.414062 L 53.871094 163.410156 L 53.980469 163.394531 L 54.125 163.375 L 54.195312 163.363281 L 54.214844 163.359375 L 54.242188 163.355469 L 54.261719 163.351562 L 54.332031 163.34375 L 54.351562 163.335938 L 54.441406 163.320312 L 54.464844 163.320312 L 54.53125 163.304688 L 54.558594 163.300781 L 54.578125 163.296875 L 54.601562 163.292969 L 54.667969 163.277344 L 54.691406 163.273438 L 54.734375 163.261719 L 54.804688 163.25 L 54.9375 163.21875 L 54.957031 163.214844 L 54.957031 171.265625 C 54.957031 172.242188 55.757812 173.042969 56.734375 173.042969 L 59.441406 173.042969 L 59.441406 160.691406 C 59.800781 160.335938 60.128906 159.949219 60.425781 159.539062 C 60.6875 159.539062 60.945312 159.53125 61.207031 159.515625 L 61.207031 163.34375 L 63.730469 163.34375 C 64.707031 163.34375 65.507812 162.542969 65.507812 161.566406 L 65.507812 158.640625 L 65.53125 158.632812 L 65.671875 158.582031 L 65.71875 158.566406 L 65.738281 158.554688 L 65.832031 158.519531 L 65.855469 158.511719 L 65.878906 158.5 L 66.027344 158.445312 L 66.222656 158.367188 L 66.246094 158.355469 L 66.332031 158.316406 C 66.425781 158.277344 66.515625 158.238281 66.609375 158.199219 L 66.628906 158.1875 L 66.648438 158.179688 L 66.652344 158.179688 L 66.675781 158.167969 C 66.769531 158.125 66.863281 158.078125 66.960938 158.035156 L 66.964844 158.035156 " fill-opacity="1" fill-rule="evenodd"/><path fill="#639933" d="M 141.546875 259.1875 C 149.992188 259.1875 156.882812 252.296875 156.882812 243.847656 C 156.882812 235.402344 149.992188 228.507812 141.546875 228.507812 C 133.097656 228.507812 126.210938 235.402344 126.210938 243.847656 C 126.210938 252.296875 133.097656 259.1875 141.546875 259.1875 " fill-opacity="1" fill-rule="evenodd"/><path fill="#8fd34e" d="M 138.832031 233.800781 C 142.71875 233.800781 145.890625 230.632812 145.890625 226.746094 C 145.890625 222.855469 142.71875 219.683594 138.832031 219.683594 C 134.945312 219.683594 131.777344 222.855469 131.777344 226.746094 C 131.777344 230.632812 134.945312 233.800781 138.832031 233.800781 " fill-opacity="1" fill-rule="evenodd"/><path fill="#75b63d" d="M 146.433594 241.675781 C 151.066406 241.675781 154.847656 237.898438 154.847656 233.261719 C 154.847656 228.625 151.066406 224.84375 146.433594 224.84375 C 141.796875 224.84375 138.019531 228.625 138.019531 233.261719 C 138.019531 237.898438 141.796875 241.675781 146.433594 241.675781 " fill-opacity="1" fill-rule="evenodd"/><path fill="#8fd350" d="M 133.945312 263.125 C 139.179688 263.125 143.445312 258.855469 143.445312 253.621094 C 143.445312 248.386719 139.179688 244.121094 133.945312 244.121094 C 128.714844 244.121094 124.445312 248.386719 124.445312 253.621094 C 124.445312 258.855469 128.714844 263.125 133.945312 263.125 " fill-opacity="1" fill-rule="evenodd"/><path fill="#8d3a27" d="M 148.183594 257.679688 L 148.183594 262.726562 C 148.183594 263.703125 147.386719 264.503906 146.410156 264.503906 L 142.429688 264.503906 L 142.429688 295.933594 C 142.429688 296.421875 142.03125 296.816406 141.546875 296.816406 C 141.0625 296.816406 140.664062 296.421875 140.664062 295.933594 L 140.664062 274.203125 L 136.5 274.203125 C 135.523438 274.203125 134.722656 273.402344 134.722656 272.429688 L 134.722656 263.09375 L 134.746094 263.089844 L 134.871094 263.078125 L 134.957031 263.070312 L 134.980469 263.070312 L 135.027344 263.066406 L 135.09375 263.054688 L 135.117188 263.050781 L 135.203125 263.042969 L 135.34375 263.023438 L 135.347656 263.023438 L 135.417969 263.011719 L 135.4375 263.007812 L 135.484375 263 L 135.550781 262.988281 L 135.574219 262.984375 L 135.664062 262.972656 L 135.6875 262.964844 L 135.753906 262.953125 L 135.824219 262.941406 L 135.890625 262.925781 L 135.910156 262.917969 L 135.933594 262.917969 L 135.957031 262.910156 L 135.980469 262.90625 L 136 262.902344 L 136.027344 262.894531 L 136.160156 262.867188 L 136.179688 262.859375 L 136.179688 270.914062 C 136.179688 271.890625 136.976562 272.691406 137.953125 272.691406 L 140.664062 272.691406 L 140.664062 260.339844 C 141.023438 259.984375 141.347656 259.597656 141.648438 259.1875 C 141.910156 259.1875 142.167969 259.179688 142.429688 259.164062 L 142.429688 262.988281 L 144.953125 262.988281 C 145.929688 262.988281 146.730469 262.191406 146.730469 261.214844 L 146.730469 258.289062 L 146.753906 258.28125 L 146.890625 258.230469 L 146.914062 258.222656 L 146.941406 258.214844 L 146.960938 258.203125 L 147.054688 258.167969 L 147.078125 258.160156 L 147.101562 258.148438 L 147.246094 258.09375 L 147.441406 258.011719 L 147.46875 258.003906 L 147.554688 257.964844 C 147.644531 257.925781 147.738281 257.886719 147.828125 257.847656 L 147.871094 257.828125 L 147.894531 257.816406 C 147.992188 257.773438 148.085938 257.726562 148.183594 257.683594 L 148.183594 257.679688 " fill-opacity="1" fill-rule="evenodd"/><g clip-path="url(#id3)"><path fill="#639933" d="M 376.039062 175.9375 C 384.484375 175.9375 391.375 169.042969 391.375 160.59375 C 391.375 152.144531 384.484375 145.253906 376.039062 145.253906 C 367.589844 145.253906 360.703125 152.144531 360.703125 160.59375 C 360.703125 169.042969 367.589844 175.9375 376.039062 175.9375 " fill-opacity="1" fill-rule="evenodd"/></g><path fill="#8fd34e" d="M 373.324219 150.550781 C 377.210938 150.550781 380.378906 147.378906 380.378906 143.492188 C 380.378906 139.601562 377.210938 136.433594 373.324219 136.433594 C 369.4375 136.433594 366.265625 139.601562 366.265625 143.492188 C 366.265625 147.378906 369.4375 150.550781 373.324219 150.550781 " fill-opacity="1" fill-rule="evenodd"/><path fill="#75b63d" d="M 380.925781 158.421875 C 385.558594 158.421875 389.339844 154.640625 389.339844 150.003906 C 389.339844 145.371094 385.558594 141.589844 380.925781 141.589844 C 376.289062 141.589844 372.511719 145.371094 372.511719 150.003906 C 372.511719 154.640625 376.289062 158.421875 380.925781 158.421875 " fill-opacity="1" fill-rule="evenodd"/><path fill="#8fd350" d="M 368.4375 179.875 C 373.671875 179.875 377.9375 175.605469 377.9375 170.367188 C 377.9375 165.132812 373.671875 160.867188 368.4375 160.867188 C 363.207031 160.867188 358.9375 165.132812 358.9375 170.367188 C 358.9375 175.605469 363.207031 179.875 368.4375 179.875 " fill-opacity="1" fill-rule="evenodd"/><path fill="#8d3a27" d="M 382.675781 174.429688 L 382.675781 179.472656 C 382.675781 180.453125 381.878906 181.25 380.898438 181.25 L 376.921875 181.25 L 376.921875 212.679688 C 376.921875 213.167969 376.523438 213.5625 376.039062 213.5625 C 375.554688 213.5625 375.15625 213.167969 375.15625 212.679688 L 375.15625 190.949219 L 370.992188 190.949219 C 370.015625 190.949219 369.214844 190.152344 369.214844 189.175781 L 369.214844 179.839844 L 369.242188 179.835938 L 369.363281 179.824219 L 369.449219 179.820312 L 369.472656 179.816406 L 369.492188 179.8125 L 369.519531 179.808594 L 369.585938 179.804688 L 369.609375 179.796875 L 369.691406 179.789062 L 369.835938 179.769531 L 369.839844 179.769531 L 369.863281 179.765625 L 369.90625 179.757812 L 369.953125 179.753906 L 369.976562 179.746094 L 370.046875 179.734375 L 370.066406 179.730469 L 370.15625 179.714844 L 370.179688 179.714844 L 370.246094 179.699219 L 370.316406 179.6875 L 370.382812 179.671875 L 370.402344 179.667969 L 370.449219 179.660156 L 370.472656 179.652344 L 370.496094 179.648438 L 370.515625 179.644531 L 370.648438 179.613281 L 370.671875 179.609375 L 370.671875 187.664062 C 370.671875 188.636719 371.472656 189.4375 372.449219 189.4375 L 375.15625 189.4375 L 375.15625 177.085938 C 375.511719 176.730469 375.839844 176.347656 376.136719 175.9375 C 376.398438 175.933594 376.660156 175.925781 376.921875 175.910156 L 376.921875 179.738281 L 379.445312 179.738281 C 380.421875 179.738281 381.222656 178.9375 381.222656 177.960938 L 381.222656 175.035156 L 381.246094 175.027344 L 381.382812 174.976562 L 381.410156 174.96875 L 381.429688 174.960938 L 381.453125 174.949219 L 381.546875 174.917969 L 381.566406 174.90625 L 381.59375 174.898438 L 381.738281 174.839844 L 381.9375 174.761719 L 381.960938 174.75 L 382.046875 174.710938 C 382.136719 174.671875 382.226562 174.632812 382.320312 174.59375 L 382.34375 174.582031 L 382.386719 174.5625 C 382.480469 174.519531 382.578125 174.472656 382.671875 174.429688 L 382.675781 174.429688 " fill-opacity="1" fill-rule="evenodd"/><g clip-path="url(#id4)"><path fill="#66ccce" d="M 141.9375 0.152344 C 153.769531 0.152344 163.722656 8.015625 166.617188 18.679688 C 167.121094 18.644531 167.625 18.621094 168.136719 18.621094 C 179.847656 18.621094 189.34375 28.121094 189.34375 39.835938 C 189.34375 51.546875 179.847656 61.046875 168.136719 61.046875 C 161.183594 61.046875 155.011719 57.699219 151.144531 52.527344 C 148.960938 53.648438 146.480469 54.28125 143.855469 54.28125 C 139.621094 54.28125 135.773438 52.636719 132.914062 49.945312 C 129.464844 55.15625 123.609375 58.585938 116.964844 58.585938 C 109.632812 58.585938 103.261719 54.410156 100.023438 48.273438 C 98.003906 49.734375 95.523438 50.59375 92.839844 50.59375 C 86.046875 50.59375 80.542969 45.085938 80.542969 38.296875 C 80.542969 31.507812 86.046875 26.003906 92.839844 26.003906 C 95.796875 26.003906 98.511719 27.046875 100.632812 28.789062 C 104.023438 23.242188 110.066406 19.546875 116.964844 19.546875 L 117.035156 19.546875 C 119.613281 8.445312 129.785156 0.152344 141.9375 0.152344 " fill-opacity="1" fill-rule="evenodd"/></g><path fill="#ffffff" d="M 166.554688 27.617188 C 174.101562 27.617188 180.445312 32.625 182.289062 39.425781 C 182.613281 39.402344 182.933594 39.386719 183.261719 39.386719 C 190.726562 39.386719 196.78125 45.445312 196.78125 52.914062 C 196.78125 60.382812 190.726562 66.4375 183.261719 66.4375 C 178.828125 66.4375 174.894531 64.304688 172.425781 61.003906 C 171.03125 61.71875 169.453125 62.125 167.78125 62.125 C 165.078125 62.125 162.625 61.074219 160.800781 59.359375 C 158.605469 62.679688 154.871094 64.871094 150.636719 64.871094 C 145.960938 64.871094 141.898438 62.207031 139.832031 58.292969 C 138.546875 59.222656 136.964844 59.773438 135.25 59.773438 C 130.925781 59.773438 127.414062 56.261719 127.414062 51.933594 C 127.414062 47.605469 130.925781 44.089844 135.25 44.089844 C 137.136719 44.089844 138.867188 44.761719 140.222656 45.871094 C 142.382812 42.335938 146.238281 39.976562 150.636719 39.976562 L 150.679688 39.980469 C 152.328125 32.902344 158.808594 27.617188 166.554688 27.617188 " fill-opacity="1" fill-rule="evenodd"/><path fill="#66ccce" d="M 298.558594 71.160156 C 291.996094 71.160156 286.480469 75.519531 284.871094 81.433594 C 284.59375 81.414062 284.316406 81.402344 284.027344 81.402344 C 277.535156 81.402344 272.265625 86.671875 272.265625 93.167969 C 272.265625 99.660156 277.535156 104.929688 284.027344 104.929688 C 287.886719 104.929688 291.308594 103.074219 293.453125 100.207031 C 294.664062 100.828125 296.039062 101.179688 297.496094 101.179688 C 299.84375 101.179688 301.976562 100.265625 303.566406 98.773438 C 305.480469 101.664062 308.726562 103.566406 312.414062 103.566406 C 316.476562 103.566406 320.011719 101.253906 321.808594 97.847656 C 322.929688 98.65625 324.304688 99.132812 325.792969 99.132812 C 329.554688 99.132812 332.609375 96.078125 332.609375 92.3125 C 332.609375 88.546875 329.554688 85.496094 325.792969 85.496094 C 324.152344 85.496094 322.644531 86.074219 321.46875 87.039062 C 319.589844 83.960938 316.238281 81.914062 312.414062 81.914062 L 312.371094 81.914062 C 310.941406 75.757812 305.300781 71.160156 298.558594 71.160156 " fill-opacity="1" fill-rule="evenodd"/><path fill="#ffffff" d="M 284.90625 86.390625 C 280.722656 86.390625 277.203125 89.167969 276.179688 92.9375 C 276 92.925781 275.824219 92.917969 275.640625 92.917969 C 271.5 92.917969 268.144531 96.277344 268.144531 100.421875 C 268.144531 104.5625 271.5 107.921875 275.640625 107.921875 C 278.097656 107.921875 280.28125 106.738281 281.648438 104.90625 C 282.421875 105.304688 283.300781 105.53125 284.226562 105.53125 C 285.726562 105.53125 287.085938 104.945312 288.097656 103.996094 C 289.316406 105.839844 291.390625 107.050781 293.738281 107.050781 C 296.328125 107.050781 298.582031 105.574219 299.726562 103.40625 C 300.441406 103.921875 301.320312 104.226562 302.265625 104.226562 C 304.667969 104.226562 306.617188 102.277344 306.617188 99.875 C 306.617188 97.476562 304.667969 95.527344 302.265625 95.527344 C 301.222656 95.527344 300.261719 95.898438 299.511719 96.511719 C 298.3125 94.554688 296.175781 93.246094 293.738281 93.246094 L 293.710938 93.246094 C 292.800781 89.320312 289.203125 86.390625 284.90625 86.390625 " fill-opacity="1" fill-rule="evenodd"/><path fill="#fde27c" d="M 308.167969 193.886719 L 162.601562 193.886719 L 162.601562 187.625 C 162.601562 186.375 161.585938 185.359375 160.339844 185.359375 L 159.308594 185.359375 C 157.226562 176.824219 148.851562 166.011719 140.8125 166.011719 L 111.449219 166.011719 C 121.300781 121.335938 161.125 87.902344 208.746094 87.902344 C 263.761719 87.902344 308.375 132.53125 308.375 187.5625 C 308.375 189.6875 308.300781 191.792969 308.167969 193.886719 M 155.863281 185.359375 L 142.917969 185.359375 L 142.917969 169.132812 C 148.605469 171.613281 154.785156 179.042969 155.863281 185.359375 M 139.660156 185.359375 L 109.132812 185.359375 C 109.253906 179.902344 109.8125 174.542969 110.773438 169.332031 L 139.660156 169.332031 L 139.660156 185.359375 " fill-opacity="1" fill-rule="nonzero"/><path fill="#ef3520" d="M 142.917969 169.132812 C 148.605469 171.613281 154.785156 179.042969 155.863281 185.359375 L 142.917969 185.359375 L 142.917969 169.132812 M 139.660156 169.332031 L 139.660156 185.359375 L 105.214844 185.359375 L 105.214844 169.332031 L 139.660156 169.332031 M 160.339844 185.359375 L 159.308594 185.359375 C 157.226562 176.824219 148.851562 166.011719 140.8125 166.011719 L 99.757812 166.011719 L 99.757812 168.113281 L 101.011719 168.113281 L 100.898438 185.359375 L 84.808594 185.359375 C 71.761719 185.359375 66.488281 211.695312 73.894531 211.695312 L 91.164062 211.695312 C 90.996094 210.988281 90.90625 210.246094 90.90625 209.484375 C 90.90625 204.167969 95.21875 199.851562 100.539062 199.851562 C 105.851562 199.851562 110.164062 204.167969 110.164062 209.484375 C 110.164062 210.246094 110.078125 210.988281 109.910156 211.695312 L 134.152344 211.695312 C 133.984375 210.988281 133.894531 210.246094 133.894531 209.484375 C 133.894531 204.167969 138.207031 199.851562 143.523438 199.851562 C 148.84375 199.851562 153.152344 204.167969 153.152344 209.484375 C 153.152344 210.246094 153.066406 210.988281 152.898438 211.695312 L 160.339844 211.695312 C 161.585938 211.695312 162.601562 210.679688 162.601562 209.433594 L 162.601562 187.625 C 162.601562 186.375 161.585938 185.359375 160.339844 185.359375 " fill-opacity="1" fill-rule="evenodd"/><path fill="#bc232a" d="M 151.613281 204.261719 C 152.589844 205.769531 153.152344 207.558594 153.152344 209.484375 C 153.152344 210.246094 153.066406 210.988281 152.898438 211.695312 L 160.339844 211.695312 C 161.585938 211.695312 162.601562 210.679688 162.601562 209.433594 L 162.601562 204.261719 Z M 108.628906 204.261719 C 109.601562 205.769531 110.164062 207.558594 110.164062 209.484375 C 110.164062 210.246094 110.078125 210.988281 109.910156 211.695312 L 134.152344 211.695312 C 133.984375 210.988281 133.894531 210.246094 133.894531 209.484375 C 133.894531 207.558594 134.460938 205.769531 135.433594 204.261719 Z M 70.566406 204.261719 C 70.261719 208.464844 71.296875 211.695312 73.894531 211.695312 L 91.164062 211.695312 C 90.996094 210.988281 90.90625 210.246094 90.90625 209.484375 C 90.90625 207.558594 91.472656 205.769531 92.445312 204.261719 L 70.566406 204.261719 " fill-opacity="1" fill-rule="evenodd"/><path fill="#f9e919" d="M 78.796875 187.425781 C 75.601562 189.765625 73.246094 193.785156 71.882812 197.894531 C 72.113281 199.335938 72.746094 200.5625 73.773438 201.292969 C 76.160156 202.996094 79.746094 201.421875 81.785156 197.777344 C 83.820312 194.136719 83.539062 189.804688 81.15625 188.105469 C 80.453125 187.601562 79.640625 187.386719 78.796875 187.425781 " fill-opacity="1" fill-rule="evenodd"/><path fill="#e3eb24" d="M 70.589844 203.992188 C 70.476562 205.328125 70.492188 206.570312 70.648438 207.652344 L 74.839844 207.652344 C 75.847656 207.652344 76.667969 206.828125 76.667969 205.820312 C 76.667969 204.816406 75.847656 203.992188 74.839844 203.992188 L 70.589844 203.992188 " fill-opacity="1" fill-rule="evenodd"/><path fill="#f68920" d="M 162.601562 201.707031 L 162.601562 196.78125 C 162.304688 196.621094 161.964844 196.53125 161.605469 196.53125 L 160.972656 196.53125 C 159.804688 196.53125 158.847656 197.484375 158.847656 198.660156 L 158.847656 199.828125 C 158.847656 201 159.804688 201.957031 160.972656 201.957031 L 161.605469 201.957031 C 161.964844 201.957031 162.304688 201.867188 162.601562 201.707031 " fill-opacity="1" fill-rule="evenodd"/><path fill="#8cd9dc" d="M 139.660156 169.332031 L 105.214844 169.332031 L 105.214844 185.359375 L 139.660156 185.359375 L 139.660156 169.332031 " fill-opacity="1" fill-rule="evenodd"/><path fill="#8fdadc" d="M 142.917969 169.132812 C 148.605469 171.613281 154.785156 179.042969 155.863281 185.359375 L 142.917969 185.359375 L 142.917969 169.132812 " fill-opacity="1" fill-rule="evenodd"/><path fill="#254872" d="M 155.4375 183.574219 C 155.621094 184.179688 155.765625 184.773438 155.863281 185.359375 L 142.917969 185.359375 L 142.917969 183.574219 L 155.4375 183.574219 " fill-opacity="1" fill-rule="evenodd"/><path fill="#254872" d="M 139.660156 183.574219 L 105.214844 183.574219 L 105.214844 185.359375 L 139.660156 185.359375 L 139.660156 183.574219 " fill-opacity="1" fill-rule="evenodd"/><path fill="#c2eae6" d="M 124.878906 169.332031 L 118.4375 169.332031 L 118.4375 183.574219 L 124.878906 183.574219 L 124.878906 169.332031 " fill-opacity="1" fill-rule="evenodd"/><path fill="#cceef0" d="M 114.570312 169.332031 L 113.011719 169.332031 L 113.011719 183.574219 L 114.570312 183.574219 L 114.570312 169.332031 " fill-opacity="1" fill-rule="evenodd"/><path fill="#cceeee" d="M 127.660156 169.332031 L 126.507812 169.332031 L 126.507812 183.574219 L 127.660156 183.574219 L 127.660156 169.332031 " fill-opacity="1" fill-rule="evenodd"/><path fill="#6992a0" d="M 136.066406 169.332031 L 133.558594 169.332031 L 133.558594 183.574219 L 136.066406 183.574219 L 136.066406 169.332031 " fill-opacity="1" fill-rule="evenodd"/><path fill="#8cd9d8" d="M 85.484375 185.359375 L 99.757812 167.058594 L 99.757812 168.113281 L 101.011719 168.113281 L 100.898438 185.359375 L 85.484375 185.359375 " fill-opacity="1" fill-rule="evenodd"/><path fill="#cceeee" d="M 98.839844 168.234375 L 99.757812 167.058594 L 99.757812 168.113281 L 101.011719 168.113281 L 100.910156 183.574219 L 98.839844 183.574219 L 98.839844 168.234375 " fill-opacity="1" fill-rule="evenodd"/><path fill="#264773" d="M 85.484375 185.359375 L 86.875 183.574219 L 100.910156 183.574219 L 100.898438 185.359375 L 85.484375 185.359375 " fill-opacity="1" fill-rule="evenodd"/><path fill="#15231a" d="M 143.523438 201.007812 C 138.84375 201.007812 135.050781 204.804688 135.050781 209.484375 C 135.050781 214.164062 138.84375 217.960938 143.523438 217.960938 C 148.203125 217.960938 152 214.164062 152 209.484375 C 152 204.804688 148.203125 201.007812 143.523438 201.007812 " fill-opacity="1" fill-rule="evenodd"/><path fill="#6c6e7c" d="M 143.523438 205.144531 C 141.128906 205.144531 139.183594 207.089844 139.183594 209.484375 C 139.183594 211.882812 141.128906 213.824219 143.523438 213.824219 C 145.921875 213.824219 147.867188 211.882812 147.867188 209.484375 C 147.867188 207.089844 145.921875 205.144531 143.523438 205.144531 " fill-opacity="1" fill-rule="evenodd"/><path fill="#f5dac3" d="M 143.523438 207.992188 C 142.703125 207.992188 142.03125 208.660156 142.03125 209.484375 C 142.03125 210.308594 142.703125 210.976562 143.523438 210.976562 C 144.347656 210.976562 145.015625 210.308594 145.015625 209.484375 C 145.015625 208.660156 144.347656 207.992188 143.523438 207.992188 " fill-opacity="1" fill-rule="evenodd"/><path fill="#15231a" d="M 100.636719 201.007812 C 95.960938 201.007812 92.160156 204.804688 92.160156 209.484375 C 92.160156 214.164062 95.960938 217.960938 100.636719 217.960938 C 105.316406 217.960938 109.113281 214.164062 109.113281 209.484375 C 109.113281 204.804688 105.316406 201.007812 100.636719 201.007812 " fill-opacity="1" fill-rule="evenodd"/><path fill="#6c6e7c" d="M 100.636719 205.144531 C 98.242188 205.144531 96.300781 207.089844 96.300781 209.484375 C 96.300781 211.882812 98.242188 213.824219 100.636719 213.824219 C 103.035156 213.824219 104.976562 211.882812 104.976562 209.484375 C 104.976562 207.089844 103.035156 205.144531 100.636719 205.144531 " fill-opacity="1" fill-rule="evenodd"/><path fill="#f5dac3" d="M 100.636719 207.992188 C 99.8125 207.992188 99.148438 208.660156 99.148438 209.484375 C 99.148438 210.308594 99.8125 210.976562 100.636719 210.976562 C 101.464844 210.976562 102.128906 210.308594 102.128906 209.484375 C 102.128906 208.660156 101.464844 207.992188 100.636719 207.992188 " fill-opacity="1" fill-rule="evenodd"/><path fill="#f5dac3" d="M 79.445312 190.484375 C 78.078125 189.734375 76.125 190.65625 75.082031 192.550781 C 74.039062 194.445312 74.308594 196.589844 75.675781 197.34375 C 77.046875 198.09375 79 197.171875 80.039062 195.277344 C 81.078125 193.386719 80.8125 191.238281 79.445312 190.484375 " fill-opacity="1" fill-rule="evenodd"/><path fill="#f57652" d="M 158.171875 194.496094 L 84.535156 194.496094 L 84.535156 190.429688 C 84.535156 188.410156 86.179688 186.765625 88.195312 186.765625 L 158.171875 186.765625 L 158.171875 194.496094 " fill-opacity="1" fill-rule="nonzero"/><path fill="#db9c15" d="M 192.761719 190.621094 L 225.953125 190.621094 C 227.046875 190.621094 227.9375 191.515625 227.9375 192.609375 L 227.9375 201.726562 C 227.9375 202.816406 227.046875 203.710938 225.953125 203.710938 L 192.761719 203.710938 C 191.671875 203.710938 190.777344 202.816406 190.777344 201.726562 L 190.777344 192.609375 C 190.777344 191.515625 191.671875 190.621094 192.761719 190.621094 " fill-opacity="1" fill-rule="evenodd"/><path fill="#db9c15" d="M 192.761719 207.453125 L 225.953125 207.453125 C 227.046875 207.453125 227.9375 208.34375 227.9375 209.441406 L 227.9375 218.558594 C 227.9375 219.652344 227.046875 220.542969 225.953125 220.542969 L 192.761719 220.542969 C 191.671875 220.542969 190.777344 219.652344 190.777344 218.558594 L 190.777344 209.441406 C 190.777344 208.34375 191.671875 207.453125 192.761719 207.453125 " fill-opacity="1" fill-rule="evenodd"/><path fill="#db9c15" d="M 192.761719 224.285156 L 225.953125 224.285156 C 227.046875 224.285156 227.9375 225.175781 227.9375 226.273438 L 227.9375 235.386719 C 227.9375 236.484375 227.046875 237.375 225.953125 237.375 L 192.761719 237.375 C 191.671875 237.375 190.777344 236.484375 190.777344 235.386719 L 190.777344 226.273438 C 190.777344 225.175781 191.671875 224.285156 192.761719 224.285156 " fill-opacity="1" fill-rule="evenodd"/><path fill="#db9c15" d="M 207.253906 242.050781 L 211.460938 242.050781 L 211.460938 278.285156 C 211.460938 279.445312 210.515625 280.390625 209.359375 280.390625 C 208.203125 280.390625 207.253906 279.445312 207.253906 278.285156 L 207.253906 242.050781 " fill-opacity="1" fill-rule="evenodd"/><path fill="#faf7e3" d="M 203.515625 186.179688 L 215.199219 186.179688 C 216.613281 186.179688 217.773438 187.335938 217.773438 188.753906 L 217.773438 239.480469 C 217.773438 240.894531 216.613281 242.050781 215.199219 242.050781 L 203.515625 242.050781 C 202.101562 242.050781 200.945312 240.894531 200.945312 239.480469 L 200.945312 188.753906 C 200.945312 187.335938 202.101562 186.179688 203.515625 186.179688 " fill-opacity="1" fill-rule="evenodd"/><path fill="#faba14" d="M 209.359375 207.570312 C 212.96875 207.570312 215.902344 210.5 215.902344 214.117188 C 215.902344 217.730469 212.96875 220.660156 209.359375 220.660156 C 205.746094 220.660156 202.8125 217.730469 202.8125 214.117188 C 202.8125 210.5 205.746094 207.570312 209.359375 207.570312 " fill-opacity="1" fill-rule="evenodd"/><path fill="#bc232a" d="M 209.359375 190.621094 C 212.96875 190.621094 215.902344 193.550781 215.902344 197.167969 C 215.902344 200.78125 212.96875 203.710938 209.359375 203.710938 C 205.746094 203.710938 202.8125 200.78125 202.8125 197.167969 C 202.8125 193.550781 205.746094 190.621094 209.359375 190.621094 " fill-opacity="1" fill-rule="evenodd"/><path fill="#7ab948" d="M 209.359375 224.515625 C 212.96875 224.515625 215.902344 227.449219 215.902344 231.066406 C 215.902344 234.675781 212.96875 237.605469 209.359375 237.605469 C 205.746094 237.605469 202.8125 234.675781 202.8125 231.066406 C 202.8125 227.449219 205.746094 224.515625 209.359375 224.515625 " fill-opacity="1" fill-rule="evenodd"/><path fill="#639933" d="M 44.457031 231.558594 C 52.90625 231.558594 59.796875 224.667969 59.796875 216.21875 C 59.796875 207.769531 52.90625 200.878906 44.457031 200.878906 C 36.011719 200.878906 29.121094 207.769531 29.121094 216.21875 C 29.121094 224.667969 36.011719 231.558594 44.457031 231.558594 " fill-opacity="1" fill-rule="evenodd"/><path fill="#8fd34e" d="M 41.742188 206.175781 C 45.632812 206.175781 48.800781 203.003906 48.800781 199.113281 C 48.800781 195.226562 45.632812 192.054688 41.742188 192.054688 C 37.855469 192.054688 34.6875 195.226562 34.6875 199.113281 C 34.6875 203.003906 37.855469 206.175781 41.742188 206.175781 " fill-opacity="1" fill-rule="evenodd"/><path fill="#75b63d" d="M 49.347656 214.046875 C 53.976562 214.046875 57.757812 210.265625 57.757812 205.628906 C 57.757812 200.996094 53.976562 197.214844 49.347656 197.214844 C 44.710938 197.214844 40.929688 200.996094 40.929688 205.628906 C 40.929688 210.265625 44.710938 214.046875 49.347656 214.046875 " fill-opacity="1" fill-rule="evenodd"/><g clip-path="url(#id5)"><path fill="#8fd350" d="M 36.859375 235.492188 C 42.089844 235.492188 46.359375 231.226562 46.359375 225.996094 C 46.359375 220.757812 42.089844 216.492188 36.859375 216.492188 C 31.625 216.492188 27.359375 220.757812 27.359375 225.996094 C 27.359375 231.226562 31.625 235.492188 36.859375 235.492188 " fill-opacity="1" fill-rule="evenodd"/></g><path fill="#8d3a27" d="M 51.097656 230.050781 L 51.097656 235.097656 C 51.097656 236.074219 50.296875 236.871094 49.320312 236.871094 L 45.339844 236.871094 L 45.339844 268.304688 C 45.339844 268.789062 44.941406 269.1875 44.457031 269.1875 C 43.972656 269.1875 43.578125 268.789062 43.578125 268.304688 L 43.578125 246.574219 L 39.410156 246.574219 C 38.433594 246.574219 37.636719 245.773438 37.636719 244.796875 L 37.636719 235.464844 L 37.660156 235.460938 L 37.785156 235.453125 L 37.867188 235.441406 L 37.917969 235.4375 L 37.9375 235.433594 L 38.007812 235.425781 L 38.03125 235.421875 L 38.113281 235.414062 L 38.257812 235.390625 L 38.261719 235.390625 L 38.28125 235.386719 L 38.324219 235.382812 L 38.351562 235.378906 L 38.371094 235.375 L 38.464844 235.359375 L 38.484375 235.355469 L 38.601562 235.335938 L 38.667969 235.320312 L 38.691406 235.320312 L 38.710938 235.3125 L 38.734375 235.308594 L 38.800781 235.296875 L 38.824219 235.292969 L 38.847656 235.285156 L 38.867188 235.28125 L 38.890625 235.277344 L 38.914062 235.269531 L 38.933594 235.269531 L 39.066406 235.234375 L 39.089844 235.230469 L 39.089844 243.289062 C 39.089844 244.265625 39.890625 245.0625 40.867188 245.0625 L 43.578125 245.0625 L 43.578125 232.710938 C 43.933594 232.351562 44.261719 231.96875 44.554688 231.558594 C 44.820312 231.554688 45.082031 231.546875 45.339844 231.53125 L 45.339844 235.359375 L 47.867188 235.359375 C 48.84375 235.359375 49.640625 234.5625 49.640625 233.585938 L 49.640625 230.660156 L 49.664062 230.652344 L 49.804688 230.601562 L 49.828125 230.59375 L 49.847656 230.582031 L 49.875 230.574219 L 49.964844 230.539062 L 50.011719 230.523438 L 50.15625 230.464844 L 50.355469 230.382812 L 50.378906 230.371094 L 50.46875 230.335938 C 50.558594 230.296875 50.648438 230.257812 50.738281 230.214844 L 50.761719 230.207031 L 50.78125 230.195312 L 50.785156 230.195312 L 50.808594 230.183594 C 50.902344 230.144531 50.996094 230.097656 51.089844 230.050781 L 51.097656 230.050781 " fill-opacity="1" fill-rule="evenodd"/></svg>