<svg xmlns="http://www.w3.org/2000/svg" xmlns:xlink="http://www.w3.org/1999/xlink" width="559" zoomAndPan="magnify" viewBox="0 0 419.25 297.749993" height="396" preserveAspectRatio="xMidYMid meet" version="1.0"><defs><clipPath id="id1"><path d="M 134 30.023438 L 304.792969 30.023438 L 304.792969 267.003906 L 134 267.003906 Z M 134 30.023438 " clip-rule="nonzero"/></clipPath></defs><g clip-path="url(#id1)"><path fill="#f9ec34" d="M 304.792969 66.984375 C 304.792969 66.984375 302.914062 207.726562 302.054688 236.488281 C 301.957031 239.679688 300.632812 242.722656 298.324219 244.929688 C 284.902344 257.773438 266.148438 264.398438 247.542969 266.304688 C 227.238281 268.386719 206.792969 265.425781 186.601562 262.472656 C 176.402344 260.976562 166.078125 259.449219 156.582031 255.445312 C 148.339844 251.964844 141.152344 246.46875 136.71875 238.894531 C 135.511719 236.828125 134.898438 234.46875 134.898438 232.074219 L 134.898438 92.816406 C 134.355469 84.628906 134.089844 76.421875 134.035156 68.214844 C 134.003906 62.941406 136.023438 57.828125 139.753906 54.097656 C 142.785156 51.066406 167.164062 30.023438 219.414062 30.023438 C 266.925781 30.023438 297.726562 49.199219 303.058594 59.605469 C 304.226562 61.882812 304.792969 64.425781 304.792969 66.984375 " fill-opacity="1" fill-rule="nonzero"/></g><path fill="#6ccb9c" d="M 295.601562 64.25 C 294.488281 66.253906 291.867188 68.054688 288.078125 69.648438 C 287.644531 70.070312 287.117188 70.175781 286.558594 70.253906 C 285.90625 70.5 285.222656 70.742188 284.511719 70.976562 C 280.039062 74.894531 278.265625 82.820312 276.648438 88.542969 C 274.753906 95.246094 272.851562 102.085938 269.046875 107.925781 C 265.242188 113.765625 259.144531 118.554688 252.183594 118.972656 C 248.152344 119.21875 243.625 118.125 240.398438 120.550781 C 237.21875 122.9375 236.957031 127.519531 236.976562 131.496094 C 237.015625 137.957031 237.050781 144.421875 237.085938 150.886719 C 237.097656 152.410156 243.054688 161.675781 243.058594 163.199219 C 243.105469 171.136719 245.683594 178.046875 243.058594 185.539062 C 241.980469 188.625 234.679688 188.894531 232.101562 190.902344 C 226.117188 195.566406 209.921875 199.347656 205.265625 193.359375 C 200.605469 187.375 199.027344 172.554688 199.449219 164.984375 C 199.652344 161.375 204.785156 154.222656 205.402344 150.636719 C 208.613281 131.902344 216.039062 113.402344 212.917969 94.316406 C 212.09375 89.289062 210.464844 85.503906 207.417969 81.484375 C 206.902344 80.808594 205.746094 79.71875 204.625 78.527344 C 172.835938 77.292969 136.902344 71.371094 145.667969 59.667969 C 158.992188 41.878906 193.710938 34.175781 216.242188 35.617188 C 277.335938 39.53125 299.574219 57.113281 295.601562 64.25 " fill-opacity="1" fill-rule="nonzero"/><path fill="#f14e4c" d="M 240.480469 150.808594 C 239.347656 150.835938 238.21875 150.863281 237.085938 150.886719 C 237.097656 152.410156 237.105469 153.933594 237.113281 155.457031 C 237.15625 163.394531 237.175781 171.515625 234.550781 179.007812 C 233.472656 182.089844 231.875 185.113281 229.296875 187.125 C 223.3125 191.789062 213.871094 189.082031 209.214844 183.09375 C 204.554688 177.105469 203.699219 169 204.121094 161.429688 C 204.324219 157.820312 204.789062 154.222656 205.402344 150.636719 C 181.238281 149.570312 157.289062 146.097656 134.898438 137.367188 L 134.898438 144.171875 L 129.171875 153.644531 L 134.898438 157.988281 L 134.898438 187.609375 C 148.84375 193.738281 161.539062 201.042969 177.089844 203.953125 C 197.148438 207.707031 217.679688 208.125 238.082031 207.769531 C 260.007812 207.390625 282.453125 205.980469 302.839844 198.210938 C 303.136719 181.03125 303.453125 160.792969 303.742188 141.414062 C 283.925781 148.742188 261.84375 150.265625 240.480469 150.808594 Z M 294.921875 59.191406 C 292.21875 58.332031 289.453125 57.648438 286.695312 56.992188 C 262.203125 51.167969 237.003906 46.671875 211.9375 49.039062 C 204.550781 49.734375 197.222656 51.074219 190.085938 53.105469 C 177.316406 56.734375 165.078125 62.605469 154.792969 71.050781 C 154.675781 71.144531 154.558594 71.246094 154.4375 71.355469 C 146.121094 68.410156 142.019531 64.539062 145.667969 59.667969 C 158.992188 41.878906 193.710938 34.175781 216.242188 35.617188 C 265.679688 38.785156 289.667969 50.902344 294.921875 59.191406 " fill-opacity="1" fill-rule="nonzero"/><path fill="#4c5cb3" d="M 297.609375 103.382812 C 282.390625 125.171875 249.433594 167.660156 211.9375 187.015625 C 160.328125 213.652344 118.179688 206.777344 116.03125 183.832031 C 113.898438 161.109375 134.507812 144.488281 134.898438 144.171875 L 134.898438 157.988281 L 134.765625 158.300781 C 131.789062 163.539062 128.75 168.941406 127.914062 174.910156 C 127.074219 180.878906 128.941406 187.628906 133.996094 190.917969 C 136.964844 192.847656 140.617188 193.371094 144.152344 193.566406 C 170.523438 195.050781 195.117188 181.367188 217.746094 167.761719 C 222.996094 164.605469 228.246094 161.421875 233.058594 157.632812 C 238.3125 153.503906 242.992188 148.695312 247.65625 143.90625 C 259.890625 131.332031 272.152344 118.734375 282.945312 104.90625 L 277.757812 103.589844 C 275.296875 94.53125 282.765625 92.824219 282.765625 92.824219 L 295.105469 96.351562 C 298.132812 97.21875 299.414062 100.800781 297.609375 103.382812 " fill-opacity="1" fill-rule="nonzero"/><path fill="#ffffff" d="M 298.671875 91.8125 C 295.921875 91.8125 295.917969 96.078125 298.671875 96.078125 C 301.417969 96.078125 301.421875 91.8125 298.671875 91.8125 Z M 300.589844 82.59375 C 300.726562 79.964844 301.742188 72.316406 297.402344 72.410156 C 295.480469 72.453125 293.707031 74.273438 291.96875 74.980469 C 289.726562 75.886719 287.367188 76.308594 284.957031 76.359375 C 282.214844 76.414062 282.203125 80.679688 284.957031 80.625 C 288.207031 80.558594 291.359375 79.910156 294.328125 78.578125 C 294.976562 78.289062 295.609375 77.972656 296.226562 77.621094 C 296.285156 78.222656 296.386719 78.894531 296.390625 79.132812 C 296.414062 80.289062 296.378906 81.441406 296.316406 82.59375 C 296.175781 85.335938 300.445312 85.328125 300.589844 82.59375 Z M 207.636719 86.601562 C 197.609375 87.519531 187.195312 86.222656 177.339844 84.398438 C 174.652344 83.898438 173.503906 88.007812 176.207031 88.511719 C 186.421875 90.40625 197.242188 91.816406 207.636719 90.867188 C 210.347656 90.621094 210.375 86.351562 207.636719 86.601562 Z M 238.535156 113.320312 C 232.226562 113.703125 229.949219 119.648438 228.914062 125.007812 C 228.390625 127.691406 232.507812 128.839844 233.03125 126.140625 C 233.632812 123.042969 234.507812 117.828125 238.535156 117.585938 C 241.269531 117.421875 241.285156 113.15625 238.535156 113.320312 Z M 270.75 87.386719 C 269.59375 87.4375 268.613281 88.320312 268.613281 89.519531 C 268.613281 90.210938 268.613281 90.902344 268.613281 91.59375 C 268.613281 92.710938 269.597656 93.78125 270.75 93.726562 C 271.90625 93.675781 272.882812 92.792969 272.882812 91.59375 C 272.882812 90.902344 272.882812 90.210938 272.882812 89.519531 C 272.882812 88.402344 271.902344 87.332031 270.75 87.386719 Z M 280.113281 68.097656 C 276.851562 70.429688 274.789062 74.085938 274.464844 78.078125 C 274.242188 80.800781 269.972656 80.816406 270.195312 78.078125 C 270.652344 72.46875 273.378906 67.683594 277.957031 64.414062 C 280.199219 62.8125 282.328125 66.515625 280.113281 68.097656 " fill-opacity="1" fill-rule="nonzero"/></svg>