<svg xmlns="http://www.w3.org/2000/svg" xmlns:xlink="http://www.w3.org/1999/xlink" width="559" zoomAndPan="magnify" viewBox="0 0 419.25 297.749993" height="396" preserveAspectRatio="xMidYMid meet" version="1.0"><defs><clipPath id="id1"><path d="M 0 0.140625 L 418.5 0.140625 L 418.5 297.359375 L 0 297.359375 Z M 0 0.140625 " clip-rule="nonzero"/></clipPath></defs><g clip-path="url(#id1)"><path fill="#a99a92" d="M 0 0.140625 L 418.5 0.140625 L 418.5 297.359375 L 0 297.359375 Z M 0 0.140625 " fill-opacity="1" fill-rule="nonzero"/><path fill="#ffffff" d="M 0 0.140625 L 418.5 0.140625 L 418.5 297.359375 L 0 297.359375 Z M 0 0.140625 " fill-opacity="1" fill-rule="nonzero"/><path fill="#a99a92" d="M 0 0.140625 L 418.5 0.140625 L 418.5 297.359375 L 0 297.359375 Z M 0 0.140625 " fill-opacity="1" fill-rule="nonzero"/></g><path fill="#cc956e" d="M 280.925781 207.898438 C 282.46875 210.675781 285.121094 216.292969 282.1875 217.511719 C 280.425781 218.246094 278.398438 216.484375 276.9375 214.632812 C 275.800781 213.191406 274.703125 213.304688 274.171875 212.265625 C 271.332031 213.230469 269.898438 213.621094 265.859375 214.214844 C 266.175781 217.378906 265.203125 223.910156 262.03125 223.878906 C 258.863281 223.84375 256.816406 219.230469 256.570312 216.316406 C 251.488281 216.542969 248.183594 213.609375 244.621094 212.695312 C 244.285156 212.609375 243.777344 212.480469 243.453125 212.386719 C 242.242188 215.351562 239.558594 220.839844 236.789062 219.339844 C 234.003906 217.835938 235.875 212.394531 237.019531 209.703125 C 229.046875 205.140625 227.0625 198.476562 227.0625 198.476562 L 282.035156 189.769531 L 289.121094 194.992188 C 289.121094 194.992188 290.3125 202.304688 280.925781 207.898438 Z M 280.925781 207.898438 C 282.46875 210.675781 285.121094 216.292969 282.1875 217.511719 C 280.425781 218.246094 278.398438 216.484375 276.9375 214.632812 C 275.800781 213.191406 274.703125 213.304688 274.171875 212.265625 C 271.332031 213.230469 269.898438 213.621094 265.859375 214.214844 C 266.175781 217.378906 265.203125 223.910156 262.03125 223.878906 C 258.863281 223.84375 256.816406 219.230469 256.570312 216.316406 C 251.488281 216.542969 248.183594 213.609375 244.621094 212.695312 C 244.285156 212.609375 243.777344 212.480469 243.453125 212.386719 C 242.242188 215.351562 239.558594 220.839844 236.789062 219.339844 C 234.003906 217.835938 235.875 212.394531 237.019531 209.703125 C 229.046875 205.140625 227.0625 198.476562 227.0625 198.476562 L 282.035156 189.769531 L 289.121094 194.992188 C 289.121094 194.992188 290.3125 202.304688 280.925781 207.898438 Z M 280.925781 207.898438 " fill-opacity="1" fill-rule="nonzero"/><path fill="#e1d7ce" d="M 326.898438 232.320312 C 325.964844 239.332031 313.003906 245.722656 309.257812 244.789062 C 305.511719 243.851562 306.605469 221.253906 303.328125 219.070312 C 287.246094 214.085938 282.40625 198.652344 282.40625 198.652344 C 282.40625 198.652344 259.96875 200.855469 220.894531 200.890625 C 220.894531 200.890625 225.734375 249.28125 205.597656 249.90625 C 185.457031 250.53125 193.730469 243.515625 195.292969 241.742188 C 196.855469 239.964844 198.257812 239.621094 196.542969 228.242188 C 194.824219 216.863281 192.820312 198.625 192.820312 198.625 L 192.828125 198.625 C 159.128906 189.335938 147.546875 153.65625 143.460938 147.039062 C 138.777344 139.453125 118.402344 143.402344 109.039062 142.234375 C 99.671875 141.0625 88.429688 121.894531 91.472656 110.4375 C 94.519531 98.980469 118.171875 94.074219 122.152344 86.125 C 130.582031 66.484375 156.347656 66.417969 162.195312 66.953125 C 179.082031 68.492188 186.359375 73.792969 190.839844 80.648438 C 190.839844 80.648438 202.605469 84.070312 207.625 88.433594 C 213.953125 93.933594 215.121094 98.566406 214.964844 100.125 C 214.855469 101.195312 212.117188 105.277344 205.859375 107.429688 C 207.050781 108.671875 208.378906 109.886719 209.882812 111.0625 C 230.621094 127.261719 268.710938 107.050781 294.617188 121.394531 L 294.617188 121.390625 C 294.617188 121.390625 308.054688 124.128906 313.457031 111.035156 C 318.859375 97.941406 316.050781 83.214844 293.335938 79.707031 C 292.90625 75.617188 295.675781 75.734375 295.675781 75.734375 C 295.675781 75.734375 314.644531 76.667969 321.203125 94.203125 C 327.757812 111.738281 317.46875 127.3125 304.347656 128.292969 C 321.699219 143.449219 320.460938 162.195312 320.1875 181.664062 C 319.875 203.796875 323.933594 204.421875 327.210938 209.253906 C 330.492188 214.085938 327.835938 225.304688 326.898438 232.320312 Z M 326.898438 232.320312 C 325.964844 239.332031 313.003906 245.722656 309.257812 244.789062 C 305.511719 243.851562 306.605469 221.253906 303.328125 219.070312 C 287.246094 214.085938 282.40625 198.652344 282.40625 198.652344 C 282.40625 198.652344 259.96875 200.855469 220.894531 200.890625 C 220.894531 200.890625 225.734375 249.28125 205.597656 249.90625 C 185.457031 250.53125 193.730469 243.515625 195.292969 241.742188 C 196.855469 239.964844 198.257812 239.621094 196.542969 228.242188 C 194.824219 216.863281 192.820312 198.625 192.820312 198.625 L 192.828125 198.625 C 159.128906 189.335938 147.546875 153.65625 143.460938 147.039062 C 138.777344 139.453125 118.402344 143.402344 109.039062 142.234375 C 99.671875 141.0625 88.429688 121.894531 91.472656 110.4375 C 94.519531 98.980469 118.171875 94.074219 122.152344 86.125 C 130.582031 66.484375 156.347656 66.417969 162.195312 66.953125 C 179.082031 68.492188 186.359375 73.792969 190.839844 80.648438 C 190.839844 80.648438 202.605469 84.070312 207.625 88.433594 C 213.953125 93.933594 215.121094 98.566406 214.964844 100.125 C 214.855469 101.195312 212.117188 105.277344 205.859375 107.429688 C 207.050781 108.671875 208.378906 109.886719 209.882812 111.0625 C 230.621094 127.261719 268.710938 107.050781 294.617188 121.394531 L 294.617188 121.390625 C 294.617188 121.390625 308.054688 124.128906 313.457031 111.035156 C 318.859375 97.941406 316.050781 83.214844 293.335938 79.707031 C 292.90625 75.617188 295.675781 75.734375 295.675781 75.734375 C 295.675781 75.734375 314.644531 76.667969 321.203125 94.203125 C 327.757812 111.738281 317.46875 127.3125 304.347656 128.292969 C 321.699219 143.449219 320.460938 162.195312 320.1875 181.664062 C 319.875 203.796875 323.933594 204.421875 327.210938 209.253906 C 330.492188 214.085938 327.835938 225.304688 326.898438 232.320312 Z M 326.898438 232.320312 " fill-opacity="1" fill-rule="nonzero"/><path fill="#2b2f30" d="M 207.625 88.433594 C 202.605469 84.070312 190.839844 80.648438 190.839844 80.648438 C 187.832031 76.050781 183.5625 72.152344 175.984375 69.617188 C 173.921875 68.929688 171.617188 68.34375 169.027344 67.867188 C 168.964844 67.859375 168.902344 67.847656 168.839844 67.835938 C 168.402344 67.757812 167.957031 67.679688 167.503906 67.609375 C 167.40625 67.59375 167.308594 67.578125 167.210938 67.5625 C 166.769531 67.496094 166.316406 67.429688 165.859375 67.367188 C 165.765625 67.355469 165.675781 67.34375 165.582031 67.332031 C 165.039062 67.257812 164.488281 67.191406 163.925781 67.128906 C 163.925781 67.128906 163.921875 67.128906 163.921875 67.128906 C 156.113281 68.027344 141.742188 71.449219 135.265625 84.382812 C 131.753906 94.203125 130.347656 109.867188 142.992188 117.347656 C 155.636719 124.828125 160.175781 114.074219 171.371094 117.347656 C 182.570312 120.621094 191.742188 119.121094 195 109.816406 C 202.378906 109.289062 205.183594 107.902344 205.898438 107.46875 C 205.886719 107.457031 205.871094 107.441406 205.859375 107.429688 C 205.9375 107.402344 206.011719 107.367188 206.09375 107.339844 C 206.09375 107.339844 206.097656 107.335938 206.097656 107.335938 L 206.101562 107.335938 C 212.183594 105.164062 214.859375 101.179688 214.964844 100.125 C 215.121094 98.566406 213.953125 93.933594 207.625 88.433594 Z M 156.1875 107.621094 C 151.328125 108.1875 143.117188 106.105469 142.691406 97.488281 C 142.261719 88.769531 147.351562 84.945312 153.105469 84.582031 C 158.042969 84.273438 165.148438 85.402344 165.898438 94.289062 C 166.652344 103.207031 161.410156 107.011719 156.1875 107.621094 Z M 324.890625 206.273438 C 322.300781 202.996094 319.945312 198.710938 320.1875 181.664062 C 320.367188 168.851562 320.964844 156.351562 316.40625 144.980469 C 316.382812 144.988281 299.890625 150.230469 300.828125 177.964844 C 301.765625 205.71875 312.890625 207.765625 324.890625 206.273438 Z M 251.183594 176.964844 C 247.179688 183.988281 260.082031 193.328125 276.472656 185.378906 C 292.867188 177.429688 284.886719 167.09375 277.527344 167.09375 C 271.703125 167.09375 255.046875 170.183594 251.183594 176.964844 Z M 206.6875 208.847656 C 200.25 197.421875 205.050781 183.859375 192.171875 181.640625 C 177.886719 179.175781 173.527344 189.148438 173.523438 189.160156 C 178.585938 193.152344 185.1875 196.6875 192.65625 198.746094 C 192.65625 198.746094 196.296875 229.480469 196.929688 231.058594 C 209.03125 230.289062 209.839844 214.4375 206.6875 208.847656 Z M 182.179688 133.167969 C 177.917969 133.300781 172.1875 133.632812 171.40625 140.179688 C 170.625 146.726562 183.113281 152.183594 189.671875 147.507812 C 196.230469 142.832031 195.761719 137.21875 193.417969 134.726562 C 191.078125 132.230469 186.945312 133.019531 182.179688 133.167969 Z M 308.789062 214.019531 C 299.644531 208.269531 293.628906 213.988281 293.59375 214.019531 C 296 216.125 299.421875 218.082031 303.289062 219.28125 C 304.605469 220.15625 304.984375 224.21875 305.757812 228.871094 C 305.757812 228.871094 316.285156 218.734375 308.789062 214.019531 Z M 216.9375 115.03125 C 216.9375 115.03125 197.945312 125.320312 204.816406 148.882812 C 211.683594 172.445312 258.988281 170.574219 271.632812 157.792969 C 284.28125 145.011719 285.804688 126.648438 273.957031 116.035156 C 267.964844 114.230469 232.917969 119.453125 216.9375 115.03125 Z M 144.761719 133.808594 C 146.289062 131.558594 145.726562 128.457031 145.703125 128.328125 C 145.640625 128.003906 145.335938 127.792969 145.019531 127.851562 C 144.699219 127.917969 144.492188 128.226562 144.554688 128.550781 C 144.558594 128.578125 145.042969 131.300781 143.792969 133.132812 C 143.207031 133.996094 142.308594 134.542969 141.117188 134.75 C 136.972656 135.480469 135.691406 129.921875 135.640625 129.6875 C 135.570312 129.363281 135.257812 129.164062 134.941406 129.234375 C 134.617188 129.3125 134.425781 129.625 134.496094 129.945312 C 135.019531 132.339844 137.121094 136.664062 141.316406 135.929688 C 141.691406 135.863281 142.042969 135.769531 142.375 135.648438 C 143.378906 135.28125 144.179688 134.667969 144.761719 133.808594 Z M 293.335938 79.707031 C 293.335938 79.707031 283.96875 83.890625 276.707031 78.878906 C 271.453125 75.246094 272.457031 66.203125 273.410156 61.488281 C 273.632812 60.386719 274.964844 59.964844 275.804688 60.710938 C 277.121094 61.886719 279.359375 63.09375 282.988281 63.101562 C 290.054688 63.109375 296.613281 65.679688 295.675781 75.734375 C 295.675781 75.734375 293.414062 76.394531 293.335938 79.707031 Z M 293.335938 79.707031 " fill-opacity="1" fill-rule="nonzero"/><path fill="#e1d7ce" d="M 166.242188 182.875 C 172.324219 188.652344 180.734375 194.53125 189.886719 197.902344 L 189.308594 198.992188 C 189.308594 198.992188 168.894531 243.148438 151.222656 233.492188 C 133.546875 223.832031 144.242188 221.976562 146.488281 221.238281 C 148.738281 220.496094 150.125 220.910156 154.425781 210.234375 C 158.589844 199.886719 165.800781 183.855469 166.242188 182.875 Z M 152.015625 57.691406 C 152.023438 54.585938 153.066406 44.894531 150.273438 46.238281 C 140.796875 52.429688 137.78125 64.210938 137.804688 70.921875 C 143.320312 68.480469 149.140625 67.425781 153.839844 67.027344 C 152.9375 64.90625 152.003906 61.742188 152.015625 57.691406 Z M 181.398438 58.199219 C 179.367188 65.757812 174.785156 69.242188 174.785156 69.242188 C 174.785156 69.242188 177.324219 78.515625 189.585938 78.878906 C 192.480469 76.589844 196.074219 58.820312 186.082031 47.601562 C 183.738281 45.574219 182.203125 55.199219 181.398438 58.199219 Z M 276.9375 214.632812 C 275.902344 213.261719 275.058594 211.738281 274.5625 210.765625 C 271.722656 211.730469 268.332031 212.546875 264.289062 213.140625 C 264.609375 216.304688 264.824219 222.492188 261.652344 222.457031 C 258.484375 222.425781 257.597656 216.738281 257.347656 213.824219 C 252.351562 214.042969 248.148438 213.578125 244.621094 212.695312 C 245.726562 216.09375 247.503906 219.628906 250.3125 222.980469 C 251.878906 226.589844 238.675781 244.980469 241.316406 247.796875 C 243.953125 250.613281 258.3125 252.265625 262.910156 246.878906 C 267.511719 241.496094 275.839844 233.507812 275.710938 227.675781 C 275.625 223.796875 274.246094 221.285156 276.9375 214.632812 Z M 276.9375 214.632812 " fill-opacity="1" fill-rule="nonzero"/><path fill="#cc956e" d="M 109.039062 142.234375 C 108.175781 141.964844 107.339844 141.726562 106.511719 141.507812 C 97.789062 137.71875 88.699219 120.878906 91.472656 110.4375 C 91.472656 110.4375 94.753906 104.488281 119.730469 107.605469 C 141.304688 110.296875 131.785156 138.601562 116.566406 142.4375 C 113.710938 142.5 111.105469 142.492188 109.039062 142.234375 Z M 195.824219 249.292969 C 196.402344 245.171875 198.941406 244.003906 199.054688 243.953125 C 199.359375 243.824219 199.496094 243.472656 199.367188 243.171875 C 199.238281 242.867188 198.886719 242.726562 198.582031 242.855469 C 198.449219 242.914062 195.394531 244.269531 194.664062 248.945312 C 194.84375 249.097656 195.5625 249.304688 195.824219 249.292969 Z M 201.285156 249.914062 C 201.914062 245.953125 204.375 244.820312 204.488281 244.773438 C 204.789062 244.640625 204.929688 244.292969 204.800781 243.988281 C 204.671875 243.683594 204.316406 243.542969 204.015625 243.675781 C 203.878906 243.730469 200.777344 245.105469 200.082031 249.867188 C 200.375 249.90625 200.992188 249.945312 201.285156 249.914062 Z M 314.597656 243.8125 C 312.109375 240.34375 313.199219 237.707031 313.25 237.589844 C 313.378906 237.289062 313.246094 236.9375 312.945312 236.804688 C 312.640625 236.667969 312.289062 236.804688 312.152344 237.105469 C 312.09375 237.242188 310.777344 240.308594 313.429688 244.230469 C 313.539062 244.199219 314.316406 244.003906 314.597656 243.8125 Z M 319.375 241.386719 C 317.359375 238.1875 318.332031 235.8125 318.382812 235.695312 C 318.515625 235.394531 318.378906 235.042969 318.078125 234.910156 C 317.777344 234.773438 317.421875 234.910156 317.289062 235.210938 C 317.230469 235.34375 315.988281 238.242188 318.347656 242.003906 C 318.539062 241.929688 319.203125 241.578125 319.375 241.386719 Z M 143.378906 228.265625 C 145.988281 225.207031 148.683594 225.523438 148.8125 225.542969 C 149.140625 225.589844 149.441406 225.363281 149.488281 225.039062 C 149.539062 224.710938 149.3125 224.410156 148.984375 224.359375 C 148.839844 224.335938 145.582031 223.90625 142.535156 227.410156 C 142.644531 227.601562 143.234375 228.164062 143.378906 228.265625 Z M 247.195312 250.027344 C 247.640625 246.363281 249.839844 245.054688 249.941406 245 C 250.230469 244.847656 250.34375 244.484375 250.191406 244.195312 C 250.039062 243.902344 249.679688 243.789062 249.382812 243.941406 C 249.257812 244.007812 246.527344 245.480469 246 249.800781 C 246.140625 249.898438 246.96875 250 247.195312 250.027344 Z M 247.195312 250.027344 " fill-opacity="1" fill-rule="nonzero"/><path fill="#231f20" d="M 197.769531 110 C 194.800781 110 191.5 109.414062 188.566406 107.523438 C 183.921875 104.53125 182.929688 100.492188 182.128906 97.246094 C 181.628906 95.21875 181.238281 93.617188 180.113281 92.816406 C 179.84375 92.625 179.78125 92.253906 179.972656 91.984375 C 180.164062 91.714844 180.539062 91.652344 180.808594 91.847656 C 182.292969 92.902344 182.757812 94.785156 183.292969 96.960938 C 184.039062 100.003906 184.972656 103.785156 189.214844 106.519531 C 196.253906 111.054688 206 107.375 206.097656 107.335938 C 206.242188 107.535156 206.695312 108.214844 206.804688 108.378906 C 206.546875 108.476562 202.4375 110 197.769531 110 Z M 112.0625 129.9375 C 105.957031 128.074219 112.21875 113.414062 117.214844 115.339844 C 122.703125 117.453125 118.167969 131.800781 112.0625 129.9375 Z M 96.976562 115.703125 C 100.710938 113.308594 108.152344 127.132812 103.507812 129.574219 C 98.867188 132.015625 92.875 118.332031 96.976562 115.703125 Z M 166.128906 94.316406 C 165.78125 90.207031 163.9375 87.59375 161.621094 86.3125 C 160.808594 86.117188 159.949219 86.046875 159.007812 86.1875 C 156.386719 86.574219 153.71875 87.691406 152.039062 90.046875 C 150.808594 91.621094 150.113281 93.90625 150.328125 97.246094 C 150.800781 104.582031 157.546875 105.875 161.152344 105.675781 C 161.28125 105.667969 161.40625 105.648438 161.53125 105.632812 C 164.550781 103.667969 166.613281 100.039062 166.128906 94.316406 Z M 282.886719 76.550781 C 282.839844 76.550781 282.796875 76.542969 282.75 76.535156 C 277.03125 75.210938 274.023438 70.511719 272.664062 67.566406 C 272.644531 67.023438 272.742188 65.445312 272.886719 64.804688 C 272.910156 64.894531 275.394531 73.605469 283.019531 75.371094 C 283.339844 75.445312 283.542969 75.765625 283.46875 76.085938 C 283.402344 76.363281 283.15625 76.550781 282.886719 76.550781 Z M 282.886719 76.550781 " fill-opacity="1" fill-rule="nonzero"/></svg>