<svg xmlns="http://www.w3.org/2000/svg" xmlns:xlink="http://www.w3.org/1999/xlink" width="559" zoomAndPan="magnify" viewBox="0 0 419.25 297.749993" height="396" preserveAspectRatio="xMidYMid meet" version="1.0"><defs><clipPath id="id1"><path d="M 0 0.140625 L 418.5 0.140625 L 418.5 297.359375 L 0 297.359375 Z M 0 0.140625 " clip-rule="nonzero"/></clipPath><clipPath id="id2"><path d="M 214.171875 96.148438 L 222.625 96.148438 L 222.625 102.558594 L 214.171875 102.558594 Z M 214.171875 96.148438 " clip-rule="nonzero"/></clipPath><clipPath id="id3"><path d="M 215.597656 102.394531 C 214.007812 102.394531 213.78125 100.480469 214.789062 99.015625 C 215.660156 97.753906 218.355469 96.285156 220.308594 96.285156 C 221.167969 96.285156 221.882812 96.566406 222.234375 97.277344 C 223.386719 99.605469 221.460938 100.980469 221.460938 100.980469 C 221.460938 100.980469 222.054688 100 221.761719 98.675781 C 221.492188 97.453125 220.46875 97.40625 220.3125 97.40625 C 220.296875 97.40625 220.289062 97.40625 220.289062 97.40625 C 220.289062 97.40625 220.449219 97.722656 220.308594 98.652344 C 220.167969 99.578125 219.765625 100.730469 216.976562 102.03125 C 216.441406 102.285156 215.980469 102.394531 215.597656 102.394531 " clip-rule="nonzero"/></clipPath></defs><g clip-path="url(#id1)"><path fill="#ffffff" d="M 0 0.140625 L 419.25 0.140625 L 419.25 304.097656 L 0 304.097656 Z M 0 0.140625 " fill-opacity="1" fill-rule="nonzero"/><path fill="#f9e6d0" d="M 0 0.140625 L 418.5 0.140625 L 418.5 297.359375 L 0 297.359375 Z M 0 0.140625 " fill-opacity="1" fill-rule="nonzero"/><path fill="#ffffff" d="M 0 0.140625 L 418.5 0.140625 L 418.5 297.359375 L 0 297.359375 Z M 0 0.140625 " fill-opacity="1" fill-rule="nonzero"/><path fill="#f9e6d0" d="M 0 0.140625 L 418.5 0.140625 L 418.5 297.359375 L 0 297.359375 Z M 0 0.140625 " fill-opacity="1" fill-rule="nonzero"/></g><path fill="#f2b07c" d="M 206.976562 247.355469 C 206.976562 247.355469 206.972656 253.554688 208.679688 257.3125 C 210.382812 261.066406 213.078125 260.433594 213.398438 260.183594 C 213.71875 259.933594 215.953125 257.578125 215.847656 255.417969 C 215.742188 253.257812 215.710938 247.871094 215.601562 247.394531 C 215.496094 246.914062 214.964844 244.699219 214.964844 244.699219 C 214.964844 244.699219 210.652344 243.351562 206.976562 247.355469 " fill-opacity="1" fill-rule="nonzero"/><path fill="#f2b07c" d="M 187.109375 204.835938 C 187.109375 204.835938 191.019531 212.449219 192.578125 214.328125 C 194.136719 216.210938 198.648438 225.207031 201.976562 233.109375 C 205.308594 241.011719 206.976562 247.355469 206.976562 247.355469 L 214.964844 244.699219 C 214.964844 244.699219 213.761719 224.222656 210.996094 216.390625 C 208.230469 208.558594 205.78125 205.972656 204.253906 202.925781 C 202.730469 199.878906 201.277344 187.9375 201.277344 187.9375 C 201.277344 187.9375 186.863281 191.226562 187.109375 204.835938 " fill-opacity="1" fill-rule="nonzero"/><path fill="#fbc4d3" d="M 214.964844 244.699219 C 214.964844 244.699219 217.105469 245.375 218.003906 247.640625 C 218.902344 249.910156 217.246094 252.859375 217.246094 253.925781 C 217.246094 254.988281 219.113281 259.3125 218.1875 262.191406 C 217.265625 265.074219 213.714844 266.609375 212.671875 266.890625 C 211.632812 267.171875 209.691406 266.132812 209.386719 263.273438 C 209.078125 260.417969 206.429688 252.410156 206.976562 247.355469 C 207.566406 254.089844 208.679688 256.78125 210.191406 257.796875 C 211.707031 258.8125 213.742188 256.027344 213.480469 252.90625 C 213.222656 249.789062 213.980469 245.632812 214.964844 244.699219 " fill-opacity="1" fill-rule="nonzero"/><path fill="#f2b07c" d="M 278.011719 164.914062 C 278.011719 164.914062 284.207031 165.332031 288.078125 163.890625 C 291.945312 162.449219 291.492188 159.722656 291.265625 159.386719 C 291.042969 159.050781 288.835938 156.664062 286.671875 156.625 C 284.503906 156.582031 279.117188 156.253906 278.632812 156.324219 C 278.148438 156.398438 275.898438 156.777344 275.898438 156.777344 C 275.898438 156.777344 274.257812 160.980469 278.011719 164.914062 " fill-opacity="1" fill-rule="nonzero"/><path fill="#f2b07c" d="M 234.160156 181.816406 C 234.160156 181.816406 242.039062 178.441406 244.023438 177.015625 C 246.007812 175.589844 255.304688 171.707031 263.433594 168.925781 C 271.558594 166.140625 278.011719 164.914062 278.011719 164.914062 L 275.898438 156.777344 C 275.898438 156.777344 255.34375 156.589844 247.332031 158.8125 C 239.316406 161.035156 236.5625 163.300781 233.414062 164.613281 C 230.265625 165.925781 218.230469 166.5625 218.230469 166.5625 C 218.230469 166.5625 220.542969 181.140625 234.160156 181.816406 " fill-opacity="1" fill-rule="nonzero"/><path fill="#fbc4d3" d="M 275.898438 156.777344 C 275.898438 156.777344 276.714844 154.691406 279.042969 153.949219 C 281.371094 153.210938 284.210938 155.058594 285.273438 155.132812 C 286.335938 155.203125 290.78125 153.636719 293.601562 154.75 C 296.417969 155.867188 297.710938 159.503906 297.925781 160.5625 C 298.136719 161.617188 296.964844 163.476562 294.085938 163.59375 C 291.210938 163.703125 283.027344 165.796875 278.011719 164.914062 C 284.78125 164.78125 287.546875 163.855469 288.664062 162.417969 C 289.78125 160.976562 287.136719 158.761719 284 158.808594 C 280.867188 158.855469 276.765625 157.820312 275.898438 156.777344 " fill-opacity="1" fill-rule="nonzero"/><path fill="#fbc4d3" d="M 181.125 169.296875 C 180.9375 171.816406 185.753906 198.144531 184.960938 198.621094 C 184.164062 199.097656 178.929688 173.429688 179.085938 169.296875 C 179.246094 165.164062 176.707031 167.566406 175.5625 168.359375 C 174.421875 169.152344 174.960938 183.09375 177.816406 202.558594 C 179.890625 216.671875 184.632812 231.328125 187.082031 238.316406 C 188.074219 238.011719 188.921875 237.582031 189.5625 236.988281 C 192.027344 234.71875 194.121094 233.972656 195.445312 234.015625 C 194.609375 223.136719 191.511719 201.605469 188.609375 189.273438 C 184.960938 173.746094 181.308594 166.773438 181.125 169.296875 " fill-opacity="1" fill-rule="nonzero"/><path fill="#fbc4d3" d="M 171.941406 169.296875 C 171.941406 168.332031 168.449219 171.050781 166.039062 180.71875 C 163.625 190.382812 163.6875 202.582031 163.054688 203.53125 C 162.417969 204.484375 162.257812 200.363281 163.054688 188.640625 C 163.675781 179.417969 167.34375 168.597656 168.882812 164.398438 C 168.316406 164.507812 167.75 164.617188 167.179688 164.714844 C 151.820312 191.070312 164.890625 235.957031 164.890625 235.957031 C 164.890625 235.957031 169.789062 237.453125 175.335938 238.320312 C 174.007812 231.433594 170.789062 213.84375 170.039062 201.472656 C 169.085938 185.789062 171.941406 170.257812 171.941406 169.296875 " fill-opacity="1" fill-rule="nonzero"/><path fill="#fbc4d3" d="M 236.054688 147.96875 C 236.054688 147.96875 227.925781 147.125 219.039062 147.335938 C 210.148438 147.546875 203.851562 150.613281 203.753906 151.5625 C 203.65625 152.511719 213.375 152.355469 229.726562 156.316406 C 241.488281 159.164062 258.183594 165.542969 266.625 168.894531 C 268.082031 161.53125 267.191406 152.617188 267.191406 152.617188 C 267.191406 152.617188 242.851562 143.113281 225.703125 143.746094 C 213.636719 144.191406 207.578125 146.625 205.042969 148.027344 C 207.769531 147.222656 211.605469 146.253906 215.652344 145.75 C 223.335938 144.796875 236.054688 147.96875 236.054688 147.96875 " fill-opacity="1" fill-rule="nonzero"/><path fill="#fbc4d3" d="M 192.261719 164.078125 C 191.628906 165.347656 196.390625 174.539062 197.34375 181.816406 C 194.167969 174.203125 187.023438 166.296875 186.386719 166.773438 C 185.753906 167.25 194.484375 191.175781 197.820312 202.558594 C 200.355469 211.222656 204.640625 227.769531 206.542969 235.175781 C 210.195312 233.949219 214.355469 232.050781 218.230469 229.308594 C 225.464844 224.1875 229.558594 216.457031 232.257812 211.300781 C 228.476562 204.03125 218.976562 186.914062 207.503906 174.855469 C 192.578125 159.167969 192.898438 162.8125 192.261719 164.078125 " fill-opacity="1" fill-rule="nonzero"/><path fill="#fbc4d3" d="M 200.160156 153.773438 L 200.722656 150.917969 C 199.582031 151.648438 198.117188 152.554688 196.386719 153.550781 C 200.890625 155.640625 208.023438 159.328125 212.671875 163.605469 C 203.402344 157.582031 199.089844 158.375 198.769531 159.453125 C 198.453125 160.53125 212.898438 168.515625 218.445312 176.753906 C 223.152344 183.75 234.855469 201.238281 238.289062 206.371094 C 239.753906 206.746094 242.003906 206.1875 247.292969 199.308594 C 256.394531 187.476562 257.03125 181.351562 259.78125 176.914062 C 260.101562 176.398438 260.382812 176.054688 260.636719 175.832031 C 254.847656 172.847656 245.757812 168.332031 233.535156 163.128906 C 210.835938 153.464844 200.160156 153.773438 200.160156 153.773438 " fill-opacity="1" fill-rule="nonzero"/><path fill="#f5a7bd" d="M 205.042969 148.027344 C 202.589844 148.753906 201.035156 149.34375 201.035156 149.34375 L 200.722656 150.917969 C 202.527344 149.761719 203.535156 149.027344 203.535156 149.027344 C 203.535156 149.027344 203.980469 148.617188 205.042969 148.027344 " fill-opacity="1" fill-rule="nonzero"/><path fill="#f5a7bd" d="M 265.5 172.902344 C 265.976562 171.671875 266.34375 170.3125 266.625 168.894531 C 258.183594 165.542969 241.488281 159.164062 229.726562 156.316406 C 213.375 152.355469 203.65625 152.511719 203.753906 151.5625 C 203.851562 150.613281 210.148438 147.546875 219.039062 147.335938 C 227.925781 147.125 236.054688 147.96875 236.054688 147.96875 C 236.054688 147.96875 223.335938 144.796875 215.652344 145.75 C 211.605469 146.253906 207.769531 147.222656 205.042969 148.027344 C 203.980469 148.617188 203.535156 149.027344 203.535156 149.027344 C 203.535156 149.027344 202.527344 149.761719 200.722656 150.917969 L 200.160156 153.773438 C 200.160156 153.773438 210.835938 153.464844 233.535156 163.128906 C 245.757812 168.332031 254.847656 172.847656 260.636719 175.832031 C 262.574219 174.132812 262.878906 179.621094 265.5 172.902344 " fill-opacity="1" fill-rule="nonzero"/><path fill="#f5a7bd" d="M 198.769531 159.453125 C 199.089844 158.375 203.402344 157.582031 212.671875 163.605469 C 208.023438 159.328125 200.890625 155.640625 196.386719 153.550781 C 189.972656 157.242188 179.894531 162.199219 168.882812 164.398438 C 167.34375 168.597656 163.675781 179.417969 163.054688 188.640625 C 162.257812 200.363281 162.417969 204.484375 163.054688 203.53125 C 163.6875 202.582031 163.625 190.382812 166.039062 180.71875 C 168.449219 171.050781 171.941406 168.332031 171.941406 169.296875 C 171.941406 170.257812 169.085938 185.789062 170.039062 201.472656 C 170.789062 213.84375 174.007812 231.433594 175.335938 238.320312 C 179.484375 238.96875 183.996094 239.265625 187.082031 238.316406 C 184.632812 231.328125 179.890625 216.671875 177.816406 202.558594 C 174.960938 183.09375 174.421875 169.152344 175.5625 168.359375 C 176.707031 167.566406 179.246094 165.164062 179.085938 169.296875 C 178.929688 173.429688 184.164062 199.097656 184.960938 198.621094 C 185.753906 198.144531 180.9375 171.816406 181.125 169.296875 C 181.308594 166.773438 184.960938 173.746094 188.609375 189.273438 C 191.511719 201.605469 194.609375 223.136719 195.445312 234.015625 C 196.964844 234.0625 197.46875 235.152344 196.339844 236.171875 C 194.980469 237.394531 199.933594 237.390625 206.542969 235.175781 C 204.640625 227.769531 200.355469 211.222656 197.820312 202.558594 C 194.484375 191.175781 185.753906 167.25 186.386719 166.773438 C 187.023438 166.296875 194.167969 174.203125 197.34375 181.816406 C 196.390625 174.539062 191.628906 165.347656 192.261719 164.078125 C 192.898438 162.8125 192.578125 159.167969 207.503906 174.855469 C 218.976562 186.914062 228.476562 204.03125 232.257812 211.300781 C 233.621094 208.695312 234.625 206.742188 235.5 206.125 C 236.582031 205.351562 237.234375 206.101562 238.289062 206.371094 C 234.855469 201.238281 223.152344 183.75 218.445312 176.753906 C 212.898438 168.515625 198.453125 160.53125 198.769531 159.453125 " fill-opacity="1" fill-rule="nonzero"/><path fill="#f2b07c" d="M 255.082031 106.699219 C 255.082031 106.699219 258.203125 101 259.398438 99.476562 C 260.59375 97.949219 265.152344 94.011719 266.714844 94.460938 C 268.277344 94.90625 266.339844 96.347656 265.535156 96.859375 C 264.726562 97.371094 263.113281 98.828125 263.113281 98.828125 C 263.507812 99.253906 267.007812 96.191406 268.46875 96.398438 C 269.929688 96.601562 269.070312 97.863281 268.136719 98.558594 C 267.199219 99.25 264.238281 101.21875 264.238281 101.21875 C 264.238281 101.21875 267.609375 99.269531 268.570312 99.136719 C 269.527344 99.007812 269.75 100.195312 268.292969 101.082031 C 266.835938 101.972656 263.757812 104.101562 264.03125 104.269531 C 264.300781 104.433594 266.847656 102.609375 267.820312 102.269531 C 268.792969 101.9375 269.371094 103.539062 267.453125 104.671875 C 265.53125 105.804688 264.152344 107.125 263.511719 107.988281 C 262.871094 108.847656 260.183594 111.984375 257.390625 112.1875 C 254.597656 112.394531 255.082031 106.699219 255.082031 106.699219 " fill-opacity="1" fill-rule="nonzero"/><path fill="#b3683f" d="M 166.546875 64.4375 C 166.546875 64.4375 159.613281 69.867188 156.40625 80.378906 C 153.195312 90.894531 156.625 96.230469 156.625 96.230469 C 156.625 96.230469 155.398438 91.546875 156.390625 86.371094 C 157.386719 81.195312 159.890625 77.71875 159.890625 77.71875 C 159.890625 77.71875 155.78125 84.484375 156.675781 91.835938 C 157.574219 99.191406 161.257812 106.890625 168.5 109.8125 C 175.746094 112.730469 190.265625 120.152344 190.265625 120.152344 C 190.265625 120.152344 200.226562 119.515625 205.523438 114.996094 C 210.824219 110.472656 213.09375 107.820312 213.09375 107.820312 C 213.09375 107.820312 210.378906 111.824219 207.21875 114.894531 C 204.0625 117.960938 200.847656 119.886719 200.847656 119.886719 C 200.847656 119.886719 208.613281 120.140625 215.113281 115.953125 C 221.613281 111.761719 225.324219 104.648438 225.324219 104.648438 C 225.324219 104.648438 220.261719 112.582031 218.238281 114.945312 C 216.214844 117.308594 214.890625 118.558594 214.890625 118.558594 C 214.890625 118.558594 221.011719 120.425781 226.585938 107.851562 C 232.15625 95.28125 230.59375 82.777344 230.59375 82.777344 L 166.546875 64.4375 " fill-opacity="1" fill-rule="nonzero"/><path fill="#9a522d" d="M 227.417969 87.109375 C 227.417969 87.109375 228.695312 93.140625 227.160156 99.75 C 225.628906 106.359375 220.820312 112.035156 220.820312 112.035156 C 220.820312 112.035156 224.949219 104.382812 225.574219 100.703125 C 226.195312 97.023438 224.847656 93.964844 224.847656 93.964844 C 224.847656 93.964844 222.523438 102.644531 217.03125 109.011719 C 211.542969 115.371094 203.226562 118.597656 203.226562 118.597656 C 203.226562 118.597656 211.078125 111.503906 213.1875 106.4375 C 215.300781 101.371094 215.300781 101.371094 215.300781 101.371094 C 215.300781 101.371094 207.386719 110.792969 199.414062 114.621094 C 191.4375 118.449219 188.078125 118.75 188.078125 118.75 C 188.078125 118.75 194.855469 116.417969 197.6875 114.164062 C 200.523438 111.917969 203.308594 107.222656 203.308594 107.222656 C 203.308594 107.222656 196.636719 113.835938 191.667969 115.320312 C 186.695312 116.804688 183.589844 116.648438 183.589844 116.648438 C 183.589844 116.648438 188.355469 115.308594 190.648438 113.238281 C 192.941406 111.160156 194.480469 108.921875 194.480469 108.921875 C 194.480469 108.921875 187.464844 114.410156 184.667969 114.785156 C 181.875 115.15625 170.035156 111.109375 170.035156 111.109375 C 170.035156 111.109375 168.15625 111.351562 166.507812 106.386719 C 164.859375 101.421875 165.691406 97.097656 165.691406 97.097656 C 165.691406 97.097656 163.667969 97.855469 163.917969 101.824219 C 164.167969 105.796875 164.90625 107.78125 164.90625 107.78125 C 164.90625 107.78125 161.988281 104.320312 161.386719 97.949219 C 160.785156 91.578125 161.242188 89.097656 161.242188 89.097656 L 162.03125 77.90625 C 162.03125 77.90625 159.222656 81.128906 157.964844 86.597656 C 156.707031 92.066406 157.410156 95.710938 157.410156 95.710938 C 157.410156 95.710938 153.6875 85.753906 161.027344 75.402344 C 168.371094 65.050781 169.699219 65.171875 169.699219 65.171875 L 227.417969 87.109375 " fill-opacity="1" fill-rule="nonzero"/><path fill="#f2b07c" d="M 166.632812 69.515625 C 166.632812 69.515625 165.351562 72.835938 163.875 74.816406 C 162.394531 76.792969 157.234375 80.152344 158.566406 88.113281 C 159.898438 96.074219 167.523438 104.785156 180.1875 108.875 C 192.851562 112.964844 201.511719 108.394531 205.027344 106.238281 C 208.542969 104.085938 210.25 102.597656 210.25 102.597656 C 210.25 102.597656 210.980469 105.589844 213.53125 106.144531 C 216.085938 106.703125 221.542969 106.210938 225.003906 100.945312 C 228.460938 95.683594 225.078125 93.441406 224.1875 92.449219 C 223.296875 91.460938 222.503906 91.285156 222.503906 91.285156 C 222.503906 91.285156 237.816406 83.148438 236.933594 65.257812 C 236.054688 47.363281 214.992188 33.449219 194.347656 36.734375 C 173.703125 40.023438 169.867188 54.171875 169.214844 58.277344 C 168.5625 62.382812 167.535156 67.449219 166.632812 69.515625 " fill-opacity="1" fill-rule="nonzero"/><g clip-path="url(#id2)"><g clip-path="url(#id3)"><path fill="#e98850" d="M 213.78125 102.394531 L 223.386719 102.394531 L 223.386719 96.28125 L 213.78125 96.28125 Z M 213.78125 102.394531 " fill-opacity="1" fill-rule="nonzero"/></g></g><path fill="#e98850" d="M 182.894531 84.035156 C 182.566406 84.035156 182.566406 83.78125 182.566406 83.78125 C 182.566406 83.78125 184.015625 82.703125 181.117188 81.101562 C 179.628906 80.285156 178.679688 80 178.085938 80 C 177.578125 80 177.332031 80.207031 177.230469 80.464844 C 177.101562 80.800781 176.832031 80.917969 176.628906 80.917969 C 176.496094 80.917969 176.390625 80.867188 176.363281 80.804688 C 176.21875 80.472656 176.035156 80.433594 177.082031 79.332031 C 177.390625 79.011719 177.902344 78.867188 178.507812 78.867188 C 179.964844 78.867188 181.964844 79.703125 182.96875 80.863281 C 184.382812 82.507812 184.066406 83.671875 183.316406 83.945312 C 183.136719 84.011719 183 84.035156 182.894531 84.035156 " fill-opacity="1" fill-rule="nonzero"/><path fill="#e98850" d="M 207.53125 81.246094 C 207.496094 81.246094 207.480469 81.183594 207.488281 81.050781 C 207.488281 81.050781 207.890625 76.789062 206.511719 75.292969 C 205.132812 73.792969 203.042969 73.121094 202.835938 72.800781 C 202.632812 72.484375 202.957031 71.386719 203.804688 71.386719 C 203.816406 71.386719 203.824219 71.386719 203.835938 71.386719 C 204.707031 71.414062 207.691406 73.6875 208.308594 76.144531 C 208.84375 78.296875 207.773438 81.246094 207.53125 81.246094 " fill-opacity="1" fill-rule="nonzero"/><path fill="#e98850" d="M 171.589844 62.976562 C 171.40625 62.976562 171.808594 60.90625 174.066406 59.792969 C 174.738281 59.460938 175.460938 59.335938 176.167969 59.335938 C 178.039062 59.335938 179.773438 60.222656 180 60.488281 C 180.300781 60.84375 179.714844 61.839844 179.113281 61.839844 C 179.085938 61.839844 179.0625 61.839844 179.039062 61.835938 C 178.421875 61.746094 177.761719 60.628906 175.457031 60.628906 C 175.425781 60.628906 175.390625 60.628906 175.359375 60.628906 C 172.976562 60.660156 171.648438 62.925781 171.648438 62.925781 C 171.625 62.960938 171.605469 62.976562 171.589844 62.976562 " fill-opacity="1" fill-rule="nonzero"/><path fill="#f48c6c" d="M 198.636719 94.605469 C 197.40625 94.605469 195.679688 94.03125 194.382812 93.410156 C 192.113281 92.316406 190.011719 91.019531 190.449219 89.304688 C 190.613281 88.660156 191.167969 88.4375 191.839844 88.4375 C 192.957031 88.4375 194.40625 89.039062 195.007812 89.304688 C 195.007812 89.304688 200.121094 91.347656 200.191406 93.394531 C 200.21875 94.277344 199.570312 94.605469 198.636719 94.605469 " fill-opacity="1" fill-rule="nonzero"/><path fill="#f48c6c" d="M 170.792969 80.539062 C 169.785156 80.539062 168.460938 80.058594 167.460938 79.523438 C 165.625 78.53125 163.9375 77.332031 164.367188 75.617188 C 164.542969 74.929688 165.0625 74.699219 165.671875 74.699219 C 166.574219 74.699219 167.679688 75.203125 168.144531 75.433594 C 168.144531 75.433594 172.300781 77.246094 172.273438 79.273438 C 172.261719 80.199219 171.640625 80.539062 170.792969 80.539062 " fill-opacity="1" fill-rule="nonzero"/><path fill="#b3683f" d="M 174.183594 47.328125 C 174.183594 47.328125 168.839844 45.117188 165.992188 55.0625 C 163.144531 65.003906 167.652344 66.839844 167.652344 66.839844 C 167.652344 66.839844 167.636719 55.277344 182.667969 53.992188 C 197.699219 52.707031 206.039062 57.839844 206.039062 57.839844 C 206.039062 57.839844 196.867188 53.339844 188.375 54.328125 C 179.882812 55.3125 176.625 57.34375 176.625 57.34375 C 176.625 57.34375 177.960938 58.378906 183.964844 59.867188 C 189.96875 61.351562 195.160156 61.15625 195.160156 61.15625 C 195.160156 61.15625 190.945312 61.78125 186.246094 60.84375 C 181.542969 59.90625 180.582031 59.546875 180.582031 59.546875 C 180.582031 59.546875 187.117188 66.433594 196.460938 68.035156 C 205.808594 69.636719 213.183594 67.894531 213.183594 67.894531 C 213.183594 67.894531 208.230469 69.316406 202.191406 68.882812 C 196.148438 68.453125 194.867188 67.988281 194.867188 67.988281 C 194.867188 67.988281 202.699219 73.234375 209.863281 75.347656 C 217.023438 77.457031 219.355469 78.390625 219.355469 78.390625 C 219.355469 78.390625 214.226562 80.53125 211.414062 84.324219 C 208.601562 88.113281 206.96875 94.816406 206.96875 94.816406 C 206.96875 94.816406 210.273438 90.890625 212.496094 87.835938 C 214.714844 84.78125 217.40625 83.589844 217.40625 83.589844 C 217.40625 83.589844 213.5 85.414062 208.679688 93.710938 C 203.863281 102.007812 204.128906 109.007812 204.128906 109.007812 C 204.128906 109.007812 205.960938 104.496094 208.109375 101.042969 C 210.253906 97.589844 212.445312 95.796875 212.445312 95.796875 C 212.445312 95.796875 208.753906 100.453125 207.476562 102.980469 C 206.195312 105.503906 205.214844 108.375 205.214844 108.375 C 205.214844 108.375 215.359375 103.167969 219.683594 96.328125 C 224.003906 89.488281 224.664062 87.660156 224.664062 87.660156 C 224.664062 87.660156 237.238281 68.5 213.191406 53.234375 C 189.144531 37.972656 176.609375 44.707031 176.609375 44.707031 L 174.183594 47.328125 " fill-opacity="1" fill-rule="nonzero"/><path fill="#9a522d" d="M 180.363281 45.480469 C 180.363281 45.480469 186.984375 45.570312 195.140625 48.25 C 203.292969 50.921875 209.125 55.652344 209.125 55.652344 C 209.125 55.652344 204.054688 52.9375 198.589844 51.335938 C 193.128906 49.738281 186.699219 49.539062 186.699219 49.539062 C 186.699219 49.539062 195.425781 50.683594 203.210938 53.832031 C 211 56.984375 215.242188 62.417969 215.242188 62.417969 C 215.242188 62.417969 209.402344 58.140625 201.941406 56.207031 C 194.480469 54.273438 189.957031 54.203125 189.957031 54.203125 C 189.957031 54.203125 203.292969 56.308594 209.304688 60.320312 C 215.3125 64.335938 216.171875 65.726562 216.171875 65.726562 C 216.171875 65.726562 211.375 67.84375 202.75 67.390625 C 194.125 66.941406 188.914062 65.496094 188.914062 65.496094 C 188.914062 65.496094 194.058594 68.589844 201.921875 68.863281 C 209.785156 69.136719 215.898438 67.832031 215.898438 67.832031 C 215.898438 67.832031 216.273438 68.980469 213.359375 70.285156 C 210.445312 71.59375 206.65625 70.933594 206.65625 70.933594 C 206.65625 70.933594 209.628906 72.042969 212.105469 72.023438 C 214.582031 72.003906 215.953125 71.886719 216.230469 72.496094 C 216.507812 73.101562 216.488281 76.070312 216.488281 76.070312 C 216.488281 76.070312 211.371094 75.34375 208.214844 74.164062 C 205.058594 72.980469 199.34375 70.6875 199.34375 70.6875 C 199.34375 70.6875 205.988281 74.183594 213.539062 76.453125 C 221.09375 78.722656 221.273438 78.414062 221.273438 78.414062 L 216.996094 58.988281 L 206.015625 49.558594 C 206.015625 49.558594 189.3125 43.324219 189.121094 43.246094 C 188.933594 43.164062 180.363281 45.480469 180.363281 45.480469 " fill-opacity="1" fill-rule="nonzero"/><path fill="#9a522d" d="M 218.78125 80.335938 C 218.78125 80.335938 215.21875 82.265625 211.847656 86.867188 C 208.476562 91.46875 206.277344 96.324219 206.277344 96.324219 C 206.277344 96.324219 210.21875 89.867188 212.929688 87.269531 C 215.640625 84.667969 221.957031 82.140625 221.957031 82.140625 C 221.957031 82.140625 215.324219 87.535156 213.710938 89.644531 C 212.097656 91.753906 211.519531 92.789062 211.519531 92.789062 C 211.519531 92.789062 214.832031 88.675781 217.324219 86.582031 C 219.8125 84.488281 221.851562 83.433594 222.320312 84.039062 C 222.789062 84.640625 222.164062 87.824219 220.414062 89.121094 C 218.660156 90.421875 214.6875 91.925781 210.910156 97.804688 C 207.132812 103.679688 206.671875 105.546875 206.671875 105.546875 C 206.671875 105.546875 209.269531 100.214844 214.417969 95.710938 C 219.570312 91.203125 221.382812 90.914062 221.382812 90.914062 C 221.382812 90.914062 219.417969 94.300781 217.132812 96.847656 C 214.851562 99.402344 212.789062 101.027344 212.789062 101.027344 C 212.789062 101.027344 219.425781 96.96875 222.503906 91.285156 C 225.585938 85.605469 223.917969 80.789062 223.917969 80.789062 L 218.78125 80.335938 " fill-opacity="1" fill-rule="nonzero"/><path fill="#b3683f" d="M 233.882812 52.425781 C 233.882812 52.425781 236.082031 47.953125 233.605469 44.570312 C 231.136719 41.1875 229.191406 40.839844 229.191406 40.839844 C 229.191406 40.839844 231.636719 42.886719 232.179688 43.707031 C 232.726562 44.523438 232.429688 45.441406 232.429688 45.441406 C 232.429688 45.441406 232.445312 43.425781 229.035156 41.253906 C 225.625 39.078125 223.777344 35.054688 210.46875 33.820312 C 197.164062 32.585938 194.273438 34.90625 191.800781 34.421875 C 189.328125 33.941406 189.105469 30.832031 189.105469 30.832031 C 189.105469 30.832031 188.132812 33.304688 189.773438 35.054688 C 191.414062 36.800781 192.644531 37.390625 192.644531 37.390625 C 192.644531 37.390625 212.75 46.511719 220.5 55.652344 C 228.25 64.789062 230.65625 85.628906 230.65625 85.628906 C 230.65625 85.628906 229.9375 86.925781 230.722656 88.425781 C 231.507812 89.933594 232.660156 89.890625 232.660156 89.890625 C 232.660156 89.890625 230.839844 88.050781 231.636719 85.996094 C 232.433594 83.941406 237.902344 84.757812 240.773438 71.550781 C 243.644531 58.34375 233.882812 52.425781 233.882812 52.425781 " fill-opacity="1" fill-rule="nonzero"/><path fill="#9a522d" d="M 238.496094 60.203125 C 238.496094 60.203125 241.5625 65.085938 239.769531 72.925781 C 237.980469 80.765625 231.574219 83.949219 231.574219 83.949219 L 230.785156 81.765625 C 230.785156 81.765625 234.757812 73.699219 234.691406 71.355469 C 234.621094 69.015625 234.179688 67.667969 234.179688 67.667969 C 234.179688 67.667969 236.007812 73.171875 235.578125 74.242188 C 235.148438 75.3125 233.566406 79.023438 233.398438 79.339844 C 233.234375 79.652344 236.710938 75.566406 237.410156 71.804688 C 238.109375 68.050781 237.089844 64.074219 237.089844 64.074219 C 237.089844 64.074219 239.367188 67.855469 238.152344 73.242188 C 236.933594 78.625 232.761719 81.746094 232.761719 81.746094 C 232.761719 81.746094 238.085938 78.15625 239.207031 72.953125 C 240.328125 67.746094 238.496094 60.203125 238.496094 60.203125 " fill-opacity="1" fill-rule="nonzero"/><path fill="#fbc4d3" d="M 222.503906 91.285156 C 222.503906 91.285156 225.519531 76.152344 214.726562 59.828125 C 203.933594 43.5 178.683594 44.207031 175.480469 46.699219 C 172.273438 49.191406 173.613281 43.511719 175.480469 43.074219 C 177.347656 42.640625 177.347656 42.640625 177.347656 42.640625 C 177.347656 42.640625 177.515625 41.4375 178.9375 40.425781 C 180.359375 39.414062 182.089844 39.210938 182.308594 39.199219 C 182.53125 39.183594 185.324219 38.054688 187.171875 37.167969 C 189.019531 36.285156 190.847656 36.96875 190.847656 36.96875 C 190.847656 36.96875 190.890625 35.519531 193.8125 36.144531 C 196.730469 36.773438 217.730469 41.828125 226.871094 62.875 C 236.007812 83.917969 229.433594 87.136719 229.050781 87.308594 C 228.671875 87.484375 228.164062 87.484375 228.164062 87.484375 C 228.164062 87.484375 228.011719 88.5625 227.0625 89.246094 C 226.109375 89.929688 225.738281 89.820312 225.738281 89.820312 C 225.738281 89.820312 225.746094 90.390625 225.5 90.457031 C 225.257812 90.523438 224.765625 90.402344 224.734375 90.484375 C 224.703125 90.566406 224.097656 92.25 222.503906 91.285156 " fill-opacity="1" fill-rule="nonzero"/><path fill="#f5a7bd" d="M 197.957031 37.296875 C 197.957031 37.296875 197.992188 38.128906 197.542969 38.398438 C 197.089844 38.671875 191.214844 37.671875 191.214844 37.671875 L 196.140625 39.515625 L 194.089844 40.105469 C 194.089844 40.105469 195.3125 41.207031 195.027344 41.601562 C 194.742188 41.996094 188.285156 41.433594 188.285156 41.433594 C 188.285156 41.433594 193.46875 42.953125 193.660156 43.441406 C 193.847656 43.929688 191.5625 42.972656 188.132812 42.511719 C 184.707031 42.050781 177.839844 42.507812 177.839844 42.507812 C 177.839844 42.507812 184.007812 42.480469 188.003906 43.03125 C 191.996094 43.578125 192.941406 44.089844 193.164062 44.757812 C 193.390625 45.421875 191.304688 46.035156 191.304688 46.035156 L 194.023438 46.582031 L 199.523438 37.882812 L 197.957031 37.296875 " fill-opacity="1" fill-rule="nonzero"/><path fill="#f5a7bd" d="M 211.53125 55.871094 C 211.476562 55.816406 210.355469 54.410156 210.222656 54.125 C 210.09375 53.839844 211.984375 54.476562 212.820312 55.097656 C 213.652344 55.714844 215.722656 58.40625 216.074219 59.8125 C 216.421875 61.21875 215.980469 60.976562 215.214844 60.199219 C 214.449219 59.421875 213.5 58.140625 213.5 58.140625 L 216.964844 63.621094 L 217.441406 58.597656 L 213.386719 52.992188 L 208.179688 52.925781 L 211.53125 55.871094 " fill-opacity="1" fill-rule="nonzero"/><path fill="#f5a7bd" d="M 222.851562 87.882812 C 222.851562 87.882812 222.78125 82.023438 222.601562 81.128906 C 222.421875 80.230469 222.796875 79.296875 222.796875 79.296875 L 230.191406 77.367188 L 231.644531 79.285156 L 231.636719 82.027344 C 231.636719 82.027344 231.304688 80.96875 231.132812 80.492188 C 230.964844 80.019531 230.398438 80.09375 230.378906 80.398438 C 230.359375 80.707031 229.847656 84.769531 229.847656 84.769531 C 229.847656 84.769531 230.054688 81.097656 229.917969 80.792969 C 229.777344 80.488281 229.03125 80.714844 229.03125 80.96875 C 229.03125 81.21875 229 82.152344 229 82.152344 C 229 82.152344 228.964844 81.226562 228.605469 81.089844 C 228.246094 80.957031 227.4375 80.75 227.433594 81.601562 C 227.433594 82.449219 227.484375 85.335938 227.480469 85.777344 C 227.472656 86.214844 227.417969 87.109375 227.417969 87.109375 C 227.417969 87.109375 227.382812 84.257812 227.085938 83.453125 C 226.789062 82.652344 226.628906 81.390625 226.3125 82.0625 C 226 82.734375 225.824219 85.222656 225.84375 86.269531 C 225.859375 87.3125 225.683594 88.539062 225.683594 88.539062 C 225.683594 88.539062 225.707031 86.121094 225.585938 85.605469 C 225.464844 85.085938 224.699219 82.910156 224.867188 84.738281 C 225.035156 86.566406 224.628906 89.753906 224.628906 89.753906 C 224.628906 89.753906 224.824219 83.09375 224.367188 82.207031 C 223.90625 81.320312 223.382812 81.882812 223.449219 83.136719 C 223.515625 84.390625 222.851562 87.882812 222.851562 87.882812 " fill-opacity="1" fill-rule="nonzero"/><path fill="#9a522d" d="M 233.453125 52.171875 C 233.453125 52.171875 234.332031 50.089844 234.097656 48.441406 C 233.863281 46.792969 233.515625 46.335938 233.515625 46.335938 C 233.515625 46.335938 233.574219 48.71875 233.410156 49.460938 C 233.246094 50.203125 232.585938 51.660156 232.585938 51.660156 C 232.585938 51.660156 233.683594 48.546875 231.347656 45.035156 C 229.015625 41.53125 223.707031 39.023438 223.707031 39.023438 C 223.707031 39.023438 230.253906 42.65625 231.097656 45.710938 C 231.9375 48.769531 229.277344 52.457031 229.277344 52.457031 C 229.277344 52.457031 229.828125 51.621094 229.15625 50 C 228.484375 48.378906 227.566406 47.796875 227.566406 47.796875 C 227.566406 47.796875 228.917969 49.625 228.773438 50.515625 C 228.628906 51.410156 228.015625 52.789062 228.015625 52.789062 C 228.015625 52.789062 227.421875 49.066406 224.953125 46.816406 C 222.476562 44.570312 220.074219 43.53125 220.074219 43.53125 C 220.074219 43.53125 223.652344 46.996094 224.472656 48.722656 C 225.292969 50.445312 224.917969 52.777344 224.917969 52.777344 C 224.917969 52.777344 223.738281 51.1875 222.136719 49.832031 C 220.539062 48.480469 219.796875 48.058594 219.796875 48.058594 C 219.796875 48.058594 221.746094 50.300781 222.152344 51.113281 C 222.558594 51.929688 222.675781 53.25 222.675781 53.25 L 218.289062 47.402344 L 217.25 49.285156 L 222.628906 55.027344 L 233.304688 52.589844 L 233.453125 52.171875 " fill-opacity="1" fill-rule="nonzero"/><path fill="#fbc4d3" d="M 222.894531 56.78125 C 222.894531 56.78125 223.828125 56.1875 223.4375 55.332031 C 223.050781 54.476562 219.84375 49.261719 218.757812 49.375 C 217.671875 49.488281 212.835938 51.652344 212.964844 53.070312 C 213.09375 54.492188 215.863281 59.355469 217.371094 59.636719 C 218.875 59.914062 222.894531 56.78125 222.894531 56.78125 " fill-opacity="1" fill-rule="nonzero"/><path fill="#fbc4d3" d="M 218.398438 50.039062 C 218.398438 50.039062 219.292969 44.453125 216.535156 38.503906 C 213.78125 32.554688 211.445312 29.855469 208.28125 30.878906 C 205.121094 31.902344 204.121094 32.535156 203.894531 33.652344 C 203.667969 34.761719 203.675781 34.765625 203.226562 35.355469 C 202.78125 35.945312 198.179688 38.449219 195.800781 40.746094 C 193.425781 43.039062 193.191406 45.847656 194.449219 47.203125 C 195.710938 48.558594 205.140625 52.207031 209.648438 53.324219 C 214.15625 54.441406 216.382812 53.386719 216.382812 53.386719 L 218.398438 50.039062 " fill-opacity="1" fill-rule="nonzero"/><path fill="#fbc4d3" d="M 223.4375 55.332031 C 223.4375 55.332031 229.671875 58.542969 233.941406 63.480469 C 238.214844 68.421875 238.460938 75.003906 237.027344 76.800781 C 235.597656 78.597656 233.484375 77.496094 232.875 77.769531 C 232.265625 78.050781 232.113281 79.628906 230.5 79.722656 C 228.890625 79.8125 227.628906 79.464844 227.242188 79.824219 C 226.855469 80.1875 224.648438 80.179688 224.472656 80.304688 C 224.300781 80.429688 221.660156 81.898438 219.738281 81.308594 C 217.8125 80.714844 217.003906 76.816406 216.800781 71.636719 C 216.597656 66.453125 217.144531 58.589844 217.144531 58.589844 L 223.4375 55.332031 " fill-opacity="1" fill-rule="nonzero"/><path fill="#f5a7bd" d="M 218.46875 49.429688 C 218.46875 49.429688 216.539062 49.691406 214.742188 50.945312 C 212.945312 52.195312 213.160156 53.832031 213.160156 53.832031 L 211.328125 53.664062 C 211.328125 53.664062 211.628906 52.617188 211.886719 52.175781 C 212.140625 51.738281 206.386719 48.722656 204.789062 47.765625 C 203.1875 46.8125 212.078125 50.5625 213.207031 50.914062 C 214.332031 51.265625 208.914062 47.882812 208.289062 47.019531 C 207.664062 46.15625 213.195312 49.773438 214.238281 50.1875 C 215.277344 50.601562 207.253906 41.527344 206.265625 39.957031 C 205.273438 38.390625 214.496094 49.492188 215.566406 49.339844 C 216.628906 49.191406 213.867188 46.457031 213.132812 44.039062 C 212.398438 41.621094 214.816406 44.605469 216.140625 46.800781 C 217.460938 49 218.300781 50.636719 217.910156 48.472656 C 217.523438 46.308594 218.46875 49.429688 218.46875 49.429688 " fill-opacity="1" fill-rule="nonzero"/><path fill="#f5a7bd" d="M 223.4375 55.332031 C 223.4375 55.332031 224.167969 56.03125 221.5625 57.800781 C 218.957031 59.566406 217.085938 59.542969 217.085938 59.542969 L 216.921875 62.601562 C 216.921875 62.601562 217.375 61.007812 217.71875 60.851562 C 218.0625 60.695312 219.234375 66.496094 219.917969 67.695312 C 220.605469 68.898438 219.230469 60.945312 219.234375 60.601562 C 219.238281 60.253906 220.46875 62.355469 221.660156 63.554688 C 222.851562 64.757812 220.34375 60.667969 220.179688 60.101562 C 220.011719 59.535156 226.667969 68.390625 227.480469 69.261719 C 228.289062 70.128906 221.632812 59.761719 221.445312 59.25 C 221.257812 58.742188 223.046875 60.039062 224.753906 60.867188 C 226.464844 61.695312 224.675781 59.570312 223.660156 58.910156 C 222.644531 58.25 222.199219 56.570312 224.449219 57.980469 C 226.699219 59.386719 231.257812 62.726562 230.085938 61.3125 C 228.910156 59.898438 225.246094 57.710938 224.609375 57.21875 C 223.972656 56.730469 224.394531 55.863281 224.394531 55.863281 L 223.4375 55.332031 " fill-opacity="1" fill-rule="nonzero"/><path fill="#cd7b96" d="M 213.152344 53.617188 C 213.152344 53.617188 208.5 52.835938 204.464844 51.359375 C 200.425781 49.878906 195.363281 47.800781 194.867188 47.015625 C 194.375 46.230469 194.183594 45.308594 197.667969 46.453125 C 201.15625 47.597656 213.191406 53.234375 213.191406 53.234375 L 213.152344 53.617188 " fill-opacity="1" fill-rule="nonzero"/><path fill="#cd7b96" d="M 217.398438 59.523438 C 217.398438 59.523438 216.957031 68.605469 217.335938 72.433594 C 217.714844 76.261719 218.488281 79.421875 219.484375 80.296875 C 220.480469 81.175781 220.566406 79.476562 220.257812 74.660156 C 219.949219 69.847656 217.753906 59.46875 217.753906 59.46875 L 217.398438 59.523438 " fill-opacity="1" fill-rule="nonzero"/><path fill="#9a522d" d="M 176.660156 50.707031 C 176.660156 50.707031 170.867188 51.875 167.960938 56.214844 C 165.054688 60.554688 166.511719 65.90625 166.511719 65.90625 C 166.511719 65.90625 159.84375 54.957031 176.660156 50.707031 " fill-opacity="1" fill-rule="nonzero"/><path fill="#1e1514" d="M 192.269531 82.40625 C 192.269531 82.40625 189.976562 86.496094 194.390625 87.71875 C 198.222656 88.777344 200.625 87.03125 200.625 87.03125 L 199.519531 86.207031 C 199.519531 86.207031 196.992188 87.761719 194.269531 86.46875 C 191.546875 85.175781 192.859375 82.566406 192.859375 82.566406 L 192.269531 82.40625 " fill-opacity="1" fill-rule="nonzero"/><path fill="#1e1514" d="M 199.519531 86.207031 C 199.519531 86.207031 200.84375 87.207031 201.398438 87.292969 C 201.949219 87.375 202.640625 87.410156 202.640625 87.410156 C 202.640625 87.410156 201.90625 87.691406 200.960938 87.5625 C 200.015625 87.4375 199.839844 87.253906 199.839844 87.253906 L 199.519531 86.207031 " fill-opacity="1" fill-rule="nonzero"/><path fill="#1e1514" d="M 199.238281 87.503906 C 199.238281 87.503906 199.335938 87.890625 200.039062 88.164062 C 200.742188 88.4375 201.304688 88.355469 201.304688 88.355469 C 201.304688 88.355469 200.722656 88.621094 199.738281 88.355469 C 198.75 88.089844 198.5625 87.671875 198.5625 87.671875 L 199.238281 87.503906 " fill-opacity="1" fill-rule="nonzero"/><path fill="#1e1514" d="M 197.78125 87.707031 C 197.78125 87.707031 197.757812 88.105469 198.347656 88.578125 C 198.933594 89.046875 199.5 89.136719 199.5 89.136719 C 199.5 89.136719 198.863281 89.214844 198 88.667969 C 197.140625 88.121094 197.085938 87.671875 197.085938 87.671875 L 197.78125 87.707031 " fill-opacity="1" fill-rule="nonzero"/><path fill="#1e1514" d="M 176.519531 74.476562 C 176.519531 74.476562 174.824219 78.84375 171.695312 76.328125 C 168.984375 74.144531 168.976562 71.21875 168.976562 71.21875 L 170.121094 71.511719 C 170.121094 71.511719 170.328125 74.40625 172.636719 75.609375 C 174.945312 76.8125 176.101562 74.140625 176.101562 74.140625 L 176.519531 74.476562 " fill-opacity="1" fill-rule="nonzero"/><path fill="#1e1514" d="M 170.121094 71.511719 C 170.121094 71.511719 168.738281 71.164062 168.394531 70.804688 C 168.050781 70.449219 167.671875 69.953125 167.671875 69.953125 C 167.671875 69.953125 167.851562 70.683594 168.429688 71.308594 C 169.003906 71.9375 169.222656 71.949219 169.222656 71.949219 L 170.121094 71.511719 " fill-opacity="1" fill-rule="nonzero"/><path fill="#1e1514" d="M 169.355469 72.558594 C 169.355469 72.558594 169.035156 72.738281 168.480469 72.386719 C 167.925781 72.039062 167.695312 71.566406 167.695312 71.566406 C 167.695312 71.566406 167.808594 72.171875 168.5 72.738281 C 169.195312 73.304688 169.582031 73.175781 169.582031 73.175781 L 169.355469 72.558594 " fill-opacity="1" fill-rule="nonzero"/><path fill="#1e1514" d="M 169.960938 73.785156 C 169.960938 73.785156 169.691406 74.058594 169.058594 73.921875 C 168.429688 73.785156 168.074219 73.421875 168.074219 73.421875 C 168.074219 73.421875 168.34375 73.945312 169.171875 74.238281 C 170 74.53125 170.34375 74.277344 170.34375 74.277344 L 169.960938 73.785156 " fill-opacity="1" fill-rule="nonzero"/><path fill="#b2313f" d="M 172.273438 84.035156 C 172.273438 84.035156 171.890625 87.96875 175.699219 89.503906 C 179.507812 91.035156 184.589844 90.824219 184.484375 91.246094 C 184.378906 91.667969 179.125 92.214844 174.761719 90.242188 C 171.519531 88.777344 171.414062 84.804688 171.625 84.035156 C 171.835938 83.269531 172.550781 83.375 172.273438 84.035156 " fill-opacity="1" fill-rule="nonzero"/><path fill="#f2b07c" d="M 201.046875 112.636719 C 201.046875 112.636719 217.238281 114.800781 232.691406 111.84375 C 248.140625 108.886719 255.761719 105.546875 255.761719 105.546875 L 258.089844 112.054688 C 258.089844 112.054688 240.203125 122.195312 223.269531 125.574219 C 206.339844 128.957031 198.5625 127.476562 198.5625 127.476562 C 198.5625 127.476562 197.136719 117.871094 201.046875 112.636719 " fill-opacity="1" fill-rule="nonzero"/><path fill="#f2b07c" d="M 129.84375 70.171875 C 129.84375 70.171875 131 63.78125 131.027344 61.847656 C 131.054688 59.910156 129.984375 53.988281 128.488281 53.359375 C 126.988281 52.726562 127.589844 55.0625 127.898438 55.964844 C 128.203125 56.871094 128.542969 59.015625 128.542969 59.015625 C 127.964844 59.097656 127.167969 54.523438 125.902344 53.769531 C 124.636719 53.011719 124.511719 54.535156 124.800781 55.660156 C 125.09375 56.785156 126.160156 60.171875 126.160156 60.171875 C 126.160156 60.171875 124.761719 56.542969 124.101562 55.839844 C 123.4375 55.136719 122.515625 55.921875 123.089844 57.523438 C 123.667969 59.128906 124.722656 62.714844 124.40625 62.675781 C 124.089844 62.636719 123.257812 59.621094 122.710938 58.746094 C 122.164062 57.875 120.707031 58.761719 121.488281 60.847656 C 122.273438 62.929688 122.515625 64.824219 122.472656 65.894531 C 122.429688 66.96875 122.550781 71.089844 124.597656 73.003906 C 126.640625 74.914062 129.84375 70.171875 129.84375 70.171875 " fill-opacity="1" fill-rule="nonzero"/><path fill="#f2b07c" d="M 168.179688 108.648438 C 168.179688 108.648438 154.210938 100.1875 144.042969 88.207031 C 133.875 76.222656 130.042969 68.851562 130.042969 68.851562 L 124.136719 72.460938 C 124.136719 72.460938 131.683594 91.558594 142.738281 104.796875 C 153.796875 118.039062 160.777344 121.757812 160.777344 121.757812 C 160.777344 121.757812 167.929688 115.171875 168.179688 108.648438 " fill-opacity="1" fill-rule="nonzero"/><path fill="#f2b07c" d="M 168.179688 108.648438 C 168.179688 108.648438 173.847656 112.054688 175.277344 111.683594 C 176.707031 111.316406 177.445312 107.460938 177.445312 107.460938 L 190.992188 109.585938 C 190.992188 109.585938 189.828125 113.535156 190.621094 114.0625 C 191.414062 114.589844 194.511719 112.070312 201.046875 112.636719 C 208.347656 116.332031 198.5625 127.476562 198.5625 127.476562 C 198.5625 127.476562 187.59375 141.210938 178.023438 139.941406 C 168.449219 138.675781 160.832031 116.671875 160.832031 116.671875 L 168.179688 108.648438 " fill-opacity="1" fill-rule="nonzero"/><path fill="#cbecd8" d="M 161.78125 117.953125 C 161.78125 117.953125 171.625 123.515625 174.640625 131.914062 C 178.769531 125.894531 189.085938 120.609375 198.5625 127.476562 C 196.707031 136.191406 199.882812 145.382812 203.535156 149.027344 C 197.183594 160.277344 181.242188 168.992188 167.179688 164.714844 C 160.578125 152.671875 155.035156 129.167969 161.78125 117.953125 " fill-opacity="1" fill-rule="nonzero"/></svg>