<svg xmlns="http://www.w3.org/2000/svg" xmlns:xlink="http://www.w3.org/1999/xlink" width="559" zoomAndPan="magnify" viewBox="0 0 419.25 297.749993" height="396" preserveAspectRatio="xMidYMid meet" version="1.0"><defs><clipPath id="id1"><path d="M 0 0.140625 L 418.5 0.140625 L 418.5 297.359375 L 0 297.359375 Z M 0 0.140625 " clip-rule="nonzero"/></clipPath><clipPath id="id2"><path d="M 103.386719 75 L 149 75 L 149 99 L 103.386719 99 Z M 103.386719 75 " clip-rule="nonzero"/></clipPath></defs><g clip-path="url(#id1)"><path fill="#ffffff" d="M 0 0.140625 L 419.25 0.140625 L 419.25 2729.007812 L 0 2729.007812 Z M 0 0.140625 " fill-opacity="1" fill-rule="nonzero"/><path fill="#ffde59" d="M 0 0.140625 L 418.5 0.140625 L 418.5 297.359375 L 0 297.359375 Z M 0 0.140625 " fill-opacity="1" fill-rule="nonzero"/><path fill="#ffffff" d="M 0 0.140625 L 418.5 0.140625 L 418.5 297.359375 L 0 297.359375 Z M 0 0.140625 " fill-opacity="1" fill-rule="nonzero"/><path fill="#ffde59" d="M 0 0.140625 L 418.5 0.140625 L 418.5 297.359375 L 0 297.359375 Z M 0 0.140625 " fill-opacity="1" fill-rule="nonzero"/></g><path fill="#6a9967" d="M 193.539062 137.980469 C 193.539062 137.980469 220.449219 108.550781 219.398438 89.804688 C 218.347656 71.058594 212.769531 62.21875 212.769531 62.21875 C 212.769531 62.21875 269.769531 44.15625 271.585938 45.953125 C 273.398438 47.746094 256.160156 54.964844 255.480469 74.027344 C 254.800781 93.089844 258.835938 114.636719 258.835938 114.636719 L 229.929688 145.632812 L 200.851562 143.617188 L 193.539062 137.980469 " fill-opacity="1" fill-rule="nonzero"/><path fill="#3d8e38" d="M 207.222656 217.363281 C 207.222656 217.363281 210.4375 232.03125 209.464844 234.199219 C 208.496094 236.367188 198.558594 236.890625 200.5 241.230469 C 202.445312 245.570312 219.097656 241.679688 219.773438 240.558594 C 220.445312 239.4375 221.191406 212.425781 221.191406 212.425781 L 215.441406 210.632812 L 206.476562 213.921875 L 207.222656 217.363281 " fill-opacity="1" fill-rule="nonzero"/><path fill="#3d8e38" d="M 140.75 208.910156 C 140.75 208.910156 143.660156 236.367188 142.839844 237.417969 C 142.019531 238.464844 135.820312 239.363281 135.746094 242.128906 C 135.667969 244.898438 152.996094 245.496094 154.640625 241.605469 C 156.285156 237.714844 156.058594 212.875 156.058594 212.875 L 140.75 208.910156 " fill-opacity="1" fill-rule="nonzero"/><path fill="#3d8e38" d="M 254.355469 170.976562 C 254.355469 170.976562 264.660156 168.957031 266.003906 170.191406 C 267.351562 171.425781 267.125 177.261719 267.796875 178.046875 C 268.46875 178.832031 279.898438 176.363281 281.464844 177.375 C 283.035156 178.382812 278.441406 188.597656 279 189.15625 C 279.5625 189.71875 292.222656 191.851562 293.34375 193.984375 C 294.460938 196.117188 288.300781 203.960938 288.859375 205.058594 C 289.421875 206.15625 298.273438 208.011719 298.609375 210.257812 C 298.945312 212.503906 293.679688 215.417969 294.015625 216.316406 C 294.351562 217.214844 301.074219 225.296875 301.410156 227.429688 C 301.746094 229.5625 295.941406 229.671875 296.210938 230.457031 C 296.480469 231.246094 301.773438 234.386719 301.425781 235.734375 C 301.074219 237.082031 296.703125 239.4375 296.703125 240.109375 C 296.703125 240.785156 301.410156 244.710938 300.960938 246.507812 C 300.511719 248.304688 295.359375 249.425781 295.246094 249.988281 C 295.136719 250.546875 298.160156 257.394531 297.375 258.179688 C 296.589844 258.964844 291.4375 258.515625 290.988281 259.1875 C 290.542969 259.863281 290.765625 265.585938 288.859375 266.371094 C 286.957031 267.15625 284.03125 265.910156 283.144531 265.585938 C 282.265625 265.261719 280.121094 270.523438 278.554688 271.199219 C 276.984375 271.871094 274.519531 268.617188 273.285156 268.839844 C 272.054688 269.066406 268.582031 272.875 267.460938 272.765625 C 266.34375 272.65625 264.660156 270.75 264.660156 270.75 L 260.179688 272.765625 L 256.707031 271.535156 L 249.761719 273.441406 L 245.277344 272.765625 L 238.445312 273.441406 L 235.53125 271.085938 C 235.53125 271.085938 269.253906 265.921875 269.925781 265.8125 C 270.597656 265.699219 284.601562 254.925781 284.601562 254.925781 C 284.601562 254.925781 289.644531 243.140625 289.757812 242.804688 C 289.867188 242.464844 286.957031 215.867188 286.957031 215.867188 C 286.957031 215.867188 277.433594 201.277344 276.648438 199.59375 C 275.863281 197.910156 262.644531 183.433594 262.644531 183.433594 L 252.671875 171.988281 L 254.355469 170.976562 " fill-opacity="1" fill-rule="nonzero"/><path fill="#3d8e38" d="M 192.171875 35.289062 C 192.171875 35.289062 203.265625 23.429688 205.804688 24.179688 C 208.34375 24.925781 203.117188 37.945312 203.789062 39.21875 C 204.460938 40.488281 218.351562 38.617188 220.070312 41.761719 C 221.789062 44.902344 209.988281 48.945312 210.957031 51.1875 C 211.929688 53.433594 225 56.949219 225.148438 58.070312 C 225.300781 59.195312 214.394531 66.976562 214.617188 67.796875 C 214.84375 68.621094 224.179688 75.058594 224.179688 77.074219 C 224.179688 79.097656 214.992188 82.386719 214.769531 83.882812 C 214.542969 85.382812 220.144531 91.667969 219.546875 95.257812 C 218.953125 98.847656 210.511719 101.320312 210.210938 102.367188 C 209.914062 103.414062 214.171875 110.296875 213.871094 112.242188 C 213.570312 114.1875 201.769531 118.527344 201.769531 118.527344 C 201.769531 118.527344 206.476562 81.714844 206.550781 81.042969 C 206.625 80.367188 203.191406 65.628906 203.191406 65.628906 L 195.421875 45.054688 L 192.171875 35.289062 " fill-opacity="1" fill-rule="nonzero"/><path fill="#7ecf69" d="M 192.171875 35.289062 C 192.171875 35.289062 162.597656 48.308594 149.488281 54.480469 C 136.378906 60.652344 131.785156 62.785156 131.785156 64.582031 C 131.785156 66.378906 137.050781 76.703125 146.6875 75.242188 C 156.320312 73.785156 159.347656 71.765625 159.347656 71.765625 C 159.347656 71.765625 161.25 72.4375 167.75 72.886719 C 174.246094 73.335938 177.273438 76.308594 182.761719 75.382812 C 188.253906 74.457031 193.855469 70.753906 193.855469 70.753906 C 193.855469 70.753906 200.6875 85.007812 186.90625 102.964844 C 173.128906 120.921875 147.695312 132.59375 137.273438 153.582031 C 126.855469 174.566406 126.96875 190.28125 135.929688 203.859375 C 144.894531 217.441406 158.449219 217.328125 160.578125 223.164062 C 162.707031 229 164.277344 244.261719 161.921875 246.507812 C 159.570312 248.75 152.734375 248.191406 152.847656 251.667969 C 152.960938 255.148438 173.238281 255.824219 174.359375 252.34375 C 175.480469 248.863281 172.902344 223.050781 176.152344 222.042969 C 179.402344 221.03125 187.691406 226.417969 201.695312 222.042969 C 215.699219 217.664062 218.726562 213.960938 218.726562 213.960938 C 218.726562 213.960938 223.65625 238.203125 221.191406 240.335938 C 218.726562 242.464844 209.316406 242.019531 209.425781 245.832031 C 209.539062 249.648438 228.246094 250.996094 231.832031 245.945312 C 235.417969 240.894531 234.632812 214.183594 239.453125 213.625 C 244.269531 213.0625 270.824219 235.058594 264.882812 248.863281 C 258.949219 262.667969 212.453125 268.839844 212.003906 271.535156 C 211.558594 274.226562 270.597656 272.769531 283.707031 264.464844 C 296.816406 256.160156 299.617188 236.40625 292.109375 212.726562 C 284.601562 189.046875 252.894531 166.261719 237.773438 155.152344 C 222.644531 144.042969 203.9375 135.0625 204.496094 119.011719 C 205.058594 102.964844 217.605469 92.078125 213.234375 67.835938 C 208.867188 43.59375 199.566406 37.535156 196.65625 36.523438 C 193.742188 35.515625 192.171875 35.289062 192.171875 35.289062 " fill-opacity="1" fill-rule="nonzero"/><path fill="#3d8e38" d="M 142.136719 198.988281 C 141.738281 198.554688 141.207031 198.203125 140.742188 197.84375 C 140.117188 197.359375 139.441406 197.121094 138.652344 197.257812 C 138.296875 197.324219 137.917969 197.703125 137.855469 198.058594 C 137.714844 198.847656 137.957031 199.519531 138.441406 200.152344 C 138.800781 200.617188 139.152344 201.148438 139.585938 201.546875 C 140.28125 202.1875 141.457031 202.285156 142.136719 201.546875 C 142.820312 200.800781 142.820312 199.734375 142.136719 198.988281 " fill-opacity="1" fill-rule="nonzero"/><path fill="#3d8e38" d="M 144.710938 194.730469 C 144.203125 194.226562 143.507812 194.089844 142.84375 194.328125 C 142.515625 194.449219 142.1875 194.644531 142.019531 194.96875 C 141.847656 195.292969 141.769531 195.675781 141.878906 196.035156 C 142.066406 196.652344 142.46875 197.285156 143.164062 197.386719 C 143.53125 197.441406 143.84375 197.457031 144.199219 197.304688 C 144.503906 197.179688 144.796875 196.957031 144.957031 196.65625 C 145.289062 196.03125 145.222656 195.242188 144.710938 194.730469 " fill-opacity="1" fill-rule="nonzero"/><path fill="#3d8e38" d="M 138.167969 189.394531 C 137.734375 188.355469 136.957031 187.628906 136.429688 186.640625 C 135.984375 185.800781 135.574219 184.855469 135.242188 183.96875 C 134.96875 183.25 133.914062 182.957031 133.492188 183.742188 C 132.78125 185.066406 132.59375 186.269531 132.847656 187.765625 C 133.117188 189.347656 133.703125 190.859375 135.019531 191.824219 C 136.457031 192.871094 138.878906 191.097656 138.167969 189.394531 " fill-opacity="1" fill-rule="nonzero"/><path fill="#3d8e38" d="M 142.542969 184.683594 C 142.820312 184.96875 142.539062 184.628906 142.488281 184.542969 C 142.367188 184.347656 142.207031 184.183594 142.085938 183.992188 C 141.9375 183.765625 142.308594 184.296875 142.03125 183.867188 C 141.960938 183.761719 141.882812 183.671875 141.800781 183.589844 L 141.65625 183.332031 C 141.046875 182.238281 139.113281 182.671875 139.210938 183.996094 C 139.210938 183.992188 139.238281 184.316406 139.246094 184.296875 C 139.242188 184.503906 139.214844 184.746094 139.210938 184.957031 C 139.207031 185.117188 139.183594 185.273438 139.183594 185.4375 C 139.183594 185.558594 139.15625 186.023438 139.246094 185.554688 C 139.113281 186.261719 139.226562 186.949219 139.753906 187.476562 C 140.25 187.972656 140.992188 188.171875 141.671875 187.984375 C 143.113281 187.585938 143.574219 185.742188 142.542969 184.683594 " fill-opacity="1" fill-rule="nonzero"/><path fill="#3d8e38" d="M 138.390625 178.011719 C 138.292969 177.601562 138.097656 177.25 137.796875 176.953125 C 137.769531 176.921875 137.753906 176.90625 137.738281 176.886719 C 137.730469 176.871094 137.71875 176.855469 137.707031 176.839844 C 137.5 176.539062 137.316406 176.292969 137.082031 176.089844 C 136.746094 175.617188 136.199219 175.3125 135.589844 175.507812 C 134.953125 175.714844 134.375 176.453125 134.609375 177.160156 C 134.597656 177.460938 134.644531 177.765625 134.6875 178.113281 C 134.707031 178.246094 134.703125 178.207031 134.667969 177.992188 C 134.671875 178.078125 134.675781 178.164062 134.675781 178.25 C 134.703125 178.699219 134.78125 179.046875 135.003906 179.441406 C 135.457031 180.246094 136.488281 180.550781 137.316406 180.199219 C 138.183594 179.835938 138.601562 178.921875 138.390625 178.011719 " fill-opacity="1" fill-rule="nonzero"/><path fill="#3d8e38" d="M 140.820312 171.320312 C 140.816406 171.300781 140.8125 171.285156 140.808594 171.269531 C 140.921875 170.636719 140.609375 169.914062 139.933594 169.761719 C 139.261719 169.609375 138.59375 169.964844 138.394531 170.636719 C 138.390625 170.652344 138.382812 170.671875 138.378906 170.691406 C 138.375 170.699219 138.371094 170.703125 138.363281 170.710938 C 138.292969 170.789062 138.230469 170.886719 138.167969 170.972656 C 137.863281 171.371094 137.929688 172.03125 138.167969 172.4375 C 138.398438 172.832031 138.78125 173.070312 139.226562 173.132812 C 139.679688 173.191406 140.117188 173.058594 140.445312 172.730469 C 140.839844 172.335938 140.90625 171.84375 140.820312 171.320312 " fill-opacity="1" fill-rule="nonzero"/><path fill="#3d8e38" d="M 136.597656 166.109375 C 136.921875 165.566406 136.84375 164.773438 136.382812 164.347656 C 135.78125 163.796875 134.953125 163.8125 134.355469 164.347656 C 133.894531 164.757812 133.652344 165.535156 133.84375 166.128906 C 134 166.617188 134.390625 167.03125 134.894531 167.164062 C 135.179688 167.238281 135.414062 167.21875 135.703125 167.175781 C 135.953125 167.140625 136.1875 166.929688 136.328125 166.746094 C 136.453125 166.585938 136.550781 166.382812 136.578125 166.175781 C 136.585938 166.152344 136.59375 166.128906 136.597656 166.109375 " fill-opacity="1" fill-rule="nonzero"/><path fill="#3d8e38" d="M 150.820312 208.703125 C 149.96875 208.113281 148.855469 207.941406 147.953125 207.390625 C 147.121094 206.886719 146.230469 206.324219 145.546875 205.628906 C 144.714844 204.78125 143.011719 205.636719 143.457031 206.847656 C 143.964844 208.222656 144.511719 209.425781 145.574219 210.476562 C 146.722656 211.605469 148.089844 212.621094 149.71875 212.785156 C 150.65625 212.878906 151.589844 212.039062 151.828125 211.175781 C 152.09375 210.195312 151.625 209.253906 150.820312 208.703125 " fill-opacity="1" fill-rule="nonzero"/><path fill="#3d8e38" d="M 150.375 201.789062 C 150.277344 201.769531 150.179688 201.75 150.082031 201.726562 C 150.078125 201.722656 149.980469 201.691406 149.902344 201.664062 C 149.851562 201.644531 149.796875 201.617188 149.78125 201.609375 C 149.675781 201.5625 149.585938 201.507812 149.488281 201.449219 C 149.476562 201.441406 149.46875 201.433594 149.457031 201.421875 C 149.382812 201.351562 149.308594 201.285156 149.238281 201.210938 C 149.109375 201.078125 148.996094 200.949219 148.871094 200.828125 C 148.847656 200.796875 148.824219 200.765625 148.804688 200.730469 C 147.910156 199.285156 145.65625 200.21875 146.070312 201.882812 C 146.09375 201.972656 146.179688 202.234375 146.15625 202.117188 C 146.230469 202.429688 146.273438 202.703125 146.425781 203.003906 C 146.59375 203.351562 146.804688 203.652344 147.039062 203.953125 C 147.117188 204.054688 147.191406 204.15625 147.273438 204.253906 C 147.125 204.058594 147.136719 204.074219 147.316406 204.308594 C 147.445312 204.472656 147.574219 204.625 147.722656 204.769531 C 148.042969 205.074219 148.410156 205.34375 148.773438 205.59375 C 149.519531 206.105469 150.6875 205.894531 151.292969 205.269531 C 151.667969 204.886719 151.929688 204.347656 151.902344 203.796875 C 151.859375 202.933594 151.292969 201.972656 150.375 201.789062 " fill-opacity="1" fill-rule="nonzero"/><path fill="#3d8e38" d="M 151.710938 194.273438 C 151.476562 193.921875 151.222656 193.660156 150.859375 193.46875 C 150.839844 193.457031 150.753906 193.394531 150.695312 193.359375 C 150.78125 193.421875 150.898438 193.5625 150.699219 193.371094 C 150.699219 193.367188 150.695312 193.363281 150.6875 193.355469 C 150.675781 193.347656 150.667969 193.34375 150.65625 193.339844 C 150.65625 193.339844 150.65625 193.339844 150.652344 193.335938 C 150.664062 193.339844 150.675781 193.347656 150.6875 193.355469 C 150.640625 193.300781 150.554688 193.175781 150.644531 193.328125 C 150.625 193.300781 150.601562 193.269531 150.582031 193.242188 C 150.5625 193.171875 150.542969 193.101562 150.53125 193.027344 C 150.398438 192.308594 149.582031 191.882812 148.917969 191.972656 C 148.183594 192.070312 147.664062 192.679688 147.640625 193.417969 C 147.636719 193.523438 147.640625 193.628906 147.648438 193.734375 C 147.664062 193.960938 147.785156 194.484375 147.6875 194.042969 C 147.730469 194.242188 147.714844 194.464844 147.769531 194.667969 C 147.816406 194.839844 147.886719 195 147.957031 195.160156 C 148.265625 195.890625 148.855469 196.769531 149.695312 196.898438 C 150.425781 197.011719 151.089844 196.878906 151.570312 196.257812 C 151.984375 195.71875 152.101562 194.867188 151.710938 194.273438 " fill-opacity="1" fill-rule="nonzero"/><path fill="#3d8e38" d="M 150.695312 193.359375 C 150.691406 193.355469 150.691406 193.355469 150.6875 193.355469 C 150.691406 193.355469 150.691406 193.359375 150.695312 193.359375 " fill-opacity="1" fill-rule="nonzero"/><path fill="#3d8e38" d="M 160.839844 213.269531 C 160.292969 213.0625 159.847656 213.140625 159.296875 213.21875 C 159.265625 213.21875 159.230469 213.214844 159.179688 213.214844 C 159.09375 213.214844 159.007812 213.226562 158.921875 213.238281 C 158.679688 213.171875 158.492188 213.085938 158.269531 213 C 157.863281 212.601562 157.296875 212.429688 156.75 212.75 C 156.167969 213.089844 155.972656 213.863281 156.304688 214.449219 C 156.523438 214.828125 156.691406 215.277344 157.011719 215.632812 C 157.183594 215.820312 157.363281 215.957031 157.570312 216.113281 C 157.660156 216.183594 157.753906 216.253906 157.851562 216.3125 C 157.710938 216.1875 157.742188 216.207031 157.945312 216.371094 C 159.070312 217.109375 160.632812 217.339844 161.621094 216.238281 C 162.566406 215.1875 162.105469 213.75 160.839844 213.269531 " fill-opacity="1" fill-rule="nonzero"/><path fill="#3d8e38" d="M 162.25 205.625 C 162.179688 205.453125 162.125 205.265625 162.03125 205.109375 C 161.746094 204.617188 161.246094 204.347656 160.703125 204.277344 C 160.398438 204.234375 160.089844 204.226562 159.785156 204.214844 C 158.988281 204.175781 158.308594 204.855469 158.207031 205.609375 C 158.097656 206.425781 158.59375 207.109375 159.359375 207.371094 C 159.578125 207.449219 159.796875 207.539062 160.023438 207.601562 C 160.71875 207.792969 161.378906 207.585938 161.867188 207.070312 C 162.199219 206.71875 162.449219 206.105469 162.25 205.625 " fill-opacity="1" fill-rule="nonzero"/><path fill="#3d8e38" d="M 185.128906 215.394531 C 183.792969 215.175781 182.132812 215.679688 180.890625 214.878906 C 180.234375 214.457031 179.3125 214.75 178.929688 215.394531 C 178.492188 216.121094 178.828125 216.894531 179.441406 217.359375 C 179.816406 217.640625 180.113281 218.03125 180.519531 218.296875 C 180.953125 218.582031 181.441406 218.777344 181.917969 218.972656 C 182.945312 219.398438 184.019531 219.691406 185.128906 219.421875 C 187.023438 218.957031 187.203125 215.738281 185.128906 215.394531 " fill-opacity="1" fill-rule="nonzero"/><path fill="#3d8e38" d="M 183.046875 208.808594 C 182.421875 208.527344 181.839844 208.433594 181.171875 208.347656 C 180.695312 208.289062 180.191406 208.167969 179.714844 208.226562 C 179.074219 208.308594 178.503906 208.621094 178.320312 209.292969 C 178.148438 209.929688 178.445312 210.578125 178.988281 210.925781 C 179.445312 211.226562 180.011719 211.367188 180.527344 211.539062 C 181.089844 211.726562 181.605469 211.890625 182.210938 211.910156 C 182.910156 211.929688 183.652344 211.378906 183.8125 210.6875 C 183.964844 210.023438 183.730469 209.109375 183.046875 208.808594 " fill-opacity="1" fill-rule="nonzero"/><path fill="#3d8e38" d="M 173.164062 202.324219 C 172.945312 202.082031 172.667969 201.910156 172.300781 201.835938 C 172.070312 201.785156 171.835938 201.746094 171.605469 201.703125 C 170.9375 201.574219 170.289062 201.832031 170.015625 202.484375 C 169.769531 203.066406 169.964844 203.867188 170.566406 204.167969 C 171.148438 204.460938 171.785156 204.84375 172.425781 204.71875 C 172.449219 204.71875 172.472656 204.71875 172.492188 204.71875 C 173.039062 204.722656 173.613281 204.316406 173.738281 203.769531 C 173.875 203.171875 173.632812 202.683594 173.164062 202.324219 " fill-opacity="1" fill-rule="nonzero"/><path fill="#3d8e38" d="M 195.203125 208.5625 C 193.828125 208.335938 192.253906 208.871094 191.0625 209.574219 C 190.425781 209.953125 190.285156 211.121094 191.0625 211.460938 C 192.253906 211.972656 193.925781 212.464844 195.203125 212.089844 C 195.976562 211.863281 196.546875 211.140625 196.546875 210.324219 C 196.546875 209.582031 195.984375 208.6875 195.203125 208.5625 " fill-opacity="1" fill-rule="nonzero"/><path fill="#3d8e38" d="M 196.175781 215.9375 C 196 215.195312 195.1875 214.542969 194.410156 214.589844 C 193.574219 214.640625 192.816406 214.953125 192.136719 215.199219 C 191.539062 215.417969 191.089844 215.910156 191.089844 216.574219 C 191.089844 217.164062 191.527344 217.828125 192.136719 217.945312 C 192.058594 217.851562 192.109375 217.859375 192.289062 217.976562 C 192.402344 218.042969 192.523438 218.078125 192.652344 218.085938 C 192.796875 218.121094 192.949219 218.140625 193.097656 218.164062 C 193.527344 218.234375 193.972656 218.304688 194.410156 218.261719 C 195.488281 218.160156 196.117188 217.496094 196.242188 216.425781 C 196.261719 216.28125 196.210938 216.082031 196.175781 215.9375 " fill-opacity="1" fill-rule="nonzero"/><path fill="#3d8e38" d="M 205.023438 214.371094 C 204.871094 214.179688 204.699219 214.046875 204.472656 213.949219 C 204.179688 213.824219 203.933594 213.832031 203.625 213.875 C 203.714844 213.863281 203.804688 213.851562 203.894531 213.839844 C 203.789062 213.847656 203.695312 213.859375 203.605469 213.878906 C 203.59375 213.878906 203.585938 213.878906 203.578125 213.878906 C 203.558594 213.882812 203.539062 213.886719 203.519531 213.890625 C 203.546875 213.886719 203.570312 213.882812 203.597656 213.878906 C 203.464844 213.902344 203.335938 213.941406 203.203125 214.003906 C 203.167969 214 203.136719 214.003906 203.105469 214.003906 C 203.109375 214.003906 203.109375 214.003906 203.113281 214.003906 C 202.839844 213.992188 202.574219 214.039062 202.324219 214.183594 C 202.03125 214.355469 201.75 214.695312 201.671875 215.035156 C 201.507812 215.761719 201.890625 216.605469 202.664062 216.785156 C 203.511719 216.980469 204.726562 216.789062 205.128906 215.898438 C 205.363281 215.378906 205.386719 214.847656 205.023438 214.371094 " fill-opacity="1" fill-rule="nonzero"/><path fill="#3d8e38" d="M 172.359375 210.648438 C 172.0625 210.25 171.714844 209.910156 171.21875 209.773438 C 171.003906 209.714844 170.753906 209.710938 170.535156 209.691406 C 170.4375 209.679688 170.148438 209.601562 170.453125 209.6875 C 170.355469 209.660156 170.253906 209.644531 170.15625 209.609375 C 170.164062 209.617188 169.761719 209.464844 169.921875 209.523438 C 170.0625 209.574219 169.867188 209.476562 169.851562 209.484375 C 169.753906 209.398438 169.667969 209.292969 169.589844 209.195312 C 169.128906 208.625 168.15625 208.65625 167.628906 209.078125 C 167.066406 209.53125 166.839844 210.367188 167.242188 211.011719 C 167.726562 211.78125 168.371094 212.441406 169.214844 212.796875 C 170.25 213.238281 171.773438 213.398438 172.359375 212.160156 C 172.570312 211.707031 172.6875 211.09375 172.359375 210.648438 " fill-opacity="1" fill-rule="nonzero"/><path fill="#3d8e38" d="M 171.164062 217.761719 C 171.039062 217.226562 170.4375 216.644531 169.910156 216.566406 C 169.003906 216.425781 168.101562 216.5625 167.1875 216.628906 C 166.429688 216.683594 165.773438 217.171875 165.679688 217.960938 C 165.59375 218.679688 166.023438 219.476562 166.777344 219.644531 C 167.628906 219.832031 168.554688 220.160156 169.425781 220.152344 C 170.144531 220.148438 170.832031 219.691406 171.109375 219.027344 C 171.3125 218.632812 171.363281 218.171875 171.164062 217.761719 " fill-opacity="1" fill-rule="nonzero"/><path fill="#3d8e38" d="M 214.257812 212.414062 C 213.871094 212.296875 213.40625 212.320312 213.019531 212.4375 C 212.878906 212.496094 212.738281 212.558594 212.597656 212.617188 C 212.773438 212.550781 212.800781 212.539062 212.679688 212.585938 C 212.519531 212.660156 212.34375 212.746094 212.171875 212.8125 C 212.160156 212.808594 212.128906 212.8125 212.058594 212.828125 C 211.988281 212.84375 211.949219 212.851562 211.929688 212.859375 C 211.90625 212.863281 211.878906 212.867188 211.847656 212.871094 C 211.753906 212.882812 211.695312 212.890625 211.660156 212.898438 C 211.648438 212.898438 211.640625 212.898438 211.621094 212.898438 C 211.40625 212.910156 211.199219 212.917969 210.984375 212.96875 C 210.171875 213.152344 209.707031 214.246094 210.179688 214.953125 C 210.75 215.800781 211.800781 216.167969 212.796875 216.132812 C 213.996094 216.089844 215.46875 215.28125 215.378906 213.886719 C 215.332031 213.199219 214.933594 212.617188 214.257812 212.414062 " fill-opacity="1" fill-rule="nonzero"/><path fill="#3d8e38" d="M 214.054688 207.265625 C 213.535156 206.988281 212.984375 206.910156 212.433594 207.140625 C 212.199219 207.242188 211.964844 207.355469 211.742188 207.480469 C 211.585938 207.570312 211.433594 207.671875 211.28125 207.769531 C 211.214844 207.8125 211.144531 207.855469 211.078125 207.898438 C 210.800781 208.089844 210.652344 208.285156 210.457031 208.542969 C 210.136719 208.953125 210.207031 209.644531 210.457031 210.066406 C 210.75 210.570312 211.210938 210.742188 211.757812 210.8125 C 212.164062 210.867188 212.710938 210.699219 213.113281 210.578125 C 213.265625 210.535156 213.421875 210.484375 213.574219 210.429688 C 214.203125 210.199219 214.621094 209.777344 214.816406 209.136719 C 215.019531 208.457031 214.6875 207.601562 214.054688 207.265625 " fill-opacity="1" fill-rule="nonzero"/><path fill="#3d8e38" d="M 160.832031 194.53125 C 160.519531 194.035156 160.101562 193.859375 159.566406 193.699219 C 159.394531 193.648438 159.246094 193.554688 159.121094 193.347656 C 158.828125 192.882812 158.210938 192.699219 157.726562 192.984375 C 157.222656 193.28125 157.125 193.878906 157.363281 194.375 C 157.625 194.917969 158.058594 195.386719 158.542969 195.730469 C 159.171875 196.179688 160.117188 196.324219 160.683594 195.675781 C 160.953125 195.367188 161.066406 194.898438 160.832031 194.53125 " fill-opacity="1" fill-rule="nonzero"/><path fill="#3d8e38" d="M 140.316406 154.824219 C 140.070312 155.554688 139.574219 156.160156 139.277344 156.863281 C 138.921875 157.699219 139.082031 158.636719 140.007812 159.027344 C 140.820312 159.371094 141.84375 158.9375 142.0625 158.039062 C 142.277344 157.179688 142.253906 156.289062 142.539062 155.4375 C 143.007812 154.027344 140.78125 153.421875 140.316406 154.824219 " fill-opacity="1" fill-rule="nonzero"/><path fill="#3d8e38" d="M 152.152344 141.683594 C 151.652344 141.484375 151.054688 141.648438 150.777344 142.136719 C 150.730469 142.214844 150.6875 142.292969 150.640625 142.371094 C 150.703125 142.234375 150.644531 142.304688 150.464844 142.578125 C 150.367188 142.726562 150.28125 142.890625 150.1875 143.042969 C 150.058594 143.261719 149.910156 143.480469 149.84375 143.730469 C 149.75 144.058594 149.808594 144.375 149.890625 144.695312 C 150.078125 145.4375 151.074219 145.914062 151.738281 145.449219 C 151.996094 145.269531 152.253906 145.09375 152.414062 144.816406 C 152.542969 144.59375 152.578125 144.386719 152.621094 144.144531 C 152.679688 143.832031 152.734375 143.539062 152.742188 143.234375 L 152.789062 142.988281 C 152.898438 142.449219 152.683594 141.898438 152.152344 141.683594 " fill-opacity="1" fill-rule="nonzero"/><path fill="#3d8e38" d="M 144.773438 162.226562 C 144.710938 161.582031 144.328125 161.027344 143.648438 160.945312 C 143.042969 160.875 142.355469 161.234375 142.222656 161.878906 C 141.925781 163.300781 141.460938 164.691406 141.421875 166.160156 C 141.398438 167.160156 142.292969 168.007812 143.269531 168.007812 C 144.332031 168.007812 145.035156 167.160156 145.113281 166.160156 C 145.214844 164.839844 144.90625 163.53125 144.773438 162.226562 " fill-opacity="1" fill-rule="nonzero"/><path fill="#3d8e38" d="M 150.84375 168.660156 C 150.691406 167.234375 150.625 165.835938 150.066406 164.503906 C 149.691406 163.617188 148.324219 163.757812 147.90625 164.503906 C 147.28125 165.625 147.089844 166.875 146.820312 168.113281 C 146.558594 169.320312 147.261719 170.503906 148.523438 170.675781 C 149.628906 170.824219 150.976562 169.910156 150.84375 168.660156 " fill-opacity="1" fill-rule="nonzero"/><path fill="#3d8e38" d="M 147.90625 178.429688 C 147.769531 178.273438 147.609375 178.140625 147.429688 178.03125 C 147.335938 177.9375 147.242188 177.84375 147.152344 177.75 C 147.132812 177.730469 147.128906 177.722656 147.117188 177.710938 C 147.101562 177.691406 147.085938 177.664062 147.058594 177.617188 C 147.019531 177.539062 147 177.5 146.996094 177.496094 C 146.921875 177.292969 146.882812 177.207031 146.882812 177.25 C 146.757812 176.75 146.421875 176.347656 145.859375 176.28125 C 145.300781 176.214844 144.628906 176.550781 144.515625 177.160156 C 144.410156 177.734375 144.242188 178.261719 144.296875 178.859375 C 144.375 179.699219 144.628906 180.503906 145.210938 181.128906 C 145.890625 181.867188 147.230469 181.871094 147.90625 181.128906 C 148.621094 180.351562 148.640625 179.207031 147.90625 178.429688 " fill-opacity="1" fill-rule="nonzero"/><path fill="#3d8e38" d="M 155.90625 180.796875 C 155.859375 180.683594 155.800781 180.589844 155.734375 180.503906 C 155.652344 180.332031 155.566406 180.160156 155.480469 179.988281 C 155.238281 179.5 154.539062 179.230469 154.027344 179.394531 C 153.472656 179.574219 153.101562 180.050781 153.082031 180.636719 C 153.078125 180.777344 153.074219 180.917969 153.070312 181.058594 C 152.980469 181.484375 153.070312 181.933594 153.347656 182.292969 C 153.699219 182.75 154.355469 183.019531 154.929688 182.832031 C 155.425781 182.671875 155.839844 182.292969 155.980469 181.78125 C 156.070312 181.449219 156.035156 181.105469 155.90625 180.796875 " fill-opacity="1" fill-rule="nonzero"/><path fill="#3d8e38" d="M 165.476562 182.335938 L 165.304688 181.949219 C 165.101562 181.492188 164.398438 181.347656 163.996094 181.609375 C 163.558594 181.890625 163.386719 182.453125 163.65625 182.917969 C 163.722656 183.039062 163.792969 183.15625 163.863281 183.28125 C 164.105469 183.703125 164.71875 183.886719 165.140625 183.613281 C 165.601562 183.316406 165.6875 182.816406 165.476562 182.335938 " fill-opacity="1" fill-rule="nonzero"/><path fill="#3d8e38" d="M 170.140625 190.171875 C 170.105469 190.035156 170.019531 189.894531 169.957031 189.765625 C 169.835938 189.519531 169.667969 189.316406 169.496094 189.105469 C 169.191406 188.730469 168.570312 188.761719 168.222656 189.03125 C 167.867188 189.304688 167.699219 189.882812 167.972656 190.28125 C 168.128906 190.503906 168.285156 190.71875 168.484375 190.902344 C 168.59375 191 168.703125 191.113281 168.824219 191.1875 C 168.949219 191.261719 169.097656 191.296875 169.234375 191.335938 C 169.707031 191.460938 170.167969 191.101562 170.175781 190.617188 C 170.175781 190.46875 170.179688 190.316406 170.140625 190.171875 " fill-opacity="1" fill-rule="nonzero"/><path fill="#3d8e38" d="M 254.734375 215.347656 C 252.988281 214.011719 250.953125 212.71875 248.984375 211.742188 C 248.128906 211.320312 247.433594 212.300781 248.003906 213.015625 C 249.378906 214.746094 251.078125 216.476562 252.761719 217.910156 C 254.539062 219.429688 256.621094 216.789062 254.734375 215.347656 " fill-opacity="1" fill-rule="nonzero"/><path fill="#3d8e38" d="M 261.453125 216.164062 C 261.160156 215.863281 260.875 215.542969 260.558594 215.265625 C 260.398438 215.125 260.230469 214.992188 260.066406 214.859375 C 259.941406 214.753906 259.8125 214.65625 259.683594 214.558594 C 259.417969 214.363281 259.320312 214.332031 259.390625 214.464844 C 258.476562 214.0625 257.609375 214.71875 257.773438 215.710938 C 257.683594 215.574219 257.691406 215.675781 257.789062 216.015625 C 257.847656 216.167969 257.914062 216.320312 257.988281 216.46875 C 258.074219 216.660156 258.160156 216.855469 258.257812 217.042969 C 258.449219 217.421875 258.6875 217.773438 258.902344 218.132812 C 259.410156 218.964844 260.515625 219.191406 261.289062 218.589844 C 262.054688 217.996094 262.136719 216.863281 261.453125 216.164062 " fill-opacity="1" fill-rule="nonzero"/><path fill="#3d8e38" d="M 261 221.445312 C 260.722656 221.25 260.449219 221.035156 260.160156 220.859375 C 260.054688 220.792969 259.945312 220.742188 259.832031 220.703125 C 259.863281 220.710938 259.832031 220.695312 259.730469 220.644531 C 259.375 220.464844 259.285156 220.433594 259.464844 220.554688 C 259.386719 220.515625 259.304688 220.472656 259.222656 220.429688 C 258.132812 219.863281 256.996094 221 257.566406 222.09375 C 257.605469 222.175781 257.648438 222.253906 257.6875 222.335938 C 257.570312 222.15625 257.597656 222.242188 257.777344 222.601562 C 257.828125 222.703125 257.84375 222.734375 257.835938 222.703125 C 257.878906 222.816406 257.925781 222.925781 257.992188 223.027344 C 258.167969 223.320312 258.382812 223.59375 258.578125 223.871094 C 258.929688 224.375 259.449219 224.777344 260.105469 224.75 C 260.574219 224.726562 261.019531 224.570312 261.355469 224.230469 C 261.679688 223.90625 261.875 223.429688 261.875 222.976562 C 261.875 222.308594 261.519531 221.8125 261 221.445312 " fill-opacity="1" fill-rule="nonzero"/><path fill="#3d8e38" d="M 268.628906 223.511719 C 268.550781 223.230469 268.375 222.945312 268.234375 222.691406 C 268.128906 222.496094 268.019531 222.289062 267.894531 222.101562 C 267.796875 221.960938 267.691406 221.828125 267.574219 221.703125 C 267.257812 221.484375 267.214844 221.4375 267.449219 221.570312 C 266.851562 220.402344 264.976562 221.210938 265.34375 222.460938 C 265.398438 222.167969 265.394531 222.226562 265.332031 222.632812 C 265.332031 222.808594 265.351562 222.984375 265.386719 223.160156 C 265.429688 223.382812 265.492188 223.605469 265.550781 223.828125 C 265.621094 224.113281 265.695312 224.429688 265.84375 224.6875 C 266.027344 225.003906 266.320312 225.195312 266.617188 225.386719 C 267.324219 225.847656 268.375 225.402344 268.570312 224.59375 C 268.65625 224.234375 268.730469 223.878906 268.628906 223.511719 " fill-opacity="1" fill-rule="nonzero"/><path fill="#3d8e38" d="M 254.515625 209.546875 C 254.421875 209.058594 253.941406 208.605469 253.464844 208.492188 C 253.289062 208.453125 253.117188 208.417969 252.941406 208.375 C 252.859375 208.355469 252.777344 208.332031 252.695312 208.304688 C 252.558594 208.242188 252.433594 208.160156 252.304688 208.082031 C 252.222656 208.019531 252.128906 207.972656 252.035156 207.933594 C 252.023438 207.921875 252.015625 207.914062 252 207.902344 C 251.070312 207.023438 249.648438 208.128906 250.246094 209.253906 C 250.246094 209.253906 250.304688 209.359375 250.339844 209.425781 C 250.351562 209.457031 250.394531 209.554688 250.476562 209.734375 C 250.542969 209.816406 250.605469 209.902344 250.671875 209.988281 C 250.808594 210.164062 250.957031 210.328125 251.125 210.476562 C 251.59375 210.890625 252.066406 211.207031 252.664062 211.40625 C 253.121094 211.554688 253.820312 211.410156 254.128906 211.015625 C 254.507812 210.535156 254.640625 210.171875 254.515625 209.546875 " fill-opacity="1" fill-rule="nonzero"/><path fill="#3d8e38" d="M 263.394531 206.03125 C 263.351562 205.796875 263.226562 205.609375 263.085938 205.425781 C 262.867188 205.140625 262.691406 204.890625 262.375 204.695312 C 262.253906 204.621094 262.128906 204.554688 262.007812 204.484375 C 261.945312 204.449219 261.882812 204.410156 261.820312 204.378906 C 261.722656 204.339844 261.625 204.296875 261.527344 204.253906 C 261.140625 204.214844 261.089844 204.203125 261.378906 204.21875 C 260.613281 203.902344 259.660156 204.855469 259.976562 205.621094 C 259.960938 205.386719 259.96875 205.382812 259.992188 205.609375 C 260 205.769531 260.050781 205.921875 260.136719 206.066406 C 260.164062 206.117188 260.195312 206.164062 260.222656 206.214844 C 260.300781 206.347656 260.371094 206.488281 260.453125 206.621094 C 260.636719 206.914062 260.878906 207.097656 261.148438 207.304688 C 261.347656 207.460938 261.519531 207.59375 261.789062 207.640625 C 262.261719 207.71875 262.703125 207.65625 263.058594 207.304688 C 263.414062 206.949219 263.472656 206.503906 263.394531 206.03125 " fill-opacity="1" fill-rule="nonzero"/><path fill="#3d8e38" d="M 270.695312 235.898438 C 270.320312 233.789062 268.742188 232.1875 267.3125 230.726562 C 266.398438 229.792969 264.835938 230.992188 265.507812 232.125 C 266.375 233.605469 266.460938 235.332031 266.964844 236.929688 C 267.722656 239.339844 271.125 238.332031 270.695312 235.898438 " fill-opacity="1" fill-rule="nonzero"/><path fill="#3d8e38" d="M 273.4375 230.585938 C 273.21875 230.03125 272.753906 229.628906 272.121094 229.726562 C 271.585938 229.808594 271.011719 230.304688 271.078125 230.90625 C 271.234375 232.285156 270.902344 234.292969 272.011719 235.316406 C 272.902344 236.140625 274.210938 235.75 274.597656 234.632812 C 275.070312 233.273438 273.921875 231.804688 273.4375 230.585938 " fill-opacity="1" fill-rule="nonzero"/><path fill="#3d8e38" d="M 270.203125 242.730469 C 269.589844 242.660156 269.0625 243.015625 268.871094 243.601562 C 268.617188 244.386719 268.132812 245.144531 268.179688 245.996094 C 268.210938 246.613281 268.601562 247.25 269.242188 247.394531 C 269.832031 247.53125 270.59375 247.320312 270.878906 246.730469 C 271.3125 245.824219 271.175781 244.890625 271.253906 243.925781 C 271.300781 243.332031 270.753906 242.796875 270.203125 242.730469 " fill-opacity="1" fill-rule="nonzero"/><path fill="#3d8e38" d="M 273.136719 241.359375 C 272.863281 242.507812 272.382812 243.773438 272.566406 244.945312 C 272.742188 246.085938 274.585938 246.296875 275.066406 245.273438 C 275.5625 244.214844 275.445312 242.839844 275.5 241.679688 C 275.5625 240.328125 273.457031 240.042969 273.136719 241.359375 " fill-opacity="1" fill-rule="nonzero"/><path fill="#3d8e38" d="M 266.15625 253 C 265.558594 252.683594 264.898438 252.871094 264.53125 253.425781 C 264.335938 253.71875 264.140625 254.015625 263.949219 254.308594 C 263.71875 254.65625 263.574219 255.019531 263.414062 255.398438 C 263.230469 255.84375 263.535156 256.472656 263.9375 256.6875 C 264.367188 256.914062 264.972656 256.894531 265.316406 256.507812 C 265.828125 255.929688 266.191406 255.292969 266.582031 254.628906 C 266.898438 254.089844 266.722656 253.296875 266.15625 253 " fill-opacity="1" fill-rule="nonzero"/><path fill="#3d8e38" d="M 257.230469 258.359375 C 256.8125 258.035156 256.238281 258.082031 255.847656 258.441406 C 255.378906 258.878906 254.863281 259.296875 254.445312 259.785156 C 254.019531 260.28125 253.921875 261.070312 254.445312 261.554688 C 254.910156 261.984375 255.757812 262.085938 256.210938 261.554688 C 256.695312 260.988281 257.089844 260.339844 257.503906 259.722656 C 257.796875 259.285156 257.621094 258.664062 257.230469 258.359375 " fill-opacity="1" fill-rule="nonzero"/><path fill="#3d8e38" d="M 271.683594 251.816406 C 271.097656 251.683594 270.449219 251.992188 270.296875 252.605469 C 270.210938 252.949219 270.167969 253.285156 270.164062 253.640625 C 270.164062 254.078125 270.488281 254.539062 270.925781 254.636719 C 271.359375 254.738281 271.875 254.578125 272.09375 254.164062 C 272.253906 253.851562 272.382812 253.546875 272.46875 253.203125 C 272.613281 252.632812 272.285156 251.953125 271.683594 251.816406 " fill-opacity="1" fill-rule="nonzero"/><path fill="#3d8e38" d="M 271.417969 213.871094 C 271.28125 213.601562 271.132812 213.335938 270.988281 213.066406 C 270.710938 212.542969 269.941406 212.339844 269.445312 212.660156 C 268.894531 213.015625 268.769531 213.632812 269.039062 214.207031 C 269.167969 214.480469 269.285156 214.769531 269.429688 215.035156 C 269.660156 215.445312 270.054688 215.613281 270.476562 215.761719 C 270.894531 215.914062 271.347656 215.589844 271.46875 215.195312 C 271.613281 214.726562 271.648438 214.335938 271.417969 213.871094 " fill-opacity="1" fill-rule="nonzero"/><path fill="#3d8e38" d="M 246.882812 264.066406 C 246.558594 264.046875 246.28125 264.230469 246 264.371094 C 245.792969 264.472656 245.585938 264.574219 245.375 264.679688 C 244.960938 264.886719 244.8125 265.507812 245.058594 265.886719 C 245.3125 266.28125 245.847656 266.46875 246.265625 266.207031 C 246.460938 266.082031 246.660156 265.957031 246.855469 265.832031 C 247.117188 265.664062 247.402344 265.523438 247.554688 265.238281 C 247.839844 264.695312 247.480469 264.101562 246.882812 264.066406 " fill-opacity="1" fill-rule="nonzero"/><path fill="#3d8e38" d="M 244.375 208.265625 C 244.027344 208.0625 243.6875 207.828125 243.3125 207.683594 C 242.976562 207.546875 242.628906 207.433594 242.285156 207.3125 C 241.257812 206.953125 240.605469 208.550781 241.546875 209.0625 C 241.867188 209.238281 242.183594 209.429688 242.515625 209.585938 C 242.875 209.753906 243.273438 209.851562 243.652344 209.972656 C 244.671875 210.289062 245.273438 208.796875 244.375 208.265625 " fill-opacity="1" fill-rule="nonzero"/><path fill="#3d8e38" d="M 249.199219 201.027344 C 248.304688 200.925781 247.40625 200.894531 246.511719 200.78125 C 245.402344 200.644531 245.3125 202.316406 246.261719 202.636719 C 247.132812 202.9375 247.976562 203.3125 248.847656 203.625 C 249.605469 203.894531 250.394531 203.253906 250.496094 202.523438 C 250.609375 201.675781 249.988281 201.117188 249.199219 201.027344 " fill-opacity="1" fill-rule="nonzero"/><path fill="#3d8e38" d="M 253.703125 197.074219 C 253.617188 197.019531 253.527344 196.972656 253.441406 196.917969 C 253.191406 196.769531 252.914062 196.675781 252.644531 196.574219 C 252.1875 196.40625 251.566406 196.683594 251.34375 197.105469 C 251.113281 197.539062 251.132812 198.152344 251.523438 198.503906 C 251.867188 198.808594 252.226562 199.050781 252.617188 199.285156 C 253.035156 199.535156 253.777344 199.511719 254.101562 199.09375 C 254.164062 199.011719 254.230469 198.929688 254.292969 198.84375 C 254.453125 197.976562 254.257812 197.386719 253.703125 197.074219 " fill-opacity="1" fill-rule="nonzero"/><path fill="#3d8e38" d="M 208.578125 90.089844 C 208.226562 90.5625 207.941406 91.035156 207.550781 91.472656 C 207.167969 91.898438 206.886719 92.414062 206.609375 92.910156 C 205.707031 94.515625 208.359375 95.703125 208.960938 93.902344 C 209.140625 93.363281 209.335938 92.8125 209.386719 92.242188 C 209.441406 91.660156 209.609375 91.152344 209.722656 90.574219 C 209.859375 89.851562 209 89.523438 208.578125 90.089844 " fill-opacity="1" fill-rule="nonzero"/><path fill="#3d8e38" d="M 209.71875 83.425781 C 209.453125 82.4375 208.035156 82.683594 207.984375 83.660156 C 207.929688 84.703125 207.316406 85.589844 207.191406 86.605469 C 207.121094 87.164062 207.644531 87.730469 208.152344 87.871094 C 208.730469 88.027344 209.308594 87.753906 209.628906 87.265625 C 210.34375 86.183594 210.03125 84.59375 209.71875 83.425781 " fill-opacity="1" fill-rule="nonzero"/><path fill="#3d8e38" d="M 206.417969 84.019531 C 206.328125 83.449219 205.644531 83.097656 205.125 83.175781 C 204.578125 83.257812 204.070312 83.738281 204.105469 84.332031 C 204.113281 84.464844 204.113281 84.597656 204.113281 84.730469 C 204.109375 84.773438 204.105469 84.804688 204.105469 84.828125 C 204.09375 84.882812 204.082031 84.9375 204.066406 84.992188 C 203.988281 85.308594 203.984375 85.292969 203.792969 85.589844 C 203.429688 86.160156 203.65625 87.035156 204.253906 87.351562 C 204.820312 87.652344 205.710938 87.542969 206.011719 86.890625 C 206.445312 85.953125 206.578125 85.039062 206.417969 84.019531 " fill-opacity="1" fill-rule="nonzero"/><path fill="#3d8e38" d="M 210.390625 74.386719 C 210.191406 73.800781 209.609375 73.417969 208.988281 73.585938 C 208.335938 73.769531 208.105469 74.378906 208.195312 74.992188 C 208.300781 75.730469 207.800781 76.210938 207.695312 76.890625 C 207.597656 77.492188 207.757812 78.09375 208.3125 78.417969 C 208.828125 78.71875 209.535156 78.632812 209.953125 78.207031 C 210.875 77.265625 210.792969 75.550781 210.390625 74.386719 " fill-opacity="1" fill-rule="nonzero"/><path fill="#3d8e38" d="M 209.398438 65.375 C 209.277344 64.5625 209.089844 63.769531 208.964844 62.960938 C 208.777344 61.773438 206.980469 62.125 206.941406 63.234375 C 206.886719 64.730469 206.203125 67.003906 207.636719 68.003906 C 208.054688 68.296875 208.625 68.140625 208.976562 67.832031 C 209.710938 67.179688 209.527344 66.25 209.398438 65.375 " fill-opacity="1" fill-rule="nonzero"/><path fill="#3d8e38" d="M 205.910156 70.800781 C 205.640625 69.59375 203.859375 69.914062 203.816406 71.085938 C 203.796875 71.714844 203.660156 72.503906 203.980469 73.070312 C 204.222656 73.5 204.621094 74.105469 205.1875 74.019531 C 205.730469 73.9375 206.035156 73.265625 206.167969 72.785156 C 206.335938 72.171875 206.046875 71.40625 205.910156 70.800781 " fill-opacity="1" fill-rule="nonzero"/><path fill="#3d8e38" d="M 205.3125 100.105469 C 204.84375 101.09375 204.359375 102.0625 203.914062 103.0625 C 203.476562 104.058594 202.980469 104.863281 203.128906 105.96875 C 203.246094 106.851562 204.449219 106.976562 204.992188 106.464844 C 205.730469 105.761719 205.824219 104.71875 206.074219 103.765625 C 206.339844 102.757812 206.546875 101.742188 206.789062 100.730469 C 206.992188 99.878906 205.71875 99.238281 205.3125 100.105469 " fill-opacity="1" fill-rule="nonzero"/><path fill="#3d8e38" d="M 203.816406 95.566406 C 203.746094 94.726562 202.5 94.164062 202.058594 95.089844 C 201.535156 96.199219 201.105469 97.503906 200.878906 98.710938 C 200.742188 99.460938 201.085938 100.234375 201.867188 100.445312 C 202.542969 100.632812 203.464844 100.214844 203.597656 99.460938 C 203.8125 98.222656 203.925781 96.820312 203.816406 95.566406 " fill-opacity="1" fill-rule="nonzero"/><path fill="#3d8e38" d="M 195.773438 108.976562 C 195.488281 109.761719 195.1875 110.492188 195.109375 111.332031 C 195.007812 112.367188 196.574219 112.730469 197.039062 111.855469 C 197.429688 111.121094 197.566406 110.328125 197.757812 109.523438 C 198.070312 108.214844 196.222656 107.738281 195.773438 108.976562 " fill-opacity="1" fill-rule="nonzero"/><path fill="#3d8e38" d="M 200.480469 111.445312 C 200.25 112.519531 199.511719 113.476562 199.597656 114.621094 C 199.6875 115.789062 201.296875 116.417969 201.933594 115.253906 C 202.238281 114.6875 202.292969 114.164062 202.359375 113.53125 C 202.410156 113.035156 202.359375 112.480469 202.464844 111.992188 C 202.742188 110.699219 200.757812 110.144531 200.480469 111.445312 " fill-opacity="1" fill-rule="nonzero"/><path fill="#3d8e38" d="M 197.109375 119.453125 C 197.035156 118.667969 196.9375 117.890625 196.867188 117.105469 C 196.777344 116.109375 195.410156 116.109375 195.324219 117.105469 C 195.253906 117.890625 195.152344 118.667969 195.082031 119.453125 C 195.007812 120.238281 195.035156 120.867188 195.707031 121.363281 C 195.90625 121.511719 196.285156 121.511719 196.484375 121.363281 C 197.15625 120.867188 197.183594 120.246094 197.109375 119.453125 " fill-opacity="1" fill-rule="nonzero"/><path fill="#3d8e38" d="M 200.847656 120.660156 C 200.554688 119.554688 198.988281 119.839844 198.921875 120.921875 C 198.894531 121.425781 198.808594 121.957031 198.898438 122.457031 C 199.003906 123.0625 199.496094 123.816406 200.207031 123.710938 C 200.855469 123.613281 201.199219 122.90625 201.207031 122.304688 C 201.210938 121.753906 200.988281 121.183594 200.847656 120.660156 " fill-opacity="1" fill-rule="nonzero"/><path fill="#3d8e38" d="M 203.066406 127.707031 C 203.015625 127.238281 202.726562 126.738281 202.554688 126.300781 C 202.371094 125.824219 201.921875 125.492188 201.394531 125.640625 C 200.929688 125.769531 200.566406 126.320312 200.734375 126.804688 C 200.886719 127.234375 201.027344 127.667969 201.195312 128.089844 C 201.367188 128.523438 201.941406 129.050781 202.46875 128.90625 C 202.914062 128.78125 203.117188 128.113281 203.066406 127.707031 " fill-opacity="1" fill-rule="nonzero"/><path fill="#3d8e38" d="M 208.714844 56.503906 C 208.507812 55.832031 208.28125 55.164062 208.066406 54.496094 C 207.820312 53.734375 206.527344 53.8125 206.597656 54.695312 C 206.660156 55.429688 206.707031 56.164062 206.777344 56.894531 C 206.855469 57.660156 206.945312 58.273438 207.640625 58.710938 C 208.003906 58.9375 208.433594 58.761719 208.660156 58.441406 C 209.109375 57.808594 208.925781 57.1875 208.714844 56.503906 " fill-opacity="1" fill-rule="nonzero"/><path fill="#3d8e38" d="M 204.382812 48.714844 C 203.90625 48.714844 203.652344 49.261719 203.890625 49.640625 C 203.910156 49.722656 203.929688 49.804688 203.949219 49.886719 C 204.054688 50.320312 204.71875 50.320312 204.824219 49.886719 C 204.84375 49.804688 204.863281 49.722656 204.882812 49.640625 C 205.117188 49.261719 204.867188 48.714844 204.382812 48.714844 " fill-opacity="1" fill-rule="nonzero"/><path fill="#b0e19b" d="M 187.207031 148.304688 C 187.207031 148.304688 215.886719 140.433594 218.578125 123.71875 C 221.265625 107.003906 221.714844 103.941406 223.507812 103.230469 C 225.300781 102.515625 311.941406 79.621094 313.585938 81.117188 C 315.226562 82.613281 299.691406 98.9375 298.199219 110.304688 C 296.703125 121.671875 299.691406 135.289062 298.945312 137.832031 C 298.199219 140.375 277.613281 141.609375 268.484375 152.8125 C 259.359375 164.019531 260.324219 165.328125 258.3125 167.292969 C 256.300781 169.253906 242.777344 161.023438 227.6875 162.972656 C 212.601562 164.914062 217.417969 163.417969 215.382812 161.921875 C 213.347656 160.425781 205.28125 151.296875 196.09375 151.296875 C 186.90625 151.296875 186.90625 151.296875 186.90625 151.296875 L 187.207031 148.304688 " fill-opacity="1" fill-rule="nonzero"/><path fill="#3d8e38" d="M 252.167969 106.046875 C 259.78125 104.757812 267.324219 103.140625 274.753906 101.007812 C 288.246094 97.136719 301.484375 91.691406 312.566406 82.90625 C 312.929688 82.617188 312.460938 82.027344 312.074219 82.265625 C 300.078125 89.78125 287.09375 95.484375 273.464844 99.308594 C 266.296875 101.320312 258.992188 102.890625 251.675781 104.265625 C 247.988281 104.957031 244.277344 105.542969 240.566406 106.113281 C 236.742188 106.699219 232.660156 106.960938 228.925781 107.996094 C 228.734375 107.910156 228.464844 108.019531 228.375 108.222656 C 228.132812 108.453125 228.132812 108.84375 228.339844 109.089844 C 228.324219 114.382812 228.21875 119.226562 226.429688 124.347656 C 224.625 129.507812 221.550781 134.230469 217.582031 137.984375 C 213.460938 141.878906 208.425781 144.75 203.085938 146.605469 C 200.574219 147.476562 197.992188 148.121094 195.375 148.589844 C 192.574219 149.089844 189.558594 148.972656 186.820312 149.714844 C 186.011719 149.9375 185.976562 151.191406 186.820312 151.394531 C 189.53125 152.039062 192.59375 151.484375 195.3125 151.066406 C 198.410156 150.59375 201.472656 149.804688 204.417969 148.734375 C 207.167969 147.738281 209.835938 146.488281 212.34375 144.988281 C 212.464844 145.421875 212.679688 145.835938 212.90625 146.359375 C 213.683594 148.144531 214.355469 149.96875 214.953125 151.828125 C 215.902344 154.777344 216.128906 158.085938 217.386719 160.90625 C 217.554688 161.285156 218.246094 161.207031 218.308594 160.785156 C 218.785156 157.589844 217.53125 153.976562 216.539062 150.96875 C 215.960938 149.214844 215.148438 145.78125 213.601562 144.210938 C 215.832031 142.773438 217.925781 141.121094 219.828125 139.253906 C 220.429688 138.65625 221.011719 138.042969 221.574219 137.40625 C 224.5 139.167969 228.015625 140.160156 231.050781 141.707031 C 234.546875 143.492188 237.898438 145.546875 241.074219 147.847656 C 244.28125 150.171875 247.300781 152.757812 250.101562 155.5625 C 252.839844 158.308594 255.039062 161.765625 257.933594 164.304688 C 258.484375 164.785156 259.179688 164.191406 258.90625 163.554688 C 257.382812 160.054688 254.058594 156.933594 251.398438 154.261719 C 248.574219 151.425781 245.523438 148.824219 242.296875 146.457031 C 239.035156 144.070312 235.585938 141.9375 231.988281 140.097656 C 229.171875 138.65625 225.824219 136.828125 222.566406 136.234375 C 225.351562 132.804688 227.523438 128.867188 228.890625 124.667969 C 228.894531 124.65625 228.898438 124.644531 228.902344 124.632812 C 231.378906 125.058594 234.027344 124.8125 236.539062 124.882812 C 239.316406 124.964844 242.089844 125.113281 244.855469 125.335938 C 250.742188 125.804688 256.597656 126.601562 262.394531 127.714844 C 267.847656 128.761719 273.25 130.085938 278.570312 131.683594 C 284.007812 133.316406 289.257812 135.628906 294.722656 137.144531 C 295.21875 137.28125 295.527344 136.570312 295.074219 136.3125 C 290.253906 133.554688 284.664062 131.917969 279.378906 130.316406 C 273.796875 128.625 268.125 127.234375 262.394531 126.148438 C 257.003906 125.125 251.566406 124.375 246.101562 123.894531 C 243.195312 123.640625 240.285156 123.464844 237.371094 123.367188 C 234.75 123.28125 231.863281 123 229.257812 123.460938 C 230.527344 118.984375 230.988281 113.71875 229.507812 109.285156 C 233.046875 109.222656 236.699219 108.453125 240.179688 107.949219 C 244.183594 107.371094 248.179688 106.722656 252.167969 106.046875 " fill-opacity="1" fill-rule="nonzero"/><path fill="#3d8e38" d="M 185.988281 49.875 C 185.953125 49.792969 185.847656 49.765625 185.769531 49.785156 C 185.289062 49.890625 184.921875 50.242188 184.429688 50.34375 C 183.789062 50.46875 183.332031 50.292969 182.855469 49.875 C 182.359375 49.007812 180.921875 49.136719 180.84375 50.363281 C 180.683594 52.902344 178.023438 54.933594 175.738281 53.050781 C 174.851562 52.316406 174.917969 51.320312 174.265625 50.550781 C 174.070312 50.320312 173.691406 50.0625 173.382812 50.226562 C 173.316406 50.261719 173.25 50.296875 173.183594 50.332031 C 172.921875 50.472656 172.769531 50.773438 172.765625 51.058594 C 172.742188 53.96875 175.238281 56.203125 178.117188 56.078125 C 179.710938 56.007812 181.125 55.164062 182.023438 53.941406 C 182.105469 53.992188 182.179688 54.035156 182.253906 54.074219 C 182.832031 54.371094 183.5625 54.578125 184.113281 54.105469 C 184.230469 54.003906 184.203125 53.824219 184.113281 53.71875 C 183.734375 53.277344 183.15625 53.074219 182.707031 52.703125 C 182.796875 52.464844 182.875 52.21875 182.929688 51.964844 C 183.542969 52.152344 184.214844 52.152344 184.773438 51.902344 C 185.476562 51.582031 186.355469 50.714844 185.988281 49.875 " fill-opacity="1" fill-rule="nonzero"/><path fill="#3d8e38" d="M 161.953125 62.398438 C 161.609375 62.472656 161.339844 62.71875 161.011719 62.84375 C 160.683594 62.96875 160.339844 63.039062 160.015625 63.167969 C 159.503906 63.371094 159.402344 64.152344 160.015625 64.3125 C 160.164062 64.351562 160.335938 64.367188 160.511719 64.371094 C 160.6875 65.6875 160.695312 66.988281 160.386719 68.292969 C 160.082031 69.597656 159.320312 70.558594 158.765625 71.726562 C 158.660156 71.949219 158.886719 72.246094 159.128906 72.089844 C 161.535156 70.550781 162.359375 66.753906 161.855469 64.085938 C 162.21875 63.917969 162.527344 63.675781 162.699219 63.367188 C 162.988281 62.84375 162.511719 62.285156 161.953125 62.398438 " fill-opacity="1" fill-rule="nonzero"/><g clip-path="url(#id2)"><path fill="#f79644" d="M 148.40625 76.628906 C 147.324219 76.542969 146.472656 76.953125 145.496094 77.300781 C 144.445312 77.167969 143.449219 77.410156 142.355469 77.449219 C 140.773438 77.5 139.1875 77.316406 137.628906 77.066406 C 134.847656 76.621094 132.089844 75.902344 129.257812 75.875 C 124.148438 75.820312 117.875 80.03125 113.164062 76.503906 C 112.902344 76.308594 112.671875 76.671875 112.769531 76.898438 C 112.792969 76.949219 112.820312 76.992188 112.84375 77.042969 C 112.988281 79.09375 114.515625 81.085938 116.203125 82.152344 C 116.296875 82.214844 116.402344 82.277344 116.511719 82.335938 C 115.761719 82.796875 115.058594 83.300781 114.464844 83.652344 C 111.371094 85.492188 107.753906 86.152344 104.625 84.03125 C 104.109375 83.679688 103.417969 84.378906 103.765625 84.894531 C 103.828125 84.988281 103.898438 85.074219 103.96875 85.164062 C 104.578125 88.042969 107.0625 90.40625 109.859375 91.171875 C 110.464844 91.335938 111.222656 91.4375 112.039062 91.457031 C 111.390625 92.125 110.664062 92.691406 109.691406 92.972656 C 109.53125 92.996094 109.40625 93.0625 109.296875 93.148438 C 108.046875 92.867188 106.777344 92.5625 105.53125 92.886719 C 105.347656 92.933594 105.238281 93.175781 105.347656 93.339844 C 106.683594 95.371094 109.785156 95.804688 112.007812 96.15625 C 114.6875 96.578125 117.359375 96.550781 120.039062 96.136719 C 122.085938 95.820312 124.207031 95.242188 125.828125 93.914062 C 125.691406 95 125.285156 95.941406 124.027344 96.4375 C 123.988281 96.453125 123.96875 96.5 124 96.535156 C 124.296875 96.820312 124.644531 96.925781 125.015625 96.914062 C 125.074219 97.039062 125.160156 97.148438 125.269531 97.222656 C 129.671875 100.226562 135.355469 95.707031 138.007812 92.304688 C 141.660156 87.613281 144.015625 82.132812 147.890625 77.558594 C 147.921875 77.519531 147.941406 77.480469 147.953125 77.4375 C 148.160156 77.285156 148.355469 77.121094 148.53125 76.925781 C 148.636719 76.808594 148.558594 76.640625 148.40625 76.628906 " fill-opacity="1" fill-rule="nonzero"/></g><path fill="#fae855" d="M 143.296875 79.074219 C 142.496094 79.039062 141.714844 79.238281 140.964844 79.585938 C 139.3125 79.917969 137.824219 80.179688 136.058594 80.015625 C 133.824219 79.808594 131.679688 79.011719 129.460938 78.683594 C 125.417969 78.085938 121.863281 80.59375 117.914062 79.714844 C 117.6875 79.664062 117.417969 79.867188 117.507812 80.121094 C 118.066406 81.675781 119.65625 82.304688 121.230469 82.359375 C 122.480469 82.40625 123.648438 82.054688 124.851562 81.796875 C 123.707031 82.214844 122.609375 82.757812 121.621094 83.324219 C 119.78125 84.375 118.042969 85.640625 116.109375 86.523438 C 113.78125 87.585938 111.648438 87.511719 109.175781 87.613281 C 109.011719 87.617188 108.890625 87.800781 108.984375 87.949219 C 110.828125 90.914062 115.308594 90.035156 117.941406 88.882812 C 118.285156 88.734375 118.621094 88.574219 118.953125 88.410156 C 118.339844 89.105469 117.738281 89.808594 117.089844 90.472656 C 115.847656 91.738281 114.523438 92.585938 112.996094 93.363281 C 112.777344 93.386719 112.554688 93.410156 112.328125 93.441406 C 112.089844 93.472656 111.988281 93.707031 112.140625 93.894531 C 112.1875 93.953125 112.238281 94.007812 112.289062 94.058594 C 112.324219 94.21875 112.433594 94.363281 112.59375 94.414062 C 112.617188 94.421875 112.640625 94.425781 112.664062 94.429688 C 116.023438 97.335938 122.621094 92.867188 126.09375 92.324219 C 127.0625 92.171875 128.042969 92.097656 128.996094 91.957031 C 128.8125 92.457031 128.644531 92.964844 128.375 93.4375 C 127.925781 94.214844 127.242188 94.597656 126.632812 95.21875 C 126.453125 95.402344 126.589844 95.703125 126.835938 95.710938 C 126.910156 95.714844 126.984375 95.707031 127.058594 95.699219 C 127.105469 95.734375 127.15625 95.757812 127.214844 95.761719 C 129.914062 95.90625 132.714844 94.304688 134.296875 92.15625 C 135.003906 91.1875 135.445312 90.09375 135.71875 88.949219 C 135.929688 88.648438 136.136719 88.34375 136.34375 88.027344 C 137.351562 86.484375 138.300781 84.90625 139.410156 83.429688 C 140.605469 81.832031 142.109375 80.769531 143.402344 79.324219 C 143.488281 79.230469 143.425781 79.082031 143.296875 79.074219 " fill-opacity="1" fill-rule="nonzero"/></svg>