<svg xmlns="http://www.w3.org/2000/svg" xmlns:xlink="http://www.w3.org/1999/xlink" width="559" zoomAndPan="magnify" viewBox="0 0 419.25 297.749993" height="396" preserveAspectRatio="xMidYMid meet" version="1.0"><defs><clipPath id="id1"><path d="M 0 0.140625 L 418.5 0.140625 L 418.5 297.359375 L 0 297.359375 Z M 0 0.140625 " clip-rule="nonzero"/></clipPath><clipPath id="id2"><path d="M 121.339844 38.953125 L 298.222656 38.953125 L 298.222656 227 L 121.339844 227 Z M 121.339844 38.953125 " clip-rule="nonzero"/></clipPath><clipPath id="id3"><path d="M 167 227 L 240 227 L 240 258.3125 L 167 258.3125 Z M 167 227 " clip-rule="nonzero"/></clipPath><clipPath id="id4"><path d="M 120.199219 187 L 142 187 L 142 221 L 120.199219 221 Z M 120.199219 187 " clip-rule="nonzero"/></clipPath></defs><g clip-path="url(#id1)"><path fill="#ffffff" d="M 0 0.140625 L 419.25 0.140625 L 419.25 304.097656 L 0 304.097656 Z M 0 0.140625 " fill-opacity="1" fill-rule="nonzero"/><path fill="#ffde59" d="M 0 0.140625 L 418.5 0.140625 L 418.5 297.359375 L 0 297.359375 Z M 0 0.140625 " fill-opacity="1" fill-rule="nonzero"/><path fill="#ffffff" d="M 0 0.140625 L 418.5 0.140625 L 418.5 297.359375 L 0 297.359375 Z M 0 0.140625 " fill-opacity="1" fill-rule="nonzero"/><path fill="#ffde59" d="M 0 0.140625 L 418.5 0.140625 L 418.5 297.359375 L 0 297.359375 Z M 0 0.140625 " fill-opacity="1" fill-rule="nonzero"/></g><g clip-path="url(#id2)"><path fill="#683e38" d="M 186.34375 58.101562 C 186.34375 58.101562 186.601562 57.921875 187.097656 57.605469 C 187.003906 57.824219 186.929688 58.046875 186.84375 58.269531 C 186.648438 58.378906 186.542969 58.433594 186.542969 58.433594 C 186.449219 58.484375 186.328125 58.449219 186.28125 58.355469 C 186.230469 58.269531 186.261719 58.15625 186.34375 58.101562 Z M 296.425781 143.8125 C 293.941406 137.488281 289.359375 134.433594 285.105469 130.070312 C 285.019531 130.378906 284.886719 130.664062 284.722656 130.929688 C 284.640625 130.847656 284.558594 130.765625 284.476562 130.683594 L 284.125 130.320312 L 284.277344 129.78125 C 284.285156 129.75 284.296875 129.714844 284.304688 129.6875 C 284.574219 128.386719 283.875 126.511719 282.804688 125.675781 C 282.539062 125.46875 282.222656 125.328125 281.917969 125.191406 C 281.101562 124.828125 279.734375 124.214844 280.554688 122.035156 C 280.847656 121.246094 281.292969 120.617188 281.683594 120.058594 C 282.261719 119.238281 282.714844 118.59375 282.695312 117.609375 C 282.664062 116.144531 281.96875 114.34375 280.511719 113.855469 C 279.871094 113.644531 279.113281 113.535156 278.257812 113.535156 C 277.875 113.535156 277.464844 113.558594 277.035156 113.601562 L 276.773438 113.625 L 276.769531 113.621094 L 276.441406 113.667969 C 276.359375 113.679688 275.292969 113.851562 275.292969 113.851562 L 275.109375 113.054688 C 275.105469 113.042969 275.101562 113.027344 275.097656 113.015625 C 275.386719 112.957031 275.675781 112.902344 275.960938 112.855469 C 273.488281 102.332031 273.984375 90.710938 272.398438 82.894531 C 269.363281 67.957031 262.246094 58.066406 256.558594 52.246094 C 254.425781 49.9375 252.074219 47.949219 249.527344 46.273438 C 248.855469 45.816406 248.472656 45.597656 248.472656 45.597656 C 242.105469 41.691406 234.597656 39.609375 226.34375 39.070312 C 211.472656 38.148438 191.300781 42.550781 185.785156 58.601562 C 185.476562 58.78125 185.179688 58.984375 184.890625 59.207031 C 182.820312 60.679688 181.015625 63.019531 179.761719 65.199219 C 175.136719 73.265625 171.816406 87.792969 178.226562 95.75 C 179.449219 97.265625 180.9375 99.734375 182.667969 101.207031 C 183.253906 105.335938 184.394531 109.527344 185.121094 113.65625 C 185.441406 113.75 185.753906 113.851562 186.0625 113.949219 L 186.230469 114.902344 L 184.871094 114.496094 C 182.695312 113.847656 180.921875 113.53125 179.449219 113.53125 C 179.136719 113.53125 178.832031 113.546875 178.542969 113.574219 L 178.390625 113.589844 L 178.070312 113.644531 C 177.703125 113.707031 177.417969 113.773438 177.167969 113.855469 C 175.546875 114.398438 174.671875 116.664062 175 118.257812 C 175.097656 118.734375 175.601562 119.453125 176.09375 120.148438 C 177.046875 121.503906 178.125 123.035156 177.5625 124.539062 C 177.238281 125.40625 176.226562 125.625 175.417969 125.800781 C 175.207031 125.847656 174.886719 125.917969 174.796875 125.960938 C 174.21875 126.285156 173.75 127.101562 173.511719 128.203125 C 173.054688 130.316406 173.816406 130.886719 175.335938 132.023438 C 175.8125 132.382812 176.351562 132.789062 176.859375 133.257812 L 177.320312 133.652344 C 178.039062 134.261719 178.308594 134.492188 178.335938 134.972656 C 178.363281 135.402344 178.113281 135.671875 178.007812 135.785156 C 177.933594 135.863281 177.8125 135.996094 177.769531 136.53125 C 177.769531 136.652344 177.773438 136.769531 177.777344 136.882812 L 177.792969 137.25 L 177.546875 137.515625 C 177.382812 137.695312 177.214844 137.875 177.050781 138.058594 C 176.96875 137.703125 176.921875 137.324219 176.902344 136.921875 C 175.234375 138.730469 173.648438 140.460938 172.5 142.085938 C 167.605469 148.820312 169.671875 155.890625 174.746094 160.574219 C 174.757812 160.1875 174.785156 159.796875 174.800781 159.40625 C 174.980469 159.585938 175.15625 159.761719 175.339844 159.929688 L 175.632812 160.199219 L 175.601562 161.273438 L 175.308594 161.527344 C 174.351562 162.339844 173.402344 163.164062 172.457031 163.992188 C 170.917969 165.339844 168.796875 166.351562 166.742188 167.324219 C 163.519531 168.859375 160.472656 170.3125 160.691406 172.601562 C 160.761719 173.394531 160.941406 174.273438 161.21875 175.210938 L 161.394531 175.8125 L 160.882812 176.175781 C 156.648438 179.164062 152.660156 182.964844 148.804688 186.648438 C 147.699219 187.703125 146.613281 188.738281 145.550781 189.726562 C 144.207031 190.976562 142.761719 192.402344 141.253906 193.960938 L 140.226562 195.03125 L 139.785156 193.613281 C 139.050781 191.230469 137.929688 189.65625 136.464844 188.9375 C 135.578125 188.503906 134.539062 188.265625 133.542969 188.265625 C 132 188.265625 130.699219 188.832031 129.972656 189.820312 C 129.511719 190.449219 128.746094 191.835938 127.734375 194.875 L 127.367188 195.988281 L 126.402344 195.316406 C 123.59375 193.359375 122.878906 193.300781 122.878906 193.296875 C 122 193.410156 121.207031 193.839844 121.359375 196.195312 C 121.542969 200.382812 122.425781 205.597656 123.851562 210.875 L 123.898438 211.058594 C 123.898438 211.058594 123.773438 211.820312 123.726562 212.097656 C 123.257812 215.046875 123.628906 217.414062 124.78125 218.761719 C 125.476562 219.582031 126.453125 219.996094 127.683594 219.996094 C 129.140625 219.996094 130.878906 219.429688 132.847656 218.316406 C 133.101562 218.171875 133.359375 217.992188 133.625 217.769531 L 133.730469 217.679688 L 133.855469 217.628906 C 134.101562 217.527344 134.921875 217.191406 136.175781 216.675781 L 136.34375 216.605469 L 136.527344 216.609375 C 140.949219 216.675781 145.382812 216.824219 149.667969 216.96875 C 155.277344 217.15625 161.078125 217.351562 166.722656 217.351562 C 179.039062 217.351562 188.558594 216.410156 197.601562 214.300781 L 198.488281 214.09375 L 198.660156 214.992188 C 199.175781 217.660156 200.078125 219.667969 200.351562 220.011719 C 201.097656 220.71875 202.453125 221.464844 203.71875 221.464844 C 204.246094 221.464844 204.707031 221.332031 205.085938 221.070312 L 205.460938 220.8125 L 205.886719 220.964844 C 206.402344 221.15625 207.066406 221.261719 207.707031 221.261719 C 208.832031 221.261719 209.710938 220.941406 210.054688 220.40625 L 210.378906 219.902344 L 210.964844 220.023438 C 211.429688 220.117188 211.882812 220.164062 212.308594 220.164062 C 213.828125 220.164062 215.03125 219.558594 215.886719 218.367188 L 216.226562 219.671875 L 216.910156 218.058594 C 217.75 218.382812 218.484375 218.546875 219.085938 218.546875 C 219.273438 218.546875 219.449219 218.527344 219.609375 218.496094 L 220.308594 218.359375 L 220.589844 219.011719 C 220.59375 219.027344 220.597656 219.039062 220.605469 219.054688 C 220.351562 219.199219 220.074219 219.300781 219.78125 219.359375 C 220.328125 220.640625 220.828125 221.792969 221.191406 222.574219 C 222.144531 224.628906 223.902344 226.664062 224.949219 226.804688 C 224.933594 226.558594 225.289062 226.402344 225.46875 226.625 C 226.132812 225.828125 225.734375 222.566406 225.492188 221.605469 C 225.011719 219.695312 224.136719 217.425781 223.265625 215.40625 C 223.140625 215.117188 223.019531 214.839844 222.898438 214.5625 L 223.171875 214.535156 C 227.359375 214.085938 231.640625 213.882812 235.417969 213.703125 L 236.164062 213.671875 L 236.316406 214.402344 C 236.496094 215.253906 236.867188 215.828125 237.238281 215.828125 C 237.550781 215.828125 237.984375 215.503906 238.410156 214.953125 C 238.554688 214.769531 238.671875 214.539062 238.78125 214.246094 L 240.464844 214.710938 C 240.367188 215.214844 240.597656 215.585938 240.742188 215.761719 C 240.988281 216.058594 241.34375 216.238281 241.691406 216.238281 C 241.992188 216.238281 242.277344 216.113281 242.546875 215.863281 L 244.695312 213.882812 L 243.988281 216.730469 C 243.96875 216.8125 243.953125 216.980469 243.96875 217.046875 C 244.214844 217.789062 244.8125 218.054688 245.246094 218.054688 C 245.480469 218.054688 245.703125 217.984375 245.890625 217.847656 L 247.660156 216.585938 L 247.261719 218.722656 C 247.230469 218.894531 247.367188 219.082031 247.425781 219.152344 C 247.632812 219.402344 247.964844 219.574219 248.234375 219.574219 C 248.394531 219.574219 248.476562 219.515625 248.523438 219.46875 L 248.601562 219.398438 L 249.824219 218.707031 C 250.519531 218.167969 251.300781 217.660156 252.058594 217.164062 C 254.5 215.578125 256.808594 214.078125 256.605469 211.648438 L 256.550781 210.980469 L 257.179688 210.75 C 264.996094 207.894531 269.273438 202.148438 270.640625 192.667969 L 270.667969 192.476562 L 270.773438 192.3125 C 273.199219 188.585938 275.414062 184.851562 277.171875 181.515625 C 279.132812 177.808594 280.535156 173.59375 281.339844 168.992188 L 281.449219 168.375 L 282.066406 168.277344 C 282.160156 168.261719 282.253906 168.246094 282.34375 168.230469 C 282.296875 168.535156 282.257812 168.839844 282.203125 169.144531 C 290.140625 167.875 296.894531 163.832031 298.089844 155.332031 C 298.53125 151.359375 297.84375 147.421875 296.425781 143.8125 " fill-opacity="1" fill-rule="nonzero"/></g><path fill="#f58468" d="M 285.160156 129.867188 C 284.769531 131.746094 282.746094 132.765625 281.390625 133.925781 C 279.273438 135.742188 280.636719 134.378906 280.785156 136.5 C 280.785156 136.851562 280.769531 137.183594 280.730469 137.503906 C 280.679688 137.925781 281.273438 142.058594 280.308594 144 C 278.253906 148.121094 273.871094 151.71875 274.421875 154.683594 C 276.214844 164.296875 272.855469 172.765625 268.476562 178.46875 L 271.789062 179.691406 C 274.640625 219.246094 248.464844 212.695312 223.269531 215.402344 C 222.019531 212.515625 220.800781 210.15625 220.800781 210.15625 C 220.800781 210.15625 217.179688 202.128906 215.785156 199.027344 C 214.390625 195.929688 211.488281 192.832031 210.878906 196.207031 C 210.332031 199.257812 216.128906 210.5625 216.128906 210.5625 C 216.136719 210.570312 217.039062 212.800781 218.125 215.417969 C 218.210938 215.632812 218.304688 215.847656 218.398438 216.066406 C 213.480469 216.761719 209.132812 217.144531 204.046875 215.488281 C 189.625 211.347656 172.023438 204.226562 163.4375 191.363281 C 161.203125 188.015625 161.570312 180.855469 160.261719 177.359375 C 160.097656 176.921875 160.574219 176.121094 160.445312 175.695312 C 160.125 174.65625 159.910156 173.648438 159.820312 172.679688 C 159.390625 168.117188 167.910156 166.800781 171.878906 163.332031 C 173.238281 162.148438 174.597656 160.960938 175.976562 159.820312 C 180.503906 156.0625 181.886719 142.710938 179.011719 140.738281 C 177.347656 139.679688 176.890625 138.316406 176.890625 136.5 C 177.042969 134.378906 178.40625 135.742188 176.285156 133.921875 C 174.164062 131.953125 171.894531 131.5 172.652344 128.015625 C 172.886719 126.957031 173.398438 125.734375 174.367188 125.195312 C 174.902344 124.898438 176.496094 124.882812 176.742188 124.234375 C 177.402344 122.460938 174.480469 120.085938 174.140625 118.4375 C 173.722656 116.417969 174.84375 113.703125 176.890625 113.027344 C 180.980469 111.660156 187.1875 114.390625 190.816406 115.597656 C 191.636719 115.863281 192.496094 116.113281 193.382812 116.328125 C 193.117188 117.367188 252.621094 116.359375 252.621094 116.359375 C 252.621094 116.359375 253.148438 116.414062 253.402344 116.441406 C 255.316406 116.65625 257.019531 116.886719 258.441406 117.128906 C 261.617188 117.59375 264.289062 116.429688 266.859375 115.597656 C 270.492188 114.390625 276.703125 111.660156 280.785156 113.027344 C 282.640625 113.644531 283.535156 115.777344 283.570312 117.59375 C 283.609375 119.65625 282.039062 120.566406 281.375 122.347656 C 280.625 124.332031 282.148438 124.050781 283.34375 124.984375 C 284.664062 126.015625 285.503906 128.210938 285.160156 129.867188 " fill-opacity="1" fill-rule="nonzero"/><path fill="#f58468" d="M 207.90625 47.902344 C 207.121094 47.707031 206.363281 47.46875 205.617188 47.144531 C 204.648438 46.722656 204.222656 45.269531 205.550781 45.152344 C 206.519531 45.066406 207.507812 45.53125 208.335938 45.964844 C 210.023438 46.847656 211.558594 48.183594 212.914062 49.628906 C 211.234375 49.097656 209.566406 48.320312 207.90625 47.902344 Z M 224.132812 45.597656 C 224.871094 45.4375 228.835938 44.902344 228.5625 46.519531 C 228.433594 47.304688 226.796875 47.839844 226.203125 48.074219 C 223.515625 49.128906 219.972656 50.011719 216.894531 49.984375 C 218.386719 47.5625 221.476562 46.179688 224.132812 45.597656 Z M 186.542969 58.433594 C 186.542969 58.433594 187.867188 57.714844 190.191406 56.460938 C 191.351562 55.839844 192.785156 55.148438 194.476562 54.5 C 195.328125 54.167969 196.242188 53.898438 197.203125 53.609375 C 198.21875 53.34375 199.242188 53.101562 200.347656 52.921875 C 202.542969 52.476562 204.957031 52.171875 207.515625 52.011719 C 208.058594 51.988281 208.609375 51.957031 209.164062 51.933594 C 206.207031 53.535156 203.679688 55.964844 202.203125 58.980469 C 201.710938 59.984375 203.210938 60.867188 203.703125 59.859375 C 205.671875 55.84375 209.589844 53.019531 213.886719 51.953125 C 213.910156 51.949219 213.925781 51.9375 213.941406 51.933594 C 214.484375 51.953125 215.027344 51.976562 215.574219 52.023438 C 216.414062 52.0625 217.261719 52.132812 218.109375 52.21875 C 222.882812 53.132812 226.921875 56.503906 229.285156 60.746094 C 229.832031 61.726562 231.332031 60.847656 230.785156 59.867188 C 229.332031 57.257812 227.292969 54.976562 224.867188 53.285156 C 227.492188 53.855469 230.128906 54.550781 232.691406 55.464844 C 235.527344 56.375 238.242188 57.617188 240.851562 58.941406 C 243.4375 60.308594 245.847656 61.914062 247.984375 63.609375 C 248.511719 64.082031 249.035156 64.550781 249.550781 65.015625 L 249.9375 65.363281 C 250 65.40625 250.160156 65.585938 250.265625 65.691406 L 250.976562 66.417969 C 251.90625 67.390625 252.789062 68.371094 253.609375 69.355469 C 255.257812 71.320312 256.671875 73.296875 257.835938 75.203125 C 260.171875 79.019531 261.445312 82.570312 261.949219 85.128906 C 262.207031 86.40625 262.355469 87.402344 262.390625 88.121094 C 262.441406 88.828125 262.46875 89.207031 262.46875 89.207031 C 262.476562 89.3125 262.566406 89.398438 262.679688 89.398438 C 262.792969 89.398438 262.886719 89.304688 262.886719 89.1875 C 262.886719 89.1875 262.882812 88.8125 262.878906 88.101562 C 262.882812 87.40625 262.824219 86.328125 262.613281 85.007812 C 262.4375 83.675781 262.019531 82.09375 261.4375 80.320312 C 260.84375 78.546875 259.972656 76.613281 258.835938 74.617188 C 257.703125 72.617188 256.308594 70.546875 254.683594 68.480469 C 253.871094 67.449219 253 66.417969 252.074219 65.394531 L 251.371094 64.628906 C 251.234375 64.488281 251.171875 64.398438 250.972656 64.21875 L 250.589844 63.867188 C 250.074219 63.398438 249.558594 62.925781 249.035156 62.449219 C 246.753906 60.59375 244.289062 58.929688 241.628906 57.484375 C 238.953125 56.09375 236.164062 54.789062 233.257812 53.824219 C 230.367188 52.804688 227.386719 52.078125 224.433594 51.496094 C 223.542969 51.339844 222.65625 51.195312 221.773438 51.0625 C 222.476562 50.910156 223.164062 50.75 223.820312 50.597656 C 225.988281 50.097656 229.355469 49.335938 230.242188 46.980469 C 231.445312 43.78125 225.96875 43.515625 224.300781 43.808594 C 220.757812 44.433594 216.941406 46.292969 215.175781 49.554688 C 212.738281 46.636719 208.746094 42.722656 204.933594 43.476562 C 202.503906 43.957031 201.855469 47.082031 204.171875 48.335938 C 206 49.332031 208.019531 49.667969 209.996094 50.257812 C 210.152344 50.308594 210.304688 50.359375 210.457031 50.410156 C 209.421875 50.453125 208.402344 50.523438 207.410156 50.617188 C 204.796875 50.855469 202.335938 51.242188 200.105469 51.765625 C 198.980469 51.980469 197.898438 52.277344 196.925781 52.570312 C 195.917969 52.90625 194.976562 53.261719 194.128906 53.640625 C 192.421875 54.40625 191 55.191406 189.863281 55.878906 C 187.589844 57.25 186.34375 58.101562 186.34375 58.101562 C 186.261719 58.15625 186.230469 58.265625 186.28125 58.355469 C 186.328125 58.449219 186.449219 58.484375 186.542969 58.433594 " fill-opacity="1" fill-rule="nonzero"/><g clip-path="url(#id3)"><path fill="#f58468" d="M 223.566406 248.960938 C 219.789062 250.65625 215.574219 253.367188 211.472656 251.890625 C 203.929688 249.171875 196.589844 245.8125 189.214844 242.652344 C 205.117188 242.574219 221.09375 243.503906 236.933594 241.917969 C 232.675781 244.652344 228.195312 246.882812 223.566406 248.960938 Z M 239.019531 241.175781 C 238.992188 241.042969 238.894531 240.9375 238.738281 240.90625 C 238.675781 240.886719 238.609375 240.882812 238.542969 240.894531 C 223.785156 241.675781 209.046875 241.234375 194.304688 241.738281 C 196.910156 237.03125 199.515625 232.273438 202.460938 227.773438 C 202.644531 227.492188 202.207031 227.148438 201.996094 227.414062 C 198.589844 231.636719 196.234375 236.902344 193.769531 241.714844 C 193.761719 241.730469 193.761719 241.746094 193.757812 241.757812 C 193.578125 241.765625 193.398438 241.773438 193.21875 241.78125 C 193.230469 241.710938 193.222656 241.636719 193.171875 241.570312 C 190.792969 238.378906 186.433594 235.40625 182.3125 237.230469 C 180.074219 238.222656 176.839844 240.730469 177.710938 243.335938 C 173.503906 241.246094 167.328125 244.996094 167.679688 249.832031 C 168.019531 254.519531 174.722656 256.953125 178.542969 255.042969 C 178.554688 257 181.175781 258.089844 182.925781 258.171875 C 185.425781 258.292969 188.472656 256.8125 189.753906 254.617188 C 191.15625 256.253906 194.054688 256.804688 196.070312 256.40625 C 199.144531 255.792969 201.726562 253.414062 202.398438 250.320312 C 202.488281 249.910156 201.867188 249.59375 201.683594 250.019531 C 200.640625 252.476562 199.074219 254.460938 196.464844 255.339844 C 194.5 256.007812 191.320312 255.550781 189.996094 253.910156 C 189.867188 253.753906 189.667969 253.804688 189.550781 253.929688 C 189.46875 253.929688 189.386719 253.957031 189.3125 254.035156 C 188.167969 255.328125 186.859375 256.304688 185.238281 256.914062 C 183.417969 257.59375 178.734375 257.554688 179.15625 254.351562 C 179.191406 254.085938 178.824219 254.035156 178.691406 254.222656 C 178.660156 254.222656 178.628906 254.21875 178.59375 254.230469 C 175.0625 255.300781 170.261719 254.386719 168.84375 250.519531 C 167.042969 245.609375 174.59375 242.28125 178.246094 244.320312 C 178.28125 244.367188 178.316406 244.414062 178.351562 244.460938 C 178.527344 244.667969 178.863281 244.445312 178.796875 244.203125 C 177.859375 240.933594 180.449219 238.898438 183.234375 237.914062 C 186.777344 236.660156 190.34375 239.246094 192.523438 241.808594 C 190.925781 241.871094 189.324219 241.945312 187.722656 242.035156 C 187.386719 242.007812 187.144531 242.472656 187.5 242.636719 C 195.789062 246.476562 204.179688 250.585938 212.855469 253.472656 C 215.644531 254.398438 219.746094 251.707031 222.171875 250.695312 C 227.890625 248.304688 234.195312 245.71875 238.929688 241.621094 C 239.074219 241.496094 239.082031 241.324219 239.019531 241.175781 " fill-opacity="1" fill-rule="nonzero"/></g><path fill="#f58468" d="M 208.367188 227.339844 C 208.527344 226.945312 207.898438 226.707031 207.695312 227.054688 C 206.015625 229.949219 205.433594 233.257812 204.476562 236.429688 C 204.398438 236.695312 204.574219 236.984375 204.835938 237.058594 C 209.621094 238.410156 215.5625 238.171875 220.441406 237.425781 C 226.382812 236.519531 220.722656 230.519531 219.65625 227.5 C 219.457031 226.929688 218.632812 227.152344 218.753906 227.75 C 219.21875 230.050781 220.699219 231.9375 221.796875 233.964844 C 223.472656 237.046875 216.421875 236.699219 214.714844 236.761719 C 211.902344 236.859375 209.035156 236.835938 206.253906 236.355469 C 205.042969 236.140625 206.253906 233.851562 206.5 232.921875 C 207 231.015625 207.621094 229.164062 208.367188 227.339844 " fill-opacity="1" fill-rule="nonzero"/><path fill="#f58468" d="M 172.917969 226.863281 C 171.851562 228.320312 171.417969 229.585938 171.339844 231.367188 C 171.332031 231.578125 171.523438 231.742188 171.726562 231.75 C 173.457031 231.804688 174.621094 231.117188 176.085938 230.222656 C 176.859375 229.75 177.585938 229.234375 178.328125 228.722656 C 181.378906 226.628906 180.636719 231.195312 180.648438 232.011719 C 180.671875 233.640625 182.273438 234.320312 183.414062 233.1875 C 183.921875 232.679688 187.613281 227.839844 187.730469 231.5 C 187.753906 232.167969 188.082031 233.175781 188.839844 233.382812 C 191.320312 234.066406 194.910156 229.601562 196.300781 228.105469 C 196.621094 227.761719 196.214844 227.214844 195.796875 227.453125 C 194.421875 228.238281 193.34375 229.519531 192.179688 230.582031 C 189.660156 232.878906 189.136719 230.910156 188.269531 228.96875 C 187.433594 227.097656 184.777344 230.230469 184.382812 230.671875 C 180.449219 235.039062 183.015625 228.417969 180.859375 227.152344 C 180.277344 226.8125 179.320312 227.160156 178.832031 227.449219 C 178.03125 227.925781 177.277344 228.433594 176.519531 228.976562 C 174.535156 230.402344 171.320312 230.613281 173.433594 227.164062 C 173.636719 226.832031 173.140625 226.5625 172.917969 226.863281 " fill-opacity="1" fill-rule="nonzero"/><path fill="#f58468" d="M 253.421875 227.164062 C 254.972656 229.699219 253.429688 230.910156 251.183594 229.511719 C 250.417969 229.03125 249.691406 228.515625 248.953125 228 C 248.152344 227.445312 247.113281 226.828125 246.097656 227.109375 C 244.105469 227.65625 246.324219 234.976562 243.0625 231.34375 C 242.269531 230.460938 240.183594 227.347656 238.664062 228.867188 C 238.105469 229.425781 238.167969 232.980469 236.210938 231.8125 C 234.265625 230.652344 233.019531 228.574219 231.058594 227.453125 C 230.640625 227.214844 230.234375 227.761719 230.554688 228.105469 C 232.164062 229.835938 235.207031 233.617188 237.878906 233.402344 C 238.75 233.332031 238.964844 232.285156 239.105469 231.636719 C 239.886719 228.046875 242.519531 232.265625 243.441406 233.1875 C 244.667969 234.40625 245.882812 233.578125 246.191406 232.136719 C 246.308594 231.585938 246.199219 230.847656 246.167969 230.296875 C 246.011719 227.789062 248.679688 228.816406 249.917969 229.691406 C 251.515625 230.824219 253.148438 231.8125 255.128906 231.75 C 255.332031 231.742188 255.523438 231.578125 255.511719 231.363281 C 255.433594 229.585938 255.003906 228.320312 253.933594 226.863281 C 253.714844 226.5625 253.21875 226.832031 253.421875 227.164062 " fill-opacity="1" fill-rule="nonzero"/><path fill="#f58468" d="M 245.402344 240.746094 C 244.328125 240.460938 243.191406 240.871094 242.300781 241.535156 C 242.273438 240.105469 240.882812 238.769531 239.617188 238.257812 C 237.804688 237.519531 235.605469 238.125 234.625 239.828125 C 231.53125 235.464844 228.429688 231.125 225.492188 226.648438 C 225.289062 226.339844 224.792969 226.621094 224.992188 226.941406 C 227.949219 231.71875 230.925781 236.722656 234.640625 240.960938 C 234.882812 241.238281 235.367188 240.871094 235.152344 240.566406 C 235.042969 240.410156 234.933594 240.257812 234.824219 240.105469 C 234.828125 240.097656 234.835938 240.09375 234.839844 240.089844 C 235.773438 238.625 237.640625 238.476562 239.15625 238.988281 C 239.910156 239.242188 240.554688 239.71875 240.984375 240.386719 C 241.425781 241.078125 241.265625 241.816406 241.304688 242.574219 C 241.222656 242.871094 241.492188 243.222656 241.816406 243.011719 C 242.691406 242.433594 243.628906 241.835938 244.699219 241.757812 C 246.214844 241.644531 246.855469 243.34375 247.011719 244.578125 C 247.339844 247.152344 245.660156 249.339844 243.082031 249.515625 C 242.800781 249.464844 242.519531 249.835938 242.652344 250.140625 C 244.34375 254.027344 238.140625 256.851562 235.320312 256.675781 C 233.1875 256.546875 228.824219 255.796875 228.71875 253.058594 C 228.707031 252.730469 228.328125 252.667969 228.160156 252.863281 C 226.328125 253.480469 223.617188 253.316406 222.816406 251.167969 C 222.703125 250.871094 222.238281 250.898438 222.238281 251.246094 C 222.238281 252.378906 223.582031 253.332031 224.539062 253.699219 C 225.769531 254.179688 226.964844 254.171875 228.097656 253.59375 C 228.429688 256.6875 233.296875 257.445312 235.761719 257.632812 C 238.855469 257.871094 245.582031 253.949219 243.6875 250.261719 C 246.699219 250.214844 248.523438 246.976562 248 244.101562 C 247.722656 242.582031 246.984375 241.167969 245.402344 240.746094 " fill-opacity="1" fill-rule="nonzero"/><path fill="#fabca4" d="M 166.710938 187.554688 C 164.320312 183.972656 161.878906 179.964844 160.628906 176.257812 C 160.539062 175.992188 160.453125 175.722656 160.375 175.460938 C 154.851562 179.359375 149.671875 184.695312 144.953125 189.085938 C 143.511719 190.425781 142.054688 191.871094 140.625 193.355469 C 140.648438 193.433594 140.671875 193.511719 140.695312 193.59375 C 141.902344 197.703125 141.023438 203.292969 139.382812 207.65625 C 139.140625 208.5625 138.886719 209.464844 138.582031 210.320312 C 137.648438 212.933594 136.488281 216.519531 134.1875 218.441406 C 134.433594 218.339844 135.253906 218.003906 136.511719 217.484375 C 139.636719 216.195312 146.375 215.320312 152.558594 212.625 C 160.53125 209.144531 171.75 206.222656 176.953125 199.542969 C 173.042969 195.875 169.5625 191.824219 166.710938 187.554688 " fill-opacity="1" fill-rule="nonzero"/><path fill="#fabca4" d="M 248.582031 214.855469 C 247.675781 215.617188 247.019531 216.539062 247.042969 217.769531 C 247.050781 217.992188 246.722656 217.984375 246.707031 217.769531 C 246.601562 216.453125 247.269531 215.28125 248.367188 214.574219 C 248.535156 214.46875 248.734375 214.726562 248.582031 214.855469 Z M 246.167969 211.164062 C 244.164062 212.074219 243.253906 213.988281 243.199219 216.128906 C 243.195312 216.324219 242.902344 216.324219 242.894531 216.128906 C 242.800781 213.972656 243.765625 211.453125 246.042969 210.859375 C 246.21875 210.8125 246.347656 211.082031 246.167969 211.164062 Z M 239.628906 214.058594 C 239.644531 214.183594 239.441406 214.210938 239.414062 214.089844 C 238.894531 211.808594 240.742188 208.8125 243.066406 208.316406 C 243.226562 208.285156 243.351562 208.527344 243.183594 208.597656 C 241.09375 209.503906 239.347656 211.671875 239.628906 214.058594 Z M 280.742188 137.390625 C 280.597656 138.773438 280.046875 139.859375 278.667969 140.738281 C 275.792969 142.710938 272.613281 141.195312 269.433594 141.496094 C 269.738281 146.496094 264.742188 147.253906 260.957031 147.402344 C 259.386719 147.453125 257.976562 147.148438 256.644531 146.6875 C 258.425781 154.386719 257.90625 159.28125 255.386719 167.789062 C 254.097656 172.179688 253.121094 176.761719 252.101562 181.335938 C 252.066406 181.496094 252.03125 181.652344 251.996094 181.808594 C 250.394531 188.964844 248.664062 196.09375 245.457031 202.4375 L 245.460938 202.441406 L 245.457031 202.441406 C 245.457031 202.441406 243.503906 202.613281 242.886719 202.738281 C 242.566406 202.804688 242.246094 202.886719 241.933594 202.996094 C 239.921875 203.667969 238.097656 205.121094 236.785156 206.730469 C 235.230469 208.632812 235.058594 212.164062 235.421875 214.40625 C 235.433594 214.46875 235.449219 214.523438 235.460938 214.582031 C 235.9375 216.851562 237.535156 217.523438 239.101562 215.496094 C 239.320312 215.21875 239.480469 214.894531 239.605469 214.546875 C 239.242188 216.414062 241.488281 218.039062 243.140625 216.507812 C 243.140625 216.507812 243.027344 216.929688 243.136719 217.324219 C 243.636719 218.832031 245.285156 219.359375 246.402344 218.5625 C 246.167969 219.820312 248.089844 221.070312 249.121094 220.113281 L 250.3125 219.4375 C 253.199219 217.179688 257.796875 215.433594 257.480469 211.574219 C 257.460938 211.359375 257.429688 211.140625 257.378906 210.914062 C 262.046875 206.246094 267.160156 199.46875 271.507812 192.792969 C 273.976562 189.003906 276.195312 185.25 277.945312 181.929688 C 280.074219 177.910156 281.425781 173.609375 282.203125 169.144531 C 283.984375 158.964844 282.761719 147.921875 280.742188 137.390625 " fill-opacity="1" fill-rule="nonzero"/><path fill="#fabca4" d="M 228.125 99.871094 C 227.300781 99.589844 226.375 99.304688 225.492188 99.414062 C 224.707031 99.511719 224.078125 99.949219 223.332031 100.136719 C 222.863281 100.257812 222.566406 99.78125 222.75 99.382812 C 223.757812 97.179688 226.953125 97.851562 228.628906 98.667969 C 229.300781 98.996094 228.824219 100.113281 228.125 99.871094 Z M 226.972656 109.988281 C 225.742188 110.136719 224.613281 109.160156 224.453125 107.808594 C 224.289062 106.453125 225.15625 105.238281 226.382812 105.089844 C 227.617188 104.941406 228.742188 105.917969 228.90625 107.273438 C 229.070312 108.621094 228.203125 109.839844 226.972656 109.988281 Z M 203.75 100.835938 C 202.925781 100.550781 202 100.269531 201.121094 100.378906 C 200.335938 100.476562 199.707031 100.914062 198.960938 101.101562 C 198.492188 101.21875 198.195312 100.746094 198.378906 100.34375 C 199.386719 98.144531 202.578125 98.816406 204.257812 99.632812 C 204.925781 99.957031 204.453125 101.078125 203.75 100.835938 Z M 202.011719 111.121094 C 200.78125 111.269531 199.652344 110.292969 199.488281 108.941406 C 199.328125 107.585938 200.191406 106.371094 201.421875 106.222656 C 202.652344 106.074219 203.78125 107.050781 203.941406 108.402344 C 204.105469 109.757812 203.242188 110.972656 202.011719 111.121094 Z M 252.625 116.355469 C 255.027344 113.40625 256.882812 110.144531 258.21875 106.648438 C 258.609375 106.703125 259.003906 106.738281 259.410156 106.738281 C 264.417969 106.738281 268.480469 102.675781 268.480469 97.664062 C 268.480469 93.875 266.160156 90.632812 262.867188 89.273438 C 262.835938 89.347656 262.761719 89.398438 262.679688 89.398438 C 262.65625 89.398438 262.636719 89.394531 262.617188 89.386719 C 261.480469 93.121094 261.210938 93.035156 260.144531 96.925781 C 259.566406 99.050781 258.359375 102.742188 255.480469 102.355469 C 253.378906 102.078125 248.808594 95.191406 246.695312 88.328125 L 246.65625 88.3125 C 240.378906 94.585938 229.660156 97.765625 225.457031 87.550781 C 225.898438 90.429688 224.789062 92.871094 221.910156 92.425781 C 218.367188 91.980469 217.480469 87.328125 215.261719 85.554688 C 213.710938 89.324219 218.367188 101.292969 211.277344 100.1875 C 205.117188 99.355469 201.460938 92.023438 199.363281 85.605469 C 197.140625 87.753906 194.714844 91.730469 193.449219 93.273438 C 191.558594 95.667969 189.359375 101.484375 186.191406 102.324219 C 186.277344 103.808594 186.132812 105.316406 186.273438 106.800781 C 186.308594 107.167969 186.359375 107.550781 186.429688 107.914062 C 186.480469 107.898438 186.535156 107.898438 186.585938 107.898438 C 190.308594 107.757812 193.023438 117.832031 191.910156 119.085938 C 193.734375 121.351562 195.945312 123.246094 198.640625 124.761719 C 199.953125 125.496094 201.308594 126.167969 202.691406 126.78125 C 202.871094 126.859375 203.042969 126.941406 203.222656 127.015625 C 205.074219 127.8125 206.976562 128.503906 208.921875 129.0625 C 214.777344 130.753906 220.988281 131.316406 227.132812 130.398438 C 228.160156 130.261719 229.183594 130.078125 230.207031 129.855469 C 232.644531 129.332031 235.070312 128.574219 237.445312 127.542969 C 243.871094 124.761719 248.902344 120.933594 252.625 116.355469 " fill-opacity="1" fill-rule="nonzero"/><path fill="#fabca4" d="M 215.628906 218.511719 C 213.84375 218.074219 212.136719 217.140625 210.933594 215.734375 C 210.804688 215.578125 211.023438 215.355469 211.160156 215.507812 C 212.40625 216.90625 214.023438 217.523438 215.710938 218.21875 C 215.890625 218.289062 215.824219 218.5625 215.628906 218.511719 Z M 209.808594 220.203125 C 209.113281 219.902344 208.542969 219.425781 208.039062 218.867188 C 207.90625 218.71875 208.121094 218.5 208.257812 218.648438 C 208.753906 219.1875 209.328125 219.585938 209.9375 219.976562 C 210.085938 220.070312 209.957031 220.269531 209.808594 220.203125 Z M 205.265625 221.21875 C 204.726562 220.984375 204.382812 220.589844 204.101562 220.085938 C 204.007812 219.917969 204.265625 219.765625 204.363281 219.933594 C 204.628906 220.390625 204.96875 220.695312 205.390625 221 C 205.53125 221.097656 205.414062 221.285156 205.265625 221.21875 Z M 216.152344 210.613281 C 216.117188 210.578125 216.082031 210.539062 216.050781 210.503906 C 216.074219 210.515625 216.097656 210.527344 216.121094 210.539062 C 215.9375 210.179688 212.253906 202.949219 211.152344 198.632812 C 210.957031 198.5625 210.765625 198.507812 210.566406 198.460938 C 207.402344 191.699219 204.707031 184.617188 202.386719 177.46875 C 202.328125 177.285156 202.269531 177.101562 202.210938 176.914062 C 201.617188 175.074219 201.042969 173.230469 200.5 171.382812 C 197.910156 162.628906 197.582031 157.988281 199.914062 149.390625 C 200.074219 148.796875 200.59375 147.414062 200.78125 146.773438 L 200.777344 146.773438 C 199.523438 147.183594 198.195312 147.449219 196.722656 147.402344 C 192.9375 147.25 187.941406 146.496094 188.246094 141.496094 C 185.066406 141.195312 181.890625 142.707031 179.011719 140.738281 C 178.679688 140.527344 178.394531 140.304688 178.152344 140.066406 C 177.941406 139.859375 177.761719 139.640625 177.609375 139.410156 C 176.164062 146.296875 174.964844 153.503906 174.746094 160.574219 C 174.742188 160.667969 174.742188 160.765625 174.738281 160.859375 C 174.511719 169.214844 175.679688 177.371094 179.480469 184.558594 C 183.984375 193.105469 191.167969 200.648438 197.980469 207.464844 L 198.101562 207.425781 C 197.441406 209.222656 197.335938 211.242188 197.511719 213.152344 C 197.578125 213.839844 197.675781 214.511719 197.800781 215.15625 C 198.339844 217.964844 199.332031 220.210938 199.714844 220.621094 C 201.042969 221.898438 203.742188 223.070312 205.585938 221.792969 C 207.160156 222.359375 209.847656 222.34375 210.792969 220.882812 C 212.527344 221.234375 214.953125 221.175781 216.601562 218.878906 L 216.597656 218.878906 C 217.722656 219.3125 218.839844 219.542969 219.78125 219.359375 C 220.523438 219.210938 221.160156 218.804688 221.605469 218.027344 C 223.601562 214.742188 218.605469 213.199219 216.152344 210.613281 " fill-opacity="1" fill-rule="nonzero"/><path fill="#fabca4" d="M 220.800781 210.152344 C 220.800781 210.152344 221.21875 210.96875 221.816406 212.21875 C 222.042969 212.003906 222.257812 211.722656 222.449219 211.351562 C 222.820312 210.652344 220.445312 208.214844 219.25 206.722656 C 220.128906 208.664062 220.800781 210.152344 220.800781 210.152344 " fill-opacity="1" fill-rule="nonzero"/><path fill="#f59382" d="M 176.953125 199.542969 C 169.488281 204.824219 159.582031 207.605469 151.609375 211.082031 C 145.425781 213.78125 139.632812 216.195312 136.511719 217.484375 C 157.441406 217.796875 177.34375 219.929688 197.800781 215.15625 C 197.675781 214.511719 197.578125 213.835938 197.511719 213.152344 C 190.148438 210.007812 183.035156 205.25 176.953125 199.542969 " fill-opacity="1" fill-rule="nonzero"/><path fill="#f59382" d="M 243.183594 208.597656 C 243.351562 208.527344 243.226562 208.285156 243.066406 208.316406 C 240.742188 208.8125 238.894531 211.808594 239.414062 214.089844 C 239.441406 214.210938 239.644531 214.183594 239.628906 214.058594 C 239.347656 211.671875 241.09375 209.503906 243.183594 208.597656 " fill-opacity="1" fill-rule="nonzero"/><path fill="#f59382" d="M 246.042969 210.859375 C 243.765625 211.453125 242.800781 213.972656 242.894531 216.128906 C 242.902344 216.324219 243.195312 216.324219 243.199219 216.128906 C 243.253906 213.988281 244.164062 212.074219 246.167969 211.164062 C 246.347656 211.082031 246.21875 210.8125 246.042969 210.859375 " fill-opacity="1" fill-rule="nonzero"/><path fill="#f59382" d="M 248.367188 214.574219 C 247.269531 215.28125 246.601562 216.453125 246.707031 217.769531 C 246.722656 217.984375 247.050781 217.992188 247.042969 217.769531 C 247.019531 216.539062 247.675781 215.617188 248.582031 214.855469 C 248.734375 214.726562 248.535156 214.46875 248.367188 214.574219 " fill-opacity="1" fill-rule="nonzero"/><path fill="#f59382" d="M 208.921875 129.0625 C 211.640625 132.074219 215.578125 133.964844 219.953125 133.964844 C 223.929688 133.964844 227.539062 132.402344 230.207031 129.855469 C 229.183594 130.078125 228.160156 130.261719 227.132812 130.398438 C 220.988281 131.316406 214.777344 130.753906 208.921875 129.0625 " fill-opacity="1" fill-rule="nonzero"/><path fill="#f59382" d="M 242.480469 105.699219 C 246.203125 105.699219 249.21875 108.71875 249.21875 112.445312 C 249.21875 116.167969 246.203125 119.1875 242.480469 119.1875 C 238.757812 119.1875 235.738281 116.167969 235.738281 112.445312 C 235.738281 108.71875 238.757812 105.699219 242.480469 105.699219 " fill-opacity="1" fill-rule="nonzero"/><path fill="#f59382" d="M 189.175781 115.023438 C 189.984375 116.488281 190.886719 117.839844 191.910156 119.085938 C 193.023438 117.832031 193.667969 116.179688 193.597656 114.371094 C 193.457031 110.648438 190.308594 107.757812 186.585938 107.898438 C 186.535156 107.898438 186.480469 107.898438 186.429688 107.914062 C 186.796875 110.003906 187.628906 112.003906 188.570312 113.882812 C 188.765625 114.273438 188.96875 114.648438 189.175781 115.023438 " fill-opacity="1" fill-rule="nonzero"/><path fill="#f59382" d="M 212.945312 111.207031 C 213.199219 111.089844 213.46875 110.925781 213.789062 110.875 C 214.089844 110.765625 214.429688 110.773438 214.761719 110.761719 C 215.101562 110.792969 215.4375 110.835938 215.761719 110.945312 C 216.097656 111.007812 216.367188 111.15625 216.640625 111.25 C 217.167969 111.511719 217.554688 111.675781 217.554688 111.675781 C 217.554688 111.675781 217.5 111.585938 217.398438 111.4375 C 217.28125 111.304688 217.171875 111.070312 216.941406 110.867188 C 216.6875 110.691406 216.421875 110.371094 216.039062 110.234375 C 215.683594 110.027344 215.246094 109.945312 214.800781 109.894531 C 214.578125 109.882812 214.351562 109.933594 214.132812 109.953125 C 213.90625 109.957031 213.710938 110.082031 213.519531 110.160156 C 213.113281 110.296875 212.871094 110.628906 212.632812 110.835938 C 212.40625 111.058594 212.332031 111.339844 212.238281 111.484375 C 212.15625 111.648438 212.125 111.742188 212.125 111.742188 C 212.125 111.742188 212.222656 111.6875 212.367188 111.589844 C 212.511719 111.496094 212.707031 111.34375 212.945312 111.207031 " fill-opacity="1" fill-rule="nonzero"/><path fill="#f59382" d="M 226.089844 118.25 C 226.257812 118.023438 225.945312 117.773438 225.730469 117.890625 C 219.929688 121.019531 214.425781 122.625 208.597656 118.539062 C 208.277344 118.316406 208.011719 118.777344 208.214844 119.035156 C 212.132812 124.039062 222.453125 123.222656 226.089844 118.25 " fill-opacity="1" fill-rule="nonzero"/><path fill="#f59382" d="M 127.304688 195.261719 C 127.289062 195.148438 127.207031 195.054688 127.113281 194.984375 C 127.105469 194.882812 127.074219 194.789062 127.019531 194.726562 C 126.769531 194.4375 126.417969 194.800781 126.304688 195.058594 C 126.25 195.140625 126.207031 195.234375 126.207031 195.332031 C 126.203125 195.75 126.183594 196.152344 126.152344 196.546875 C 125.898438 197.4375 125.675781 198.339844 125.464844 199.246094 C 125.425781 199.332031 125.390625 199.417969 125.347656 199.503906 C 124.609375 200.917969 124.394531 202.371094 123.96875 203.890625 C 123.511719 205.527344 122.445312 208.300781 123.292969 210.019531 C 123.292969 210.019531 123.292969 210.023438 123.292969 210.023438 C 123.289062 210.054688 123.308594 210.078125 123.328125 210.09375 C 123.414062 210.253906 123.511719 210.40625 123.636719 210.546875 C 123.875 210.816406 124.21875 210.472656 124.09375 210.191406 C 123.574219 209.007812 124.425781 206.804688 124.664062 205.589844 C 124.976562 204.035156 125.402344 202.148438 126.023438 200.703125 C 126.859375 198.761719 127.648438 197.472656 127.304688 195.261719 " fill-opacity="1" fill-rule="nonzero"/><path fill="#f59382" d="M 215.710938 218.21875 C 214.023438 217.523438 212.40625 216.90625 211.160156 215.507812 C 211.023438 215.355469 210.804688 215.578125 210.933594 215.734375 C 212.136719 217.140625 213.84375 218.074219 215.628906 218.511719 C 215.824219 218.5625 215.890625 218.289062 215.710938 218.21875 " fill-opacity="1" fill-rule="nonzero"/><path fill="#f59382" d="M 209.9375 219.976562 C 209.328125 219.585938 208.753906 219.1875 208.257812 218.648438 C 208.121094 218.5 207.90625 218.71875 208.039062 218.867188 C 208.542969 219.425781 209.113281 219.902344 209.808594 220.203125 C 209.957031 220.269531 210.085938 220.070312 209.9375 219.976562 " fill-opacity="1" fill-rule="nonzero"/><path fill="#f59382" d="M 204.363281 219.933594 C 204.265625 219.765625 204.007812 219.917969 204.101562 220.085938 C 204.382812 220.589844 204.726562 220.984375 205.265625 221.21875 C 205.414062 221.285156 205.53125 221.097656 205.390625 221 C 204.96875 220.695312 204.628906 220.390625 204.363281 219.933594 " fill-opacity="1" fill-rule="nonzero"/><path fill="#fcf9e5" d="M 204.242188 177.800781 L 203.554688 177.5 C 203.113281 177.308594 202.664062 177.113281 202.210938 176.914062 C 202.269531 177.101562 202.328125 177.285156 202.386719 177.46875 C 202.722656 177.613281 203.054688 177.757812 203.378906 177.898438 L 204.066406 178.199219 C 213.320312 182.101562 222.992188 184.050781 233.011719 184.050781 C 239.210938 184.050781 245.542969 183.300781 251.996094 181.808594 C 252.03125 181.652344 252.066406 181.496094 252.101562 181.335938 C 235.226562 185.277344 219.1875 184.105469 204.242188 177.800781 " fill-opacity="1" fill-rule="nonzero"/><path fill="#fcf9e5" d="M 211.488281 136.230469 C 214.09375 137.847656 216.933594 138.648438 220.113281 138.648438 C 221.140625 138.648438 222.207031 138.566406 223.308594 138.398438 C 231.375 137.226562 237.34375 133.207031 242.664062 125.367188 C 242.730469 125.269531 242.703125 125.132812 242.605469 125.066406 C 242.507812 125 242.371094 125.023438 242.300781 125.125 C 237.058594 132.855469 231.183594 136.816406 223.242188 137.964844 C 218.839844 138.632812 215.070312 137.945312 211.714844 135.859375 C 209.558594 134.585938 204.484375 130.589844 203.222656 127.015625 C 203.046875 126.941406 202.871094 126.859375 202.691406 126.78125 C 203.78125 130.605469 209.128906 134.835938 211.488281 136.230469 " fill-opacity="1" fill-rule="nonzero"/><path fill="#fcf9e5" d="M 281.085938 126.625 C 280.601562 126.132812 279.96875 125.707031 279.300781 125.257812 C 278.136719 124.46875 276.929688 123.65625 276.546875 122.46875 C 276.152344 121.207031 276.957031 120.203125 277.8125 119.140625 C 278.570312 118.203125 279.351562 117.234375 279.308594 116.035156 C 279.257812 114.757812 278.285156 113.417969 276.945312 112.726562 C 276.839844 112.671875 276.730469 112.617188 276.617188 112.570312 C 276.511719 112.523438 276.378906 112.574219 276.332031 112.6875 C 276.316406 112.722656 276.316406 112.761719 276.320312 112.796875 C 276.332031 112.871094 276.371094 112.941406 276.449219 112.972656 C 277.804688 113.539062 278.824219 114.835938 278.871094 116.050781 C 278.910156 117.085938 278.210938 117.953125 277.476562 118.867188 C 276.585938 119.972656 275.667969 121.113281 276.132812 122.601562 C 276.5625 123.933594 277.832031 124.789062 279.058594 125.617188 C 279.707031 126.054688 280.320312 126.46875 280.777344 126.933594 C 281.601562 127.777344 281.929688 128.652344 281.722656 129.464844 C 281.472656 130.464844 280.410156 131.347656 278.886719 131.828125 C 278.550781 131.929688 278.210938 132.015625 277.867188 132.105469 C 277.398438 132.222656 276.914062 132.34375 276.441406 132.511719 C 275.796875 132.738281 275.46875 132.960938 275.335938 133.253906 C 275.1875 133.59375 275.335938 133.945312 275.523438 134.390625 C 275.625 134.636719 275.742188 134.914062 275.835938 135.246094 C 276.03125 135.914062 275.964844 136.496094 275.636719 136.96875 C 275.148438 137.675781 274.066406 138.160156 272.742188 138.257812 C 272.121094 138.300781 271.320312 138.320312 270.589844 138.109375 C 270.355469 138.042969 270.097656 137.933594 269.820312 137.816406 C 269.152344 137.53125 268.390625 137.210938 267.6875 137.414062 C 266.761719 137.695312 266.636719 138.808594 266.523438 139.789062 C 266.46875 140.277344 266.414062 140.738281 266.28125 141.046875 C 265.84375 142.027344 265.144531 142.683594 264.207031 143.003906 C 262.261719 143.664062 259.179688 142.890625 255.292969 140.773438 C 255.289062 140.769531 255.285156 140.769531 255.28125 140.769531 C 255.273438 140.761719 255.269531 140.757812 255.257812 140.753906 C 255.246094 140.75 255.230469 140.75 255.21875 140.75 C 255.214844 140.75 255.210938 140.75 255.207031 140.75 C 255.183594 140.746094 255.160156 140.75 255.136719 140.753906 C 255.132812 140.753906 255.128906 140.757812 255.125 140.757812 C 255.101562 140.765625 255.078125 140.777344 255.058594 140.792969 C 255.054688 140.792969 255.054688 140.792969 255.054688 140.792969 C 255.03125 140.8125 255.015625 140.832031 255 140.859375 C 254.992188 140.871094 254.984375 140.882812 254.980469 140.894531 C 254.164062 143.050781 252.265625 144.6875 249.625 145.507812 C 246.300781 146.550781 242.441406 146.0625 239.96875 144.375 C 239.953125 144.355469 239.933594 144.355469 239.917969 144.339844 C 239.8125 144.269531 239.691406 144.285156 239.621094 144.390625 C 239.605469 144.410156 239.605469 144.425781 239.605469 144.445312 C 239.605469 144.445312 239.605469 144.445312 239.601562 144.449219 C 239.222656 145.210938 238.683594 145.703125 238.019531 146.378906 C 236.542969 147.894531 234.457031 149.027344 232.210938 149.0625 C 228.925781 149.113281 226.800781 147.414062 225.742188 145.152344 C 225.734375 145.140625 225.722656 145.136719 225.714844 145.128906 C 225.703125 145.109375 225.695312 145.089844 225.679688 145.074219 C 225.59375 144.984375 225.453125 144.980469 225.371094 145.0625 C 224.128906 146.222656 222.265625 146.816406 220.050781 146.710938 C 217.519531 146.597656 215.097656 145.585938 213.734375 144.0625 C 213.722656 144.054688 213.714844 144.050781 213.703125 144.042969 C 213.691406 144.035156 213.683594 144.023438 213.671875 144.019531 C 213.660156 144.011719 213.644531 144.007812 213.632812 144.003906 C 213.617188 144 213.605469 143.996094 213.59375 143.992188 C 213.578125 143.992188 213.5625 143.996094 213.546875 143.996094 C 213.535156 143.996094 213.523438 143.996094 213.511719 144.003906 C 213.496094 144.003906 213.480469 144.015625 213.464844 144.023438 C 213.457031 144.027344 213.449219 144.03125 213.441406 144.035156 C 211.28125 145.621094 208.078125 146.246094 205.644531 145.542969 C 203.875 145.035156 202.589844 143.878906 201.925781 142.207031 C 201.878906 142.09375 201.746094 142.039062 201.644531 142.082031 C 201.636719 142.085938 201.628906 142.09375 201.621094 142.097656 C 199.421875 142.519531 197.292969 142.40625 195.105469 141.746094 C 193.617188 141.289062 191.097656 139.96875 191.097656 137.9375 C 191.097656 137.84375 191.042969 137.761719 190.953125 137.730469 C 190.875 137.703125 190.773438 137.726562 190.714844 137.796875 C 189.023438 139.847656 184.152344 139.066406 182.109375 137.5 C 180.246094 136.101562 180.816406 134.839844 181.535156 133.238281 C 181.71875 132.832031 181.90625 132.410156 182.058594 131.96875 C 182.078125 131.914062 182.074219 131.851562 182.050781 131.800781 C 182.027344 131.746094 181.980469 131.707031 181.921875 131.691406 C 181.207031 131.453125 180.453125 131.410156 179.722656 131.367188 C 178.109375 131.277344 176.835938 131.203125 176.679688 129.128906 C 176.550781 127.582031 177.433594 127.085938 178.457031 126.515625 C 179.371094 126 180.3125 125.472656 180.4375 124.136719 C 180.570312 122.476562 179.632812 121.230469 178.734375 120.03125 C 177.925781 118.960938 177.167969 117.949219 177.167969 116.703125 C 177.167969 115.269531 177.652344 113.757812 178.402344 112.855469 C 178.441406 112.8125 178.457031 112.757812 178.453125 112.703125 C 178.449219 112.644531 178.425781 112.589844 178.375 112.550781 C 178.285156 112.472656 178.148438 112.488281 178.070312 112.578125 C 178.019531 112.640625 177.972656 112.714844 177.921875 112.78125 C 177.195312 113.769531 176.734375 115.269531 176.734375 116.703125 C 176.734375 118.097656 177.570312 119.210938 178.382812 120.292969 C 179.277344 121.480469 180.121094 122.605469 180.003906 124.097656 C 179.898438 125.207031 179.09375 125.65625 178.246094 126.136719 C 177.238281 126.699219 176.097656 127.339844 176.246094 129.164062 C 176.429688 131.617188 178.09375 131.710938 179.695312 131.800781 C 180.324219 131.839844 180.96875 131.875 181.574219 132.039062 C 181.4375 132.386719 181.285156 132.730469 181.136719 133.058594 C 180.402344 134.695312 179.707031 136.242188 181.84375 137.847656 C 183.945312 139.453125 188.621094 140.246094 190.707031 138.425781 C 191.054688 140.429688 193.492188 141.707031 194.976562 142.164062 C 196.351562 142.578125 197.703125 142.78125 199.058594 142.78125 C 199.902344 142.78125 200.75 142.699219 201.601562 142.542969 C 202.335938 144.246094 203.683594 145.429688 205.523438 145.960938 C 206.25 146.167969 207.027344 146.269531 207.824219 146.269531 C 209.8125 146.269531 211.90625 145.636719 213.539062 144.492188 C 214.996094 146.019531 217.460938 147.035156 220.035156 147.148438 C 220.195312 147.152344 220.355469 147.15625 220.515625 147.15625 C 222.433594 147.15625 224.105469 146.632812 225.324219 145.667969 C 225.324219 145.667969 225.324219 145.671875 225.324219 145.675781 C 226.472656 148.09375 228.976562 149.882812 232.074219 149.882812 L 232.195312 149.882812 C 235.65625 149.882812 238.769531 147.589844 239.96875 144.925781 C 239.96875 144.917969 239.972656 144.902344 239.976562 144.882812 C 241.59375 145.941406 243.765625 146.480469 245.972656 146.480469 C 247.242188 146.480469 248.527344 146.304688 249.746094 145.925781 C 252.441406 145.097656 254.398438 143.4375 255.292969 141.265625 C 258.269531 142.863281 260.738281 143.671875 262.652344 143.671875 C 263.273438 143.671875 263.839844 143.585938 264.34375 143.414062 C 265.402344 143.058594 266.1875 142.320312 266.675781 141.226562 C 266.839844 140.851562 266.894531 140.359375 266.953125 139.839844 C 267.058594 138.949219 267.160156 138.027344 267.808594 137.832031 C 268.375 137.671875 269.019531 137.949219 269.648438 138.214844 C 269.941406 138.339844 270.210938 138.457031 270.46875 138.527344 C 271.269531 138.757812 272.117188 138.734375 272.773438 138.691406 C 274.226562 138.582031 275.433594 138.03125 275.996094 137.214844 C 276.402344 136.628906 276.488281 135.925781 276.253906 135.125 C 276.148438 134.765625 276.023438 134.464844 275.921875 134.222656 C 275.769531 133.859375 275.660156 133.597656 275.734375 133.429688 C 275.808594 133.261719 276.085938 133.097656 276.585938 132.917969 C 277.039062 132.761719 277.515625 132.640625 277.972656 132.527344 C 278.324219 132.4375 278.671875 132.347656 279.015625 132.242188 C 280.710938 131.710938 281.851562 130.738281 282.144531 129.574219 C 282.316406 128.898438 282.269531 127.835938 281.085938 126.625 " fill-opacity="1" fill-rule="nonzero"/><g clip-path="url(#id4)"><path fill="#fcf9e5" d="M 123.480469 210.046875 C 123.460938 210.152344 123.285156 210.128906 123.292969 210.023438 C 123.488281 207.554688 124.136719 204.851562 124.726562 202.4375 C 125.347656 199.890625 125.824219 197.28125 126.703125 194.804688 C 126.757812 194.652344 126.980469 194.710938 126.945312 194.871094 C 125.820312 199.925781 124.394531 204.964844 123.480469 210.046875 Z M 140.625 193.355469 C 139.984375 191.285156 138.859375 189.136719 136.851562 188.152344 C 134.34375 186.921875 130.890625 187.085938 129.265625 189.296875 C 128.5 190.34375 127.691406 192.234375 126.902344 194.597656 C 125.085938 193.332031 123.386719 192.332031 122.765625 192.425781 C 120.660156 192.703125 120.371094 194.511719 120.484375 196.234375 C 120.675781 200.605469 121.621094 205.980469 123.003906 211.105469 C 122.953125 211.390625 122.910156 211.679688 122.863281 211.960938 C 121.691406 219.289062 125.5 223.480469 133.28125 219.078125 C 133.605469 218.898438 133.902344 218.679688 134.1875 218.441406 C 136.488281 216.519531 137.648438 212.933594 138.582031 210.320312 C 138.886719 209.464844 139.140625 208.5625 139.382812 207.65625 C 141.023438 203.292969 141.902344 197.707031 140.695312 193.59375 C 140.671875 193.511719 140.648438 193.433594 140.625 193.355469 " fill-opacity="1" fill-rule="nonzero"/></g></svg>