<svg xmlns="http://www.w3.org/2000/svg" xmlns:xlink="http://www.w3.org/1999/xlink" width="559" zoomAndPan="magnify" viewBox="0 0 419.25 297.749993" height="396" preserveAspectRatio="xMidYMid meet" version="1.0"><defs><filter x="0%" y="0%" width="100%" height="100%" id="id1"><feColorMatrix values="0 0 0 0 1 0 0 0 0 1 0 0 0 0 1 0 0 0 1 0" color-interpolation-filters="sRGB"/></filter><clipPath id="id2"><path d="M 0 0.140625 L 418.5 0.140625 L 418.5 297.359375 L 0 297.359375 Z M 0 0.140625 " clip-rule="nonzero"/></clipPath><mask id="id3"><g filter="url(#id1)"><rect x="-41.925" width="503.1" fill="#000000" y="-29.774999" height="357.299992" fill-opacity="0.498"/></g></mask><clipPath id="id4"><path d="M 1 1 L 50.832031 1 L 50.832031 70.351562 L 1 70.351562 Z M 1 1 " clip-rule="nonzero"/></clipPath><clipPath id="id5"><rect x="0" width="51" y="0" height="71"/></clipPath><mask id="id6"><g filter="url(#id1)"><rect x="-41.925" width="503.1" fill="#000000" y="-29.774999" height="357.299992" fill-opacity="0.298"/></g></mask><clipPath id="id7"><path d="M 1 1 L 192 1 L 192 32.707031 L 1 32.707031 Z M 1 1 " clip-rule="nonzero"/></clipPath><clipPath id="id8"><rect x="0" width="193" y="0" height="33"/></clipPath></defs><g clip-path="url(#id2)"><path fill="#c9e265" d="M 0 0.140625 L 418.5 0.140625 L 418.5 297.359375 L 0 297.359375 Z M 0 0.140625 " fill-opacity="1" fill-rule="nonzero"/><path fill="#ffffff" d="M 0 0.140625 L 418.5 0.140625 L 418.5 297.359375 L 0 297.359375 Z M 0 0.140625 " fill-opacity="1" fill-rule="nonzero"/><path fill="#c9e265" d="M 0 0.140625 L 418.5 0.140625 L 418.5 297.359375 L 0 297.359375 Z M 0 0.140625 " fill-opacity="1" fill-rule="nonzero"/></g><path fill="#7a8799" d="M 267.160156 86.496094 C 267.160156 86.496094 208.390625 88.542969 232.808594 56.109375 C 257.195312 40.929688 277.890625 66.015625 273.082031 80.992188 C 272.464844 82.917969 267.160156 86.496094 267.160156 86.496094 Z M 269.292969 196.652344 C 269.292969 196.652344 258.628906 208.597656 260.003906 209.28125 C 261.375 209.960938 262.667969 214.230469 263.394531 221.910156 C 264.121094 229.585938 259.4375 236.585938 268.644531 238.375 C 280.761719 240.679688 291.910156 237.695312 293.527344 234.195312 C 296.488281 227.785156 291.589844 223.613281 292.074219 206.804688 C 292.316406 198.363281 279.957031 186.328125 279.957031 186.328125 Z M 167.765625 224.980469 C 167.765625 224.980469 170.832031 237.777344 171.214844 243.539062 C 171.601562 249.296875 172.878906 255.0625 187.3125 255.316406 C 201.75 255.570312 206.21875 253.011719 204.433594 244.304688 C 202.769531 237.90625 203.027344 225.875 203.027344 225.875 L 168.40625 224.980469 Z M 90.433594 205.011719 C 90.433594 205.011719 82.597656 205.226562 82.34375 206.675781 C 82.023438 208.484375 89.582031 207.828125 89.582031 207.828125 C 89.582031 207.828125 83.066406 212.394531 84.6875 214.441406 C 86.175781 216.328125 91.753906 208.707031 91.753906 208.707031 C 91.753906 208.707031 92.71875 215.007812 94.183594 215.011719 C 95.542969 215.015625 94.523438 207.230469 94.523438 207.230469 C 94.523438 207.230469 91.371094 207.957031 90.433594 205.011719 Z M 90.433594 205.011719 " fill-opacity="1" fill-rule="nonzero"/><path fill="#b0bbc5" d="M 335.292969 226.855469 C 334.699219 228.183594 332.90625 228.90625 326.691406 226.261719 C 334.101562 236.753906 313.40625 231.890625 309.0625 212.179688 C 304.71875 192.472656 311.53125 166.445312 311.53125 166.445312 C 308.464844 176.34375 294.15625 184.195312 282.914062 182.65625 C 277.292969 198.1875 256.808594 212.609375 251.1875 215.507812 C 251.359375 219.945312 248.363281 235.195312 249.867188 241.535156 C 250.460938 244.023438 253.617188 247.847656 250.039062 251.773438 C 244.929688 256.550781 222.445312 255.1875 220.910156 251.773438 C 219.378906 248.359375 219.890625 232.316406 219.71875 225.832031 C 201.109375 231.636719 159.546875 227.839844 156.652344 225.621094 C 156.183594 230.730469 156.4375 238.441406 157.207031 242.726562 C 157.667969 245.289062 159.929688 250.40625 157.375 253.136719 C 154.820312 255.867188 135.234375 256.210938 129.101562 253.136719 C 124.871094 251.019531 114.164062 219.527344 111.164062 185.070312 C 105.289062 196.339844 94.523438 207.230469 94.523438 207.230469 C 94.523438 207.230469 91.082031 208.40625 90.433594 205.011719 C 109.003906 184.359375 110.308594 170.476562 110.375 167.664062 C 110.375 167.5 110.371094 167.332031 110.375 167.167969 C 110.371094 167.144531 110.371094 167.128906 110.371094 167.128906 C 110.371094 167.128906 110.375 167.125 110.375 167.125 C 110.394531 157.488281 111.195312 147.96875 113.089844 139.140625 C 122.96875 93.066406 172.707031 93.40625 172.707031 93.40625 C 172.707031 93.40625 179.179688 55.523438 218.015625 53.472656 C 256.851562 51.425781 265.027344 80.4375 265.027344 80.4375 C 308.804688 81.289062 330.355469 115.558594 332.527344 144.398438 C 334.007812 164.09375 327.707031 185.820312 327.203125 201.8125 C 326.605469 220.628906 336.398438 224.382812 335.292969 226.855469 Z M 335.292969 226.855469 C 334.699219 228.183594 332.90625 228.90625 326.691406 226.261719 C 334.101562 236.753906 313.40625 231.890625 309.0625 212.179688 C 304.71875 192.472656 311.53125 166.445312 311.53125 166.445312 C 308.464844 176.34375 294.15625 184.195312 282.914062 182.65625 C 277.292969 198.1875 256.808594 212.609375 251.1875 215.507812 C 251.359375 219.945312 248.363281 235.195312 249.867188 241.535156 C 250.460938 244.023438 253.617188 247.847656 250.039062 251.773438 C 244.929688 256.550781 222.445312 255.1875 220.910156 251.773438 C 219.378906 248.359375 219.890625 232.316406 219.71875 225.832031 C 201.109375 231.636719 159.546875 227.839844 156.652344 225.621094 C 156.183594 230.730469 156.4375 238.441406 157.207031 242.726562 C 157.667969 245.289062 159.929688 250.40625 157.375 253.136719 C 154.820312 255.867188 135.234375 256.210938 129.101562 253.136719 C 124.871094 251.019531 114.164062 219.527344 111.164062 185.070312 C 105.289062 196.339844 94.523438 207.230469 94.523438 207.230469 C 94.523438 207.230469 91.082031 208.40625 90.433594 205.011719 C 109.003906 184.359375 110.308594 170.476562 110.375 167.664062 C 110.375 167.5 110.371094 167.332031 110.375 167.167969 C 110.371094 167.144531 110.371094 167.128906 110.371094 167.128906 C 110.371094 167.128906 110.375 167.125 110.375 167.125 C 110.394531 157.488281 111.195312 147.96875 113.089844 139.140625 C 122.96875 93.066406 172.707031 93.40625 172.707031 93.40625 C 172.707031 93.40625 179.179688 55.523438 218.015625 53.472656 C 256.851562 51.425781 265.027344 80.4375 265.027344 80.4375 C 308.804688 81.289062 330.355469 115.558594 332.527344 144.398438 C 334.007812 164.09375 327.707031 185.820312 327.203125 201.8125 C 326.605469 220.628906 336.398438 224.382812 335.292969 226.855469 Z M 335.292969 226.855469 " fill-opacity="1" fill-rule="nonzero"/><path fill="#e1d7ce" d="M 282.503906 145.921875 C 288.894531 145.460938 295.828125 141.265625 294.257812 128.675781 C 292.738281 116.503906 283.917969 115.75 278.871094 116.34375 C 273.828125 116.933594 265.921875 121.484375 267.738281 133.121094 C 269.554688 144.753906 277.019531 146.316406 282.503906 145.921875 Z M 282.503906 145.921875 C 288.894531 145.460938 295.828125 141.265625 294.257812 128.675781 C 292.738281 116.503906 283.917969 115.75 278.871094 116.34375 C 273.828125 116.933594 265.921875 121.484375 267.738281 133.121094 C 269.554688 144.753906 277.019531 146.316406 282.503906 145.921875 Z M 299.300781 146.800781 C 299.457031 146.304688 299.898438 145.957031 300.414062 145.921875 C 303.867188 145.6875 317.335938 144.65625 319.707031 142.726562 C 321.726562 140.703125 323.078125 155.820312 304.414062 160.144531 C 303.59375 160.332031 302.710938 160.148438 302.066406 159.601562 C 299.683594 157.589844 297.785156 151.609375 299.300781 146.800781 Z M 299.300781 146.800781 " fill-opacity="1" fill-rule="nonzero"/><path fill="#231f20" d="M 277.902344 143.292969 C 275.855469 143.445312 273.453125 143.230469 271.351562 141.929688 C 269.71875 140.285156 268.101562 137.25 267.472656 133.210938 C 266.648438 127.925781 268.101562 123.761719 270.109375 121.355469 C 271.722656 120.074219 273.558594 119.402344 275.070312 119.21875 C 279.003906 118.734375 285.882812 119.347656 287.066406 129.253906 C 288.292969 139.503906 282.882812 142.917969 277.902344 143.292969 Z M 277.902344 143.292969 C 275.855469 143.445312 273.453125 143.230469 271.351562 141.929688 C 269.71875 140.285156 268.101562 137.25 267.472656 133.210938 C 266.648438 127.925781 268.101562 123.761719 270.109375 121.355469 C 271.722656 120.074219 273.558594 119.402344 275.070312 119.21875 C 279.003906 118.734375 285.882812 119.347656 287.066406 129.253906 C 288.292969 139.503906 282.882812 142.917969 277.902344 143.292969 Z M 277.902344 143.292969 " fill-opacity="1" fill-rule="nonzero"/><g mask="url(#id3)"><g transform="matrix(1, 0, 0, 1, 200, 80)"><g clip-path="url(#id5)"><g clip-path="url(#id4)"><path fill="#e1d7ce" d="M 36.921875 68.699219 C 24.460938 74.515625 15.800781 60.652344 22.019531 54.757812 C 9.371094 56.601562 -9.5625 31.480469 8.40625 10.351562 C 27.523438 -12.121094 50.324219 13.503906 50.324219 13.503906 C 40.234375 25.773438 33.6875 51.089844 36.921875 68.699219 Z M 36.921875 68.699219 C 24.460938 74.515625 15.800781 60.652344 22.019531 54.757812 C 9.371094 56.601562 -9.5625 31.480469 8.40625 10.351562 C 27.523438 -12.121094 50.324219 13.503906 50.324219 13.503906 C 40.234375 25.773438 33.6875 51.089844 36.921875 68.699219 Z M 36.921875 68.699219 " fill-opacity="1" fill-rule="nonzero"/></g></g></g></g><g mask="url(#id6)"><g transform="matrix(1, 0, 0, 1, 129, 98)"><g clip-path="url(#id8)"><g clip-path="url(#id7)"><path fill="#7a8799" d="M 175.40625 11.757812 C 179.066406 8.109375 181.832031 4.449219 183.539062 1.972656 C 183.269531 1.667969 182.859375 1.28125 182.597656 1.035156 C 180.945312 3.453125 178.179688 7.148438 174.484375 10.832031 C 174.230469 11.085938 174.226562 11.5 174.484375 11.757812 C 174.609375 11.886719 174.777344 11.949219 174.945312 11.949219 C 175.113281 11.949219 175.277344 11.886719 175.40625 11.757812 Z M 187.390625 17.273438 C 190.484375 14.558594 191.84375 12.511719 191.917969 12.398438 C 191.8125 12.203125 191.460938 11.652344 191.144531 11.238281 C 191.125 11.265625 189.488281 13.695312 186.53125 16.289062 C 186.257812 16.527344 186.230469 16.941406 186.46875 17.210938 C 186.597656 17.359375 186.777344 17.433594 186.960938 17.433594 C 187.113281 17.433594 187.265625 17.382812 187.390625 17.273438 Z M 15.011719 14.652344 C 16.066406 17.371094 19.320312 19.238281 26.898438 16.855469 C 34.21875 14.550781 34.398438 10.050781 33.59375 7.890625 C 32.667969 5.402344 28.644531 3.726562 21.234375 6.28125 C 13.769531 8.851562 14.109375 12.320312 15.011719 14.652344 Z M 2.144531 31.113281 C 3.378906 32.746094 5.78125 33.453125 9.917969 30.632812 C 13.917969 27.910156 13.058594 24.894531 12.097656 23.589844 C 10.992188 22.089844 8.160156 21.636719 4.160156 24.542969 C 0.128906 27.46875 1.085938 29.714844 2.144531 31.113281 Z M 21.636719 29.90625 C 22.414062 31.25 23.984375 32.066406 26.789062 30.542969 C 29.5 29.066406 29.003906 26.765625 28.398438 25.695312 C 27.703125 24.464844 25.84375 23.777344 23.128906 25.382812 C 20.390625 27 20.96875 28.753906 21.636719 29.90625 Z M 21.636719 29.90625 " fill-opacity="1" fill-rule="nonzero"/></g></g></g></g><path fill="#626f80" d="M 240.117188 164.683594 C 240.367188 164.425781 240.363281 164.011719 240.105469 163.757812 C 239.847656 163.507812 239.433594 163.511719 239.183594 163.769531 C 228.804688 174.390625 215.914062 177.46875 203.808594 172.226562 C 192.855469 167.476562 185.515625 156.695312 185.964844 146.003906 C 185.972656 145.753906 185.84375 145.519531 185.625 145.398438 C 162.285156 132.652344 172.585938 93.796875 172.691406 93.40625 C 172.289062 93.378906 171.574219 93.429688 171.332031 93.441406 C 171.300781 93.542969 168.691406 103.21875 169 114.714844 C 169.402344 129.867188 174.8125 140.796875 184.644531 146.351562 C 184.375 157.441406 191.988281 168.527344 203.292969 173.425781 C 207.242188 175.140625 211.324219 175.976562 215.398438 175.976562 C 224.15625 175.976562 232.871094 172.101562 240.117188 164.683594 Z M 327.097656 226.769531 C 327.378906 226.546875 327.425781 226.132812 327.199219 225.851562 C 327.171875 225.8125 324.214844 222.070312 323.238281 217.917969 C 323.15625 217.566406 322.800781 217.351562 322.453125 217.433594 C 322.101562 217.515625 321.882812 217.867188 321.964844 218.21875 C 323.011719 222.664062 326.050781 226.507812 326.179688 226.667969 C 326.308594 226.828125 326.5 226.914062 326.691406 226.914062 C 326.832031 226.914062 326.976562 226.867188 327.097656 226.769531 Z M 154.222656 245.667969 C 151.886719 245.941406 150.679688 247.816406 150.066406 249.875 C 149.792969 249.175781 149.421875 248.527344 148.902344 248.007812 C 147.957031 247.0625 146.707031 246.675781 145.179688 246.855469 C 141.183594 247.332031 140.496094 252.46875 140.417969 255.222656 C 140.851562 255.246094 141.289062 255.261719 141.726562 255.277344 C 141.792969 252.875 142.328125 248.511719 145.332031 248.15625 C 146.457031 248.023438 147.324219 248.277344 147.980469 248.933594 C 149.566406 250.519531 149.5 253.9375 149.421875 255.105469 C 149.882812 255.070312 150.332031 255.027344 150.765625 254.980469 C 150.730469 253.023438 150.941406 247.371094 154.378906 246.964844 C 155.503906 246.832031 156.367188 247.085938 157.023438 247.742188 C 157.859375 248.574219 158.234375 249.917969 158.394531 251.175781 C 158.6875 249.957031 158.570312 248.574219 158.308594 247.234375 C 158.195312 247.085938 158.078125 246.945312 157.949219 246.816406 C 157.003906 245.875 155.75 245.484375 154.222656 245.667969 Z M 204.769531 246.613281 C 204.71875 245.984375 204.625 245.3125 204.488281 244.601562 C 203.679688 244.136719 202.714844 243.960938 201.601562 244.09375 C 197.082031 244.628906 196.777344 252.210938 196.804688 254.851562 C 197.257812 254.78125 197.695312 254.703125 198.105469 254.613281 C 198.089844 251.449219 198.691406 245.753906 201.753906 245.394531 C 202.878906 245.257812 203.746094 245.515625 204.402344 246.167969 C 204.535156 246.304688 204.65625 246.453125 204.769531 246.613281 Z M 247.234375 244.09375 C 244.894531 244.371094 243.691406 246.242188 243.078125 248.304688 C 242.804688 247.605469 242.429688 246.953125 241.914062 246.433594 C 240.96875 245.492188 239.714844 245.101562 238.1875 245.285156 C 233.511719 245.839844 233.367188 252.785156 233.425781 254.820312 C 233.859375 254.835938 234.296875 254.847656 234.734375 254.855469 C 234.6875 253.1875 234.75 247.007812 238.34375 246.582031 C 239.46875 246.449219 240.332031 246.703125 240.988281 247.359375 C 242.910156 249.277344 242.40625 253.894531 242.402344 253.941406 C 242.378906 254.125 242.445312 254.292969 242.558594 254.421875 C 242.972656 254.363281 243.378906 254.296875 243.78125 254.222656 C 243.789062 254.175781 243.800781 254.128906 243.796875 254.078125 C 243.792969 253.996094 243.25 245.882812 247.386719 245.394531 C 248.515625 245.257812 249.378906 245.511719 250.035156 246.167969 C 250.867188 247 251.242188 248.335938 251.402344 249.585938 C 251.871094 248.28125 251.765625 247.015625 251.445312 245.835938 C 251.296875 245.625 251.140625 245.425781 250.957031 245.242188 C 250.011719 244.300781 248.757812 243.910156 247.234375 244.09375 Z M 289.554688 226.300781 C 284.191406 226.9375 284.761719 237.496094 284.789062 237.945312 C 284.800781 238.160156 284.921875 238.339844 285.089844 238.449219 C 285.394531 238.386719 285.6875 238.324219 285.976562 238.253906 C 286.050781 238.140625 286.097656 238.011719 286.089844 237.867188 C 285.929688 235.152344 286.261719 228.011719 289.707031 227.601562 C 290.835938 227.46875 291.699219 227.722656 292.355469 228.378906 C 293.585938 229.605469 293.820312 231.9375 293.828125 233.472656 C 294.355469 232.085938 294.523438 230.777344 294.472656 229.394531 C 294.195312 228.667969 293.816406 227.988281 293.277344 227.453125 C 292.332031 226.507812 291.078125 226.121094 289.554688 226.300781 Z M 289.554688 226.300781 " fill-opacity="1" fill-rule="nonzero"/></svg>