<svg xmlns="http://www.w3.org/2000/svg" xmlns:xlink="http://www.w3.org/1999/xlink" width="559" zoomAndPan="magnify" viewBox="0 0 419.25 297.749993" height="396" preserveAspectRatio="xMidYMid meet" version="1.0"><path fill="#ffb3c8" d="M 326 64.21875 C 298.84375 38.058594 245.082031 30.164062 209.515625 70.691406 C 173.949219 30.164062 120.1875 38.058594 93.03125 64.21875 C 60.15625 95.917969 65.875 161.238281 110.785156 207.582031 C 140.417969 238.183594 173.507812 256.445312 208.910156 266.867188 C 209.128906 266.867188 209.898438 266.867188 210.066406 266.867188 C 245.46875 256.445312 278.503906 238.183594 308.191406 207.582031 C 353.15625 161.238281 358.875 95.917969 326 64.21875 Z M 326 64.21875 " fill-opacity="1" fill-rule="nonzero"/><path fill="#ff5e7f" d="M 153.9375 135.84375 C 153.9375 141.714844 146.738281 146.484375 137.886719 146.484375 C 129.039062 146.484375 121.835938 141.714844 121.835938 135.84375 C 121.835938 129.976562 129.039062 125.207031 137.886719 125.207031 C 146.738281 125.152344 153.9375 129.921875 153.9375 135.84375 Z M 281.144531 125.699219 C 272.292969 125.699219 265.089844 130.472656 265.089844 136.339844 C 265.089844 142.207031 272.292969 146.980469 281.144531 146.980469 C 289.992188 146.980469 297.195312 142.207031 297.195312 136.339844 C 297.140625 130.472656 289.992188 125.699219 281.144531 125.699219 Z M 281.144531 125.699219 " fill-opacity="1" fill-rule="nonzero"/><path fill="#000000" d="M 209.515625 191.511719 C 188.679688 191.511719 170.925781 175.992188 168.285156 155.371094 C 168.011719 153.121094 169.550781 151.09375 171.804688 150.816406 C 174.058594 150.542969 176.09375 152.078125 176.367188 154.328125 C 178.511719 170.890625 192.75 183.394531 209.515625 183.394531 C 226.28125 183.394531 240.519531 170.890625 242.664062 154.328125 C 242.9375 152.078125 244.972656 150.542969 247.226562 150.816406 C 249.480469 151.09375 251.019531 153.121094 250.746094 155.371094 C 248.105469 175.992188 230.351562 191.511719 209.515625 191.511719 Z M 185.21875 125.863281 L 185.21875 105.683594 C 185.21875 101.789062 182.03125 98.605469 178.125 98.605469 C 174.222656 98.605469 171.035156 101.789062 171.035156 105.683594 L 171.035156 125.863281 C 171.035156 129.757812 174.222656 132.9375 178.125 132.9375 C 182.03125 132.9375 185.21875 129.757812 185.21875 125.863281 Z M 247.941406 125.863281 L 247.941406 105.683594 C 247.941406 101.789062 244.753906 98.605469 240.847656 98.605469 C 236.945312 98.605469 233.757812 101.789062 233.757812 105.683594 L 233.757812 125.863281 C 233.757812 129.757812 236.945312 132.9375 240.847656 132.9375 C 244.808594 132.9375 247.941406 129.757812 247.941406 125.863281 Z M 247.941406 125.863281 " fill-opacity="1" fill-rule="nonzero"/></svg>