<svg xmlns="http://www.w3.org/2000/svg" xmlns:xlink="http://www.w3.org/1999/xlink" width="559" zoomAndPan="magnify" viewBox="0 0 419.25 297.749993" height="396" preserveAspectRatio="xMidYMid meet" version="1.0"><defs><clipPath id="id1"><path d="M 34.433594 0.140625 L 384 0.140625 L 384 297.359375 L 34.433594 297.359375 Z M 34.433594 0.140625 " clip-rule="nonzero"/></clipPath></defs><g clip-path="url(#id1)"><path fill="#ffffff" d="M 366.410156 297.359375 L 52.082031 297.359375 C 51.511719 297.359375 50.941406 297.332031 50.371094 297.273438 C 49.800781 297.21875 49.238281 297.136719 48.675781 297.023438 C 48.117188 296.910156 47.5625 296.773438 47.015625 296.605469 C 46.46875 296.441406 45.929688 296.246094 45.402344 296.027344 C 44.871094 295.808594 44.355469 295.566406 43.851562 295.296875 C 43.347656 295.023438 42.855469 294.730469 42.382812 294.414062 C 41.90625 294.09375 41.445312 293.753906 41.003906 293.390625 C 40.5625 293.027344 40.140625 292.644531 39.734375 292.238281 C 39.332031 291.832031 38.949219 291.410156 38.585938 290.96875 C 38.222656 290.523438 37.882812 290.066406 37.5625 289.589844 C 37.246094 289.113281 36.953125 288.621094 36.683594 288.117188 C 36.414062 287.613281 36.167969 287.09375 35.949219 286.566406 C 35.730469 286.039062 35.539062 285.5 35.371094 284.949219 C 35.207031 284.402344 35.066406 283.847656 34.957031 283.285156 C 34.84375 282.726562 34.761719 282.160156 34.703125 281.589844 C 34.648438 281.019531 34.621094 280.449219 34.621094 279.875 L 34.621094 17.625 C 34.621094 17.050781 34.648438 16.480469 34.703125 15.910156 C 34.761719 15.339844 34.84375 14.773438 34.957031 14.214844 C 35.066406 13.652344 35.207031 13.097656 35.371094 12.550781 C 35.539062 12 35.730469 11.464844 35.949219 10.933594 C 36.167969 10.40625 36.414062 9.886719 36.683594 9.382812 C 36.953125 8.878906 37.246094 8.386719 37.5625 7.910156 C 37.882812 7.433594 38.222656 6.976562 38.585938 6.53125 C 38.949219 6.089844 39.332031 5.667969 39.734375 5.261719 C 40.140625 4.855469 40.5625 4.472656 41.003906 4.109375 C 41.445312 3.746094 41.90625 3.40625 42.382812 3.085938 C 42.855469 2.769531 43.347656 2.476562 43.851562 2.207031 C 44.355469 1.9375 44.871094 1.691406 45.402344 1.472656 C 45.929688 1.253906 46.46875 1.058594 47.015625 0.894531 C 47.5625 0.726562 48.117188 0.589844 48.675781 0.476562 C 49.238281 0.367188 49.800781 0.28125 50.371094 0.226562 C 50.941406 0.167969 51.511719 0.140625 52.082031 0.140625 L 139.394531 0.140625 C 140.832031 0.140625 142.25 0.316406 143.640625 0.664062 C 145.035156 1.015625 146.367188 1.527344 147.632812 2.207031 C 148.902344 2.886719 150.066406 3.707031 151.132812 4.675781 C 152.195312 5.640625 153.128906 6.722656 153.925781 7.921875 L 183.664062 52.589844 L 366.410156 52.589844 C 366.980469 52.589844 367.550781 52.621094 368.121094 52.675781 C 368.691406 52.730469 369.253906 52.816406 369.816406 52.925781 C 370.375 53.039062 370.929688 53.179688 371.476562 53.34375 C 372.023438 53.511719 372.5625 53.703125 373.089844 53.921875 C 373.621094 54.140625 374.136719 54.386719 374.640625 54.65625 C 375.144531 54.925781 375.632812 55.21875 376.109375 55.539062 C 376.585938 55.855469 377.042969 56.195312 377.488281 56.558594 C 377.929688 56.921875 378.351562 57.308594 378.757812 57.710938 C 379.160156 58.117188 379.542969 58.539062 379.90625 58.984375 C 380.269531 59.425781 380.609375 59.886719 380.929688 60.363281 C 381.246094 60.835938 381.539062 61.328125 381.808594 61.832031 C 382.078125 62.339844 382.324219 62.855469 382.542969 63.382812 C 382.761719 63.914062 382.953125 64.453125 383.121094 65 C 383.285156 65.546875 383.425781 66.101562 383.535156 66.664062 C 383.648438 67.226562 383.730469 67.792969 383.785156 68.359375 C 383.84375 68.929688 383.871094 69.503906 383.871094 70.074219 L 383.871094 279.875 C 383.871094 280.449219 383.84375 281.019531 383.785156 281.589844 C 383.730469 282.160156 383.648438 282.726562 383.535156 283.285156 C 383.425781 283.847656 383.285156 284.402344 383.121094 284.949219 C 382.953125 285.5 382.761719 286.039062 382.542969 286.566406 C 382.324219 287.09375 382.078125 287.613281 381.808594 288.117188 C 381.539062 288.621094 381.246094 289.113281 380.929688 289.589844 C 380.609375 290.066406 380.269531 290.523438 379.90625 290.96875 C 379.542969 291.410156 379.160156 291.832031 378.757812 292.238281 C 378.351562 292.644531 377.929688 293.027344 377.488281 293.390625 C 377.042969 293.753906 376.585938 294.09375 376.109375 294.414062 C 375.632812 294.730469 375.144531 295.023438 374.640625 295.296875 C 374.136719 295.566406 373.621094 295.808594 373.089844 296.027344 C 372.5625 296.246094 372.023438 296.441406 371.476562 296.605469 C 370.929688 296.773438 370.375 296.910156 369.816406 297.023438 C 369.253906 297.136719 368.691406 297.21875 368.121094 297.273438 C 367.550781 297.332031 366.980469 297.359375 366.410156 297.359375 Z M 69.546875 262.390625 L 348.945312 262.390625 L 348.945312 87.558594 L 174.320312 87.558594 C 172.882812 87.558594 171.46875 87.382812 170.074219 87.035156 C 168.679688 86.683594 167.347656 86.171875 166.082031 85.492188 C 164.816406 84.8125 163.648438 83.992188 162.585938 83.023438 C 161.519531 82.058594 160.589844 80.976562 159.792969 79.777344 L 130.054688 35.109375 L 69.546875 35.109375 Z M 69.546875 262.390625 " fill-opacity="1" fill-rule="nonzero"/></g><path fill="#ffffff" d="M 244.171875 227.425781 C 241.855469 227.425781 239.628906 226.980469 237.488281 226.09375 C 235.351562 225.207031 233.460938 223.941406 231.824219 222.304688 L 161.976562 152.371094 C 161.582031 151.960938 161.210938 151.535156 160.859375 151.09375 C 160.507812 150.648438 160.175781 150.191406 159.871094 149.714844 C 159.5625 149.238281 159.28125 148.75 159.019531 148.246094 C 158.761719 147.742188 158.527344 147.230469 158.316406 146.703125 C 158.105469 146.175781 157.921875 145.640625 157.765625 145.097656 C 157.609375 144.554688 157.476562 144.003906 157.371094 143.449219 C 157.269531 142.890625 157.191406 142.332031 157.140625 141.765625 C 157.089844 141.203125 157.070312 140.636719 157.074219 140.070312 C 157.078125 139.503906 157.109375 138.941406 157.171875 138.378906 C 157.230469 137.8125 157.316406 137.253906 157.429688 136.699219 C 157.542969 136.144531 157.683594 135.597656 157.851562 135.058594 C 158.019531 134.515625 158.210938 133.984375 158.429688 133.460938 C 158.648438 132.941406 158.894531 132.429688 159.160156 131.929688 C 159.429688 131.433594 159.722656 130.949219 160.035156 130.476562 C 160.351562 130.007812 160.6875 129.554688 161.046875 129.117188 C 161.40625 128.679688 161.789062 128.261719 162.1875 127.859375 C 162.585938 127.460938 163.003906 127.078125 163.441406 126.71875 C 163.878906 126.359375 164.332031 126.023438 164.800781 125.707031 C 165.273438 125.390625 165.753906 125.097656 166.253906 124.832031 C 166.75 124.5625 167.261719 124.320312 167.78125 124.101562 C 168.304688 123.878906 168.835938 123.6875 169.375 123.519531 C 169.914062 123.351562 170.464844 123.210938 171.015625 123.097656 C 171.570312 122.984375 172.128906 122.898438 172.691406 122.835938 C 173.253906 122.777344 173.816406 122.746094 174.382812 122.742188 C 174.949219 122.734375 175.515625 122.757812 176.078125 122.808594 C 176.640625 122.859375 177.199219 122.933594 177.757812 123.039062 C 178.3125 123.144531 178.863281 123.273438 179.40625 123.433594 C 179.949219 123.589844 180.480469 123.773438 181.007812 123.984375 C 181.53125 124.195312 182.046875 124.429688 182.550781 124.6875 C 183.050781 124.949219 183.539062 125.234375 184.015625 125.539062 C 184.488281 125.847656 184.949219 126.175781 185.390625 126.53125 C 185.835938 126.882812 186.261719 127.253906 186.667969 127.648438 L 256.515625 197.582031 C 257.125 198.1875 257.683594 198.839844 258.195312 199.527344 C 258.707031 200.21875 259.164062 200.945312 259.570312 201.703125 C 259.972656 202.460938 260.320312 203.246094 260.609375 204.054688 C 260.898438 204.863281 261.128906 205.6875 261.292969 206.53125 C 261.460938 207.375 261.566406 208.226562 261.609375 209.085938 C 261.652344 209.945312 261.628906 210.800781 261.546875 211.65625 C 261.460938 212.511719 261.316406 213.355469 261.105469 214.191406 C 260.898438 215.023438 260.628906 215.839844 260.300781 216.632812 C 259.972656 217.425781 259.585938 218.191406 259.144531 218.929688 C 258.703125 219.667969 258.210938 220.367188 257.664062 221.035156 C 257.121094 221.699219 256.53125 222.320312 255.894531 222.894531 C 255.257812 223.472656 254.582031 224 253.867188 224.480469 C 253.15625 224.957031 252.410156 225.378906 251.632812 225.746094 C 250.859375 226.113281 250.058594 226.421875 249.238281 226.671875 C 248.417969 226.921875 247.582031 227.109375 246.730469 227.238281 C 245.882812 227.363281 245.03125 227.425781 244.171875 227.425781 Z M 244.171875 227.425781 " fill-opacity="1" fill-rule="nonzero"/><path fill="#ffffff" d="M 174.320312 227.425781 C 173.460938 227.425781 172.609375 227.363281 171.757812 227.234375 C 170.910156 227.109375 170.074219 226.921875 169.253906 226.671875 C 168.429688 226.421875 167.632812 226.113281 166.855469 225.746094 C 166.078125 225.378906 165.335938 224.957031 164.621094 224.476562 C 163.90625 224 163.230469 223.472656 162.597656 222.894531 C 161.960938 222.316406 161.371094 221.695312 160.824219 221.03125 C 160.28125 220.367188 159.789062 219.667969 159.347656 218.929688 C 158.90625 218.191406 158.519531 217.425781 158.191406 216.632812 C 157.863281 215.839844 157.59375 215.023438 157.386719 214.191406 C 157.175781 213.355469 157.03125 212.511719 156.945312 211.65625 C 156.863281 210.800781 156.839844 209.945312 156.882812 209.085938 C 156.925781 208.226562 157.03125 207.375 157.199219 206.53125 C 157.363281 205.6875 157.59375 204.863281 157.882812 204.054688 C 158.171875 203.246094 158.519531 202.460938 158.921875 201.703125 C 159.328125 200.945312 159.785156 200.21875 160.296875 199.527344 C 160.808594 198.839844 161.367188 198.1875 161.976562 197.582031 L 231.824219 127.648438 C 232.230469 127.253906 232.65625 126.882812 233.101562 126.53125 C 233.542969 126.175781 234 125.847656 234.476562 125.539062 C 234.953125 125.234375 235.441406 124.949219 235.941406 124.6875 C 236.445312 124.429688 236.960938 124.195312 237.484375 123.984375 C 238.011719 123.773438 238.542969 123.589844 239.085938 123.433594 C 239.628906 123.273438 240.179688 123.144531 240.734375 123.039062 C 241.292969 122.933594 241.851562 122.859375 242.414062 122.808594 C 242.976562 122.757812 243.542969 122.734375 244.109375 122.742188 C 244.671875 122.746094 245.238281 122.777344 245.800781 122.835938 C 246.363281 122.898438 246.921875 122.984375 247.476562 123.097656 C 248.027344 123.210938 248.574219 123.351562 249.117188 123.519531 C 249.65625 123.6875 250.1875 123.878906 250.710938 124.101562 C 251.230469 124.320312 251.742188 124.5625 252.238281 124.832031 C 252.738281 125.097656 253.21875 125.390625 253.691406 125.707031 C 254.160156 126.023438 254.613281 126.359375 255.050781 126.71875 C 255.484375 127.078125 255.90625 127.460938 256.304688 127.859375 C 256.703125 128.261719 257.085938 128.679688 257.441406 129.117188 C 257.800781 129.554688 258.140625 130.007812 258.457031 130.476562 C 258.769531 130.949219 259.0625 131.433594 259.332031 131.929688 C 259.597656 132.429688 259.84375 132.941406 260.0625 133.460938 C 260.28125 133.984375 260.472656 134.515625 260.640625 135.058594 C 260.808594 135.597656 260.945312 136.144531 261.0625 136.699219 C 261.175781 137.253906 261.261719 137.8125 261.320312 138.378906 C 261.382812 138.941406 261.414062 139.503906 261.417969 140.070312 C 261.421875 140.636719 261.402344 141.203125 261.351562 141.765625 C 261.300781 142.332031 261.222656 142.890625 261.121094 143.449219 C 261.015625 144.003906 260.882812 144.554688 260.726562 145.097656 C 260.570312 145.640625 260.386719 146.175781 260.175781 146.703125 C 259.964844 147.230469 259.730469 147.742188 259.472656 148.246094 C 259.210938 148.75 258.929688 149.238281 258.621094 149.714844 C 258.316406 150.191406 257.984375 150.648438 257.632812 151.09375 C 257.28125 151.535156 256.910156 151.960938 256.515625 152.371094 L 186.667969 222.304688 C 185.027344 223.941406 183.140625 225.207031 181 226.09375 C 178.863281 226.980469 176.636719 227.425781 174.320312 227.425781 Z M 174.320312 227.425781 " fill-opacity="1" fill-rule="nonzero"/></svg>