<svg xmlns="http://www.w3.org/2000/svg" xmlns:xlink="http://www.w3.org/1999/xlink" width="559" zoomAndPan="magnify" viewBox="0 0 419.25 297.749993" height="396" preserveAspectRatio="xMidYMid meet" version="1.0"><defs><clipPath id="id1"><path d="M 0 0.140625 L 418.5 0.140625 L 418.5 297.359375 L 0 297.359375 Z M 0 0.140625 " clip-rule="nonzero"/></clipPath><clipPath id="id2"><path d="M 119 47.875 L 148 47.875 L 148 68 L 119 68 Z M 119 47.875 " clip-rule="nonzero"/></clipPath><clipPath id="id3"><path d="M 123 47.875 L 148 47.875 L 148 63 L 123 63 Z M 123 47.875 " clip-rule="nonzero"/></clipPath><clipPath id="id4"><path d="M 93 93.839844 L 114 93.839844 L 114 145.910156 L 93 145.910156 Z M 93 93.839844 " clip-rule="nonzero"/></clipPath><clipPath id="id5"><path d="M 100.09375 93.847656 L 195.023438 93.847656 L 195.023438 179.261719 L 93.113281 179.261719 L 100.09375 93.847656 " clip-rule="nonzero"/></clipPath><clipPath id="id6"><path d="M 93 93.839844 L 111.773438 93.839844 L 111.773438 135.726562 L 93 135.726562 Z M 93 93.839844 " clip-rule="nonzero"/></clipPath><clipPath id="id7"><path d="M 100.09375 93.847656 L 195.023438 93.847656 L 195.023438 179.261719 L 93.113281 179.261719 L 100.09375 93.847656 " clip-rule="nonzero"/></clipPath><clipPath id="id8"><path d="M 93 101 L 107 101 L 107 135.726562 L 93 135.726562 Z M 93 101 " clip-rule="nonzero"/></clipPath><clipPath id="id9"><path d="M 100.09375 93.847656 L 195.023438 93.847656 L 195.023438 179.261719 L 93.113281 179.261719 L 100.09375 93.847656 " clip-rule="nonzero"/></clipPath><clipPath id="id10"><path d="M 99.246094 93.839844 L 108.859375 93.839844 L 108.859375 105.183594 L 99.246094 105.183594 Z M 99.246094 93.839844 " clip-rule="nonzero"/></clipPath><clipPath id="id11"><path d="M 100.09375 93.847656 L 195.023438 93.847656 L 195.023438 179.261719 L 93.113281 179.261719 L 100.09375 93.847656 " clip-rule="nonzero"/></clipPath><clipPath id="id12"><path d="M 96.621094 101 L 105.363281 101 L 105.363281 133.402344 L 96.621094 133.402344 Z M 96.621094 101 " clip-rule="nonzero"/></clipPath><clipPath id="id13"><path d="M 100.09375 93.847656 L 195.023438 93.847656 L 195.023438 179.261719 L 93.113281 179.261719 L 100.09375 93.847656 " clip-rule="nonzero"/></clipPath><clipPath id="id14"><path d="M 93 93.839844 L 112.355469 93.839844 L 112.355469 136.308594 L 93 136.308594 Z M 93 93.839844 " clip-rule="nonzero"/></clipPath><clipPath id="id15"><path d="M 100.09375 93.847656 L 195.023438 93.847656 L 195.023438 179.261719 L 93.113281 179.261719 L 100.09375 93.847656 " clip-rule="nonzero"/></clipPath><clipPath id="id16"><path d="M 81.46875 179.070312 L 338.867188 179.070312 L 338.867188 225.617188 L 81.46875 225.617188 Z M 81.46875 179.070312 " clip-rule="nonzero"/></clipPath><clipPath id="id17"><path d="M 80.011719 185 L 99.246094 185 L 99.246094 205.253906 L 80.011719 205.253906 Z M 80.011719 185 " clip-rule="nonzero"/></clipPath><clipPath id="id18"><path d="M 130.269531 202.34375 C 128.117188 202.34375 126.128906 201.007812 125.023438 198.820312 L 117.875 184.664062 C 116.183594 181.3125 113.132812 179.261719 109.839844 179.261719 L 85.148438 179.261719 C 83.191406 179.261719 81.605469 181.140625 81.605469 183.460938 L 81.605469 185.070312 L 81.347656 185.070312 C 80.613281 185.070312 80.011719 185.667969 80.011719 186.402344 L 80.011719 204.023438 C 80.011719 204.757812 80.613281 205.355469 81.347656 205.355469 L 81.605469 205.355469 L 81.605469 210.21875 C 81.605469 210.929688 81.644531 211.628906 81.726562 212.3125 C 81.082031 212.40625 80.585938 212.964844 80.585938 213.628906 L 80.585938 214.878906 C 80.585938 215.613281 81.1875 216.214844 81.921875 216.214844 L 82.640625 216.214844 C 84.601562 221.632812 89.144531 225.429688 94.4375 225.429688 L 338.871094 225.429688 L 338.871094 202.34375 L 130.269531 202.34375 " clip-rule="nonzero"/></clipPath><clipPath id="id19"><path d="M 80.011719 185 L 99.246094 185 L 99.246094 201.761719 L 80.011719 201.761719 Z M 80.011719 185 " clip-rule="nonzero"/></clipPath><clipPath id="id20"><path d="M 130.269531 202.34375 C 128.117188 202.34375 126.128906 201.007812 125.023438 198.820312 L 117.875 184.664062 C 116.183594 181.3125 113.132812 179.261719 109.839844 179.261719 L 85.148438 179.261719 C 83.191406 179.261719 81.605469 181.140625 81.605469 183.460938 L 81.605469 185.070312 L 81.347656 185.070312 C 80.613281 185.070312 80.011719 185.667969 80.011719 186.402344 L 80.011719 204.023438 C 80.011719 204.757812 80.613281 205.355469 81.347656 205.355469 L 81.605469 205.355469 L 81.605469 210.21875 C 81.605469 210.929688 81.644531 211.628906 81.726562 212.3125 C 81.082031 212.40625 80.585938 212.964844 80.585938 213.628906 L 80.585938 214.878906 C 80.585938 215.613281 81.1875 216.214844 81.921875 216.214844 L 82.640625 216.214844 C 84.601562 221.632812 89.144531 225.429688 94.4375 225.429688 L 338.871094 225.429688 L 338.871094 202.34375 L 130.269531 202.34375 " clip-rule="nonzero"/></clipPath><clipPath id="id21"><path d="M 80.011719 208.160156 L 97.496094 208.160156 L 97.496094 219.796875 L 80.011719 219.796875 Z M 80.011719 208.160156 " clip-rule="nonzero"/></clipPath><clipPath id="id22"><path d="M 130.269531 202.34375 C 128.117188 202.34375 126.128906 201.007812 125.023438 198.820312 L 117.875 184.664062 C 116.183594 181.3125 113.132812 179.261719 109.839844 179.261719 L 85.148438 179.261719 C 83.191406 179.261719 81.605469 181.140625 81.605469 183.460938 L 81.605469 185.070312 L 81.347656 185.070312 C 80.613281 185.070312 80.011719 185.667969 80.011719 186.402344 L 80.011719 204.023438 C 80.011719 204.757812 80.613281 205.355469 81.347656 205.355469 L 81.605469 205.355469 L 81.605469 210.21875 C 81.605469 210.929688 81.644531 211.628906 81.726562 212.3125 C 81.082031 212.40625 80.585938 212.964844 80.585938 213.628906 L 80.585938 214.878906 C 80.585938 215.613281 81.1875 216.214844 81.921875 216.214844 L 82.640625 216.214844 C 84.601562 221.632812 89.144531 225.429688 94.4375 225.429688 L 338.871094 225.429688 L 338.871094 202.34375 L 130.269531 202.34375 " clip-rule="nonzero"/></clipPath><clipPath id="id23"><path d="M 80.011719 210 L 94.875 210 L 94.875 219.796875 L 80.011719 219.796875 Z M 80.011719 210 " clip-rule="nonzero"/></clipPath><clipPath id="id24"><path d="M 130.269531 202.34375 C 128.117188 202.34375 126.128906 201.007812 125.023438 198.820312 L 117.875 184.664062 C 116.183594 181.3125 113.132812 179.261719 109.839844 179.261719 L 85.148438 179.261719 C 83.191406 179.261719 81.605469 181.140625 81.605469 183.460938 L 81.605469 185.070312 L 81.347656 185.070312 C 80.613281 185.070312 80.011719 185.667969 80.011719 186.402344 L 80.011719 204.023438 C 80.011719 204.757812 80.613281 205.355469 81.347656 205.355469 L 81.605469 205.355469 L 81.605469 210.21875 C 81.605469 210.929688 81.644531 211.628906 81.726562 212.3125 C 81.082031 212.40625 80.585938 212.964844 80.585938 213.628906 L 80.585938 214.878906 C 80.585938 215.613281 81.1875 216.214844 81.921875 216.214844 L 82.640625 216.214844 C 84.601562 221.632812 89.144531 225.429688 94.4375 225.429688 L 338.871094 225.429688 L 338.871094 202.34375 L 130.269531 202.34375 " clip-rule="nonzero"/></clipPath><clipPath id="id25"><path d="M 80.011719 213.6875 L 96.332031 213.6875 L 96.332031 214.851562 L 80.011719 214.851562 Z M 80.011719 213.6875 " clip-rule="nonzero"/></clipPath><clipPath id="id26"><path d="M 130.269531 202.34375 C 128.117188 202.34375 126.128906 201.007812 125.023438 198.820312 L 117.875 184.664062 C 116.183594 181.3125 113.132812 179.261719 109.839844 179.261719 L 85.148438 179.261719 C 83.191406 179.261719 81.605469 181.140625 81.605469 183.460938 L 81.605469 185.070312 L 81.347656 185.070312 C 80.613281 185.070312 80.011719 185.667969 80.011719 186.402344 L 80.011719 204.023438 C 80.011719 204.757812 80.613281 205.355469 81.347656 205.355469 L 81.605469 205.355469 L 81.605469 210.21875 C 81.605469 210.929688 81.644531 211.628906 81.726562 212.3125 C 81.082031 212.40625 80.585938 212.964844 80.585938 213.628906 L 80.585938 214.878906 C 80.585938 215.613281 81.1875 216.214844 81.921875 216.214844 L 82.640625 216.214844 C 84.601562 221.632812 89.144531 225.429688 94.4375 225.429688 L 338.871094 225.429688 L 338.871094 202.34375 L 130.269531 202.34375 " clip-rule="nonzero"/></clipPath><clipPath id="id27"><path d="M 80.011719 214 L 96.621094 214 L 96.621094 215 L 80.011719 215 Z M 80.011719 214 " clip-rule="nonzero"/></clipPath><clipPath id="id28"><path d="M 130.269531 202.34375 C 128.117188 202.34375 126.128906 201.007812 125.023438 198.820312 L 117.875 184.664062 C 116.183594 181.3125 113.132812 179.261719 109.839844 179.261719 L 85.148438 179.261719 C 83.191406 179.261719 81.605469 181.140625 81.605469 183.460938 L 81.605469 185.070312 L 81.347656 185.070312 C 80.613281 185.070312 80.011719 185.667969 80.011719 186.402344 L 80.011719 204.023438 C 80.011719 204.757812 80.613281 205.355469 81.347656 205.355469 L 81.605469 205.355469 L 81.605469 210.21875 C 81.605469 210.929688 81.644531 211.628906 81.726562 212.3125 C 81.082031 212.40625 80.585938 212.964844 80.585938 213.628906 L 80.585938 214.878906 C 80.585938 215.613281 81.1875 216.214844 81.921875 216.214844 L 82.640625 216.214844 C 84.601562 221.632812 89.144531 225.429688 94.4375 225.429688 L 338.871094 225.429688 L 338.871094 202.34375 L 130.269531 202.34375 " clip-rule="nonzero"/></clipPath><clipPath id="id29"><path d="M 80.011719 212.527344 L 89.921875 212.527344 L 89.921875 216.890625 L 80.011719 216.890625 Z M 80.011719 212.527344 " clip-rule="nonzero"/></clipPath><clipPath id="id30"><path d="M 130.269531 202.34375 C 128.117188 202.34375 126.128906 201.007812 125.023438 198.820312 L 117.875 184.664062 C 116.183594 181.3125 113.132812 179.261719 109.839844 179.261719 L 85.148438 179.261719 C 83.191406 179.261719 81.605469 181.140625 81.605469 183.460938 L 81.605469 185.070312 L 81.347656 185.070312 C 80.613281 185.070312 80.011719 185.667969 80.011719 186.402344 L 80.011719 204.023438 C 80.011719 204.757812 80.613281 205.355469 81.347656 205.355469 L 81.605469 205.355469 L 81.605469 210.21875 C 81.605469 210.929688 81.644531 211.628906 81.726562 212.3125 C 81.082031 212.40625 80.585938 212.964844 80.585938 213.628906 L 80.585938 214.878906 C 80.585938 215.613281 81.1875 216.214844 81.921875 216.214844 L 82.640625 216.214844 C 84.601562 221.632812 89.144531 225.429688 94.4375 225.429688 L 338.871094 225.429688 L 338.871094 202.34375 L 130.269531 202.34375 " clip-rule="nonzero"/></clipPath><clipPath id="id31"><path d="M 80.011719 212.234375 L 90 212.234375 L 90 216.308594 L 80.011719 216.308594 Z M 80.011719 212.234375 " clip-rule="nonzero"/></clipPath><clipPath id="id32"><path d="M 130.269531 202.34375 C 128.117188 202.34375 126.128906 201.007812 125.023438 198.820312 L 117.875 184.664062 C 116.183594 181.3125 113.132812 179.261719 109.839844 179.261719 L 85.148438 179.261719 C 83.191406 179.261719 81.605469 181.140625 81.605469 183.460938 L 81.605469 185.070312 L 81.347656 185.070312 C 80.613281 185.070312 80.011719 185.667969 80.011719 186.402344 L 80.011719 204.023438 C 80.011719 204.757812 80.613281 205.355469 81.347656 205.355469 L 81.605469 205.355469 L 81.605469 210.21875 C 81.605469 210.929688 81.644531 211.628906 81.726562 212.3125 C 81.082031 212.40625 80.585938 212.964844 80.585938 213.628906 L 80.585938 214.878906 C 80.585938 215.613281 81.1875 216.214844 81.921875 216.214844 L 82.640625 216.214844 C 84.601562 221.632812 89.144531 225.429688 94.4375 225.429688 L 338.871094 225.429688 L 338.871094 202.34375 L 130.269531 202.34375 " clip-rule="nonzero"/></clipPath><clipPath id="id33"><path d="M 91.085938 186.636719 L 96.914062 186.636719 L 96.914062 192.453125 L 91.085938 192.453125 Z M 91.085938 186.636719 " clip-rule="nonzero"/></clipPath><clipPath id="id34"><path d="M 130.269531 202.34375 C 128.117188 202.34375 126.128906 201.007812 125.023438 198.820312 L 117.875 184.664062 C 116.183594 181.3125 113.132812 179.261719 109.839844 179.261719 L 85.148438 179.261719 C 83.191406 179.261719 81.605469 181.140625 81.605469 183.460938 L 81.605469 185.070312 L 81.347656 185.070312 C 80.613281 185.070312 80.011719 185.667969 80.011719 186.402344 L 80.011719 204.023438 C 80.011719 204.757812 80.613281 205.355469 81.347656 205.355469 L 81.605469 205.355469 L 81.605469 210.21875 C 81.605469 210.929688 81.644531 211.628906 81.726562 212.3125 C 81.082031 212.40625 80.585938 212.964844 80.585938 213.628906 L 80.585938 214.878906 C 80.585938 215.613281 81.1875 216.214844 81.921875 216.214844 L 82.640625 216.214844 C 84.601562 221.632812 89.144531 225.429688 94.4375 225.429688 L 338.871094 225.429688 L 338.871094 202.34375 L 130.269531 202.34375 " clip-rule="nonzero"/></clipPath><clipPath id="id35"><path d="M 114.105469 192.453125 L 171.214844 192.453125 L 171.214844 249.261719 L 114.105469 249.261719 Z M 114.105469 192.453125 " clip-rule="nonzero"/></clipPath><clipPath id="id36"><path d="M 263.003906 192.453125 L 320 192.453125 L 320 249.261719 L 263.003906 249.261719 Z M 263.003906 192.453125 " clip-rule="nonzero"/></clipPath></defs><g clip-path="url(#id1)"><path fill="#ffffff" d="M 0 0.140625 L 419.25 0.140625 L 419.25 2425.054688 L 0 2425.054688 Z M 0 0.140625 " fill-opacity="1" fill-rule="nonzero"/><path fill="#737373" d="M 0 0.140625 L 418.5 0.140625 L 418.5 297.359375 L 0 297.359375 Z M 0 0.140625 " fill-opacity="1" fill-rule="nonzero"/><path fill="#ffffff" d="M 0 0.140625 L 418.5 0.140625 L 418.5 297.359375 L 0 297.359375 Z M 0 0.140625 " fill-opacity="1" fill-rule="nonzero"/><path fill="#737373" d="M 0 0.140625 L 418.5 0.140625 L 418.5 297.359375 L 0 297.359375 Z M 0 0.140625 " fill-opacity="1" fill-rule="nonzero"/></g><path fill="#ee2c21" d="M 302.453125 209.542969 L 216.648438 209.542969 C 198.441406 209.542969 183.679688 194.808594 183.679688 176.628906 L 183.679688 142.046875 C 183.679688 123.867188 198.441406 109.132812 216.648438 109.132812 L 302.453125 109.132812 C 320.660156 109.132812 335.417969 123.867188 335.417969 142.046875 L 335.417969 176.628906 C 335.417969 194.808594 320.660156 209.542969 302.453125 209.542969 " fill-opacity="1" fill-rule="nonzero"/><path fill="#ee2c21" d="M 195.773438 93.847656 L 195.773438 179.261719 L 93.863281 179.261719 L 94.269531 174.285156 L 94.605469 170.164062 L 94.78125 168.019531 L 95.121094 163.902344 L 95.324219 161.394531 L 95.660156 157.28125 L 96.550781 146.394531 L 100.84375 93.847656 L 195.773438 93.847656 " fill-opacity="1" fill-rule="nonzero"/><path fill="#302d2d" d="M 90.4375 181.070312 L 85.328125 181.738281 C 84.726562 181.738281 84.234375 181.136719 84.234375 180.40625 L 85.328125 153.21875 C 85.328125 152.484375 85.820312 151.886719 86.417969 151.886719 L 90.4375 151.886719 C 91.035156 151.886719 91.527344 152.484375 91.527344 153.21875 L 91.527344 179.738281 C 91.527344 180.472656 91.035156 181.070312 90.4375 181.070312 " fill-opacity="1" fill-rule="nonzero"/><path fill="#ee242d" d="M 192.644531 79.695312 C 192.652344 79.867188 192.660156 80.042969 192.675781 80.214844 C 192.636719 80.109375 192.617188 80.007812 192.617188 79.902344 C 192.617188 79.832031 192.625 79.765625 192.644531 79.695312 " fill-opacity="1" fill-rule="nonzero"/><path fill="#ee242d" d="M 237.855469 79.902344 C 237.855469 80.007812 237.835938 80.109375 237.796875 80.214844 C 237.808594 80.042969 237.820312 79.867188 237.832031 79.695312 C 237.847656 79.765625 237.855469 79.832031 237.855469 79.902344 " fill-opacity="1" fill-rule="nonzero"/><path fill="#ee2c21" d="M 196.902344 89.984375 L 98.34375 89.984375 L 99.777344 81.589844 C 101.257812 72.933594 105.039062 67.199219 109.265625 67.199219 L 185.976562 67.199219 C 190.203125 67.199219 193.984375 72.933594 195.464844 81.589844 L 196.902344 89.984375 " fill-opacity="1" fill-rule="nonzero"/><path fill="#b21d25" d="M 200.410156 93.847656 L 94.832031 93.847656 L 96.371094 88.226562 C 97.953125 82.433594 102.003906 78.589844 106.535156 78.589844 L 188.707031 78.589844 C 193.238281 78.589844 197.289062 82.433594 198.875 88.226562 L 200.410156 93.847656 " fill-opacity="1" fill-rule="nonzero"/><g clip-path="url(#id2)"><path fill="#da1c2b" d="M 147.621094 67.199219 L 119.800781 67.199219 L 120.710938 54.128906 C 120.886719 51.574219 122.300781 49.445312 124.257812 48.460938 C 125.003906 48.085938 125.832031 47.875 126.703125 47.875 L 140.71875 47.875 C 143.855469 47.875 146.464844 50.597656 146.710938 54.128906 L 147.296875 62.539062 L 147.621094 67.199219 " fill-opacity="1" fill-rule="nonzero"/></g><g clip-path="url(#id3)"><path fill="#ed1a2c" d="M 147.296875 62.539062 C 147.007812 62.652344 146.707031 62.710938 146.394531 62.710938 L 127.769531 62.710938 C 125.324219 62.710938 123.429688 59.011719 123.722656 54.816406 L 124.082031 49.640625 C 124.109375 49.234375 124.167969 48.84375 124.257812 48.460938 C 125.003906 48.085938 125.832031 47.875 126.703125 47.875 L 140.71875 47.875 C 143.855469 47.875 146.464844 50.597656 146.710938 54.128906 L 147.296875 62.539062 " fill-opacity="1" fill-rule="nonzero"/></g><path fill="#ef2f6b" d="M 142.679688 53.261719 L 136.382812 53.261719 C 135.335938 53.261719 134.476562 52.402344 134.476562 51.355469 C 134.476562 50.304688 135.335938 49.445312 136.382812 49.445312 L 142.679688 49.445312 C 143.730469 49.445312 144.589844 50.304688 144.589844 51.355469 C 144.589844 52.402344 143.730469 53.261719 142.679688 53.261719 " fill-opacity="1" fill-rule="nonzero"/><path fill="#ee2c21" d="M 195.023438 155.238281 L 195.023438 201.210938 C 195.023438 206.074219 191.035156 210.054688 186.164062 210.054688 L 95.910156 210.054688 C 91.039062 210.054688 87.050781 206.074219 87.050781 201.210938 L 87.050781 155.238281 C 87.050781 150.414062 90.980469 146.457031 95.800781 146.394531 C 95.835938 146.394531 95.875 146.394531 95.910156 146.394531 L 186.164062 146.394531 C 191.035156 146.394531 195.023438 150.375 195.023438 155.238281 " fill-opacity="1" fill-rule="nonzero"/><path fill="#facf0a" d="M 195.023438 157.28125 L 195.023438 161.394531 L 87.320312 161.394531 L 87.488281 157.28125 L 195.023438 157.28125 " fill-opacity="1" fill-rule="nonzero"/><path fill="#b7b49e" d="M 195.023438 163.902344 L 195.023438 168.019531 L 87.046875 168.019531 L 87.050781 167.910156 L 87.214844 163.902344 L 195.023438 163.902344 " fill-opacity="1" fill-rule="nonzero"/><path fill="#facf0a" d="M 195.023438 170.164062 L 195.023438 174.285156 L 86.789062 174.285156 L 86.957031 170.164062 L 195.023438 170.164062 " fill-opacity="1" fill-rule="nonzero"/><g clip-path="url(#id4)"><g clip-path="url(#id5)"><path fill="#5b5c5e" d="M 102.585938 145.722656 C 102.484375 145.726562 102.382812 145.730469 102.277344 145.730469 L 73.699219 145.730469 L 73.699219 93.671875 L 112.464844 93.671875 L 113.980469 130.644531 C 114.3125 138.679688 109.175781 145.5625 102.585938 145.722656 " fill-opacity="1" fill-rule="nonzero"/></g></g><g clip-path="url(#id6)"><g clip-path="url(#id7)"><path fill="#859dc7" d="M 106.816406 133.316406 C 105.070312 134.640625 102.953125 135.441406 100.65625 135.488281 C 100.558594 135.492188 100.457031 135.492188 100.359375 135.492188 L 73.699219 135.492188 L 73.699219 91.582031 L 110.128906 91.582031 L 110.222656 93.632812 L 110.226562 93.671875 L 111.585938 122.769531 C 111.785156 127.082031 109.863281 131 106.816406 133.316406 " fill-opacity="1" fill-rule="nonzero"/></g></g><g clip-path="url(#id8)"><g clip-path="url(#id9)"><path fill="#bad0ee" d="M 106.816406 133.316406 C 105.070312 134.640625 102.953125 135.441406 100.65625 135.488281 C 100.558594 135.492188 100.457031 135.492188 100.359375 135.492188 L 73.699219 135.492188 L 73.699219 101.101562 L 100.597656 101.101562 C 102.738281 101.101562 104.582031 102.738281 105.304688 105.070312 C 105.480469 105.644531 105.59375 106.253906 105.621094 106.894531 L 106.808594 132.289062 C 106.816406 132.425781 106.816406 132.566406 106.820312 132.703125 C 106.824219 132.90625 106.820312 133.113281 106.816406 133.316406 " fill-opacity="1" fill-rule="nonzero"/></g></g><g clip-path="url(#id10)"><g clip-path="url(#id11)"><path fill="#c7d2e5" d="M 105.304688 105.070312 C 104.582031 102.738281 102.738281 101.101562 100.597656 101.101562 L 99.5 101.101562 L 100.046875 94.40625 L 100.214844 93.847656 L 108.660156 93.847656 L 105.304688 105.070312 " fill-opacity="1" fill-rule="nonzero"/></g></g><g clip-path="url(#id12)"><g clip-path="url(#id13)"><path fill="#deebf8" d="M 96.871094 133.269531 L 99.5 101.101562 L 100.597656 101.101562 C 102.738281 101.101562 104.582031 102.738281 105.304688 105.070312 L 96.871094 133.269531 " fill-opacity="1" fill-rule="nonzero"/></g></g><g clip-path="url(#id14)"><g clip-path="url(#id15)"><path fill="#424242" d="M 112.15625 123.546875 L 110.671875 93.671875 L 110.667969 93.632812 L 73.699219 93.632812 L 73.699219 94.941406 L 106.539062 94.941406 C 107.136719 94.941406 107.699219 95.128906 108.179688 95.457031 C 109.078125 96.066406 109.699219 97.160156 109.761719 98.4375 L 111.011719 123.621094 C 111.144531 126.277344 110.296875 128.875 108.625 130.941406 C 108.089844 131.605469 107.480469 132.195312 106.820312 132.703125 C 105.054688 134.058594 102.898438 134.832031 100.644531 134.878906 C 100.550781 134.878906 100.457031 134.878906 100.359375 134.878906 L 73.699219 134.878906 L 73.699219 136.191406 L 100.359375 136.191406 C 100.460938 136.191406 100.5625 136.1875 100.664062 136.1875 C 104.074219 136.117188 107.28125 134.53125 109.464844 131.832031 C 111.347656 129.503906 112.304688 126.5625 112.15625 123.546875 " fill-opacity="1" fill-rule="nonzero"/></g></g><path fill="#859dc7" d="M 185.367188 106.398438 L 185.367188 123.214844 C 185.367188 127.558594 182.878906 131.351562 179.253906 133.242188 C 177.691406 134.058594 175.917969 134.519531 174.042969 134.519531 L 133.398438 134.519531 C 131.339844 134.519531 129.402344 133.964844 127.734375 132.992188 C 124.355469 131.03125 122.074219 127.375 122.074219 123.214844 L 122.074219 106.398438 C 122.074219 104.871094 122.378906 103.414062 122.9375 102.082031 C 124.644531 97.988281 128.699219 95.09375 133.398438 95.09375 L 174.042969 95.09375 C 174.253906 95.09375 174.460938 95.097656 174.671875 95.109375 C 180.613281 95.4375 185.367188 100.390625 185.367188 106.398438 " fill-opacity="1" fill-rule="nonzero"/><path fill="#bad0ee" d="M 180.117188 112.109375 L 180.117188 128.925781 C 180.117188 130.453125 179.808594 131.910156 179.253906 133.242188 C 177.691406 134.058594 175.917969 134.519531 174.042969 134.519531 L 133.398438 134.519531 C 127.167969 134.519531 122.074219 129.433594 122.074219 123.214844 L 122.074219 106.398438 C 122.074219 104.871094 122.378906 103.414062 122.9375 102.082031 C 124.5 101.265625 126.273438 100.804688 128.148438 100.804688 L 168.792969 100.804688 C 175.023438 100.804688 180.117188 105.890625 180.117188 112.109375 " fill-opacity="1" fill-rule="nonzero"/><path fill="#c7d2e5" d="M 133.375 134.519531 C 133.375 134.519531 133.371094 134.519531 133.371094 134.519531 C 133.371094 134.519531 133.375 134.519531 133.375 134.519531 M 133.355469 134.519531 C 133.351562 134.519531 133.351562 134.519531 133.347656 134.519531 C 133.351562 134.519531 133.351562 134.519531 133.355469 134.519531 M 133.328125 134.519531 L 133.328125 134.519531 M 133.304688 134.519531 C 133.300781 134.519531 133.300781 134.519531 133.296875 134.519531 C 133.300781 134.519531 133.300781 134.519531 133.304688 134.519531 M 133.28125 134.519531 C 133.28125 134.519531 133.277344 134.519531 133.273438 134.519531 C 133.277344 134.519531 133.28125 134.519531 133.28125 134.519531 M 133.253906 134.519531 L 133.253906 134.519531 M 133.230469 134.519531 C 133.230469 134.519531 133.226562 134.519531 133.226562 134.519531 C 133.226562 134.519531 133.230469 134.519531 133.230469 134.519531 M 133.210938 134.519531 C 133.207031 134.519531 133.203125 134.519531 133.203125 134.519531 C 133.203125 134.519531 133.207031 134.519531 133.210938 134.519531 M 133.183594 134.519531 L 133.183594 134.519531 M 133.160156 134.519531 C 133.15625 134.519531 133.15625 134.519531 133.15625 134.519531 C 133.15625 134.519531 133.15625 134.519531 133.160156 134.519531 M 133.136719 134.515625 C 133.136719 134.515625 133.132812 134.515625 133.132812 134.515625 C 133.132812 134.515625 133.136719 134.515625 133.136719 134.515625 M 133.109375 134.515625 L 133.109375 134.515625 M 133.085938 134.515625 C 133.085938 134.515625 133.085938 134.515625 133.082031 134.515625 C 133.085938 134.515625 133.085938 134.515625 133.085938 134.515625 M 133.0625 134.515625 C 133.0625 134.515625 133.0625 134.515625 133.058594 134.515625 C 133.0625 134.515625 133.0625 134.515625 133.0625 134.515625 M 133.015625 134.511719 C 133.011719 134.511719 133.011719 134.511719 133.011719 134.511719 L 133.015625 134.511719 M 132.992188 134.511719 C 132.992188 134.511719 132.988281 134.511719 132.988281 134.511719 C 132.988281 134.511719 132.992188 134.511719 132.992188 134.511719 M 132.917969 134.511719 L 132.917969 134.511719 M 152.523438 100.804688 L 142.527344 100.804688 L 145.15625 95.09375 L 155.148438 95.09375 L 152.523438 100.804688 " fill-opacity="1" fill-rule="nonzero"/><path fill="#deebf8" d="M 137.027344 134.519531 L 133.398438 134.519531 C 133.390625 134.519531 133.382812 134.519531 133.375 134.519531 C 133.375 134.519531 133.371094 134.519531 133.371094 134.519531 C 133.363281 134.519531 133.359375 134.519531 133.355469 134.519531 C 133.351562 134.519531 133.351562 134.519531 133.347656 134.519531 C 133.339844 134.519531 133.335938 134.519531 133.328125 134.519531 C 133.316406 134.519531 133.3125 134.519531 133.304688 134.519531 C 133.300781 134.519531 133.300781 134.519531 133.296875 134.519531 C 133.292969 134.519531 133.285156 134.519531 133.28125 134.519531 C 133.28125 134.519531 133.277344 134.519531 133.273438 134.519531 C 133.269531 134.519531 133.261719 134.519531 133.253906 134.519531 C 133.246094 134.519531 133.238281 134.519531 133.230469 134.519531 C 133.230469 134.519531 133.226562 134.519531 133.226562 134.519531 C 133.21875 134.519531 133.214844 134.519531 133.210938 134.519531 C 133.207031 134.519531 133.203125 134.519531 133.203125 134.519531 C 133.195312 134.519531 133.191406 134.519531 133.183594 134.519531 C 133.171875 134.519531 133.164062 134.519531 133.160156 134.519531 C 133.15625 134.519531 133.15625 134.519531 133.15625 134.519531 C 133.148438 134.515625 133.144531 134.515625 133.136719 134.515625 C 133.136719 134.515625 133.132812 134.515625 133.132812 134.515625 C 133.125 134.515625 133.117188 134.515625 133.109375 134.515625 C 133.101562 134.515625 133.09375 134.515625 133.085938 134.515625 C 133.085938 134.515625 133.085938 134.515625 133.082031 134.515625 C 133.078125 134.515625 133.070312 134.515625 133.0625 134.515625 C 133.0625 134.515625 133.0625 134.515625 133.058594 134.515625 C 133.042969 134.515625 133.027344 134.511719 133.015625 134.511719 L 133.011719 134.511719 C 133.003906 134.511719 133 134.511719 132.992188 134.511719 C 132.992188 134.511719 132.988281 134.511719 132.988281 134.511719 C 132.964844 134.511719 132.941406 134.511719 132.917969 134.511719 C 131.039062 134.429688 129.273438 133.886719 127.734375 132.992188 L 142.527344 100.804688 L 152.523438 100.804688 L 137.027344 134.519531 " fill-opacity="1" fill-rule="nonzero"/><path fill="#c7d2e5" d="M 171.859375 101.226562 C 170.882812 100.953125 169.855469 100.804688 168.792969 100.804688 L 166.535156 100.804688 L 169.164062 95.09375 L 174.042969 95.09375 C 174.253906 95.09375 174.460938 95.097656 174.671875 95.109375 L 171.859375 101.226562 " fill-opacity="1" fill-rule="nonzero"/><path fill="#deebf8" d="M 156.558594 134.519531 L 151.039062 134.519531 L 166.535156 100.804688 L 168.792969 100.804688 C 169.855469 100.804688 170.882812 100.953125 171.859375 101.226562 L 156.558594 134.519531 " fill-opacity="1" fill-rule="nonzero"/><path fill="#424242" d="M 133.398438 95.757812 C 127.523438 95.757812 122.742188 100.53125 122.742188 106.398438 L 122.742188 123.214844 C 122.742188 129.082031 127.523438 133.851562 133.398438 133.851562 L 174.042969 133.851562 C 179.917969 133.851562 184.699219 129.082031 184.699219 123.214844 L 184.699219 106.398438 C 184.699219 100.53125 179.917969 95.757812 174.042969 95.757812 Z M 174.042969 135.1875 L 133.398438 135.1875 C 126.785156 135.1875 121.40625 129.816406 121.40625 123.214844 L 121.40625 106.398438 C 121.40625 99.796875 126.785156 94.425781 133.398438 94.425781 L 174.042969 94.425781 C 180.65625 94.425781 186.035156 99.796875 186.035156 106.398438 L 186.035156 123.214844 C 186.035156 129.816406 180.65625 135.1875 174.042969 135.1875 " fill-opacity="1" fill-rule="nonzero"/><path fill="#df8817" d="M 143.101562 65.070312 L 143.101562 67.199219 L 123.691406 67.199219 L 123.691406 65.070312 C 123.691406 61.652344 125.464844 58.648438 128.140625 56.925781 C 129.65625 55.949219 131.460938 55.382812 133.398438 55.382812 C 136.078125 55.382812 138.5 56.464844 140.257812 58.21875 C 141.464844 59.421875 142.351562 60.9375 142.792969 62.636719 C 142.992188 63.414062 143.101562 64.230469 143.101562 65.070312 " fill-opacity="1" fill-rule="nonzero"/><path fill="#f6a20e" d="M 142.792969 62.636719 C 141.40625 64.789062 138.796875 66.238281 135.8125 66.238281 C 131.371094 66.238281 127.769531 63.03125 127.769531 59.074219 C 127.769531 58.328125 127.898438 57.605469 128.140625 56.925781 C 129.65625 55.949219 131.460938 55.382812 133.398438 55.382812 C 136.078125 55.382812 138.5 56.464844 140.257812 58.21875 C 141.464844 59.421875 142.351562 60.9375 142.792969 62.636719 " fill-opacity="1" fill-rule="nonzero"/><path fill="#fbc657" d="M 139.261719 59.210938 C 138.976562 60.066406 137.703125 60.414062 136.417969 59.984375 C 135.132812 59.558594 134.320312 58.515625 134.609375 57.65625 C 134.894531 56.800781 136.171875 56.453125 137.457031 56.882812 C 138.742188 57.3125 139.550781 58.351562 139.261719 59.210938 " fill-opacity="1" fill-rule="nonzero"/><g clip-path="url(#id16)"><path fill="#48484a" d="M 338.871094 212.597656 L 338.871094 215.179688 C 338.871094 220.839844 334.273438 225.429688 328.601562 225.429688 L 94.4375 225.429688 C 87.351562 225.429688 81.605469 218.617188 81.605469 210.21875 L 81.605469 183.464844 C 81.605469 181.140625 83.191406 179.261719 85.148438 179.261719 L 90.648438 179.261719 C 93.941406 179.261719 96.992188 181.3125 98.683594 184.664062 L 105.835938 198.824219 C 106.9375 201.007812 108.929688 202.34375 111.078125 202.34375 L 328.601562 202.34375 C 334.273438 202.34375 338.871094 206.933594 338.871094 212.597656 " fill-opacity="1" fill-rule="nonzero"/></g><g clip-path="url(#id17)"><g clip-path="url(#id18)"><path fill="#df8817" d="M 99.15625 189.820312 L 99.15625 200.410156 C 99.15625 200.789062 99.109375 201.160156 99.023438 201.515625 C 98.527344 203.605469 96.644531 205.160156 94.398438 205.160156 L 76.75 205.160156 C 73.222656 205.160156 70.921875 201.464844 72.484375 198.308594 L 77.722656 187.714844 C 78.34375 186.457031 79.484375 185.554688 80.808594 185.21875 C 81.1875 185.121094 81.585938 185.070312 81.988281 185.070312 L 94.398438 185.070312 C 97.027344 185.070312 99.15625 187.195312 99.15625 189.820312 " fill-opacity="1" fill-rule="nonzero"/></g></g><g clip-path="url(#id19)"><g clip-path="url(#id20)"><path fill="#f6a20e" d="M 99.15625 189.820312 L 99.15625 200.410156 C 99.15625 200.789062 99.109375 201.160156 99.023438 201.515625 C 98.695312 201.589844 98.347656 201.628906 97.996094 201.628906 L 80.347656 201.628906 C 76.820312 201.628906 74.519531 197.933594 76.078125 194.777344 L 80.808594 185.21875 C 81.1875 185.121094 81.585938 185.070312 81.988281 185.070312 L 94.398438 185.070312 C 97.027344 185.070312 99.15625 187.195312 99.15625 189.820312 " fill-opacity="1" fill-rule="nonzero"/></g></g><g clip-path="url(#id21)"><g clip-path="url(#id22)"><path fill="#302d2d" d="M 73.875 211.207031 L 75.09375 213.785156 L 75.277344 214.179688 L 75.464844 214.570312 L 75.648438 214.964844 L 77.3125 218.492188 C 77.636719 219.183594 78.332031 219.621094 79.09375 219.621094 L 95.488281 219.621094 C 96.929688 219.621094 97.882812 218.125 97.265625 216.820312 L 96.390625 214.964844 L 96.019531 214.179688 L 95.835938 213.785156 L 93.828125 209.53125 C 93.503906 208.84375 92.808594 208.402344 92.046875 208.402344 L 75.65625 208.402344 C 74.632812 208.402344 73.859375 209.152344 73.710938 210.054688 C 73.648438 210.425781 73.695312 210.824219 73.875 211.207031 " fill-opacity="1" fill-rule="nonzero"/></g></g><g clip-path="url(#id23)"><g clip-path="url(#id24)"><path fill="#434345" d="M 73.875 211.207031 L 75.09375 213.785156 L 75.277344 214.179688 L 75.464844 214.570312 L 75.648438 214.964844 L 77.3125 218.492188 C 77.636719 219.183594 78.332031 219.621094 79.09375 219.621094 L 94.734375 219.621094 C 94.796875 219.25 94.75 218.851562 94.570312 218.472656 L 92.914062 214.964844 L 92.730469 214.570312 L 92.542969 214.179688 L 92.359375 213.785156 L 91.132812 211.183594 C 90.804688 210.496094 90.113281 210.054688 89.351562 210.054688 L 73.710938 210.054688 C 73.648438 210.425781 73.695312 210.824219 73.875 211.207031 " fill-opacity="1" fill-rule="nonzero"/></g></g><g clip-path="url(#id25)"><g clip-path="url(#id26)"><path fill="#48484a" d="M 75.09375 213.785156 L 75.277344 214.179688 L 75.464844 214.570312 L 96.207031 214.570312 L 96.019531 214.179688 L 95.835938 213.785156 L 75.09375 213.785156 " fill-opacity="1" fill-rule="nonzero"/></g></g><g clip-path="url(#id27)"><g clip-path="url(#id28)"><path fill="#302d2d" d="M 75.277344 214.179688 L 75.464844 214.570312 L 75.648438 214.964844 L 96.390625 214.964844 L 96.019531 214.179688 L 75.277344 214.179688 " fill-opacity="1" fill-rule="nonzero"/></g></g><g clip-path="url(#id29)"><g clip-path="url(#id30)"><path fill="#302d2d" d="M 81.039062 216.6875 L 88.46875 216.6875 C 89.238281 216.453125 89.867188 215.824219 89.867188 215.054688 L 89.867188 214.085938 C 89.867188 213.316406 89.238281 212.6875 88.46875 212.6875 L 81.039062 212.6875 C 80.269531 212.6875 79.640625 213.316406 79.640625 214.085938 L 79.640625 215.054688 C 79.640625 215.824219 80.269531 216.453125 81.039062 216.6875 " fill-opacity="1" fill-rule="nonzero"/></g></g><g clip-path="url(#id31)"><g clip-path="url(#id32)"><path fill="#ffffff" d="M 81.589844 216.058594 L 88.046875 216.058594 C 89.082031 216.058594 89.929688 215.214844 89.929688 214.179688 C 89.929688 213.144531 89.082031 212.296875 88.046875 212.296875 L 81.589844 212.296875 C 80.550781 212.296875 79.703125 213.144531 79.703125 214.179688 C 79.703125 215.214844 80.550781 216.058594 81.589844 216.058594 " fill-opacity="1" fill-rule="nonzero"/></g></g><g clip-path="url(#id33)"><g clip-path="url(#id34)"><path fill="#fbc657" d="M 96.644531 189.554688 C 96.644531 191.011719 95.464844 192.191406 94.007812 192.191406 C 92.550781 192.191406 91.367188 191.011719 91.367188 189.554688 C 91.367188 188.101562 92.550781 186.921875 94.007812 186.921875 C 95.464844 186.921875 96.644531 188.101562 96.644531 189.554688 " fill-opacity="1" fill-rule="nonzero"/></g></g><path fill="#48484a" d="M 128.757812 130.753906 C 132.160156 130.753906 134.917969 128 134.917969 124.605469 L 134.917969 116.539062 C 134.917969 113.140625 132.160156 110.390625 128.757812 110.390625 C 125.355469 110.390625 122.597656 113.140625 122.597656 116.539062 L 122.597656 124.605469 C 122.597656 128 125.355469 130.753906 128.757812 130.753906 " fill-opacity="1" fill-rule="nonzero"/><path fill="#48484a" d="M 120.691406 132.855469 C 124.738281 132.855469 127.425781 132.015625 128.695312 130.351562 C 129.886719 128.789062 129.332031 127.121094 129.308594 127.050781 L 128.207031 127.425781 C 128.222656 127.472656 128.582031 128.601562 127.757812 129.664062 C 126.90625 130.765625 124.636719 132 118.652344 131.628906 L 118.582031 132.789062 C 119.320312 132.832031 120.023438 132.855469 120.691406 132.855469 " fill-opacity="1" fill-rule="nonzero"/><path fill="#b21d25" d="M 193.3125 110.785156 L 193.273438 201.210938 L 196.769531 201.210938 L 196.808594 110.789062 " fill-opacity="1" fill-rule="nonzero"/><path fill="#b21d25" d="M 189.335938 89.984375 L 187.585938 89.984375 L 187.585938 193.613281 L 170.734375 193.613281 L 170.734375 195.355469 L 172.019531 194.175781 C 164.828125 186.382812 154.539062 181.472656 143.113281 181.382812 L 143.101562 183.128906 L 144.847656 183.128906 L 144.847656 181.378906 L 120.328125 181.378906 L 120.328125 91.726562 L 189.335938 91.726562 L 189.335938 89.984375 L 187.585938 89.984375 L 189.335938 89.984375 L 189.335938 88.238281 L 116.832031 88.238281 L 116.832031 184.871094 L 143.101562 184.871094 L 143.101562 183.125 L 141.351562 183.125 L 141.351562 184.859375 L 143.085938 184.875 C 153.515625 184.957031 162.878906 189.429688 169.445312 196.539062 L 169.96875 197.101562 L 191.085938 197.101562 L 191.085938 88.238281 L 189.335938 88.238281 L 189.335938 89.984375 " fill-opacity="1" fill-rule="nonzero"/><path fill="#b21d25" d="M 143.101562 183.125 L 141.351562 183.125 L 141.351562 183.128906 L 143.101562 183.128906 L 143.140625 181.382812 C 143.011719 181.378906 142.894531 181.378906 142.792969 181.378906 L 142.792969 184.871094 L 143.101562 184.871094 L 143.101562 183.125 L 141.351562 183.125 L 143.101562 183.125 L 143.101562 181.378906 L 142.792969 181.378906 L 142.792969 184.871094 C 142.894531 184.871094 142.984375 184.871094 143.0625 184.875 L 144.847656 184.914062 L 144.847656 181.378906 L 143.101562 181.378906 L 143.101562 183.125 " fill-opacity="1" fill-rule="nonzero"/><path fill="#bbbcbd" d="M 182.613281 144.003906 L 182.613281 145.097656 C 182.613281 145.832031 182.011719 146.433594 181.273438 146.433594 L 168.179688 146.433594 C 167.457031 146.433594 166.863281 145.855469 166.84375 145.140625 L 166.84375 144.003906 C 166.84375 143.269531 167.445312 142.671875 168.179688 142.671875 L 181.273438 142.671875 C 181.324219 142.671875 181.375 142.675781 181.425781 142.679688 C 182.089844 142.753906 182.613281 143.320312 182.613281 144.003906 " fill-opacity="1" fill-rule="nonzero"/><path fill="#ffffff" d="M 181.425781 142.71875 L 181.425781 143.8125 C 181.425781 144.546875 180.824219 145.148438 180.089844 145.148438 L 166.992188 145.148438 C 166.941406 145.148438 166.890625 145.144531 166.84375 145.140625 L 166.84375 144.003906 C 166.84375 143.269531 167.445312 142.671875 168.179688 142.671875 L 181.273438 142.671875 C 181.324219 142.671875 181.375 142.675781 181.425781 142.679688 L 181.425781 142.71875 " fill-opacity="1" fill-rule="nonzero"/><path fill="#f9d20b" d="M 252.476562 119.722656 L 252.4375 126.511719 L 299.785156 126.789062 L 299.824219 120 L 252.476562 119.722656 " fill-opacity="1" fill-rule="nonzero"/><path fill="#7e7f81" d="M 251.695312 123.378906 C 251.679688 126.238281 253.25 128.558594 255.199219 128.570312 C 257.152344 128.582031 258.746094 126.277344 258.761719 123.421875 C 258.777344 120.566406 257.210938 118.242188 255.261719 118.230469 C 253.308594 118.222656 251.714844 120.527344 251.695312 123.378906 " fill-opacity="1" fill-rule="nonzero"/><path fill="#393132" d="M 254.621094 118.742188 C 255.519531 118.746094 256.238281 120.835938 256.222656 123.40625 C 256.207031 125.976562 255.464844 128.058594 254.566406 128.054688 C 253.664062 128.046875 252.949219 125.960938 252.964844 123.390625 C 252.980469 120.816406 253.722656 118.738281 254.621094 118.742188 " fill-opacity="1" fill-rule="nonzero"/><path fill="#393132" d="M 254.621094 118.742188 L 254.566406 128.054688 L 245.316406 128 L 245.371094 118.6875 L 254.621094 118.742188 " fill-opacity="1" fill-rule="nonzero"/><path fill="#7e7f81" d="M 241.941406 123.324219 C 241.925781 126.394531 243.433594 128.890625 245.3125 128.902344 C 247.191406 128.914062 248.730469 126.433594 248.746094 123.363281 C 248.765625 120.292969 247.257812 117.796875 245.378906 117.785156 C 243.5 117.773438 241.960938 120.253906 241.941406 123.324219 " fill-opacity="1" fill-rule="nonzero"/><path fill="#393132" d="M 244.703125 118.683594 C 245.601562 118.6875 246.316406 120.777344 246.304688 123.347656 C 246.289062 125.921875 245.546875 128 244.648438 127.996094 C 243.746094 127.992188 243.03125 125.902344 243.042969 123.328125 C 243.058594 120.757812 243.800781 118.679688 244.703125 118.683594 " fill-opacity="1" fill-rule="nonzero"/><path fill="#1c1817" d="M 248.925781 120.242188 L 254.503906 120.277344 C 254.753906 120.277344 254.957031 120.074219 254.960938 119.828125 C 254.960938 119.578125 254.757812 119.375 254.507812 119.371094 L 248.929688 119.339844 C 248.683594 119.339844 248.476562 119.542969 248.476562 119.789062 C 248.476562 120.039062 248.675781 120.242188 248.925781 120.242188 " fill-opacity="1" fill-rule="nonzero"/><path fill="#1c1817" d="M 249.671875 122.628906 L 255.25 122.664062 C 255.496094 122.664062 255.703125 122.460938 255.703125 122.214844 C 255.703125 121.964844 255.503906 121.761719 255.253906 121.757812 L 249.675781 121.726562 C 249.425781 121.726562 249.222656 121.925781 249.21875 122.175781 C 249.21875 122.425781 249.421875 122.628906 249.671875 122.628906 " fill-opacity="1" fill-rule="nonzero"/><path fill="#1c1817" d="M 249.65625 125.011719 L 255.234375 125.042969 C 255.484375 125.046875 255.6875 124.84375 255.6875 124.59375 C 255.691406 124.347656 255.488281 124.144531 255.242188 124.140625 L 249.660156 124.109375 C 249.414062 124.105469 249.207031 124.308594 249.207031 124.558594 C 249.203125 124.804688 249.40625 125.007812 249.65625 125.011719 " fill-opacity="1" fill-rule="nonzero"/><path fill="#1c1817" d="M 249.019531 127.390625 L 254.597656 127.421875 C 254.847656 127.425781 255.050781 127.222656 255.054688 126.972656 C 255.054688 126.726562 254.851562 126.519531 254.605469 126.519531 L 249.023438 126.488281 C 248.777344 126.484375 248.570312 126.6875 248.570312 126.933594 C 248.570312 127.183594 248.769531 127.386719 249.019531 127.390625 " fill-opacity="1" fill-rule="nonzero"/><path fill="#d42524" d="M 299.824219 120 L 282.152344 119.898438 L 299.824219 120 " fill-opacity="1" fill-rule="nonzero"/><path fill="#caaa17" d="M 281.710938 126.683594 L 277.230469 126.65625 C 283.519531 125.414062 284.402344 121.527344 282.152344 119.898438 L 299.824219 120 L 299.824219 120.007812 C 292.945312 120.105469 286.636719 122.59375 281.710938 126.683594 " fill-opacity="1" fill-rule="nonzero"/><path fill="#f9d20b" d="M 300.183594 157.363281 C 299.855469 157.359375 299.535156 157.339844 299.214844 157.300781 C 296.453125 156.96875 294.101562 155.300781 292.828125 152.96875 C 292.171875 151.761719 291.800781 150.375 291.808594 148.902344 C 291.835938 144.257812 295.628906 140.511719 300.285156 140.539062 C 304.9375 140.566406 308.6875 144.355469 308.660156 149 C 308.632812 153.648438 304.839844 157.390625 300.183594 157.363281 M 271.242188 148.78125 C 271.148438 164.765625 284.050781 177.800781 300.0625 177.894531 C 316.078125 177.988281 329.132812 165.105469 329.226562 149.121094 C 329.320312 133.136719 316.417969 120.101562 300.402344 120.007812 C 284.394531 119.914062 271.335938 132.796875 271.242188 148.78125 " fill-opacity="1" fill-rule="nonzero"/><path fill="#dcb512" d="M 278.800781 148.824219 C 278.730469 160.625 288.289062 170.28125 300.109375 170.351562 C 311.925781 170.421875 321.601562 160.875 321.667969 149.078125 C 321.738281 137.277344 312.179688 127.621094 300.359375 127.550781 C 288.542969 127.484375 278.867188 137.027344 278.800781 148.824219 Z M 284.226562 164.746094 C 280 160.476562 277.691406 154.820312 277.726562 148.820312 C 277.761719 142.816406 280.136719 137.1875 284.414062 132.96875 C 288.6875 128.75 294.355469 126.445312 300.367188 126.480469 C 306.378906 126.515625 312.015625 128.886719 316.242188 133.15625 C 320.46875 137.425781 322.777344 143.082031 322.742188 149.082031 C 322.707031 155.085938 320.332031 160.714844 316.054688 164.933594 C 311.78125 169.152344 306.113281 171.457031 300.101562 171.421875 C 294.089844 171.386719 288.453125 169.015625 284.226562 164.746094 " fill-opacity="1" fill-rule="nonzero"/><path fill="#dcb512" d="M 285.253906 148.863281 C 285.203125 157.109375 291.882812 163.859375 300.144531 163.910156 C 308.40625 163.957031 315.167969 157.285156 315.21875 149.039062 C 315.265625 140.792969 308.582031 134.042969 300.320312 133.992188 C 292.0625 133.945312 285.300781 140.617188 285.253906 148.863281 M 284.179688 148.855469 C 284.230469 140.019531 291.476562 132.871094 300.328125 132.921875 C 309.179688 132.976562 316.339844 140.207031 316.289062 149.046875 C 316.238281 157.882812 308.992188 165.03125 300.140625 164.980469 C 291.285156 164.925781 284.128906 157.695312 284.179688 148.855469 " fill-opacity="1" fill-rule="nonzero"/><path fill="#caaa17" d="M 303.1875 163.617188 L 289.570312 158.308594 L 292.828125 152.96875 C 294.101562 155.300781 296.453125 156.96875 299.214844 157.300781 C 298.488281 159.378906 302.480469 162.902344 303.296875 163.59375 C 303.261719 163.601562 303.226562 163.609375 303.1875 163.617188 " fill-opacity="1" fill-rule="nonzero"/><path fill="#b2941d" d="M 303.441406 163.714844 L 303.1875 163.617188 C 303.226562 163.609375 303.261719 163.601562 303.296875 163.59375 C 303.390625 163.671875 303.441406 163.714844 303.441406 163.714844 " fill-opacity="1" fill-rule="nonzero"/><path fill="#caaa17" d="M 295.183594 167.867188 C 294.144531 167.867188 286.019531 160.839844 286.199219 156.730469 C 288.121094 160.167969 291.273438 162.835938 295.058594 164.125 L 295.964844 164.953125 L 295.265625 167.839844 C 295.246094 167.859375 295.21875 167.867188 295.183594 167.867188 M 292.417969 161.707031 C 290.773438 160.699219 289.335938 159.382812 288.191406 157.839844 L 292.417969 161.707031 " fill-opacity="1" fill-rule="nonzero"/><path fill="#b2941d" d="M 295.058594 164.125 C 291.273438 162.835938 288.121094 160.167969 286.199219 156.730469 C 286.210938 156.515625 286.242188 156.304688 286.300781 156.109375 L 288.191406 157.839844 C 289.335938 159.382812 290.773438 160.699219 292.417969 161.707031 L 295.058594 164.125 " fill-opacity="1" fill-rule="nonzero"/><path fill="#f9d20b" d="M 296.25 166.433594 L 299.554688 160.894531 L 299.582031 160.90625 C 299.5625 160.898438 295.367188 156.273438 293.882812 154.480469 C 292.082031 152.292969 291.640625 150.425781 291.898438 147.292969 L 285.792969 144.921875 C 284.878906 147.992188 284.765625 150.933594 285.445312 153.664062 C 286.003906 155.898438 287.085938 157.945312 288.65625 159.761719 C 291.195312 162.6875 295.917969 166.292969 296.25 166.433594 " fill-opacity="1" fill-rule="nonzero"/><path fill="#7e7f81" d="M 301.617188 167.390625 C 303.363281 165.128906 303.527344 162.335938 301.984375 161.144531 C 300.441406 159.953125 297.769531 160.820312 296.023438 163.078125 C 294.273438 165.335938 294.109375 168.136719 295.65625 169.324219 C 297.199219 170.515625 299.867188 169.648438 301.617188 167.390625 " fill-opacity="1" fill-rule="nonzero"/><path fill="#393132" d="M 296.472656 169.308594 C 295.761719 168.757812 296.460938 166.664062 298.035156 164.628906 C 299.609375 162.59375 301.460938 161.386719 302.175781 161.9375 C 302.886719 162.488281 302.1875 164.582031 300.613281 166.617188 C 299.039062 168.652344 297.183594 169.859375 296.472656 169.308594 " fill-opacity="1" fill-rule="nonzero"/><path fill="#393132" d="M 296.472656 169.308594 L 302.175781 161.9375 L 309.492188 167.582031 L 303.792969 174.953125 L 296.472656 169.308594 " fill-opacity="1" fill-rule="nonzero"/><path fill="#7e7f81" d="M 309.335938 173.34375 C 311.214844 170.914062 311.53125 168.015625 310.046875 166.867188 C 308.558594 165.722656 305.828125 166.761719 303.949219 169.191406 C 302.070312 171.621094 301.75 174.519531 303.238281 175.664062 C 304.726562 176.8125 307.457031 175.773438 309.335938 173.34375 " fill-opacity="1" fill-rule="nonzero"/><path fill="#393132" d="M 304.320312 175.363281 C 303.609375 174.8125 304.308594 172.71875 305.882812 170.683594 C 307.457031 168.648438 309.3125 167.441406 310.023438 167.992188 C 310.738281 168.539062 310.035156 170.636719 308.460938 172.671875 C 306.886719 174.707031 305.035156 175.910156 304.320312 175.363281 " fill-opacity="1" fill-rule="nonzero"/><path fill="#1c1817" d="M 302.769531 169.214844 L 298.355469 165.8125 C 298.160156 165.660156 297.871094 165.695312 297.71875 165.890625 C 297.570312 166.089844 297.605469 166.375 297.800781 166.523438 L 302.21875 169.929688 C 302.414062 170.082031 302.699219 170.046875 302.851562 169.847656 C 303.003906 169.652344 302.964844 169.367188 302.769531 169.214844 " fill-opacity="1" fill-rule="nonzero"/><path fill="#1c1817" d="M 301.773438 171.421875 L 297.355469 168.015625 C 297.160156 167.863281 296.875 167.902344 296.722656 168.097656 C 296.570312 168.292969 296.609375 168.578125 296.804688 168.730469 L 301.21875 172.136719 C 301.417969 172.289062 301.703125 172.25 301.851562 172.054688 C 302.003906 171.859375 301.96875 171.574219 301.773438 171.421875 " fill-opacity="1" fill-rule="nonzero"/><path fill="#1c1817" d="M 304.230469 167.332031 L 299.8125 163.925781 C 299.617188 163.773438 299.332031 163.8125 299.179688 164.007812 C 299.027344 164.203125 299.066406 164.488281 299.261719 164.640625 L 303.675781 168.046875 C 303.871094 168.199219 304.15625 168.160156 304.308594 167.964844 C 304.460938 167.769531 304.425781 167.484375 304.230469 167.332031 " fill-opacity="1" fill-rule="nonzero"/><path fill="#1c1817" d="M 306.179688 165.824219 L 301.765625 162.421875 C 301.566406 162.269531 301.28125 162.304688 301.128906 162.503906 C 300.976562 162.699219 301.015625 162.984375 301.210938 163.136719 L 305.625 166.539062 C 305.824219 166.691406 306.109375 166.65625 306.261719 166.457031 C 306.414062 166.261719 306.375 165.976562 306.179688 165.824219 " fill-opacity="1" fill-rule="nonzero"/><path fill="#bbbcbd" d="M 264.0625 115.386719 L 265.855469 115.386719 C 267.054688 115.386719 268.039062 115.984375 268.039062 116.71875 L 268.039062 129.792969 C 268.039062 130.515625 267.089844 131.105469 265.917969 131.125 L 265.855469 131.128906 L 264.0625 131.128906 C 262.863281 131.128906 261.882812 130.527344 261.882812 129.792969 L 261.882812 116.71875 C 261.882812 116.667969 261.886719 116.617188 261.894531 116.570312 C 262.015625 115.90625 262.945312 115.386719 264.0625 115.386719 " fill-opacity="1" fill-rule="nonzero"/><path fill="#ffffff" d="M 261.957031 116.570312 L 263.753906 116.570312 C 264.953125 116.570312 265.933594 117.167969 265.933594 117.902344 L 265.933594 130.976562 C 265.933594 131.027344 265.929688 131.078125 265.917969 131.125 L 265.855469 131.128906 L 264.0625 131.128906 C 262.863281 131.128906 261.882812 130.527344 261.882812 129.792969 L 261.882812 116.71875 C 261.882812 116.667969 261.886719 116.617188 261.894531 116.570312 L 261.957031 116.570312 " fill-opacity="1" fill-rule="nonzero"/><path fill="#bbbcbd" d="M 231.535156 141.867188 L 205.792969 141.867188 L 205.792969 128.175781 L 231.535156 128.175781 Z M 231.535156 160.925781 L 205.792969 160.925781 L 205.792969 147.238281 L 231.535156 147.238281 Z M 231.535156 179.988281 L 205.792969 179.988281 L 205.792969 166.300781 L 231.535156 166.300781 Z M 234.222656 112.5 C 233.277344 112.5 232.441406 112.988281 231.964844 113.730469 C 231.691406 114.152344 231.535156 114.648438 231.535156 115.1875 L 231.535156 122.804688 L 205.792969 122.804688 L 205.792969 115.1875 C 205.792969 113.703125 204.585938 112.5 203.101562 112.5 C 202.359375 112.5 201.6875 112.800781 201.199219 113.289062 C 201.0625 113.421875 200.945312 113.570312 200.839844 113.730469 C 200.566406 114.152344 200.410156 114.648438 200.410156 115.1875 L 200.410156 194.671875 C 200.410156 196.15625 201.617188 197.355469 203.101562 197.355469 C 203.277344 197.355469 203.449219 197.339844 203.617188 197.308594 C 204.152344 197.203125 204.632812 196.941406 205.003906 196.570312 C 205.492188 196.085938 205.792969 195.414062 205.792969 194.671875 L 205.792969 185.359375 L 231.535156 185.359375 L 231.535156 194.671875 C 231.535156 196.15625 232.738281 197.355469 234.222656 197.355469 C 234.402344 197.355469 234.574219 197.339844 234.738281 197.308594 C 235.980469 197.066406 236.914062 195.980469 236.914062 194.671875 L 236.914062 115.1875 C 236.914062 113.703125 235.710938 112.5 234.222656 112.5 " fill-opacity="1" fill-rule="nonzero"/><path fill="#f1edee" d="M 231.535156 141.867188 L 231.535156 143.042969 L 204.046875 143.042969 L 204.046875 128.179688 L 205.792969 128.179688 L 205.792969 128.175781 L 231.535156 128.175781 Z M 231.535156 160.925781 L 231.535156 162.105469 L 204.046875 162.105469 L 204.046875 147.238281 L 231.535156 147.238281 Z M 231.535156 179.988281 L 231.535156 181.167969 L 204.046875 181.167969 L 204.046875 166.300781 L 231.535156 166.300781 Z M 232.480469 113.679688 C 232.304688 113.679688 232.132812 113.695312 231.964844 113.730469 C 231.691406 114.152344 231.535156 114.648438 231.535156 115.1875 L 231.535156 123.984375 L 204.046875 123.984375 L 204.046875 116.367188 C 204.046875 114.882812 202.84375 113.679688 201.355469 113.679688 C 201.179688 113.679688 201.007812 113.695312 200.839844 113.730469 C 200.566406 114.152344 200.410156 114.648438 200.410156 115.1875 L 200.410156 194.671875 C 200.410156 196.15625 201.617188 197.355469 203.101562 197.355469 C 203.277344 197.355469 203.449219 197.339844 203.617188 197.308594 C 203.890625 196.886719 204.046875 196.386719 204.046875 195.847656 L 204.046875 185.359375 L 231.535156 185.359375 L 231.535156 194.671875 C 231.535156 196.15625 232.738281 197.355469 234.222656 197.355469 C 234.402344 197.355469 234.574219 197.339844 234.738281 197.308594 C 235.011719 196.886719 235.171875 196.386719 235.171875 195.847656 L 235.171875 116.367188 C 235.171875 114.882812 233.964844 113.679688 232.480469 113.679688 " fill-opacity="1" fill-rule="nonzero"/><path fill="#bbbcbd" d="M 286.304688 74.511719 C 287.789062 74.511719 288.996094 75.714844 288.996094 77.199219 L 288.996094 104.507812 C 288.996094 105.992188 287.789062 107.195312 286.304688 107.195312 C 284.820312 107.195312 283.613281 105.992188 283.613281 104.507812 L 283.613281 77.199219 C 283.613281 75.714844 284.820312 74.511719 286.304688 74.511719 " fill-opacity="1" fill-rule="nonzero"/><path fill="#bbbcbd" d="M 305.523438 74.511719 C 307.007812 74.511719 308.214844 75.714844 308.214844 77.199219 L 308.214844 104.507812 C 308.214844 105.992188 307.007812 107.195312 305.523438 107.195312 C 304.039062 107.195312 302.832031 105.992188 302.832031 104.507812 L 302.832031 77.199219 C 302.832031 75.714844 304.039062 74.511719 305.523438 74.511719 " fill-opacity="1" fill-rule="nonzero"/><path fill="#bbbcbd" d="M 227.035156 77.132812 L 227.035156 102.832031 L 213.324219 102.832031 L 213.324219 77.132812 Z M 246.128906 77.132812 L 246.128906 102.832031 L 232.417969 102.832031 L 232.417969 77.132812 Z M 265.222656 77.132812 L 265.222656 102.832031 L 251.511719 102.832031 L 251.511719 77.132812 Z M 197.621094 74.449219 C 197.621094 75.394531 198.113281 76.226562 198.855469 76.703125 C 199.273438 76.976562 199.773438 77.132812 200.3125 77.132812 L 207.941406 77.132812 L 207.941406 102.832031 L 200.3125 102.832031 C 198.828125 102.832031 197.621094 104.035156 197.621094 105.519531 C 197.621094 106.261719 197.921875 106.933594 198.410156 107.417969 C 198.546875 107.554688 198.695312 107.671875 198.855469 107.777344 C 199.273438 108.046875 199.773438 108.207031 200.3125 108.207031 L 314.640625 108.207031 C 316.078125 108.207031 317.304688 107.105469 317.382812 105.671875 C 317.394531 105.445312 317.378906 105.21875 317.335938 105.003906 C 317.234375 104.46875 316.96875 103.992188 316.597656 103.617188 C 316.113281 103.132812 315.4375 102.832031 314.695312 102.832031 L 270.601562 102.832031 L 270.601562 77.132812 L 314.640625 77.132812 C 316.078125 77.132812 317.300781 76.035156 317.382812 74.605469 C 317.394531 74.375 317.378906 74.148438 317.335938 73.933594 C 317.097656 72.695312 316.007812 71.761719 314.695312 71.761719 L 200.3125 71.761719 C 198.828125 71.761719 197.621094 72.964844 197.621094 74.449219 " fill-opacity="1" fill-rule="nonzero"/><path fill="#f1edee" d="M 227.035156 77.132812 L 228.214844 77.132812 L 228.214844 104.574219 L 213.324219 104.574219 L 213.324219 77.132812 Z M 246.128906 77.132812 L 247.308594 77.132812 L 247.308594 104.574219 L 232.417969 104.574219 L 232.417969 77.132812 Z M 265.222656 77.132812 L 266.402344 77.132812 L 266.402344 104.574219 L 251.511719 104.574219 L 251.511719 77.132812 Z M 198.804688 76.167969 C 198.800781 76.351562 198.820312 76.53125 198.855469 76.703125 C 199.273438 76.976562 199.773438 77.132812 200.3125 77.132812 L 209.125 77.132812 L 209.125 104.574219 L 201.550781 104.574219 C 200.066406 104.574219 198.816406 105.753906 198.804688 107.238281 C 198.800781 107.421875 198.820312 107.601562 198.855469 107.777344 C 199.273438 108.046875 199.773438 108.207031 200.3125 108.207031 L 314.640625 108.207031 C 316.078125 108.207031 317.304688 107.105469 317.382812 105.671875 C 317.394531 105.445312 317.378906 105.21875 317.335938 105.003906 C 316.917969 104.734375 316.414062 104.574219 315.875 104.574219 L 270.601562 104.574219 L 270.601562 77.132812 L 314.640625 77.132812 C 316.078125 77.132812 317.300781 76.035156 317.382812 74.605469 C 317.394531 74.375 317.378906 74.148438 317.335938 73.933594 C 316.917969 73.660156 316.414062 73.503906 315.875 73.503906 L 201.550781 73.503906 C 200.066406 73.503906 198.816406 74.683594 198.804688 76.167969 " fill-opacity="1" fill-rule="nonzero"/><path fill="#f1edee" d="M 287.257812 74.511719 C 288.742188 74.511719 289.949219 75.714844 289.949219 77.199219 L 289.949219 104.507812 C 289.949219 105.992188 288.742188 107.195312 287.257812 107.195312 C 285.769531 107.195312 284.566406 105.992188 284.566406 104.507812 L 284.566406 77.199219 C 284.566406 75.714844 285.769531 74.511719 287.257812 74.511719 " fill-opacity="1" fill-rule="nonzero"/><path fill="#f1edee" d="M 306.476562 74.511719 C 307.960938 74.511719 309.167969 75.714844 309.167969 77.199219 L 309.167969 104.507812 C 309.167969 105.992188 307.960938 107.195312 306.476562 107.195312 C 304.988281 107.195312 303.785156 105.992188 303.785156 104.507812 L 303.785156 77.199219 C 303.785156 75.714844 304.988281 74.511719 306.476562 74.511719 " fill-opacity="1" fill-rule="nonzero"/><path fill="#b71d23" d="M 260.035156 176.125 C 260.035156 180.4375 256.527344 183.9375 252.203125 183.9375 C 247.882812 183.9375 244.378906 180.4375 244.378906 176.125 C 244.378906 171.808594 247.882812 168.308594 252.203125 168.308594 C 256.527344 168.308594 260.035156 171.808594 260.035156 176.125 " fill-opacity="1" fill-rule="nonzero"/><path fill="#f25766" d="M 260.519531 175.003906 C 260.519531 179.320312 257.015625 182.820312 252.691406 182.820312 C 248.367188 182.820312 244.863281 179.320312 244.863281 175.003906 C 244.863281 170.6875 248.367188 167.1875 252.691406 167.1875 C 257.015625 167.1875 260.519531 170.6875 260.519531 175.003906 " fill-opacity="1" fill-rule="nonzero"/><path fill="#ee242d" d="M 259.132812 175.003906 C 259.132812 178.554688 256.246094 181.433594 252.691406 181.433594 C 249.132812 181.433594 246.25 178.554688 246.25 175.003906 C 246.25 171.453125 249.132812 168.574219 252.691406 168.574219 C 256.246094 168.574219 259.132812 171.453125 259.132812 175.003906 " fill-opacity="1" fill-rule="nonzero"/><path fill="#b71d23" d="M 256.34375 175.003906 C 256.34375 177.015625 254.707031 178.648438 252.691406 178.648438 C 250.675781 178.648438 249.039062 177.015625 249.039062 175.003906 C 249.039062 172.992188 250.675781 171.359375 252.691406 171.359375 C 254.707031 171.359375 256.34375 172.992188 256.34375 175.003906 " fill-opacity="1" fill-rule="nonzero"/><path fill="#81171b" d="M 252.691406 171.988281 L 249.78125 174.097656 L 250.890625 177.515625 L 254.488281 177.515625 L 255.601562 174.097656 L 252.691406 171.988281 " fill-opacity="1" fill-rule="nonzero"/><g clip-path="url(#id35)"><path fill="#211d1d" d="M 171.203125 220.898438 C 171.203125 236.566406 158.484375 249.261719 142.792969 249.261719 C 127.101562 249.261719 114.378906 236.566406 114.378906 220.898438 C 114.378906 205.234375 127.101562 192.535156 142.792969 192.535156 C 158.484375 192.535156 171.203125 205.234375 171.203125 220.898438 " fill-opacity="1" fill-rule="nonzero"/></g><path fill="#161312" d="M 161.019531 220.898438 C 161.019531 230.949219 152.859375 239.097656 142.792969 239.097656 C 132.726562 239.097656 124.5625 230.949219 124.5625 220.898438 C 124.5625 210.847656 132.726562 202.703125 142.792969 202.703125 C 152.859375 202.703125 161.019531 210.847656 161.019531 220.898438 " fill-opacity="1" fill-rule="nonzero"/><path fill="#808674" d="M 158.15625 220.898438 C 158.15625 229.371094 151.277344 236.238281 142.792969 236.238281 C 138.082031 236.238281 133.867188 234.125 131.046875 230.792969 C 128.789062 228.121094 127.425781 224.667969 127.425781 220.898438 C 127.425781 212.429688 134.304688 205.558594 142.792969 205.558594 C 144.816406 205.558594 146.746094 205.949219 148.515625 206.660156 C 154.167969 208.925781 158.15625 214.445312 158.15625 220.898438 " fill-opacity="1" fill-rule="nonzero"/><path fill="#ababa5" d="M 152.136719 216.550781 C 152.136719 225.023438 145.257812 231.890625 136.769531 231.890625 C 134.75 231.890625 132.816406 231.503906 131.046875 230.792969 C 128.789062 228.121094 127.425781 224.667969 127.425781 220.898438 C 127.425781 212.429688 134.304688 205.558594 142.792969 205.558594 C 144.816406 205.558594 146.746094 205.949219 148.515625 206.660156 C 150.773438 209.332031 152.136719 212.78125 152.136719 216.550781 " fill-opacity="1" fill-rule="nonzero"/><path fill="#ffffff" d="M 141.242188 209.34375 C 142.117188 210.546875 139.140625 210.867188 136.546875 212.75 C 133.957031 214.628906 132.730469 217.355469 131.851562 216.152344 C 130.976562 214.949219 131.9375 212.203125 134.53125 210.320312 C 137.125 208.441406 140.367188 208.140625 141.242188 209.34375 " fill-opacity="1" fill-rule="nonzero"/><g clip-path="url(#id36)"><path fill="#211d1d" d="M 319.980469 220.898438 C 319.980469 236.566406 307.257812 249.261719 291.566406 249.261719 C 275.875 249.261719 263.15625 236.566406 263.15625 220.898438 C 263.15625 205.234375 275.875 192.535156 291.566406 192.535156 C 307.257812 192.535156 319.980469 205.234375 319.980469 220.898438 " fill-opacity="1" fill-rule="nonzero"/></g><path fill="#161312" d="M 309.796875 220.898438 C 309.796875 230.949219 301.632812 239.097656 291.566406 239.097656 C 281.5 239.097656 273.339844 230.949219 273.339844 220.898438 C 273.339844 210.847656 281.5 202.703125 291.566406 202.703125 C 301.632812 202.703125 309.796875 210.847656 309.796875 220.898438 " fill-opacity="1" fill-rule="nonzero"/><path fill="#808674" d="M 306.933594 220.898438 C 306.933594 229.371094 300.054688 236.238281 291.566406 236.238281 C 286.648438 236.238281 282.269531 233.933594 279.457031 230.34375 C 277.417969 227.738281 276.203125 224.460938 276.203125 220.898438 C 276.203125 212.429688 283.082031 205.558594 291.566406 205.558594 C 293.984375 205.558594 296.273438 206.117188 298.304688 207.109375 C 303.414062 209.601562 306.933594 214.839844 306.933594 220.898438 " fill-opacity="1" fill-rule="nonzero"/><path fill="#ababa5" d="M 301.5625 216.550781 C 301.5625 225.023438 294.683594 231.890625 286.195312 231.890625 C 283.78125 231.890625 281.492188 231.335938 279.457031 230.34375 C 277.417969 227.738281 276.203125 224.460938 276.203125 220.898438 C 276.203125 212.429688 283.082031 205.558594 291.566406 205.558594 C 293.984375 205.558594 296.273438 206.117188 298.304688 207.109375 C 300.347656 209.710938 301.5625 212.992188 301.5625 216.550781 " fill-opacity="1" fill-rule="nonzero"/><path fill="#ffffff" d="M 289.785156 209.113281 C 290.660156 210.316406 287.683594 210.636719 285.089844 212.519531 C 282.496094 214.398438 281.269531 217.125 280.394531 215.921875 C 279.519531 214.71875 280.480469 211.972656 283.074219 210.089844 C 285.664062 208.210938 288.90625 207.910156 289.785156 209.113281 " fill-opacity="1" fill-rule="nonzero"/></svg>