<svg xmlns="http://www.w3.org/2000/svg" xmlns:xlink="http://www.w3.org/1999/xlink" width="559" zoomAndPan="magnify" viewBox="0 0 419.25 297.749993" height="396" preserveAspectRatio="xMidYMid meet" version="1.0"><path fill="#77b255" d="M 295.191406 96.996094 C 316.132812 84.421875 321.304688 47.703125 317.117188 51.890625 C 321.304688 47.703125 283.601562 51.890625 271.035156 72.839844 C 271.035156 64.460938 262.660156 30.949219 250.09375 60.273438 C 237.519531 89.601562 241.710938 93.789062 241.710938 102.167969 C 241.710938 110.542969 258.46875 110.542969 258.46875 110.542969 C 258.46875 110.542969 257.730469 126.5625 266.113281 126.5625 C 274.492188 126.5625 277.945312 130.015625 307.265625 117.453125 C 336.589844 104.878906 303.566406 96.996094 295.191406 96.996094 Z M 295.191406 96.996094 " fill-opacity="1" fill-rule="nonzero"/><path fill="#f4900c" d="M 243.800781 183.855469 C 198.6875 228.96875 124.410156 261.351562 113.9375 250.878906 C 103.460938 240.402344 135.851562 166.128906 180.960938 121.011719 C 226.074219 75.898438 249.269531 76.210938 268.9375 95.875 C 288.601562 115.542969 288.917969 138.738281 243.800781 183.855469 Z M 243.800781 183.855469 " fill-opacity="1" fill-rule="nonzero"/><path fill="#d67503" d="M 240.5625 130.332031 C 234.800781 124.574219 224.148438 113.832031 212.761719 94.15625 C 208.300781 97.070312 203.554688 100.621094 198.492188 104.867188 C 215.097656 126.273438 246.605469 136.367188 240.5625 130.332031 Z M 196.214844 178.152344 C 190.046875 171.988281 178.265625 160.085938 165.972656 137.59375 C 161.902344 142.523438 157.980469 147.625 154.242188 152.820312 C 170.871094 174.132812 202.234375 184.171875 196.214844 178.152344 Z M 251.320312 176.074219 C 230.105469 164.179688 218.792969 152.910156 212.796875 146.921875 C 206.753906 140.867188 216.898438 172.484375 238.375 189.066406 C 240.21875 187.347656 248.957031 178.597656 251.320312 176.074219 Z M 179.140625 231.316406 C 184.445312 228.398438 189.828125 225.242188 195.226562 221.851562 C 175.835938 210.566406 165.195312 200.035156 159.476562 194.316406 C 154.015625 188.847656 161.765625 214.144531 179.140625 231.316406 Z M 179.140625 231.316406 " fill-opacity="1" fill-rule="nonzero"/></svg>