<svg xmlns="http://www.w3.org/2000/svg" xmlns:xlink="http://www.w3.org/1999/xlink" width="559" zoomAndPan="magnify" viewBox="0 0 419.25 297.749993" height="396" preserveAspectRatio="xMidYMid meet" version="1.0"><defs><clipPath id="id1"><path d="M 0 0.140625 L 418.5 0.140625 L 418.5 297.359375 L 0 297.359375 Z M 0 0.140625 " clip-rule="nonzero"/></clipPath></defs><g clip-path="url(#id1)"><path fill="#ffde59" d="M 0 0.140625 L 418.5 0.140625 L 418.5 297.359375 L 0 297.359375 Z M 0 0.140625 " fill-opacity="1" fill-rule="nonzero"/><path fill="#ffffff" d="M 0 0.140625 L 418.5 0.140625 L 418.5 297.359375 L 0 297.359375 Z M 0 0.140625 " fill-opacity="1" fill-rule="nonzero"/><path fill="#ffde59" d="M 0 0.140625 L 418.5 0.140625 L 418.5 297.359375 L 0 297.359375 Z M 0 0.140625 " fill-opacity="1" fill-rule="nonzero"/></g><path fill="#c58149" d="M 262.136719 183.941406 C 262.136719 183.941406 278.390625 205.554688 279.3125 209.898438 C 280.234375 214.246094 272.601562 235.707031 271.285156 242.820312 C 269.96875 249.535156 256.285156 239.394531 256.285156 238.34375 C 256.285156 237.289062 260.496094 214.773438 260.628906 213.324219 C 260.757812 211.875 248.453125 201.800781 248.453125 201.800781 Z M 177.617188 195.085938 C 177.617188 195.085938 179.960938 210.164062 183.449219 226.621094 C 177.660156 232.679688 179.238281 243.726562 186.347656 265.726562 C 188.453125 267.445312 202.710938 269.550781 202.136719 265.726562 C 201.917969 264.277344 197.398438 233.007812 197.925781 230.308594 C 198.453125 227.613281 204.699219 214.441406 202.066406 204.171875 C 199.433594 193.902344 182.925781 189.488281 182.925781 189.488281 Z M 246.898438 39.105469 C 238.328125 27.925781 227.480469 48.886719 237.238281 61.144531 L 252.1875 58.597656 C 252.902344 55.992188 254.039062 48.417969 246.898438 39.105469 Z M 246.898438 39.105469 " fill-opacity="1" fill-rule="nonzero"/><path fill="#e9a65e" d="M 273.722656 97.707031 C 268.589844 100.472656 265.628906 102.25 265.824219 119.632812 C 266.023438 137.015625 274.511719 190.148438 243.71875 207.132812 C 243.507812 207.25 243.296875 207.359375 243.085938 207.472656 C 242.820312 214.199219 242.53125 223.183594 242.53125 230.441406 C 242.53125 243.875 246.082031 262.960938 245.691406 264.613281 C 244.835938 268.234375 231.675781 266.191406 230.492188 264.613281 C 229.308594 263.03125 225.164062 241.304688 226.984375 232.8125 C 225.257812 226.132812 222.953125 218.65625 221.8125 215.046875 C 206.882812 218.3125 190.710938 218.429688 177.613281 216.363281 C 177.558594 224.480469 171.988281 230.714844 171.542969 233.007812 C 171.015625 235.703125 176.28125 264.257812 176.277344 265.726562 C 176.273438 269.550781 162.59375 267.445312 160.488281 265.726562 C 153.382812 243.726562 151.800781 232.679688 157.59375 226.625 C 151.066406 213.382812 148.386719 200.160156 147.347656 193.203125 C 137.570312 204.402344 138.144531 207.914062 138.902344 222.34375 C 139.691406 237.355469 135.742188 241.109375 135.742188 241.109375 C 135.742188 241.109375 134.164062 242.886719 132.78125 241.109375 C 135.941406 236.761719 136.136719 228.269531 134.757812 220.171875 C 133.375 212.074219 134.558594 202.195312 139.691406 195.480469 C 144.824219 188.765625 147.105469 179.125 147.105469 179.125 C 147.105469 179.125 147.105469 179.128906 147.105469 179.128906 C 148.539062 170.59375 153.160156 162.359375 161.996094 156.371094 C 180.355469 143.929688 210.949219 146.496094 217.070312 147.089844 C 223.1875 147.679688 227.089844 134.476562 226.695312 113.933594 C 226.363281 96.710938 217.464844 99.484375 216.871094 80.917969 C 216.738281 76.734375 217.351562 73.09375 218.484375 69.917969 C 202.957031 67.863281 196.234375 45.242188 210.160156 47.339844 C 221.757812 49.089844 226.191406 55.332031 227.480469 57.703125 C 230.226562 55.5625 233.210938 53.953125 236.0625 52.757812 L 233.5 43.046875 C 233.328125 41.957031 233.871094 40.773438 233.871094 40.773438 C 234.238281 39.5 235.78125 39.011719 236.816406 39.835938 C 236.816406 39.835938 237.730469 40.460938 238.28125 41.234375 L 242.332031 50.628906 C 243.007812 50.347656 245.273438 49.527344 249.472656 49.007812 C 249.472656 48.988281 249.46875 48.96875 249.46875 48.949219 L 249.96875 38.511719 C 250.136719 37.421875 251.011719 36.457031 251.011719 36.457031 C 251.746094 35.351562 253.363281 35.351562 254.101562 36.453125 C 254.101562 36.453125 254.785156 37.320312 255.078125 38.226562 L 256.125 48.566406 C 258.269531 48.535156 260.683594 48.585938 263.390625 48.765625 C 272.609375 49.382812 270.597656 52.800781 265.558594 55.019531 C 269.15625 57.746094 272.042969 61.601562 273.324219 66.789062 C 276.683594 67.882812 294.921875 68.296875 295.632812 79.535156 C 296.550781 94.152344 278.851562 94.941406 273.722656 97.707031 Z M 273.722656 97.707031 C 268.589844 100.472656 265.628906 102.25 265.824219 119.632812 C 266.023438 137.015625 274.511719 190.148438 243.71875 207.132812 C 243.507812 207.25 243.296875 207.359375 243.085938 207.472656 C 242.820312 214.199219 242.53125 223.183594 242.53125 230.441406 C 242.53125 243.875 246.082031 262.960938 245.691406 264.613281 C 244.835938 268.234375 231.675781 266.191406 230.492188 264.613281 C 229.308594 263.03125 225.164062 241.304688 226.984375 232.8125 C 225.257812 226.132812 222.953125 218.65625 221.8125 215.046875 C 206.882812 218.3125 190.710938 218.429688 177.613281 216.363281 C 177.558594 224.480469 171.988281 230.714844 171.542969 233.007812 C 171.015625 235.703125 176.28125 264.257812 176.277344 265.726562 C 176.273438 269.550781 162.59375 267.445312 160.488281 265.726562 C 153.382812 243.726562 151.800781 232.679688 157.59375 226.625 C 151.066406 213.382812 148.386719 200.160156 147.347656 193.203125 C 137.570312 204.402344 138.144531 207.914062 138.902344 222.34375 C 139.691406 237.355469 135.742188 241.109375 135.742188 241.109375 C 135.742188 241.109375 134.164062 242.886719 132.78125 241.109375 C 135.941406 236.761719 136.136719 228.269531 134.757812 220.171875 C 133.375 212.074219 134.558594 202.195312 139.691406 195.480469 C 144.824219 188.765625 147.105469 179.125 147.105469 179.125 C 147.105469 179.125 147.105469 179.128906 147.105469 179.128906 C 148.539062 170.59375 153.160156 162.359375 161.996094 156.371094 C 180.355469 143.929688 210.949219 146.496094 217.070312 147.089844 C 223.1875 147.679688 227.089844 134.476562 226.695312 113.933594 C 226.363281 96.710938 217.464844 99.484375 216.871094 80.917969 C 216.738281 76.734375 217.351562 73.09375 218.484375 69.917969 C 202.957031 67.863281 196.234375 45.242188 210.160156 47.339844 C 221.757812 49.089844 226.191406 55.332031 227.480469 57.703125 C 230.226562 55.5625 233.210938 53.953125 236.0625 52.757812 L 233.5 43.046875 C 233.328125 41.957031 233.871094 40.773438 233.871094 40.773438 C 234.238281 39.5 235.78125 39.011719 236.816406 39.835938 C 236.816406 39.835938 237.730469 40.460938 238.28125 41.234375 L 242.332031 50.628906 C 243.007812 50.347656 245.273438 49.527344 249.472656 49.007812 C 249.472656 48.988281 249.46875 48.96875 249.46875 48.949219 L 249.96875 38.511719 C 250.136719 37.421875 251.011719 36.457031 251.011719 36.457031 C 251.746094 35.351562 253.363281 35.351562 254.101562 36.453125 C 254.101562 36.453125 254.785156 37.320312 255.078125 38.226562 L 256.125 48.566406 C 258.269531 48.535156 260.683594 48.585938 263.390625 48.765625 C 272.609375 49.382812 270.597656 52.800781 265.558594 55.019531 C 269.15625 57.746094 272.042969 61.601562 273.324219 66.789062 C 276.683594 67.882812 294.921875 68.296875 295.632812 79.535156 C 296.550781 94.152344 278.851562 94.941406 273.722656 97.707031 Z M 273.722656 97.707031 " fill-opacity="1" fill-rule="nonzero"/><path fill="#c58149" d="M 220.503906 66.050781 C 210.605469 65.316406 203.425781 50.917969 212.132812 52.230469 C 220.84375 53.542969 224.925781 59.84375 224.925781 59.84375 C 224.925781 59.84375 222.597656 61.167969 220.503906 66.050781 Z M 277.355469 96.367188 C 284.425781 94.253906 296.394531 91.625 295.632812 79.535156 C 295.113281 71.332031 285.257812 68.898438 278.667969 67.753906 C 278.667969 67.753906 271.171875 68.601562 269.707031 79.6875 C 268.253906 90.695312 274.148438 95.027344 277.355469 96.367188 Z M 277.355469 96.367188 " fill-opacity="1" fill-rule="nonzero"/><path fill="#e1d7ce" d="M 246.40625 70.378906 C 241.886719 70.667969 236.976562 73.300781 238.089844 81.199219 C 239.164062 88.835938 245.40625 89.308594 248.972656 88.9375 C 252.542969 88.566406 258.136719 85.710938 256.851562 78.410156 C 255.566406 71.113281 250.285156 70.132812 246.40625 70.378906 Z M 246.40625 70.378906 C 241.886719 70.667969 236.976562 73.300781 238.089844 81.199219 C 239.164062 88.835938 245.40625 89.308594 248.972656 88.9375 C 252.542969 88.566406 258.136719 85.710938 256.851562 78.410156 C 255.566406 71.113281 250.285156 70.132812 246.40625 70.378906 Z M 246.40625 70.378906 " fill-opacity="1" fill-rule="nonzero"/><path fill="#231f20" d="M 249.660156 72.03125 C 251.109375 71.933594 252.808594 72.066406 254.292969 72.886719 C 255.449219 73.917969 256.59375 75.820312 257.039062 78.355469 C 257.621094 81.671875 256.59375 84.28125 255.175781 85.792969 C 254.03125 86.59375 252.734375 87.019531 251.664062 87.132812 C 248.882812 87.4375 244.015625 87.050781 243.175781 80.835938 C 242.3125 74.40625 246.136719 72.265625 249.660156 72.03125 Z M 249.660156 72.03125 C 251.109375 71.933594 252.808594 72.066406 254.292969 72.886719 C 255.449219 73.917969 256.59375 75.820312 257.039062 78.355469 C 257.621094 81.671875 256.59375 84.28125 255.175781 85.792969 C 254.03125 86.59375 252.734375 87.019531 251.664062 87.132812 C 248.882812 87.4375 244.015625 87.050781 243.175781 80.835938 C 242.3125 74.40625 246.136719 72.265625 249.660156 72.03125 Z M 249.660156 72.03125 " fill-opacity="1" fill-rule="nonzero"/><path fill="#a85636" d="M 239.910156 111.59375 L 244.378906 116.128906 C 244.917969 116.679688 244.855469 117.578125 244.246094 118.050781 L 239.449219 121.753906 C 238.90625 122.171875 238.136719 122.09375 237.691406 121.578125 L 234.117188 117.453125 C 233.683594 116.953125 233.703125 116.207031 234.15625 115.726562 L 238.066406 111.609375 C 238.566406 111.082031 239.402344 111.074219 239.910156 111.59375 Z M 252.246094 125.378906 L 246.277344 130.621094 C 245.832031 131.011719 245.746094 131.671875 246.074219 132.164062 L 250.023438 138.058594 C 250.324219 138.507812 250.890625 138.695312 251.402344 138.515625 L 257.632812 136.273438 C 258.148438 136.089844 258.46875 135.570312 258.402344 135.023438 L 257.789062 129.839844 C 257.757812 129.582031 257.644531 129.34375 257.464844 129.15625 L 253.871094 125.445312 C 253.433594 124.992188 252.71875 124.960938 252.246094 125.378906 Z M 224.027344 139.40625 L 229.292969 143.292969 C 230.101562 143.890625 231.222656 143.824219 231.957031 143.136719 L 237.472656 137.960938 C 238.136719 137.339844 238.320312 136.359375 237.929688 135.539062 L 234.152344 127.628906 C 233.699219 126.675781 232.597656 126.210938 231.597656 126.554688 L 226.160156 128.414062 C 225.351562 134.558594 224.027344 139.40625 224.027344 139.40625 Z M 244.847656 145.929688 L 239.304688 151.050781 C 238.675781 151.636719 238.601562 152.605469 239.136719 153.277344 L 244.386719 159.855469 C 244.875 160.46875 245.726562 160.648438 246.421875 160.285156 L 250.789062 158.007812 C 251.1875 157.800781 251.480469 157.4375 251.605469 157.007812 L 252.90625 152.472656 C 253.078125 151.875 252.894531 151.230469 252.433594 150.808594 L 247.0625 145.921875 C 246.433594 145.347656 245.472656 145.351562 244.847656 145.929688 Z M 266.984375 153.519531 L 264.140625 150.851562 C 263.449219 150.203125 262.355469 150.277344 261.753906 151.007812 L 258.785156 154.621094 C 258.316406 155.1875 258.285156 156 258.707031 156.601562 L 262.734375 162.355469 C 263.191406 163.007812 264.046875 163.238281 264.769531 162.902344 L 266.523438 162.085938 C 266.523438 162.085938 266.929688 157.011719 266.984375 153.519531 Z M 225.503906 151.226562 L 218.335938 152.757812 C 217.445312 152.949219 216.777344 153.699219 216.695312 154.609375 L 216.15625 160.445312 C 216.078125 161.304688 216.53125 162.125 217.304688 162.507812 L 224.0625 165.882812 C 224.824219 166.261719 225.742188 166.140625 226.378906 165.578125 L 229.992188 162.375 C 230.632812 161.8125 230.863281 160.917969 230.578125 160.113281 L 227.910156 152.570312 C 227.558594 151.582031 226.53125 151.003906 225.503906 151.226562 Z M 241.023438 169.65625 L 236.890625 171.0625 C 236.105469 171.328125 235.597656 172.09375 235.65625 172.921875 L 235.878906 176.058594 C 235.925781 176.710938 236.3125 177.289062 236.902344 177.574219 L 239.710938 178.941406 C 240.445312 179.300781 241.328125 179.125 241.875 178.515625 L 244.472656 175.601562 C 244.96875 175.042969 245.078125 174.234375 244.742188 173.566406 L 243.246094 170.570312 C 242.835938 169.753906 241.886719 169.363281 241.023438 169.65625 Z M 212.449219 172.28125 L 209.363281 172.28125 C 208.675781 172.28125 208.078125 172.757812 207.925781 173.429688 L 207.535156 175.152344 C 207.351562 175.960938 207.871094 176.761719 208.683594 176.925781 L 211.882812 177.566406 C 212.726562 177.734375 213.535156 177.148438 213.636719 176.292969 L 213.914062 173.929688 C 214.015625 173.054688 213.332031 172.28125 212.449219 172.28125 Z M 195.644531 151.402344 L 191.015625 156.585938 C 190.542969 157.113281 190.582031 157.925781 191.105469 158.402344 L 195.761719 162.683594 C 196.117188 163.011719 196.628906 163.113281 197.085938 162.945312 L 204.511719 160.195312 C 205.019531 160.007812 205.355469 159.523438 205.355469 158.980469 L 205.355469 153.863281 C 205.355469 153.253906 204.929688 152.726562 204.332031 152.597656 L 196.882812 151 C 196.425781 150.902344 195.953125 151.054688 195.644531 151.402344 Z M 169.335938 152.394531 L 173.519531 157.820312 C 174.453125 159.035156 176.070312 159.503906 177.507812 158.976562 L 183.363281 156.839844 C 184.296875 156.5 185.042969 155.78125 185.414062 154.859375 L 188.433594 147.4375 C 176.179688 148.707031 169.335938 152.394531 169.335938 152.394531 Z M 181.964844 167.859375 L 183.105469 170.328125 C 183.261719 170.671875 183.605469 170.890625 183.980469 170.890625 L 186.21875 170.890625 C 186.558594 170.890625 186.875 170.707031 187.050781 170.414062 L 188.054688 168.710938 C 188.277344 168.335938 188.21875 167.859375 187.914062 167.542969 L 186.136719 165.722656 C 185.863281 165.445312 185.445312 165.355469 185.082031 165.503906 L 182.480469 166.558594 C 181.96875 166.765625 181.734375 167.359375 181.964844 167.859375 Z M 177.613281 216.363281 C 177.621094 216.289062 178.027344 208.980469 177.03125 200.925781 C 176.996094 200.648438 177.195312 200.398438 177.46875 200.363281 C 177.746094 200.324219 178 200.523438 178.03125 200.800781 C 179.042969 208.949219 178.617188 216.441406 178.613281 216.515625 C 178.351562 216.488281 178.011719 216.433594 177.613281 216.363281 Z M 252.296875 63.476562 C 251.996094 63.476562 251.695312 63.46875 251.386719 63.449219 C 245.554688 63.105469 242.378906 56.960938 242.097656 54.578125 C 242.066406 54.300781 242.261719 54.046875 242.539062 54.015625 C 242.820312 53.980469 243.066406 54.179688 243.097656 54.457031 C 243.34375 56.535156 246.28125 62.136719 251.445312 62.441406 C 255.109375 62.65625 257.8125 61.441406 258.046875 60.171875 C 258.136719 59.6875 257.980469 57.957031 252.183594 56.117188 C 251.929688 56.039062 251.785156 55.777344 251.847656 55.519531 C 251.910156 55.261719 252.160156 55.09375 252.421875 55.140625 C 260.75 56.550781 265.511719 55.035156 265.558594 55.019531 C 265.835938 55.203125 266.300781 55.570312 266.488281 55.761719 C 266.308594 55.824219 262.347656 57.089844 256.113281 56.613281 C 258.757812 58.003906 259.222656 59.359375 259.039062 60.355469 C 258.695312 62.203125 255.867188 63.476562 252.296875 63.476562 Z M 283.585938 89.058594 C 283.292969 89.140625 282.984375 89.199219 282.660156 89.234375 C 279.007812 89.613281 277.449219 85.84375 277.132812 83.796875 C 277.089844 83.523438 277.273438 83.269531 277.554688 83.222656 C 277.832031 83.179688 278.089844 83.367188 278.132812 83.644531 C 278.164062 83.847656 278.949219 88.605469 282.554688 88.230469 C 283.589844 88.121094 284.390625 87.714844 284.945312 87.019531 C 286.125 85.546875 285.859375 83.226562 285.855469 83.203125 C 285.824219 82.925781 286.015625 82.675781 286.296875 82.640625 C 286.574219 82.605469 286.824219 82.800781 286.859375 83.078125 C 286.871094 83.191406 287.179688 85.835938 285.738281 87.644531 C 285.191406 88.335938 284.46875 88.808594 283.585938 89.058594 Z M 288.359375 74.417969 C 286.367188 73.515625 282.539062 74.628906 286.625 76.585938 C 290.714844 78.542969 291.808594 75.984375 288.359375 74.417969 Z M 256.125 48.589844 C 256.125 48.589844 251.933594 48.597656 249.46875 48.949219 C 249.46875 48.5625 249.507812 48.058594 249.507812 48.058594 C 249.507812 48.058594 253.492188 47.574219 256.050781 47.808594 C 256.105469 48.183594 256.125 48.589844 256.125 48.589844 Z M 239.160156 43.046875 C 239.363281 42.699219 240.15625 41.355469 239.820312 39.429688 C 239.421875 37.179688 236.488281 35.121094 233.464844 36.28125 C 231.027344 37.21875 229.355469 39.429688 230.03125 42.007812 C 230.816406 45.003906 233.878906 44.890625 233.878906 44.890625 L 234.535156 46.972656 C 234.535156 46.972656 236.675781 45.507812 239.917969 45.023438 C 239.707031 44.539062 239.394531 43.691406 239.160156 43.046875 Z M 255.367188 40.21875 C 255.667969 39.949219 256.828125 38.90625 257.085938 36.96875 C 257.386719 34.707031 255.210938 31.855469 251.980469 32.050781 C 249.371094 32.207031 247.113281 33.8125 246.976562 36.472656 C 246.820312 39.566406 249.777344 40.386719 249.777344 40.386719 L 249.777344 42.566406 C 249.777344 42.566406 252.257812 41.816406 255.492188 42.335938 C 255.4375 41.808594 255.394531 40.90625 255.367188 40.21875 Z M 160.488281 265.726562 C 159.898438 263.90625 159.351562 262.167969 158.839844 260.492188 C 158.878906 260.5 173.128906 263.605469 175.332031 259.582031 C 175.890625 262.921875 176.277344 265.328125 176.277344 265.726562 C 176.273438 269.550781 162.59375 267.445312 160.488281 265.726562 Z M 202.136719 265.726562 C 202.082031 265.347656 201.734375 262.957031 201.261719 259.582031 C 200.160156 265.410156 184.84375 260.839844 184.804688 260.828125 C 185.285156 262.398438 185.796875 264.027344 186.347656 265.726562 C 188.453125 267.445312 202.710938 269.550781 202.136719 265.726562 Z M 245.691406 264.613281 C 245.8125 264.097656 245.550781 261.886719 245.132812 258.683594 C 243.296875 262.628906 229.0625 259.582031 229.0625 259.582031 C 229.636719 262.289062 230.171875 264.1875 230.492188 264.613281 C 231.675781 266.191406 244.835938 268.234375 245.691406 264.613281 Z M 257.1875 232.804688 C 256.660156 235.804688 256.285156 238.027344 256.285156 238.34375 C 256.285156 239.394531 269.96875 249.535156 271.285156 242.820312 C 271.507812 241.625 271.910156 240.019531 272.414062 238.164062 C 268.542969 240.953125 257.1875 232.804688 257.1875 232.804688 Z M 134.691406 236.871094 C 134.691406 236.871094 132.257812 240.515625 127.191406 241.4375 C 122.125 242.359375 128.308594 243.414062 131.203125 241.898438 C 128.046875 244.070312 126.53125 245.386719 126.992188 246.175781 C 127.453125 246.96875 131.730469 244.664062 132.78125 242.621094 C 131.007812 246.046875 131.269531 246.769531 131.859375 247.097656 C 132.453125 247.429688 135.855469 243.144531 137.609375 237.386719 C 134.953125 239.199219 134.691406 236.871094 134.691406 236.871094 Z M 134.691406 236.871094 " fill-opacity="1" fill-rule="nonzero"/></svg>