<svg xmlns="http://www.w3.org/2000/svg" xmlns:xlink="http://www.w3.org/1999/xlink" width="559" zoomAndPan="magnify" viewBox="0 0 419.25 297.749993" height="396" preserveAspectRatio="xMidYMid meet" version="1.0"><defs><clipPath id="id1"><path d="M 0 0.140625 L 418.5 0.140625 L 418.5 297.359375 L 0 297.359375 Z M 0 0.140625 " clip-rule="nonzero"/></clipPath><clipPath id="id2"><path d="M 133.113281 29.851562 L 285.839844 29.851562 L 285.839844 216 L 133.113281 216 Z M 133.113281 29.851562 " clip-rule="nonzero"/></clipPath></defs><g clip-path="url(#id1)"><path fill="#545454" d="M 0 0.140625 L 418.5 0.140625 L 418.5 297.359375 L 0 297.359375 Z M 0 0.140625 " fill-opacity="1" fill-rule="nonzero"/><path fill="#ffffff" d="M 0 0.140625 L 418.5 0.140625 L 418.5 297.359375 L 0 297.359375 Z M 0 0.140625 " fill-opacity="1" fill-rule="nonzero"/><path fill="#545454" d="M 0 0.140625 L 418.5 0.140625 L 418.5 297.359375 L 0 297.359375 Z M 0 0.140625 " fill-opacity="1" fill-rule="nonzero"/></g><path fill="#ab8152" d="M 234.347656 139.085938 C 233.445312 141.855469 232.246094 144.550781 230.671875 147.09375 C 228.121094 151.207031 224.519531 153.152344 219.644531 152.929688 C 217.917969 152.855469 216.117188 152.855469 214.390625 152.777344 C 209.066406 152.554688 205.613281 155.398438 203.664062 159.8125 C 201.488281 164.824219 200.4375 170.0625 199.6875 175.375 C 198.035156 186.820312 196.460938 198.269531 194.511719 209.640625 C 192.710938 220.117188 189.558594 230.140625 185.433594 239.941406 C 183.632812 244.207031 181.980469 248.546875 179.804688 252.664062 C 177.554688 256.851562 175.003906 260.816406 171.628906 264.335938 C 169.378906 266.726562 166.753906 267.175781 163.75 266.726562 C 162.550781 266.578125 161.425781 266.203125 160.300781 265.90625 C 158.726562 265.53125 157.75 264.410156 157.148438 262.914062 C 156.625 261.566406 156.25 260.144531 156.023438 258.796875 C 155.347656 255.132812 155.125 251.539062 155.722656 247.800781 C 156.773438 240.992188 157.976562 234.257812 159.625 227.523438 C 161.5 220.117188 164.277344 213.007812 167.578125 206.050781 C 169.527344 201.933594 171.179688 197.671875 173.128906 193.554688 C 175.679688 188.242188 178.757812 183.230469 181.308594 177.917969 C 183.40625 173.652344 185.808594 169.539062 187.160156 164.898438 C 188.285156 161.082031 188.957031 157.117188 189.183594 153.078125 C 189.410156 149.261719 186.933594 145.523438 183.40625 144.023438 C 181.757812 143.351562 180.179688 142.679688 178.53125 142.003906 C 174.40625 140.210938 172.152344 137.140625 172.152344 132.503906 C 172.152344 129.734375 172.003906 126.964844 172.605469 124.273438 C 172.679688 123.75 172.753906 123.300781 172.980469 122.851562 C 173.65625 123 174.328125 123.226562 174.929688 123.375 C 182.207031 125.320312 189.558594 127.042969 196.984375 128.464844 C 202.164062 129.4375 207.265625 130.484375 212.289062 132.128906 C 217.015625 133.625 221.742188 135.046875 226.46875 136.542969 C 229.09375 137.441406 231.796875 138.039062 234.347656 139.085938 Z M 183.933594 194.902344 C 183.933594 194.453125 183.933594 194.003906 183.933594 193.554688 C 183.707031 190.636719 181.457031 189.140625 178.679688 190.039062 C 176.804688 190.636719 175.304688 191.757812 174.253906 193.332031 C 170.429688 199.015625 168.402344 205.300781 168.851562 212.261719 C 168.929688 212.933594 169.152344 213.605469 169.527344 214.207031 C 170.878906 216.152344 173.128906 216.152344 174.554688 214.207031 C 175.15625 213.382812 175.53125 212.484375 175.753906 211.511719 C 176.429688 208.820312 177.78125 206.648438 179.730469 204.628906 C 182.28125 201.933594 183.859375 198.792969 183.933594 194.902344 Z M 173.65625 241.8125 C 173.730469 239.34375 172.753906 237.847656 171.179688 237.324219 C 169.828125 236.875 168.703125 237.472656 167.429688 239.195312 C 167.351562 239.269531 167.277344 239.417969 167.203125 239.492188 C 166.003906 241.214844 165.476562 243.234375 165.027344 245.253906 C 164.800781 246.226562 164.578125 247.199219 164.726562 248.246094 C 165.027344 249.667969 165.628906 250.867188 167.203125 251.316406 C 168.628906 251.691406 169.679688 250.941406 170.429688 249.894531 C 172.304688 247.273438 173.203125 244.355469 173.65625 241.8125 Z M 173.65625 241.8125 " fill-opacity="1" fill-rule="nonzero"/><path fill="#e39625" d="M 187.609375 63.519531 C 188.734375 66.8125 191.058594 68.308594 194.433594 68.382812 C 195.785156 68.382812 197.210938 68.382812 198.5625 68.234375 C 199.613281 68.085938 200.511719 68.308594 201.414062 68.90625 C 203.511719 70.402344 205.464844 72.050781 207.1875 73.996094 C 207.789062 74.667969 208.390625 75.265625 208.988281 75.867188 C 211.464844 78.183594 214.390625 78.257812 217.46875 77.585938 C 219.191406 77.210938 220.84375 76.761719 222.570312 76.3125 C 223.917969 75.941406 225.121094 76.238281 226.246094 77.0625 C 228.796875 78.933594 230.222656 81.253906 230.371094 84.46875 C 230.519531 87.011719 230.746094 89.558594 231.421875 92.101562 C 232.394531 95.691406 234.496094 97.9375 238.246094 98.761719 C 242.75 99.734375 242.375 99.359375 243.273438 103.921875 C 243.5 104.96875 243.574219 106.015625 243.574219 107.066406 C 242.824219 108.636719 242.75 110.429688 242 112.003906 C 234.871094 110.878906 227.820312 109.382812 220.769531 107.886719 C 211.765625 105.941406 202.914062 103.398438 193.984375 101.152344 C 189.035156 99.882812 184.007812 98.761719 178.980469 97.5625 C 178.832031 95.992188 179.507812 94.644531 179.882812 93.148438 C 181.457031 87.011719 182.957031 80.878906 184.757812 74.816406 C 185.808594 71.300781 186.109375 67.558594 187.308594 64.042969 C 187.382812 63.96875 187.457031 63.746094 187.609375 63.519531 Z M 191.359375 89.707031 C 191.433594 90.605469 191.433594 91.425781 191.585938 92.324219 C 192.410156 96.066406 195.710938 96.066406 197.8125 94.570312 C 198.636719 93.972656 199.460938 93.523438 200.511719 93.296875 C 202.164062 92.925781 203.363281 92.027344 204.261719 90.679688 C 205.6875 88.507812 206.289062 86.117188 206.0625 83.570312 C 205.914062 81.851562 205.164062 80.28125 203.4375 79.53125 C 201.261719 78.558594 197.4375 78.410156 195.035156 80.878906 C 192.636719 83.273438 191.359375 86.265625 191.359375 89.707031 Z M 191.359375 89.707031 " fill-opacity="1" fill-rule="nonzero"/><path fill="#dfdee0" d="M 178.980469 97.710938 C 184.007812 98.910156 188.957031 100.03125 193.984375 101.304688 C 202.914062 103.546875 211.765625 106.09375 220.769531 108.039062 C 227.820312 109.535156 234.871094 110.957031 242 112.152344 C 241.773438 114.320312 241.023438 116.34375 240.421875 118.4375 C 238.847656 124.199219 237.347656 129.960938 235.546875 135.644531 C 235.171875 136.84375 234.421875 137.890625 234.347656 139.160156 C 231.796875 138.113281 229.09375 137.515625 226.46875 136.691406 C 221.742188 135.195312 217.015625 133.851562 212.289062 132.277344 C 207.265625 130.632812 202.164062 129.660156 196.984375 128.613281 C 189.558594 127.191406 182.207031 125.394531 174.929688 123.523438 C 174.253906 123.375 173.578125 123.152344 172.980469 123 C 172.753906 121.128906 173.429688 119.410156 173.730469 117.6875 C 175.078125 111.328125 176.804688 105.042969 178.457031 98.761719 C 178.605469 98.3125 178.605469 97.863281 178.980469 97.710938 Z M 229.171875 132.054688 C 229.769531 132.128906 230.222656 131.980469 230.371094 131.382812 C 230.519531 130.78125 230.070312 130.484375 229.621094 130.257812 C 229.246094 130.109375 228.871094 130.035156 228.570312 129.960938 C 226.542969 129.511719 224.519531 129.136719 222.492188 128.6875 C 215.667969 127.042969 208.914062 125.320312 202.085938 123.601562 C 201.636719 123.523438 201.261719 123.375 200.8125 123.300781 C 200.363281 123.226562 199.988281 123.523438 199.835938 123.972656 C 199.6875 124.496094 199.988281 124.796875 200.4375 125.019531 C 200.886719 125.246094 201.414062 125.320312 201.863281 125.46875 C 208.238281 127.117188 214.617188 128.6875 220.992188 130.257812 C 223.695312 130.933594 226.46875 131.457031 229.171875 132.054688 Z M 231.644531 124.046875 C 232.097656 124.125 232.621094 124.046875 232.847656 123.449219 C 232.996094 122.851562 232.621094 122.476562 232.097656 122.328125 C 231.421875 122.101562 230.671875 121.878906 229.921875 121.730469 C 223.394531 120.308594 216.941406 118.960938 210.414062 117.539062 C 209.964844 117.464844 209.589844 117.316406 209.140625 117.316406 C 208.613281 117.238281 208.089844 117.390625 208.015625 118.0625 C 207.9375 118.660156 208.316406 118.960938 208.839844 119.109375 C 209.289062 119.261719 209.664062 119.335938 210.113281 119.410156 C 215.589844 120.53125 220.992188 121.730469 226.46875 122.851562 C 228.195312 123.226562 229.84375 123.675781 231.644531 124.046875 Z M 201.9375 107.738281 C 201.488281 107.8125 201.039062 107.738281 200.886719 108.335938 C 200.738281 108.933594 201.039062 109.308594 201.5625 109.535156 C 201.863281 109.683594 202.164062 109.683594 202.460938 109.757812 C 208.613281 111.179688 214.765625 112.675781 220.992188 114.097656 C 222.34375 114.398438 223.019531 114.171875 223.019531 113.5 C 223.019531 112.453125 222.117188 112.453125 221.441406 112.300781 C 216.339844 111.105469 211.164062 109.832031 206.0625 108.636719 C 204.636719 108.335938 203.289062 108.039062 201.9375 107.738281 Z M 183.558594 110.804688 C 182.65625 110.730469 182.132812 110.878906 182.058594 111.480469 C 181.980469 112.003906 182.355469 112.300781 182.808594 112.453125 C 182.957031 112.527344 183.183594 112.601562 183.332031 112.601562 C 189.410156 113.949219 195.410156 115.820312 201.636719 116.867188 C 203.214844 117.089844 203.8125 117.015625 203.8125 116.34375 C 203.8125 115.144531 202.761719 115.21875 202.085938 115.070312 C 196.761719 114.171875 191.585938 112.75 186.40625 111.402344 C 185.28125 111.105469 184.234375 110.957031 183.558594 110.804688 Z M 180.78125 118.4375 C 180.105469 118.4375 179.507812 118.585938 179.429688 119.261719 C 179.355469 119.859375 179.804688 120.15625 180.332031 120.234375 C 181.832031 120.53125 183.257812 120.832031 184.757812 121.128906 C 187.757812 121.804688 190.757812 122.476562 193.761719 123.152344 C 194.285156 123.300781 194.960938 123.449219 195.1875 122.703125 C 195.484375 121.878906 194.886719 121.578125 194.285156 121.355469 C 193.984375 121.28125 193.683594 121.128906 193.386719 121.128906 C 191.507812 120.683594 189.632812 120.308594 187.683594 119.859375 C 185.433594 119.410156 183.105469 118.886719 180.78125 118.4375 Z M 194.359375 108.1875 C 194.886719 108.1875 195.484375 108.261719 195.636719 107.511719 C 195.785156 106.839844 195.261719 106.539062 194.660156 106.390625 C 192.035156 105.71875 189.335938 105.042969 186.707031 104.371094 C 186.109375 104.222656 185.507812 104.222656 185.359375 104.894531 C 185.132812 105.644531 185.65625 105.941406 186.257812 106.09375 C 188.882812 106.839844 191.660156 107.511719 194.359375 108.1875 Z M 234.570312 116.867188 C 235.320312 116.867188 235.847656 116.792969 235.921875 116.191406 C 235.996094 115.59375 235.699219 115.21875 235.097656 115.070312 C 232.695312 114.472656 230.371094 113.949219 227.96875 113.425781 C 227.445312 113.347656 226.917969 113.347656 226.769531 114.023438 C 226.621094 114.621094 226.917969 114.996094 227.445312 115.144531 C 229.84375 115.894531 232.320312 116.34375 234.570312 116.867188 Z M 234.570312 116.867188 " fill-opacity="1" fill-rule="nonzero"/><g clip-path="url(#id2)"><path fill="#b1c464" d="M 187.609375 63.519531 C 187.757812 62.695312 187.832031 61.949219 188.058594 61.125 C 188.734375 58.058594 190.683594 56.414062 193.910156 56.335938 C 197.585938 56.335938 200.960938 57.308594 204.261719 58.804688 C 206.738281 59.929688 209.214844 60.976562 211.617188 62.097656 C 214.089844 63.296875 216.640625 63.519531 219.34375 63.296875 C 224.292969 62.847656 229.09375 63.371094 233.445312 66.140625 C 236.898438 68.234375 240.722656 69.132812 244.625 69.804688 C 245.300781 69.878906 245.976562 70.03125 246.652344 70.179688 C 249.875 70.925781 252.050781 72.871094 253.328125 75.941406 C 254.453125 78.632812 254.753906 81.476562 254.976562 84.394531 C 255.277344 88.734375 255.054688 93 255.128906 97.339844 C 255.203125 104.296875 255.726562 111.179688 256.179688 118.136719 C 256.476562 123.226562 256.554688 128.238281 255.578125 133.25 C 255.277344 134.671875 254.902344 136.019531 254.226562 137.292969 C 253.253906 139.011719 251.976562 140.433594 249.875 140.359375 C 247.699219 140.285156 245.976562 139.160156 244.851562 137.214844 C 243.949219 135.570312 243.648438 133.773438 243.648438 131.980469 C 243.574219 129.882812 243.648438 127.863281 243.722656 125.769531 C 243.949219 120.308594 244.398438 114.769531 244.023438 109.234375 C 243.949219 108.484375 243.949219 107.738281 243.722656 106.988281 C 243.722656 105.941406 243.648438 104.894531 243.425781 103.847656 C 242.523438 99.207031 242.972656 99.582031 238.398438 98.683594 C 234.648438 97.863281 232.546875 95.617188 231.570312 92.027344 C 230.894531 89.558594 230.597656 87.011719 230.519531 84.394531 C 230.371094 81.175781 228.945312 78.859375 226.394531 76.988281 C 225.195312 76.164062 224.070312 75.867188 222.71875 76.238281 C 220.992188 76.6875 219.34375 77.0625 217.617188 77.511719 C 214.542969 78.257812 211.617188 78.109375 209.140625 75.789062 C 208.539062 75.191406 207.9375 74.519531 207.339844 73.921875 C 205.6875 71.976562 203.664062 70.328125 201.5625 68.832031 C 200.738281 68.234375 199.835938 68.007812 198.710938 68.160156 C 197.359375 68.308594 195.9375 68.308594 194.585938 68.308594 C 191.058594 68.308594 188.660156 66.8125 187.609375 63.519531 Z M 285.0625 48.929688 C 284.460938 48.632812 283.859375 48.257812 283.1875 48.03125 C 279.210938 46.609375 276.285156 43.992188 273.882812 40.699219 C 272.15625 38.382812 271.183594 35.761719 271.257812 32.84375 C 271.257812 32.246094 271.257812 31.722656 271.257812 31.125 C 271.257812 30.523438 271.109375 29.925781 270.355469 29.925781 C 269.683594 29.851562 269.382812 30.375 269.382812 31.046875 C 269.382812 32.019531 269.308594 32.917969 269.308594 33.816406 C 269.382812 38.828125 267.730469 43.019531 263.304688 45.863281 C 261.28125 47.210938 259.105469 48.332031 256.929688 49.453125 C 256.402344 49.679688 255.878906 49.902344 255.429688 50.277344 C 254.300781 51.101562 254.453125 52.148438 255.726562 52.671875 C 256.628906 52.96875 257.527344 53.121094 258.429688 53.34375 C 263.230469 54.617188 266.605469 57.535156 268.257812 62.324219 C 269.457031 65.839844 270.132812 69.429688 270.433594 73.171875 C 270.433594 73.621094 270.433594 74.070312 270.582031 74.445312 C 270.730469 74.894531 271.105469 75.191406 271.558594 75.117188 C 272.007812 75.042969 272.234375 74.816406 272.308594 74.367188 C 272.382812 73.996094 272.382812 73.621094 272.382812 73.246094 C 272.308594 71.527344 272.53125 69.878906 272.757812 68.234375 C 274.035156 60.828125 277.558594 54.839844 284.460938 51.324219 C 284.761719 51.175781 284.988281 51.027344 285.285156 50.800781 C 285.585938 50.578125 285.660156 50.351562 285.660156 49.976562 C 285.738281 49.527344 285.511719 49.15625 285.0625 48.929688 Z M 155.347656 150.757812 C 154.523438 150.460938 153.625 150.308594 152.949219 149.785156 C 148.296875 146.417969 144.769531 142.378906 144.472656 136.320312 C 144.472656 136.09375 144.472656 135.945312 144.472656 135.71875 C 144.394531 135.269531 144.171875 134.898438 143.644531 134.824219 C 142.972656 134.746094 142.746094 135.195312 142.671875 135.71875 C 142.519531 136.46875 142.519531 137.214844 142.59375 137.964844 C 142.972656 141.929688 141.996094 145.523438 139.144531 148.515625 C 138.019531 149.710938 136.894531 150.832031 135.617188 151.882812 C 135.167969 152.253906 134.644531 152.703125 134.191406 153.152344 C 133.21875 154.277344 133.292969 155.097656 134.492188 155.921875 C 134.71875 156.070312 134.945312 156.222656 135.167969 156.296875 C 136.820312 156.96875 137.945312 158.164062 139.070312 159.511719 C 140.644531 161.457031 141.996094 163.554688 142.972656 165.871094 C 143.796875 167.742188 144.472656 169.539062 145.144531 171.484375 C 145.371094 172.15625 145.523438 172.980469 146.421875 172.832031 C 147.472656 172.679688 147.320312 171.78125 147.320312 171.035156 C 147.320312 169.914062 147.246094 168.789062 147.320312 167.667969 C 147.695312 162.132812 149.648438 157.34375 154.523438 154.125 C 154.972656 153.828125 155.425781 153.453125 155.875 153.152344 C 156.25 152.855469 156.476562 152.480469 156.476562 152.105469 C 156.476562 151.28125 155.949219 150.984375 155.347656 150.757812 Z M 233.597656 200.664062 C 232.695312 200.363281 232.019531 199.914062 231.496094 199.167969 C 230.820312 198.121094 230.144531 197.070312 229.84375 195.800781 C 229.546875 194.675781 229.246094 193.480469 228.945312 192.359375 C 228.796875 191.757812 228.71875 191.160156 227.96875 191.3125 C 227.21875 191.386719 227.144531 191.984375 227.144531 192.582031 C 227.070312 193.179688 226.996094 193.703125 226.996094 194.230469 C 226.917969 197.894531 225.570312 200.886719 222.269531 202.90625 C 220.769531 203.804688 220.917969 204.703125 222.644531 205.375 C 224.445312 206.050781 225.570312 207.320312 226.167969 209.042969 C 226.542969 210.015625 226.84375 210.914062 227.144531 211.886719 C 227.292969 212.261719 227.371094 212.632812 227.519531 212.933594 C 227.671875 213.382812 228.046875 213.605469 228.570312 213.53125 C 229.019531 213.457031 229.246094 213.15625 229.320312 212.785156 C 229.394531 212.261719 229.546875 211.8125 229.546875 211.289062 C 229.621094 208.371094 230.894531 205.976562 233.148438 204.105469 C 233.597656 203.730469 233.972656 203.355469 234.421875 202.984375 C 234.722656 202.683594 234.871094 202.382812 234.871094 201.859375 C 234.648438 201.261719 234.273438 200.8125 233.597656 200.664062 Z M 183.933594 193.628906 C 183.707031 190.710938 181.457031 189.214844 178.679688 190.113281 C 176.804688 190.710938 175.304688 191.835938 174.253906 193.40625 C 170.429688 199.09375 168.402344 205.375 168.851562 212.335938 C 168.929688 213.007812 169.152344 213.679688 169.527344 214.28125 C 170.878906 216.226562 173.128906 216.226562 174.554688 214.28125 C 175.15625 213.457031 175.53125 212.558594 175.753906 211.585938 C 176.429688 208.894531 177.78125 206.722656 179.730469 204.703125 C 182.355469 202.011719 183.933594 198.867188 184.007812 194.976562 C 183.933594 194.527344 183.933594 194.078125 183.933594 193.628906 Z M 191.660156 92.324219 C 192.484375 96.066406 195.785156 96.066406 197.886719 94.570312 C 198.710938 93.972656 199.535156 93.523438 200.585938 93.296875 C 202.238281 92.925781 203.4375 92.027344 204.339844 90.679688 C 205.765625 88.507812 206.363281 86.117188 206.140625 83.570312 C 205.988281 81.851562 205.238281 80.28125 203.511719 79.53125 C 201.335938 78.558594 197.511719 78.410156 195.109375 80.878906 C 192.710938 83.421875 191.433594 86.339844 191.433594 89.855469 C 191.433594 90.605469 191.433594 91.425781 191.660156 92.324219 Z M 230.371094 131.382812 C 230.519531 130.78125 230.070312 130.484375 229.621094 130.257812 C 229.246094 130.109375 228.871094 130.035156 228.570312 129.960938 C 226.542969 129.511719 224.519531 129.136719 222.492188 128.6875 C 215.667969 127.042969 208.914062 125.320312 202.085938 123.601562 C 201.636719 123.523438 201.261719 123.375 200.8125 123.300781 C 200.363281 123.226562 199.988281 123.523438 199.835938 123.972656 C 199.6875 124.496094 199.988281 124.796875 200.4375 125.019531 C 200.886719 125.246094 201.414062 125.320312 201.863281 125.46875 C 208.238281 127.117188 214.617188 128.6875 220.992188 130.257812 C 223.695312 130.933594 226.46875 131.457031 229.171875 132.054688 C 229.769531 132.128906 230.296875 131.980469 230.371094 131.382812 Z M 232.769531 123.523438 C 232.921875 122.925781 232.546875 122.550781 232.019531 122.402344 C 231.347656 122.179688 230.597656 121.953125 229.84375 121.804688 C 223.320312 120.382812 216.867188 119.035156 210.339844 117.613281 C 209.890625 117.539062 209.515625 117.390625 209.066406 117.390625 C 208.539062 117.316406 208.015625 117.464844 207.9375 118.136719 C 207.863281 118.738281 208.238281 119.035156 208.765625 119.183594 C 209.214844 119.335938 209.589844 119.410156 210.039062 119.484375 C 215.515625 120.605469 220.917969 121.804688 226.394531 122.925781 C 228.121094 123.300781 229.84375 123.75 231.570312 124.125 C 232.097656 124.125 232.621094 124.125 232.769531 123.523438 Z M 200.886719 108.335938 C 200.738281 108.933594 201.039062 109.308594 201.5625 109.535156 C 201.863281 109.683594 202.164062 109.683594 202.460938 109.757812 C 208.613281 111.179688 214.765625 112.675781 220.992188 114.097656 C 222.34375 114.398438 223.019531 114.171875 223.019531 113.5 C 223.019531 112.453125 222.117188 112.453125 221.441406 112.300781 C 216.339844 111.105469 211.164062 109.832031 206.0625 108.636719 C 204.714844 108.335938 203.363281 108.039062 202.011719 107.738281 C 201.488281 107.8125 201.039062 107.738281 200.886719 108.335938 Z M 182.058594 111.480469 C 181.980469 112.003906 182.355469 112.300781 182.808594 112.453125 C 182.957031 112.527344 183.183594 112.601562 183.332031 112.601562 C 189.410156 113.949219 195.410156 115.820312 201.636719 116.867188 C 203.214844 117.089844 203.8125 117.015625 203.8125 116.34375 C 203.8125 115.144531 202.761719 115.21875 202.085938 115.070312 C 196.761719 114.171875 191.585938 112.75 186.40625 111.402344 C 185.359375 111.105469 184.308594 110.957031 183.632812 110.804688 C 182.65625 110.730469 182.207031 110.878906 182.058594 111.480469 Z M 179.507812 119.261719 C 179.429688 119.859375 179.882812 120.15625 180.40625 120.234375 C 181.90625 120.53125 183.332031 120.832031 184.832031 121.128906 C 187.832031 121.804688 190.835938 122.476562 193.835938 123.152344 C 194.359375 123.300781 195.035156 123.449219 195.261719 122.703125 C 195.5625 121.878906 194.960938 121.578125 194.359375 121.355469 C 194.058594 121.28125 193.761719 121.128906 193.460938 121.128906 C 191.585938 120.683594 189.710938 120.308594 187.757812 119.859375 C 185.433594 119.335938 183.105469 118.886719 180.855469 118.363281 C 180.179688 118.4375 179.582031 118.511719 179.507812 119.261719 Z M 195.636719 107.511719 C 195.785156 106.839844 195.261719 106.539062 194.660156 106.390625 C 192.035156 105.71875 189.335938 105.042969 186.707031 104.371094 C 186.109375 104.222656 185.507812 104.222656 185.359375 104.894531 C 185.132812 105.644531 185.65625 105.941406 186.257812 106.09375 C 188.957031 106.765625 191.660156 107.511719 194.433594 108.1875 C 194.886719 108.261719 195.5625 108.261719 195.636719 107.511719 Z M 235.921875 116.117188 C 235.996094 115.519531 235.699219 115.144531 235.097656 114.996094 C 232.695312 114.398438 230.371094 113.875 227.96875 113.347656 C 227.445312 113.273438 226.917969 113.273438 226.769531 113.949219 C 226.621094 114.546875 226.917969 114.921875 227.445312 115.070312 C 229.84375 115.820312 232.320312 116.265625 234.496094 116.792969 C 235.320312 116.867188 235.847656 116.792969 235.921875 116.117188 Z M 235.921875 116.117188 " fill-opacity="1" fill-rule="nonzero"/></g></svg>