<svg xmlns="http://www.w3.org/2000/svg" xmlns:xlink="http://www.w3.org/1999/xlink" width="559" zoomAndPan="magnify" viewBox="0 0 419.25 297.749993" height="396" preserveAspectRatio="xMidYMid meet" version="1.0"><defs><clipPath id="id1"><path d="M 0 0.140625 L 418.5 0.140625 L 418.5 297.359375 L 0 297.359375 Z M 0 0.140625 " clip-rule="nonzero"/></clipPath></defs><g clip-path="url(#id1)"><path fill="#c4882e" d="M 0 0.140625 L 418.5 0.140625 L 418.5 297.359375 L 0 297.359375 Z M 0 0.140625 " fill-opacity="1" fill-rule="nonzero"/><path fill="#ffffff" d="M 0 0.140625 L 418.5 0.140625 L 418.5 297.359375 L 0 297.359375 Z M 0 0.140625 " fill-opacity="1" fill-rule="nonzero"/><path fill="#c4882e" d="M 0 0.140625 L 418.5 0.140625 L 418.5 297.359375 L 0 297.359375 Z M 0 0.140625 " fill-opacity="1" fill-rule="nonzero"/></g><path fill="#f8a680" d="M 278.453125 143.132812 C 274.054688 144.792969 270.550781 144.8125 268.835938 144.675781 C 270.097656 151.550781 271.816406 159.078125 274.253906 167.453125 C 274.253906 167.453125 259.566406 179.027344 224.808594 181.535156 L 225.558594 197.644531 L 233.535156 205.609375 C 236.910156 209.261719 241.414062 213.664062 244.019531 216.175781 C 244.457031 216.160156 244.765625 216.199219 244.765625 216.199219 C 244.765625 216.199219 244.03125 212.632812 246.757812 212.632812 C 248.796875 212.632812 249.839844 215.554688 250.234375 217.035156 C 250.238281 217.035156 250.238281 217.035156 250.238281 217.035156 C 250.425781 216.988281 250.613281 216.941406 250.804688 216.898438 C 250.890625 216.875 250.980469 216.855469 251.066406 216.835938 C 251.210938 216.800781 251.359375 216.765625 251.507812 216.730469 C 251.582031 216.714844 251.65625 216.695312 251.734375 216.679688 C 251.945312 216.632812 252.160156 216.582031 252.378906 216.535156 C 252.453125 216.519531 252.527344 216.503906 252.605469 216.488281 C 252.773438 216.453125 252.945312 216.417969 253.117188 216.382812 C 253.191406 216.367188 253.265625 216.351562 253.339844 216.335938 C 253.570312 216.292969 253.800781 216.246094 254.035156 216.203125 C 254.09375 216.195312 254.15625 216.183594 254.214844 216.171875 C 254.40625 216.136719 254.597656 216.105469 254.789062 216.074219 C 254.859375 216.0625 254.925781 216.046875 254.996094 216.039062 C 255.238281 216 255.476562 215.960938 255.71875 215.925781 C 255.761719 215.921875 255.804688 215.914062 255.847656 215.910156 C 256.050781 215.878906 256.257812 215.851562 256.460938 215.828125 C 256.527344 215.816406 256.59375 215.808594 256.664062 215.800781 C 256.90625 215.773438 257.144531 215.746094 257.382812 215.726562 C 257.398438 215.722656 257.414062 215.722656 257.429688 215.722656 C 257.65625 215.699219 257.875 215.683594 258.097656 215.667969 C 258.15625 215.664062 258.21875 215.660156 258.28125 215.65625 C 258.5 215.644531 258.714844 215.636719 258.925781 215.628906 C 258.941406 215.628906 258.960938 215.628906 258.976562 215.628906 C 259.203125 215.621094 259.421875 215.621094 259.636719 215.625 C 259.695312 215.625 259.75 215.625 259.804688 215.628906 C 259.988281 215.632812 260.171875 215.640625 260.351562 215.652344 C 260.382812 215.65625 260.414062 215.65625 260.449219 215.65625 C 260.652344 215.671875 260.847656 215.691406 261.039062 215.71875 C 261.085938 215.722656 261.128906 215.730469 261.175781 215.738281 C 261.332031 215.761719 261.488281 215.789062 261.636719 215.816406 C 261.671875 215.824219 261.710938 215.832031 261.746094 215.839844 C 261.917969 215.878906 262.085938 215.925781 262.246094 215.976562 C 262.277344 215.984375 262.3125 216 262.34375 216.007812 C 262.472656 216.054688 262.597656 216.101562 262.71875 216.15625 C 262.75 216.171875 262.785156 216.183594 262.816406 216.203125 C 262.957031 216.269531 263.085938 216.339844 263.203125 216.421875 C 263.226562 216.433594 263.246094 216.453125 263.265625 216.464844 C 263.363281 216.535156 263.457031 216.613281 263.539062 216.691406 C 263.566406 216.714844 263.589844 216.738281 263.613281 216.765625 C 263.707031 216.863281 263.792969 216.96875 263.867188 217.082031 C 263.875 217.09375 263.882812 217.109375 263.890625 217.121094 C 263.953125 217.226562 264.003906 217.335938 264.046875 217.453125 C 264.0625 217.488281 264.074219 217.519531 264.085938 217.554688 C 264.125 217.691406 264.160156 217.832031 264.179688 217.984375 C 264.199219 218.152344 264.199219 218.335938 264.179688 218.527344 C 264.144531 218.914062 264.035156 219.34375 263.859375 219.8125 C 263.773438 220.042969 263.667969 220.285156 263.550781 220.535156 C 263.265625 221.136719 262.886719 221.789062 262.441406 222.46875 C 262.222656 222.804688 261.984375 223.152344 261.730469 223.503906 C 261.550781 223.753906 261.363281 224.011719 261.164062 224.269531 C 260.90625 224.609375 260.632812 224.953125 260.351562 225.304688 C 260.019531 225.707031 259.679688 226.117188 259.320312 226.53125 C 258.179688 227.851562 256.90625 229.199219 255.574219 230.511719 C 255.234375 230.847656 254.890625 231.179688 254.542969 231.507812 C 253.941406 232.085938 253.328125 232.648438 252.71875 233.195312 C 251.695312 234.109375 250.675781 234.980469 249.683594 235.773438 C 248.71875 236.546875 247.789062 237.246094 246.914062 237.855469 C 246.039062 238.460938 245.222656 238.972656 244.496094 239.363281 C 243.28125 240.019531 242.3125 240.335938 241.722656 240.207031 C 241.65625 240.191406 241.582031 240.167969 241.5 240.132812 C 241.476562 240.125 241.449219 240.113281 241.421875 240.101562 C 241.359375 240.074219 241.292969 240.042969 241.222656 240.007812 C 241.191406 239.992188 241.160156 239.976562 241.125 239.960938 C 241.042969 239.917969 240.957031 239.867188 240.863281 239.816406 C 240.839844 239.800781 240.816406 239.789062 240.789062 239.773438 C 240.667969 239.703125 240.539062 239.621094 240.402344 239.535156 C 240.375 239.519531 240.347656 239.5 240.324219 239.484375 C 240.207031 239.410156 240.085938 239.332031 239.960938 239.246094 C 239.917969 239.21875 239.875 239.1875 239.832031 239.160156 C 239.707031 239.074219 239.582031 238.988281 239.449219 238.894531 C 239.410156 238.867188 239.375 238.84375 239.335938 238.816406 C 238.984375 238.566406 238.605469 238.292969 238.199219 237.988281 C 238.167969 237.964844 238.136719 237.941406 238.105469 237.917969 C 237.929688 237.785156 237.75 237.648438 237.566406 237.507812 C 237.523438 237.476562 237.484375 237.445312 237.441406 237.414062 C 237.238281 237.257812 237.027344 237.097656 236.8125 236.929688 C 236.804688 236.921875 236.792969 236.914062 236.785156 236.910156 C 236.308594 236.539062 235.808594 236.140625 235.289062 235.726562 C 235.265625 235.707031 235.242188 235.6875 235.21875 235.667969 C 234.976562 235.476562 234.730469 235.277344 234.480469 235.074219 C 234.460938 235.058594 234.441406 235.046875 234.425781 235.03125 C 234.035156 234.714844 233.632812 234.386719 233.226562 234.054688 C 233.105469 233.953125 232.980469 233.847656 232.855469 233.746094 C 232.570312 233.511719 232.28125 233.273438 231.988281 233.03125 C 231.933594 232.988281 231.886719 232.945312 231.832031 232.902344 C 226.527344 228.496094 220.140625 222.914062 215.214844 218.550781 L 209.1875 222.804688 L 200.789062 213.371094 L 203.960938 226.238281 L 204.148438 227 C 205.167969 232.09375 188.839844 243.515625 182.597656 247.671875 C 182.488281 248.324219 182.320312 248.804688 182.320312 248.804688 C 182.320312 248.804688 185.121094 248.871094 185.046875 251.214844 C 184.996094 252.9375 183.152344 253.617188 181.3125 253.871094 C 181.367188 254.15625 181.421875 254.449219 181.472656 254.746094 C 181.480469 254.789062 181.488281 254.828125 181.492188 254.867188 C 181.542969 255.164062 181.59375 255.464844 181.640625 255.769531 C 181.640625 255.78125 181.644531 255.792969 181.644531 255.800781 C 181.695312 256.128906 181.742188 256.460938 181.785156 256.792969 C 181.785156 256.808594 181.789062 256.828125 181.789062 256.847656 C 181.828125 257.136719 181.859375 257.429688 181.890625 257.722656 C 181.898438 257.800781 181.90625 257.875 181.914062 257.949219 C 181.9375 258.203125 181.957031 258.453125 181.976562 258.707031 C 181.980469 258.777344 181.988281 258.851562 181.992188 258.925781 C 182.011719 259.242188 182.027344 259.5625 182.039062 259.875 C 182.039062 259.878906 182.039062 259.882812 182.039062 259.882812 C 182.046875 260.183594 182.046875 260.480469 182.042969 260.773438 C 182.042969 260.859375 182.039062 260.945312 182.039062 261.03125 C 182.03125 261.246094 182.023438 261.460938 182.007812 261.671875 C 182.003906 261.761719 182 261.851562 181.992188 261.9375 C 181.972656 262.175781 181.945312 262.410156 181.917969 262.636719 C 181.910156 262.683594 181.90625 262.730469 181.902344 262.773438 C 181.863281 263.042969 181.8125 263.296875 181.757812 263.546875 C 181.742188 263.617188 181.722656 263.683594 181.707031 263.75 C 181.660156 263.929688 181.613281 264.105469 181.554688 264.273438 C 181.53125 264.351562 181.503906 264.425781 181.476562 264.5 C 181.417969 264.664062 181.347656 264.820312 181.277344 264.972656 C 181.25 265.027344 181.226562 265.085938 181.199219 265.136719 C 181.097656 265.335938 180.984375 265.519531 180.859375 265.6875 C 180.832031 265.71875 180.804688 265.75 180.777344 265.78125 C 180.671875 265.910156 180.558594 266.035156 180.4375 266.144531 C 180.390625 266.1875 180.339844 266.230469 180.289062 266.269531 C 180.175781 266.363281 180.054688 266.445312 179.925781 266.519531 C 179.871094 266.546875 179.820312 266.582031 179.765625 266.609375 C 179.578125 266.703125 179.382812 266.78125 179.171875 266.835938 C 178.382812 267.03125 177.125 266.535156 175.601562 265.5625 C 175.09375 265.238281 174.554688 264.859375 173.996094 264.4375 C 170.921875 262.121094 167.1875 258.445312 164.078125 254.746094 C 162.945312 253.402344 161.894531 252.058594 160.992188 250.773438 C 160.539062 250.128906 160.121094 249.503906 159.746094 248.898438 C 159.375 248.296875 159.042969 247.71875 158.765625 247.167969 C 158.59375 246.824219 158.4375 246.496094 158.308594 246.179688 C 157.910156 245.230469 157.710938 244.410156 157.761719 243.773438 C 157.761719 243.773438 157.761719 243.769531 157.761719 243.769531 C 157.769531 243.675781 157.789062 243.570312 157.820312 243.457031 C 157.828125 243.421875 157.84375 243.386719 157.855469 243.347656 C 157.878906 243.269531 157.910156 243.1875 157.945312 243.101562 C 157.964844 243.054688 157.984375 243.011719 158.003906 242.96875 C 158.042969 242.878906 158.089844 242.785156 158.140625 242.691406 C 158.164062 242.648438 158.1875 242.605469 158.210938 242.558594 C 158.285156 242.425781 158.371094 242.289062 158.460938 242.144531 C 158.46875 242.136719 158.46875 242.128906 158.476562 242.125 C 158.574219 241.972656 158.683594 241.8125 158.800781 241.648438 C 158.835938 241.597656 158.875 241.546875 158.914062 241.496094 C 159 241.378906 159.089844 241.261719 159.183594 241.136719 C 159.234375 241.078125 159.28125 241.015625 159.332031 240.953125 C 159.429688 240.828125 159.53125 240.703125 159.640625 240.574219 C 159.6875 240.515625 159.734375 240.460938 159.78125 240.402344 C 159.933594 240.222656 160.089844 240.042969 160.253906 239.855469 C 160.261719 239.847656 160.269531 239.835938 160.277344 239.828125 C 160.453125 239.628906 160.636719 239.425781 160.828125 239.222656 C 160.882812 239.160156 160.941406 239.101562 160.996094 239.039062 C 161.136719 238.890625 161.28125 238.738281 161.429688 238.582031 C 161.496094 238.511719 161.5625 238.441406 161.632812 238.371094 C 161.785156 238.214844 161.941406 238.054688 162.101562 237.890625 C 162.160156 237.828125 162.222656 237.769531 162.28125 237.707031 C 162.496094 237.488281 162.71875 237.269531 162.945312 237.046875 C 162.953125 237.039062 162.960938 237.03125 162.96875 237.023438 C 163.207031 236.789062 163.457031 236.546875 163.707031 236.304688 C 163.765625 236.25 163.828125 236.191406 163.886719 236.132812 C 164.082031 235.949219 164.277344 235.761719 164.476562 235.574219 C 164.550781 235.5 164.628906 235.429688 164.703125 235.359375 C 164.902344 235.175781 165.101562 234.988281 165.300781 234.800781 C 165.375 234.734375 165.445312 234.667969 165.519531 234.601562 C 165.789062 234.351562 166.058594 234.101562 166.335938 233.851562 C 166.339844 233.847656 166.339844 233.847656 166.339844 233.847656 C 168.859375 231.558594 171.722656 229.101562 174.628906 226.679688 L 165.527344 226.582031 L 163.710938 202.652344 C 160.609375 201.957031 158.8125 201.421875 158.8125 201.421875 C 158.8125 201.421875 157.472656 193.808594 162.15625 176.839844 C 154.753906 173.992188 146.929688 168.679688 142.160156 158.792969 C 130.964844 135.585938 126.652344 81.535156 161.074219 54.699219 C 192.808594 29.957031 240.828125 42.0625 257.207031 74.40625 C 263.503906 86.851562 264.160156 98.339844 265.167969 113.027344 C 269.578125 111.222656 273.136719 115.039062 273.136719 115.039062 C 273.136719 115.039062 279.53125 109.277344 283.070312 113.78125 C 285.273438 116.582031 283.441406 119.628906 283.441406 119.628906 C 283.441406 119.628906 286.429688 118.53125 287.6875 122.304688 C 288.808594 125.660156 286.667969 128.453125 286.667969 128.453125 C 292.105469 133.035156 284.75 140.753906 278.453125 143.132812 Z M 278.453125 143.132812 " fill-opacity="1" fill-rule="nonzero"/><path fill="#fbe5a5" d="M 182.320312 248.800781 C 182.320312 248.800781 182.488281 248.320312 182.597656 247.667969 C 182.773438 246.613281 182.792969 245.109375 181.691406 244.398438 C 180.226562 243.449219 178.605469 244.550781 177.304688 245.984375 L 166.339844 233.84375 C 166.0625 234.097656 165.789062 234.347656 165.519531 234.59375 C 165.449219 234.664062 165.375 234.730469 165.304688 234.796875 C 165.101562 234.984375 164.902344 235.167969 164.707031 235.351562 C 164.628906 235.425781 164.554688 235.496094 164.476562 235.566406 C 164.277344 235.757812 164.082031 235.945312 163.886719 236.128906 C 163.828125 236.1875 163.765625 236.242188 163.707031 236.300781 C 163.457031 236.542969 163.210938 236.78125 162.96875 237.019531 C 162.960938 237.027344 162.953125 237.035156 162.945312 237.042969 C 162.71875 237.265625 162.5 237.484375 162.285156 237.699219 C 162.222656 237.761719 162.164062 237.824219 162.101562 237.886719 C 161.941406 238.046875 161.785156 238.207031 161.632812 238.367188 C 161.566406 238.4375 161.496094 238.507812 161.429688 238.578125 C 161.28125 238.730469 161.140625 238.882812 161 239.035156 C 160.941406 239.09375 160.882812 239.15625 160.828125 239.214844 C 160.640625 239.421875 160.453125 239.625 160.28125 239.824219 C 160.269531 239.832031 160.261719 239.839844 160.253906 239.851562 C 160.089844 240.039062 159.933594 240.21875 159.785156 240.398438 C 159.734375 240.453125 159.6875 240.511719 159.640625 240.570312 C 159.535156 240.699219 159.429688 240.824219 159.332031 240.949219 C 159.28125 241.007812 159.234375 241.070312 159.1875 241.132812 C 159.089844 241.253906 159 241.375 158.914062 241.492188 C 158.878906 241.542969 158.835938 241.59375 158.800781 241.644531 C 158.683594 241.808594 158.574219 241.964844 158.476562 242.117188 C 158.472656 242.125 158.46875 242.132812 158.464844 242.136719 C 158.371094 242.285156 158.289062 242.421875 158.210938 242.554688 C 158.1875 242.601562 158.164062 242.640625 158.140625 242.6875 C 158.09375 242.78125 158.046875 242.871094 158.003906 242.960938 C 157.984375 243.007812 157.964844 243.050781 157.945312 243.09375 C 157.910156 243.179688 157.882812 243.265625 157.855469 243.34375 C 157.84375 243.378906 157.832031 243.417969 157.820312 243.453125 C 157.792969 243.5625 157.769531 243.667969 157.761719 243.765625 C 157.695312 244.617188 158.070312 245.792969 158.765625 247.164062 C 159.046875 247.710938 159.375 248.292969 159.75 248.894531 C 160.121094 249.5 160.539062 250.125 160.992188 250.769531 C 161.898438 252.054688 162.945312 253.398438 164.078125 254.742188 C 167.1875 258.4375 170.921875 262.113281 173.996094 264.433594 C 176.234375 266.121094 178.121094 267.089844 179.171875 266.828125 C 179.386719 266.777344 179.578125 266.695312 179.765625 266.605469 C 179.820312 266.578125 179.875 266.542969 179.925781 266.511719 C 180.054688 266.4375 180.175781 266.355469 180.289062 266.265625 C 180.339844 266.222656 180.390625 266.183594 180.441406 266.140625 C 180.5625 266.027344 180.671875 265.90625 180.777344 265.777344 C 180.804688 265.742188 180.832031 265.714844 180.859375 265.679688 C 180.984375 265.511719 181.097656 265.328125 181.199219 265.132812 C 181.226562 265.082031 181.25 265.023438 181.277344 264.96875 C 181.351562 264.816406 181.417969 264.660156 181.480469 264.492188 C 181.503906 264.417969 181.53125 264.34375 181.558594 264.269531 C 181.613281 264.101562 181.660156 263.925781 181.707031 263.746094 C 181.722656 263.675781 181.742188 263.613281 181.757812 263.542969 C 181.816406 263.292969 181.863281 263.035156 181.902344 262.769531 C 181.90625 262.726562 181.910156 262.675781 181.917969 262.632812 C 181.949219 262.402344 181.972656 262.171875 181.992188 261.933594 C 182 261.84375 182.003906 261.753906 182.011719 261.667969 C 182.023438 261.457031 182.03125 261.242188 182.039062 261.023438 C 182.039062 260.9375 182.042969 260.855469 182.042969 260.769531 C 182.046875 260.476562 182.046875 260.179688 182.039062 259.878906 C 182.039062 259.875 182.039062 259.871094 182.039062 259.871094 C 182.03125 259.554688 182.011719 259.238281 181.992188 258.917969 C 181.988281 258.847656 181.980469 258.773438 181.976562 258.699219 C 181.957031 258.449219 181.9375 258.199219 181.914062 257.945312 C 181.90625 257.871094 181.898438 257.792969 181.890625 257.71875 C 181.859375 257.425781 181.828125 257.132812 181.792969 256.839844 C 181.789062 256.824219 181.785156 256.804688 181.785156 256.789062 C 181.742188 256.453125 181.695312 256.125 181.644531 255.796875 C 181.644531 255.785156 181.644531 255.777344 181.640625 255.765625 C 181.59375 255.460938 181.546875 255.15625 181.496094 254.863281 C 181.488281 254.820312 181.480469 254.78125 181.472656 254.742188 C 181.421875 254.445312 181.367188 254.152344 181.3125 253.867188 C 183.152344 253.613281 184.996094 252.929688 185.050781 251.210938 C 185.121094 248.867188 182.320312 248.800781 182.320312 248.800781 Z M 165.53125 247.683594 C 163.597656 247.683594 162.03125 246.117188 162.03125 244.1875 C 162.03125 242.257812 163.597656 240.691406 165.53125 240.691406 C 167.460938 240.691406 169.027344 242.257812 169.027344 244.1875 C 169.027344 246.117188 167.460938 247.683594 165.53125 247.683594 Z M 264.179688 217.980469 C 264.164062 217.828125 264.128906 217.6875 264.085938 217.554688 C 264.074219 217.519531 264.0625 217.484375 264.046875 217.449219 C 264.003906 217.335938 263.953125 217.222656 263.890625 217.121094 C 263.882812 217.105469 263.875 217.09375 263.867188 217.078125 C 263.792969 216.964844 263.710938 216.863281 263.613281 216.761719 C 263.589844 216.738281 263.566406 216.714844 263.539062 216.691406 C 263.457031 216.609375 263.363281 216.535156 263.265625 216.464844 C 263.246094 216.449219 263.226562 216.433594 263.203125 216.417969 C 263.085938 216.339844 262.957031 216.265625 262.816406 216.199219 C 262.785156 216.183594 262.75 216.167969 262.71875 216.152344 C 262.597656 216.101562 262.476562 216.050781 262.34375 216.007812 C 262.3125 215.996094 262.28125 215.984375 262.246094 215.972656 C 262.085938 215.921875 261.917969 215.878906 261.746094 215.839844 C 261.710938 215.832031 261.671875 215.824219 261.636719 215.816406 C 261.488281 215.785156 261.332031 215.757812 261.175781 215.734375 C 261.128906 215.730469 261.085938 215.722656 261.039062 215.714844 C 260.847656 215.691406 260.652344 215.671875 260.449219 215.65625 C 260.417969 215.652344 260.382812 215.652344 260.351562 215.648438 C 260.171875 215.636719 259.988281 215.628906 259.804688 215.625 C 259.75 215.625 259.695312 215.625 259.636719 215.621094 C 259.421875 215.621094 259.203125 215.621094 258.976562 215.625 C 258.960938 215.625 258.941406 215.625 258.925781 215.628906 C 258.714844 215.632812 258.5 215.644531 258.28125 215.65625 C 258.21875 215.660156 258.160156 215.664062 258.097656 215.667969 C 257.878906 215.679688 257.65625 215.699219 257.433594 215.71875 C 257.414062 215.71875 257.398438 215.722656 257.382812 215.722656 C 257.144531 215.746094 256.90625 215.773438 256.664062 215.800781 C 256.597656 215.808594 256.527344 215.816406 256.460938 215.824219 C 256.257812 215.851562 256.050781 215.875 255.847656 215.90625 C 255.804688 215.914062 255.761719 215.917969 255.71875 215.925781 C 255.480469 215.957031 255.238281 215.996094 254.996094 216.035156 C 254.929688 216.046875 254.859375 216.058594 254.789062 216.070312 C 254.597656 216.101562 254.40625 216.136719 254.214844 216.171875 C 254.15625 216.179688 254.09375 216.191406 254.035156 216.203125 C 253.800781 216.246094 253.570312 216.289062 253.339844 216.335938 C 253.265625 216.351562 253.191406 216.367188 253.117188 216.378906 C 252.945312 216.414062 252.773438 216.449219 252.605469 216.488281 C 252.527344 216.503906 252.453125 216.519531 252.378906 216.535156 C 252.160156 216.582031 251.945312 216.628906 251.734375 216.675781 C 251.660156 216.695312 251.582031 216.710938 251.507812 216.730469 C 251.359375 216.765625 251.210938 216.796875 251.066406 216.832031 C 250.980469 216.851562 250.890625 216.875 250.804688 216.894531 C 250.613281 216.941406 250.425781 216.988281 250.242188 217.035156 C 250.238281 217.035156 250.238281 217.035156 250.238281 217.035156 C 249.839844 215.554688 248.796875 212.632812 246.757812 212.632812 C 244.03125 212.632812 244.765625 216.195312 244.765625 216.195312 C 244.765625 216.195312 244.457031 216.160156 244.019531 216.171875 C 242.871094 216.210938 240.804688 216.625 240.882812 219.132812 C 240.914062 220.144531 241.800781 220.859375 243.039062 221.367188 L 231.835938 232.894531 C 232.734375 233.644531 233.601562 234.355469 234.425781 235.023438 C 234.445312 235.039062 234.464844 235.054688 234.480469 235.070312 C 234.730469 235.269531 234.976562 235.46875 235.21875 235.660156 C 235.242188 235.679688 235.265625 235.699219 235.292969 235.71875 C 235.8125 236.136719 236.3125 236.53125 236.789062 236.902344 C 236.796875 236.90625 236.804688 236.914062 236.8125 236.921875 C 237.027344 237.089844 237.238281 237.25 237.445312 237.410156 C 237.484375 237.441406 237.527344 237.46875 237.566406 237.5 C 237.75 237.640625 237.929688 237.777344 238.105469 237.910156 C 238.140625 237.933594 238.171875 237.957031 238.203125 237.980469 C 238.605469 238.285156 238.984375 238.558594 239.335938 238.808594 C 239.375 238.835938 239.414062 238.863281 239.453125 238.890625 C 239.582031 238.980469 239.710938 239.066406 239.832031 239.152344 C 239.875 239.179688 239.917969 239.210938 239.960938 239.238281 C 240.089844 239.324219 240.207031 239.402344 240.324219 239.476562 C 240.351562 239.492188 240.378906 239.511719 240.402344 239.527344 C 240.539062 239.617188 240.667969 239.695312 240.792969 239.765625 C 240.816406 239.78125 240.839844 239.792969 240.867188 239.808594 C 240.957031 239.859375 241.046875 239.910156 241.128906 239.953125 C 241.160156 239.96875 241.191406 239.984375 241.226562 240.003906 C 241.296875 240.039062 241.363281 240.066406 241.425781 240.09375 C 241.449219 240.105469 241.480469 240.117188 241.503906 240.128906 C 241.585938 240.160156 241.660156 240.183594 241.722656 240.199219 C 242.667969 240.410156 244.582031 239.464844 246.914062 237.847656 C 247.789062 237.238281 248.722656 236.539062 249.683594 235.765625 C 250.675781 234.972656 251.699219 234.101562 252.71875 233.1875 C 253.332031 232.640625 253.941406 232.074219 254.546875 231.5 C 254.890625 231.171875 255.234375 230.839844 255.578125 230.503906 C 256.90625 229.191406 258.179688 227.84375 259.324219 226.523438 C 259.679688 226.109375 260.023438 225.699219 260.351562 225.296875 C 260.636719 224.945312 260.90625 224.601562 261.167969 224.261719 C 261.363281 224.003906 261.550781 223.746094 261.734375 223.496094 C 261.988281 223.144531 262.222656 222.796875 262.445312 222.460938 C 262.886719 221.78125 263.269531 221.128906 263.550781 220.53125 C 263.671875 220.277344 263.773438 220.035156 263.863281 219.804688 C 264.035156 219.335938 264.148438 218.90625 264.183594 218.519531 C 264.199219 218.332031 264.199219 218.148438 264.179688 217.980469 Z M 243.46875 235.242188 C 241.539062 235.242188 239.972656 233.675781 239.972656 231.746094 C 239.972656 229.816406 241.539062 228.253906 243.46875 228.253906 C 245.402344 228.253906 246.96875 229.816406 246.96875 231.746094 C 246.96875 233.675781 245.402344 235.242188 243.46875 235.242188 Z M 243.46875 235.242188 " fill-opacity="1" fill-rule="nonzero"/><path fill="#9ec2c1" d="M 195.335938 205.609375 C 215.066406 204.773438 225.558594 197.644531 225.558594 197.644531 L 233.535156 205.609375 L 215.214844 218.546875 L 209.1875 222.800781 L 200.792969 213.367188 L 203.960938 226.234375 L 204.152344 226.996094 L 174.628906 226.675781 L 165.53125 226.574219 L 163.710938 202.648438 C 170.101562 204.078125 182.046875 206.175781 195.335938 205.609375 Z M 195.335938 205.609375 " fill-opacity="1" fill-rule="nonzero"/><path fill="#342d2a" d="M 231.988281 125.175781 C 233.109375 123.949219 233.847656 122.546875 233.65625 121.375 C 233.554688 120.804688 233.269531 120.367188 232.71875 119.96875 C 232.171875 119.578125 231.421875 119.296875 230.632812 119.085938 C 229.03125 118.65625 227.273438 118.476562 225.460938 118.261719 C 227.164062 117.5625 228.996094 117.246094 230.914062 117.359375 C 231.871094 117.4375 232.871094 117.636719 233.839844 118.183594 C 234.320312 118.457031 234.78125 118.84375 235.148438 119.335938 C 235.257812 119.480469 235.351562 119.640625 235.4375 119.800781 C 236.109375 119.421875 236.804688 119.085938 237.515625 118.796875 C 239.207031 118.132812 241.007812 117.703125 242.90625 117.613281 C 243.882812 117.601562 244.785156 117.609375 245.871094 117.847656 C 246.933594 118.082031 247.929688 118.578125 248.75 119.21875 C 250.382812 120.53125 251.355469 122.382812 251.441406 124.28125 C 250.011719 123.070312 248.632812 122.167969 247.28125 121.699219 C 246.609375 121.460938 245.953125 121.332031 245.300781 121.292969 C 245.132812 121.28125 244.984375 121.28125 244.796875 121.277344 L 244.230469 121.285156 C 243.855469 121.285156 243.460938 121.304688 243.074219 121.320312 L 238.175781 121.65625 C 237.429688 121.703125 236.675781 121.738281 235.902344 121.757812 C 235.890625 122.671875 235.601562 123.546875 235.179688 124.253906 C 234.644531 125.164062 233.941406 125.878906 233.183594 126.457031 C 231.667969 127.613281 229.972656 128.394531 228.167969 128.757812 C 229.546875 127.5625 230.890625 126.425781 231.988281 125.175781 Z M 249.453125 111.011719 C 250.089844 109.785156 247.609375 107.246094 243.917969 105.339844 C 240.222656 103.433594 236.714844 102.886719 236.082031 104.113281 C 235.449219 105.339844 237.925781 107.878906 241.621094 109.785156 C 245.3125 111.6875 248.820312 112.238281 249.453125 111.011719 Z M 205.101562 141.691406 C 205.246094 142.789062 205.417969 143.800781 205.40625 144.980469 C 205.378906 146.117188 205.1875 147.222656 204.863281 148.28125 C 204.523438 149.335938 204.0625 150.359375 203.382812 151.238281 C 203.058594 151.6875 202.640625 152.074219 202.207031 152.40625 C 201.761719 152.695312 201.269531 152.886719 200.765625 152.945312 C 200.726562 153.074219 200.703125 153.207031 200.652344 153.335938 C 200.152344 152.328125 199.695312 151.425781 199.207031 150.613281 C 198.714844 149.804688 198.183594 149.117188 197.570312 148.589844 C 196.960938 148.0625 196.261719 147.648438 195.378906 147.410156 L 195.050781 147.292969 C 194.9375 147.261719 194.820312 147.253906 194.703125 147.222656 C 194.46875 147.175781 194.226562 147.121094 193.980469 147.058594 C 193.480469 146.957031 192.964844 146.925781 192.394531 146.765625 C 192.851562 146.441406 193.351562 146.179688 193.882812 145.96875 C 194.15625 145.890625 194.433594 145.820312 194.71875 145.757812 C 195 145.679688 195.292969 145.664062 195.59375 145.671875 C 196.378906 145.625 197.214844 145.820312 197.964844 146.195312 C 197.847656 145.726562 197.722656 145.277344 197.5625 144.867188 C 197.21875 143.894531 196.695312 143.203125 196.007812 142.71875 C 195.308594 142.230469 194.359375 141.929688 193.304688 141.742188 C 192.25 141.550781 191.113281 141.453125 189.875 141.316406 C 190.882812 140.558594 192.078125 140.144531 193.347656 139.996094 C 194.152344 139.914062 195.03125 139.960938 195.878906 140.222656 C 195.867188 139.378906 195.828125 138.597656 195.644531 137.910156 C 195.371094 136.90625 194.882812 136.191406 194.058594 135.652344 C 193.257812 135.113281 192.222656 134.71875 191.121094 134.386719 C 190.585938 134.285156 190.039062 134.222656 189.484375 134.222656 C 187.550781 134.160156 185.59375 134.65625 183.753906 135.457031 C 181.921875 136.285156 180.214844 137.445312 178.648438 138.808594 C 177.050781 140.144531 175.71875 141.777344 174.34375 143.410156 C 174.34375 143.410156 159.652344 148.023438 153.632812 156.269531 C 149.175781 162.378906 151.089844 171.640625 160.351562 171.785156 C 161.410156 171.800781 162.554688 171.695312 163.75 171.496094 C 163.644531 171.828125 163.535156 172.148438 163.429688 172.484375 C 162.960938 174 162.542969 175.445312 162.160156 176.832031 C 154.753906 173.984375 146.933594 168.675781 142.160156 158.785156 C 130.964844 135.585938 126.652344 81.535156 161.074219 54.699219 C 192.808594 29.957031 240.828125 42.0625 257.207031 74.40625 C 263.503906 86.851562 264.160156 98.339844 265.167969 113.027344 C 265.117188 113.046875 265.070312 113.058594 265.019531 113.082031 C 260.542969 115.039062 259.5625 121.605469 259.5625 121.605469 C 259.5625 121.605469 258.671875 122.128906 257.164062 122.96875 C 258.546875 117.554688 259.074219 111.804688 258.761719 106.046875 L 246.347656 82.882812 C 238.910156 90.886719 225.746094 96.601562 221.167969 94.886719 C 216.589844 93.171875 219.738281 85.453125 219.738281 85.453125 C 219.738281 85.453125 208.578125 99.171875 202 97.746094 C 195.417969 96.316406 199.710938 87.742188 199.710938 87.742188 C 199.710938 87.742188 194.847656 96.601562 187.980469 101.460938 C 182.390625 105.414062 176.695312 108.054688 174.769531 108.902344 C 173.261719 106.492188 165.277344 94.546875 156.597656 96.515625 C 156.472656 96.546875 156.351562 96.582031 156.226562 96.617188 C 148.058594 98.804688 144.179688 110.832031 148.9375 118.890625 C 153.355469 126.382812 166.71875 132.429688 168.941406 133.398438 C 170.976562 136.070312 173.292969 138.539062 175.828125 140.785156 C 176.433594 139.824219 177.109375 138.894531 177.875 138.035156 C 179.328125 136.421875 181.015625 134.960938 182.984375 133.898438 C 184.9375 132.8125 187.179688 132.171875 189.492188 132.113281 C 190.652344 132.0625 191.820312 132.273438 192.957031 132.597656 C 193.917969 132.90625 194.835938 133.375 195.675781 133.988281 C 196.703125 133.832031 197.746094 133.859375 198.734375 134.039062 C 199.882812 134.261719 201.109375 134.675781 202.101562 135.472656 C 203.113281 136.253906 203.792969 137.347656 204.246094 138.421875 C 204.707031 139.503906 204.941406 140.613281 205.101562 141.691406 Z M 203.953125 145.027344 C 203.855469 144.089844 203.625 143.011719 203.402344 142.023438 C 202.925781 140.046875 202.238281 138.125 200.820312 137.144531 C 199.84375 136.4375 198.460938 136.082031 197.125 136.085938 C 197.195312 136.257812 197.25 136.433594 197.273438 136.621094 L 197.386719 137.179688 C 197.394531 137.367188 197.390625 137.550781 197.390625 137.734375 C 197.359375 138.769531 197.046875 139.6875 196.574219 140.492188 C 196.8125 140.605469 197.046875 140.730469 197.273438 140.886719 C 198.515625 141.71875 199.234375 143.210938 199.285156 144.523438 C 199.339844 145.347656 199.21875 146.128906 198.980469 146.867188 C 198.996094 146.878906 199.015625 146.890625 199.03125 146.90625 C 199.992188 147.738281 200.582031 148.867188 200.835938 149.988281 C 201.046875 150.972656 201.050781 151.976562 200.773438 152.925781 C 201.761719 152.589844 202.414062 151.773438 202.867188 150.90625 C 203.335938 150.007812 203.640625 149.023438 203.804688 148.023438 C 203.980469 147.023438 204.042969 146.007812 203.953125 145.027344 Z M 209.527344 98.546875 C 205.410156 99.117188 202.226562 100.691406 202.417969 102.058594 C 202.609375 103.425781 206.101562 104.070312 210.21875 103.496094 C 214.332031 102.925781 217.515625 101.351562 217.324219 99.984375 C 217.132812 98.617188 213.644531 97.972656 209.527344 98.546875 Z M 165.53125 240.691406 C 163.597656 240.691406 162.03125 242.257812 162.03125 244.1875 C 162.03125 246.117188 163.597656 247.683594 165.53125 247.683594 C 167.460938 247.683594 169.027344 246.117188 169.027344 244.1875 C 169.027344 242.257812 167.460938 240.691406 165.53125 240.691406 Z M 211.449219 116.570312 C 212.972656 117.734375 214.351562 119.265625 215.621094 121.117188 C 215.746094 118.839844 214.929688 116.53125 213.472656 114.609375 C 212.730469 113.660156 211.824219 112.792969 210.773438 112.132812 C 209.710938 111.445312 208.648438 111.007812 207.546875 110.609375 C 205.355469 109.882812 203.121094 109.542969 200.894531 109.511719 C 198.671875 109.492188 196.445312 109.710938 194.273438 110.464844 C 196.394531 111.308594 198.453125 111.898438 200.480469 112.457031 C 202.503906 113.023438 204.492188 113.535156 206.386719 114.125 C 207.304688 114.441406 208.269531 114.75 209.074219 115.125 C 209.898438 115.507812 210.691406 115.992188 211.449219 116.570312 Z M 275.136719 137.765625 C 274.585938 137.027344 274.292969 136.179688 274.347656 135.375 C 274.386719 134.570312 274.773438 133.804688 275.382812 133.117188 C 275.984375 132.449219 276.851562 131.792969 277.699219 131.253906 C 278.570312 130.714844 279.5 130.253906 280.480469 129.878906 C 282.453125 129.15625 284.59375 128.738281 286.839844 128.621094 C 284.695312 127.875 282.316406 127.8125 280.023438 128.28125 C 279.085938 128.476562 278.167969 128.773438 277.285156 129.175781 C 277.570312 128.019531 277.671875 126.832031 277.566406 125.664062 C 277.460938 124.664062 277.316406 123.710938 277.109375 122.761719 C 277.199219 122.726562 277.289062 122.691406 277.378906 122.652344 C 277.738281 122.523438 278.058594 122.363281 278.375 122.214844 C 279.015625 121.929688 279.585938 121.605469 280.160156 121.328125 C 280.734375 121.039062 281.289062 120.75 281.882812 120.472656 C 282.484375 120.195312 283.097656 119.90625 283.902344 119.625 C 283.285156 118.992188 282.398438 118.777344 281.5625 118.757812 C 280.71875 118.746094 279.886719 118.972656 279.152344 119.339844 C 278.40625 119.699219 277.789062 120.246094 277.269531 120.855469 C 277.09375 121.074219 276.945312 121.3125 276.800781 121.554688 C 276.484375 120.375 276.066406 119.214844 275.519531 118.117188 C 274.90625 116.96875 274.199219 115.804688 273.136719 115.039062 C 273.816406 116.121094 274.195312 117.3125 274.5 118.503906 C 274.816406 119.695312 275.007812 120.910156 275.167969 122.128906 C 275.3125 123.335938 275.414062 124.601562 275.460938 125.78125 C 275.492188 126.929688 275.332031 128.066406 275 129.128906 C 274.652344 130.179688 274.121094 131.183594 273.394531 131.882812 C 273.035156 132.238281 272.628906 132.496094 272.226562 132.632812 C 271.820312 132.757812 271.421875 132.75 271 132.59375 C 270.152344 132.265625 269.382812 131.300781 268.824219 130.25 C 268.238281 129.183594 267.828125 127.988281 267.398438 126.777344 C 267.339844 128.066406 267.464844 129.359375 267.808594 130.65625 C 268.011719 131.292969 268.242188 131.9375 268.617188 132.550781 C 268.992188 133.160156 269.511719 133.738281 270.222656 134.152344 C 270.8125 134.496094 271.550781 134.652344 272.257812 134.59375 C 272.21875 134.835938 272.195312 135.085938 272.199219 135.335938 C 272.199219 136.761719 272.859375 138.085938 273.804688 138.972656 C 274.277344 139.425781 274.8125 139.789062 275.382812 140.0625 C 275.960938 140.324219 276.570312 140.492188 277.183594 140.558594 C 278.414062 140.675781 279.65625 140.355469 280.554688 139.652344 C 278.320312 140.148438 276.257812 139.234375 275.136719 137.765625 Z M 267.679688 144.53125 C 267.679688 144.53125 266.339844 145.519531 263.753906 147.078125 C 260.800781 148.859375 256.21875 151.382812 250.152344 154.019531 C 249.394531 154.347656 248.613281 154.679688 247.808594 155.011719 C 245.796875 155.84375 243.726562 156.597656 241.667969 157.28125 C 241.253906 157.417969 240.84375 157.550781 240.433594 157.679688 C 239.609375 157.941406 238.792969 158.195312 237.980469 158.433594 C 236.765625 158.792969 235.570312 159.125 234.40625 159.433594 C 233.628906 159.640625 232.867188 159.835938 232.121094 160.019531 C 231.378906 160.203125 230.65625 160.378906 229.953125 160.539062 C 227.625 161.082031 225.558594 161.507812 223.890625 161.824219 L 224.808594 181.535156 C 259.566406 179.027344 274.253906 167.453125 274.253906 167.453125 C 271.816406 159.078125 270.097656 151.550781 268.832031 144.675781 C 268.09375 144.617188 267.679688 144.53125 267.679688 144.53125 Z M 231.996094 136.980469 C 231.996094 136.980469 227.519531 137.261719 221.363281 133.90625 C 215.203125 130.550781 210.726562 125.800781 210.726562 125.800781 C 210.726562 125.800781 209.507812 127.28125 208.496094 129.457031 C 210.925781 130.683594 214.144531 132.753906 216.324219 135.863281 C 218.039062 138.308594 218.613281 141.8125 218.792969 144.355469 C 226.050781 143.925781 231.996094 136.980469 231.996094 136.980469 Z M 218.332031 144.378906 C 218.484375 144.375 218.640625 144.375 218.792969 144.367188 C 218.792969 144.363281 218.792969 144.359375 218.792969 144.355469 C 218.640625 144.363281 218.484375 144.375 218.332031 144.378906 Z M 243.46875 228.253906 C 241.539062 228.253906 239.972656 229.816406 239.972656 231.746094 C 239.972656 233.675781 241.539062 235.242188 243.46875 235.242188 C 245.402344 235.242188 246.96875 233.679688 246.96875 231.746094 C 246.96875 229.816406 245.402344 228.253906 243.46875 228.253906 Z M 243.46875 228.253906 " fill-opacity="1" fill-rule="nonzero"/><path fill="#ea6648" d="M 267.679688 144.53125 C 267.679688 144.53125 266.339844 145.519531 263.753906 147.078125 C 260.800781 148.859375 256.21875 151.382812 250.152344 154.019531 C 249.394531 154.347656 248.613281 154.679688 247.808594 155.011719 C 245.796875 155.84375 243.726562 156.597656 241.667969 157.28125 C 241.253906 157.417969 240.84375 157.550781 240.433594 157.679688 C 239.609375 157.941406 238.792969 158.195312 237.980469 158.433594 C 236.765625 158.792969 235.570312 159.125 234.40625 159.433594 C 233.628906 159.640625 232.867188 159.835938 232.121094 160.019531 C 231.378906 160.203125 230.65625 160.378906 229.953125 160.539062 C 227.625 161.082031 225.558594 161.507812 223.890625 161.824219 L 224.808594 181.535156 L 225.558594 197.644531 C 225.558594 197.644531 215.066406 204.773438 195.335938 205.609375 C 182.046875 206.175781 170.101562 204.078125 163.710938 202.648438 C 160.613281 201.953125 158.8125 201.417969 158.8125 201.417969 C 158.8125 201.417969 157.472656 193.804688 162.160156 176.835938 C 162.542969 175.445312 162.960938 174 163.429688 172.484375 C 163.535156 172.148438 163.644531 171.828125 163.75 171.496094 C 162.554688 171.695312 161.410156 171.800781 160.351562 171.785156 C 151.089844 171.640625 149.175781 162.378906 153.636719 156.269531 C 159.652344 148.023438 174.34375 143.410156 174.34375 143.410156 L 184.417969 163.398438 C 184.417969 163.398438 199.234375 163.804688 200.605469 153.628906 C 206.15625 154.96875 211.898438 155.507812 217.597656 155.105469 C 224.644531 154.605469 231.621094 152.679688 238.046875 149.117188 C 248.03125 143.582031 254.359375 133.960938 257.164062 122.96875 C 258.675781 122.132812 259.5625 121.609375 259.5625 121.609375 Z M 207.191406 135.390625 C 207.195312 135.441406 207.199219 135.492188 207.203125 135.542969 C 207.21875 135.75 207.238281 135.953125 207.269531 136.15625 C 207.277344 136.191406 207.28125 136.230469 207.289062 136.265625 C 207.320312 136.449219 207.355469 136.636719 207.402344 136.820312 C 207.410156 136.859375 207.417969 136.898438 207.429688 136.9375 C 207.480469 137.144531 207.542969 137.351562 207.613281 137.554688 C 207.625 137.601562 207.644531 137.644531 207.660156 137.683594 C 207.730469 137.882812 207.808594 138.082031 207.898438 138.277344 C 207.90625 138.292969 207.910156 138.308594 207.917969 138.324219 C 208.015625 138.53125 208.125 138.738281 208.238281 138.941406 C 208.265625 138.984375 208.289062 139.027344 208.316406 139.070312 C 208.4375 139.277344 208.570312 139.480469 208.714844 139.679688 C 208.726562 139.699219 208.742188 139.71875 208.757812 139.734375 C 208.894531 139.921875 209.042969 140.105469 209.199219 140.289062 C 209.234375 140.328125 209.265625 140.371094 209.304688 140.410156 C 209.476562 140.601562 209.65625 140.792969 209.855469 140.980469 C 209.890625 141.015625 209.929688 141.050781 209.96875 141.085938 C 210.152344 141.257812 210.347656 141.425781 210.550781 141.59375 C 210.585938 141.621094 210.617188 141.648438 210.652344 141.675781 C 210.882812 141.859375 211.128906 142.035156 211.382812 142.210938 C 211.441406 142.25 211.5 142.289062 211.558594 142.328125 C 211.828125 142.503906 212.105469 142.679688 212.40625 142.851562 C 212.695312 143.015625 212.984375 143.164062 213.273438 143.300781 C 213.375 143.347656 213.472656 143.386719 213.574219 143.429688 C 213.761719 143.511719 213.949219 143.59375 214.136719 143.664062 C 214.257812 143.710938 214.378906 143.75 214.5 143.789062 C 214.664062 143.847656 214.832031 143.902344 215 143.949219 C 215.128906 143.988281 215.257812 144.019531 215.386719 144.050781 C 215.542969 144.089844 215.695312 144.125 215.851562 144.15625 C 215.988281 144.183594 216.125 144.210938 216.257812 144.234375 C 216.40625 144.257812 216.550781 144.277344 216.695312 144.296875 C 216.835938 144.3125 216.976562 144.332031 217.117188 144.34375 C 217.253906 144.355469 217.386719 144.359375 217.523438 144.367188 C 217.671875 144.375 217.816406 144.382812 217.960938 144.382812 C 218.085938 144.386719 218.207031 144.382812 218.328125 144.378906 C 218.484375 144.375 218.640625 144.375 218.792969 144.367188 C 218.613281 141.820312 218.039062 138.3125 216.324219 135.863281 C 214.144531 132.753906 210.925781 130.679688 208.496094 129.453125 C 208.496094 129.453125 208.496094 129.457031 208.496094 129.457031 C 208.449219 129.554688 208.40625 129.652344 208.359375 129.753906 C 208.335938 129.8125 208.3125 129.867188 208.285156 129.925781 C 208.222656 130.070312 208.164062 130.21875 208.105469 130.367188 C 208.070312 130.453125 208.039062 130.535156 208.007812 130.621094 C 207.972656 130.707031 207.941406 130.796875 207.910156 130.882812 C 207.867188 131.007812 207.824219 131.128906 207.785156 131.253906 C 207.753906 131.347656 207.722656 131.445312 207.695312 131.542969 C 207.660156 131.660156 207.625 131.773438 207.59375 131.890625 C 207.574219 131.964844 207.550781 132.039062 207.53125 132.117188 C 207.488281 132.285156 207.449219 132.453125 207.414062 132.625 C 207.398438 132.691406 207.386719 132.757812 207.375 132.820312 C 207.347656 132.964844 207.320312 133.113281 207.296875 133.257812 C 207.289062 133.3125 207.28125 133.367188 207.273438 133.421875 C 207.246094 133.605469 207.226562 133.796875 207.207031 133.984375 C 207.203125 134.042969 207.199219 134.105469 207.195312 134.164062 C 207.183594 134.355469 207.171875 134.550781 207.171875 134.746094 C 207.171875 134.769531 207.171875 134.792969 207.171875 134.816406 C 207.171875 135.007812 207.179688 135.199219 207.191406 135.390625 Z M 207.191406 135.390625 " fill-opacity="1" fill-rule="nonzero"/></svg>