<svg xmlns="http://www.w3.org/2000/svg" xmlns:xlink="http://www.w3.org/1999/xlink" width="559" zoomAndPan="magnify" viewBox="0 0 419.25 297.749993" height="396" preserveAspectRatio="xMidYMid meet" version="1.0"><defs><clipPath id="id1"><path d="M 0 0.140625 L 418.5 0.140625 L 418.5 297.359375 L 0 297.359375 Z M 0 0.140625 " clip-rule="nonzero"/></clipPath></defs><g clip-path="url(#id1)"><path fill="#ffffff" d="M 0 0.140625 L 419.25 0.140625 L 419.25 304.097656 L 0 304.097656 Z M 0 0.140625 " fill-opacity="1" fill-rule="nonzero"/><path fill="#f1ce53" d="M 0 0.140625 L 418.5 0.140625 L 418.5 297.359375 L 0 297.359375 Z M 0 0.140625 " fill-opacity="1" fill-rule="nonzero"/><path fill="#ffffff" d="M 0 0.140625 L 418.5 0.140625 L 418.5 297.359375 L 0 297.359375 Z M 0 0.140625 " fill-opacity="1" fill-rule="nonzero"/><path fill="#f1ce53" d="M 0 0.140625 L 418.5 0.140625 L 418.5 297.359375 L 0 297.359375 Z M 0 0.140625 " fill-opacity="1" fill-rule="nonzero"/></g><path fill="#f88b8b" d="M 338.128906 219.839844 C 338.128906 226.761719 328.59375 226.296875 328.59375 226.296875 C 327.671875 234.828125 321.679688 231.367188 321.679688 231.367188 C 320.523438 239.441406 313.378906 237.363281 313.378906 237.363281 C 310.613281 244.054688 304.621094 240.59375 304.621094 240.59375 L 297.703125 231.367188 C 282.488281 234.828125 268.199219 227.679688 268.199219 227.679688 L 268.199219 238.019531 C 268.199219 240.09375 266.785156 241.90625 264.773438 242.398438 C 245.523438 247.125 229.273438 247 222.390625 246.644531 C 220.375 246.542969 218.769531 244.945312 218.648438 242.929688 C 218.40625 238.875 218.09375 232.601562 218.402344 231.832031 C 218.863281 230.679688 198.578125 232.292969 198.578125 232.292969 L 196.429688 241.960938 C 196.050781 243.65625 194.667969 244.953125 192.945312 245.199219 C 176.988281 247.480469 160.628906 245.910156 154.289062 245.121094 C 152.695312 244.921875 151.472656 243.628906 151.359375 242.023438 L 150.628906 231.84375 C 139.796875 220.324219 141.457031 207.640625 141.457031 207.640625 C 134.082031 217.992188 124.25 217.890625 124.25 217.890625 C 124.25 217.890625 117.484375 232.957031 113.390625 231.777344 C 110.050781 230.8125 109.976562 229.546875 110.0625 229.113281 C 109.820312 229.789062 108.726562 232.433594 106.214844 231.625 C 103.351562 230.703125 102.921875 227.910156 102.921875 227.910156 C 102.921875 227.910156 99.695312 230.777344 97.902344 229.699219 C 96.113281 228.625 93.964844 225.398438 93.964844 225.398438 C 93.964844 225.398438 91.273438 227.730469 88.945312 225.398438 C 86.617188 223.070312 93.25 200.304688 93.25 200.304688 C 93.25 200.304688 76.945312 179.875 90.738281 159.804688 C 104.535156 139.734375 119.042969 105.679688 136.601562 81.664062 C 154.15625 57.648438 162.933594 60.515625 172.425781 55.5 C 173.574219 54.890625 174.707031 54.347656 175.804688 53.863281 C 182.371094 50.933594 189.714844 50.121094 196.730469 51.6875 C 210.378906 54.734375 225.679688 53.546875 236.007812 52.050781 C 241.460938 51.253906 246.933594 52.945312 251.167969 56.46875 C 253.4375 58.355469 257.148438 60.5625 263.125 63.015625 C 269.226562 65.515625 274.101562 68.929688 278.207031 73.203125 C 279.253906 74.292969 280.253906 75.445312 281.207031 76.648438 C 288.234375 85.511719 292.90625 97.382812 298.160156 111.90625 C 306.925781 136.121094 317.066406 139.117188 329.515625 164.953125 C 341.964844 190.78125 331.355469 202.773438 331.355469 202.773438 C 331.355469 202.773438 338.128906 212.921875 338.128906 219.839844 Z M 338.128906 219.839844 " fill-opacity="1" fill-rule="nonzero"/><path fill="#e81515" d="M 267.976562 227.554688 L 267.945312 227.5625 L 267.933594 227.523438 Z M 263.742188 228.355469 L 259.511719 229.191406 L 255.25 229.847656 L 250.964844 230.332031 L 246.671875 230.746094 L 242.375 231.035156 L 238.070312 231.234375 L 233.761719 231.355469 L 229.453125 231.355469 L 228.617188 231.320312 L 228.6875 226.964844 L 228.601562 222.394531 L 228.796875 217.828125 L 228.808594 213.257812 L 229.007812 208.695312 L 229.089844 204.125 L 229.222656 199.558594 L 229.144531 194.988281 L 229.457031 190.417969 L 229.625 185.84375 L 229.710938 181.265625 L 229.613281 176.683594 L 229.722656 172.105469 L 230.011719 167.535156 L 230.035156 162.957031 L 230.085938 158.382812 L 230.335938 153.835938 L 230.621094 149.289062 L 230.570312 144.730469 L 230.964844 140.191406 L 231.199219 135.867188 L 231.445312 131.542969 L 231.402344 127.203125 L 232.105469 122.914062 L 232.503906 118.769531 L 233.058594 114.632812 L 234.097656 110.585938 L 235.441406 106.636719 L 237.199219 102.808594 L 239.367188 99.195312 L 241.496094 95.570312 L 243.617188 91.945312 L 245.859375 87.933594 L 247.558594 83.65625 L 249.160156 79.347656 L 250.460938 74.925781 L 251.128906 70.367188 L 251.722656 65.789062 L 251.613281 61.179688 L 251.398438 57.1875 L 250.242188 57.15625 L 250.277344 57.171875 L 250.523438 61.25 L 250.222656 65.320312 L 250.210938 69.410156 L 249.351562 73.402344 L 248.441406 77.363281 L 247.246094 81.25 L 245.898438 85.089844 L 244.128906 88.757812 L 241.953125 92.351562 L 239.890625 96.019531 L 237.730469 99.628906 L 235.675781 103.292969 L 234.175781 107.09375 L 232.90625 110.972656 L 231.855469 114.921875 L 231.136719 118.953125 L 230.742188 123.128906 L 230.53125 127.316406 L 230.136719 131.488281 L 229.898438 135.675781 L 229.722656 140.226562 L 229.613281 144.777344 L 229.191406 149.320312 L 229.222656 153.878906 L 228.929688 158.425781 L 228.945312 162.984375 L 228.5625 167.53125 L 228.667969 172.089844 L 228.351562 176.632812 L 228.25 181.1875 L 228.421875 185.746094 L 228.332031 190.296875 L 228.054688 194.878906 L 227.953125 199.46875 L 227.875 204.058594 L 227.972656 208.652344 L 227.707031 213.234375 L 227.777344 217.824219 L 227.550781 222.40625 L 227.449219 226.996094 L 227.328125 231.246094 L 225.824219 231.179688 L 222.179688 230.980469 L 218.851562 230.746094 L 219.109375 226.765625 L 219.03125 222.261719 L 218.871094 217.757812 L 219.140625 213.257812 L 219.164062 208.753906 L 219.125 204.25 L 219.1875 199.746094 L 219.410156 195.246094 L 219.429688 190.769531 L 219.621094 186.289062 L 219.71875 181.808594 L 219.640625 177.320312 L 219.804688 172.839844 L 220.019531 168.367188 L 220.027344 163.886719 L 220.21875 159.410156 L 220.132812 154.914062 L 220.242188 150.421875 L 220.664062 145.933594 L 220.617188 141.4375 L 220.917969 136.949219 L 220.945312 132.453125 L 221.300781 127.964844 L 221.554688 123.472656 L 222.089844 119.125 L 222.519531 114.777344 L 223.167969 110.453125 L 224.246094 106.222656 L 225.613281 102.289062 L 227.273438 98.464844 L 229.257812 94.796875 L 231.046875 91.035156 L 233.070312 86.867188 L 234.570312 82.484375 L 235.917969 78.058594 L 237.035156 73.566406 L 237.6875 68.984375 L 238.222656 64.394531 L 238.625 59.789062 L 238.492188 55.644531 L 237.53125 55.636719 L 237.410156 55.636719 L 237.601562 59.792969 L 237.433594 61.890625 L 233.21875 62.75 L 228.910156 63.453125 L 224.570312 63.9375 L 220.210938 64.265625 L 215.8125 64.34375 L 211.441406 64.238281 L 207.089844 63.886719 L 202.757812 63.347656 L 197.855469 62.480469 L 193.28125 61.472656 L 193.308594 59.890625 L 193.910156 55.023438 L 192.609375 55.011719 L 192.675781 55.019531 L 192.398438 59.355469 L 192.1875 63.695312 L 192.207031 68.042969 L 192.246094 72.390625 L 192.546875 76.113281 L 193.257812 79.773438 L 194.1875 83.375 L 195.417969 86.53125 L 197.117188 89.449219 L 199.464844 94.742188 L 201.066406 99.355469 L 201.847656 104.179688 L 202.628906 108.167969 L 202.972656 112.214844 L 203.351562 116.265625 L 203.246094 120.332031 L 203.273438 124.394531 L 203.339844 128.496094 L 203.152344 132.597656 L 202.792969 136.6875 L 202.667969 140.785156 L 202.605469 144.886719 L 202.335938 149.011719 L 202.144531 153.144531 L 201.9375 157.273438 L 201.945312 161.410156 L 201.410156 165.523438 L 201.132812 169.648438 L 200.914062 173.773438 L 200.703125 177.90625 L 200.597656 182.042969 L 200.34375 186.167969 L 200.101562 190.292969 L 199.613281 194.398438 L 199.332031 198.523438 L 198.886719 202.636719 L 198.632812 206.761719 L 198.222656 210.875 L 198.074219 215.011719 L 197.828125 219.136719 L 197.152344 223.226562 L 196.894531 227.351562 L 196.625 232.210938 L 193.222656 232.179688 L 188.660156 232.1875 L 185.023438 232.179688 L 185.367188 228.074219 L 185.820312 223.53125 L 185.910156 218.96875 L 186.371094 214.433594 L 186.703125 209.886719 L 187.015625 205.339844 L 187.289062 200.789062 L 187.480469 196.234375 L 187.859375 191.695312 L 188.269531 187.15625 L 188.417969 182.597656 L 188.824219 178.054688 L 189.148438 173.507812 L 189.414062 168.957031 L 189.570312 164.398438 L 189.753906 159.839844 L 190.171875 155.300781 L 190.351562 150.742188 L 190.917969 146.210938 L 191.050781 141.652344 L 191.265625 137.199219 L 191.753906 132.757812 L 191.832031 128.296875 L 192.128906 123.847656 L 192.113281 119.597656 L 191.832031 115.351562 L 191.21875 111.140625 L 190.0625 107.050781 L 188.664062 103.109375 L 187.117188 99.21875 L 185.546875 95.328125 L 184.183594 91.359375 L 182.71875 87.375 L 181.691406 83.253906 L 180.570312 79.160156 L 179.855469 74.980469 L 179.269531 70.78125 L 178.578125 66.585938 L 178.667969 62.328125 L 178.359375 58.082031 L 178.742188 53.785156 L 177.625 53.800781 L 177.429688 53.777344 L 177.324219 57.988281 L 177.34375 62.191406 L 177.675781 66.382812 L 177.863281 70.585938 L 178.570312 74.726562 L 179.167969 78.886719 L 180.203125 82.964844 L 181.207031 87.054688 L 182.574219 91.039062 L 184.167969 94.9375 L 185.820312 98.800781 L 187.390625 102.699219 L 188.929688 106.714844 L 189.871094 110.914062 L 190.609375 115.140625 L 190.964844 119.421875 L 190.898438 123.828125 L 190.585938 128.226562 L 190.316406 132.621094 L 190.074219 137.023438 L 189.894531 141.582031 L 189.453125 146.121094 L 189.386719 150.6875 L 189.046875 155.234375 L 188.703125 159.78125 L 188.46875 164.332031 L 188.191406 168.882812 L 187.746094 173.425781 L 187.558594 177.984375 L 187.277344 182.53125 L 186.980469 187.078125 L 186.4375 191.609375 L 186.410156 196.175781 L 185.859375 200.710938 L 185.871094 205.28125 L 185.433594 209.820312 L 185.066406 214.367188 L 184.953125 218.925781 L 184.691406 223.476562 L 184.261719 228.019531 L 184.085938 232.203125 L 184.078125 232.203125 L 179.515625 232.15625 L 174.953125 232.058594 L 170.398438 231.871094 L 165.839844 231.722656 L 161.285156 231.542969 L 156.058594 231.265625 L 150.835938 230.910156 L 150.835938 232.101562 L 155.386719 232.425781 L 159.941406 232.632812 L 164.5 232.890625 L 169.054688 233.105469 L 173.617188 233.203125 L 178.175781 233.34375 L 182.738281 233.445312 L 187.300781 233.5 L 192.535156 233.457031 L 197.773438 233.414062 L 197.773438 232.253906 L 197.632812 232.253906 L 198.09375 228.378906 L 198.496094 224.265625 L 198.855469 220.148438 L 198.988281 216.011719 L 199.476562 211.90625 L 199.734375 207.78125 L 200.136719 203.667969 L 200.523438 199.546875 L 200.722656 195.417969 L 201.203125 191.308594 L 201.445312 187.183594 L 201.601562 183.054688 L 201.90625 178.933594 L 202.246094 174.816406 L 202.371094 170.683594 L 202.511719 166.554688 L 202.917969 162.433594 L 203.28125 158.316406 L 203.375 154.179688 L 203.636719 150.054688 L 203.75 145.910156 L 204.050781 141.773438 L 203.984375 137.625 L 204.339844 133.488281 L 204.550781 129.34375 L 204.320312 125.3125 L 204.503906 121.28125 L 204.515625 117.246094 L 204.136719 113.230469 L 203.875 109.207031 L 203.226562 104.988281 L 202.589844 100.746094 L 201.265625 96.671875 L 199.980469 93.039062 L 198.332031 89.558594 L 196.671875 86.078125 L 194.78125 81.277344 L 193.554688 75.78125 L 193.269531 71.824219 L 193.300781 67.855469 L 193.234375 63.894531 L 193.253906 62.730469 L 197.003906 63.609375 L 201.378906 64.398438 L 205.796875 64.917969 L 210.222656 65.34375 L 214.664062 65.519531 L 219.109375 65.539062 L 223.554688 65.304688 L 227.976562 64.851562 L 232.902344 64.082031 L 237.296875 63.230469 L 237.234375 63.972656 L 236.734375 68.089844 L 235.929688 72.160156 L 235.199219 76.246094 L 233.882812 80.183594 L 232.5625 84.109375 L 231.210938 88.035156 L 229.511719 91.746094 L 227.566406 95.328125 L 225.636719 98.917969 L 224.070312 102.6875 L 222.699219 106.636719 L 221.867188 110.730469 L 221.273438 114.863281 L 220.699219 119 L 220.417969 123.484375 L 219.929688 127.960938 L 219.976562 132.464844 L 219.441406 136.9375 L 219.328125 141.429688 L 219.375 145.929688 L 219.160156 150.414062 L 218.960938 154.90625 L 218.757812 159.40625 L 218.875 163.917969 L 218.5625 168.414062 L 218.527344 172.917969 L 218.316406 177.417969 L 218.414062 181.921875 L 218.140625 186.421875 L 218.171875 190.925781 L 217.929688 195.40625 L 217.957031 199.886719 L 218.070312 204.363281 L 217.929688 208.84375 L 217.738281 213.324219 L 217.75 217.804688 L 217.601562 222.285156 L 217.671875 226.765625 L 217.546875 231.3125 L 218.503906 231.3125 L 218.496094 232.066406 L 222.832031 232.277344 L 227.160156 232.460938 L 231.488281 232.578125 L 235.820312 232.601562 L 240.140625 232.367188 L 244.464844 232.136719 L 248.78125 231.769531 L 253.082031 231.289062 L 257.363281 230.636719 L 261.035156 230.191406 L 264.644531 229.398438 L 268.257812 228.664062 L 267.933594 227.585938 Z M 197.808594 232.191406 L 197.808594 232.222656 Z M 152.316406 126.726562 L 153.542969 122.402344 L 154.875 118.109375 L 155.886719 113.921875 L 157.105469 109.796875 L 158.136719 105.621094 L 159.058594 101.414062 L 160.207031 97.273438 L 161.429688 93.128906 L 160.152344 92.851562 L 160.128906 92.785156 L 159.125 96.828125 L 158.039062 100.851562 L 157.039062 104.898438 L 155.878906 108.894531 L 154.96875 112.960938 L 153.933594 116.996094 L 152.863281 121.015625 L 151.796875 125.046875 L 150.570312 129.027344 L 149.480469 133.046875 L 148.589844 137.121094 L 147.519531 141.480469 L 146.328125 145.808594 L 145.34375 150.1875 L 144.550781 154.605469 L 143.769531 159.027344 L 142.945312 163.40625 L 142.523438 167.84375 L 141.824219 172.25 L 141.734375 176.710938 L 141.109375 181.125 L 140.84375 185.324219 L 140.625 189.519531 L 140.507812 193.722656 L 140.15625 197.914062 L 139.8125 202.113281 L 140.0625 206.296875 L 140.890625 206.292969 L 141.144531 201.847656 L 141.398438 197.386719 L 141.609375 192.921875 L 141.804688 188.460938 L 142.289062 184.011719 L 142.46875 179.542969 L 143.023438 175.105469 L 143.371094 170.648438 L 144.050781 166.234375 L 144.582031 161.796875 L 145.152344 157.335938 L 146.128906 152.945312 L 147.0625 148.546875 L 147.835938 144.117188 L 149.011719 139.773438 L 150.203125 135.445312 L 151.316406 131.089844 Z M 308.609375 229.480469 L 306.445312 226.054688 L 304.347656 222.585938 L 302.316406 219.082031 L 301.253906 219.703125 L 303.324219 223.1875 L 305.410156 226.664062 L 307.582031 230.085938 L 309.761719 233.5 L 311.964844 236.902344 L 312.980469 236.292969 L 313.015625 236.292969 L 310.8125 232.894531 Z M 321.660156 230.308594 L 321.667969 230.300781 Z M 317.6875 222.164062 L 315.597656 218.144531 L 313.503906 214.125 L 311.332031 210.144531 L 310.285156 210.765625 L 312.457031 214.742188 L 314.550781 218.757812 L 316.660156 222.769531 L 318.664062 226.832031 L 320.625 230.910156 L 321.65625 230.308594 L 319.703125 226.222656 Z M 327 220.746094 L 325.246094 217.292969 L 323.539062 213.820312 L 321.78125 210.367188 L 320.734375 210.984375 L 322.480469 214.4375 L 324.222656 217.894531 L 325.96875 221.351562 L 327.714844 224.816406 L 328.757812 224.207031 L 328.761719 224.199219 Z M 101.550781 202.359375 L 100.207031 206.164062 L 98.925781 209.988281 L 97.589844 213.796875 L 95.65625 219.449219 L 93.554688 224.894531 L 94.589844 225.496094 L 94.628906 225.511719 L 96.65625 220.183594 L 98.648438 214.390625 L 100.003906 210.488281 L 101.339844 206.574219 L 102.6875 202.667969 Z M 106.746094 211.363281 L 104.347656 219.503906 L 103.066406 223.550781 L 101.75 227.585938 L 102.902344 227.902344 L 102.878906 227.898438 L 104.222656 223.875 L 105.5 219.828125 L 106.707031 215.765625 L 107.914062 211.695312 L 109.042969 207.605469 L 107.875 207.28125 Z M 110.910156 228.71875 L 110.890625 228.710938 Z M 113.902344 211.429688 L 112.679688 215.625 L 111.625 219.863281 L 110.621094 224.117188 L 109.773438 228.402344 L 110.890625 228.71875 L 111.800781 224.449219 L 112.769531 220.191406 L 113.871094 215.964844 L 115.019531 211.746094 L 116.316406 207.574219 L 115.171875 207.261719 Z M 118.824219 119.476562 L 122.183594 121.988281 L 125.703125 124.257812 L 129.375 126.28125 L 133.167969 128.074219 L 137.027344 129.71875 L 140.96875 131.140625 L 144.9375 132.589844 L 148.9375 133.921875 L 149.265625 132.765625 L 145.316406 131.5 L 141.414062 130.09375 L 137.53125 128.632812 L 133.691406 127.070312 L 129.949219 125.285156 L 126.335938 123.25 L 122.871094 120.988281 L 119.65625 118.476562 L 116.605469 115.765625 L 115.761719 116.574219 L 115.78125 116.597656 Z M 147.675781 139.359375 L 147.980469 138.195312 L 143.957031 137 L 140 135.570312 L 136.070312 134.078125 L 132.210938 132.402344 L 128.457031 130.507812 L 124.773438 128.476562 L 121.214844 126.230469 L 117.757812 123.867188 L 114.375 121.410156 L 113.757812 122.40625 L 113.773438 122.433594 L 117.144531 124.992188 L 120.683594 127.316406 L 124.300781 129.515625 L 128.011719 131.550781 L 131.789062 133.445312 L 135.65625 135.167969 L 139.585938 136.734375 L 143.601562 138.144531 Z M 271.4375 132.8125 L 271.429688 132.933594 L 271.53125 132.835938 Z M 271.621094 132.746094 L 271.527344 132.835938 L 271.617188 132.863281 Z M 271.640625 132.867188 L 271.621094 132.863281 L 271.605469 133.710938 L 272.171875 133.6875 L 272.296875 133.558594 L 274.46875 133.1875 L 277.792969 132.277344 L 280.808594 131.128906 L 283.800781 129.886719 L 286.652344 128.671875 L 288.085938 127.964844 L 289.421875 127.527344 L 290.722656 126.78125 L 292.125 126.148438 L 294.964844 124.558594 L 297.769531 122.605469 L 299.28125 121.554688 L 300.605469 120.476562 L 301.015625 120.035156 L 301.042969 119.886719 L 299.984375 119.601562 L 300.28125 119.3125 L 299.890625 119.578125 L 299.871094 119.570312 L 299.882812 119.582031 L 299.117188 120.09375 L 297.269531 121.503906 L 294.039062 123.75 L 290.289062 125.695312 L 288.609375 126.515625 L 287.019531 127.039062 L 283.535156 128.664062 L 279.867188 130.296875 L 275.605469 131.707031 L 271.617188 132.535156 L 271.609375 132.757812 L 271.628906 132.746094 Z M 302.539062 123.847656 L 302.542969 123.824219 L 299.238281 126.78125 L 295.699219 129.460938 L 291.96875 131.855469 L 288.078125 133.992188 L 284.027344 135.800781 L 279.851562 137.28125 L 276.203125 138.292969 L 272.886719 139.003906 L 272.164062 136.210938 L 271.148438 132.054688 L 270.207031 127.882812 L 269.28125 123.792969 L 268.632812 119.644531 L 267.699219 115.554688 L 266.976562 111.425781 L 266.417969 107.269531 L 265.730469 103.132812 L 265.15625 98.976562 L 263.996094 98.960938 L 264.003906 98.972656 L 264.464844 103.253906 L 265.152344 107.503906 L 265.890625 111.742188 L 266.632812 115.984375 L 267.421875 120.214844 L 268.4375 124.402344 L 269.316406 128.609375 L 270.308594 132.796875 L 271.070312 137.035156 L 272.105469 141.214844 L 273.007812 145.421875 L 273.863281 149.636719 L 274.910156 153.761719 L 275.433594 157.992188 L 276.261719 162.164062 L 276.847656 166.378906 L 277.417969 170.59375 L 277.648438 174.847656 L 277.972656 179.078125 L 278.21875 183.332031 L 277.9375 187.582031 L 277.902344 191.839844 L 277.25 196.046875 L 276.890625 200.289062 L 276.148438 204.304688 L 274.945312 208.199219 L 273.96875 212.164062 L 272.5 215.96875 L 271.1875 219.816406 L 269.523438 223.539062 L 267.945312 227.296875 L 269.117188 227.621094 L 270.695312 223.632812 L 272.410156 219.707031 L 274.019531 215.734375 L 275.277344 211.640625 L 276.347656 207.496094 L 277.613281 203.394531 L 278.070312 199.222656 L 278.570312 195.066406 L 279.015625 190.90625 L 279.285156 186.726562 L 279.164062 182.542969 L 279.207031 178.351562 L 278.851562 174.085938 L 278.652344 169.804688 L 277.890625 165.585938 L 277.417969 161.328125 L 276.691406 157.105469 L 275.835938 152.914062 L 274.925781 148.730469 L 274.113281 144.527344 L 273.230469 140.339844 L 273.195312 140.203125 L 277.25 139.289062 L 281.597656 137.988281 L 285.808594 136.3125 L 289.902344 134.359375 L 293.851562 132.132812 L 297.59375 129.574219 L 300.582031 127.21875 L 303.367188 124.648438 Z M 244.523438 182.546875 L 244.53125 183.746094 L 248.886719 183.765625 L 253.253906 183.667969 L 257.609375 183.464844 L 261.960938 183.121094 L 266.308594 182.722656 L 270.652344 182.300781 L 270.625 181.046875 L 270.640625 181.046875 L 266.300781 181.519531 L 261.960938 181.941406 L 257.609375 182.257812 L 253.253906 182.433594 L 248.886719 182.546875 Z M 156.367188 183.179688 L 152.316406 182.730469 L 152.316406 183.957031 L 156.359375 184.398438 L 160.417969 184.714844 L 164.480469 184.910156 L 168.542969 185.058594 L 172.613281 185.078125 L 176.675781 184.9375 L 180.746094 184.792969 L 180.738281 183.566406 L 180.738281 183.542969 L 176.675781 183.753906 L 172.613281 183.902344 L 168.542969 183.847656 L 164.476562 183.746094 L 160.410156 183.53125 Z M 228.410156 144.4375 C 228.410156 142.796875 227.085938 141.5625 225.457031 141.582031 C 223.933594 141.425781 222.65625 142.859375 222.511719 144.371094 C 222.597656 145.976562 223.816406 147.234375 225.457031 147.277344 C 226.953125 147.132812 228.363281 146.011719 228.410156 144.4375 Z M 224.238281 163.953125 C 222.742188 163.855469 221.453125 165.175781 221.445312 166.710938 C 221.390625 168.304688 222.667969 169.523438 224.382812 169.714844 C 225.914062 169.59375 227.214844 168.449219 227.050781 166.765625 C 227.242188 165.234375 225.785156 164.011719 224.238281 163.953125 Z M 223.894531 187.390625 C 222.203125 187.28125 221.03125 188.636719 221 190.050781 C 220.921875 191.761719 222.234375 192.949219 223.777344 193.050781 C 225.484375 193.097656 226.6875 191.84375 226.78125 190.050781 C 226.753906 188.671875 225.484375 187.246094 223.894531 187.390625 Z M 229.496094 122.015625 C 229.554688 120.382812 228.308594 119.101562 226.675781 118.992188 C 225.105469 119.164062 223.699219 120.257812 223.824219 122 C 223.859375 123.589844 225.101562 124.90625 226.664062 124.863281 C 228.195312 124.804688 229.445312 123.605469 229.496094 122.015625 Z M 223.769531 210.722656 C 222.175781 210.734375 221.054688 212.019531 220.894531 213.480469 C 220.945312 215.058594 222.277344 216.449219 223.859375 216.433594 C 225.414062 216.445312 226.59375 215.03125 226.625 213.558594 C 226.59375 212.011719 225.449219 210.566406 223.769531 210.722656 Z M 223.769531 210.722656 " fill-opacity="1" fill-rule="nonzero"/><path fill="#e81515" d="M 307.925781 195.820312 L 300.625 193.855469 L 294.398438 182.414062 L 301.175781 175.636719 L 312.148438 175.636719 L 318.953125 184.632812 L 310.945312 194.8125 C 310.230469 195.722656 309.039062 196.121094 307.925781 195.820312 Z M 307.925781 195.820312 " fill-opacity="1" fill-rule="nonzero"/><path fill="#ffc046" d="M 319.601562 180.324219 C 319.601562 180.324219 323.519531 180.054688 325.675781 184.746094 C 327.757812 189.292969 324.675781 198.542969 317.300781 199.925781 C 309.921875 201.3125 310.851562 194.777344 313.101562 191.394531 C 315.351562 188.007812 316.074219 182.054688 311.847656 181.046875 C 307.625 180.042969 306.546875 183.769531 306.546875 183.769531 C 303.355469 181.800781 300.9375 183.667969 299.707031 185.554688 C 298.480469 187.4375 299.550781 191.859375 302.832031 193.050781 C 306.105469 194.242188 309.929688 196.085938 307.140625 200.3125 C 304.355469 204.539062 297.097656 205.152344 293.253906 200.3125 C 289.414062 195.46875 294.027344 189.550781 294.027344 189.550781 C 288.800781 186.4375 290.949219 179.246094 290.949219 179.246094 C 287.417969 178.40625 285.804688 171.328125 289.722656 168.332031 C 293.640625 165.332031 297.867188 169.714844 297.867188 169.714844 C 302.863281 164.796875 307.140625 166.023438 307.140625 166.023438 C 307.140625 166.023438 308.007812 157.648438 314.460938 160.332031 C 320.914062 163.023438 318.152344 170.480469 318.152344 170.480469 C 322.792969 175.441406 319.601562 180.324219 319.601562 180.324219 Z M 151.75 85.308594 C 151.75 85.308594 154.875 76.90625 151.75 75.304688 C 148.625 73.703125 147.832031 84.746094 147.832031 84.746094 C 147.832031 84.746094 146.957031 77.480469 143.25 77.628906 C 139.542969 77.78125 143.25 84.746094 143.25 84.746094 C 143.25 84.746094 138.175781 82.953125 136.796875 85.3125 C 135.421875 87.675781 142.378906 88.792969 142.378906 88.792969 C 142.378906 88.792969 136.539062 90.226562 137.097656 92.691406 C 137.664062 95.152344 145.398438 92.371094 145.398438 92.371094 C 145.398438 92.371094 141.84375 97.273438 143.96875 99.917969 C 146.09375 102.558594 148.757812 97.226562 149.804688 93.304688 C 149.804688 93.304688 152.109375 99.863281 155.335938 97.761719 C 158.5625 95.660156 153.75 90.792969 153.75 90.792969 C 153.75 90.792969 159.695312 92.328125 160.742188 89.769531 C 161.789062 87.203125 154.824219 87.359375 154.824219 87.359375 C 154.824219 87.359375 161.152344 82.363281 159.484375 79.671875 C 157.824219 76.980469 151.75 85.308594 151.75 85.308594 Z M 151.75 85.308594 " fill-opacity="1" fill-rule="nonzero"/><path fill="#e81515" d="M 302.542969 177.789062 C 302.542969 178.976562 301.582031 179.941406 300.394531 179.941406 C 299.207031 179.941406 298.246094 178.976562 298.246094 177.789062 C 298.246094 176.605469 299.207031 175.640625 300.394531 175.640625 C 301.582031 175.640625 302.542969 176.597656 302.542969 177.789062 Z M 310.199219 171.792969 C 309.015625 171.792969 308.050781 172.757812 308.050781 173.941406 C 308.050781 175.128906 309.015625 176.09375 310.199219 176.09375 C 311.386719 176.09375 312.347656 175.128906 312.347656 173.941406 C 312.347656 172.757812 311.386719 171.792969 310.199219 171.792969 Z M 313.183594 162.765625 C 312.960938 162.632812 312.703125 162.722656 312.566406 162.929688 C 311.808594 164.03125 311.367188 165.3125 311.234375 166.636719 C 311.210938 166.878906 311.457031 167.089844 311.6875 167.089844 C 311.953125 167.089844 312.113281 166.878906 312.136719 166.636719 C 312.253906 165.46875 312.679688 164.351562 313.34375 163.378906 C 313.488281 163.183594 313.382812 162.886719 313.183594 162.765625 Z M 295.757812 170.945312 C 294.75 170.578125 293.714844 170.261719 292.671875 169.992188 C 292.4375 169.933594 292.183594 170.070312 292.117188 170.304688 C 292.050781 170.539062 292.195312 170.800781 292.429688 170.859375 C 293.472656 171.128906 294.507812 171.445312 295.519531 171.8125 C 295.746094 171.894531 296.011719 171.71875 296.074219 171.496094 C 296.144531 171.246094 295.988281 171.027344 295.757812 170.945312 Z M 307.925781 176.796875 C 307.816406 176.664062 307.664062 176.574219 307.480469 176.585938 C 307.113281 176.605469 306.746094 176.664062 306.402344 176.777344 C 306.214844 176.839844 306.027344 176.917969 305.855469 177.007812 C 305.589844 177.132812 305.367188 177.320312 305.324219 177.632812 C 305.292969 177.84375 305.359375 178.074219 305.523438 178.222656 C 305.636719 178.339844 305.761719 178.394531 305.914062 178.445312 C 306.066406 178.5 306.234375 178.523438 306.390625 178.539062 C 306.722656 178.554688 307.050781 178.464844 307.347656 178.316406 C 307.652344 178.15625 307.9375 177.882812 308.085938 177.566406 C 308.160156 177.417969 308.195312 177.265625 308.148438 177.105469 C 308.109375 176.984375 308.027344 176.875 307.925781 176.796875 Z M 307.925781 176.796875 " fill-opacity="1" fill-rule="nonzero"/><path fill="#fff5f5" d="M 186.136719 155.222656 C 184.71875 158.515625 182.242188 160.117188 180.371094 160.882812 C 178.878906 161.488281 177.589844 162.519531 176.707031 163.867188 C 175.4375 165.8125 173.015625 168.269531 168.960938 168.179688 C 165.816406 168.109375 164.136719 166.441406 163.234375 164.691406 C 162.195312 162.675781 160.382812 161.164062 158.183594 160.605469 C 154.25 159.609375 151.804688 155.800781 151.75 152.035156 C 151.71875 150.007812 152.628906 148.652344 153.710938 147.765625 C 155.402344 146.378906 156.269531 144.273438 156.378906 142.085938 C 156.476562 140.160156 157.300781 137.96875 160.050781 136.503906 C 163.007812 134.925781 165.695312 135.234375 167.648438 135.9375 C 169.652344 136.660156 171.847656 136.433594 173.773438 135.523438 C 175.375 134.765625 177.480469 134.398438 179.722656 135.742188 C 182.273438 137.265625 182.707031 139.9375 182.5625 142.085938 C 182.425781 144.105469 183.074219 146.085938 184.445312 147.574219 C 186.035156 149.300781 187.535156 151.980469 186.136719 155.222656 Z M 257.121094 109.496094 C 257.121094 109.496094 262.382812 104.269531 258.8125 99.578125 C 255.246094 94.886719 249.476562 96.238281 248.285156 103.113281 C 248.285156 103.113281 246.257812 100.300781 242.0625 101.964844 C 237.867188 103.632812 239.105469 109.183594 242.449219 110.183594 C 242.449219 110.183594 237.300781 109.570312 236.757812 113.261719 C 236.222656 116.953125 239.90625 120.988281 246.75 116.875 C 246.75 116.875 246.183594 124.96875 252.078125 125.515625 C 257.972656 126.0625 255.507812 117.101562 255.507812 117.101562 C 255.507812 117.101562 259.890625 121.792969 262.746094 117.101562 C 264.972656 113.433594 263.039062 110.339844 257.121094 109.496094 Z M 257.121094 109.496094 " fill-opacity="1" fill-rule="nonzero"/><path fill="#b4d4e6" d="M 285.128906 90.402344 L 287.589844 96.683594 L 279.421875 113.90625 C 279.421875 113.90625 291.027344 109.371094 291.101562 108.984375 C 291.171875 108.601562 294.09375 115.597656 294.09375 115.597656 L 274.8125 124.871094 L 272.195312 116.054688 L 277.890625 100.679688 L 269.589844 104.679688 L 267.359375 97.453125 Z M 148.769531 85.929688 C 147.332031 85.964844 146.273438 87.042969 146.238281 88.378906 C 146.210938 89.757812 147.332031 90.894531 148.742188 90.917969 C 150.089844 90.890625 151.238281 89.789062 151.261719 88.382812 C 151.214844 87.097656 150.148438 85.929688 148.769531 85.929688 Z M 148.769531 85.929688 " fill-opacity="1" fill-rule="nonzero"/><path fill="#ffc046" d="M 178.597656 149.636719 C 178.597656 153.882812 175.753906 157.328125 170.910156 157.328125 C 166.664062 157.328125 163.222656 153.882812 163.222656 149.636719 C 163.222656 145.394531 166.671875 142.242188 170.910156 141.949219 C 176.445312 141.5625 178.597656 145.394531 178.597656 149.636719 Z M 278.972656 77.59375 C 279.085938 77.613281 279.199219 77.628906 279.320312 77.628906 C 280.097656 77.640625 280.785156 77.246094 281.207031 76.648438 C 280.253906 75.445312 279.253906 74.292969 278.207031 73.203125 C 277.46875 73.578125 276.9375 74.371094 276.945312 75.257812 C 276.9375 76.214844 277.484375 76.996094 278.273438 77.382812 L 275.570312 82.078125 L 272.140625 77.359375 C 272.878906 76.960938 273.386719 76.171875 273.398438 75.304688 C 273.40625 74.023438 272.355469 72.914062 270.992188 72.980469 C 269.78125 72.910156 268.683594 73.988281 268.691406 75.25 C 268.683594 76.589844 269.75 77.617188 271.070312 77.625 C 271.261719 77.628906 271.449219 77.601562 271.628906 77.558594 L 271.628906 83.617188 L 265.730469 81.617188 C 266.164062 81.1875 266.433594 80.59375 266.445312 79.953125 C 266.453125 78.671875 265.40625 77.5625 264.039062 77.628906 C 262.828125 77.558594 261.734375 78.636719 261.738281 79.898438 C 261.734375 81.238281 262.796875 82.265625 264.117188 82.273438 C 264.285156 82.277344 264.453125 82.253906 264.609375 82.222656 L 269.433594 92.835938 L 282.136719 88.425781 Z M 278.972656 77.59375 " fill-opacity="1" fill-rule="nonzero"/><path fill="#e81515" d="M 256.242188 111.605469 C 256.242188 111.648438 256.242188 111.695312 256.242188 111.738281 C 256.242188 111.953125 256.191406 112.160156 256.082031 112.34375 C 256.019531 112.421875 255.953125 112.507812 255.894531 112.585938 C 255.742188 112.738281 255.570312 112.839844 255.363281 112.894531 C 255.257812 112.90625 255.152344 112.921875 255.046875 112.9375 C 254.878906 112.941406 254.726562 112.90625 254.582031 112.832031 C 254.433594 112.785156 254.304688 112.699219 254.195312 112.585938 C 254.078125 112.476562 254 112.34375 253.949219 112.199219 C 253.871094 112.054688 253.84375 111.898438 253.847656 111.738281 C 253.847656 111.703125 253.847656 111.660156 253.847656 111.621094 C 253.210938 111.320312 252.546875 111.085938 251.863281 110.917969 C 252.019531 111.839844 252.035156 112.796875 251.890625 113.722656 C 252.800781 114.253906 252.601562 115.976562 251.289062 115.976562 C 249.738281 115.976562 249.742188 113.566406 251.289062 113.566406 C 251.296875 113.566406 251.300781 113.566406 251.308594 113.566406 C 251.445312 112.648438 251.410156 111.675781 251.222656 110.769531 C 250.34375 110.585938 249.386719 110.835938 248.5625 111.125 C 248.105469 111.285156 247.660156 111.484375 247.238281 111.730469 C 247.214844 111.75 247.183594 111.765625 247.15625 111.78125 C 247.261719 111.910156 247.347656 112.054688 247.394531 112.21875 C 247.40625 112.328125 247.425781 112.429688 247.4375 112.539062 C 247.4375 112.753906 247.382812 112.960938 247.273438 113.144531 C 247.214844 113.226562 247.148438 113.308594 247.089844 113.386719 C 246.980469 113.507812 246.847656 113.585938 246.703125 113.632812 C 246.558594 113.710938 246.402344 113.742188 246.238281 113.738281 C 246.070312 113.742188 245.921875 113.707031 245.777344 113.632812 C 245.625 113.585938 245.5 113.5 245.390625 113.386719 C 245.367188 113.363281 245.347656 113.34375 245.324219 113.320312 C 245.175781 113.171875 245.070312 112.996094 245.019531 112.792969 C 245.003906 112.683594 244.988281 112.582031 244.976562 112.472656 C 244.976562 112.253906 245.03125 112.050781 245.136719 111.863281 C 245.199219 111.785156 245.265625 111.703125 245.324219 111.621094 C 245.433594 111.503906 245.566406 111.425781 245.710938 111.375 C 245.855469 111.296875 246.011719 111.269531 246.171875 111.273438 C 246.34375 111.269531 246.492188 111.304688 246.636719 111.375 C 246.636719 111.375 246.644531 111.375 246.644531 111.382812 C 247.160156 111.019531 247.785156 110.769531 248.339844 110.570312 C 248.941406 110.347656 249.617188 110.164062 250.289062 110.117188 C 249.683594 109.695312 249.105469 109.21875 248.59375 108.691406 C 248.441406 108.769531 248.261719 108.8125 248.050781 108.8125 C 246.5 108.8125 246.503906 106.402344 248.050781 106.402344 C 249.136719 106.402344 249.460938 107.578125 249.027344 108.285156 C 249.707031 108.980469 250.519531 109.582031 251.339844 110.082031 C 251.675781 109.207031 252.046875 108.351562 252.464844 107.515625 C 252.410156 107.4375 252.359375 107.359375 252.332031 107.261719 C 252.253906 107.117188 252.222656 106.960938 252.230469 106.800781 C 252.230469 106.773438 252.230469 106.757812 252.230469 106.734375 C 252.230469 106.515625 252.28125 106.3125 252.390625 106.125 C 252.453125 106.046875 252.519531 105.960938 252.578125 105.882812 C 252.726562 105.734375 252.902344 105.632812 253.109375 105.578125 C 253.214844 105.566406 253.316406 105.546875 253.425781 105.535156 C 253.59375 105.527344 253.746094 105.566406 253.890625 105.636719 C 254.039062 105.683594 254.167969 105.769531 254.273438 105.882812 C 254.394531 105.992188 254.472656 106.125 254.523438 106.269531 C 254.601562 106.414062 254.628906 106.570312 254.625 106.734375 C 254.625 106.757812 254.625 106.773438 254.625 106.800781 C 254.625 107.015625 254.570312 107.222656 254.460938 107.40625 C 254.402344 107.484375 254.335938 107.570312 254.273438 107.648438 C 254.125 107.800781 253.949219 107.902344 253.746094 107.957031 C 253.636719 107.96875 253.535156 107.984375 253.425781 107.996094 C 253.257812 108.003906 253.109375 107.96875 252.964844 107.894531 C 252.957031 107.894531 252.949219 107.890625 252.945312 107.890625 C 252.554688 108.679688 252.199219 109.484375 251.886719 110.304688 C 252.609375 110.480469 253.3125 110.71875 253.988281 111.03125 C 253.992188 111.019531 253.992188 111.007812 254.003906 110.996094 C 254.066406 110.917969 254.128906 110.835938 254.191406 110.753906 C 254.339844 110.605469 254.515625 110.503906 254.722656 110.449219 C 254.828125 110.4375 254.929688 110.417969 255.039062 110.40625 C 255.207031 110.402344 255.359375 110.4375 255.503906 110.507812 C 255.652344 110.558594 255.78125 110.640625 255.886719 110.753906 C 256.007812 110.863281 256.085938 110.996094 256.136719 111.140625 C 256.214844 111.28125 256.25 111.4375 256.242188 111.605469 Z M 126.703125 148.851562 C 119.070312 146.175781 117.996094 155.980469 117.996094 155.980469 C 109.183594 151.214844 102.984375 158.898438 108.058594 166.945312 C 113.128906 174.992188 124.453125 175.554688 124.453125 175.554688 C 132.632812 166.125 134.335938 151.523438 126.703125 148.851562 Z M 126.703125 148.851562 " fill-opacity="1" fill-rule="nonzero"/><path fill="#b4d4e6" d="M 186.691406 127.585938 C 186.871094 127.894531 177.914062 131.964844 177.914062 131.964844 L 174.441406 126.261719 C 173.648438 124.957031 173.28125 123.433594 173.394531 121.902344 L 173.828125 116.164062 C 166.070312 97.75 164.835938 94.527344 168.140625 94.21875 C 171.445312 93.914062 177.445312 114.0625 177.445312 114.0625 L 180.761719 116.964844 C 182.609375 118.578125 184.023438 120.625 184.890625 122.925781 C 185.703125 125.070312 186.59375 127.425781 186.691406 127.585938 Z M 110.289062 162.519531 C 108.183594 162.386719 106.082031 162.265625 103.976562 162.152344 L 100.476562 156.339844 L 96.480469 156.90625 L 98.117188 162.132812 L 94.945312 165.007812 L 97.511719 169.105469 L 103.914062 163.355469 C 106.039062 163.472656 108.171875 163.589844 110.296875 163.730469 C 111.066406 163.777344 111.058594 162.574219 110.289062 162.519531 Z M 134.667969 160.648438 C 134.292969 159.964844 133.257812 160.574219 133.625 161.253906 C 134.203125 162.316406 134.824219 163.34375 135.460938 164.363281 C 132.941406 164.144531 130.425781 163.933594 127.902344 163.746094 C 127.132812 163.6875 127.132812 164.890625 127.902344 164.953125 C 130.503906 165.152344 133.097656 165.367188 135.691406 165.585938 C 135.335938 165.898438 134.972656 166.203125 134.625 166.523438 C 133.742188 167.335938 132.824219 168.171875 132.121094 169.15625 C 131.671875 169.789062 132.71875 170.390625 133.164062 169.761719 C 133.800781 168.867188 134.722656 168.066406 135.550781 167.308594 C 136.105469 166.800781 136.671875 166.300781 137.25 165.8125 C 137.449219 165.652344 137.480469 165.296875 137.347656 165.085938 C 136.417969 163.628906 135.5 162.164062 134.667969 160.648438 Z M 134.667969 160.648438 " fill-opacity="1" fill-rule="nonzero"/><path fill="#e81515" d="M 180.503906 130.6875 C 180.691406 131.03125 180.167969 131.332031 179.984375 130.988281 C 178.714844 128.628906 177.46875 126.25 176.261719 123.859375 C 176.085938 123.515625 176.601562 123.207031 176.777344 123.558594 C 177.988281 125.949219 179.226562 128.328125 180.503906 130.6875 Z M 179.359375 122.625 C 179.191406 122.277344 178.667969 122.582031 178.84375 122.925781 C 179.957031 125.191406 181.113281 127.429688 182.296875 129.652344 C 182.476562 129.996094 183 129.6875 182.816406 129.351562 C 181.625 127.128906 180.472656 124.890625 179.359375 122.625 Z M 184.96875 128.40625 C 183.898438 126.097656 182.785156 123.8125 181.625 121.546875 C 181.449219 121.203125 180.925781 121.503906 181.105469 121.847656 C 182.265625 124.113281 183.382812 126.402344 184.453125 128.707031 C 184.609375 129.0625 185.132812 128.753906 184.96875 128.40625 Z M 98.210938 156.617188 C 98.082031 156.257812 97.5 156.414062 97.632812 156.78125 C 98.238281 158.492188 98.847656 160.199219 99.457031 161.910156 C 99.582031 162.273438 100.164062 162.117188 100.03125 161.75 C 99.425781 160.039062 98.816406 158.328125 98.210938 156.617188 Z M 99.796875 156.863281 C 99.628906 156.515625 99.105469 156.824219 99.28125 157.164062 C 99.863281 158.359375 100.449219 159.554688 101.03125 160.75 C 101.199219 161.097656 101.722656 160.792969 101.550781 160.449219 C 100.964844 159.25 100.382812 158.058594 99.796875 156.863281 Z M 98.816406 163.851562 C 97.792969 164.65625 96.742188 165.414062 95.652344 166.136719 C 95.332031 166.347656 95.632812 166.875 95.953125 166.65625 C 97.082031 165.910156 98.179688 165.113281 99.238281 164.277344 C 99.363281 164.175781 99.347656 163.957031 99.238281 163.851562 C 99.117188 163.722656 98.945312 163.746094 98.816406 163.851562 Z M 98.859375 166.097656 C 98.167969 166.609375 97.476562 167.121094 96.78125 167.632812 C 96.648438 167.726562 96.585938 167.890625 96.675781 168.042969 C 96.753906 168.167969 96.957031 168.246094 97.082031 168.148438 C 97.777344 167.636719 98.46875 167.125 99.160156 166.613281 C 99.292969 166.519531 99.359375 166.355469 99.269531 166.203125 C 99.195312 166.078125 98.992188 166 98.859375 166.097656 Z M 98.859375 166.097656 " fill-opacity="1" fill-rule="nonzero"/></svg>