<svg xmlns="http://www.w3.org/2000/svg" xmlns:xlink="http://www.w3.org/1999/xlink" width="559" zoomAndPan="magnify" viewBox="0 0 419.25 297.749993" height="396" preserveAspectRatio="xMidYMid meet" version="1.0"><defs><clipPath id="id1"><path d="M 0 0.140625 L 418.5 0.140625 L 418.5 297.359375 L 0 297.359375 Z M 0 0.140625 " clip-rule="nonzero"/></clipPath><clipPath id="id2"><path d="M 276.207031 157 L 318.941406 157 L 318.941406 249.644531 L 276.207031 249.644531 Z M 276.207031 157 " clip-rule="nonzero"/></clipPath><clipPath id="id3"><path d="M 295 203 L 318.941406 203 L 318.941406 229 L 295 229 Z M 295 203 " clip-rule="nonzero"/></clipPath><clipPath id="id4"><path d="M 265.546875 254.28125 L 274.355469 254.28125 L 274.355469 272.824219 L 265.546875 272.824219 Z M 265.546875 254.28125 " clip-rule="nonzero"/></clipPath><clipPath id="id5"><path d="M 265.742188 254.410156 C 265.742188 260.007812 268.558594 265.601562 266.414062 270.886719 C 266.964844 271.988281 267.164062 272.792969 267.164062 272.792969 C 268.527344 270.070312 268.527344 264.960938 268.527344 264.960938 C 269.980469 268.59375 272.980469 268.605469 274.226562 268.558594 C 273.878906 268.226562 273.421875 267.433594 272.945312 266.363281 C 269.609375 264.851562 266.871094 258.375 265.742188 254.410156 " clip-rule="nonzero"/></clipPath><clipPath id="id6"><path d="M 265.742188 254.410156 C 265.742188 260.007812 268.558594 265.601562 266.414062 270.886719 C 266.964844 271.988281 267.164062 272.792969 267.164062 272.792969 C 268.527344 270.070312 268.527344 264.960938 268.527344 264.960938 C 269.980469 268.59375 272.980469 268.605469 274.226562 268.558594 C 273.878906 268.226562 273.421875 267.433594 272.945312 266.363281 C 269.609375 264.851562 266.871094 258.375 265.742188 254.410156 " clip-rule="nonzero"/></clipPath><clipPath id="id7"><path d="M 255.351562 183.34375 L 285.941406 183.34375 L 285.941406 266.335938 L 255.351562 266.335938 Z M 255.351562 183.34375 " clip-rule="nonzero"/></clipPath><clipPath id="id8"><path d="M 285.894531 196.480469 C 284.871094 183.199219 277.722656 176.042969 267.164062 196.820312 C 256.605469 217.605469 256.949219 243.5 255.925781 250.992188 C 255.371094 255.078125 256.230469 258.554688 257.734375 261.257812 C 260.441406 261.105469 262.082031 262.175781 263.929688 266.175781 C 259.722656 255.300781 263.398438 245.789062 269.902344 237.84375 C 270.636719 235.007812 271.894531 231.71875 273.976562 227.824219 C 275.757812 224.488281 277.355469 221.136719 278.75 217.925781 C 277.398438 215.839844 274.984375 214.511719 273.425781 212.335938 C 272.523438 211.878906 272.070312 209.617188 273.425781 208.257812 C 278.003906 205.113281 282.21875 202.144531 285.613281 198.328125 C 285.820312 197.402344 285.917969 196.761719 285.894531 196.480469 " clip-rule="nonzero"/></clipPath><clipPath id="id9"><path d="M 285.894531 196.480469 C 284.871094 183.199219 277.722656 176.042969 267.164062 196.820312 C 256.605469 217.605469 256.949219 243.5 255.925781 250.992188 C 255.371094 255.078125 256.230469 258.554688 257.734375 261.257812 C 260.441406 261.105469 262.082031 262.175781 263.929688 266.175781 C 259.722656 255.300781 263.398438 245.789062 269.902344 237.84375 C 270.636719 235.007812 271.894531 231.71875 273.976562 227.824219 C 275.757812 224.488281 277.355469 221.136719 278.75 217.925781 C 277.398438 215.839844 274.984375 214.511719 273.425781 212.335938 C 272.523438 211.878906 272.070312 209.617188 273.425781 208.257812 C 278.003906 205.113281 282.21875 202.144531 285.613281 198.328125 C 285.820312 197.402344 285.917969 196.761719 285.894531 196.480469 " clip-rule="nonzero"/></clipPath><clipPath id="id10"><path d="M 137.167969 95 L 295.210938 95 L 295.210938 284.035156 L 137.167969 284.035156 Z M 137.167969 95 " clip-rule="nonzero"/></clipPath><clipPath id="id11"><path d="M 142.855469 105 L 166.832031 105 L 166.832031 161.710938 L 142.855469 161.710938 Z M 142.855469 105 " clip-rule="nonzero"/></clipPath><clipPath id="id12"><path d="M 165.707031 112.046875 C 164.914062 107.289062 158.667969 104.589844 152.835938 105.683594 C 152.363281 114.78125 153.609375 128.316406 152.398438 140.101562 C 152.398438 140.101562 152.742188 146.742188 149.335938 152.191406 C 148.101562 154.164062 145.398438 157.480469 142.855469 161.710938 C 154.53125 146.566406 170.402344 133.953125 165.707031 112.046875 " clip-rule="nonzero"/></clipPath><clipPath id="id13"><path d="M 165.707031 112.046875 C 164.914062 107.289062 158.667969 104.589844 152.835938 105.683594 C 152.363281 114.78125 153.609375 128.316406 152.398438 140.101562 C 152.398438 140.101562 152.742188 146.742188 149.335938 152.191406 C 148.101562 154.164062 145.398438 157.480469 142.855469 161.710938 C 154.53125 146.566406 170.402344 133.953125 165.707031 112.046875 " clip-rule="nonzero"/></clipPath><linearGradient x1="0.0000301193" gradientTransform="matrix(23.697759, 0, 0, 58.975967, 142.854813, 103.660811)" y1="0" x2="1.011738" gradientUnits="userSpaceOnUse" y2="0" id="id14"><stop stop-opacity="1" stop-color="rgb(67.498779%, 45.498657%, 25.898743%)" offset="0"/><stop stop-opacity="1" stop-color="rgb(67.327881%, 45.498657%, 25.898743%)" offset="0.015625"/><stop stop-opacity="1" stop-color="rgb(67.127991%, 45.349121%, 25.898743%)" offset="0.03125"/><stop stop-opacity="1" stop-color="rgb(66.952515%, 45.149231%, 25.898743%)" offset="0.0625"/><stop stop-opacity="1" stop-color="rgb(66.685486%, 45.031738%, 25.898743%)" offset="0.078125"/><stop stop-opacity="1" stop-color="rgb(66.386414%, 44.831848%, 25.852966%)" offset="0.09375"/><stop stop-opacity="1" stop-color="rgb(66.036987%, 44.682312%, 25.653076%)" offset="0.109375"/><stop stop-opacity="1" stop-color="rgb(65.684509%, 44.483948%, 25.498962%)" offset="0.125"/><stop stop-opacity="1" stop-color="rgb(65.501404%, 44.13147%, 25.498962%)" offset="0.140625"/><stop stop-opacity="1" stop-color="rgb(65.361023%, 43.930054%, 25.498962%)" offset="0.15625"/><stop stop-opacity="1" stop-color="rgb(65.159607%, 43.899536%, 25.456238%)" offset="0.171875"/><stop stop-opacity="1" stop-color="rgb(65.007019%, 43.807983%, 25.256348%)" offset="0.1875"/><stop stop-opacity="1" stop-color="rgb(64.746094%, 43.547058%, 25.038147%)" offset="0.203125"/><stop stop-opacity="1" stop-color="rgb(64.437866%, 43.238831%, 24.838257%)" offset="0.21875"/><stop stop-opacity="1" stop-color="rgb(64.241028%, 43.041992%, 24.699402%)" offset="0.226562"/><stop stop-opacity="1" stop-color="rgb(64.027405%, 42.842102%, 24.699402%)" offset="0.234375"/><stop stop-opacity="1" stop-color="rgb(63.700867%, 42.698669%, 24.699402%)" offset="0.25"/><stop stop-opacity="1" stop-color="rgb(63.348389%, 42.698669%, 24.699402%)" offset="0.28125"/><stop stop-opacity="1" stop-color="rgb(63.131714%, 42.619324%, 24.59259%)" offset="0.296875"/><stop stop-opacity="1" stop-color="rgb(63.017273%, 42.38739%, 24.3927%)" offset="0.3125"/><stop stop-opacity="1" stop-color="rgb(62.773132%, 42.11731%, 24.299622%)" offset="0.328125"/><stop stop-opacity="1" stop-color="rgb(62.475586%, 41.970825%, 24.299622%)" offset="0.34375"/><stop stop-opacity="1" stop-color="rgb(62.17041%, 41.769409%, 24.118042%)" offset="0.375"/><stop stop-opacity="1" stop-color="rgb(61.846924%, 41.447449%, 23.918152%)" offset="0.390625"/><stop stop-opacity="1" stop-color="rgb(61.647034%, 41.247559%, 23.899841%)" offset="0.40625"/><stop stop-opacity="1" stop-color="rgb(61.494446%, 41.094971%, 23.899841%)" offset="0.421875"/><stop stop-opacity="1" stop-color="rgb(61.305237%, 40.905762%, 23.899841%)" offset="0.429688"/><stop stop-opacity="1" stop-color="rgb(61.061096%, 40.809631%, 23.750305%)" offset="0.4375"/><stop stop-opacity="1" stop-color="rgb(60.803223%, 40.751648%, 23.550415%)" offset="0.453125"/><stop stop-opacity="1" stop-color="rgb(60.551453%, 40.551758%, 23.498535%)" offset="0.46875"/><stop stop-opacity="1" stop-color="rgb(60.231018%, 40.231323%, 23.498535%)" offset="0.5"/><stop stop-opacity="1" stop-color="rgb(59.912109%, 39.912415%, 23.379517%)" offset="0.507812"/><stop stop-opacity="1" stop-color="rgb(59.580994%, 39.680481%, 23.179626%)" offset="0.515625"/><stop stop-opacity="1" stop-color="rgb(59.300232%, 39.599609%, 23.098755%)" offset="0.53125"/><stop stop-opacity="1" stop-color="rgb(59.199524%, 39.419556%, 23.098755%)" offset="0.546875"/><stop stop-opacity="1" stop-color="rgb(59.028625%, 39.219666%, 22.927856%)" offset="0.554687"/><stop stop-opacity="1" stop-color="rgb(58.828735%, 39.199829%, 22.727966%)" offset="0.5625"/><stop stop-opacity="1" stop-color="rgb(58.757019%, 39.199829%, 22.698975%)" offset="0.578125"/><stop stop-opacity="1" stop-color="rgb(58.543396%, 39.186096%, 22.698975%)" offset="0.59375"/><stop stop-opacity="1" stop-color="rgb(58.190918%, 38.990784%, 22.698975%)" offset="0.609375"/><stop stop-opacity="1" stop-color="rgb(57.844543%, 38.644409%, 22.698975%)" offset="0.617187"/><stop stop-opacity="1" stop-color="rgb(57.63855%, 38.438416%, 22.601318%)" offset="0.625"/><stop stop-opacity="1" stop-color="rgb(57.557678%, 38.398743%, 22.451782%)" offset="0.65625"/><stop stop-opacity="1" stop-color="rgb(57.452393%, 38.398743%, 22.399902%)" offset="0.671875"/><stop stop-opacity="1" stop-color="rgb(57.228088%, 38.282776%, 22.399902%)" offset="0.6875"/><stop stop-opacity="1" stop-color="rgb(56.983948%, 38.082886%, 22.302246%)" offset="0.695312"/><stop stop-opacity="1" stop-color="rgb(56.858826%, 37.95929%, 22.10083%)" offset="0.703125"/><stop stop-opacity="1" stop-color="rgb(56.658936%, 37.75177%, 21.998596%)" offset="0.71875"/><stop stop-opacity="1" stop-color="rgb(56.338501%, 37.440491%, 21.998596%)" offset="0.75"/><stop stop-opacity="1" stop-color="rgb(56.04248%, 37.298584%, 21.902466%)" offset="0.757812"/><stop stop-opacity="1" stop-color="rgb(55.802917%, 37.298584%, 21.702576%)" offset="0.765625"/><stop stop-opacity="1" stop-color="rgb(55.699158%, 37.19635%, 21.598816%)" offset="0.78125"/><stop stop-opacity="1" stop-color="rgb(55.621338%, 36.91864%, 21.598816%)" offset="0.796875"/><stop stop-opacity="1" stop-color="rgb(55.36499%, 36.621094%, 21.598816%)" offset="0.8125"/><stop stop-opacity="1" stop-color="rgb(55.04303%, 36.39679%, 21.496582%)" offset="0.828125"/><stop stop-opacity="1" stop-color="rgb(54.84314%, 36.196899%, 21.296692%)" offset="0.835937"/><stop stop-opacity="1" stop-color="rgb(54.64325%, 36.099243%, 21.199036%)" offset="0.84375"/><stop stop-opacity="1" stop-color="rgb(54.350281%, 35.951233%, 21.051025%)" offset="0.875"/><stop stop-opacity="1" stop-color="rgb(54.089355%, 35.688782%, 20.851135%)" offset="0.890625"/><stop stop-opacity="1" stop-color="rgb(53.837585%, 35.437012%, 20.698547%)" offset="0.90625"/><stop stop-opacity="1" stop-color="rgb(53.627014%, 35.227966%, 20.568848%)" offset="0.921875"/><stop stop-opacity="1" stop-color="rgb(53.384399%, 35.028076%, 20.626831%)" offset="0.9375"/><stop stop-opacity="1" stop-color="rgb(53.05481%, 34.899902%, 20.555115%)" offset="0.96875"/><stop stop-opacity="1" stop-color="rgb(52.726746%, 34.727478%, 20.399475%)" offset="1"/></linearGradient><clipPath id="id15"><path d="M 182.125 197.714844 L 239.59375 197.714844 L 239.59375 213.941406 L 182.125 213.941406 Z M 182.125 197.714844 " clip-rule="nonzero"/></clipPath><clipPath id="id16"><path d="M 218.25 207.035156 C 207.191406 207.957031 189.675781 210.722656 185.066406 197.8125 C 184.523438 201.621094 183.339844 205.105469 182.269531 208.464844 C 182.359375 208.328125 182.445312 208.1875 182.539062 208.0625 C 182.539062 208.0625 210.179688 218.445312 231.566406 211.300781 C 233.605469 206.597656 237.472656 202.441406 239.453125 197.8125 C 233.925781 204.265625 225.628906 207.035156 218.25 207.035156 " clip-rule="nonzero"/></clipPath><clipPath id="id17"><path d="M 218.25 207.035156 C 207.191406 207.957031 189.675781 210.722656 185.066406 197.8125 C 184.523438 201.621094 183.339844 205.105469 182.269531 208.464844 C 182.359375 208.328125 182.445312 208.1875 182.539062 208.0625 C 182.539062 208.0625 210.179688 218.445312 231.566406 211.300781 C 233.605469 206.597656 237.472656 202.441406 239.453125 197.8125 C 233.925781 204.265625 225.628906 207.035156 218.25 207.035156 " clip-rule="nonzero"/></clipPath><clipPath id="id18"><path d="M 143.65625 252.425781 L 162 252.425781 L 162 273.289062 L 143.65625 273.289062 Z M 143.65625 252.425781 " clip-rule="nonzero"/></clipPath><clipPath id="id19"><path d="M 160.347656 264.167969 C 160.058594 264.046875 159.761719 263.957031 159.449219 263.914062 C 157.1875 263.460938 157.1875 260.292969 155.832031 258.484375 C 155.382812 261.199219 155.382812 263.914062 156.738281 266.628906 C 152.667969 263.460938 152.667969 257.578125 152.214844 252.601562 C 151.308594 258.484375 148.144531 265.273438 152.214844 270.699219 C 145.882812 267.984375 144.976562 260.292969 146.789062 254.410156 C 145.574219 257.140625 144.367188 259.664062 143.972656 262.398438 C 144.378906 262.261719 144.800781 262.101562 145.25 261.890625 C 145.25 261.890625 144.738281 272.707031 155.976562 273.21875 C 155.976562 273.21875 152.910156 270.921875 153.929688 266.320312 C 153.929688 266.320312 156.488281 269.898438 161.851562 269.390625 L 160.0625 266.832031 C 160.0625 266.832031 160.257812 266.4375 160.347656 264.167969 " clip-rule="nonzero"/></clipPath><clipPath id="id20"><path d="M 160.347656 264.167969 C 160.058594 264.046875 159.761719 263.957031 159.449219 263.914062 C 157.1875 263.460938 157.1875 260.292969 155.832031 258.484375 C 155.382812 261.199219 155.382812 263.914062 156.738281 266.628906 C 152.667969 263.460938 152.667969 257.578125 152.214844 252.601562 C 151.308594 258.484375 148.144531 265.273438 152.214844 270.699219 C 145.882812 267.984375 144.976562 260.292969 146.789062 254.410156 C 145.574219 257.140625 144.367188 259.664062 143.972656 262.398438 C 144.378906 262.261719 144.800781 262.101562 145.25 261.890625 C 145.25 261.890625 144.738281 272.707031 155.976562 273.21875 C 155.976562 273.21875 152.910156 270.921875 153.929688 266.320312 C 153.929688 266.320312 156.488281 269.898438 161.851562 269.390625 L 160.0625 266.832031 C 160.0625 266.832031 160.257812 266.4375 160.347656 264.167969 " clip-rule="nonzero"/></clipPath><clipPath id="id21"><path d="M 138.097656 173.140625 L 166.832031 173.140625 L 166.832031 206.523438 L 138.097656 206.523438 Z M 138.097656 173.140625 " clip-rule="nonzero"/></clipPath><clipPath id="id22"><path d="M 157.1875 194.6875 C 157.1875 195.140625 159 193.785156 159.449219 194.6875 C 159.902344 196.949219 158.09375 198.308594 157.644531 200.570312 C 146.789062 197.855469 144.976562 184.28125 144.976562 174.777344 C 141.105469 177.160156 139.195312 181.902344 138.34375 186.796875 C 138.71875 187.976562 139.203125 189.15625 139.800781 190.351562 L 141.5 188.648438 C 141.5 188.648438 150.015625 204.660156 161.9375 203.296875 C 161.9375 203.296875 161.933594 204.332031 161.578125 206.34375 C 162.109375 205.316406 162.472656 204.277344 162.617188 203.285156 C 163.519531 198.308594 162.164062 193.332031 165.78125 189.257812 C 163.519531 190.164062 162.164062 191.972656 160.808594 193.785156 C 160.355469 186.539062 164.425781 180.207031 166.6875 173.421875 C 161.710938 179.304688 158.09375 186.996094 157.1875 194.6875 " clip-rule="nonzero"/></clipPath><clipPath id="id23"><path d="M 157.1875 194.6875 C 157.1875 195.140625 159 193.785156 159.449219 194.6875 C 159.902344 196.949219 158.09375 198.308594 157.644531 200.570312 C 146.789062 197.855469 144.976562 184.28125 144.976562 174.777344 C 141.105469 177.160156 139.195312 181.902344 138.34375 186.796875 C 138.71875 187.976562 139.203125 189.15625 139.800781 190.351562 L 141.5 188.648438 C 141.5 188.648438 150.015625 204.660156 161.9375 203.296875 C 161.9375 203.296875 161.933594 204.332031 161.578125 206.34375 C 162.109375 205.316406 162.472656 204.277344 162.617188 203.285156 C 163.519531 198.308594 162.164062 193.332031 165.78125 189.257812 C 163.519531 190.164062 162.164062 191.972656 160.808594 193.785156 C 160.355469 186.539062 164.425781 180.207031 166.6875 173.421875 C 161.710938 179.304688 158.09375 186.996094 157.1875 194.6875 " clip-rule="nonzero"/></clipPath><clipPath id="id24"><path d="M 248.402344 192.152344 L 290.574219 192.152344 L 290.574219 222.75 L 248.402344 222.75 Z M 248.402344 192.152344 " clip-rule="nonzero"/></clipPath><clipPath id="id25"><path d="M 271.167969 193.785156 C 266.644531 198.308594 263.929688 204.191406 260.3125 209.617188 C 256.695312 205.542969 253.527344 201.023438 249.003906 197.855469 C 248.550781 200.570312 249.003906 202.832031 250.359375 205.09375 C 253.527344 210.523438 255.789062 215.5 257.597656 221.382812 C 258.050781 222.285156 259.40625 222.738281 260.3125 222.285156 C 263.859375 218.5 267.410156 214.964844 271.21875 211.738281 C 271.933594 207.617188 276.675781 203.054688 281.8125 200.230469 C 284.695312 198.640625 287.699219 196.011719 290.132812 192.527344 C 284.628906 196.035156 278.230469 198.089844 271.621094 198.308594 C 271.167969 198.308594 270.714844 195.59375 271.167969 193.785156 " clip-rule="nonzero"/></clipPath><clipPath id="id26"><path d="M 271.167969 193.785156 C 266.644531 198.308594 263.929688 204.191406 260.3125 209.617188 C 256.695312 205.542969 253.527344 201.023438 249.003906 197.855469 C 248.550781 200.570312 249.003906 202.832031 250.359375 205.09375 C 253.527344 210.523438 255.789062 215.5 257.597656 221.382812 C 258.050781 222.285156 259.40625 222.738281 260.3125 222.285156 C 263.859375 218.5 267.410156 214.964844 271.21875 211.738281 C 271.933594 207.617188 276.675781 203.054688 281.8125 200.230469 C 284.695312 198.640625 287.699219 196.011719 290.132812 192.527344 C 284.628906 196.035156 278.230469 198.089844 271.621094 198.308594 C 271.167969 198.308594 270.714844 195.59375 271.167969 193.785156 " clip-rule="nonzero"/></clipPath><clipPath id="id27"><path d="M 249.789062 264.480469 L 259.523438 264.480469 L 259.523438 278 L 249.789062 278 Z M 249.789062 264.480469 " clip-rule="nonzero"/></clipPath><clipPath id="id28"><path d="M 250.359375 264.816406 C 248.714844 270.992188 251.9375 277.542969 258.324219 277.992188 C 257.238281 277.355469 256.101562 276.515625 256.269531 275.179688 C 256.269531 275.179688 257.390625 275.300781 259.246094 274.800781 C 254.605469 273.300781 251.046875 269.972656 250.359375 264.816406 " clip-rule="nonzero"/></clipPath><clipPath id="id29"><path d="M 250.359375 264.816406 C 248.714844 270.992188 251.9375 277.542969 258.324219 277.992188 C 257.238281 277.355469 256.101562 276.515625 256.269531 275.179688 C 256.269531 275.179688 257.390625 275.300781 259.246094 274.800781 C 254.605469 273.300781 251.046875 269.972656 250.359375 264.816406 " clip-rule="nonzero"/></clipPath><clipPath id="id30"><path d="M 243.300781 264.015625 L 252.570312 264.015625 L 252.570312 283 L 243.300781 283 Z M 243.300781 264.015625 " clip-rule="nonzero"/></clipPath><clipPath id="id31"><path d="M 245.386719 264.367188 C 243.839844 269.394531 242.628906 275.742188 245.414062 280.308594 C 245.445312 278.886719 245.683594 277.335938 246.394531 276.203125 C 246.394531 276.203125 248.257812 282.03125 252.363281 282.976562 C 247.191406 278.722656 246.132812 271.085938 245.386719 264.367188 " clip-rule="nonzero"/></clipPath><clipPath id="id32"><path d="M 245.386719 264.367188 C 243.839844 269.394531 242.628906 275.742188 245.414062 280.308594 C 245.445312 278.886719 245.683594 277.335938 246.394531 276.203125 C 246.394531 276.203125 248.257812 282.03125 252.363281 282.976562 C 247.191406 278.722656 246.132812 271.085938 245.386719 264.367188 " clip-rule="nonzero"/></clipPath><clipPath id="id33"><path d="M 253 12.710938 L 278 12.710938 L 278 49 L 253 49 Z M 253 12.710938 " clip-rule="nonzero"/></clipPath></defs><g clip-path="url(#id1)"><path fill="#d0a062" d="M 0 0.140625 L 418.5 0.140625 L 418.5 297.359375 L 0 297.359375 Z M 0 0.140625 " fill-opacity="1" fill-rule="nonzero"/><path fill="#ffffff" d="M 0 0.140625 L 418.5 0.140625 L 418.5 297.359375 L 0 297.359375 Z M 0 0.140625 " fill-opacity="1" fill-rule="nonzero"/><path fill="#d0a062" d="M 0 0.140625 L 418.5 0.140625 L 418.5 297.359375 L 0 297.359375 Z M 0 0.140625 " fill-opacity="1" fill-rule="nonzero"/></g><path fill="#8e949b" d="M 247.945312 93.667969 C 244.710938 92.511719 236.746094 94.824219 233.746094 99.210938 C 230.742188 103.601562 222.082031 120.003906 222.082031 120.003906 C 222.082031 120.003906 226.699219 119.773438 228.664062 120.929688 C 230.625 122.082031 231.085938 125.78125 231.085938 125.78125 C 231.085938 125.78125 246.558594 109.722656 248.871094 103.949219 C 251.175781 98.171875 247.945312 93.667969 247.945312 93.667969 " fill-opacity="1" fill-rule="nonzero"/><path fill="#8e949b" d="M 223.808594 120.351562 C 223.808594 120.351562 198.714844 122.542969 198.273438 122.890625 C 197.832031 123.238281 197.390625 127.050781 198.273438 128.433594 C 199.15625 129.820312 215.738281 131.785156 221.597656 132.132812 C 227.457031 132.476562 234.089844 128.667969 234.089844 128.667969 C 234.089844 128.667969 231.4375 126.933594 230.882812 125.316406 C 230.332031 123.699219 229.226562 121.15625 223.808594 120.351562 " fill-opacity="1" fill-rule="nonzero"/><path fill="#9f342d" d="M 251.40625 87.027344 C 251.40625 87.027344 258.855469 84.253906 269.421875 89.105469 C 279.984375 93.957031 279.464844 104.179688 280.332031 113.015625 C 281.199219 121.851562 282.238281 131.207031 291.589844 125.144531 C 300.941406 119.078125 300.769531 125.316406 300.769531 125.316406 C 300.769531 125.316406 299.558594 128.089844 303.019531 128.609375 C 306.484375 129.128906 303.714844 145.242188 283.96875 141.253906 C 264.226562 137.269531 265.957031 124.277344 264.917969 112.839844 C 263.835938 100.917969 259.203125 92.222656 251.40625 87.027344 " fill-opacity="1" fill-rule="nonzero"/><path fill="#a6abb2" d="M 226.816406 107.992188 C 226.296875 108.164062 228.199219 122.023438 227.855469 124.625 C 227.507812 127.222656 227.679688 130.6875 227.679688 130.6875 C 227.679688 130.6875 244.480469 139.523438 252.621094 137.097656 C 252.621094 137.097656 254.007812 123.585938 255.910156 116.480469 C 257.816406 109.375 261.28125 94.824219 254.871094 89.796875 C 248.464844 84.773438 235.128906 93.957031 232.183594 96.382812 C 229.238281 98.808594 226.816406 107.992188 226.816406 107.992188 " fill-opacity="1" fill-rule="nonzero"/><path fill="#8e949b" d="M 244.828125 127.050781 C 244.132812 127.050781 244.132812 124.277344 244.828125 123.585938 C 253.140625 116.652344 260.761719 105.5625 255.910156 97.246094 C 251.0625 90.316406 239.976562 100.714844 235.820312 108.335938 C 234.148438 111.6875 231.570312 115.480469 227.371094 116.46875 C 227.707031 119.953125 228.011719 123.445312 227.855469 124.625 C 227.507812 127.222656 227.679688 130.6875 227.679688 130.6875 C 227.679688 130.6875 242.53125 138.496094 251.074219 137.414062 C 253.125 131.894531 249.664062 129.816406 244.828125 127.050781 " fill-opacity="1" fill-rule="nonzero"/><path fill="#5e4d67" d="M 235.707031 90.203125 C 235.707031 90.203125 228.085938 94.1875 226.007812 108.222656 C 226.007812 108.222656 231.203125 116.019531 240.035156 106.660156 C 248.871094 97.304688 251.121094 90.546875 255.449219 89.855469 C 255.449219 89.855469 254.066406 86.214844 247.3125 86.738281 C 240.554688 87.257812 235.707031 90.203125 235.707031 90.203125 " fill-opacity="1" fill-rule="nonzero"/><path fill="#ce3732" d="M 255.046875 90.316406 C 255.046875 90.316406 265.785156 87.71875 273.921875 93.4375 C 282.066406 99.15625 280.160156 110.242188 283.621094 119.945312 C 287.085938 129.648438 289.683594 130.863281 294.535156 129.820312 C 299.382812 128.78125 305.964844 123.929688 310.640625 132.074219 C 310.640625 132.074219 305.445312 130.339844 303.019531 133.980469 C 300.59375 137.617188 294.535156 143.164062 283.96875 139.871094 C 273.402344 136.578125 268.207031 124.96875 267.6875 112.320312 C 267.167969 99.675781 264.917969 92.742188 255.390625 91.878906 L 255.046875 90.316406 " fill-opacity="1" fill-rule="nonzero"/><path fill="#988ba5" d="M 248.523438 90.664062 C 248.523438 90.636719 247.121094 91.289062 245.398438 93.007812 C 243.617188 94.613281 241.375 97.191406 238.121094 98.816406 C 235.097656 100.574219 230.390625 100.015625 231.214844 96.890625 C 231.546875 94.53125 232.425781 93.214844 232.359375 93.207031 C 232.390625 93.207031 231.40625 94.425781 230.945312 96.859375 C 230.632812 97.984375 231.277344 100.03125 233.160156 100.15625 C 234.800781 100.414062 236.640625 100.082031 238.332031 99.257812 C 241.71875 97.554688 243.890625 94.875 245.585938 93.199219 C 247.222656 91.414062 248.527344 90.675781 248.523438 90.664062 " fill-opacity="1" fill-rule="nonzero"/><path fill="#988ba5" d="M 248.40625 92.050781 C 248.421875 92.050781 246.855469 92.773438 244.929688 94.707031 C 242.945312 96.558594 240.554688 99.484375 237.324219 101.980469 C 235.707031 103.171875 233.941406 104.21875 232.21875 104.195312 C 230.414062 104.1875 229.539062 102.453125 229.386719 101.199219 C 229.015625 98.535156 229.800781 96.898438 229.703125 96.902344 C 229.769531 96.890625 228.851562 98.464844 229.117188 101.238281 C 229.195312 102.515625 230.113281 104.546875 232.195312 104.613281 C 234.125 104.671875 235.945312 103.589844 237.609375 102.371094 C 243.808594 96.796875 247.980469 91.613281 248.40625 92.050781 " fill-opacity="1" fill-rule="nonzero"/><path fill="#988ba5" d="M 248.871094 93.089844 C 248.480469 92.648438 243.628906 98.433594 237.019531 104.738281 C 234.078125 107.796875 228.609375 109.972656 227.539062 106.277344 C 226.742188 103.382812 227.753906 101.496094 227.625 101.523438 C 227.726562 101.496094 226.566406 103.292969 227.28125 106.359375 C 227.550781 108.007812 229.75 109.167969 231.75 108.472656 C 233.75 107.957031 235.613281 106.621094 237.339844 105.105469 C 244.027344 98.71875 248.507812 92.730469 248.871094 93.089844 " fill-opacity="1" fill-rule="nonzero"/><path fill="#d7a87d" d="M 236.6875 90.839844 C 236.6875 90.839844 232.183594 97.59375 235.648438 97.59375 C 239.109375 97.59375 247.773438 90.144531 247.597656 88.238281 C 247.425781 86.332031 236.6875 90.839844 236.6875 90.839844 " fill-opacity="1" fill-rule="nonzero"/><path fill="#f19c1b" d="M 195.183594 123.054688 L 196.09375 124.925781 C 196.1875 124.878906 198.453125 123.84375 200.472656 125.730469 C 201.09375 126.308594 202.269531 128.261719 203.519531 130.332031 C 207.425781 136.808594 212.777344 145.683594 217.703125 142.789062 L 216.648438 140.996094 C 213.496094 142.847656 208.164062 134.007812 205.300781 129.257812 C 203.804688 126.777344 202.722656 124.988281 201.894531 124.210938 C 198.804688 121.328125 195.332031 122.984375 195.183594 123.054688 " fill-opacity="1" fill-rule="nonzero"/><path fill="#a57550" d="M 152.644531 73.550781 C 152.644531 73.550781 163.929688 65.886719 166.300781 62.03125 C 168.671875 58.171875 169.277344 59.507812 169.777344 62.558594 C 170.273438 65.605469 165.59375 78.769531 152.644531 73.550781 " fill-opacity="1" fill-rule="nonzero"/><path fill="#492017" d="M 201.964844 130.6875 C 198.460938 131.613281 198.609375 128.792969 198.609375 128.792969 C 200.988281 127.152344 199.773438 124.390625 199.773438 124.390625 C 192.910156 123.164062 192.464844 86.609375 190.609375 81.578125 C 188.75 76.542969 181.378906 74.144531 181.378906 74.144531 C 183.363281 73.882812 183.652344 72.164062 183.652344 72.164062 C 179.15625 73.21875 179.460938 71.84375 167.683594 68.445312 C 155.910156 65.046875 141.179688 72.859375 141.179688 72.859375 C 128.714844 74.441406 123.007812 84.925781 123.007812 84.925781 C 118.179688 86.671875 107.804688 98.386719 114.363281 106.960938 C 120.914062 115.539062 133.015625 105.789062 133.015625 105.789062 C 139.957031 102.585938 165.324219 121.578125 173.207031 139.640625 C 181.09375 157.707031 199.652344 150.992188 202.734375 146.765625 C 205.8125 142.535156 201.964844 130.6875 201.964844 130.6875 " fill-opacity="1" fill-rule="nonzero"/><path fill="#6c2f22" d="M 184.796875 107.101562 C 187.382812 108.34375 190.195312 108.558594 193.035156 107.945312 C 192.773438 106.09375 192.542969 104.191406 192.328125 102.289062 C 190.257812 104.519531 188.144531 106.601562 184.796875 107.101562 " fill-opacity="1" fill-rule="nonzero"/><path fill="#6c2f22" d="M 186.242188 117.910156 C 188.773438 120.082031 192.1875 119.625 195.132812 118.46875 C 194.710938 117.050781 194.328125 115.441406 193.992188 113.703125 C 191.886719 115.765625 188.535156 115.941406 186.242188 117.910156 " fill-opacity="1" fill-rule="nonzero"/><path fill="#3e1213" d="M 199.695312 132.710938 C 198.433594 136.84375 195.222656 140.605469 190.949219 142.15625 C 188.566406 142.714844 185.113281 141.054688 185.550781 140.132812 C 190.1875 135.847656 196.328125 132.859375 196.988281 126.035156 C 195.285156 131.09375 189.765625 137.226562 184.328125 134.296875 C 181.859375 133.046875 178.691406 126.847656 182.523438 126.226562 C 186.335938 125.152344 192.613281 125.324219 194.839844 121.148438 C 192.492188 122.613281 189.644531 123.644531 187.175781 122.394531 C 183.707031 120.285156 179.753906 118.195312 179.554688 113.675781 C 183.445312 114.410156 188.300781 115.097656 191.53125 111.785156 C 185.855469 114.300781 180.796875 109.09375 179.613281 104.164062 C 184.5 105.183594 190.007812 102.03125 192.605469 97.957031 C 192.589844 97.761719 192.570312 97.574219 192.550781 97.382812 C 187.796875 101.234375 179.894531 102.902344 176.863281 96.585938 C 182.160156 96.347656 189.78125 94.199219 190.464844 87.824219 C 187.734375 91.574219 179.714844 95.550781 175.640625 90.753906 C 181.417969 90.492188 186.152344 88.472656 190.847656 85.546875 C 181.277344 87.332031 169.78125 89.199219 162.757812 83.171875 C 159.269531 80.609375 165.183594 72.648438 169.878906 69.71875 C 161.734375 70.988281 156.757812 78.457031 156.117188 85.734375 C 152.667969 84.074219 147.652344 79.769531 149.878906 75.59375 C 145.726562 79.855469 147.953125 86.546875 152.425781 89.519531 C 149.054688 89.667969 144.703125 89.410156 142.175781 86.804688 C 139.125 83.316406 141.332031 78.6875 144.078125 75.394531 C 139.929688 79.65625 137.824219 86.546875 142.855469 91.300781 C 139.585938 93.714844 135.855469 96.59375 131.441406 94.980469 C 127.007812 92.914062 127.167969 85.660156 130.878906 82.324219 C 126.183594 85.25 125.464844 90.71875 127.109375 95.175781 C 128.171875 97.390625 130.160156 98.660156 132.605469 99.460938 C 130.296875 101.824219 126.484375 102.902344 124.019531 101.648438 C 120.085938 100.015625 118.882812 94.636719 121.128906 90.910156 C 118.402344 94.65625 118.140625 99.648438 119.746094 103.203125 C 121.757812 106.605469 125.578125 107.863281 129.714844 107.957031 C 131.707031 106.847656 133.015625 105.789062 133.015625 105.789062 C 134.460938 105.125 136.707031 105.417969 139.421875 106.46875 C 139.503906 106.441406 139.585938 106.417969 139.667969 106.394531 C 139.585938 106.417969 139.503906 106.441406 139.421875 106.46875 C 149.757812 110.449219 166.960938 125.335938 173.207031 139.640625 C 181.09375 157.707031 199.652344 150.992188 202.734375 146.765625 C 203.035156 146.347656 203.269531 145.859375 203.449219 145.3125 C 200.347656 142.628906 200.21875 137.023438 199.695312 132.710938 " fill-opacity="1" fill-rule="nonzero"/><path fill="#6c2f22" d="M 115.535156 106.171875 C 118.496094 100.332031 117.699219 93.414062 119.71875 87.527344 C 118.769531 88.324219 117.800781 89.289062 116.878906 90.390625 C 114.546875 95.644531 112.523438 101.375 115.535156 106.171875 " fill-opacity="1" fill-rule="nonzero"/><path fill="#6c2f22" d="M 144.625 72.011719 C 139.175781 76.003906 132.253906 79.640625 132.535156 86.003906 C 138.078125 81.644531 141.875 75.144531 147.421875 70.996094 C 146.402344 71.335938 145.464844 71.683594 144.625 72.011719 " fill-opacity="1" fill-rule="nonzero"/><path fill="#6c2f22" d="M 148.859375 75.421875 C 151.925781 71.574219 156.960938 69.902344 162.074219 68.238281 C 159.101562 68.246094 156.144531 68.710938 153.453125 69.359375 C 151.105469 70.898438 149.027344 72.722656 148.859375 75.421875 " fill-opacity="1" fill-rule="nonzero"/><path fill="#6c2f22" d="M 166.324219 77.125 C 171.113281 77.234375 174.570312 74.675781 178.375 72.433594 C 177.261719 72.207031 175.988281 71.714844 173.875 70.960938 C 171.253906 72.800781 168.1875 74.238281 166.324219 77.125 " fill-opacity="1" fill-rule="nonzero"/><path fill="#6c2f22" d="M 182.117188 96.976562 C 185.449219 98.363281 188.679688 97.464844 191.90625 96.539062 C 191.78125 95.257812 191.664062 94.011719 191.546875 92.820312 C 189.167969 95.523438 185.46875 96.433594 182.117188 96.976562 " fill-opacity="1" fill-rule="nonzero"/><path fill="#6c2f22" d="M 124.984375 97.492188 C 125.503906 91.585938 124.992188 83.933594 129.328125 78.878906 C 127.464844 80.367188 126.046875 81.910156 125.042969 83.160156 C 122.050781 88.226562 119.175781 93.777344 124.984375 97.492188 " fill-opacity="1" fill-rule="nonzero"/><g clip-path="url(#id2)"><path fill="#492017" d="M 292.367188 162.582031 C 292.367188 162.582031 298.242188 173.824219 297.984375 191.96875 C 297.730469 210.109375 311.011719 225.695312 316.632812 209.597656 C 316.632812 209.597656 319.695312 212.410156 317.652344 217.519531 C 317.652344 217.519531 323.523438 230.296875 310.246094 237.449219 C 310.246094 237.449219 312.289062 239.238281 315.609375 237.960938 C 315.609375 237.960938 311.265625 249.96875 297.984375 249.460938 C 284.703125 248.945312 273.722656 237.191406 277.296875 220.585938 C 280.871094 203.976562 288.789062 190.433594 284.449219 171.785156 C 280.105469 153.132812 287.257812 154.917969 292.367188 162.582031 " fill-opacity="1" fill-rule="nonzero"/></g><path fill="#6c2f22" d="M 297.398438 229.078125 C 291.382812 219.042969 291.066406 202.972656 298.003906 193.78125 C 297.984375 193.179688 297.976562 192.574219 297.984375 191.96875 C 298.011719 190.011719 297.96875 188.136719 297.867188 186.347656 C 291.734375 200.609375 284.425781 218.386719 297.398438 229.078125 " fill-opacity="1" fill-rule="nonzero"/><path fill="#6c2f22" d="M 315.945312 215.953125 C 312.324219 216.402344 307.347656 218.667969 304.636719 214.59375 C 304.015625 213.660156 303.679688 212.707031 303.558594 211.742188 C 302.5 210.269531 301.53125 208.492188 300.703125 206.492188 C 300.902344 211.054688 302.03125 215.53125 304.183594 219.117188 C 307.347656 224.097656 312.773438 219.117188 315.945312 215.953125 " fill-opacity="1" fill-rule="nonzero"/><g clip-path="url(#id3)"><path fill="#3e1213" d="M 317.652344 217.519531 C 317.816406 217.117188 317.941406 216.722656 318.042969 216.351562 C 314.09375 222.085938 310.792969 224.097656 307.347656 224.097656 C 298.304688 224.097656 296.945312 210.976562 296.492188 203.285156 C 293.328125 214.144531 296.042969 232.691406 311.421875 228.167969 C 315.15625 227.234375 317.328125 224.609375 318.738281 221.417969 C 318.371094 219.078125 317.652344 217.519531 317.652344 217.519531 " fill-opacity="1" fill-rule="nonzero"/></g><path fill="#3e1213" d="M 284.28125 210.523438 C 280.664062 220.476562 282.023438 233.144531 291.066406 239.03125 C 297.71875 243.230469 305.453125 242.011719 312.175781 238.308594 C 311.328125 238.132812 310.738281 237.796875 310.445312 237.601562 C 303.382812 238.851562 296.351562 235.367188 291.972656 229.527344 C 286.996094 222.738281 286.996094 215.046875 288.808594 207.808594 C 292.183594 194.65625 296.496094 181.195312 294.496094 167.933594 C 293.347656 164.46875 292.367188 162.582031 292.367188 162.582031 C 287.257812 154.917969 280.105469 153.132812 284.449219 171.785156 C 288.789062 190.433594 280.871094 203.976562 277.296875 220.585938 C 274.5625 233.273438 280.332031 243.121094 289.128906 247.292969 C 280.84375 237.605469 277.734375 221.433594 284.28125 210.523438 " fill-opacity="1" fill-rule="nonzero"/><path fill="#6c2f22" d="M 288.355469 240.386719 C 291.195312 247.136719 298.496094 249.421875 305.222656 248.339844 C 308.066406 247.261719 310.230469 245.566406 311.824219 243.847656 C 304.28125 246.777344 295.449219 245.710938 288.355469 240.386719 " fill-opacity="1" fill-rule="nonzero"/><path fill="#492017" d="M 112.898438 211.984375 C 112.898438 211.984375 111.535156 217.433594 113.746094 222.375 C 115.960938 227.3125 117.664062 232.421875 116.984375 234.808594 C 116.300781 237.191406 129.921875 232.421875 129.753906 222.03125 C 129.582031 211.640625 113.917969 206.1875 112.898438 211.984375 " fill-opacity="1" fill-rule="nonzero"/><path fill="#300f11" d="M 112.898438 211.984375 C 112.898438 211.984375 112.777344 212.453125 112.671875 213.238281 C 113.882812 214.734375 115.203125 216.179688 115.578125 217.3125 C 116.9375 223.644531 124.171875 223.191406 125.53125 226.363281 C 127.613281 230.871094 122.242188 233.785156 116.972656 234.898438 C 116.675781 237.058594 129.921875 232.285156 129.753906 222.03125 C 129.582031 211.640625 113.917969 206.1875 112.898438 211.984375 " fill-opacity="1" fill-rule="nonzero"/><path fill="#a57550" d="M 153.25 198.183594 C 153.25 198.183594 144.566406 200.398438 136.90625 199.546875 C 129.242188 198.695312 126.855469 199.546875 126.6875 201.421875 C 126.519531 203.296875 125.328125 215.347656 134.136719 219.179688 C 134.136719 219.179688 132.859375 221.351562 130.433594 221.351562 C 130.433594 221.351562 131.582031 222.753906 134.011719 223.011719 C 134.011719 223.011719 126.21875 225.820312 120.855469 222.503906 C 115.492188 219.179688 117.410156 213.941406 112.171875 212.152344 C 112.171875 212.152344 114.089844 204.742188 112.683594 197.078125 C 111.277344 189.414062 113.703125 186.855469 116.644531 185.835938 C 119.578125 184.8125 131.457031 187.878906 141.035156 183.792969 C 150.609375 179.703125 156.65625 192.050781 153.25 198.183594 " fill-opacity="1" fill-rule="nonzero"/><path fill="#492017" d="M 264.441406 266.832031 C 264.441406 266.832031 266.65625 271.261719 260.523438 272.457031 C 254.394531 273.648438 250.480469 273.644531 250.992188 270.75 C 251.5 267.855469 255.246094 260.699219 258.652344 259.167969 C 262.054688 257.636719 263.082031 261.726562 264.441406 266.832031 " fill-opacity="1" fill-rule="nonzero"/><path fill="#300f11" d="M 258.050781 266.175781 C 261.0625 264.5 262.589844 267.785156 263.726562 271.066406 C 265.683594 269.320312 264.441406 266.832031 264.441406 266.832031 C 263.082031 261.726562 262.054688 257.636719 258.652344 259.167969 C 255.246094 260.699219 251.5 267.855469 250.992188 270.75 C 250.480469 273.644531 254.394531 273.648438 260.523438 272.457031 C 260.839844 272.394531 261.132812 272.320312 261.40625 272.242188 C 258.246094 271.199219 255.628906 267.789062 258.050781 266.175781 " fill-opacity="1" fill-rule="nonzero"/><path fill="#a57550" d="M 285.894531 196.480469 C 286.027344 198.183594 281.8125 213.175781 273.976562 227.824219 C 266.140625 242.476562 269.890625 248.605469 269.890625 254.058594 C 269.890625 259.507812 273.636719 269.390625 274.660156 268.707031 C 275.679688 268.023438 270.570312 270.070312 268.527344 264.960938 C 268.527344 264.960938 268.527344 270.070312 267.164062 272.792969 C 267.164062 272.792969 266.144531 268.707031 262.398438 266.320312 C 258.652344 263.9375 254.90625 258.484375 255.925781 250.992188 C 256.949219 243.5 256.605469 217.605469 267.164062 196.820312 C 277.722656 176.042969 284.871094 183.199219 285.894531 196.480469 " fill-opacity="1" fill-rule="nonzero"/><path fill="#f1f2f5" d="M 274.226562 268.558594 C 274.398438 268.722656 274.546875 268.78125 274.660156 268.707031 C 274.953125 268.507812 274.734375 268.539062 274.226562 268.558594 " fill-opacity="1" fill-rule="nonzero"/><g clip-path="url(#id4)"><g clip-path="url(#id5)"><g clip-path="url(#id6)"><path fill="#865733" d="M 278.839844 255.65625 L 266.3125 252.28125 L 261.128906 271.550781 L 273.652344 274.925781 Z M 278.839844 255.65625 " fill-opacity="1" fill-rule="nonzero"/></g></g></g><g clip-path="url(#id7)"><g clip-path="url(#id8)"><g clip-path="url(#id9)"><path fill="#865733" d="M 308.535156 182.132812 L 257.433594 168.371094 L 232.753906 260.085938 L 283.855469 273.847656 Z M 308.535156 182.132812 " fill-opacity="1" fill-rule="nonzero"/></g></g></g><path fill="#492017" d="M 138.4375 262.234375 C 138.4375 262.234375 133.667969 266.496094 131.796875 268.363281 C 129.921875 270.242188 130.09375 272.964844 134.179688 273.816406 C 138.265625 274.667969 148.652344 274.160156 152.058594 270.070312 C 155.46875 265.980469 152.742188 259.167969 148.824219 256.78125 C 144.910156 254.394531 138.4375 262.234375 138.4375 262.234375 " fill-opacity="1" fill-rule="nonzero"/><path fill="#300f11" d="M 148.824219 256.78125 C 144.910156 254.394531 138.4375 262.234375 138.4375 262.234375 C 138.4375 262.234375 137.890625 262.722656 137.097656 263.4375 C 137.160156 263.449219 137.222656 263.460938 137.289062 263.460938 C 141.8125 263.007812 146.789062 264.367188 144.976562 269.796875 C 144.167969 271.953125 142.070312 273.304688 139.648438 274.140625 C 144.238281 273.964844 149.75 272.839844 152.058594 270.070312 C 155.46875 265.980469 152.742188 259.167969 148.824219 256.78125 " fill-opacity="1" fill-rule="nonzero"/><path fill="#492017" d="M 231.828125 271.175781 C 231.828125 271.175781 225.195312 277.566406 225.957031 278.84375 C 226.722656 280.121094 236.683594 284.460938 243.582031 278.84375 C 250.480469 273.21875 249.96875 271.945312 249.96875 266.832031 C 249.96875 261.726562 236.175781 266.832031 231.828125 271.175781 " fill-opacity="1" fill-rule="nonzero"/><path fill="#300f11" d="M 249.96875 266.832031 C 249.96875 261.726562 236.175781 266.832031 231.828125 271.175781 C 231.828125 271.175781 231.628906 271.371094 231.304688 271.695312 C 231.140625 272.871094 231.136719 274.105469 230.914062 275.226562 C 233.171875 273.414062 235.4375 272.058594 238.601562 272.058594 C 237.542969 274.96875 238.34375 278.351562 238.101562 281.378906 C 239.992188 281.007812 241.878906 280.230469 243.582031 278.84375 C 250.480469 273.21875 249.96875 271.945312 249.96875 266.832031 " fill-opacity="1" fill-rule="nonzero"/><g clip-path="url(#id10)"><path fill="#9e6c43" d="M 295.089844 173.996094 C 294.066406 161.050781 285.214844 144.695312 269.207031 141.972656 C 253.203125 139.25 235.152344 143.164062 222.894531 144.1875 C 210.636719 145.210938 184.070312 153.894531 180.496094 134.988281 C 176.921875 116.082031 165.816406 95.21875 157.644531 95.21875 C 149.46875 95.21875 154.445312 120.167969 152.398438 140.101562 C 152.398438 140.101562 152.742188 146.742188 149.335938 152.191406 C 145.929688 157.644531 131.285156 173.316406 139.800781 190.351562 L 141.5 188.648438 C 141.5 188.648438 150.015625 204.660156 161.9375 203.296875 C 161.9375 203.296875 161.9375 212.492188 152.398438 229.871094 C 142.863281 247.242188 140.480469 257.464844 138.4375 262.234375 C 138.4375 262.234375 140.824219 263.9375 145.25 261.890625 C 145.25 261.890625 144.738281 272.707031 155.976562 273.21875 C 155.976562 273.21875 152.910156 270.921875 153.929688 266.320312 C 153.929688 266.320312 156.488281 269.898438 161.851562 269.390625 L 160.0625 266.832031 C 160.0625 266.832031 160.570312 265.8125 160.316406 257.636719 C 160.0625 249.460938 160.570312 240.261719 169.257812 231.574219 C 177.941406 222.886719 179.21875 212.410156 182.539062 208.0625 C 182.539062 208.0625 210.636719 218.625 232.089844 211.132812 C 232.089844 211.132812 227.664062 223.054688 236.855469 229.183594 C 246.050781 235.320312 249.117188 234.636719 247.074219 242.476562 C 245.03125 250.308594 242.304688 258.484375 238.902344 263.253906 C 235.496094 268.023438 232.429688 271.773438 232.429688 271.773438 C 232.429688 271.773438 237.539062 268.027344 240.601562 268.707031 C 240.601562 268.707031 235.496094 278.246094 245.710938 284.035156 C 245.710938 284.035156 244.6875 278.929688 246.394531 276.203125 C 246.394531 276.203125 250.515625 289.109375 260.015625 279.609375 C 261.035156 278.585938 255.925781 277.90625 256.269531 275.179688 C 256.269531 275.179688 259.335938 275.523438 263.761719 272.796875 C 263.761719 272.796875 253.203125 274.160156 256.609375 263.253906 C 260.015625 252.351562 263.761719 244.175781 272.613281 229.183594 C 281.472656 214.195312 275 220.332031 271.933594 215.558594 C 268.867188 210.789062 275 203.976562 281.8125 200.230469 C 288.621094 196.480469 296.113281 186.941406 295.089844 173.996094 " fill-opacity="1" fill-rule="nonzero"/></g><g clip-path="url(#id11)"><g clip-path="url(#id12)"><g clip-path="url(#id13)"><path fill="url(#id14)" d="M 142.855469 104.988281 L 142.855469 161.710938 L 166.832031 161.710938 L 166.832031 104.988281 Z M 142.855469 104.988281 " fill-rule="nonzero"/></g></g></g><g clip-path="url(#id15)"><g clip-path="url(#id16)"><g clip-path="url(#id17)"><path fill="#865733" d="M 244.632812 199.207031 L 186.132812 183.449219 L 177.089844 217.050781 L 235.589844 232.808594 Z M 244.632812 199.207031 " fill-opacity="1" fill-rule="nonzero"/></g></g></g><g clip-path="url(#id18)"><g clip-path="url(#id19)"><g clip-path="url(#id20)"><path fill="#865733" d="M 167.023438 253.996094 L 145.179688 248.109375 L 138.796875 271.824219 L 160.644531 277.710938 Z M 167.023438 253.996094 " fill-opacity="1" fill-rule="nonzero"/></g></g></g><g clip-path="url(#id21)"><g clip-path="url(#id22)"><g clip-path="url(#id23)"><path fill="#865733" d="M 174.949219 175.644531 L 140.257812 166.300781 L 130.082031 204.121094 L 164.773438 213.460938 Z M 174.949219 175.644531 " fill-opacity="1" fill-rule="nonzero"/></g></g></g><path fill="#a57550" d="M 266.910156 142.894531 C 264.722656 142.523438 262.5 142.273438 260.257812 142.128906 C 257.703125 148.527344 253.941406 154.695312 253.941406 161.671875 C 260.726562 161.21875 268.867188 154.433594 272.035156 158.050781 C 276.554688 163.9375 270.222656 173.890625 265.699219 181.128906 C 270.675781 179.773438 276.101562 177.960938 281.078125 176.152344 C 281.984375 175.699219 283.339844 180.675781 285.148438 181.128906 C 288.9375 181.128906 289.984375 174.863281 292.664062 173.628906 C 291.175781 160.910156 282.390625 145.53125 266.910156 142.894531 " fill-opacity="1" fill-rule="nonzero"/><g clip-path="url(#id24)"><g clip-path="url(#id25)"><g clip-path="url(#id26)"><path fill="#865733" d="M 297.710938 194.566406 L 251.363281 182.082031 L 240.96875 220.695312 L 287.320312 233.179688 Z M 297.710938 194.566406 " fill-opacity="1" fill-rule="nonzero"/></g></g></g><g clip-path="url(#id27)"><g clip-path="url(#id28)"><g clip-path="url(#id29)"><path fill="#865733" d="M 262.550781 265.707031 L 249.425781 262.171875 L 245.40625 277.101562 L 258.535156 280.636719 Z M 262.550781 265.707031 " fill-opacity="1" fill-rule="nonzero"/></g></g></g><g clip-path="url(#id30)"><g clip-path="url(#id31)"><g clip-path="url(#id32)"><path fill="#865733" d="M 257.03125 265.625 L 243.285156 261.921875 L 237.960938 281.714844 L 251.703125 285.417969 Z M 257.03125 265.625 " fill-opacity="1" fill-rule="nonzero"/></g></g></g><path fill="#9e6c43" d="M 174.050781 94.425781 C 162.09375 93.007812 153.25 87.832031 148.515625 89.746094 C 148.515625 89.746094 141.167969 94.84375 134.019531 97.878906 C 126.871094 100.910156 122.507812 105.394531 120.449219 110.484375 C 118.394531 115.578125 115.886719 125.664062 110.410156 133.019531 C 104.933594 140.375 102.0625 144.546875 100.8125 147.917969 C 99.566406 151.289062 103.152344 154.359375 104.910156 155.703125 C 106.664062 157.054688 104.238281 164.867188 110.824219 160.628906 C 110.824219 160.628906 108.320312 166.746094 114.503906 163.367188 C 120.683594 159.988281 123.132812 149.796875 129.792969 147.605469 C 136.453125 145.410156 145.652344 147.589844 152.507812 140.691406 C 159.359375 133.789062 160.917969 133.230469 164.554688 122.214844 C 168.1875 111.195312 162.28125 108.210938 165.589844 102.394531 C 165.589844 102.394531 186.847656 105.933594 194.261719 101.910156 C 201.671875 97.890625 186.011719 95.84375 174.050781 94.425781 " fill-opacity="1" fill-rule="nonzero"/><path fill="#ffffff" d="M 128.460938 101.5 C 125.066406 104.054688 122.761719 107.09375 121.425781 110.390625 C 119.515625 115.113281 117.222656 124.140625 112.523438 131.296875 C 115.296875 129.25 117.449219 126.695312 118.382812 123.183594 C 120.390625 115.613281 123.730469 107.964844 128.460938 101.5 " fill-opacity="1" fill-rule="nonzero"/><path fill="#a57550" d="M 188.875 97.402344 C 184.488281 96.449219 178.65625 95.722656 173.511719 95.113281 C 161.554688 93.699219 152.710938 88.523438 147.972656 90.4375 C 147.972656 90.4375 146.878906 91.195312 145.128906 92.300781 C 152.792969 90.472656 160.976562 94.03125 168.730469 96.09375 C 174.75 97.695312 183.101562 100.949219 188.875 97.402344 " fill-opacity="1" fill-rule="nonzero"/><path fill="#3e1213" d="M 118.996094 148.984375 C 118.5 154.203125 114.148438 157.972656 110.183594 161.019531 C 110.390625 160.898438 110.601562 160.769531 110.824219 160.628906 C 110.824219 160.628906 110.53125 161.34375 110.394531 162.152344 C 115.113281 159.300781 119.105469 154.878906 118.996094 148.984375 " fill-opacity="1" fill-rule="nonzero"/><path fill="#3e1213" d="M 105.015625 149.398438 C 105.015625 149.398438 104.441406 153.210938 106.453125 152.277344 C 108.464844 151.34375 105.527344 149.679688 105.015625 149.398438 " fill-opacity="1" fill-rule="nonzero"/><path fill="#231f20" d="M 139.726562 120.777344 C 139.363281 122.601562 137.734375 123.820312 136.085938 123.496094 C 134.4375 123.167969 133.390625 121.425781 133.753906 119.601562 C 134.113281 117.773438 135.742188 116.558594 137.390625 116.882812 C 139.042969 117.207031 140.082031 118.953125 139.726562 120.777344 " fill-opacity="1" fill-rule="nonzero"/><path fill="#713e1f" d="M 136.519531 124.09375 C 132.769531 124.261719 130.460938 126.652344 130.566406 126.675781 C 130.242188 126.441406 133.867188 123.359375 136.476562 123.546875 C 140.347656 123.296875 143.171875 124.875 143.160156 124.78125 C 143.15625 124.910156 140.789062 123.910156 136.519531 124.09375 " fill-opacity="1" fill-rule="nonzero"/><path fill="#9e6c43" d="M 136.980469 124.785156 C 133.230469 124.953125 130.921875 127.34375 131.027344 127.367188 C 130.703125 127.132812 134.328125 124.050781 136.933594 124.238281 C 140.808594 123.992188 143.632812 125.566406 143.625 125.472656 C 143.617188 125.601562 141.25 124.601562 136.980469 124.785156 " fill-opacity="1" fill-rule="nonzero"/><path fill="#d47d22" d="M 217.347656 180.183594 C 217.347656 180.183594 216.65625 203.050781 206.492188 213.679688 C 206.492188 213.679688 209.496094 215.296875 213.882812 214.835938 C 218.273438 214.375 225.199219 195.660156 225.429688 181.570312 C 225.660156 167.476562 217.347656 180.183594 217.347656 180.183594 " fill-opacity="1" fill-rule="nonzero"/><path fill="#ffffff" d="M 229.414062 120.03125 C 229.414062 120.03125 230.363281 118.820312 230.882812 118.558594 C 231.40625 118.300781 236.511719 117.261719 238.070312 118.90625 C 239.628906 120.550781 239.628906 123.238281 239.371094 124.105469 C 239.109375 124.96875 236.339844 126.097656 236.339844 126.097656 L 229.414062 120.03125 " fill-opacity="1" fill-rule="nonzero"/><path stroke-linecap="butt" transform="matrix(0.0463464, 0, 0, -0.0463644, 100.555364, 284.036357)" fill="none" stroke-linejoin="miter" d="M 2780.337943 3537.307483 C 2780.337943 3537.307483 2800.818896 3563.425318 2812.028636 3569.07014 C 2823.322659 3574.630711 2933.481528 3597.041498 2967.110747 3561.571794 C 3000.739966 3526.102089 3000.739966 3468.137346 2995.177238 3449.433606 C 2989.530226 3430.814118 2929.773043 3406.465555 2929.773043 3406.465555 Z M 2780.337943 3537.307483 " stroke="#231f20" stroke-width="14.948" stroke-opacity="1" stroke-miterlimit="4"/><path fill="#892423" d="M 220.125 181.800781 C 220.125 181.800781 221.394531 191.511719 222.089844 192.355469 C 222.78125 193.199219 225.207031 191.089844 225.207031 191.089844 L 223.933594 183.492188 L 220.125 181.800781 " fill-opacity="1" fill-rule="nonzero"/><path fill="#f19c1b" d="M 203.953125 138.601562 C 199.628906 139.464844 191.484375 171.402344 212.035156 180.875 C 232.589844 190.347656 257.992188 177.871094 259.605469 156.851562 C 261.222656 135.828125 257.296875 138.367188 253.605469 139.0625 C 249.910156 139.753906 231.664062 142.527344 219.65625 142.757812 C 207.648438 142.992188 208.574219 137.675781 203.953125 138.601562 " fill-opacity="1" fill-rule="nonzero"/><path fill="#9f342d" d="M 206.726562 163.203125 C 210.304688 179.144531 235.359375 184.570312 247.832031 169.210938 C 257.433594 157.375 255.394531 145.550781 252.472656 139.261719 C 247.089844 140.175781 230.726562 142.546875 219.65625 142.757812 C 213.472656 142.878906 210.722656 141.527344 208.875 140.316406 C 207.960938 141.601562 203.5 148.835938 206.726562 163.203125 " fill-opacity="1" fill-rule="nonzero"/><path fill="#7f1f23" d="M 231.996094 158.621094 C 234.972656 150.957031 246.554688 152.671875 254.886719 149.769531 C 254.777344 145.5625 253.707031 141.917969 252.472656 139.261719 C 247.089844 140.175781 230.726562 142.546875 219.65625 142.757812 C 213.472656 142.878906 210.722656 141.527344 208.875 140.316406 C 208.035156 141.5 204.199219 147.71875 206.097656 159.882812 C 212.710938 165.121094 218.769531 171.101562 223.859375 177.925781 C 228.175781 178.6875 232.796875 178.382812 237.121094 176.824219 C 233.617188 170.632812 229.492188 164.347656 231.996094 158.621094 " fill-opacity="1" fill-rule="nonzero"/><path fill="#82898f" d="M 206.609375 148.648438 C 206.609375 148.648438 205.800781 153.730469 209.03125 155.808594 C 212.265625 157.890625 219.773438 155.464844 219.886719 154.425781 C 220.003906 153.382812 206.609375 148.648438 206.609375 148.648438 " fill-opacity="1" fill-rule="nonzero"/><path fill="#a6abb2" d="M 226.007812 132.824219 C 226.007812 132.824219 205.917969 145.644531 205.570312 148.300781 C 205.222656 150.960938 216.078125 154.425781 219.65625 154.539062 C 223.234375 154.65625 245.519531 148.765625 249.328125 146.453125 C 253.140625 144.144531 243.671875 139.292969 238.824219 137.5625 C 233.972656 135.828125 226.007812 132.824219 226.007812 132.824219 " fill-opacity="1" fill-rule="nonzero"/><path fill="#9aa0a7" d="M 238.824219 137.5625 C 236.421875 136.703125 233.261719 135.535156 230.679688 134.574219 C 232.101562 138.089844 236.695312 140.035156 233.742188 142.988281 C 229 148.917969 222.230469 150.792969 215.601562 153.8125 C 217.234375 154.242188 218.703125 154.507812 219.65625 154.539062 C 223.234375 154.65625 245.519531 148.765625 249.328125 146.453125 C 253.140625 144.144531 243.671875 139.292969 238.824219 137.5625 " fill-opacity="1" fill-rule="nonzero"/><path fill="#f19c1b" d="M 169.488281 104.003906 C 169.488281 104.003906 158.230469 118.734375 155.804688 119.078125 C 153.382812 119.425781 147.664062 89.96875 147.664062 89.96875 C 147.664062 89.96875 144.199219 91.703125 144.027344 92.570312 C 143.855469 93.4375 151.996094 123.238281 151.996094 123.238281 C 151.996094 123.238281 132.945312 139.175781 121.859375 143.855469 L 122.898438 146.800781 C 122.898438 146.800781 159.789062 126.183594 171.222656 107.296875 C 171.222656 107.296875 170.183594 105.21875 169.488281 104.003906 " fill-opacity="1" fill-rule="nonzero"/><path fill="#9f342d" d="M 157.363281 121.765625 C 157.363281 123.917969 155.929688 125.664062 154.160156 125.664062 C 152.390625 125.664062 150.957031 123.917969 150.957031 121.765625 C 150.957031 119.609375 152.390625 117.867188 154.160156 117.867188 C 155.929688 117.867188 157.363281 119.609375 157.363281 121.765625 " fill-opacity="1" fill-rule="nonzero"/><path fill="#f19c1b" d="M 109.328125 134.144531 C 108.433594 135.347656 107.617188 136.46875 106.867188 137.507812 C 113.976562 140.566406 120.179688 145.835938 124.054688 152.480469 C 124.832031 151.476562 125.652344 150.554688 126.542969 149.769531 C 122.875 142.578125 116.867188 136.558594 109.328125 134.144531 " fill-opacity="1" fill-rule="nonzero"/><path fill="#f19c1b" d="M 178.117188 132.820312 C 170.371094 139.40625 161.589844 146.871094 151.777344 150.222656 C 134.652344 156.078125 124.78125 145.9375 124.371094 145.503906 L 122.351562 147.402344 C 122.808594 147.890625 133.804688 159.300781 152.675781 152.847656 C 162.984375 149.324219 171.976562 141.679688 179.914062 134.933594 C 186.058594 129.710938 191.367188 125.199219 195.492188 124.242188 L 194.863281 121.539062 C 190.085938 122.652344 184.539062 127.363281 178.117188 132.820312 " fill-opacity="1" fill-rule="nonzero"/><path fill="#dbdde1" d="M 231.085938 135.945312 C 231.03125 135.8125 225.695312 138.519531 219.613281 142.648438 C 213.507812 146.730469 208.785156 150.355469 208.804688 150.382812 C 208.832031 150.421875 213.785156 147.128906 219.882812 143.054688 C 225.953125 138.929688 231.050781 135.890625 231.085938 135.945312 " fill-opacity="1" fill-rule="nonzero"/><path fill="#a6abb2" d="M 203.804688 154.675781 C 203.804688 154.675781 213.878906 155.070312 218.589844 154.546875 C 223.300781 154.023438 226.574219 158.210938 226.574219 158.210938 C 226.574219 158.210938 237.433594 180.726562 237.433594 182.167969 C 237.433594 183.605469 232.070312 183.347656 229.972656 184.917969 C 229.972656 184.917969 219.113281 170.121094 212.308594 163.316406 C 205.503906 156.507812 203.804688 154.675781 203.804688 154.675781 " fill-opacity="1" fill-rule="nonzero"/><path fill="#535a5d" d="M 229.972656 184.917969 C 229.972656 184.917969 216.628906 200.492188 219.507812 203.371094 C 222.386719 206.253906 240.96875 192.113281 241.621094 190.414062 C 242.273438 188.714844 237.695312 182.035156 237.695312 182.035156 C 237.695312 182.035156 231.414062 184.261719 229.972656 184.917969 " fill-opacity="1" fill-rule="nonzero"/><path fill="#8e949b" d="M 230.496094 185.179688 C 230.496094 185.179688 218.863281 198.757812 219.667969 202.902344 C 224.429688 196.609375 230.433594 191.144531 233.777344 183.902344 C 232.386719 184.417969 231.066406 184.917969 230.496094 185.179688 " fill-opacity="1" fill-rule="nonzero"/><path fill="#dbdde1" d="M 231.9375 183.214844 C 232.089844 183.140625 228.09375 176.511719 221.875 169.347656 C 215.757812 162.136719 211.019531 156.105469 211 156.117188 C 210.941406 156.152344 215.324219 162.472656 221.453125 169.699219 C 227.660156 176.847656 232 183.167969 231.9375 183.214844 " fill-opacity="1" fill-rule="nonzero"/><path fill="#5e4d67" d="M 228.027344 129.128906 C 228.027344 129.128906 225.949219 132.074219 224.738281 132.9375 C 223.523438 133.804688 230.105469 135.019531 235.992188 140.390625 C 241.882812 145.761719 246.730469 149.917969 252.273438 148.1875 C 257.816406 146.453125 256.949219 142.125 256.949219 142.125 L 252.621094 137.097656 C 252.621094 137.097656 233.742188 134.671875 228.027344 129.128906 " fill-opacity="1" fill-rule="nonzero"/><path fill="#988ba5" d="M 252.332031 138.140625 C 252.363281 138.125 246.507812 139.136719 239.710938 136.875 C 232.941406 134.789062 227.984375 131.738281 227.96875 131.785156 C 227.933594 131.796875 232.710938 135.222656 239.570312 137.339844 C 246.488281 139.632812 252.421875 138.199219 252.332031 138.140625 " fill-opacity="1" fill-rule="nonzero"/><path fill="#988ba5" d="M 255.796875 142.992188 C 255.757812 142.859375 254.449219 144.433594 251.539062 144.785156 C 248.605469 145.183594 244.824219 143.3125 241.269531 140.722656 C 234.230469 135.113281 227.105469 132.941406 227.164062 132.941406 C 227.101562 133.03125 233.992188 135.539062 240.992188 141.121094 C 244.5625 143.726562 248.53125 145.582031 251.570312 145.054688 C 254.578125 144.566406 255.777344 142.882812 255.796875 142.992188 " fill-opacity="1" fill-rule="nonzero"/><path fill="#9f342d" d="M 225.648438 190.019531 C 225.648438 190.019531 220.945312 190.980469 220.835938 191.941406 C 220.730469 192.90625 224.6875 204.246094 225.21875 204.457031 C 225.757812 204.671875 230.03125 203.390625 230.03125 202.425781 C 230.03125 201.464844 226.503906 190.660156 225.648438 190.019531 " fill-opacity="1" fill-rule="nonzero"/><path fill="#9f342d" d="M 125.726562 145.789062 C 125.726562 147.945312 124.292969 149.6875 122.523438 149.6875 C 120.753906 149.6875 119.320312 147.945312 119.320312 145.789062 C 119.320312 143.636719 120.753906 141.890625 122.523438 141.890625 C 124.292969 141.890625 125.726562 143.636719 125.726562 145.789062 " fill-opacity="1" fill-rule="nonzero"/><path fill="#e99220" d="M 239.308594 134.382812 C 239.308594 134.382812 238.734375 131.4375 237.074219 128.832031 C 235.414062 126.226562 232.335938 125.917969 232.660156 123.464844 C 232.988281 121.007812 237.527344 119.417969 238.722656 120.546875 C 239.914062 121.679688 239.933594 124.007812 241.140625 126.125 C 242.34375 128.238281 245.015625 131.097656 245.015625 131.097656 L 239.308594 134.382812 " fill-opacity="1" fill-rule="nonzero"/><path fill="#767d83" d="M 239.683594 137.421875 L 254.613281 163.78125 C 254.613281 163.78125 260.804688 167.023438 261.457031 166.417969 C 262.113281 165.8125 261.589844 160.1875 261.515625 159.480469 C 261.441406 158.769531 247.820312 132.929688 247.820312 132.929688 L 239.683594 137.421875 " fill-opacity="1" fill-rule="nonzero"/><path fill="#a6abb2" d="M 240.96875 138.496094 L 254.632812 162.625 C 254.632812 162.625 260.300781 165.589844 260.898438 165.035156 C 261.5 164.480469 261.015625 159.332031 260.949219 158.683594 C 260.882812 158.035156 248.417969 134.386719 248.417969 134.386719 L 240.96875 138.496094 " fill-opacity="1" fill-rule="nonzero"/><path fill="#dbdde1" d="M 260.023438 159.609375 C 259.957031 158.960938 247.492188 135.3125 247.492188 135.3125 L 244.394531 137.019531 C 250.097656 145.222656 255.863281 153.503906 260.238281 162.582031 C 260.179688 161.230469 260.054688 159.917969 260.023438 159.609375 " fill-opacity="1" fill-rule="nonzero"/><path fill="#3a4041" d="M 247.820312 132.929688 L 239.683594 137.421875 L 241.753906 141.078125 C 244.460938 139.574219 247.25 138.335938 250.019531 137.109375 C 248.703125 134.605469 247.820312 132.929688 247.820312 132.929688 " fill-opacity="1" fill-rule="nonzero"/><path fill="#c9731f" d="M 239.433594 137.328125 C 239.433594 137.328125 238.285156 135.746094 238.925781 134.152344 C 239.566406 132.5625 244.542969 130.433594 245.648438 130.675781 C 246.746094 130.917969 247.789062 132.335938 247.789062 132.335938 L 239.433594 137.328125 " fill-opacity="1" fill-rule="nonzero"/><path fill="#e99220" d="M 237.992188 137.074219 C 236.308594 137.453125 235.628906 140.664062 237.398438 141.089844 C 239.160156 141.511719 239.28125 138.765625 239.28125 138.765625 C 239.28125 138.765625 247.402344 134.070312 248.300781 133.976562 C 249.203125 133.882812 250.414062 134.773438 251.398438 133.554688 C 252.386719 132.335938 249.605469 130.902344 248.054688 131.570312 C 246.5 132.238281 237.992188 137.074219 237.992188 137.074219 " fill-opacity="1" fill-rule="nonzero"/><path fill="#6b7276" d="M 230.28125 119.539062 C 230.28125 119.539062 230.855469 117.691406 232.125 116.886719 C 233.398438 116.074219 239.402344 117.230469 239.976562 119.773438 C 240.554688 122.3125 238.824219 124.855469 238.824219 124.855469 C 238.824219 124.855469 238.132812 125.433594 237.4375 125.433594 C 236.746094 125.433594 230.28125 119.539062 230.28125 119.539062 " fill-opacity="1" fill-rule="nonzero"/><path fill="#a6abb2" d="M 255.914062 92.628906 C 252.679688 91.472656 244.710938 93.785156 241.710938 98.171875 C 238.710938 102.5625 230.046875 118.964844 230.046875 118.964844 C 230.046875 118.964844 234.667969 118.734375 236.632812 119.886719 C 238.59375 121.042969 239.054688 124.738281 239.054688 124.738281 C 239.054688 124.738281 254.523438 108.683594 256.835938 102.910156 C 259.144531 97.132812 255.914062 92.628906 255.914062 92.628906 " fill-opacity="1" fill-rule="nonzero"/><path fill="#ccced4" d="M 253.792969 93.964844 C 250.414062 93.722656 244.601562 95.757812 242.226562 99.230469 C 239.507812 103.207031 231.667969 118.058594 231.667969 118.058594 C 231.667969 118.058594 233.246094 117.980469 234.878906 118.164062 C 239.507812 109.371094 245.039062 98.433594 253.792969 93.964844 " fill-opacity="1" fill-rule="nonzero"/><path fill="#f4ca9d" d="M 205.167969 122.542969 C 205.167969 122.542969 200.230469 118.820312 196.332031 119.164062 C 192.433594 119.511719 189.40625 122.023438 189.234375 123.324219 C 189.058594 124.625 189.664062 126.007812 192.523438 126.269531 C 195.378906 126.53125 201.183594 128.867188 204.734375 127.136719 C 208.285156 125.402344 205.167969 122.542969 205.167969 122.542969 " fill-opacity="1" fill-rule="nonzero"/><path fill="#a6abb2" d="M 231.320312 119.308594 C 231.320312 119.308594 205.109375 121.503906 204.648438 121.851562 C 204.183594 122.199219 203.722656 126.007812 204.648438 127.398438 C 205.570312 128.78125 222.890625 130.746094 229.007812 131.09375 C 235.128906 131.4375 242.058594 127.628906 242.058594 127.628906 C 242.058594 127.628906 239.285156 125.894531 238.710938 124.277344 C 238.132812 122.660156 236.976562 120.121094 231.320312 119.308594 " fill-opacity="1" fill-rule="nonzero"/><path fill="#ccced4" d="M 231.046875 119.773438 C 231.046875 119.773438 206.332031 121.96875 205.898438 122.3125 C 205.777344 122.410156 205.660156 122.773438 205.566406 123.269531 C 215.746094 122.75 225.925781 122.621094 236.109375 121.765625 C 235.089844 120.902344 233.535156 120.148438 231.046875 119.773438 " fill-opacity="1" fill-rule="nonzero"/><path fill="#dbdde1" d="M 237.984375 124.796875 C 238.011719 124.832031 230.691406 126.90625 221.421875 126.253906 C 212.203125 125.832031 204.820312 124.3125 204.820312 124.363281 C 204.796875 124.390625 212.117188 126.308594 221.402344 126.738281 C 230.75 127.394531 238.070312 124.894531 237.984375 124.796875 " fill-opacity="1" fill-rule="nonzero"/><path fill="#dbdde1" d="M 255.5625 93.4375 C 255.871094 93.460938 254.570312 100.839844 248.898438 107.988281 C 243.640625 115.253906 238.453125 120.425781 238.503906 120.464844 C 238.503906 120.484375 243.992188 115.589844 249.296875 108.269531 C 255.015625 101.054688 255.964844 93.398438 255.5625 93.4375 " fill-opacity="1" fill-rule="nonzero"/><path fill="#5e4d67" d="M 286.027344 40.496094 C 285.269531 30.953125 281.878906 24.6875 277.824219 20.574219 C 274.53125 22.515625 265.933594 29.171875 258.285156 48.238281 C 262.050781 59.71875 266.804688 74.296875 266.804688 74.6875 C 266.804688 75.324219 288.164062 67.421875 286.027344 40.496094 " fill-opacity="1" fill-rule="nonzero"/><g clip-path="url(#id33)"><path fill="#776a84" d="M 277.824219 20.574219 C 270.433594 13.078125 260.824219 12.71875 260.824219 12.71875 C 260.394531 25.753906 253.777344 34.515625 253.777344 34.515625 C 253.777344 34.515625 255.816406 40.710938 258.285156 48.238281 C 265.933594 29.171875 274.53125 22.515625 277.824219 20.574219 " fill-opacity="1" fill-rule="nonzero"/></g><path fill="#b0aabc" d="M 262.105469 24.257812 C 262.132812 24.296875 263.433594 22.15625 263.898438 19.15625 C 264.476562 16.140625 263.5625 13.722656 263.492188 13.789062 C 263.5 13.800781 264.015625 16.15625 263.457031 19.085938 C 263.003906 22.011719 262.082031 24.238281 262.105469 24.257812 " fill-opacity="1" fill-rule="nonzero"/><path fill="#b0aabc" d="M 265.417969 23.9375 C 265.4375 23.949219 266.609375 22.402344 267.746094 20.300781 C 268.863281 18.167969 269.269531 16.238281 269.261719 16.246094 C 269.191406 16.230469 268.449219 18 267.351562 20.089844 C 266.222656 22.171875 265.375 23.914062 265.417969 23.9375 " fill-opacity="1" fill-rule="nonzero"/><path fill="#b0aabc" d="M 268.726562 23.722656 C 268.75 23.746094 269.609375 22.910156 270.484375 21.777344 C 271.371094 20.664062 272.171875 19.820312 272.144531 19.773438 C 272.140625 19.75 271.0625 20.339844 270.132812 21.496094 C 269.242188 22.652344 268.699219 23.699219 268.726562 23.722656 " fill-opacity="1" fill-rule="nonzero"/><path fill="#8d839a" d="M 264.988281 44.769531 C 265.027344 44.800781 267.234375 42.378906 270.332031 39.824219 C 273.414062 37.238281 276.324219 35.722656 276.308594 35.691406 C 276.308594 35.644531 273.179688 36.847656 270.050781 39.480469 C 266.90625 42.070312 264.964844 44.761719 264.988281 44.769531 " fill-opacity="1" fill-rule="nonzero"/><path fill="#8d839a" d="M 265.628906 48.402344 C 265.625 48.386719 267.777344 46.234375 271.28125 44.90625 C 274.707031 43.480469 277.699219 42.988281 277.699219 42.957031 C 277.710938 42.910156 274.605469 43.039062 271.109375 44.488281 C 267.523438 45.855469 265.53125 48.375 265.628906 48.402344 " fill-opacity="1" fill-rule="nonzero"/><path fill="#8d839a" d="M 266.699219 51.824219 C 266.71875 51.871094 269.105469 50.84375 272.105469 49.835938 C 275.109375 48.792969 277.691406 48.644531 277.699219 48.617188 C 277.722656 48.570312 275.039062 48.34375 271.964844 49.40625 C 268.914062 50.4375 266.6875 51.808594 266.699219 51.824219 " fill-opacity="1" fill-rule="nonzero"/><path fill="#8d839a" d="M 270.328125 55.132812 C 270.390625 55.195312 271.636719 54.320312 273.441406 54.050781 C 275.257812 53.84375 276.695312 54.367188 276.738281 54.28125 C 276.765625 54.316406 275.367188 53.386719 273.382812 53.601562 C 271.414062 53.90625 270.304688 55.171875 270.328125 55.132812 " fill-opacity="1" fill-rule="nonzero"/><path fill="#f4ca9d" d="M 264.773438 68.59375 C 264.523438 82.15625 253.613281 92.949219 240.414062 92.699219 C 227.210938 92.449219 216.71875 81.253906 216.96875 67.691406 C 217.226562 54.125 228.136719 43.335938 241.335938 43.582031 C 254.542969 43.832031 265.035156 55.03125 264.773438 68.59375 " fill-opacity="1" fill-rule="nonzero"/><path fill="#745432" d="M 266.558594 69.339844 C 268.769531 51.398438 256.484375 42.128906 243.308594 41.234375 C 234.378906 40.628906 222.035156 43.808594 218.800781 58.550781 C 221.621094 53.703125 224.792969 50.71875 225.878906 51.136719 C 227.191406 51.644531 227.707031 53.695312 235.375 55.945312 C 247.050781 59.371094 249.78125 55.375 254.28125 58.34375 C 259.421875 61.730469 255.65625 71.300781 255.421875 72.722656 C 255.191406 74.148438 255.449219 78.054688 257.023438 76.328125 C 258.625 74.574219 260.84375 74.230469 261.058594 76.28125 C 261.359375 79.222656 259.441406 81.886719 257.375 82.15625 C 255.546875 82.394531 253.773438 85.773438 253.882812 88.738281 C 260.308594 84.441406 265.519531 77.742188 266.558594 69.339844 " fill-opacity="1" fill-rule="nonzero"/><path fill="#e09f68" d="M 231.324219 78.207031 C 231.304688 78.355469 230.21875 78.140625 229.601562 77.019531 C 229.003906 75.894531 229.382812 74.871094 229.550781 74.933594 C 229.75 74.953125 229.738281 75.839844 230.214844 76.695312 C 230.667969 77.550781 231.425781 77.996094 231.324219 78.207031 " fill-opacity="1" fill-rule="nonzero"/><path fill="#ffffff" d="M 229.171875 78.714844 C 229.171875 78.714844 233.347656 81.9375 240.746094 81.316406 C 240.746094 81.316406 238.929688 87.300781 233.789062 86.132812 C 229.566406 85.175781 228.851562 81.394531 229.171875 78.714844 " fill-opacity="1" fill-rule="nonzero"/><path fill="#f3a4a1" d="M 225.082031 72.351562 C 224.886719 73.339844 223.242188 73.828125 221.421875 73.457031 C 219.597656 73.074219 218.28125 71.976562 218.488281 70.988281 C 218.691406 70.003906 220.332031 69.507812 222.148438 69.886719 C 223.976562 70.265625 225.289062 71.363281 225.082031 72.351562 " fill-opacity="1" fill-rule="nonzero"/><path fill="#f3a4a1" d="M 251.179688 77.605469 C 251 78.59375 249.363281 79.121094 247.535156 78.777344 C 245.703125 78.433594 244.371094 77.355469 244.5625 76.371094 C 244.746094 75.375 246.371094 74.855469 248.203125 75.195312 C 250.03125 75.539062 251.367188 76.617188 251.179688 77.605469 " fill-opacity="1" fill-rule="nonzero"/><path fill="#231f20" d="M 226.734375 67.574219 C 226.574219 68.636719 225.582031 69.367188 224.515625 69.203125 C 223.453125 69.042969 222.726562 68.050781 222.886719 66.988281 C 223.050781 65.921875 224.042969 65.199219 225.105469 65.359375 C 226.167969 65.519531 226.898438 66.511719 226.734375 67.574219 " fill-opacity="1" fill-rule="nonzero"/><path fill="#231f20" d="M 248.621094 72.425781 C 248.460938 73.488281 247.476562 74.21875 246.40625 74.058594 C 245.339844 73.894531 244.613281 72.902344 244.777344 71.839844 C 244.9375 70.78125 245.925781 70.050781 246.992188 70.210938 C 248.054688 70.375 248.78125 71.363281 248.621094 72.425781 " fill-opacity="1" fill-rule="nonzero"/><path fill="#231f20" d="M 227.636719 61.484375 C 227.359375 61.660156 226.722656 60.324219 225.410156 59.980469 C 224.050781 59.722656 222.816406 60.523438 222.691406 60.277344 C 222.515625 60.175781 223.570312 58.8125 225.589844 59.113281 C 227.597656 59.734375 227.789062 61.523438 227.636719 61.484375 " fill-opacity="1" fill-rule="nonzero"/><path fill="#231f20" d="M 250.257812 66.792969 C 249.976562 66.972656 249.339844 65.636719 248.03125 65.289062 C 246.671875 65.035156 245.433594 65.832031 245.308594 65.589844 C 245.132812 65.488281 246.1875 64.125 248.207031 64.425781 C 250.21875 65.042969 250.40625 66.835938 250.257812 66.792969 " fill-opacity="1" fill-rule="nonzero"/><path fill="#a6abb2" d="M 226.863281 40.285156 C 226.863281 40.285156 239.679688 27.675781 257.195312 35.15625 C 274.707031 42.632812 275.132812 58.019531 272.144531 69.128906 C 269.152344 80.242188 256.765625 90.070312 252.28125 89.214844 C 247.792969 88.359375 258.046875 76.179688 256.125 68.273438 C 254.203125 60.371094 234.125 48.402344 227.503906 46.90625 C 220.882812 45.410156 226.863281 40.285156 226.863281 40.285156 " fill-opacity="1" fill-rule="nonzero"/><path fill="#8e949b" d="M 268.941406 63.789062 C 264.457031 59.941406 262.371094 54.972656 256.605469 51.769531 C 249.507812 47.710938 246.339844 48.71875 242.597656 54.53125 C 249.066406 58.824219 255.113281 64.113281 256.125 68.273438 C 258.046875 76.179688 247.792969 88.359375 252.28125 89.214844 C 256.765625 90.070312 269.152344 80.242188 272.144531 69.128906 C 272.699219 67.074219 273.128906 64.875 273.363281 62.605469 C 272.257812 64.582031 270.738281 65.585938 268.941406 63.789062 " fill-opacity="1" fill-rule="nonzero"/><path fill="#d8dade" d="M 263.628906 40.75 C 261.765625 39.273438 259.539062 37.9375 256.882812 36.800781 C 240.671875 29.878906 228.8125 41.546875 228.8125 41.546875 C 228.8125 41.546875 223.277344 46.292969 229.40625 47.675781 C 231.914062 48.246094 236.503906 50.433594 241.175781 53.320312 C 245.578125 45.160156 254.515625 41.179688 263.628906 40.75 " fill-opacity="1" fill-rule="nonzero"/><path fill="#a6abb2" d="M 213.835938 55.027344 C 213.835938 55.027344 217.890625 44.128906 226.222656 39.003906 C 226.222656 39.003906 242.027344 37.078125 254.203125 49.472656 C 266.375 61.863281 264.027344 75.539062 264.027344 75.539062 C 264.027344 75.539062 260.183594 80.882812 258.6875 80.667969 C 257.191406 80.453125 251.210938 62.933594 240.960938 58.875 C 230.707031 54.8125 224.726562 60.796875 221.523438 59.941406 C 218.320312 59.085938 218.746094 56.308594 213.835938 55.027344 " fill-opacity="1" fill-rule="nonzero"/><path fill="#e2e3e7" d="M 264.027344 75.539062 C 264.027344 75.570312 264.75 72.1875 263.765625 66.828125 C 262.863281 61.511719 259.710938 54.308594 253.648438 48.574219 C 241.058594 36.621094 225.675781 39.039062 226.222656 39.003906 C 225.738281 39.117188 240.957031 37.238281 253.261719 48.980469 C 259.230469 54.625 262.429688 61.644531 263.460938 66.886719 C 264.5625 72.167969 263.984375 75.558594 264.027344 75.539062 " fill-opacity="1" fill-rule="nonzero"/><path fill="#d8dade" d="M 231.316406 40.292969 C 225.539062 44.394531 221.898438 50.300781 220.074219 56.914062 C 220.765625 57.65625 221.386719 58.335938 222.648438 58.671875 C 224.15625 59.074219 226.371094 57.746094 229.492188 56.980469 C 231.167969 50.828125 235.765625 45.644531 241.398438 42.734375 C 237.578125 41.128906 233.984375 40.503906 231.316406 40.292969 " fill-opacity="1" fill-rule="nonzero"/><path fill="#8e949b" d="M 262.042969 64.921875 C 262.09375 66.816406 261.613281 68.535156 260.136719 69.421875 C 255.933594 72.050781 254.355469 67.320312 251.203125 65.742188 C 250.78125 65.488281 250.359375 65.296875 249.9375 65.140625 C 254.761719 70.589844 257.65625 78.40625 258.558594 78.535156 C 259.785156 78.707031 262.9375 74.328125 262.9375 74.328125 C 262.9375 74.328125 263.625 70.316406 262.042969 64.921875 " fill-opacity="1" fill-rule="nonzero"/><path fill="#a6abb2" d="M 264.875 75.304688 C 266.03125 76.5625 265.320312 79.105469 263.28125 80.984375 C 261.242188 82.863281 258.648438 83.367188 257.492188 82.113281 C 256.332031 80.851562 257.046875 78.3125 259.085938 76.433594 C 261.125 74.550781 263.714844 74.050781 264.875 75.304688 " fill-opacity="1" fill-rule="nonzero"/><path fill="#d8dade" d="M 264.207031 76.339844 C 265.109375 77.320312 264.550781 79.304688 262.960938 80.773438 C 261.367188 82.238281 259.347656 82.632812 258.441406 81.652344 C 257.539062 80.671875 258.09375 78.683594 259.6875 77.21875 C 261.277344 75.75 263.300781 75.359375 264.207031 76.339844 " fill-opacity="1" fill-rule="nonzero"/><path fill="#d8dade" d="M 232.363281 40.335938 C 232.296875 40.125 228.347656 42.277344 225.699219 46.769531 C 222.992188 51.152344 222.285156 55.355469 222.433594 55.402344 C 222.636719 55.480469 225.023438 52.121094 227.605469 47.953125 C 230.085938 43.730469 232.425781 40.503906 232.363281 40.335938 " fill-opacity="1" fill-rule="nonzero"/><path fill="#d8dade" d="M 225.476562 40.5 C 225.40625 40.257812 222.222656 41.703125 220.238281 45.050781 C 218.1875 48.296875 217.804688 51.503906 217.945312 51.554688 C 218.148438 51.644531 220.199219 49.304688 222.132812 46.253906 C 223.972656 43.140625 225.503906 40.664062 225.476562 40.5 " fill-opacity="1" fill-rule="nonzero"/><path fill="#d8dade" d="M 238.449219 42.582031 C 238.292969 42.339844 235.511719 44.316406 233.71875 47.695312 C 231.875 51.03125 231.417969 54.214844 231.5625 54.28125 C 231.757812 54.371094 233.886719 52.03125 235.679688 48.785156 C 237.425781 45.503906 238.46875 42.699219 238.449219 42.582031 " fill-opacity="1" fill-rule="nonzero"/><path fill="#d8dade" d="M 244.699219 45.304688 C 244.519531 45.121094 242.261719 46.894531 240.824219 49.75 C 239.355469 52.589844 239.109375 55.335938 239.253906 55.402344 C 239.445312 55.496094 241.367188 53.578125 242.816406 50.78125 C 244.234375 47.96875 244.761719 45.410156 244.699219 45.304688 " fill-opacity="1" fill-rule="nonzero"/><path fill="#d8dade" d="M 249.664062 49.632812 C 249.503906 49.441406 247.527344 50.6875 246.386719 52.871094 C 245.21875 55.046875 245.195312 57.257812 245.339844 57.324219 C 245.53125 57.417969 247.21875 56.0625 248.363281 53.933594 C 249.488281 51.792969 249.730469 49.75 249.664062 49.632812 " fill-opacity="1" fill-rule="nonzero"/><path fill="#d8dade" d="M 253.667969 54.441406 C 253.535156 54.351562 251.875 55.109375 250.8125 56.703125 C 249.75 58.296875 249.6875 60.121094 249.824219 60.210938 C 250.003906 60.328125 251.617188 59.539062 252.679688 57.945312 C 253.742188 56.355469 253.835938 54.550781 253.667969 54.441406 " fill-opacity="1" fill-rule="nonzero"/><path fill="#d8dade" d="M 255.269531 58.125 C 255.144531 58.027344 253.742188 58.257812 252.945312 59.277344 C 252.148438 60.296875 252.261719 61.714844 252.386719 61.8125 C 252.554688 61.945312 253.914062 61.675781 254.710938 60.660156 C 255.511719 59.644531 255.429688 58.25 255.269531 58.125 " fill-opacity="1" fill-rule="nonzero"/><path fill="#6b7276" d="M 232.898438 40.550781 C 232.828125 40.339844 228.882812 42.492188 226.234375 46.980469 C 223.527344 51.363281 222.816406 55.570312 222.964844 55.617188 C 223.171875 55.695312 225.558594 52.332031 228.136719 48.167969 C 230.621094 43.941406 232.960938 40.71875 232.898438 40.550781 " fill-opacity="1" fill-rule="nonzero"/><path fill="#6b7276" d="M 226.007812 40.710938 C 225.941406 40.46875 222.757812 41.917969 220.769531 45.261719 C 218.722656 48.507812 218.339844 51.714844 218.476562 51.769531 C 218.683594 51.859375 220.730469 49.515625 222.664062 46.464844 C 224.503906 43.355469 226.039062 40.878906 226.007812 40.710938 " fill-opacity="1" fill-rule="nonzero"/><path fill="#6b7276" d="M 238.984375 42.792969 C 238.828125 42.550781 236.042969 44.53125 234.253906 47.90625 C 232.410156 51.242188 231.953125 54.425781 232.097656 54.496094 C 232.292969 54.585938 234.417969 52.246094 236.210938 48.996094 C 237.960938 45.71875 239.003906 42.914062 238.984375 42.792969 " fill-opacity="1" fill-rule="nonzero"/><path fill="#6b7276" d="M 245.230469 45.519531 C 245.054688 45.332031 242.796875 47.109375 241.355469 49.964844 C 239.890625 52.804688 239.640625 55.546875 239.785156 55.617188 C 239.980469 55.707031 241.90625 53.789062 243.347656 50.996094 C 244.769531 48.183594 245.296875 45.625 245.230469 45.519531 " fill-opacity="1" fill-rule="nonzero"/><path fill="#6b7276" d="M 250.199219 49.84375 C 250.035156 49.65625 248.0625 50.902344 246.921875 53.085938 C 245.753906 55.257812 245.730469 57.46875 245.875 57.535156 C 246.066406 57.632812 247.753906 56.273438 248.898438 54.148438 C 250.019531 52.003906 250.261719 49.964844 250.199219 49.84375 " fill-opacity="1" fill-rule="nonzero"/><path fill="#6b7276" d="M 254.203125 54.652344 C 254.070312 54.566406 252.410156 55.324219 251.347656 56.914062 C 250.285156 58.507812 250.226562 60.332031 250.359375 60.421875 C 250.535156 60.542969 252.152344 59.753906 253.214844 58.160156 C 254.273438 56.566406 254.371094 54.765625 254.203125 54.652344 " fill-opacity="1" fill-rule="nonzero"/><path fill="#6b7276" d="M 255.804688 58.339844 C 255.679688 58.242188 254.273438 58.472656 253.480469 59.492188 C 252.683594 60.507812 252.792969 61.925781 252.921875 62.023438 C 253.089844 62.15625 254.449219 61.890625 255.246094 60.875 C 256.042969 59.855469 255.960938 58.460938 255.804688 58.339844 " fill-opacity="1" fill-rule="nonzero"/><path fill="#a6abb2" d="M 256.773438 90.746094 C 256.832031 91.992188 254.441406 93.117188 251.429688 93.261719 C 248.421875 93.40625 245.933594 92.515625 245.875 91.273438 C 245.8125 90.03125 248.203125 88.90625 251.214844 88.761719 C 254.222656 88.617188 256.710938 89.503906 256.773438 90.746094 " fill-opacity="1" fill-rule="nonzero"/><path fill="#d8dade" d="M 255.382812 90.25 C 255.429688 91.179688 253.632812 92.023438 251.375 92.132812 C 249.117188 92.242188 247.25 91.574219 247.207031 90.644531 C 247.160156 89.714844 248.953125 88.871094 251.214844 88.761719 C 253.472656 88.652344 255.339844 89.320312 255.382812 90.25 " fill-opacity="1" fill-rule="nonzero"/></svg>