<svg xmlns="http://www.w3.org/2000/svg" xmlns:xlink="http://www.w3.org/1999/xlink" width="559" zoomAndPan="magnify" viewBox="0 0 419.25 297.749993" height="396" preserveAspectRatio="xMidYMid meet" version="1.0"><defs><filter x="0%" y="0%" width="100%" height="100%" id="id1"><feColorMatrix values="0 0 0 0 1 0 0 0 0 1 0 0 0 0 1 0 0 0 1 0" color-interpolation-filters="sRGB"/></filter><clipPath id="id2"><path d="M 0 0.140625 L 418.5 0.140625 L 418.5 297.359375 L 0 297.359375 Z M 0 0.140625 " clip-rule="nonzero"/></clipPath><mask id="id3"><g filter="url(#id1)"><rect x="-41.925" width="503.1" fill="#000000" y="-29.774999" height="357.299992" fill-opacity="0.4"/></g></mask><clipPath id="id4"><path d="M 1 0.464844 L 91.621094 0.464844 L 91.621094 49 L 1 49 Z M 1 0.464844 " clip-rule="nonzero"/></clipPath><clipPath id="id5"><rect x="0" width="92" y="0" height="50"/></clipPath></defs><g clip-path="url(#id2)"><path fill="#7a8799" d="M 0 0.140625 L 418.5 0.140625 L 418.5 297.359375 L 0 297.359375 Z M 0 0.140625 " fill-opacity="1" fill-rule="nonzero"/><path fill="#ffffff" d="M 0 0.140625 L 418.5 0.140625 L 418.5 297.359375 L 0 297.359375 Z M 0 0.140625 " fill-opacity="1" fill-rule="nonzero"/><path fill="#7a8799" d="M 0 0.140625 L 418.5 0.140625 L 418.5 297.359375 L 0 297.359375 Z M 0 0.140625 " fill-opacity="1" fill-rule="nonzero"/></g><path fill="#e1d7ce" d="M 289.066406 127.546875 C 285.496094 154.476562 258.058594 160.246094 258.058594 160.246094 C 258.058594 160.246094 260.527344 178.65625 258.605469 205.863281 C 260.800781 209.570312 269.253906 202.949219 272.738281 202.839844 C 277.128906 202.703125 280.464844 220.058594 276.808594 235.8125 C 275.34375 238.929688 261.625 237.28125 261.625 237.28125 C 261.625 237.28125 264.09375 242.410156 262.308594 245.707031 C 260.347656 249.332031 253.117188 252.371094 241.867188 250.65625 C 233.882812 249.4375 231.4375 242.546875 231.4375 242.546875 L 222.933594 242.683594 C 222.933594 242.683594 227.324219 250.859375 214.699219 253.949219 C 202.222656 257.007812 194.941406 251.476562 193.9375 248.179688 C 193.9375 248.179688 164.789062 251.136719 154.789062 232.699219 C 143.261719 211.449219 148.570312 174.808594 182.046875 141.835938 C 182.046875 141.835938 179.746094 134.601562 179.699219 125.011719 C 160.78125 132.726562 152.960938 119.117188 152.960938 119.117188 C 144.015625 131.179688 130.53125 103.320312 136.816406 87.542969 C 136.101562 88.527344 126.101562 92.160156 131.769531 77.191406 C 136.496094 64.710938 149.261719 61.59375 149.261719 61.59375 C 131.015625 61.59375 154.605469 42.085938 177.382812 50.328125 C 199.539062 58.347656 203.625 77.542969 204.378906 84.683594 C 205.652344 84.101562 206.984375 83.546875 208.390625 83.027344 C 248.726562 68.191406 292.632812 100.617188 289.066406 127.546875 Z M 289.066406 127.546875 C 285.496094 154.476562 258.058594 160.246094 258.058594 160.246094 C 258.058594 160.246094 260.527344 178.65625 258.605469 205.863281 C 260.800781 209.570312 269.253906 202.949219 272.738281 202.839844 C 277.128906 202.703125 280.464844 220.058594 276.808594 235.8125 C 275.34375 238.929688 261.625 237.28125 261.625 237.28125 C 261.625 237.28125 264.09375 242.410156 262.308594 245.707031 C 260.347656 249.332031 253.117188 252.371094 241.867188 250.65625 C 233.882812 249.4375 231.4375 242.546875 231.4375 242.546875 L 222.933594 242.683594 C 222.933594 242.683594 227.324219 250.859375 214.699219 253.949219 C 202.222656 257.007812 194.941406 251.476562 193.9375 248.179688 C 193.9375 248.179688 164.789062 251.136719 154.789062 232.699219 C 143.261719 211.449219 148.570312 174.808594 182.046875 141.835938 C 182.046875 141.835938 179.746094 134.601562 179.699219 125.011719 C 160.78125 132.726562 152.960938 119.117188 152.960938 119.117188 C 144.015625 131.179688 130.53125 103.320312 136.816406 87.542969 C 136.101562 88.527344 126.101562 92.160156 131.769531 77.191406 C 136.496094 64.710938 149.261719 61.59375 149.261719 61.59375 C 131.015625 61.59375 154.605469 42.085938 177.382812 50.328125 C 199.539062 58.347656 203.625 77.542969 204.378906 84.683594 C 205.652344 84.101562 206.984375 83.546875 208.390625 83.027344 C 248.726562 68.191406 292.632812 100.617188 289.066406 127.546875 Z M 289.066406 127.546875 " fill-opacity="1" fill-rule="nonzero"/><path fill="#e1d7ce" d="M 238.269531 121.398438 C 244.625 120.980469 250.453125 117.359375 249.769531 106.527344 C 249.109375 96.066406 240.046875 94.003906 234.660156 94.511719 C 228.878906 95.054688 223.003906 99.542969 224.140625 110.214844 C 225.28125 120.964844 232.816406 121.757812 238.269531 121.398438 Z M 238.269531 121.398438 C 244.625 120.980469 250.453125 117.359375 249.769531 106.527344 C 249.109375 96.066406 240.046875 94.003906 234.660156 94.511719 C 228.878906 95.054688 223.003906 99.542969 224.140625 110.214844 C 225.28125 120.964844 232.816406 121.757812 238.269531 121.398438 Z M 238.269531 121.398438 " fill-opacity="1" fill-rule="nonzero"/><path fill="#f9f1e9" d="M 201.308594 234.945312 C 200.488281 239.796875 192.332031 244.976562 188.796875 241.410156 C 185.425781 238.007812 187.511719 231.132812 192.304688 228.640625 C 199.257812 225.023438 202.25 229.394531 201.308594 234.945312 Z M 226.585938 172.1875 C 214.582031 170.789062 216.148438 182.160156 218.816406 188.640625 C 220.398438 192.492188 221.34375 195.558594 221.34375 195.558594 L 220.324219 201.234375 C 220.324219 201.234375 219.640625 215.082031 220.667969 222.835938 C 221.699219 230.59375 224.363281 242.65625 224.363281 242.65625 L 230.007812 242.570312 C 230.007812 242.570312 229.757812 240.347656 229.484375 237.632812 C 229.210938 234.921875 227.667969 222.625 227.460938 216.40625 C 227.253906 210.191406 227.632812 196.828125 227.632812 196.828125 L 226.988281 195.464844 C 226.988281 195.464844 227.769531 191.269531 229.621094 188.554688 C 232.8125 183.878906 235.738281 173.253906 226.585938 172.1875 Z M 274.933594 119.164062 C 274.933594 119.164062 261.761719 116.003906 254.507812 131.117188 C 249.132812 142.316406 256.683594 156.398438 269.484375 155.660156 C 277.472656 151.167969 287.054688 142.714844 289.066406 127.546875 C 289.09375 127.320312 289.113281 127.097656 289.136719 126.871094 Z M 274.933594 119.164062 " fill-opacity="1" fill-rule="nonzero"/><path fill="#a99a92" d="M 224.363281 242.65625 C 223.910156 242.6875 223.140625 242.746094 222.933594 242.683594 C 222.910156 242.585938 220.855469 232.847656 219.945312 221.03125 C 219.039062 209.207031 219.9375 195.597656 219.945312 195.464844 C 219.972656 195.078125 220.300781 194.796875 220.691406 194.808594 C 221.078125 194.835938 221.371094 195.171875 221.34375 195.558594 C 221.335938 195.695312 220.445312 209.203125 221.34375 220.921875 C 222.246094 232.644531 224.339844 242.558594 224.363281 242.65625 Z M 189.785156 211.5625 C 189.714844 209.777344 189.566406 204.574219 189.90625 199.410156 C 189.929688 199.023438 189.636719 198.6875 189.25 198.660156 C 188.863281 198.652344 188.53125 198.929688 188.503906 199.316406 C 188.167969 204.488281 188.308594 209.6875 188.378906 211.554688 C 188.109375 211.558594 187.839844 211.5625 187.566406 211.574219 C 178.21875 211.988281 169.183594 215.730469 168.804688 215.890625 C 168.445312 216.039062 168.277344 216.449219 168.425781 216.808594 C 168.578125 217.164062 168.988281 217.335938 169.34375 217.183594 C 169.433594 217.148438 178.535156 213.378906 187.628906 212.980469 C 188.113281 212.957031 188.609375 212.945312 189.105469 212.949219 C 189.105469 212.949219 189.109375 212.949219 189.109375 212.949219 C 189.121094 212.949219 189.136719 212.949219 189.148438 212.949219 C 196.058594 212.972656 203.503906 215.578125 204.457031 231.144531 C 205.308594 244.980469 195.636719 247.789062 193.9375 248.179688 C 193.976562 248.382812 194.308594 249.160156 194.582031 249.460938 C 197.347656 248.648438 206.707031 244.863281 205.859375 231.058594 C 205.066406 218.160156 199.9375 211.910156 189.785156 211.5625 Z M 228.386719 220.921875 C 227.488281 209.203125 228.378906 195.695312 228.390625 195.558594 C 228.414062 195.171875 228.121094 194.835938 227.734375 194.808594 C 227.355469 194.796875 227.015625 195.078125 226.988281 195.464844 C 226.980469 195.597656 226.082031 209.207031 226.988281 221.03125 C 227.898438 232.847656 229.988281 242.472656 230.007812 242.570312 C 230.28125 242.632812 231.234375 242.554688 231.4375 242.546875 C 231.417969 242.449219 229.289062 232.640625 228.386719 220.921875 Z M 260.472656 221.023438 C 259.855469 212.996094 259.910156 208.757812 260.003906 206.898438 C 259.644531 206.738281 258.957031 206.28125 258.605469 205.863281 C 258.582031 206.011719 258.160156 209.28125 259.074219 221.132812 C 259.984375 233.011719 261.550781 237.097656 261.625 237.28125 C 261.796875 237.351562 262.585938 237.394531 263.167969 237.4375 C 263.152344 237.394531 261.363281 232.632812 260.472656 221.023438 Z M 214.738281 243.019531 C 214.457031 243.285156 214.449219 243.730469 214.714844 244.011719 C 214.746094 244.042969 217.867188 247.394531 217.503906 253.0625 C 217.6875 253.027344 218.777344 252.617188 218.933594 252.453125 C 219.054688 246.570312 215.867188 243.183594 215.726562 243.039062 C 215.457031 242.757812 215.015625 242.75 214.738281 243.019531 Z M 207.367188 244.507812 C 207.058594 244.746094 207.003906 245.183594 207.238281 245.492188 C 207.265625 245.527344 210.011719 249.191406 209.042969 254.792969 C 209.226562 254.816406 210.324219 254.832031 210.46875 254.789062 C 211.425781 248.691406 208.476562 244.796875 208.347656 244.632812 C 208.113281 244.328125 207.671875 244.269531 207.367188 244.507812 Z M 254.589844 239.871094 C 254.28125 240.105469 254.226562 240.546875 254.464844 240.855469 C 254.492188 240.890625 257.183594 244.457031 256.328125 249.949219 C 256.414062 249.921875 257.464844 249.625 257.816406 249.375 C 258.414062 243.71875 255.691406 240.148438 255.570312 239.992188 C 255.332031 239.6875 254.894531 239.632812 254.589844 239.871094 Z M 247.195312 240.753906 C 246.867188 240.960938 246.765625 241.394531 246.96875 241.722656 C 246.996094 241.761719 249.355469 245.648438 247.804688 251.148438 C 248.042969 251.171875 249.050781 251.144531 249.261719 251.125 C 250.75 245.257812 248.269531 241.15625 248.160156 240.980469 C 247.957031 240.652344 247.527344 240.550781 247.195312 240.753906 Z M 276.351562 207.21875 C 274.101562 207.304688 271.589844 209.023438 269.679688 210.332031 C 269.070312 210.746094 268.546875 211.105469 268.164062 211.316406 C 267.824219 211.503906 267.699219 211.929688 267.886719 212.269531 C 268.015625 212.503906 268.253906 212.632812 268.5 212.632812 C 268.617188 212.632812 268.730469 212.605469 268.839844 212.546875 C 269.28125 212.304688 269.832031 211.925781 270.46875 211.492188 C 272.265625 210.265625 274.925781 208.445312 276.800781 208.632812 C 276.785156 208.378906 276.535156 207.5 276.351562 207.21875 Z M 196.867188 221.175781 C 196.984375 221.433594 197.238281 221.585938 197.503906 221.585938 C 197.601562 221.585938 197.699219 221.566406 197.792969 221.523438 C 198.148438 221.363281 198.304688 220.945312 198.140625 220.59375 C 196.214844 216.347656 192.953125 215.058594 192.816406 215.007812 C 192.453125 214.867188 192.050781 215.050781 191.914062 215.410156 C 191.773438 215.769531 191.953125 216.175781 192.3125 216.316406 C 192.339844 216.328125 195.1875 217.480469 196.867188 221.175781 Z M 186.722656 218.257812 C 186.40625 218.035156 185.96875 218.113281 185.746094 218.429688 C 185.523438 218.746094 185.601562 219.183594 185.917969 219.40625 C 185.945312 219.425781 188.429688 221.191406 190.683594 224.453125 C 190.820312 224.652344 191.039062 224.757812 191.261719 224.757812 C 191.398438 224.757812 191.539062 224.714844 191.660156 224.632812 C 191.976562 224.410156 192.058594 223.972656 191.835938 223.65625 C 189.429688 220.171875 186.832031 218.332031 186.722656 218.257812 Z M 181.507812 223.117188 C 181.273438 222.808594 180.832031 222.746094 180.523438 222.980469 C 180.214844 223.214844 180.15625 223.65625 180.390625 223.964844 C 180.476562 224.078125 182.496094 226.730469 184.492188 228.0625 C 184.613281 228.144531 184.746094 228.179688 184.882812 228.179688 C 185.109375 228.179688 185.328125 228.070312 185.464844 227.867188 C 185.679688 227.546875 185.59375 227.109375 185.269531 226.894531 C 183.472656 225.695312 181.527344 223.140625 181.507812 223.117188 Z M 151.328125 90.007812 C 146.902344 101.113281 150.78125 115.289062 157.074219 106.800781 C 157.074219 106.800781 163.933594 122.050781 180.238281 116.867188 C 181.703125 106.609375 185.703125 96.035156 197.007812 88.859375 C 196.386719 83.589844 193.433594 68.464844 179.882812 63.8125 C 163.757812 58.273438 147.246094 71.742188 160.085938 71.742188 C 160.085938 71.742188 151.101562 73.933594 147.773438 82.722656 C 143.785156 93.257812 150.824219 90.699219 151.328125 90.007812 Z M 273.617188 143.703125 C 275.9375 141.507812 276.089844 137.808594 276.09375 137.652344 C 276.105469 137.265625 275.8125 136.945312 275.433594 136.933594 C 275.046875 136.925781 274.734375 137.230469 274.722656 137.617188 C 274.71875 137.648438 274.582031 140.894531 272.683594 142.679688 C 271.789062 143.519531 270.625 143.917969 269.210938 143.851562 C 264.28125 143.628906 264.238281 136.929688 264.238281 136.644531 C 264.238281 136.257812 263.933594 135.945312 263.554688 135.945312 C 263.164062 135.953125 262.867188 136.265625 262.863281 136.652344 C 262.851562 139.527344 264.148438 145.027344 269.136719 145.253906 C 269.582031 145.273438 270.007812 145.257812 270.417969 145.203125 C 271.660156 145.039062 272.730469 144.539062 273.617188 143.703125 Z M 277.929688 99.929688 C 277.933594 99.929688 277.945312 99.929688 277.949219 99.929688 C 278.667969 100.050781 279.613281 100.355469 280.34375 100.683594 C 280.945312 95.621094 280.757812 90.40625 279.359375 86.085938 C 279.941406 87.070312 288.050781 90.703125 283.453125 75.734375 C 279.621094 63.253906 269.269531 60.140625 269.269531 60.140625 C 284.0625 60.140625 264.933594 40.628906 246.464844 48.871094 C 231.082031 55.738281 226.441406 70.789062 225.039062 79.460938 C 244.992188 78.597656 265.855469 87.316406 277.929688 99.929688 Z M 277.929688 99.929688 " fill-opacity="1" fill-rule="nonzero"/><g mask="url(#id3)"><g transform="matrix(1, 0, 0, 1, 164, 153)"><g clip-path="url(#id5)"><g clip-path="url(#id4)"><path fill="#a99a92" d="M 17.179688 10.988281 C 7.609375 21.320312 5.945312 12.019531 11.964844 4.613281 C 17.984375 -2.789062 26.753906 0.65625 17.179688 10.988281 Z M 2.636719 24.570312 C -0.820312 30.09375 1.746094 36.929688 7.402344 29.078125 C 13.0625 21.226562 6.09375 19.046875 2.636719 24.570312 Z M 20.292969 22.160156 C 24.25 16.667969 19.375 15.144531 16.957031 19.007812 C 14.539062 22.867188 16.332031 27.648438 20.292969 22.160156 M 86.253906 44.066406 C 85.453125 51.28125 91.03125 49.5 91.03125 44.613281 C 91.03125 38.417969 86.175781 38.023438 86.253906 44.066406 " fill-opacity="1" fill-rule="nonzero"/></g></g></g></g><path fill="#231f20" d="M 228.023438 97.292969 C 228.339844 97.183594 228.886719 97.121094 229.378906 97.09375 C 233.363281 96.863281 240.816406 98.351562 241.335938 106.804688 C 241.574219 110.652344 240.804688 113.289062 239.449219 115.105469 C 237.589844 117.816406 234.644531 119.101562 231.75 119.550781 C 230.609375 119.726562 229.574219 119.625 228.597656 119.339844 C 226.199219 117.925781 223.917969 114.914062 223.417969 110.214844 C 222.753906 103.984375 225.257812 99.472656 228.023438 97.292969 Z M 277.949219 99.929688 C 275.058594 99.644531 270.003906 102.714844 270.542969 110.921875 C 271.046875 118.570312 273.253906 132.5625 281.210938 133.9375 C 289.167969 135.3125 291.601562 130.050781 291.601562 125.347656 C 291.605469 117.308594 285.632812 100.683594 277.949219 99.929688 Z M 277.949219 99.929688 " fill-opacity="1" fill-rule="nonzero"/></svg>