<svg xmlns="http://www.w3.org/2000/svg" xmlns:xlink="http://www.w3.org/1999/xlink" width="559" zoomAndPan="magnify" viewBox="0 0 419.25 297.749993" height="396" preserveAspectRatio="xMidYMid meet" version="1.0"><defs><filter x="0%" y="0%" width="100%" height="100%" id="id1"><feColorMatrix values="0 0 0 0 1 0 0 0 0 1 0 0 0 0 1 0 0 0 1 0" color-interpolation-filters="sRGB"/></filter><clipPath id="id2"><path d="M 0 0.140625 L 418.5 0.140625 L 418.5 297.359375 L 0 297.359375 Z M 0 0.140625 " clip-rule="nonzero"/></clipPath><mask id="id3"><g filter="url(#id1)"><rect x="-41.925" width="503.1" fill="#000000" y="-29.774999" height="357.299992" fill-opacity="0.2"/></g></mask><clipPath id="id4"><path d="M 0.128906 0.0585938 L 23.367188 0.0585938 L 23.367188 19.707031 L 0.128906 19.707031 Z M 0.128906 0.0585938 " clip-rule="nonzero"/></clipPath><clipPath id="id5"><rect x="0" width="24" y="0" height="20"/></clipPath></defs><g clip-path="url(#id2)"><path fill="#ffffff" d="M 0 0.140625 L 419.25 0.140625 L 419.25 2425.054688 L 0 2425.054688 Z M 0 0.140625 " fill-opacity="1" fill-rule="nonzero"/><path fill="#d3d337" d="M 0 0.140625 L 418.5 0.140625 L 418.5 297.359375 L 0 297.359375 Z M 0 0.140625 " fill-opacity="1" fill-rule="nonzero"/><path fill="#ffffff" d="M 0 0.140625 L 418.5 0.140625 L 418.5 297.359375 L 0 297.359375 Z M 0 0.140625 " fill-opacity="1" fill-rule="nonzero"/><path fill="#d3d337" d="M 0 0.140625 L 418.5 0.140625 L 418.5 297.359375 L 0 297.359375 Z M 0 0.140625 " fill-opacity="1" fill-rule="nonzero"/></g><path fill="#cc956e" d="M 250.398438 235.546875 C 250.503906 224.132812 251.433594 189 250.605469 178.242188 C 248.332031 172.242188 206.929688 169.449219 206.929688 169.449219 L 175.210938 168.625 L 147.359375 153.175781 C 147.359375 153.175781 110.402344 170.277344 110.679688 223.789062 C 109.78125 242.085938 120.054688 260.199219 145.703125 249.71875 C 156.734375 249.164062 176.558594 254.0625 182.246094 253.128906 C 187.019531 252.347656 190.261719 249.164062 190.019531 245.46875 C 190.867188 247.140625 191.925781 248.5 193.277344 249.304688 C 198.035156 252.128906 218.925781 253.921875 224.648438 248.199219 C 228.578125 248.199219 241.277344 250.664062 249.882812 247.339844 C 257.914062 244.234375 253.605469 236.132812 250.398438 235.546875 Z M 250.398438 235.546875 C 250.503906 224.132812 251.433594 189 250.605469 178.242188 C 248.332031 172.242188 206.929688 169.449219 206.929688 169.449219 L 175.210938 168.625 L 147.359375 153.175781 C 147.359375 153.175781 110.402344 170.277344 110.679688 223.789062 C 109.78125 242.085938 120.054688 260.199219 145.703125 249.71875 C 156.734375 249.164062 176.558594 254.0625 182.246094 253.128906 C 187.019531 252.347656 190.261719 249.164062 190.019531 245.46875 C 190.867188 247.140625 191.925781 248.5 193.277344 249.304688 C 198.035156 252.128906 218.925781 253.921875 224.648438 248.199219 C 228.578125 248.199219 241.277344 250.664062 249.882812 247.339844 C 257.914062 244.234375 253.605469 236.132812 250.398438 235.546875 Z M 250.398438 235.546875 " fill-opacity="1" fill-rule="nonzero"/><path fill="#72412b" d="M 190.828125 247.386719 C 190.773438 247.632812 190.558594 247.800781 190.320312 247.800781 C 190.285156 247.800781 190.25 247.796875 190.214844 247.789062 C 189.933594 247.730469 189.753906 247.457031 189.8125 247.175781 C 190.402344 244.367188 188.730469 242.210938 187.75 241.226562 C 183.871094 238.179688 175.730469 236.890625 175.730469 236.890625 C 175.730469 236.890625 177.746094 235.773438 180.03125 233.773438 C 182.640625 231.101562 186.53125 225.359375 186.382812 214.914062 C 186.152344 198.617188 173.222656 193.625 165.621094 193.246094 C 165.335938 193.234375 165.113281 192.992188 165.128906 192.703125 C 165.144531 192.417969 165.394531 192.199219 165.671875 192.214844 C 173.636719 192.609375 187.175781 197.835938 187.417969 214.898438 C 187.484375 219.457031 186.820312 223.144531 185.824219 226.097656 C 186.476562 228.058594 186.738281 234.46875 188.152344 240.171875 C 189.191406 241.105469 191.597656 243.71875 190.828125 247.386719 Z M 181.855469 242.480469 C 181.574219 242.453125 181.320312 242.660156 181.289062 242.945312 C 181.261719 243.226562 181.46875 243.480469 181.753906 243.511719 C 184.160156 243.753906 185.921875 244.699219 186.996094 246.3125 C 187.917969 247.703125 188.109375 249.273438 188.003906 250.335938 C 188.226562 250.207031 189.007812 249.269531 189.03125 249.074219 C 188.921875 247.992188 188.566406 246.804688 187.859375 245.738281 C 186.996094 244.445312 185.257812 242.824219 181.855469 242.480469 Z M 148.011719 202.234375 C 145.699219 200.933594 143.195312 200.890625 140.96875 202.109375 C 135.476562 205.117188 138.113281 212.511719 140.902344 220.339844 C 141.214844 221.214844 141.53125 222.101562 141.84375 222.996094 C 143.449219 227.625 143.3125 234.691406 139.941406 239.238281 C 137.839844 242.074219 134.859375 243.429688 131.101562 243.289062 C 120.273438 242.867188 120.125 232.582031 120.125 232.144531 C 120.125 231.859375 119.894531 231.628906 119.609375 231.628906 C 119.320312 231.628906 119.089844 231.859375 119.089844 232.148438 C 119.089844 232.265625 119.226562 243.859375 131.058594 244.324219 C 135.125 244.484375 138.488281 242.9375 140.773438 239.851562 C 144.359375 235.019531 144.515625 227.542969 142.820312 222.65625 C 142.507812 221.757812 142.191406 220.871094 141.878906 219.992188 C 139.125 212.269531 136.75 205.601562 141.464844 203.019531 C 143.367188 201.976562 145.515625 202.019531 147.503906 203.136719 C 149.757812 204.398438 155.078125 209.046875 155.828125 224.875 C 156.671875 242.769531 147.230469 248.835938 145.691406 249.707031 C 146.085938 249.707031 147.035156 249.683594 147.617188 249.664062 C 150.886719 247.179688 157.585938 240.171875 156.859375 224.828125 C 156.316406 213.320312 153.089844 205.082031 148.011719 202.234375 Z M 179.402344 246.410156 C 179.117188 246.386719 178.871094 246.601562 178.851562 246.886719 C 178.832031 247.171875 179.046875 247.421875 179.332031 247.441406 C 181.742188 247.613281 183.535156 248.5 184.65625 250.082031 C 185.105469 250.714844 185.398438 251.390625 185.574219 252.042969 C 185.714844 252 186.296875 251.714844 186.503906 251.53125 C 186.289062 250.832031 185.960938 250.132812 185.5 249.484375 C 184.601562 248.214844 182.8125 246.648438 179.402344 246.410156 Z M 236.832031 238.898438 C 236.605469 238.726562 236.28125 238.773438 236.109375 239 C 235.9375 239.230469 235.984375 239.554688 236.210938 239.726562 C 238.144531 241.179688 239.167969 242.898438 239.253906 244.835938 C 239.335938 246.699219 238.511719 248.28125 237.8125 249.078125 C 238.09375 249.089844 238.703125 249.101562 239.109375 249.074219 C 239.816406 247.988281 240.359375 246.449219 240.289062 244.789062 C 240.21875 243.234375 239.566406 240.949219 236.832031 238.898438 Z M 245.617188 237.847656 C 245.386719 237.679688 245.0625 237.734375 244.898438 237.96875 C 244.730469 238.199219 244.785156 238.523438 245.015625 238.691406 C 246.984375 240.097656 248.042969 241.792969 248.171875 243.730469 C 248.3125 245.835938 247.292969 247.621094 246.570312 248.296875 C 246.890625 248.238281 248.003906 247.960938 248.175781 247.882812 C 248.832031 246.789062 249.3125 245.277344 249.203125 243.660156 C 249.101562 242.109375 248.398438 239.839844 245.617188 237.847656 Z M 294.558594 79.507812 C 306.171875 84.910156 299.691406 63.570312 274.300781 50.332031 C 248.910156 37.09375 220.140625 39.226562 220.140625 39.226562 C 220.140625 39.226562 191.375 37.09375 165.984375 50.332031 C 140.59375 63.570312 134.109375 84.910156 145.726562 79.507812 C 133.03125 91.9375 131.410156 115.4375 133.839844 130.839844 C 136.269531 146.238281 141.402344 133 141.402344 133 C 141.402344 133 140.59375 151.84375 154.773438 169.066406 C 160.445312 176.359375 159.027344 159.542969 159.027344 159.542969 C 159.027344 159.542969 162.878906 176.96875 186.984375 190.746094 C 193.46875 194.191406 190.023438 184.058594 190.023438 184.058594 C 190.023438 184.058594 205.144531 198.742188 218.191406 200.148438 C 218.761719 206.246094 221.246094 232.78125 221.71875 238.46875 C 221.734375 238.644531 221.835938 238.796875 221.988281 238.882812 C 224.109375 240.042969 225.367188 241.597656 225.726562 243.503906 C 226.117188 245.578125 225.3125 247.457031 224.679688 248.21875 C 224.917969 248.25 225.730469 248.28125 225.898438 248.273438 C 226.605469 247.078125 227.101562 245.21875 226.742188 243.3125 C 226.460938 241.824219 225.535156 239.734375 222.726562 238.109375 C 222.207031 231.949219 219.832031 206.5625 219.238281 200.234375 C 219.539062 200.25 219.84375 200.269531 220.140625 200.269531 C 233.578125 200.269531 250.257812 184.058594 250.257812 184.058594 C 250.257812 184.058594 246.816406 194.191406 253.296875 190.746094 C 277.40625 176.96875 281.253906 159.542969 281.253906 159.542969 C 281.253906 159.542969 279.835938 176.359375 285.507812 169.066406 C 299.691406 151.84375 298.878906 133 298.878906 133 C 298.878906 133 304.011719 146.238281 306.445312 130.839844 C 308.875 115.4375 307.253906 91.9375 294.558594 79.507812 Z M 217.558594 240.53125 C 217.328125 240.363281 217.003906 240.417969 216.839844 240.648438 C 216.671875 240.882812 216.726562 241.203125 216.957031 241.371094 C 218.921875 242.78125 219.984375 244.476562 220.113281 246.410156 C 220.25 248.515625 219.128906 250.414062 218.410156 251.089844 C 218.527344 251.085938 219.8125 250.773438 220.054688 250.667969 C 220.742188 249.566406 221.257812 248.007812 221.144531 246.34375 C 221.042969 244.789062 220.339844 242.519531 217.558594 240.53125 Z M 209.496094 241.996094 C 209.269531 241.824219 208.941406 241.871094 208.769531 242.097656 C 208.601562 242.328125 208.644531 242.652344 208.875 242.824219 C 210.808594 244.277344 211.832031 245.996094 211.917969 247.933594 C 211.988281 249.601562 211.339844 251.042969 210.699219 251.898438 C 210.957031 251.902344 211.8125 251.867188 211.964844 251.859375 C 212.574219 250.800781 213.015625 249.394531 212.949219 247.886719 C 212.882812 246.332031 212.230469 244.050781 209.496094 241.996094 Z M 209.496094 241.996094 " fill-opacity="1" fill-rule="nonzero"/><path fill="#cc956e" d="M 265.664062 97.03125 C 276.351562 81.542969 256.070312 69.757812 248.394531 81.40625 C 234.964844 71.8125 204.132812 72.769531 191.660156 81.40625 C 183.984375 69.757812 163.703125 81.542969 174.394531 97.03125 C 174.394531 97.03125 153.5625 159.257812 220.027344 159.257812 C 286.496094 159.257812 265.664062 97.03125 265.664062 97.03125 Z M 228.699219 135.4375 C 228.242188 135.4375 227.761719 135.414062 227.25 135.359375 C 222.902344 134.902344 221.042969 132.226562 220.253906 129.773438 C 219.46875 132.226562 217.605469 134.902344 213.257812 135.359375 C 212.75 135.414062 212.265625 135.4375 211.808594 135.4375 C 204.476562 135.4375 203.585938 128.96875 203.578125 128.898438 C 203.539062 128.609375 203.746094 128.347656 204.035156 128.308594 C 204.324219 128.273438 204.589844 128.480469 204.625 128.769531 C 204.660156 129.027344 205.53125 135.113281 213.148438 134.308594 C 218.492188 133.746094 219.554688 129.433594 219.734375 127.082031 C 219.660156 126.140625 219.710938 125.5 219.710938 125.476562 C 219.738281 125.222656 219.9375 125.035156 220.183594 125.011719 C 220.195312 125.007812 220.207031 125 220.222656 125 C 220.234375 124.996094 220.242188 125.003906 220.253906 125.003906 C 220.265625 125.003906 220.277344 124.996094 220.289062 125 C 220.300781 125 220.308594 125.007812 220.320312 125.007812 C 220.570312 125.03125 220.773438 125.21875 220.796875 125.476562 C 220.796875 125.5 220.851562 126.140625 220.773438 127.082031 C 220.953125 129.433594 222.015625 133.746094 227.363281 134.308594 C 234.988281 135.109375 235.851562 129.027344 235.882812 128.769531 C 235.921875 128.480469 236.191406 128.277344 236.472656 128.3125 C 236.761719 128.347656 236.96875 128.609375 236.933594 128.898438 C 236.925781 128.96875 236.03125 135.4375 228.699219 135.4375 Z M 228.699219 135.4375 " fill-opacity="1" fill-rule="nonzero"/><path fill="#e1d7ce" d="M 252.21875 83.449219 C 254.132812 80.972656 258.128906 79.042969 262.0625 81.996094 C 266.710938 85.488281 265.332031 90.515625 262.972656 93.246094 C 259.273438 88.65625 255.160156 85.421875 252.21875 83.449219 Z M 188.320312 83.492188 C 186.40625 81.015625 182.410156 79.085938 178.476562 82.039062 C 173.828125 85.53125 175.207031 90.558594 177.566406 93.289062 C 181.265625 88.699219 185.378906 85.464844 188.320312 83.492188 Z M 220.164062 200.269531 C 219.863281 200.269531 219.5625 200.25 219.261719 200.234375 C 219.429688 202.042969 219.746094 205.417969 220.121094 209.449219 C 222.515625 208.902344 233.226562 205.851562 236.917969 194.351562 C 231.699219 197.554688 225.660156 200.269531 220.164062 200.269531 Z M 220.164062 200.269531 " fill-opacity="1" fill-rule="nonzero"/><path fill="#e1d7ce" d="M 243.496094 100.4375 C 239.398438 100.59375 235.703125 103.328125 235.835938 109.792969 C 235.964844 116.1875 241.757812 117.886719 245.222656 117.558594 C 248.945312 117.210938 252.75 114.492188 252.394531 107.875 C 252.039062 101.273438 247.011719 100.300781 243.496094 100.4375 Z M 195.785156 100.4375 C 191.6875 100.59375 187.996094 103.328125 188.125 109.792969 C 188.253906 116.1875 194.046875 117.886719 197.515625 117.558594 C 201.238281 117.210938 205.042969 114.492188 204.683594 107.875 C 204.328125 101.273438 199.300781 100.300781 195.785156 100.4375 Z M 195.785156 100.4375 " fill-opacity="1" fill-rule="nonzero"/><path fill="#231f20" d="M 252.394531 107.875 C 252.617188 112.015625 251.210938 114.628906 249.214844 116.09375 C 249.085938 116.113281 248.960938 116.136719 248.832031 116.148438 C 245.953125 116.421875 240.609375 115.007812 240.503906 109.699219 C 240.394531 104.328125 243.992188 102.058594 247.394531 101.925781 C 248.261719 101.894531 249.179688 102.011719 250.058594 102.3125 C 251.332031 103.4375 252.25 105.191406 252.394531 107.875 Z M 202.347656 102.3125 C 201.472656 102.011719 200.550781 101.894531 199.6875 101.925781 C 196.285156 102.058594 192.6875 104.328125 192.792969 109.699219 C 192.902344 115.007812 198.242188 116.421875 201.121094 116.148438 C 201.25 116.136719 201.378906 116.113281 201.503906 116.09375 C 203.503906 114.628906 204.910156 112.015625 204.683594 107.875 C 204.539062 105.191406 203.625 103.4375 202.347656 102.3125 Z M 220.898438 116.917969 C 220.789062 116.910156 220.527344 116.910156 220.269531 116.914062 C 220.011719 116.910156 219.75 116.910156 219.640625 116.917969 C 215.640625 116.957031 212.046875 117.996094 212.234375 118.835938 C 212.332031 119.265625 219.105469 126.085938 220.230469 126.082031 C 220.238281 126.082031 220.300781 126.082031 220.308594 126.082031 C 221.433594 126.085938 228.207031 119.265625 228.304688 118.835938 C 228.492188 117.996094 224.898438 116.957031 220.898438 116.917969 Z M 220.898438 116.917969 " fill-opacity="1" fill-rule="nonzero"/><g mask="url(#id3)"><g transform="matrix(1, 0, 0, 1, 129, 157)"><g clip-path="url(#id5)"><g clip-path="url(#id4)"><path fill="#72412b" d="M 22.207031 1.753906 C 21.152344 0.292969 19.109375 -0.410156 15.609375 1.894531 C 12.230469 4.117188 12.976562 6.769531 13.796875 7.933594 C 14.742188 9.277344 17.148438 9.773438 20.53125 7.394531 C 23.9375 4.996094 23.113281 3.007812 22.207031 1.753906 Z M 11.472656 18.933594 C 12.328125 19.710938 13.679688 19.898438 15.503906 18.042969 C 17.261719 16.253906 16.425781 14.699219 15.757812 14.078125 C 14.984375 13.359375 13.4375 13.347656 11.699219 15.234375 C 9.949219 17.136719 10.738281 18.269531 11.472656 18.933594 Z M 1.617188 18.441406 C 2.292969 18.972656 3.304688 19.035156 4.550781 17.558594 C 5.753906 16.136719 5.050781 15.03125 4.519531 14.609375 C 3.90625 14.121094 2.761719 14.195312 1.578125 15.691406 C 0.390625 17.195312 1.035156 17.988281 1.617188 18.441406 Z M 1.617188 18.441406 " fill-opacity="1" fill-rule="nonzero"/></g></g></g></g></svg>