<svg xmlns="http://www.w3.org/2000/svg" xmlns:xlink="http://www.w3.org/1999/xlink" width="559" zoomAndPan="magnify" viewBox="0 0 419.25 297.749993" height="396" preserveAspectRatio="xMidYMid meet" version="1.0"><defs><clipPath id="id1"><path d="M 126 47 L 307 47 L 307 253.703125 L 126 253.703125 Z M 126 47 " clip-rule="nonzero"/></clipPath><clipPath id="id2"><path d="M 152 169 L 206 169 L 206 253.703125 L 152 253.703125 Z M 152 169 " clip-rule="nonzero"/></clipPath><clipPath id="id3"><path d="M 218 220 L 318 220 L 318 253.703125 L 218 253.703125 Z M 218 220 " clip-rule="nonzero"/></clipPath></defs><g clip-path="url(#id1)"><path fill="#f7e3b5" d="M 303.660156 132.691406 C 303.640625 132.664062 303.632812 132.644531 303.621094 132.625 L 234.75 60.453125 C 225.28125 51.144531 224.011719 47.734375 216.308594 47.734375 C 210.324219 47.734375 206.164062 51.65625 195.988281 61.546875 L 129.402344 132.605469 C 127.371094 134.632812 126.089844 137.492188 126.089844 140.683594 L 126.089844 242.558594 C 126.089844 248.6875 130.78125 253.660156 136.570312 253.660156 L 296.394531 253.660156 C 302.183594 253.660156 306.875 248.6875 306.875 242.558594 L 306.875 140.683594 C 306.875 137.539062 305.644531 134.710938 303.660156 132.691406 " fill-opacity="1" fill-rule="nonzero"/></g><path fill="#ea8342" d="M 221.25 225.058594 C 218.726562 225.058594 216.675781 222.457031 216.675781 219.226562 L 216.675781 175.769531 C 216.675781 172.546875 218.726562 169.933594 221.25 169.933594 L 285.980469 169.933594 C 288.503906 169.933594 290.546875 172.546875 290.546875 175.769531 L 290.546875 219.226562 C 290.546875 222.457031 288.503906 225.058594 285.980469 225.058594 L 221.25 225.058594 " fill-opacity="1" fill-rule="nonzero"/><path fill="#e0464c" d="M 318.46875 130.871094 L 221.101562 33.574219 C 218.6875 31.167969 216.113281 29.828125 214.023438 31.914062 C 214.023438 31.914062 208.136719 36.421875 206.882812 37.683594 L 113.449219 131.046875 C 111.132812 133.363281 109.871094 135.855469 111.960938 137.933594 L 117.789062 143.765625 C 119.878906 145.855469 122.371094 144.59375 124.691406 142.277344 L 216.042969 50.996094 L 307.21875 142.113281 C 309.636719 144.515625 312.210938 145.855469 314.300781 143.765625 L 320.136719 137.933594 C 322.21875 135.855469 320.886719 133.285156 318.46875 130.871094 " fill-opacity="1" fill-rule="nonzero"/><g clip-path="url(#id2)"><path fill="#ea8342" d="M 205.058594 253.515625 L 205.058594 175.53125 C 205.058594 172.4375 202.554688 169.933594 199.460938 169.933594 L 157.75 169.933594 C 154.664062 169.933594 152.148438 172.4375 152.148438 175.53125 L 152.148438 253.515625 L 205.058594 253.515625 " fill-opacity="1" fill-rule="nonzero"/></g><path fill="#a6d1ee" d="M 225.34375 219.820312 C 223.132812 219.820312 221.339844 217.710938 221.339844 215.097656 L 221.339844 179.894531 C 221.339844 177.292969 223.132812 175.175781 225.34375 175.175781 L 281.890625 175.175781 C 284.097656 175.175781 285.882812 177.292969 285.882812 179.894531 L 285.882812 215.097656 C 285.882812 217.710938 284.097656 219.820312 281.890625 219.820312 L 225.339844 219.820312 " fill-opacity="1" fill-rule="nonzero"/><path fill="#f8a64b" d="M 285.882812 188.871094 L 285.882812 179.894531 C 285.882812 177.292969 284.097656 175.175781 281.890625 175.175781 L 225.34375 175.175781 C 223.132812 175.175781 221.339844 177.292969 221.339844 179.894531 L 221.339844 188.871094 L 285.882812 188.871094 " fill-opacity="1" fill-rule="nonzero"/><path fill="#ea8342" d="M 232.992188 120.75 C 232.992188 130.109375 225.402344 137.699219 216.035156 137.699219 C 206.65625 137.699219 199.066406 130.109375 199.066406 120.75 C 199.066406 111.390625 206.65625 103.796875 216.035156 103.796875 C 225.402344 103.796875 232.992188 111.390625 232.992188 120.75 " fill-opacity="1" fill-rule="nonzero"/><path fill="#a6d1ee" d="M 228.929688 120.75 C 228.929688 127.863281 223.152344 133.636719 216.035156 133.636719 C 208.914062 133.636719 203.136719 127.863281 203.136719 120.75 C 203.136719 113.628906 208.914062 107.863281 216.035156 107.863281 C 223.152344 107.863281 228.929688 113.628906 228.929688 120.75 " fill-opacity="1" fill-rule="nonzero"/><g clip-path="url(#id3)"><path fill="#53c285" d="M 307.46875 234.09375 C 305.375 234.09375 303.453125 234.753906 301.875 235.878906 C 302.015625 235.304688 302.101562 234.714844 302.101562 234.09375 C 302.101562 229.945312 298.742188 226.585938 294.589844 226.585938 C 291.945312 226.585938 289.621094 227.957031 288.289062 230.015625 C 286.949219 227.957031 284.628906 226.585938 281.976562 226.585938 C 280.578125 226.585938 279.265625 226.980469 278.144531 227.652344 C 277.15625 223.367188 273.320312 220.152344 268.734375 220.152344 C 264.023438 220.152344 260.097656 223.53125 259.25 227.984375 C 258.019531 227.109375 256.519531 226.585938 254.882812 226.585938 C 252.734375 226.585938 250.800781 227.503906 249.421875 228.953125 C 247.714844 226.242188 244.707031 224.449219 241.265625 224.449219 C 235.929688 224.449219 231.601562 228.765625 231.601562 234.09375 C 231.601562 234.351562 231.621094 234.617188 231.640625 234.863281 C 230.480469 234.371094 229.195312 234.09375 227.855469 234.09375 C 222.523438 234.09375 218.191406 238.421875 218.191406 243.75 C 218.191406 249.082031 222.523438 253.394531 227.855469 253.394531 L 307.464844 253.394531 C 312.800781 253.394531 317.121094 249.082031 317.121094 243.75 C 317.121094 238.421875 312.800781 234.09375 307.464844 234.09375 " fill-opacity="1" fill-rule="nonzero"/></g></svg>