<svg xmlns="http://www.w3.org/2000/svg" xmlns:xlink="http://www.w3.org/1999/xlink" width="559" zoomAndPan="magnify" viewBox="0 0 419.25 297.749993" height="396" preserveAspectRatio="xMidYMid meet" version="1.0"><defs><clipPath id="id1"><path d="M 0 0.140625 L 418.5 0.140625 L 418.5 297.359375 L 0 297.359375 Z M 0 0.140625 " clip-rule="nonzero"/></clipPath><clipPath id="id2"><path d="M 125.550781 29.851562 L 293 29.851562 L 293 262 L 125.550781 262 Z M 125.550781 29.851562 " clip-rule="nonzero"/></clipPath></defs><g clip-path="url(#id1)"><path fill="#f4a5d5" d="M 0 0.140625 L 418.5 0.140625 L 418.5 297.359375 L 0 297.359375 Z M 0 0.140625 " fill-opacity="1" fill-rule="nonzero"/><path fill="#ffffff" d="M 0 0.140625 L 418.5 0.140625 L 418.5 297.359375 L 0 297.359375 Z M 0 0.140625 " fill-opacity="1" fill-rule="nonzero"/><path fill="#f4a5d5" d="M 0 0.140625 L 418.5 0.140625 L 418.5 297.359375 L 0 297.359375 Z M 0 0.140625 " fill-opacity="1" fill-rule="nonzero"/></g><path fill="#f3b176" d="M 132.804688 165.277344 C 129.738281 160.203125 135.09375 126.09375 169.773438 114.527344 L 258.03125 118.175781 C 278.585938 125.820312 288.308594 146.90625 287.988281 161.074219 C 270.035156 200.199219 156.453125 222.523438 132.804688 165.277344 Z M 132.804688 165.277344 " fill-opacity="1" fill-rule="nonzero"/><path fill="#f5edbe" d="M 290.816406 161.828125 C 275.195312 189.78125 272.195312 220.484375 268.738281 246.113281 C 248.066406 267.175781 147.246094 261.066406 146.292969 248.152344 C 143.238281 218.085938 136.699219 191.328125 126.859375 162.753906 C 127.578125 159.195312 142.710938 174.304688 144.492188 174.894531 C 146.269531 175.488281 154.28125 160.085938 157.546875 159.195312 C 160.808594 158.308594 167.632812 172.226562 169.710938 172.523438 C 171.789062 172.820312 184.839844 155.640625 187.507812 155.640625 C 190.179688 155.640625 196.625 168.96875 198.742188 169.265625 C 200.859375 169.5625 209.460938 157.121094 213.023438 155.640625 C 216.582031 154.164062 222.515625 166.011719 225.777344 167.195312 C 229.042969 168.378906 235.566406 154.753906 240.320312 153.867188 C 245.066406 152.980469 248.03125 168.382812 251.59375 167.785156 C 255.15625 167.191406 261.683594 153.792969 264.941406 153.832031 C 268.203125 153.867188 271.472656 169.863281 273.546875 169.566406 C 275.625 169.265625 293.128906 155.9375 290.816406 161.828125 Z M 290.816406 161.828125 " fill-opacity="1" fill-rule="nonzero"/><path fill="#bb5c52" d="M 272.550781 143.132812 C 271.109375 146.308594 266.789062 147.144531 265.636719 145.421875 C 264.484375 143.699219 262.46875 137.082031 265.636719 136.21875 C 265.636719 136.21875 273.992188 139.957031 272.550781 143.132812 Z M 176.621094 152.65625 C 175.90625 153.566406 175.542969 158.355469 176.621094 161.457031 C 177.28125 163.34375 182.351562 160.160156 182.578125 157.058594 C 182.808594 153.957031 177.339844 151.746094 176.621094 152.65625 Z M 171.039062 121.886719 C 169.261719 121.632812 164.746094 128.589844 165.804688 130.074219 C 166.867188 131.558594 173.664062 130.710938 173.875 130.074219 C 174.085938 129.441406 173.085938 122.179688 171.039062 121.886719 Z M 211.515625 139.871094 C 209.757812 139.949219 211.515625 149.578125 211.515625 149.28125 C 211.515625 148.992188 217.527344 148.992188 217.042969 146.226562 C 216.546875 143.460938 211.515625 139.871094 211.515625 139.871094 Z M 140.992188 152.015625 C 139.730469 152.765625 139.5 161.15625 139.988281 162.335938 C 140.527344 163.652344 145.519531 158.296875 145.148438 157.175781 C 144.777344 156.058594 142.25 151.261719 140.992188 152.015625 Z M 228.5 64.980469 L 204.273438 75.417969 C 196.773438 77.8125 189 79.691406 182.273438 83.761719 C 178.144531 86.257812 174.5 89.542969 171.59375 93.390625 C 167.421875 98.910156 166.363281 108.515625 169.773438 114.527344 C 190.585938 125.003906 214.882812 128.234375 237.785156 124.027344 L 237.535156 124.082031 C 237.535156 124.082031 236.457031 127.398438 237.535156 127.902344 C 238.613281 128.40625 246.589844 126.800781 244.992188 122.457031 L 244.894531 122.480469 C 249.355469 121.339844 253.75 119.910156 258.03125 118.183594 C 259.65625 114.023438 258.519531 106.519531 257.246094 102.238281 C 252.570312 86.582031 242.148438 73.820312 228.5 64.980469 Z M 228.5 64.980469 " fill-opacity="1" fill-rule="nonzero"/><path fill="#f17172" d="M 208.941406 80.574219 C 205.738281 77.808594 201.457031 72.453125 201.011719 68.242188 C 200.675781 65.058594 201.640625 61.292969 204.578125 60.003906 C 206.992188 58.945312 210.007812 59.898438 212.296875 58.585938 C 214.199219 57.496094 215.082031 55.105469 217.019531 54.074219 C 218.894531 53.082031 221.300781 53.6875 222.953125 55.011719 C 224.609375 56.339844 229.910156 60.15625 228.535156 72.671875 C 220.945312 79.683594 215.453125 76.945312 208.941406 80.574219 Z M 208.941406 80.574219 " fill-opacity="1" fill-rule="nonzero"/><g clip-path="url(#id2)"><path fill="#8b4338" d="M 291.574219 159.578125 C 291.023438 159.128906 290.265625 159.050781 289.132812 159.390625 C 288.917969 152.015625 286.304688 143.800781 281.820312 136.574219 C 277.96875 130.367188 270.996094 122.105469 259.464844 117.496094 C 260.78125 112.582031 259.363281 105.292969 258.355469 101.90625 C 253.8125 86.683594 243.851562 73.683594 229.546875 64.285156 C 228.441406 57.90625 225.148438 55.28125 223.828125 54.234375 L 223.6875 54.121094 C 221.863281 52.660156 218.929688 51.765625 216.480469 53.066406 C 215.28125 53.699219 214.480469 54.6875 213.703125 55.644531 C 213.421875 55.992188 213.148438 56.328125 212.863281 56.636719 C 210.332031 53.933594 205.910156 51.925781 203.933594 49.867188 C 198.820312 44.554688 196.605469 36.984375 194.625 30.078125 C 194.566406 29.875 194.21875 29.902344 194.242188 30.128906 C 194.996094 36.804688 196.398438 43.320312 200.507812 48.832031 C 202.246094 51.171875 204.339844 53.085938 206.777344 54.679688 C 208.324219 55.695312 209.773438 56.699219 211.03125 57.882812 C 210.191406 58.15625 209.21875 58.203125 208.203125 58.242188 C 206.851562 58.300781 205.453125 58.359375 204.117188 58.945312 C 200.660156 60.460938 199.492188 64.769531 199.867188 68.363281 C 200.085938 70.433594 201.109375 72.679688 202.445312 74.773438 C 201.488281 75.070312 200.53125 75.367188 199.585938 75.652344 C 193.507812 77.496094 187.226562 79.410156 181.667969 82.769531 C 177.445312 85.328125 173.640625 88.757812 170.667969 92.691406 C 166.351562 98.402344 165.332031 107.585938 168.148438 113.878906 C 146.070312 121.734375 137.105469 138.136719 133.71875 147.332031 C 131.4375 153.507812 130.6875 158.976562 130.964844 162.527344 C 129.074219 161.285156 127.792969 160.847656 126.882812 161.15625 C 126.28125 161.359375 125.859375 161.859375 125.726562 162.519531 L 125.660156 162.832031 L 125.761719 163.125 C 136.28125 193.675781 142.261719 219.933594 145.136719 248.238281 C 145.320312 250.738281 147.941406 252.878906 153.144531 254.777344 C 163.734375 258.644531 184.308594 261.074219 205.179688 261.074219 C 207.960938 261.074219 210.75 261.035156 213.519531 260.941406 C 241.269531 260.054688 261.703125 254.941406 269.574219 246.921875 L 269.84375 246.648438 L 269.894531 246.269531 C 270.167969 244.238281 270.441406 242.179688 270.710938 240.089844 C 273.921875 215.648438 277.5625 187.945312 291.835938 162.394531 L 291.902344 162.253906 C 292.488281 160.742188 292.050781 159.964844 291.574219 159.578125 Z M 205.042969 61.066406 C 205.980469 60.65625 207.105469 60.609375 208.292969 60.558594 C 209.757812 60.5 211.261719 60.425781 212.660156 59.699219 C 213.070312 60.234375 213.4375 60.8125 213.773438 61.441406 C 213.398438 61.742188 213 61.996094 212.570312 62.207031 C 212.175781 62.394531 211.761719 62.5 211.457031 62.824219 C 211.277344 63.015625 211.328125 63.285156 211.535156 63.429688 C 212.476562 64.066406 214.050781 63.316406 214.824219 62.699219 C 215.636719 62.054688 216.59375 60.734375 216.25 59.628906 C 216.195312 59.445312 215.933594 59.292969 215.753906 59.433594 C 215.371094 59.71875 215.054688 60.097656 214.730469 60.472656 C 214.699219 59.792969 214.523438 59.15625 214.226562 58.550781 C 214.695312 58.089844 215.101562 57.59375 215.5 57.097656 C 216.15625 56.285156 216.78125 55.519531 217.566406 55.105469 C 219.074219 54.304688 221.042969 54.964844 222.230469 55.921875 L 222.386719 56.042969 C 224.042969 57.359375 228.347656 60.785156 227.496094 71.421875 C 225.777344 72.707031 224.097656 73.980469 222.078125 74.914062 C 219.023438 76.324219 215.75 77.242188 212.570312 78.324219 C 211.503906 78.691406 210.4375 79.050781 209.390625 79.429688 C 206.105469 76.484375 202.535156 71.640625 202.167969 68.132812 C 201.875 65.367188 202.65625 62.117188 205.042969 61.066406 Z M 172.515625 94.082031 C 175.3125 90.378906 178.890625 87.152344 182.867188 84.75 C 188.179688 81.539062 194.320312 79.667969 200.261719 77.867188 C 201.4375 77.511719 202.644531 77.140625 203.839844 76.761719 C 204.871094 78.117188 205.980469 79.351562 206.996094 80.347656 C 203.558594 81.78125 200.417969 83.632812 198.050781 86.785156 C 197.972656 86.890625 198.136719 86.988281 198.222656 86.914062 C 203.441406 82.640625 209.960938 81.351562 216.285156 79.675781 C 221.242188 78.363281 228.445312 76.164062 230.855469 71.148438 C 231.167969 70.492188 230.605469 69.585938 229.90625 69.75 C 229.929688 68.886719 229.921875 68.066406 229.882812 67.292969 C 242.867188 76.289062 251.921875 88.4375 256.136719 102.5625 C 257.492188 107.109375 258.257812 113.667969 257.113281 117.296875 C 229.484375 128.28125 197.222656 126.925781 170.617188 113.65625 C 167.722656 108.1875 168.5625 99.320312 172.515625 94.082031 Z M 238.453125 125.085938 C 240.3125 124.734375 242.167969 124.339844 244.003906 123.890625 C 243.941406 124.179688 243.796875 124.453125 243.554688 124.726562 C 242.300781 126.164062 239.285156 126.824219 238.210938 126.839844 C 238.1875 126.457031 238.28125 125.769531 238.453125 125.085938 Z M 135.886719 148.125 C 139.175781 139.210938 147.941406 123.210938 169.699219 115.777344 C 184.660156 123.21875 201.363281 126.976562 218.066406 126.976562 C 224.066406 126.976562 230.0625 126.492188 235.980469 125.515625 C 235.753906 126.910156 235.851562 128.386719 237.039062 128.941406 C 237.3125 129.066406 237.722656 129.132812 238.210938 129.132812 C 240.074219 129.132812 243.15625 128.25 244.867188 126.683594 C 245.921875 125.710938 246.425781 124.535156 246.339844 123.289062 C 250.300781 122.230469 254.199219 120.9375 258.015625 119.417969 C 277.992188 127.078125 286.785156 147.640625 286.820312 160.363281 C 284.886719 161.34375 282.265625 162.945312 278.644531 165.261719 C 276.789062 166.449219 274.527344 167.890625 273.648438 168.308594 C 273.019531 167.46875 271.980469 164.675781 271.207031 162.585938 C 268.925781 156.433594 267.371094 152.691406 264.953125 152.664062 C 264.941406 152.664062 264.933594 152.664062 264.925781 152.664062 C 262.789062 152.664062 260.652344 155.460938 257.34375 160.015625 C 255.382812 162.71875 252.6875 166.425781 251.398438 166.640625 C 251.386719 166.640625 251.375 166.644531 251.363281 166.644531 C 250.546875 166.644531 248.652344 162.714844 247.839844 161.023438 C 245.71875 156.628906 243.53125 152.082031 240.105469 152.726562 C 237.324219 153.246094 234.4375 156.9375 231.644531 160.511719 C 230.324219 162.199219 229.082031 163.792969 227.972656 164.882812 C 226.644531 166.195312 226.175781 166.109375 226.175781 166.101562 C 225.140625 165.730469 223.277344 163.34375 221.640625 161.242188 C 218.472656 157.1875 215.484375 153.359375 212.578125 154.570312 C 210.574219 155.402344 207.660156 158.722656 204.578125 162.230469 C 202.699219 164.367188 199.914062 167.542969 198.875 168.058594 C 198.050781 167.445312 196.136719 164.507812 194.84375 162.53125 C 191.578125 157.539062 189.476562 154.476562 187.507812 154.476562 C 186.613281 154.476562 185.472656 155.21875 183.738281 156.847656 C 183.730469 154.511719 181.519531 152.601562 179.246094 151.71875 C 177.585938 151.074219 176.332031 151.148438 175.714844 151.925781 C 174.664062 153.261719 174.371094 158.496094 175.53125 161.824219 C 175.765625 162.496094 176.40625 163.164062 177.519531 163.164062 C 177.59375 163.164062 177.679688 163.152344 177.757812 163.148438 C 177.558594 163.371094 177.359375 163.589844 177.148438 163.820312 C 174.550781 166.6875 171.058594 170.550781 169.820312 171.28125 C 169.078125 170.664062 167.476562 168.328125 166.28125 166.578125 C 162.460938 160.992188 159.769531 157.378906 157.238281 158.070312 C 155.253906 158.609375 152.84375 162 149.109375 167.523438 C 147.574219 169.789062 145.523438 172.816406 144.597656 173.621094 C 143.792969 173.058594 141.941406 171.453125 140.28125 170.015625 C 137.644531 167.726562 135.496094 165.910156 133.71875 164.519531 C 132.910156 162.835938 132.753906 156.632812 135.886719 148.125 Z M 179.40625 159.960938 C 178.636719 160.550781 177.972656 160.8125 177.644531 160.863281 C 176.839844 158.308594 177.066406 154.722656 177.429688 153.613281 C 178.046875 153.691406 179.414062 154.191406 180.441406 155.125 C 180.917969 155.558594 181.476562 156.230469 181.425781 156.972656 C 181.359375 157.894531 180.566406 159.0625 179.40625 159.960938 Z M 268.40625 239.785156 C 268.152344 241.738281 267.898438 243.667969 267.644531 245.570312 C 250.289062 262.472656 177.253906 261.121094 153.9375 252.605469 C 148.222656 250.523438 147.492188 248.738281 147.441406 248.035156 C 144.585938 219.914062 138.699219 193.828125 128.390625 163.648438 C 130.75 164.824219 136.035156 169.410156 138.765625 171.769531 C 142.144531 174.703125 143.394531 175.75 144.121094 175.992188 C 145.722656 176.523438 147.144531 174.566406 151.027344 168.828125 C 153.089844 165.773438 156.550781 160.664062 157.847656 160.3125 C 157.855469 160.3125 158.503906 160.226562 160.347656 162.386719 C 161.652344 163.914062 163.097656 166.03125 164.371094 167.890625 C 167.015625 171.761719 168.242188 173.480469 169.542969 173.667969 C 170.960938 173.863281 172.703125 172.1875 178.867188 165.382812 C 181.804688 162.136719 186.214844 157.265625 187.519531 156.8125 C 188.597656 157.210938 191.285156 161.324219 192.90625 163.800781 C 195.945312 168.445312 197.222656 170.222656 198.585938 170.410156 C 200.125 170.628906 201.933594 168.761719 206.320312 163.757812 C 208.835938 160.898438 211.960938 157.339844 213.472656 156.710938 C 214.746094 156.183594 217.917969 160.242188 219.816406 162.667969 C 221.914062 165.355469 223.726562 167.679688 225.390625 168.28125 C 227.820312 169.160156 230.320312 165.972656 233.480469 161.933594 C 235.765625 159.007812 238.613281 155.359375 240.539062 155 C 242.21875 154.691406 244.265625 158.929688 245.757812 162.027344 C 247.652344 165.949219 249.273438 169.34375 251.792969 168.921875 C 253.867188 168.578125 255.988281 165.839844 259.234375 161.375 C 260.96875 158.980469 263.878906 154.976562 264.914062 154.976562 C 264.914062 154.976562 264.914062 154.976562 264.921875 154.976562 C 266.039062 155.261719 268.074219 160.75 269.050781 163.386719 C 271 168.640625 271.929688 170.957031 273.722656 170.703125 C 274.570312 170.582031 276.09375 169.648438 279.910156 167.203125 C 282.675781 165.433594 287.519531 162.335938 289.613281 161.625 C 275.277344 187.464844 271.628906 215.25 268.40625 239.785156 Z M 267.679688 147.460938 C 267.828125 147.460938 267.980469 147.457031 268.132812 147.441406 C 270.0625 147.285156 272.503906 146.042969 273.605469 143.613281 C 273.949219 142.855469 273.964844 142.011719 273.648438 141.171875 C 272.476562 138.085938 266.757812 135.457031 266.109375 135.164062 L 265.730469 134.992188 L 265.332031 135.105469 C 264.285156 135.390625 263.523438 136.113281 263.113281 137.195312 C 262.101562 139.902344 263.609375 144.472656 264.671875 146.070312 C 265.273438 146.960938 266.355469 147.460938 267.679688 147.460938 Z M 265.285156 138.003906 C 265.382812 137.742188 265.503906 137.585938 265.625 137.488281 C 267.753906 138.511719 270.894531 140.449219 271.480469 141.992188 C 271.609375 142.328125 271.554688 142.523438 271.496094 142.65625 C 270.785156 144.21875 269.15625 145.039062 267.945312 145.136719 C 267.304688 145.1875 266.777344 145.046875 266.597656 144.78125 C 265.777344 143.546875 264.628906 139.75 265.285156 138.003906 Z M 169.117188 132.070312 C 170.339844 132.070312 171.472656 131.929688 172.046875 131.84375 C 174.210938 131.523438 174.757812 131.085938 174.96875 130.449219 C 175.292969 129.476562 174.5 124.417969 173.152344 122.242188 C 172.609375 121.359375 171.949219 120.855469 171.195312 120.75 C 169.191406 120.464844 166.976562 123.714844 166.117188 125.128906 C 165.003906 126.949219 163.890625 129.410156 164.855469 130.757812 C 165.609375 131.800781 167.445312 132.070312 169.117188 132.070312 Z M 170.898438 123.066406 C 171.71875 123.675781 172.648438 127.65625 172.742188 129.367188 C 171.308594 129.761719 167.574219 129.953125 166.796875 129.445312 C 166.699219 128.132812 169.636719 123.574219 170.898438 123.066406 Z M 210 147.308594 C 210.089844 147.945312 210.179688 148.496094 210.25 148.882812 C 210.375 149.582031 210.527344 150.445312 211.503906 150.445312 C 211.511719 150.445312 211.523438 150.445312 211.527344 150.445312 L 212.671875 150.421875 L 212.671875 150.207031 C 214.199219 149.976562 216.652344 149.574219 217.71875 148.09375 C 218.148438 147.492188 218.304688 146.777344 218.175781 146.027344 C 217.621094 142.886719 212.738281 139.328125 212.1875 138.933594 L 211.863281 138.699219 L 211.464844 138.71875 C 209.460938 138.808594 209.550781 141.722656 209.585938 142.972656 C 209.628906 144.46875 209.832031 146.15625 210 147.308594 Z M 211.902344 141.621094 C 213.621094 143.019531 215.652344 145.058594 215.898438 146.425781 C 215.925781 146.582031 215.898438 146.660156 215.835938 146.738281 C 215.355469 147.410156 213.378906 147.75 212.425781 147.898438 C 212.148438 146.179688 211.800781 143.179688 211.902344 141.621094 Z M 141.019531 163.5625 C 142.554688 162.992188 146.886719 158.714844 146.25 156.8125 C 146.085938 156.308594 144.035156 151.667969 141.964844 150.902344 C 141.417969 150.699219 140.863281 150.746094 140.398438 151.023438 C 139.949219 151.292969 139.019531 151.851562 138.679688 156.941406 C 138.667969 157.125 138.382812 161.496094 138.917969 162.78125 C 139.121094 163.277344 139.621094 163.699219 140.3125 163.699219 C 140.527344 163.695312 140.765625 163.652344 141.019531 163.5625 Z M 141.519531 153.351562 C 142.296875 154.136719 143.554688 156.261719 143.984375 157.359375 C 143.691406 158.160156 142.039062 160.050781 140.9375 160.941406 C 140.820312 158.949219 141.03125 154.871094 141.519531 153.351562 Z M 165.027344 207.179688 C 166.714844 217.863281 168.710938 228.75 168.980469 239.585938 C 168.988281 239.769531 168.714844 239.800781 168.664062 239.625 C 165.648438 228.996094 164.273438 217.808594 162.59375 206.90625 C 160.945312 196.21875 158.921875 185.351562 158.628906 174.527344 C 158.628906 174.488281 158.683594 174.484375 158.695312 174.515625 C 161.859375 185.09375 163.304688 196.289062 165.027344 207.179688 Z M 194.605469 204.753906 C 195.765625 215.417969 196.515625 225.984375 195.84375 236.703125 C 195.824219 236.992188 195.355469 237.09375 195.3125 236.777344 C 193.820312 226.433594 193.023438 216.046875 191.929688 205.648438 C 190.820312 195.0625 189.558594 184.515625 188.644531 173.921875 C 188.621094 173.65625 189.027344 173.621094 189.09375 173.859375 C 191.78125 184.042969 193.472656 194.273438 194.605469 204.753906 Z M 221.988281 202.304688 C 222.070312 206.601562 222.175781 210.910156 222.078125 215.210938 C 221.972656 219.863281 221.457031 224.402344 221.105469 229.035156 C 221.09375 229.242188 220.792969 229.242188 220.78125 229.035156 C 220.507812 224.414062 220.027344 219.847656 219.878906 215.210938 C 219.742188 210.910156 219.757812 206.605469 219.695312 202.304688 C 219.558594 193.375 219.699219 184.496094 220.015625 175.585938 C 220.015625 175.570312 220.039062 175.570312 220.039062 175.585938 C 221.121094 184.484375 221.8125 193.324219 221.988281 202.304688 Z M 247.140625 177.734375 C 245.980469 187.828125 244.929688 197.972656 243.882812 208.089844 C 242.859375 218.007812 242.46875 228.050781 240.464844 237.824219 C 240.355469 238.363281 239.609375 238.179688 239.574219 237.703125 C 238.699219 227.554688 240 217.28125 241.136719 207.183594 C 241.699219 202.214844 242.328125 197.261719 243.027344 192.308594 C 243.730469 187.332031 244.882812 182.484375 245.882812 177.566406 C 246.023438 176.859375 247.21875 177.023438 247.140625 177.734375 Z M 273.40625 176.023438 C 273.339844 177.996094 272.480469 179.878906 271.859375 181.738281 C 271.246094 183.578125 270.652344 185.433594 270.078125 187.289062 C 268.84375 191.292969 267.859375 195.351562 266.964844 199.441406 C 265.179688 207.605469 264.085938 215.976562 261.929688 224.046875 C 261.855469 224.324219 261.441406 224.261719 261.4375 223.984375 C 261.34375 215.546875 262.429688 206.917969 264.101562 198.65625 C 264.929688 194.566406 266.003906 190.496094 267.320312 186.535156 C 268.480469 183.03125 269.832031 178.25 272.648438 175.71875 C 272.921875 175.464844 273.421875 175.621094 273.40625 176.023438 Z M 223.0625 89.851562 C 225.476562 87.265625 227.546875 84.414062 229.730469 81.625 C 230.785156 80.273438 231.796875 79.007812 232.542969 77.464844 C 233.253906 76 233.480469 74.425781 234.105469 72.9375 C 234.175781 72.769531 234.367188 72.742188 234.480469 72.886719 C 236.511719 75.59375 234.394531 79.515625 232.664062 81.816406 C 230.160156 85.148438 226.550781 87.546875 223.304688 90.09375 C 223.136719 90.230469 222.90625 90.019531 223.0625 89.851562 Z M 223.0625 89.851562 " fill-opacity="1" fill-rule="nonzero"/></g></svg>