<svg xmlns="http://www.w3.org/2000/svg" xmlns:xlink="http://www.w3.org/1999/xlink" width="559" zoomAndPan="magnify" viewBox="0 0 419.25 297.749993" height="396" preserveAspectRatio="xMidYMid meet" version="1.0"><defs><clipPath id="id1"><path d="M 0 0.140625 L 418.5 0.140625 L 418.5 297.359375 L 0 297.359375 Z M 0 0.140625 " clip-rule="nonzero"/></clipPath><clipPath id="id2"><path d="M 91.441406 80 L 327.269531 80 L 327.269531 217 L 91.441406 217 Z M 91.441406 80 " clip-rule="nonzero"/></clipPath></defs><g clip-path="url(#id1)"><path fill="#ffffff" d="M 0 0.140625 L 419.25 0.140625 L 419.25 304.097656 L 0 304.097656 Z M 0 0.140625 " fill-opacity="1" fill-rule="nonzero"/><path fill="#515170" d="M 0 0.140625 L 418.5 0.140625 L 418.5 297.359375 L 0 297.359375 Z M 0 0.140625 " fill-opacity="1" fill-rule="nonzero"/><path fill="#ffffff" d="M 0 0.140625 L 418.5 0.140625 L 418.5 297.359375 L 0 297.359375 Z M 0 0.140625 " fill-opacity="1" fill-rule="nonzero"/><path fill="#515170" d="M 0 0.140625 L 418.5 0.140625 L 418.5 297.359375 L 0 297.359375 Z M 0 0.140625 " fill-opacity="1" fill-rule="nonzero"/></g><path fill="#ffcc4d" d="M 281.410156 148.488281 C 281.410156 149.671875 281.382812 150.851562 281.324219 152.03125 C 281.265625 153.210938 281.179688 154.390625 281.0625 155.566406 C 280.949219 156.742188 280.804688 157.914062 280.632812 159.082031 C 280.457031 160.253906 280.257812 161.414062 280.027344 162.574219 C 279.796875 163.734375 279.539062 164.886719 279.25 166.03125 C 278.964844 167.179688 278.652344 168.316406 278.308594 169.449219 C 277.964844 170.578125 277.597656 171.699219 277.199219 172.8125 C 276.800781 173.925781 276.378906 175.027344 275.925781 176.121094 C 275.476562 177.210938 274.996094 178.292969 274.492188 179.359375 C 273.988281 180.429688 273.457031 181.484375 272.902344 182.527344 C 272.347656 183.566406 271.765625 184.59375 271.160156 185.609375 C 270.554688 186.621094 269.921875 187.621094 269.265625 188.601562 C 268.613281 189.585938 267.933594 190.550781 267.230469 191.5 C 266.527344 192.449219 265.804688 193.382812 265.054688 194.292969 C 264.308594 195.207031 263.535156 196.101562 262.746094 196.976562 C 261.953125 197.855469 261.140625 198.710938 260.304688 199.542969 C 259.472656 200.378906 258.617188 201.195312 257.746094 201.988281 C 256.871094 202.78125 255.980469 203.554688 255.066406 204.304688 C 254.15625 205.054688 253.226562 205.78125 252.277344 206.484375 C 251.332031 207.1875 250.367188 207.867188 249.386719 208.523438 C 248.40625 209.179688 247.410156 209.8125 246.398438 210.421875 C 245.386719 211.027344 244.363281 211.609375 243.320312 212.167969 C 242.28125 212.722656 241.230469 213.253906 240.164062 213.761719 C 239.097656 214.265625 238.019531 214.746094 236.929688 215.195312 C 235.839844 215.648438 234.742188 216.074219 233.628906 216.472656 C 232.519531 216.871094 231.402344 217.242188 230.273438 217.585938 C 229.144531 217.925781 228.007812 218.242188 226.863281 218.527344 C 225.71875 218.816406 224.570312 219.074219 223.414062 219.304688 C 222.257812 219.535156 221.09375 219.738281 219.929688 219.910156 C 218.761719 220.085938 217.589844 220.230469 216.417969 220.34375 C 215.246094 220.460938 214.070312 220.546875 212.890625 220.605469 C 211.714844 220.664062 210.535156 220.691406 209.355469 220.691406 C 208.175781 220.691406 206.996094 220.664062 205.820312 220.605469 C 204.640625 220.546875 203.464844 220.460938 202.292969 220.34375 C 201.121094 220.230469 199.949219 220.085938 198.78125 219.910156 C 197.617188 219.738281 196.453125 219.535156 195.296875 219.304688 C 194.140625 219.074219 192.992188 218.816406 191.847656 218.527344 C 190.703125 218.242188 189.566406 217.925781 188.4375 217.582031 C 187.308594 217.242188 186.191406 216.871094 185.082031 216.472656 C 183.96875 216.074219 182.871094 215.648438 181.78125 215.195312 C 180.691406 214.746094 179.613281 214.265625 178.546875 213.761719 C 177.480469 213.253906 176.429688 212.722656 175.390625 212.167969 C 174.347656 211.609375 173.324219 211.027344 172.3125 210.421875 C 171.300781 209.8125 170.304688 209.179688 169.324219 208.523438 C 168.34375 207.867188 167.378906 207.1875 166.433594 206.484375 C 165.484375 205.78125 164.554688 205.054688 163.644531 204.304688 C 162.730469 203.554688 161.839844 202.78125 160.964844 201.988281 C 160.09375 201.195312 159.238281 200.378906 158.40625 199.542969 C 157.570312 198.710938 156.757812 197.855469 155.964844 196.976562 C 155.175781 196.101562 154.402344 195.207031 153.65625 194.292969 C 152.90625 193.382812 152.183594 192.449219 151.480469 191.5 C 150.777344 190.550781 150.097656 189.585938 149.445312 188.601562 C 148.789062 187.621094 148.15625 186.621094 147.550781 185.609375 C 146.945312 184.59375 146.363281 183.566406 145.808594 182.527344 C 145.253906 181.484375 144.722656 180.429688 144.21875 179.359375 C 143.714844 178.292969 143.234375 177.210938 142.785156 176.121094 C 142.332031 175.027344 141.910156 173.925781 141.511719 172.8125 C 141.113281 171.699219 140.746094 170.578125 140.402344 169.449219 C 140.058594 168.316406 139.746094 167.179688 139.460938 166.03125 C 139.171875 164.886719 138.914062 163.734375 138.683594 162.574219 C 138.453125 161.414062 138.253906 160.253906 138.078125 159.082031 C 137.90625 157.914062 137.761719 156.742188 137.648438 155.566406 C 137.53125 154.390625 137.445312 153.210938 137.386719 152.03125 C 137.328125 150.851562 137.300781 149.671875 137.300781 148.488281 C 137.300781 147.308594 137.328125 146.125 137.386719 144.945312 C 137.445312 143.765625 137.53125 142.585938 137.648438 141.410156 C 137.761719 140.234375 137.90625 139.0625 138.078125 137.894531 C 138.253906 136.726562 138.453125 135.5625 138.683594 134.402344 C 138.914062 133.242188 139.171875 132.089844 139.460938 130.945312 C 139.746094 129.796875 140.058594 128.660156 140.402344 127.527344 C 140.746094 126.398438 141.113281 125.277344 141.511719 124.164062 C 141.910156 123.050781 142.332031 121.949219 142.785156 120.855469 C 143.234375 119.765625 143.714844 118.683594 144.21875 117.617188 C 144.722656 116.550781 145.253906 115.492188 145.808594 114.453125 C 146.363281 113.410156 146.945312 112.382812 147.550781 111.367188 C 148.15625 110.355469 148.789062 109.355469 149.445312 108.375 C 150.097656 107.390625 150.777344 106.425781 151.480469 105.476562 C 152.183594 104.527344 152.90625 103.597656 153.65625 102.683594 C 154.402344 101.769531 155.175781 100.875 155.964844 100 C 156.757812 99.125 157.570312 98.269531 158.40625 97.433594 C 159.238281 96.597656 160.09375 95.78125 160.964844 94.988281 C 161.839844 94.195312 162.730469 93.421875 163.644531 92.671875 C 164.554688 91.925781 165.484375 91.199219 166.433594 90.492188 C 167.378906 89.789062 168.34375 89.109375 169.324219 88.453125 C 170.304688 87.796875 171.300781 87.164062 172.3125 86.558594 C 173.324219 85.949219 174.347656 85.367188 175.390625 84.808594 C 176.429688 84.253906 177.480469 83.722656 178.546875 83.214844 C 179.613281 82.710938 180.691406 82.234375 181.78125 81.78125 C 182.871094 81.328125 183.96875 80.902344 185.082031 80.503906 C 186.191406 80.105469 187.308594 79.734375 188.4375 79.394531 C 189.566406 79.050781 190.703125 78.734375 191.847656 78.449219 C 192.992188 78.160156 194.140625 77.902344 195.296875 77.671875 C 196.453125 77.441406 197.617188 77.238281 198.78125 77.066406 C 199.949219 76.890625 201.121094 76.746094 202.292969 76.632812 C 203.464844 76.515625 204.640625 76.429688 205.820312 76.371094 C 206.996094 76.3125 208.175781 76.285156 209.355469 76.285156 C 210.535156 76.285156 211.714844 76.3125 212.890625 76.371094 C 214.070312 76.429688 215.246094 76.515625 216.417969 76.632812 C 217.589844 76.746094 218.761719 76.890625 219.929688 77.066406 C 221.09375 77.238281 222.257812 77.441406 223.414062 77.671875 C 224.570312 77.902344 225.71875 78.160156 226.863281 78.449219 C 228.007812 78.734375 229.144531 79.050781 230.273438 79.394531 C 231.402344 79.734375 232.519531 80.105469 233.628906 80.503906 C 234.742188 80.902344 235.839844 81.328125 236.929688 81.78125 C 238.019531 82.234375 239.097656 82.710938 240.164062 83.214844 C 241.230469 83.722656 242.28125 84.253906 243.320312 84.808594 C 244.363281 85.367188 245.386719 85.949219 246.398438 86.558594 C 247.410156 87.164062 248.40625 87.796875 249.386719 88.453125 C 250.367188 89.109375 251.332031 89.789062 252.277344 90.492188 C 253.226562 91.199219 254.15625 91.925781 255.066406 92.671875 C 255.980469 93.421875 256.871094 94.195312 257.746094 94.988281 C 258.617188 95.78125 259.472656 96.597656 260.304688 97.433594 C 261.140625 98.269531 261.953125 99.125 262.746094 100 C 263.535156 100.875 264.308594 101.769531 265.054688 102.683594 C 265.804688 103.597656 266.527344 104.527344 267.230469 105.476562 C 267.933594 106.425781 268.613281 107.390625 269.265625 108.375 C 269.921875 109.355469 270.554688 110.355469 271.160156 111.367188 C 271.765625 112.382812 272.347656 113.410156 272.902344 114.453125 C 273.457031 115.492188 273.988281 116.550781 274.492188 117.617188 C 274.996094 118.683594 275.476562 119.765625 275.925781 120.855469 C 276.378906 121.949219 276.800781 123.050781 277.199219 124.164062 C 277.597656 125.277344 277.964844 126.398438 278.308594 127.527344 C 278.652344 128.660156 278.964844 129.796875 279.25 130.945312 C 279.539062 132.089844 279.796875 133.242188 280.027344 134.402344 C 280.257812 135.5625 280.457031 136.726562 280.632812 137.894531 C 280.804688 139.0625 280.949219 140.234375 281.0625 141.410156 C 281.179688 142.585938 281.265625 143.765625 281.324219 144.945312 C 281.382812 146.125 281.410156 147.308594 281.410156 148.488281 Z M 281.410156 148.488281 " fill-opacity="1" fill-rule="nonzero"/><path fill="#f4900c" d="M 156.996094 180.566406 C 150.359375 181.019531 145.613281 178.488281 142.152344 174.375 C 143.59375 178.136719 145.433594 181.675781 147.460938 185.097656 C 152.65625 187.046875 158.179688 187.867188 164.574219 183.261719 C 161.457031 181.726562 158.644531 180.457031 156.996094 180.566406 Z M 243.625 85.074219 C 243.929688 87.289062 242.363281 88.449219 238.570312 87.527344 C 232.136719 85.960938 226.488281 92.765625 223.25 98.457031 C 216.867188 109.644531 190.542969 122.25 190.523438 112.546875 C 190.515625 107.964844 167.261719 118.238281 164.292969 113.636719 C 161.480469 109.289062 153.085938 110.960938 151.347656 105.75 C 143.699219 116.175781 138.753906 128.71875 137.601562 142.359375 C 140.144531 147.207031 143.425781 151.015625 146.710938 152.660156 C 151.160156 154.890625 171.820312 162.976562 174.835938 157.8125 C 179.871094 149.199219 210.070312 155.292969 209.347656 150.765625 C 207.96875 142.085938 225.703125 149.210938 232.074219 138.03125 C 235.324219 132.339844 242.40625 127.96875 248.847656 129.535156 C 256.367188 131.367188 265.644531 118.441406 264.945312 102.554688 C 259.074219 95.417969 251.796875 89.519531 243.625 85.074219 Z M 265.058594 194.285156 C 262.78125 195.40625 260.535156 196.265625 258.488281 196.488281 C 243.339844 198.128906 240.066406 210.023438 229.90625 207.984375 C 224.671875 206.933594 217.527344 216.183594 209.355469 216.742188 C 205.238281 217.027344 199.324219 217.695312 193.277344 218.824219 C 198.453125 220.003906 203.824219 220.691406 209.355469 220.691406 C 231.800781 220.691406 251.839844 210.410156 265.058594 194.285156 Z M 265.058594 194.285156 " fill-opacity="1" fill-rule="nonzero"/><g clip-path="url(#id2)"><path fill="#e85e00" d="M 244.5625 85.519531 C 250.984375 89.132812 256.761719 93.710938 261.769531 99.042969 C 278.554688 97.984375 288.789062 101.941406 287.933594 111.042969 C 287.488281 115.804688 283.992188 121.453125 278.292969 127.484375 C 264.085938 142.480469 235.78125 159.867188 203.703125 172.058594 C 181.40625 180.53125 161.535156 184.886719 147.332031 185.117188 C 132.878906 185.355469 124.300781 181.316406 125.082031 172.945312 C 125.597656 167.441406 130.152344 160.75 137.5625 153.652344 C 137.433594 151.933594 137.300781 150.230469 137.300781 148.488281 C 137.300781 142.761719 138.035156 137.21875 139.292969 131.871094 C 110.308594 152.011719 91.441406 174.191406 91.441406 191.492188 C 91.441406 215.035156 126.222656 222.265625 174.148438 211.457031 C 185.265625 208.953125 197.09375 205.472656 209.355469 200.996094 C 235.632812 191.417969 259.816406 178.714844 279.421875 165.097656 C 308.402344 144.957031 327.269531 122.777344 327.269531 105.480469 C 327.269531 81.941406 292.488281 74.703125 244.5625 85.519531 Z M 244.5625 85.519531 " fill-opacity="1" fill-rule="nonzero"/></g><path fill="#f4900c" d="M 130.898438 148.832031 C 125.898438 153.632812 121.675781 159.121094 118.230469 164.914062 C 114.929688 170.667969 112.121094 177.144531 112.542969 182.949219 C 112.78125 188.730469 117.140625 192.171875 123.042969 193.765625 C 128.929688 195.300781 135.472656 195.703125 142.136719 195.3125 C 155.359375 194.710938 168.617188 192.511719 181.492188 188.796875 C 194.457031 185.386719 207.039062 180.527344 219.328125 175.050781 C 243.90625 164.058594 266.953125 149.46875 287.597656 131.960938 C 290.074219 129.710938 292.792969 127.578125 295.171875 125.300781 C 297.414062 123.027344 299.53125 120.488281 301.300781 117.894531 C 304.820312 112.710938 306.867188 106.640625 303.558594 102.015625 C 300.257812 97.316406 293.484375 94.757812 287.03125 93.433594 C 280.421875 92.171875 273.488281 91.882812 266.613281 92.683594 C 273.296875 90.894531 280.339844 90.015625 287.421875 90.550781 C 294.363281 91.171875 302.054688 92.578125 307.6875 98.792969 C 310.453125 101.878906 311.726562 106.527344 311.21875 110.582031 C 310.835938 114.707031 309.246094 118.347656 307.425781 121.621094 C 305.554688 124.898438 303.449219 127.867188 301.058594 130.722656 C 298.6875 133.453125 296.28125 135.96875 293.835938 138.578125 C 274.082031 158.792969 250.445312 175.132812 224.699219 186.914062 C 198.984375 198.527344 170.96875 206.566406 142.082031 205.507812 C 134.96875 205.238281 127.550781 204.609375 120.28125 201.808594 C 116.683594 200.398438 112.988281 198.316406 110.171875 194.949219 C 107.28125 191.640625 105.894531 187.042969 106.203125 182.96875 C 106.863281 174.78125 110.949219 168.441406 115.292969 162.875 C 119.769531 157.347656 125.042969 152.582031 130.898438 148.832031 Z M 130.898438 148.832031 " fill-opacity="1" fill-rule="nonzero"/></svg>