<svg xmlns="http://www.w3.org/2000/svg" xmlns:xlink="http://www.w3.org/1999/xlink" width="559" zoomAndPan="magnify" viewBox="0 0 419.25 297.749993" height="396" preserveAspectRatio="xMidYMid meet" version="1.0"><defs><clipPath id="id1"><path d="M 60.835938 0.140625 L 358 0.140625 L 358 297.359375 L 60.835938 297.359375 Z M 60.835938 0.140625 " clip-rule="nonzero"/></clipPath></defs><path fill="#ffffff" d="M 265.15625 147.246094 L 176.996094 96.351562 C 174.757812 95.058594 172.003906 95.058594 169.765625 96.351562 C 167.53125 97.640625 166.152344 100.027344 166.152344 102.609375 L 166.152344 204.410156 C 166.152344 206.992188 167.53125 209.378906 169.765625 210.671875 C 170.886719 211.324219 172.132812 211.640625 173.382812 211.640625 C 174.628906 211.640625 175.875 211.316406 176.996094 210.671875 L 265.15625 159.773438 C 267.398438 158.484375 268.769531 156.097656 268.769531 153.511719 C 268.769531 150.929688 267.390625 148.539062 265.15625 147.246094 Z M 265.15625 147.246094 " fill-opacity="1" fill-rule="nonzero"/><g clip-path="url(#id1)"><path fill="#ffffff" d="M 209.316406 297.199219 C 127.398438 297.199219 60.75 230.550781 60.75 148.628906 C 60.75 66.707031 127.398438 0.0585938 209.316406 0.0585938 C 291.242188 0.0585938 357.894531 66.707031 357.894531 148.628906 C 357.894531 230.550781 291.242188 297.199219 209.316406 297.199219 Z M 209.316406 14.710938 C 135.476562 14.710938 75.402344 74.789062 75.402344 148.628906 C 75.402344 222.472656 135.476562 282.542969 209.316406 282.542969 C 283.160156 282.542969 343.238281 222.464844 343.238281 148.628906 C 343.238281 74.785156 283.160156 14.710938 209.316406 14.710938 Z M 209.316406 14.710938 " fill-opacity="1" fill-rule="nonzero"/></g></svg>