<svg xmlns="http://www.w3.org/2000/svg" xmlns:xlink="http://www.w3.org/1999/xlink" width="559" zoomAndPan="magnify" viewBox="0 0 419.25 297.749993" height="396" preserveAspectRatio="xMidYMid meet" version="1.0"><defs><clipPath id="id1"><path d="M 0 0.140625 L 418.5 0.140625 L 418.5 297.359375 L 0 297.359375 Z M 0 0.140625 " clip-rule="nonzero"/></clipPath><clipPath id="id2"><path d="M 81 162 L 346.789062 162 L 346.789062 220 L 81 220 Z M 81 162 " clip-rule="nonzero"/></clipPath><clipPath id="id3"><path d="M 327 176 L 346.789062 176 L 346.789062 187 L 327 187 Z M 327 176 " clip-rule="nonzero"/></clipPath><clipPath id="id4"><path d="M 318 200 L 346.789062 200 L 346.789062 220 L 318 220 Z M 318 200 " clip-rule="nonzero"/></clipPath><clipPath id="id5"><path d="M 72.027344 200 L 115 200 L 115 220 L 72.027344 220 Z M 72.027344 200 " clip-rule="nonzero"/></clipPath><clipPath id="id6"><path d="M 223 58.722656 L 234 58.722656 L 234 83 L 223 83 Z M 223 58.722656 " clip-rule="nonzero"/></clipPath><clipPath id="id7"><path d="M 95 181 L 153 181 L 153 238.402344 L 95 238.402344 Z M 95 181 " clip-rule="nonzero"/></clipPath><clipPath id="id8"><path d="M 270 181 L 328 181 L 328 238.402344 L 270 238.402344 Z M 270 181 " clip-rule="nonzero"/></clipPath></defs><g clip-path="url(#id1)"><path fill="#ff5757" d="M 0 0.140625 L 418.5 0.140625 L 418.5 297.359375 L 0 297.359375 Z M 0 0.140625 " fill-opacity="1" fill-rule="nonzero"/><path fill="#ffffff" d="M 0 0.140625 L 418.5 0.140625 L 418.5 297.359375 L 0 297.359375 Z M 0 0.140625 " fill-opacity="1" fill-rule="nonzero"/><path fill="#ff5757" d="M 0 0.140625 L 418.5 0.140625 L 418.5 297.359375 L 0 297.359375 Z M 0 0.140625 " fill-opacity="1" fill-rule="nonzero"/></g><path fill="#c3c1c0" d="M 214.144531 106.007812 L 242.558594 106.007812 L 242.558594 129.648438 L 214.144531 129.648438 L 214.144531 106.007812 " fill-opacity="1" fill-rule="nonzero"/><path fill="#a5a5a4" d="M 237.824219 106.007812 L 242.558594 106.007812 L 242.558594 129.648438 L 237.824219 129.648438 L 237.824219 106.007812 " fill-opacity="1" fill-rule="nonzero"/><g clip-path="url(#id2)"><path fill="#5498d8" d="M 346.75 181.660156 L 337.277344 219.488281 L 81.539062 219.488281 L 81.539062 201.386719 C 81.539062 194.179688 83.515625 187.433594 86.960938 181.660156 C 93.703125 170.335938 106.082031 162.746094 120.238281 162.746094 L 332.542969 162.746094 L 346.75 181.660156 " fill-opacity="1" fill-rule="nonzero"/></g><path fill="#bde9ea" d="M 304.128906 162.746094 L 143.105469 162.746094 L 176.257812 124.921875 L 280.449219 124.921875 L 304.128906 162.746094 " fill-opacity="1" fill-rule="nonzero"/><path fill="#bde9ea" d="M 304.128906 162.746094 L 152.578125 162.746094 L 185.726562 124.921875 L 280.449219 124.921875 L 304.128906 162.746094 " fill-opacity="1" fill-rule="nonzero"/><path fill="#c7edf0" d="M 294.65625 162.746094 L 152.578125 162.746094 L 185.726562 124.921875 L 270.976562 124.921875 L 294.65625 162.746094 " fill-opacity="1" fill-rule="nonzero"/><path fill="#ecece9" d="M 252.03125 162.746094 L 252.03125 205.304688 L 237.824219 219.488281 L 166.785156 219.488281 L 166.785156 162.746094 L 252.03125 162.746094 " fill-opacity="1" fill-rule="nonzero"/><path fill="#c3c1c0" d="M 237.824219 186.390625 L 218.878906 186.390625 L 218.878906 176.933594 L 237.824219 176.933594 L 237.824219 186.390625 " fill-opacity="1" fill-rule="nonzero"/><g clip-path="url(#id3)"><path fill="#e03835" d="M 346.75 181.660156 L 345.566406 186.390625 L 332.542969 186.390625 C 329.925781 186.390625 327.808594 184.273438 327.808594 181.660156 C 327.808594 179.046875 329.925781 176.933594 332.542969 176.933594 L 343.199219 176.933594 L 346.75 181.660156 " fill-opacity="1" fill-rule="nonzero"/></g><path fill="#5498d8" d="M 252.03125 162.746094 L 233.089844 162.746094 L 233.089844 124.921875 L 252.03125 124.921875 L 252.03125 162.746094 " fill-opacity="1" fill-rule="nonzero"/><path fill="#e03835" d="M 242.558594 106.007812 L 242.558594 110.734375 L 214.144531 110.734375 L 214.144531 106.007812 C 214.144531 98.984375 219.265625 93.144531 225.984375 92.023438 C 226.753906 91.886719 227.546875 91.820312 228.351562 91.820312 C 232.273438 91.820312 235.824219 93.414062 238.398438 95.976562 C 240.964844 98.546875 242.558594 102.09375 242.558594 106.007812 " fill-opacity="1" fill-rule="nonzero"/><path fill="#f03e3d" d="M 237.824219 106.007812 L 237.824219 110.734375 L 214.144531 110.734375 L 214.144531 106.007812 C 214.144531 98.984375 219.265625 93.144531 225.984375 92.023438 C 228.957031 92.519531 231.621094 93.9375 233.660156 95.976562 C 236.230469 98.546875 237.824219 102.09375 237.824219 106.007812 " fill-opacity="1" fill-rule="nonzero"/><g clip-path="url(#id4)"><path fill="#ecece9" d="M 337.277344 200.574219 L 318.335938 200.574219 L 318.335938 219.488281 L 337.277344 219.488281 C 342.511719 219.488281 346.75 215.253906 346.75 210.03125 C 346.75 204.808594 342.511719 200.574219 337.277344 200.574219 " fill-opacity="1" fill-rule="nonzero"/></g><g clip-path="url(#id5)"><path fill="#ecece9" d="M 81.042969 201.214844 L 114.6875 200.574219 L 114.6875 219.488281 L 81.21875 219.488281 C 76.164062 219.488281 72.066406 215.398438 72.066406 210.351562 C 72.066406 205.371094 76.054688 201.3125 81.042969 201.214844 " fill-opacity="1" fill-rule="nonzero"/></g><g clip-path="url(#id6)"><path fill="#f6b43e" d="M 228.351562 82.363281 C 225.738281 82.363281 223.617188 80.246094 223.617188 77.636719 L 223.617188 63.453125 C 223.617188 60.839844 225.738281 58.722656 228.351562 58.722656 C 230.96875 58.722656 233.089844 60.839844 233.089844 63.453125 L 233.089844 77.636719 C 233.089844 80.246094 230.96875 82.363281 228.351562 82.363281 " fill-opacity="1" fill-rule="nonzero"/></g><path fill="#f6b43e" d="M 209.40625 87.09375 C 208.195312 87.09375 206.984375 86.632812 206.058594 85.707031 L 196.585938 76.25 C 194.738281 74.40625 194.738281 71.414062 196.585938 69.566406 C 198.4375 67.71875 201.433594 67.71875 203.285156 69.566406 L 212.757812 79.023438 C 214.605469 80.867188 214.605469 83.859375 212.757812 85.707031 C 211.832031 86.632812 210.621094 87.09375 209.40625 87.09375 " fill-opacity="1" fill-rule="nonzero"/><path fill="#f6b43e" d="M 247.296875 87.09375 C 246.085938 87.09375 244.871094 86.632812 243.949219 85.707031 C 242.097656 83.859375 242.097656 80.867188 243.949219 79.023438 L 253.417969 69.566406 C 255.269531 67.71875 258.265625 67.71875 260.117188 69.566406 C 261.964844 71.414062 261.964844 74.40625 260.117188 76.25 L 250.644531 85.707031 C 249.71875 86.632812 248.507812 87.09375 247.296875 87.09375 " fill-opacity="1" fill-rule="nonzero"/><path fill="#f68512" d="M 120.238281 162.746094 L 105.21875 181.660156 L 86.960938 181.660156 C 93.703125 170.335938 106.082031 162.746094 120.238281 162.746094 " fill-opacity="1" fill-rule="nonzero"/><path fill="#ecece9" d="M 100.480469 210.03125 C 100.480469 196.976562 111.082031 186.390625 124.160156 186.390625 C 137.238281 186.390625 147.839844 196.976562 147.839844 210.03125 C 147.839844 223.085938 137.238281 233.671875 124.160156 233.671875 C 111.082031 233.671875 100.480469 223.085938 100.480469 210.03125 " fill-opacity="1" fill-rule="nonzero"/><path fill="#c3c1c0" d="M 117.464844 203.34375 C 121.160156 199.652344 127.160156 199.652344 130.859375 203.34375 C 134.558594 207.035156 134.558594 213.027344 130.859375 216.71875 C 127.160156 220.410156 121.160156 220.410156 117.464844 216.71875 C 113.765625 213.027344 113.765625 207.035156 117.464844 203.34375 " fill-opacity="1" fill-rule="nonzero"/><path fill="#ecece9" d="M 275.710938 210.03125 C 275.710938 196.976562 286.3125 186.390625 299.390625 186.390625 C 312.46875 186.390625 323.070312 196.976562 323.070312 210.03125 C 323.070312 223.085938 312.46875 233.671875 299.390625 233.671875 C 286.3125 233.671875 275.710938 223.085938 275.710938 210.03125 " fill-opacity="1" fill-rule="nonzero"/><path fill="#c3c1c0" d="M 289.917969 210.03125 C 289.917969 204.808594 294.160156 200.574219 299.390625 200.574219 C 304.621094 200.574219 308.863281 204.808594 308.863281 210.03125 C 308.863281 215.253906 304.621094 219.488281 299.390625 219.488281 C 294.160156 219.488281 289.917969 215.253906 289.917969 210.03125 " fill-opacity="1" fill-rule="nonzero"/><g clip-path="url(#id7)"><path fill="#818283" d="M 124.160156 191.117188 C 113.714844 191.117188 105.21875 199.601562 105.21875 210.03125 C 105.21875 220.460938 113.714844 228.945312 124.160156 228.945312 C 134.605469 228.945312 143.105469 220.460938 143.105469 210.03125 C 143.105469 199.601562 134.605469 191.117188 124.160156 191.117188 Z M 124.160156 238.402344 C 108.492188 238.402344 95.746094 225.675781 95.746094 210.03125 C 95.746094 194.386719 108.492188 181.660156 124.160156 181.660156 C 139.832031 181.660156 152.578125 194.386719 152.578125 210.03125 C 152.578125 225.675781 139.832031 238.402344 124.160156 238.402344 " fill-opacity="1" fill-rule="nonzero"/></g><g clip-path="url(#id8)"><path fill="#818283" d="M 299.390625 191.117188 C 288.945312 191.117188 280.449219 199.601562 280.449219 210.03125 C 280.449219 220.460938 288.945312 228.945312 299.390625 228.945312 C 309.835938 228.945312 318.335938 220.460938 318.335938 210.03125 C 318.335938 199.601562 309.835938 191.117188 299.390625 191.117188 Z M 299.390625 238.402344 C 283.722656 238.402344 270.976562 225.675781 270.976562 210.03125 C 270.976562 194.386719 283.722656 181.660156 299.390625 181.660156 C 315.0625 181.660156 327.808594 194.386719 327.808594 210.03125 C 327.808594 225.675781 315.0625 238.402344 299.390625 238.402344 " fill-opacity="1" fill-rule="nonzero"/></g><path fill="#5498d8" d="M 283.40625 129.648438 L 172.113281 129.648438 L 176.257812 124.921875 L 280.449219 124.921875 L 283.40625 129.648438 " fill-opacity="1" fill-rule="nonzero"/></svg>