<svg xmlns="http://www.w3.org/2000/svg" xmlns:xlink="http://www.w3.org/1999/xlink" width="559" zoomAndPan="magnify" viewBox="0 0 419.25 297.749993" height="396" preserveAspectRatio="xMidYMid meet" version="1.0"><defs><clipPath id="id1"><path d="M 0 0.140625 L 418.5 0.140625 L 418.5 297.359375 L 0 297.359375 Z M 0 0.140625 " clip-rule="nonzero"/></clipPath><clipPath id="id2"><path d="M 115.839844 237.203125 L 284.738281 237.203125 L 284.738281 281.742188 L 115.839844 281.742188 Z M 115.839844 237.203125 " clip-rule="nonzero"/></clipPath><clipPath id="id3"><path d="M 216.523438 106 L 333.140625 106 L 333.140625 172.867188 L 216.523438 172.867188 Z M 216.523438 106 " clip-rule="nonzero"/></clipPath><clipPath id="id4"><path d="M 201 14.996094 L 233 14.996094 L 233 42 L 201 42 Z M 201 14.996094 " clip-rule="nonzero"/></clipPath></defs><g clip-path="url(#id1)"><path fill="#7ac0ec" d="M 0 0.140625 L 418.5 0.140625 L 418.5 297.359375 L 0 297.359375 Z M 0 0.140625 " fill-opacity="1" fill-rule="nonzero"/><path fill="#ffffff" d="M 0 0.140625 L 418.5 0.140625 L 418.5 297.359375 L 0 297.359375 Z M 0 0.140625 " fill-opacity="1" fill-rule="nonzero"/><path fill="#7ac0ec" d="M 0 0.140625 L 418.5 0.140625 L 418.5 297.359375 L 0 297.359375 Z M 0 0.140625 " fill-opacity="1" fill-rule="nonzero"/></g><path fill="#4775c6" d="M 197.074219 159.484375 C 197.074219 159.484375 177.863281 162.027344 173.25 171.40625 C 168.636719 180.785156 200.636719 177.316406 200.636719 177.316406 L 197.074219 159.484375 " fill-opacity="1" fill-rule="nonzero"/><path fill="#e29c7d" d="M 196.339844 111.324219 C 196.339844 111.324219 182.3125 137.308594 169.433594 144.265625 C 169.433594 144.265625 167.042969 142.914062 163.820312 144.265625 C 163.820312 144.265625 157.695312 148.304688 162.339844 151.855469 C 166.984375 155.40625 169.550781 156.355469 173.863281 150.132812 C 173.863281 150.132812 199.917969 135.496094 205.371094 116.445312 C 205.371094 116.445312 202.414062 108.9375 196.339844 111.324219 " fill-opacity="1" fill-rule="nonzero"/><path fill="#4775c6" d="M 192.777344 124.199219 C 192.777344 124.199219 181.042969 119.429688 186.605469 109.058594 C 189.390625 103.871094 195.671875 98.617188 206.007812 108.386719 C 216.34375 118.15625 203.582031 135.285156 192.777344 124.199219 " fill-opacity="1" fill-rule="nonzero"/><path fill="#cccccc" d="M 231.335938 176.589844 C 231.335938 176.589844 267.148438 178.558594 287.664062 211.941406 C 287.664062 211.941406 246.648438 225.703125 231.335938 176.589844 " fill-opacity="1" fill-rule="nonzero"/><path fill="#995828" d="M 100.898438 173.3125 C 100.898438 173.3125 96.445312 167.960938 106.460938 160.621094 L 116.402344 163.265625 C 116.402344 163.265625 117.59375 178.558594 100.898438 173.3125 " fill-opacity="1" fill-rule="nonzero"/><path fill="#cccccc" d="M 137.472656 115.144531 C 137.472656 115.144531 148.9375 109.042969 158.546875 113.996094 C 168.160156 118.953125 164.226562 108.9375 164.226562 108.9375 C 164.226562 108.9375 175.136719 125.867188 159.097656 123.601562 C 160.726562 126.359375 162.257812 129.1875 163.660156 132.066406 C 168.550781 142.117188 173.199219 152.566406 181.414062 160.421875 C 183.4375 162.359375 185.679688 164.171875 188.21875 165.402344 C 188.21875 165.402344 176.324219 171.792969 176.03125 172.121094 C 169.460938 179.59375 143.117188 126.382812 143.117188 126.382812 L 137.472656 115.144531 " fill-opacity="1" fill-rule="nonzero"/><path fill="#91d8db" d="M 192.96875 208.703125 C 180.566406 209.757812 162.675781 206.457031 158.382812 206.933594 C 155.234375 207.28125 148.921875 225.105469 145.773438 234.605469 C 151.597656 225.273438 156.820312 215.753906 156.820312 215.753906 C 189.605469 231.730469 226.789062 218.480469 226.789062 218.480469 C 227.902344 223.539062 229.886719 228.398438 232.335938 232.761719 C 231.144531 228.34375 229.964844 222.867188 228.984375 216.230469 C 226.804688 201.449219 205.371094 207.648438 192.96875 208.703125 " fill-opacity="1" fill-rule="nonzero"/><path fill="#c5faff" d="M 257.515625 229.226562 C 255.878906 223.710938 253.445312 216.429688 250.019531 206.671875 C 236.46875 168.019531 227.136719 167.574219 202.976562 167.117188 C 178.8125 166.65625 179.53125 177.289062 160.449219 147.722656 C 147.285156 127.328125 139.457031 118.472656 139.457031 118.472656 C 108.605469 113.941406 105.429688 138.988281 105.429688 138.988281 C 106.390625 143.601562 115.003906 156.867188 122.101562 169.066406 C 132.613281 187.144531 137.390625 193.660156 137.390625 193.660156 C 136.839844 197.976562 130.007812 221.292969 126.65625 233.960938 C 129.621094 236.949219 130.109375 238.328125 142.03125 240.425781 C 143.277344 238.554688 144.539062 236.585938 145.773438 234.605469 C 148.921875 225.105469 155.234375 207.28125 158.382812 206.933594 C 162.675781 206.457031 180.566406 209.757812 192.96875 208.703125 C 205.371094 207.648438 226.804688 201.449219 228.984375 216.230469 C 229.964844 222.867188 231.144531 228.34375 232.335938 232.761719 C 233.816406 235.398438 235.464844 237.851562 237.195312 240.058594 C 242.644531 238.511719 251.179688 235.296875 257.515625 229.226562 " fill-opacity="1" fill-rule="nonzero"/><path fill="#cccccc" d="M 105.429688 138.988281 C 105.429688 138.988281 85.4375 147.246094 87.777344 159.484375 C 92.511719 184.242188 116.210938 163.433594 116.402344 163.265625 C 116.402344 163.265625 113.300781 172.597656 100.898438 173.3125 C 100.898438 173.3125 108.164062 182.214844 123.03125 170.660156 C 123.03125 170.660156 120.695312 148.453125 105.429688 138.988281 " fill-opacity="1" fill-rule="nonzero"/><path fill="#995828" d="M 104.476562 138.742188 C 104.476562 138.742188 123.199219 153.046875 122.125 173.3125 L 124.988281 173.988281 C 124.988281 173.988281 128.558594 144.582031 106.019531 135.523438 L 104.476562 138.742188 " fill-opacity="1" fill-rule="nonzero"/><path fill="#774624" d="M 134.785156 140.648438 C 134.785156 137.960938 133.210938 135.78125 131.269531 135.78125 C 129.324219 135.78125 127.75 137.960938 127.75 140.648438 C 127.75 143.339844 129.324219 145.519531 131.269531 145.519531 C 133.210938 145.519531 134.785156 143.339844 134.785156 140.648438 " fill-opacity="1" fill-rule="nonzero"/><path fill="#ffffff" d="M 114.015625 133 C 114.015625 133 113.429688 127.390625 115.925781 123.722656 C 118.421875 120.050781 121.410156 122.375 121.648438 125.671875 C 121.648438 125.671875 126.894531 123.480469 127.375 126.582031 C 127.851562 129.679688 119.023438 133.816406 114.015625 133 " fill-opacity="1" fill-rule="nonzero"/><path fill="#91d8db" d="M 119.261719 121.8125 C 119.261719 121.8125 110.277344 100.945312 125.027344 90.21875 C 125.027344 90.21875 131.773438 104.992188 129.691406 118.527344 L 119.261719 121.8125 " fill-opacity="1" fill-rule="nonzero"/><path fill="#cccccc" d="M 131.359375 118.953125 C 131.359375 118.953125 106.621094 133.820312 103.996094 113.152344 C 103.996094 113.152344 108.398438 118.804688 114.070312 118.640625 C 114.070312 118.640625 98.035156 113.195312 109.246094 101.230469 C 109.246094 101.230469 110.832031 115.136719 133.59375 115.136719 L 131.359375 118.953125 " fill-opacity="1" fill-rule="nonzero"/><path fill="#91d8db" d="M 116.402344 141.453125 C 116.246094 141.453125 116.089844 141.410156 115.949219 141.320312 C 115.5625 141.070312 115.449219 140.554688 115.699219 140.167969 C 115.824219 139.96875 118.878906 135.273438 124.316406 131.746094 C 129.382812 128.460938 137.515625 125.652344 147.484375 130.929688 C 147.890625 131.148438 148.042969 131.652344 147.828125 132.058594 C 147.613281 132.464844 147.109375 132.621094 146.699219 132.40625 C 139.273438 128.472656 132.046875 128.722656 125.222656 133.148438 C 120.085938 136.480469 117.132812 141.023438 117.105469 141.070312 C 116.945312 141.316406 116.675781 141.453125 116.402344 141.453125 " fill-opacity="1" fill-rule="nonzero"/><path fill="#995828" d="M 125.027344 167.832031 C 125.027344 167.832031 137 177.355469 160.570312 176.214844 C 184.144531 175.078125 185.457031 167.3125 184.402344 163.714844 C 183.347656 160.121094 175.070312 153.285156 175.070312 153.285156 L 172.175781 148.566406 C 172.175781 148.566406 187.5625 156.167969 188.914062 164.730469 C 190.261719 173.292969 165.152344 191.671875 124.988281 171.601562 L 125.027344 167.832031 " fill-opacity="1" fill-rule="nonzero"/><path fill="#cccccc" d="M 126.65625 233.960938 C 124.195312 243.253906 121.371094 249.535156 127.851562 251.695312 C 134.074219 253.765625 137.160156 247.742188 142.03125 240.425781 C 130.109375 238.328125 129.621094 236.949219 126.65625 233.960938 " fill-opacity="1" fill-rule="nonzero"/><path fill="#cccccc" d="M 237.195312 240.058594 C 244.050781 248.816406 252.125 253.65625 255.703125 250.4375 C 260.15625 246.421875 262.347656 245.546875 257.515625 229.226562 C 251.179688 235.296875 242.644531 238.511719 237.195312 240.058594 " fill-opacity="1" fill-rule="nonzero"/><path fill="#995828" d="M 94.808594 157.117188 C 94.808594 157.117188 89.714844 157.394531 95.875 154.453125 C 102.035156 151.507812 94.808594 157.117188 94.808594 157.117188 " fill-opacity="1" fill-rule="nonzero"/><g clip-path="url(#id2)"><path fill="#dd9e73" d="M 282.882812 242.148438 C 279.574219 237.152344 272.839844 235.777344 267.84375 239.085938 C 258.160156 245.484375 247.679688 250.425781 236.4375 253.902344 C 202.757812 282.261719 142.570312 273.578125 115.847656 267.839844 C 126.183594 271.546875 142.6875 276.578125 162.523438 279.46875 C 172.9375 280.984375 183.144531 281.742188 193.070312 281.742188 C 201.953125 281.742188 210.613281 281.132812 218.992188 279.917969 C 241.460938 276.660156 261.925781 269.007812 279.816406 257.183594 C 284.816406 253.875 286.1875 247.144531 282.882812 242.148438 " fill-opacity="1" fill-rule="nonzero"/></g><path fill="#f2b083" d="M 236.4375 253.902344 C 215.574219 260.355469 192.09375 261.765625 166.253906 258.082031 C 135.851562 253.75 113.515625 243.609375 113.296875 243.507812 C 107.855469 241.003906 101.414062 243.378906 98.902344 248.8125 C 96.390625 254.253906 98.761719 260.699219 104.203125 263.210938 C 104.609375 263.398438 108.792969 265.308594 115.847656 267.839844 C 142.570312 273.578125 202.757812 282.261719 236.4375 253.902344 " fill-opacity="1" fill-rule="nonzero"/><path fill="#a56d47" d="M 213.46875 269.125 C 209.4375 269.6875 205.777344 268.882812 201.886719 267.902344 C 198.367188 267.015625 194.753906 266.527344 191.144531 266.230469 C 183.613281 265.613281 176.042969 265.867188 168.496094 265.753906 C 160.75 265.632812 153.242188 264.757812 145.8125 262.511719 C 138.753906 260.375 131.667969 258.066406 124.9375 255.050781 C 121.316406 253.425781 117.691406 251.820312 113.835938 250.832031 C 113.5625 250.761719 113.449219 251.183594 113.71875 251.253906 C 117.519531 252.230469 121.085938 253.828125 124.65625 255.417969 C 124.402344 255.363281 124.140625 255.332031 123.871094 255.332031 C 121.851562 255.332031 120.214844 256.96875 120.214844 258.992188 C 120.214844 258.992188 120.214844 258.996094 120.214844 258.996094 C 114.910156 256.027344 109.101562 253.917969 103.617188 251.351562 C 103.394531 251.25 103.199219 251.570312 103.421875 251.6875 C 108.964844 254.605469 114.800781 256.835938 120.304688 259.800781 C 120.675781 261.429688 122.132812 262.648438 123.871094 262.648438 C 124.269531 262.648438 124.648438 262.582031 125.007812 262.464844 C 130.398438 265.359375 136.207031 267.222656 142.160156 268.695312 C 142.171875 268.695312 142.175781 268.679688 142.164062 268.679688 C 136.324219 267.183594 130.78125 265.167969 125.578125 262.226562 C 126.738281 261.613281 127.53125 260.394531 127.53125 258.992188 C 127.53125 257.761719 126.925781 256.675781 125.996094 256.011719 C 128.429688 257.089844 130.878906 258.128906 133.417969 258.933594 C 140.523438 261.179688 147.480469 263.972656 154.871094 265.164062 C 169.847656 267.582031 185.152344 264.578125 200.066406 267.660156 C 204.550781 268.589844 208.855469 270.164062 213.492188 269.203125 C 213.546875 269.191406 213.523438 269.117188 213.46875 269.125 " fill-opacity="1" fill-rule="nonzero"/><path fill="#a56d47" d="M 273.113281 248.285156 C 270.785156 248.261719 268.460938 249.472656 266.484375 250.601562 C 264.234375 251.882812 262.171875 253.472656 260.058594 254.957031 C 259.804688 255.136719 259.550781 255.3125 259.292969 255.488281 C 258.578125 254.710938 257.554688 254.21875 256.417969 254.21875 C 254.257812 254.21875 252.511719 255.96875 252.511719 258.125 C 252.511719 258.5625 252.585938 258.980469 252.71875 259.371094 C 250.113281 260.652344 247.394531 261.675781 244.542969 262.300781 C 241.398438 262.996094 238.203125 262.867188 235.007812 262.894531 C 231.714844 262.917969 228.421875 262.980469 225.128906 263.046875 C 218.390625 263.179688 211.621094 263.164062 204.894531 263.5625 C 204.742188 263.570312 204.742188 263.789062 204.894531 263.796875 C 211.460938 264.175781 218.085938 263.855469 224.65625 263.71875 C 227.949219 263.652344 231.242188 263.59375 234.539062 263.554688 C 237.675781 263.523438 240.796875 263.636719 243.898438 263.09375 C 247.070312 262.539062 250.097656 261.410156 252.972656 259.964844 C 253.632812 261.195312 254.925781 262.027344 256.417969 262.027344 C 258.574219 262.027344 260.320312 260.277344 260.320312 258.125 C 260.320312 257.328125 260.082031 256.59375 259.675781 255.976562 C 261.644531 254.632812 263.53125 253.179688 265.535156 251.882812 C 266.660156 251.15625 267.832031 250.503906 269.054688 249.945312 C 270.375 249.339844 271.785156 249.03125 273.148438 248.546875 C 273.289062 248.5 273.269531 248.289062 273.113281 248.285156 " fill-opacity="1" fill-rule="nonzero"/><path fill="#a56d47" d="M 207.28125 279.800781 C 199.691406 279.386719 192.054688 279.851562 184.453125 279.722656 C 176.753906 279.59375 169.046875 279.03125 161.5 277.460938 C 158.230469 276.78125 155.015625 275.847656 151.757812 275.105469 C 148.613281 274.386719 145.460938 273.71875 142.3125 273.019531 C 135.914062 271.601562 129.496094 270.019531 123.484375 267.359375 C 121.800781 266.613281 120.164062 265.753906 118.589844 264.800781 C 118.496094 264.742188 118.414062 264.886719 118.503906 264.945312 C 129.253906 271.824219 142.359375 273.402344 154.519531 276.347656 C 157.980469 277.1875 161.402344 278.09375 164.917969 278.691406 C 168.523438 279.304688 172.167969 279.683594 175.8125 279.933594 C 183.398438 280.460938 191.015625 280.339844 198.613281 280.242188 C 201.5 280.203125 204.394531 280.144531 207.28125 279.984375 C 207.398438 279.976562 207.398438 279.808594 207.28125 279.800781 " fill-opacity="1" fill-rule="nonzero"/><path fill="#a56d47" d="M 226.316406 268.277344 C 223.203125 269.4375 220.28125 271.050781 217.148438 272.179688 C 213.957031 273.328125 210.578125 274.105469 207.175781 273.855469 C 203.894531 273.617188 200.664062 272.425781 197.480469 271.664062 C 194.523438 270.960938 191.460938 270.574219 188.429688 270.992188 C 177.632812 272.496094 165.960938 276.242188 155.214844 272.523438 C 153.472656 271.917969 151.847656 271.039062 150.378906 269.9375 C 150.160156 269.773438 149.957031 270.136719 150.167969 270.296875 C 154.34375 273.503906 159.644531 274.460938 164.792969 274.59375 C 170.386719 274.734375 175.964844 273.839844 181.457031 272.898438 C 184.207031 272.425781 186.988281 271.792969 189.769531 271.578125 C 193.066406 271.328125 196.308594 272.074219 199.476562 272.898438 C 202.488281 273.683594 205.546875 274.609375 208.683594 274.613281 C 211.910156 274.613281 215.109375 273.679688 218.105469 272.566406 C 220.960938 271.503906 223.882812 270.246094 226.449219 268.601562 C 226.613281 268.496094 226.511719 268.203125 226.316406 268.277344 " fill-opacity="1" fill-rule="nonzero"/><path fill="#a56d47" d="M 247.328125 266.699219 C 235.449219 270.652344 223.660156 274.605469 211.210938 276.367188 C 205.144531 277.222656 198.988281 277.5 192.882812 278.003906 C 186.902344 278.5 180.644531 278.554688 174.867188 276.6875 C 174.730469 276.644531 174.683594 276.847656 174.8125 276.898438 C 180.324219 279.101562 186.238281 278.886719 192.0625 278.519531 C 198.191406 278.128906 204.386719 277.753906 210.472656 276.929688 C 223.121094 275.222656 235.53125 271.554688 247.375 266.859375 C 247.472656 266.820312 247.433594 266.664062 247.328125 266.699219 " fill-opacity="1" fill-rule="nonzero"/><path fill="#a56d47" d="M 197.640625 274.886719 C 193.847656 273.03125 188.679688 273.261719 184.902344 275.027344 C 184.632812 275.152344 184.660156 275.566406 184.902344 275.699219 C 187.039062 276.859375 189.515625 276.835938 191.8125 276.214844 C 191.996094 276.164062 191.914062 275.914062 191.738281 275.941406 C 189.8125 276.222656 187.789062 276.230469 186.015625 275.414062 C 189.742188 274.058594 193.609375 274.46875 197.425781 275.390625 C 197.722656 275.460938 197.929688 275.027344 197.640625 274.886719 " fill-opacity="1" fill-rule="nonzero"/><path fill="#a56d47" d="M 168.738281 270.464844 C 167.082031 269.863281 165.417969 269.296875 163.695312 268.917969 C 162.257812 268.601562 160.417969 268.277344 159.003906 268.832031 C 158.671875 268.964844 158.679688 269.53125 159.097656 269.507812 C 160.761719 269.410156 162.203125 269.386719 163.855469 269.746094 C 165.117188 270.019531 166.351562 270.421875 167.570312 270.851562 C 164.308594 272.015625 160.683594 271.695312 157.75 269.734375 C 157.59375 269.628906 157.398438 269.875 157.546875 269.996094 C 160.792969 272.632812 165.078125 272.824219 168.828125 271.160156 C 169.160156 271.011719 169.011719 270.566406 168.738281 270.464844 " fill-opacity="1" fill-rule="nonzero"/><path fill="#a56d47" d="M 163.65625 261.914062 C 156.527344 260.074219 148.617188 261.960938 141.96875 258.117188 C 141.867188 258.054688 141.777344 258.210938 141.878906 258.273438 C 144.882812 260.277344 148.316406 260.941406 151.855469 261.316406 C 155.761719 261.730469 159.714844 261.808594 163.628906 262.109375 C 163.746094 262.121094 163.765625 261.941406 163.65625 261.914062 " fill-opacity="1" fill-rule="nonzero"/><path fill="#a56d47" d="M 276.109375 253.484375 C 274.511719 254.710938 273.109375 256.1875 271.28125 257.089844 C 270.257812 257.59375 269.109375 257.703125 268.003906 257.449219 C 267.394531 257.304688 267.375 257.0625 267.753906 256.628906 C 268.601562 255.664062 269.90625 255.011719 271.007812 254.386719 C 271.980469 253.835938 273.171875 253.410156 273.984375 252.628906 C 274.144531 252.472656 273.976562 252.210938 273.769531 252.261719 C 272.253906 252.632812 270.730469 253.695312 269.40625 254.496094 C 268.605469 254.976562 266.710938 255.945312 266.710938 257.089844 C 266.710938 258.445312 269.085938 258.441406 269.941406 258.292969 C 272.589844 257.835938 274.8125 255.828125 276.394531 253.769531 C 276.523438 253.609375 276.273438 253.359375 276.109375 253.484375 " fill-opacity="1" fill-rule="nonzero"/><path fill="#a56d47" d="M 276.976562 243.003906 C 275.246094 242.488281 273.058594 243 271.335938 243.390625 C 269.234375 243.871094 267.363281 244.855469 265.636719 246.136719 C 265.476562 246.257812 265.625 246.523438 265.800781 246.410156 C 267.445312 245.34375 269.257812 244.660156 271.152344 244.171875 C 273.046875 243.683594 275.128906 243.917969 276.976562 243.34375 C 277.144531 243.292969 277.144531 243.054688 276.976562 243.003906 " fill-opacity="1" fill-rule="nonzero"/><path fill="#a56d47" d="M 259.828125 251.023438 C 258.953125 250.863281 258.085938 251.105469 257.222656 251.277344 C 256.011719 251.519531 254.824219 251.84375 253.644531 252.191406 C 251.394531 252.855469 249.195312 253.675781 247 254.496094 C 244.816406 255.3125 242.640625 256.15625 240.425781 256.878906 C 239.273438 257.253906 238.109375 257.582031 236.929688 257.863281 C 235.78125 258.144531 234.644531 258.609375 233.492188 258.8125 C 233.378906 258.832031 233.40625 259.015625 233.519531 259.011719 C 234.492188 258.957031 235.410156 259.03125 236.382812 258.886719 C 237.574219 258.707031 238.746094 258.359375 239.898438 258.023438 C 242.128906 257.371094 244.316406 256.5625 246.484375 255.730469 C 248.675781 254.890625 250.867188 254.046875 253.097656 253.3125 C 254.269531 252.929688 255.457031 252.59375 256.652344 252.300781 C 257.714844 252.039062 258.90625 251.992188 259.890625 251.511719 C 260.09375 251.414062 260.050781 251.0625 259.828125 251.023438 " fill-opacity="1" fill-rule="nonzero"/><path fill="#c5faff" d="M 139.910156 123.722656 L 132.085938 120.859375 C 132.085938 120.859375 123.441406 102.609375 142.402344 93.433594 C 142.402344 93.433594 152.207031 110.84375 139.910156 123.722656 " fill-opacity="1" fill-rule="nonzero"/><path fill="#cccccc" d="M 137 122.113281 C 137 122.113281 133.8125 106.679688 141.683594 95.648438 C 141.683594 95.648438 149.011719 116.214844 137 122.113281 " fill-opacity="1" fill-rule="nonzero"/><path fill="#bc4b4b" d="M 297.558594 148.566406 C 297.558594 148.566406 279.519531 152.808594 274.886719 160.4375 C 270.25 168.070312 232.617188 181.257812 220.605469 164.605469 C 208.59375 147.953125 209.824219 108.578125 209.824219 108.578125 L 293.0625 127.480469 L 297.558594 148.566406 " fill-opacity="1" fill-rule="nonzero"/><g clip-path="url(#id3)"><path fill="#ea5959" d="M 216.628906 106.015625 C 216.628906 106.015625 257.371094 118.714844 287.664062 113.351562 C 317.957031 107.984375 328.929688 111.179688 332.269531 124.128906 C 335.605469 137.074219 329.882812 160.921875 306.03125 172.839844 C 306.03125 172.839844 305.550781 150.914062 287.664062 138.988281 C 269.773438 127.058594 222.164062 129.796875 216.628906 106.015625 " fill-opacity="1" fill-rule="nonzero"/></g><path fill="#ea5959" d="M 262.652344 165.15625 C 262.652344 165.15625 245.121094 146.847656 242.972656 140.609375 C 242.972656 140.609375 241.902344 161.320312 246.550781 167.515625 C 246.550781 167.515625 250.417969 169.871094 262.652344 165.15625 " fill-opacity="1" fill-rule="nonzero"/><path fill="#fc9d9d" d="M 330.269531 134.386719 C 330.269531 134.386719 313.867188 121.539062 277.167969 119.730469 C 277.167969 119.730469 325.621094 106.425781 330.269531 122.367188 C 330.269531 122.367188 331.34375 131.539062 330.269531 134.386719 " fill-opacity="1" fill-rule="nonzero"/><path fill="#fcb895" d="M 183.40625 198.265625 L 189.859375 216.140625 L 197.074219 210.53125 L 191.988281 193.664062 L 183.40625 198.265625 " fill-opacity="1" fill-rule="nonzero"/><path fill="#a56d47" d="M 182.996094 208.78125 C 182.996094 208.78125 190.949219 203.355469 200.792969 206.074219 L 199.46875 220.339844 L 202.480469 223.925781 C 202.480469 223.925781 193.496094 233.765625 183.714844 232.5 C 183.714844 232.5 186.292969 224.683594 191.257812 220.425781 L 182.996094 208.78125 " fill-opacity="1" fill-rule="nonzero"/><path fill="#4775c6" d="M 179.929688 193.976562 L 175.792969 199.222656 C 175.792969 199.222656 179.769531 201.609375 182.3125 200.019531 C 184.859375 198.429688 190.414062 202.140625 195.03125 198.457031 C 199.648438 194.773438 199.804688 199.542969 200.761719 196.519531 L 196.308594 191.257812 L 181.042969 191.910156 L 179.929688 193.976562 " fill-opacity="1" fill-rule="nonzero"/><path fill="#6893f2" d="M 213.71875 160.019531 L 200.003906 159.484375 C 200.003906 159.484375 186.332031 164.046875 178.25 177.316406 C 169.574219 191.570312 183.710938 195.152344 183.710938 195.152344 C 192.1875 193.753906 199.019531 191.96875 204.515625 189.949219 C 215.195312 180.296875 215.140625 167.777344 213.71875 160.019531 " fill-opacity="1" fill-rule="nonzero"/><path fill="#4775c6" d="M 224.472656 160.4375 L 213.71875 160.019531 C 215.140625 167.777344 215.195312 180.296875 204.515625 189.949219 C 234.894531 178.785156 224.472656 160.4375 224.472656 160.4375 " fill-opacity="1" fill-rule="nonzero"/><path fill="#dd3c3c" d="M 181.441406 187.222656 C 181.441406 187.222656 180.246094 175.222656 185.414062 176.015625 C 190.582031 176.8125 181.441406 187.222656 181.441406 187.222656 " fill-opacity="1" fill-rule="nonzero"/><path fill="#dd3c3c" d="M 187.003906 188.8125 C 187.003906 188.8125 194.875 174.386719 199.410156 179.175781 C 203.941406 183.964844 187.003906 188.8125 187.003906 188.8125 " fill-opacity="1" fill-rule="nonzero"/><path fill="#ffd85a" d="M 190.835938 156.886719 C 191.375 160.015625 191.78125 161.957031 191.78125 161.957031 C 191.78125 161.957031 212.476562 167.359375 224.472656 160.4375 C 224.472656 160.4375 224.5 158.652344 224.523438 155.699219 C 212.136719 161.226562 195.640625 158.011719 190.835938 156.886719 " fill-opacity="1" fill-rule="nonzero"/><path fill="#ea5959" d="M 224.523438 155.699219 C 224.554688 151.332031 224.570312 144.414062 224.453125 136.914062 C 224.222656 121.742188 226.839844 102.90625 204.308594 104.960938 C 204.308594 104.960938 192.96875 104.546875 189.421875 119.152344 C 186.808594 129.925781 189.332031 148.09375 190.835938 156.886719 C 195.640625 158.011719 212.136719 161.226562 224.523438 155.699219 " fill-opacity="1" fill-rule="nonzero"/><path fill="#ffa21a" d="M 198.25 125.527344 C 198.25 123.859375 197.195312 122.507812 195.890625 122.507812 C 194.585938 122.507812 193.53125 123.859375 193.53125 125.527344 C 193.53125 127.195312 194.585938 128.546875 195.890625 128.546875 C 197.195312 128.546875 198.25 127.195312 198.25 125.527344 " fill-opacity="1" fill-rule="nonzero"/><path fill="#ffa21a" d="M 197.535156 141.5 C 197.535156 139.835938 196.476562 138.484375 195.175781 138.484375 C 193.871094 138.484375 192.816406 139.835938 192.816406 141.5 C 192.816406 143.167969 193.871094 144.519531 195.175781 144.519531 C 196.476562 144.519531 197.535156 143.167969 197.535156 141.5 " fill-opacity="1" fill-rule="nonzero"/><path fill="#e29c7d" d="M 199.6875 94.195312 L 199.6875 113.433594 L 212.628906 113.433594 L 212.628906 92.578125 L 199.6875 94.195312 " fill-opacity="1" fill-rule="nonzero"/><path fill="#ffd85a" d="M 199.9375 102.0625 C 199.9375 102.0625 190.71875 108.957031 198.265625 119.730469 C 198.265625 119.730469 226.613281 116.445312 212.871094 103.003906 C 212.871094 103.003906 199.019531 116.714844 199.9375 102.0625 " fill-opacity="1" fill-rule="nonzero"/><path fill="#fcb895" d="M 213.992188 121.8125 C 213.992188 121.8125 199.964844 147.800781 187.085938 154.753906 C 187.085938 154.753906 184.695312 153.40625 181.472656 154.753906 C 181.472656 154.753906 175.34375 158.796875 179.988281 162.347656 C 184.632812 165.894531 187.199219 166.847656 191.515625 160.621094 C 191.515625 160.621094 217.566406 145.988281 223.023438 126.9375 C 223.023438 126.9375 220.066406 119.429688 213.992188 121.8125 " fill-opacity="1" fill-rule="nonzero"/><path fill="#6893f2" d="M 215.914062 129.441406 C 215.914062 129.441406 204.179688 124.675781 209.746094 114.304688 C 212.527344 109.113281 218.808594 103.863281 229.144531 113.632812 C 239.480469 123.402344 226.71875 140.53125 215.914062 129.441406 " fill-opacity="1" fill-rule="nonzero"/><path fill="#dd3c3c" d="M 211.734375 122.847656 C 211.734375 122.847656 211.097656 112.355469 214.992188 113.351562 C 218.886719 114.34375 211.734375 122.847656 211.734375 122.847656 " fill-opacity="1" fill-rule="nonzero"/><path fill="#dd3c3c" d="M 216.628906 126.582031 C 216.628906 126.582031 218.355469 113.308594 224.542969 115.691406 C 230.734375 118.078125 219.539062 125.546875 216.628906 126.582031 " fill-opacity="1" fill-rule="nonzero"/><path fill="#dd3c3c" d="M 221.507812 129.441406 C 221.507812 129.441406 228.367188 122.851562 230.097656 124.992188 C 231.832031 127.132812 225.871094 130.316406 221.507812 129.441406 " fill-opacity="1" fill-rule="nonzero"/><g clip-path="url(#id4)"><path fill="#ffd85a" d="M 201.730469 33.660156 L 205.125 15.035156 L 212.757812 22.988281 L 221.363281 14.996094 L 221.363281 26.308594 L 232.484375 25.824219 L 220.097656 41.015625 L 201.730469 33.660156 " fill-opacity="1" fill-rule="nonzero"/></g><path fill="#aa6231" d="M 180.710938 57.984375 C 180.710938 57.984375 172.414062 57.230469 171.335938 50.765625 C 170.257812 44.300781 172.628906 39.347656 173.167969 39.023438 C 173.167969 39.023438 174.566406 43.980469 179.527344 43.441406 C 179.527344 43.441406 171.765625 30.726562 183.945312 22.96875 C 183.945312 22.96875 184.59375 31.695312 189.875 32.558594 C 195.15625 33.421875 216.601562 27.28125 220.644531 39.078125 C 220.644531 39.078125 237.945312 39.238281 237.78125 56.046875 C 237.621094 72.855469 228.730469 83.519531 228.730469 83.519531 L 180.710938 57.984375 " fill-opacity="1" fill-rule="nonzero"/><path fill="#d38c6c" d="M 190.226562 32.601562 C 190.226562 32.601562 191.535156 46.46875 210.621094 49.648438 C 210.621094 49.648438 201.089844 43.820312 202.476562 31.792969 L 190.226562 32.601562 " fill-opacity="1" fill-rule="nonzero"/><path fill="#d38c6c" d="M 235.328125 46.542969 C 235.328125 46.542969 229.894531 54.621094 216.582031 51.117188 C 216.582031 51.117188 225.113281 56.917969 237.78125 56.042969 C 237.78125 56.042969 238.328125 51.261719 235.328125 46.542969 " fill-opacity="1" fill-rule="nonzero"/><path fill="#fcb895" d="M 180.710938 57.984375 C 180.710938 57.984375 174.246094 102.589844 203.347656 103.019531 C 203.347656 103.019531 217.167969 103.0625 222.910156 90.464844 C 222.910156 90.464844 229.753906 91.707031 231.800781 83.519531 C 233.847656 75.332031 230.617188 69.726562 223.71875 74.578125 C 223.71875 74.578125 219.621094 78.128906 219.296875 72.960938 C 218.976562 67.789062 217.144531 65.09375 216.390625 64.125 C 215.632812 63.15625 211.105469 58.84375 211.539062 56.042969 C 211.539062 56.042969 191.058594 59.816406 180.710938 57.984375 " fill-opacity="1" fill-rule="nonzero"/><path fill="#7f4924" d="M 190.226562 77.226562 C 190.226562 79.726562 188.863281 81.757812 187.183594 81.757812 C 185.503906 81.757812 184.144531 79.726562 184.144531 77.226562 C 184.144531 74.726562 185.503906 72.695312 187.183594 72.695312 C 188.863281 72.695312 190.226562 74.726562 190.226562 77.226562 " fill-opacity="1" fill-rule="nonzero"/><path fill="#7f4924" d="M 208.59375 77.226562 C 208.59375 79.726562 207.230469 81.757812 205.550781 81.757812 C 203.871094 81.757812 202.507812 79.726562 202.507812 77.226562 C 202.507812 74.726562 203.871094 72.695312 205.550781 72.695312 C 207.230469 72.695312 208.59375 74.726562 208.59375 77.226562 " fill-opacity="1" fill-rule="nonzero"/><path fill="#d38c6c" d="M 192.953125 90.203125 C 192.410156 90.203125 191.878906 90.089844 191.410156 89.789062 C 190.558594 89.25 190.097656 88.214844 190.046875 86.722656 C 190.011719 85.707031 190.320312 84.953125 190.960938 84.472656 C 192.082031 83.640625 193.886719 83.992188 194.632812 84.1875 C 195.054688 83.429688 195.140625 81.605469 195.054688 80.417969 C 195.039062 80.15625 195.238281 79.929688 195.5 79.910156 C 195.765625 79.890625 195.988281 80.089844 196.007812 80.351562 C 196.035156 80.722656 196.230469 83.996094 195.152344 85.074219 L 194.945312 85.285156 L 194.664062 85.1875 C 194.074219 84.992188 192.367188 84.617188 191.53125 85.238281 C 191.148438 85.523438 190.976562 85.996094 191 86.6875 C 191.039062 87.851562 191.351562 88.621094 191.921875 88.984375 C 192.800781 89.539062 194.179688 89.089844 194.925781 88.769531 C 195.167969 88.667969 195.449219 88.777344 195.554688 89.019531 C 195.65625 89.261719 195.546875 89.542969 195.304688 89.644531 C 194.625 89.9375 193.777344 90.203125 192.953125 90.203125 " fill-opacity="1" fill-rule="nonzero"/><path fill="#ffffff" d="M 193.027344 92.011719 C 193.027344 92.011719 196.664062 94.453125 202.570312 92.011719 C 202.570312 92.011719 202.226562 96.246094 197.140625 95.40625 C 194.007812 94.890625 193.027344 92.011719 193.027344 92.011719 " fill-opacity="1" fill-rule="nonzero"/><path fill="#aa6231" d="M 183.464844 68.992188 L 182.792969 68.316406 C 184.242188 66.867188 187.390625 66.476562 187.523438 66.457031 L 187.640625 67.40625 C 187.609375 67.410156 184.683594 67.777344 183.464844 68.992188 " fill-opacity="1" fill-rule="nonzero"/><path fill="#aa6231" d="M 207.671875 69.054688 C 205.765625 67.3125 202.574219 67.507812 202.542969 67.507812 L 202.476562 66.558594 C 202.621094 66.546875 206.105469 66.328125 208.316406 68.351562 L 207.671875 69.054688 " fill-opacity="1" fill-rule="nonzero"/></svg>