<svg xmlns="http://www.w3.org/2000/svg" xmlns:xlink="http://www.w3.org/1999/xlink" width="559" zoomAndPan="magnify" viewBox="0 0 419.25 297.749993" height="396" preserveAspectRatio="xMidYMid meet" version="1.0"><defs><clipPath id="id1"><path d="M 0 0.140625 L 418.5 0.140625 L 418.5 297.359375 L 0 297.359375 Z M 0 0.140625 " clip-rule="nonzero"/></clipPath><clipPath id="id2"><path d="M 197 157 L 222 157 L 222 257.335938 L 197 257.335938 Z M 197 157 " clip-rule="nonzero"/></clipPath><clipPath id="id3"><path d="M 256 182 L 295.617188 182 L 295.617188 211 L 256 211 Z M 256 182 " clip-rule="nonzero"/></clipPath><clipPath id="id4"><path d="M 123.425781 182 L 163 182 L 163 211 L 123.425781 211 Z M 123.425781 182 " clip-rule="nonzero"/></clipPath></defs><g clip-path="url(#id1)"><path fill="#ffffff" d="M 0 0.140625 L 419.25 0.140625 L 419.25 304.097656 L 0 304.097656 Z M 0 0.140625 " fill-opacity="1" fill-rule="nonzero"/><path fill="#f59382" d="M 0 0.140625 L 418.5 0.140625 L 418.5 297.359375 L 0 297.359375 Z M 0 0.140625 " fill-opacity="1" fill-rule="nonzero"/><path fill="#ffffff" d="M 0 0.140625 L 418.5 0.140625 L 418.5 297.359375 L 0 297.359375 Z M 0 0.140625 " fill-opacity="1" fill-rule="nonzero"/><path fill="#f59382" d="M 0 0.140625 L 418.5 0.140625 L 418.5 297.359375 L 0 297.359375 Z M 0 0.140625 " fill-opacity="1" fill-rule="nonzero"/></g><path fill="#6c200f" d="M 244.285156 188.664062 L 172.699219 188.273438 L 160.601562 132.332031 L 254.0625 132.332031 L 244.285156 188.664062 " fill-opacity="1" fill-rule="nonzero"/><path fill="#a43319" d="M 250.328125 107.183594 C 250.328125 107.183594 260.125 172.222656 232.132812 188.347656 C 232.132812 188.347656 264.105469 199.078125 268.472656 164.066406 C 268.472656 164.066406 283.351562 53.539062 235.125 48.070312 L 250.328125 107.183594 " fill-opacity="1" fill-rule="nonzero"/><path fill="#fab68d" d="M 200.308594 189.382812 L 219.644531 189.382812 L 219.644531 173.035156 L 200.308594 173.035156 Z M 200.308594 189.382812 " fill-opacity="1" fill-rule="nonzero"/><path fill="#fab68d" d="M 250.707031 134.230469 C 249.742188 139.351562 251.574219 143.996094 254.796875 144.597656 C 258.019531 145.203125 261.414062 141.546875 262.378906 136.425781 C 263.34375 131.300781 261.507812 126.65625 258.285156 126.054688 C 255.0625 125.449219 251.667969 129.109375 250.707031 134.230469 " fill-opacity="1" fill-rule="nonzero"/><path fill="#ce9674" d="M 259.351562 138.863281 C 259.351562 138.863281 259.433594 138.585938 259.585938 138.117188 C 259.660156 137.882812 259.773438 137.609375 259.863281 137.277344 C 259.953125 136.949219 260.054688 136.578125 260.175781 136.183594 C 260.28125 135.78125 260.355469 135.347656 260.46875 134.902344 C 260.582031 134.457031 260.601562 133.921875 260.695312 133.410156 C 260.761719 132.964844 260.71875 132.4375 260.65625 131.933594 C 260.589844 131.425781 260.460938 130.917969 260.265625 130.457031 C 260.082031 129.984375 259.8125 129.574219 259.476562 129.304688 C 259.390625 129.222656 259.316406 129.199219 259.246094 129.140625 C 259.183594 129.09375 258.964844 129.019531 258.929688 129 L 258.617188 128.921875 C 258.511719 128.910156 258.414062 128.914062 258.308594 128.90625 C 257.914062 128.921875 257.535156 129.101562 257.222656 129.386719 C 256.914062 129.675781 256.664062 130.023438 256.457031 130.363281 C 256.0625 131.066406 255.835938 131.726562 255.707031 132.195312 C 255.644531 132.417969 255.601562 132.601562 255.574219 132.730469 C 255.546875 132.769531 255.53125 132.804688 255.523438 132.835938 C 255.519531 132.808594 255.519531 132.78125 255.515625 132.746094 C 255.503906 132.617188 255.492188 132.417969 255.5 132.164062 C 255.515625 131.664062 255.59375 130.9375 255.910156 130.105469 C 256.078125 129.691406 256.292969 129.246094 256.664062 128.835938 C 257.011719 128.425781 257.566406 128.042969 258.230469 127.980469 C 258.347656 127.976562 258.46875 127.96875 258.589844 127.96875 C 258.632812 127.96875 258.675781 127.96875 258.71875 127.972656 C 258.878906 128 259.039062 128.023438 259.199219 128.050781 C 259.417969 128.125 259.46875 128.132812 259.644531 128.210938 C 259.808594 128.296875 259.984375 128.390625 260.105469 128.5 C 260.640625 128.914062 261.003906 129.476562 261.242188 130.046875 C 261.476562 130.628906 261.609375 131.21875 261.671875 131.8125 C 261.742188 132.402344 261.730469 132.976562 261.613281 133.570312 C 261.492188 134.089844 261.414062 134.578125 261.246094 135.058594 C 261.078125 135.535156 260.925781 135.988281 260.75 136.382812 C 260.570312 136.773438 260.394531 137.125 260.234375 137.433594 C 260.089844 137.75 259.902344 137.996094 259.777344 138.207031 C 259.511719 138.628906 259.351562 138.863281 259.351562 138.863281 " fill-opacity="1" fill-rule="nonzero"/><path fill="#ce9674" d="M 256.265625 140.242188 C 255.597656 140.242188 254.871094 139.84375 254.648438 139.246094 C 254.605469 139.019531 254.582031 138.863281 254.582031 138.863281 C 254.582031 138.863281 254.578125 138.863281 254.574219 138.863281 C 254.574219 137.992188 255.582031 136.636719 256.058594 136.066406 C 256.058594 136.0625 257.554688 134.242188 255.535156 132.949219 C 255.535156 132.949219 255.507812 132.902344 255.523438 132.835938 C 255.53125 132.910156 255.535156 132.949219 255.535156 132.949219 C 255.535156 132.949219 255.546875 132.871094 255.574219 132.730469 C 255.707031 132.566406 256.117188 132.363281 257.351562 132.332031 C 257.351562 132.332031 259.71875 132.769531 258.359375 135.285156 C 258.066406 135.828125 257.8125 136.390625 257.667969 136.988281 C 257.46875 137.84375 257.859375 139.027344 257.300781 139.769531 C 257.050781 140.101562 256.667969 140.242188 256.265625 140.242188 " fill-opacity="1" fill-rule="nonzero"/><path fill="#ac7c5f" d="M 255.535156 132.949219 C 255.535156 132.949219 255.53125 132.910156 255.523438 132.835938 C 255.53125 132.804688 255.546875 132.769531 255.574219 132.730469 C 255.546875 132.871094 255.535156 132.949219 255.535156 132.949219 " fill-opacity="1" fill-rule="nonzero"/><path fill="#ce9674" d="M 256.140625 142.417969 L 256.027344 142.402344 L 255.472656 141.28125 C 255.582031 141.460938 255.695312 141.636719 255.792969 141.800781 C 255.890625 141.972656 255.992188 142.117188 256.050781 142.234375 C 256.101562 142.332031 256.132812 142.402344 256.140625 142.417969 M 254.199219 141.179688 C 254.199219 141.175781 254.191406 141.167969 254.1875 141.164062 C 254.050781 140.875 253.960938 140.558594 253.960938 140.257812 C 253.945312 139.957031 254.011719 139.679688 254.109375 139.464844 C 254.273438 139.066406 254.53125 138.890625 254.574219 138.863281 C 254.578125 138.902344 254.578125 138.9375 254.582031 138.972656 C 254.589844 139.066406 254.613281 139.160156 254.648438 139.246094 C 254.664062 139.332031 254.6875 139.433594 254.707031 139.539062 C 254.753906 139.699219 254.800781 139.871094 254.859375 140.039062 L 254.8125 139.941406 L 254.199219 141.179688 " fill-opacity="1" fill-rule="nonzero"/><path fill="#ac7c5f" d="M 254.648438 139.246094 C 254.613281 139.160156 254.589844 139.066406 254.582031 138.972656 C 254.578125 138.9375 254.578125 138.902344 254.574219 138.863281 C 254.578125 138.863281 254.582031 138.863281 254.582031 138.863281 C 254.582031 138.863281 254.605469 139.019531 254.648438 139.246094 " fill-opacity="1" fill-rule="nonzero"/><path fill="#fab68d" d="M 167.246094 134.230469 C 168.210938 139.351562 166.378906 143.996094 163.15625 144.597656 C 159.929688 145.203125 156.539062 141.546875 155.574219 136.425781 C 154.609375 131.300781 156.445312 126.65625 159.667969 126.054688 C 162.894531 125.449219 166.285156 129.109375 167.246094 134.230469 " fill-opacity="1" fill-rule="nonzero"/><path fill="#fab68d" d="M 255.9375 120.109375 C 255.9375 152.613281 236.910156 178.964844 209.976562 178.964844 C 183.042969 178.964844 164.011719 152.613281 164.011719 120.109375 C 164.011719 87.601562 183.042969 61.246094 209.976562 61.246094 C 236.910156 61.246094 255.9375 87.601562 255.9375 120.109375 " fill-opacity="1" fill-rule="nonzero"/><path fill="#ce9674" d="M 209.539062 147.09375 C 206.347656 147.09375 204.40625 144.542969 204.40625 144.542969 L 215.179688 144.542969 C 213.042969 146.457031 211.132812 147.09375 209.539062 147.09375 " fill-opacity="1" fill-rule="nonzero"/><path fill="#351f17" d="M 195.019531 124.511719 C 195.019531 127.625 193.289062 130.152344 191.15625 130.152344 C 189.023438 130.152344 187.292969 127.625 187.292969 124.511719 C 187.292969 121.394531 189.023438 118.871094 191.15625 118.871094 C 193.289062 118.871094 195.019531 121.394531 195.019531 124.511719 " fill-opacity="1" fill-rule="nonzero"/><path fill="#351f17" d="M 195.019531 116.15625 C 195.019531 116.15625 194.839844 116.070312 194.519531 115.941406 C 194.207031 115.800781 193.734375 115.652344 193.171875 115.488281 C 192.886719 115.417969 192.578125 115.328125 192.25 115.285156 C 191.917969 115.21875 191.566406 115.199219 191.207031 115.164062 C 190.847656 115.144531 190.46875 115.160156 190.097656 115.191406 C 189.722656 115.246094 189.339844 115.285156 188.980469 115.417969 C 188.605469 115.5 188.269531 115.679688 187.929688 115.84375 C 187.753906 115.914062 187.601562 116.027344 187.453125 116.132812 C 187.296875 116.238281 187.148438 116.34375 187 116.445312 C 186.722656 116.667969 186.484375 116.929688 186.238281 117.152344 C 185.988281 117.378906 185.832031 117.660156 185.640625 117.882812 C 185.464844 118.113281 185.292969 118.320312 185.179688 118.535156 C 185.058594 118.742188 184.953125 118.925781 184.867188 119.070312 C 184.683594 119.367188 184.582031 119.539062 184.582031 119.539062 C 184.582031 119.539062 184.65625 119.355469 184.792969 119.035156 C 184.863281 118.875 184.949219 118.683594 185.046875 118.457031 C 185.128906 118.226562 185.28125 118 185.449219 117.746094 C 185.625 117.503906 185.769531 117.203125 186.007812 116.953125 C 186.25 116.699219 186.472656 116.402344 186.765625 116.160156 C 186.917969 116.046875 187.078125 115.929688 187.230469 115.8125 C 187.390625 115.691406 187.546875 115.566406 187.738281 115.488281 C 188.097656 115.308594 188.460938 115.113281 188.863281 115.019531 C 189.25 114.878906 189.660156 114.84375 190.058594 114.792969 C 190.257812 114.753906 190.460938 114.78125 190.65625 114.777344 C 190.851562 114.78125 191.046875 114.769531 191.234375 114.800781 C 191.613281 114.84375 191.972656 114.894531 192.308594 114.988281 C 192.648438 115.058594 192.957031 115.175781 193.242188 115.265625 C 194.375 115.679688 195.019531 116.15625 195.019531 116.15625 " fill-opacity="1" fill-rule="nonzero"/><path fill="#351f17" d="M 197.742188 109.984375 C 197.742188 109.984375 197.398438 109.867188 196.796875 109.664062 C 196.203125 109.472656 195.371094 109.210938 194.394531 108.980469 C 193.90625 108.859375 193.378906 108.753906 192.835938 108.667969 C 192.292969 108.574219 191.722656 108.535156 191.148438 108.496094 C 190.574219 108.480469 189.992188 108.503906 189.414062 108.558594 C 188.839844 108.652344 188.257812 108.726562 187.707031 108.917969 C 187.421875 108.984375 187.15625 109.109375 186.875 109.203125 C 186.613281 109.324219 186.335938 109.429688 186.074219 109.5625 C 185.550781 109.835938 185.03125 110.125 184.546875 110.460938 C 184.058594 110.78125 183.605469 111.144531 183.160156 111.488281 C 182.742188 111.859375 182.308594 112.191406 181.945312 112.546875 C 181.558594 112.878906 181.21875 113.210938 180.914062 113.507812 C 180.601562 113.800781 180.316406 114.054688 180.101562 114.277344 C 179.652344 114.714844 179.359375 114.960938 179.359375 114.960938 C 179.359375 114.960938 179.414062 114.59375 179.574219 113.972656 C 179.648438 113.65625 179.753906 113.277344 179.917969 112.863281 C 179.996094 112.652344 180.085938 112.429688 180.175781 112.195312 C 180.277344 111.960938 180.402344 111.726562 180.523438 111.476562 C 180.761719 110.96875 181.101562 110.464844 181.457031 109.921875 C 181.851562 109.402344 182.285156 108.855469 182.820312 108.355469 C 183.339844 107.847656 183.949219 107.371094 184.621094 106.960938 C 184.960938 106.761719 185.316406 106.570312 185.683594 106.402344 C 186.058594 106.257812 186.429688 106.082031 186.824219 105.980469 C 187.605469 105.734375 188.421875 105.628906 189.21875 105.59375 C 190.015625 105.570312 190.792969 105.652344 191.519531 105.808594 C 192.242188 105.972656 192.917969 106.191406 193.519531 106.46875 C 194.121094 106.742188 194.660156 107.046875 195.125 107.367188 C 196.0625 108 196.722656 108.667969 197.140625 109.160156 C 197.5625 109.65625 197.742188 109.984375 197.742188 109.984375 " fill-opacity="1" fill-rule="nonzero"/><path fill="#ffffff" d="M 190.480469 121.949219 C 190.480469 123.015625 189.613281 123.878906 188.550781 123.878906 C 187.484375 123.878906 186.617188 123.015625 186.617188 121.949219 C 186.617188 120.882812 187.484375 120.019531 188.550781 120.019531 C 189.613281 120.019531 190.480469 120.882812 190.480469 121.949219 " fill-opacity="1" fill-rule="nonzero"/><path fill="#ffffff" d="M 191.957031 123.878906 C 191.957031 124.320312 191.601562 124.679688 191.15625 124.679688 C 190.714844 124.679688 190.355469 124.320312 190.355469 123.878906 C 190.355469 123.4375 190.714844 123.082031 191.15625 123.082031 C 191.601562 123.082031 191.957031 123.4375 191.957031 123.878906 " fill-opacity="1" fill-rule="nonzero"/><path fill="#fab996" d="M 182.910156 130.582031 C 182.910156 130.582031 190.011719 126.609375 200.875 130.152344 C 200.875 130.152344 192.726562 139.164062 182.910156 130.582031 " fill-opacity="1" fill-rule="nonzero"/><path fill="#351f17" d="M 223.015625 124.511719 C 223.015625 127.625 224.742188 130.152344 226.878906 130.152344 C 229.015625 130.152344 230.742188 127.625 230.742188 124.511719 C 230.742188 121.394531 229.015625 118.871094 226.878906 118.871094 C 224.742188 118.871094 223.015625 121.394531 223.015625 124.511719 " fill-opacity="1" fill-rule="nonzero"/><path fill="#351f17" d="M 223.015625 116.15625 C 223.015625 116.15625 223.664062 115.679688 224.792969 115.265625 C 225.078125 115.175781 225.386719 115.058594 225.726562 114.988281 C 226.0625 114.894531 226.421875 114.84375 226.800781 114.800781 C 226.988281 114.769531 227.1875 114.78125 227.382812 114.777344 C 227.574219 114.78125 227.777344 114.753906 227.976562 114.792969 C 228.375 114.84375 228.785156 114.878906 229.171875 115.019531 C 229.574219 115.113281 229.9375 115.308594 230.300781 115.488281 C 230.488281 115.566406 230.648438 115.691406 230.804688 115.8125 C 230.960938 115.929688 231.117188 116.046875 231.269531 116.160156 C 231.5625 116.402344 231.789062 116.699219 232.027344 116.953125 C 232.265625 117.203125 232.410156 117.503906 232.585938 117.746094 C 232.757812 118 232.90625 118.226562 232.988281 118.457031 C 233.085938 118.683594 233.175781 118.875 233.242188 119.035156 C 233.378906 119.355469 233.453125 119.539062 233.453125 119.539062 C 233.453125 119.539062 233.351562 119.367188 233.171875 119.070312 C 233.082031 118.925781 232.976562 118.742188 232.855469 118.535156 C 232.746094 118.320312 232.570312 118.113281 232.394531 117.882812 C 232.207031 117.660156 232.046875 117.375 231.796875 117.152344 C 231.550781 116.929688 231.3125 116.667969 231.035156 116.441406 C 230.886719 116.34375 230.738281 116.238281 230.582031 116.132812 C 230.433594 116.027344 230.285156 115.914062 230.105469 115.84375 C 229.769531 115.679688 229.429688 115.5 229.054688 115.417969 C 228.695312 115.285156 228.3125 115.246094 227.9375 115.191406 C 227.566406 115.160156 227.191406 115.144531 226.828125 115.164062 C 226.46875 115.199219 226.117188 115.21875 225.785156 115.285156 C 225.457031 115.328125 225.148438 115.417969 224.863281 115.488281 C 224.300781 115.652344 223.832031 115.800781 223.515625 115.941406 C 223.195312 116.070312 223.015625 116.15625 223.015625 116.15625 " fill-opacity="1" fill-rule="nonzero"/><path fill="#351f17" d="M 220.296875 109.984375 C 220.296875 109.984375 220.472656 109.65625 220.894531 109.160156 C 221.316406 108.667969 221.972656 108 222.910156 107.367188 C 223.375 107.046875 223.914062 106.742188 224.519531 106.46875 C 225.117188 106.191406 225.792969 105.972656 226.515625 105.808594 C 227.242188 105.652344 228.019531 105.570312 228.816406 105.59375 C 229.613281 105.628906 230.429688 105.734375 231.210938 105.980469 C 231.609375 106.082031 231.976562 106.257812 232.355469 106.402344 C 232.71875 106.570312 233.074219 106.761719 233.417969 106.960938 C 234.085938 107.371094 234.695312 107.847656 235.21875 108.355469 C 235.75 108.859375 236.183594 109.402344 236.578125 109.921875 C 236.933594 110.464844 237.273438 110.96875 237.511719 111.476562 C 237.636719 111.726562 237.757812 111.960938 237.859375 112.195312 C 237.949219 112.429688 238.039062 112.652344 238.121094 112.863281 C 238.285156 113.277344 238.390625 113.65625 238.464844 113.972656 C 238.625 114.59375 238.679688 114.960938 238.679688 114.960938 C 238.679688 114.960938 238.382812 114.714844 237.933594 114.277344 C 237.71875 114.054688 237.4375 113.800781 237.121094 113.507812 C 236.816406 113.210938 236.476562 112.882812 236.089844 112.546875 C 235.726562 112.191406 235.296875 111.859375 234.875 111.488281 C 234.433594 111.144531 233.976562 110.78125 233.488281 110.460938 C 233.003906 110.125 232.484375 109.835938 231.964844 109.5625 C 231.699219 109.429688 231.425781 109.324219 231.160156 109.203125 C 230.882812 109.109375 230.617188 108.984375 230.328125 108.917969 C 229.777344 108.726562 229.195312 108.652344 228.625 108.558594 C 228.046875 108.503906 227.464844 108.480469 226.886719 108.496094 C 226.3125 108.535156 225.742188 108.574219 225.199219 108.667969 C 224.65625 108.753906 224.128906 108.859375 223.644531 108.980469 C 222.667969 109.210938 221.835938 109.472656 221.238281 109.664062 C 220.636719 109.867188 220.296875 109.984375 220.296875 109.984375 " fill-opacity="1" fill-rule="nonzero"/><path fill="#ffffff" d="M 227.554688 121.949219 C 227.554688 123.015625 228.417969 123.878906 229.484375 123.878906 C 230.550781 123.878906 231.417969 123.015625 231.417969 121.949219 C 231.417969 120.882812 230.550781 120.019531 229.484375 120.019531 C 228.417969 120.019531 227.554688 120.882812 227.554688 121.949219 " fill-opacity="1" fill-rule="nonzero"/><path fill="#ffffff" d="M 226.078125 123.878906 C 226.078125 124.320312 226.4375 124.679688 226.878906 124.679688 C 227.320312 124.679688 227.679688 124.320312 227.679688 123.878906 C 227.679688 123.4375 227.320312 123.082031 226.878906 123.082031 C 226.4375 123.082031 226.078125 123.4375 226.078125 123.878906 " fill-opacity="1" fill-rule="nonzero"/><path fill="#fab996" d="M 235.125 130.582031 C 235.125 130.582031 228.023438 126.609375 217.164062 130.152344 C 217.164062 130.152344 225.308594 139.164062 235.125 130.582031 " fill-opacity="1" fill-rule="nonzero"/><path fill="#f8a595" d="M 193.347656 134.921875 C 193.347656 136.726562 190.636719 138.1875 187.292969 138.1875 C 183.945312 138.1875 181.238281 136.726562 181.238281 134.921875 C 181.238281 133.121094 183.945312 131.664062 187.292969 131.664062 C 190.636719 131.664062 193.347656 133.121094 193.347656 134.921875 " fill-opacity="1" fill-rule="nonzero"/><path fill="#f8a595" d="M 237.472656 134.921875 C 237.472656 136.726562 234.761719 138.1875 231.417969 138.1875 C 228.074219 138.1875 225.363281 136.726562 225.363281 134.921875 C 225.363281 133.121094 228.074219 131.664062 231.417969 131.664062 C 234.761719 131.664062 237.472656 133.121094 237.472656 134.921875 " fill-opacity="1" fill-rule="nonzero"/><path fill="#ffffff" d="M 199.035156 155.523438 C 199.273438 158.890625 203.921875 161.574219 209.617188 161.574219 C 215.3125 161.574219 219.960938 158.890625 220.203125 155.523438 L 199.035156 155.523438 " fill-opacity="1" fill-rule="nonzero"/><path fill="#f6898e" d="M 209.792969 154.398438 C 209.792969 154.398438 208.886719 152.808594 205.738281 153.898438 L 199.035156 155.523438 L 209.792969 155.523438 L 209.792969 154.398438 " fill-opacity="1" fill-rule="nonzero"/><path fill="#f6898e" d="M 209.800781 154.398438 C 209.800781 154.398438 210.710938 152.988281 213.855469 153.898438 L 220.5625 155.523438 L 209.800781 155.523438 L 209.800781 154.398438 " fill-opacity="1" fill-rule="nonzero"/><path fill="#f6898e" d="M 199.035156 155.523438 C 199.035156 155.523438 199.382812 160.429688 208.210938 161.519531 C 208.210938 161.519531 218.066406 162.296875 220.203125 155.523438 C 220.203125 155.523438 220.203125 164.808594 208.210938 164.277344 C 208.210938 164.277344 200.175781 164.277344 199.035156 155.523438 " fill-opacity="1" fill-rule="nonzero"/><path fill="#ffffff" d="M 207.5 163.113281 C 207.5 163.113281 207.699219 163.132812 208.050781 163.148438 C 208.402344 163.171875 208.902344 163.167969 209.5 163.160156 C 209.800781 163.144531 210.125 163.144531 210.46875 163.105469 C 210.808594 163.082031 211.164062 163.035156 211.535156 162.984375 C 211.90625 162.949219 212.277344 162.855469 212.664062 162.785156 C 213.042969 162.695312 213.425781 162.585938 213.800781 162.472656 C 214.167969 162.328125 214.558594 162.234375 214.902344 162.050781 C 215.253906 161.886719 215.605469 161.738281 215.914062 161.527344 C 216.230469 161.335938 216.539062 161.15625 216.800781 160.933594 C 217.066406 160.726562 217.332031 160.542969 217.53125 160.316406 C 217.742188 160.105469 217.9375 159.914062 218.109375 159.742188 C 218.253906 159.550781 218.382812 159.382812 218.492188 159.242188 C 218.710938 158.96875 218.835938 158.808594 218.835938 158.808594 C 218.835938 158.808594 218.730469 158.980469 218.546875 159.28125 C 218.453125 159.429688 218.339844 159.613281 218.210938 159.824219 C 218.054688 160.015625 217.871094 160.226562 217.671875 160.457031 C 217.480469 160.699219 217.222656 160.90625 216.960938 161.132812 C 216.824219 161.246094 216.695312 161.375 216.546875 161.480469 C 216.390625 161.582031 216.234375 161.683594 216.074219 161.789062 C 215.757812 162.011719 215.398438 162.175781 215.039062 162.351562 C 214.683594 162.546875 214.289062 162.652344 213.910156 162.804688 C 213.519531 162.921875 213.125 163.023438 212.734375 163.105469 C 212.339844 163.171875 211.953125 163.257812 211.574219 163.289062 C 211.195312 163.339844 210.828125 163.359375 210.480469 163.363281 C 210.132812 163.382812 209.804688 163.359375 209.5 163.359375 C 208.289062 163.304688 207.5 163.113281 207.5 163.113281 " fill-opacity="1" fill-rule="nonzero"/><path fill="#a43319" d="M 193.347656 80.1875 L 193.347656 57.703125 C 204.414062 40.234375 233.453125 47.464844 233.453125 47.464844 C 274.695312 61.246094 261.5 128.683594 261.5 128.683594 C 258.433594 124.730469 255.535156 126.519531 255.535156 126.519531 L 252.101562 114.667969 C 252.101562 114.667969 196.332031 102.773438 193.347656 80.1875 " fill-opacity="1" fill-rule="nonzero"/><path fill="#a43319" d="M 193.347656 80.1875 C 193.347656 80.1875 176.867188 83.324219 169.097656 106.863281 C 169.097656 106.863281 166.214844 114.957031 164.988281 134.714844 C 164.988281 134.714844 165.753906 125.449219 159.667969 126.054688 C 159.667969 126.054688 149.15625 62.648438 199.035156 56.117188 L 193.347656 80.1875 " fill-opacity="1" fill-rule="nonzero"/><path fill="#f9a72b" d="M 254.8125 139.941406 L 256.027344 142.402344 L 258.742188 142.796875 L 256.777344 144.710938 L 257.238281 147.414062 L 254.8125 146.136719 L 252.382812 147.414062 L 252.847656 144.710938 L 250.878906 142.796875 L 253.597656 142.402344 L 254.8125 139.941406 " fill-opacity="1" fill-rule="nonzero"/><path fill="#fbcb5e" d="M 256.289062 145.285156 C 255.382812 144.78125 254.710938 143.824219 254.359375 142.824219 L 254.992188 141.539062 L 255.6875 142.949219 L 257.238281 143.175781 L 256.117188 144.269531 L 256.289062 145.285156 " fill-opacity="1" fill-rule="nonzero"/><path fill="#892a14" d="M 257.199219 147.179688 L 257.074219 146.433594 L 257.199219 147.179688 " fill-opacity="1" fill-rule="nonzero"/><path fill="#ce9674" d="M 252.695312 142.535156 L 253.386719 142.433594 L 252.695312 142.535156 " fill-opacity="1" fill-rule="nonzero"/><path fill="#ce9674" d="M 250.878906 142.796875 L 252.695312 142.535156 L 250.878906 142.796875 " fill-opacity="1" fill-rule="nonzero"/><path fill="#cd8923" d="M 252.382812 147.414062 L 252.847656 144.710938 L 252.199219 144.082031 L 250.878906 142.796875 L 252.695312 142.535156 L 253.386719 142.433594 C 253.355469 142.710938 253.359375 142.996094 253.417969 143.292969 C 253.648438 144.503906 254.378906 145.28125 255.441406 145.871094 C 255.933594 146.144531 256.5 146.339844 257.074219 146.433594 L 257.199219 147.179688 L 256.929688 147.25 L 254.8125 146.136719 L 252.382812 147.414062 " fill-opacity="1" fill-rule="nonzero"/><path fill="#f9a72b" d="M 163.65625 139.941406 L 164.871094 142.402344 L 167.585938 142.796875 L 165.621094 144.710938 L 166.085938 147.414062 L 163.65625 146.136719 L 161.226562 147.414062 L 161.6875 144.710938 L 159.726562 142.796875 L 162.441406 142.402344 L 163.65625 139.941406 " fill-opacity="1" fill-rule="nonzero"/><path fill="#fab996" d="M 218.136719 187.382812 L 201.816406 187.382812 C 201.816406 187.382812 161.164062 187.164062 161.164062 223.015625 L 258.785156 223.015625 C 258.785156 187.164062 218.136719 187.382812 218.136719 187.382812 " fill-opacity="1" fill-rule="nonzero"/><path fill="#ed3947" d="M 227.160156 188.347656 C 234.707031 189.769531 245.296875 193.269531 252.101562 201.898438 C 243.5 204.738281 237.148438 212.921875 237.148438 222.371094 C 237.148438 222.585938 237.160156 222.800781 237.167969 223.015625 L 183.417969 223.015625 C 183.425781 222.800781 183.4375 222.585938 183.4375 222.371094 C 183.4375 212.738281 176.835938 204.417969 167.980469 201.738281 C 174.480469 193.613281 184.347656 190.085938 191.753906 188.554688 C 191.753906 188.554688 188.320312 212.089844 209.976562 212.089844 C 209.976562 212.089844 226.84375 213.0625 227.160156 188.347656 " fill-opacity="1" fill-rule="nonzero"/><path fill="#b74c24" d="M 254.277344 86.332031 C 246.453125 68.386719 223.078125 67 223.078125 67 C 224.964844 66.328125 227.316406 66.117188 229.546875 66.117188 C 233.441406 66.117188 236.960938 66.761719 236.960938 66.761719 C 234.328125 64.265625 230.019531 63.511719 230.019531 63.511719 C 231.085938 63.28125 232.125 63.175781 233.140625 63.175781 C 244.882812 63.175781 252.949219 77.378906 252.949219 77.378906 C 251.328125 75.941406 248.152344 74.496094 248.152344 74.496094 C 254.347656 79.929688 254.277344 86.332031 254.277344 86.332031 " fill-opacity="1" fill-rule="nonzero"/><path fill="#b74c24" d="M 246.207031 64.488281 C 246.207031 64.488281 233.339844 56.507812 218.261719 56.507812 C 213.273438 56.507812 208.042969 57.382812 202.953125 59.703125 C 202.953125 59.703125 212.109375 54.34375 224.277344 53.460938 C 224.277344 53.460938 228.265625 48.960938 211.398438 47.855469 C 211.398438 47.855469 212.488281 47.746094 214.351562 47.746094 C 220.480469 47.746094 234.964844 48.941406 246.566406 59.214844 C 246.566406 59.214844 241.714844 56.464844 234.035156 56.253906 C 234.035156 56.253906 242.085938 59.433594 246.207031 64.488281 " fill-opacity="1" fill-rule="nonzero"/><path fill="#a43319" d="M 169.097656 106.863281 C 169.097656 106.863281 156.59375 172.222656 184.582031 188.347656 C 184.582031 188.347656 155.320312 198.757812 150.953125 163.746094 C 150.953125 163.746094 132.710938 61.246094 193.347656 57.167969 L 169.097656 106.863281 " fill-opacity="1" fill-rule="nonzero"/><path fill="#b74c24" d="M 183.996094 76.335938 L 185.804688 72.625 C 187.191406 72.328125 188.5 72.230469 189.609375 72.230469 C 191.53125 72.230469 192.835938 72.519531 192.835938 72.519531 C 189.488281 73.332031 186.558594 74.660156 183.996094 76.335938 " fill-opacity="1" fill-rule="nonzero"/><path fill="#b74c24" d="M 166.703125 106.339844 C 164.964844 99.546875 167.695312 89.222656 167.695312 89.222656 C 164.441406 91.875 163.144531 96.992188 163.144531 96.992188 C 160.886719 79.835938 181.925781 67.492188 181.925781 67.492188 C 177.027344 73.300781 178.019531 77.277344 178.019531 77.277344 C 180.292969 74.5 183.183594 73.195312 185.804688 72.625 L 183.996094 76.335938 C 169.457031 85.8125 166.703125 106.339844 166.703125 106.339844 " fill-opacity="1" fill-rule="nonzero"/><path fill="#4dc2b2" d="M 132.324219 139.375 L 132.324219 234.949219 L 199.183594 256.691406 L 199.183594 157.171875 L 132.324219 139.375 " fill-opacity="1" fill-rule="nonzero"/><path fill="#d6d5d5" d="M 144.835938 142.707031 L 132.324219 139.375 L 140.34375 141.507812 L 144.835938 142.703125 C 144.839844 142.703125 144.839844 142.703125 144.839844 142.703125 L 136.125 140.386719 L 144.835938 142.707031 C 144.839844 142.703125 144.839844 142.703125 144.839844 142.703125 " fill-opacity="1" fill-rule="nonzero"/><path fill="#40a195" d="M 197.65625 256.195312 L 132.324219 234.949219 L 132.324219 139.375 L 144.835938 142.707031 C 138.636719 164.542969 142.777344 189.171875 154.488281 208.5625 C 164.671875 225.4375 180.640625 232.582031 197.65625 232.945312 L 197.65625 256.195312 " fill-opacity="1" fill-rule="nonzero"/><path fill="#59c6b7" d="M 191.617188 216.8125 C 189.300781 216.8125 186.96875 216.652344 184.628906 216.292969 C 173.394531 214.558594 164.238281 206.40625 158.546875 196.988281 C 150.082031 182.96875 147.660156 164.707031 152.21875 148.78125 L 192.328125 159.460938 L 192.328125 216.808594 C 192.089844 216.8125 191.855469 216.8125 191.617188 216.8125 " fill-opacity="1" fill-rule="nonzero"/><path fill="#eacc89" d="M 199.183594 157.171875 L 136.125 140.386719 L 199.183594 157.171875 " fill-opacity="1" fill-rule="nonzero"/><path fill="#eacc89" d="M 137.113281 140.648438 L 148.460938 136.464844 L 209.421875 151.675781 L 209.421875 157.171875 L 199.183594 157.171875 L 137.113281 140.648438 " fill-opacity="1" fill-rule="nonzero"/><path fill="#4dc2b2" d="M 286.515625 139.375 L 286.515625 234.949219 L 219.65625 256.691406 L 219.65625 157.171875 L 286.515625 139.375 " fill-opacity="1" fill-rule="nonzero"/><path fill="#d6d5d5" d="M 274.007812 142.703125 L 286.515625 139.375 L 274.007812 142.707031 " fill-opacity="1" fill-rule="nonzero"/><path fill="#40a195" d="M 221.472656 256.101562 L 221.472656 232.9375 C 238.382812 232.5 254.226562 225.339844 264.359375 208.5625 C 276.066406 189.171875 280.207031 164.542969 274.007812 142.703125 L 286.515625 139.375 L 286.515625 234.949219 L 221.472656 256.101562 " fill-opacity="1" fill-rule="nonzero"/><path fill="#59c6b7" d="M 227.226562 216.8125 C 226.988281 216.8125 226.753906 216.8125 226.515625 216.808594 L 226.515625 159.460938 L 266.628906 148.78125 C 271.179688 164.707031 268.761719 182.96875 260.296875 196.988281 C 254.609375 206.40625 245.449219 214.558594 234.214844 216.292969 C 231.875 216.652344 229.546875 216.8125 227.226562 216.8125 " fill-opacity="1" fill-rule="nonzero"/><path fill="#eacc89" d="M 219.65625 157.171875 L 282.71875 140.386719 " fill-opacity="1" fill-rule="nonzero"/><path fill="#eacc89" d="M 281.730469 140.648438 L 270.382812 136.464844 L 209.421875 151.675781 L 209.421875 157.171875 L 219.65625 157.171875 L 281.730469 140.648438 " fill-opacity="1" fill-rule="nonzero"/><g clip-path="url(#id2)"><path fill="#3b9388" d="M 197.65625 257.359375 L 221.472656 257.359375 L 221.472656 157.171875 L 197.65625 157.171875 Z M 197.65625 257.359375 " fill-opacity="1" fill-rule="nonzero"/><path fill="#317b73" d="M 221.472656 257.359375 L 197.65625 257.359375 L 197.65625 157.171875 L 203.210938 157.171875 C 202.136719 166.628906 202.628906 176.683594 202.769531 185.53125 C 203.003906 200.421875 206.941406 215.226562 212.613281 228.90625 C 214.519531 233.496094 217.625 237.863281 221.472656 241.570312 L 221.472656 257.359375 " fill-opacity="1" fill-rule="nonzero"/></g><g clip-path="url(#id3)"><path fill="#fab996" d="M 295.0625 200.839844 C 294.195312 212.394531 281.945312 210.210938 281.945312 210.210938 C 281.945312 210.210938 270.707031 208.765625 261.890625 204.136719 C 261.890625 204.136719 257.921875 202.988281 261.59375 201.160156 C 261.59375 201.160156 270.042969 204.832031 272.300781 202.996094 C 272.300781 202.996094 261.222656 199.566406 257.664062 196 C 254.753906 193.082031 259.308594 192.6875 259.308594 192.6875 C 267.589844 197.519531 274.550781 199.207031 274.550781 199.207031 C 265.085938 194.875 261.003906 189.792969 261.003906 189.792969 C 259.007812 186.6875 262.539062 187.292969 262.539062 187.292969 C 272.78125 193.476562 276.359375 196.066406 276.359375 196.066406 C 268.300781 190.667969 266.046875 185.160156 266.046875 185.160156 C 264.878906 182 268.308594 182.789062 268.308594 182.789062 C 283.523438 199.738281 286.476562 191.585938 286.476562 191.585938 L 286.5 184.710938 C 286.5 184.710938 295.574219 194.035156 295.0625 200.839844 " fill-opacity="1" fill-rule="nonzero"/></g><g clip-path="url(#id4)"><path fill="#fab996" d="M 123.925781 200.839844 C 124.789062 212.394531 137.039062 210.210938 137.039062 210.210938 C 137.039062 210.210938 148.277344 208.765625 157.09375 204.136719 C 157.09375 204.136719 161.0625 202.988281 157.390625 201.160156 C 157.390625 201.160156 148.941406 204.832031 146.683594 202.996094 C 146.683594 202.996094 157.761719 199.566406 161.320312 196 C 164.234375 193.082031 159.675781 192.6875 159.675781 192.6875 C 151.394531 197.519531 144.433594 199.207031 144.433594 199.207031 C 153.898438 194.875 157.980469 189.792969 157.980469 189.792969 C 159.980469 186.6875 156.445312 187.292969 156.445312 187.292969 C 146.207031 193.476562 142.621094 196.066406 142.621094 196.066406 C 150.6875 190.667969 152.941406 185.160156 152.941406 185.160156 C 154.101562 182 150.675781 182.789062 150.675781 182.789062 C 135.464844 199.738281 132.324219 191.75 132.324219 191.75 L 132.347656 185.21875 C 132.347656 185.21875 123.410156 194.035156 123.925781 200.839844 " fill-opacity="1" fill-rule="nonzero"/></g></svg>