<svg xmlns="http://www.w3.org/2000/svg" xmlns:xlink="http://www.w3.org/1999/xlink" width="559" zoomAndPan="magnify" viewBox="0 0 419.25 297.749993" height="396" preserveAspectRatio="xMidYMid meet" version="1.0"><path fill="#ffffff" d="M 339.558594 116.027344 C 337.820312 109.605469 331.261719 105.753906 324.777344 107.492188 C 318.351562 109.230469 314.519531 115.835938 316.253906 122.285156 C 326.199219 159.507812 315.472656 199.511719 288.203125 226.714844 C 251.269531 263.601562 194.117188 268.226562 152.082031 240.648438 L 176.144531 233.910156 C 182.554688 232.136719 186.304688 225.445312 184.519531 219.046875 C 182.726562 212.609375 176.09375 208.878906 169.671875 210.65625 L 123.210938 223.648438 C 122.933594 223.71875 122.71875 223.902344 122.453125 223.972656 C 122.03125 224.128906 121.65625 224.3125 121.257812 224.515625 C 120.257812 224.988281 119.378906 225.578125 118.558594 226.292969 C 118.351562 226.472656 118.101562 226.546875 117.90625 226.726562 C 117.8125 226.8125 117.785156 226.945312 117.703125 227.027344 C 116.726562 228.066406 115.929688 229.238281 115.375 230.566406 C 115.253906 230.84375 115.21875 231.15625 115.121094 231.460938 C 114.871094 232.21875 114.578125 232.96875 114.472656 233.777344 L 108.636719 281.578125 C 107.828125 288.195312 112.53125 294.222656 119.136719 295.042969 C 119.632812 295.113281 120.125 295.152344 120.621094 295.152344 C 126.621094 295.152344 131.816406 290.660156 132.566406 284.550781 L 135.734375 258.601562 C 158.433594 274.457031 184.96875 282.496094 211.570312 282.496094 C 245.480469 282.496094 279.390625 269.613281 305.214844 243.824219 C 338.570312 210.523438 351.730469 161.5625 339.558594 116.027344 Z M 339.558594 116.027344 " fill-opacity="1" fill-rule="nonzero"/><path fill="#ffffff" d="M 134.988281 73.816406 C 171.914062 36.941406 229.074219 32.304688 271.109375 59.882812 L 247.050781 66.621094 C 240.636719 68.40625 236.886719 75.074219 238.683594 81.496094 C 240.191406 86.820312 245.011719 90.324219 250.292969 90.324219 C 251.375 90.324219 252.472656 90.175781 253.558594 89.863281 L 300.015625 76.882812 C 300.269531 76.800781 300.511719 76.628906 300.777344 76.535156 C 301.1875 76.390625 301.546875 76.207031 301.957031 76.015625 C 302.972656 75.519531 303.863281 74.929688 304.683594 74.214844 C 304.886719 74.023438 305.140625 73.960938 305.332031 73.769531 C 305.429688 73.683594 305.453125 73.550781 305.550781 73.464844 C 306.527344 72.441406 307.3125 71.257812 307.878906 69.941406 C 307.996094 69.652344 308.035156 69.347656 308.128906 69.046875 C 308.382812 68.285156 308.671875 67.539062 308.78125 66.71875 L 314.628906 18.902344 C 315.433594 12.285156 310.734375 6.273438 304.128906 5.453125 C 297.644531 4.691406 291.507812 9.351562 290.699219 15.96875 L 287.515625 41.941406 C 235.851562 5.875 164.078125 10.703125 118.003906 56.695312 C 84.660156 89.996094 71.507812 138.957031 83.695312 184.488281 C 85.140625 189.875 90 193.449219 95.328125 193.449219 C 96.351562 193.449219 97.402344 193.304688 98.449219 193.027344 C 104.875 191.300781 108.699219 184.695312 106.972656 178.234375 C 96.992188 141.035156 107.722656 101.019531 134.988281 73.816406 Z M 134.988281 73.816406 " fill-opacity="1" fill-rule="nonzero"/></svg>