<svg xmlns="http://www.w3.org/2000/svg" xmlns:xlink="http://www.w3.org/1999/xlink" width="559" zoomAndPan="magnify" viewBox="0 0 419.25 297.749993" height="396" preserveAspectRatio="xMidYMid meet" version="1.0"><defs><clipPath id="id1"><path d="M 0 0.140625 L 418.5 0.140625 L 418.5 297.359375 L 0 297.359375 Z M 0 0.140625 " clip-rule="nonzero"/></clipPath></defs><g clip-path="url(#id1)"><path fill="#ffffff" d="M 0 0.140625 L 419.25 0.140625 L 419.25 304.097656 L 0 304.097656 Z M 0 0.140625 " fill-opacity="1" fill-rule="nonzero"/><path fill="#b9ab92" d="M 0 0.140625 L 418.5 0.140625 L 418.5 297.359375 L 0 297.359375 Z M 0 0.140625 " fill-opacity="1" fill-rule="nonzero"/><path fill="#ffffff" d="M 0 0.140625 L 418.5 0.140625 L 418.5 297.359375 L 0 297.359375 Z M 0 0.140625 " fill-opacity="1" fill-rule="nonzero"/><path fill="#b9ab92" d="M 0 0.140625 L 418.5 0.140625 L 418.5 297.359375 L 0 297.359375 Z M 0 0.140625 " fill-opacity="1" fill-rule="nonzero"/></g><path fill="#fabb18" d="M 174.59375 214.128906 C 171.917969 216.632812 160.734375 226.386719 164.671875 222.027344 C 153.871094 231.078125 161.394531 223.097656 152.378906 229.9375 C 143.707031 236.464844 142.808594 235.691406 139.246094 237.242188 C 127.304688 246.421875 137.742188 235.144531 126.820312 243.328125 C 124.503906 244.558594 129.191406 239.425781 124.601562 242.761719 C 121.542969 244.699219 118.367188 246.769531 114.28125 249.707031 C 107.519531 254.300781 108.160156 252.324219 110.21875 249.351562 C 112.101562 246.535156 110.308594 247.664062 114.53125 243.855469 C 118.636719 240.144531 125.464844 233.832031 122.941406 235.917969 C 131.664062 227.5625 128.734375 229.367188 127.8125 229.039062 C 138.507812 218.148438 122.191406 231.515625 127.042969 225.453125 C 130.617188 220.550781 143.507812 207.007812 132.699219 214.980469 C 135.460938 210.605469 124.070312 219.0625 128.5 213.21875 C 128.714844 212.121094 130.210938 209.878906 131.515625 207.84375 C 130.746094 207.699219 137.921875 200.371094 136.84375 200.601562 C 138.167969 198.652344 146.882812 190.03125 143.6875 192.320312 C 141.835938 193.386719 150.671875 184.800781 145.289062 189.234375 C 149.085938 184.871094 146.871094 186.328125 147.5625 185.628906 C 159.867188 174.34375 156.613281 177.550781 159.378906 175.570312 C 162.726562 173.074219 164.507812 172.285156 167.753906 170.421875 C 169.890625 170.65625 179.226562 165.359375 183.710938 165.152344 C 188.195312 164.945312 191.777344 166.230469 194.265625 168.851562 C 196.753906 171.476562 197.832031 175.105469 197.355469 179.539062 C 196.875 183.96875 194.839844 189.199219 191.097656 195.035156 C 188.980469 199.386719 180.539062 208.539062 174.59375 214.128906 " fill-opacity="1" fill-rule="nonzero"/><path fill="#ee841e" d="M 184.648438 194.933594 C 184.042969 195.617188 180.257812 198.292969 172.578125 204.34375 C 167.414062 208.09375 162.847656 211.132812 163.105469 210.332031 C 162.699219 210.136719 158.503906 213.933594 150.046875 222.871094 C 151.488281 222.042969 149.347656 223.8125 141.132812 230.734375 C 137.933594 233.367188 131.957031 238.4375 132.757812 237.28125 C 131.488281 238.007812 130.527344 238.402344 131.632812 236.890625 C 136.4375 231.515625 126.679688 239.300781 123.0625 241.710938 C 124.4375 239.574219 113.957031 248.4375 124.707031 238.484375 C 130.394531 233.109375 130.695312 232.578125 135.3125 228.078125 C 142.929688 220.851562 136.507812 226.359375 139.855469 222.929688 C 139.460938 222.527344 140.054688 221.070312 139.847656 220.242188 C 132.167969 226.203125 148.476562 210.238281 142.578125 214.414062 C 139.230469 216.269531 137.785156 216.335938 145.125 208.390625 C 153.261719 200.359375 149.515625 203.128906 151.835938 200.386719 C 156.828125 195.207031 157.425781 194.03125 151.933594 198.40625 C 137.980469 209.847656 144.96875 202.273438 149.367188 197.132812 C 152.398438 193.234375 152.585938 192 153.835938 189.925781 C 158.300781 184.925781 164.777344 178.21875 161.367188 180.667969 C 158.0625 183.195312 170.082031 172.160156 168.316406 173.976562 C 168.351562 174.152344 174.992188 168.625 174.96875 169.421875 C 179.253906 167.054688 183.207031 165.992188 186.519531 165.976562 C 189.835938 165.964844 192.515625 167.007812 194.265625 168.859375 C 196.894531 171.628906 198.351562 174.539062 197.21875 178.5625 C 196.089844 182.582031 192.371094 187.71875 184.648438 194.933594 " fill-opacity="1" fill-rule="nonzero"/><path fill="#fabb18" d="M 156.984375 172.523438 C 155.753906 173.449219 150.953125 177.839844 151.089844 177.898438 C 150.589844 178.53125 152.9375 176.734375 147.808594 181.847656 C 147.300781 182.753906 143.867188 186.433594 143.859375 187.046875 C 141.324219 189.964844 138.507812 193.1875 139.476562 192.980469 C 133.609375 198.984375 135.457031 197.976562 135.4375 198.621094 C 138.050781 196.867188 139.011719 196.570312 135.296875 200.433594 C 135.230469 200.976562 137.101562 200.203125 138.601562 198.722656 C 141.820312 195.675781 138.207031 199.09375 140.574219 197.277344 C 139.644531 198.449219 143.8125 195.179688 146.167969 193.699219 C 145.589844 194.882812 146.550781 194.804688 148.589844 193.824219 C 149.289062 194.0625 152.730469 191.882812 153.082031 192.535156 C 151.828125 194.160156 152.015625 194.476562 150.683594 196.179688 C 148.496094 198.652344 152.644531 195.367188 153.695312 194.886719 C 153.882812 195.1875 162.0625 188.210938 160.695312 189.902344 C 161.003906 190.070312 165.933594 186.019531 160.078125 191.75 C 159.207031 193.355469 163.519531 190.148438 163.730469 190.515625 C 165.761719 189.230469 167.625 187.933594 167.90625 187.867188 C 172.847656 183.617188 171.441406 184.976562 172.910156 183.554688 C 174.691406 181.84375 175.597656 180.777344 176.628906 179.460938 C 180.757812 174.183594 181.585938 169.707031 179.574219 166.882812 C 178.570312 165.46875 176.980469 164.652344 174.894531 164.507812 C 172.800781 164.367188 170.515625 164.625 167.199219 166.210938 C 166.070312 166.519531 162.339844 169.292969 162.375 168.753906 C 161.367188 169.167969 158.742188 171.171875 156.984375 172.523438 " fill-opacity="1" fill-rule="nonzero"/><path fill="#f46c25" d="M 166.808594 168.222656 C 164.996094 169.753906 165.410156 169.324219 163.546875 171.109375 C 163.828125 170.882812 162.929688 171.847656 162.078125 172.785156 C 163.011719 172.1875 161.011719 174.460938 158.988281 176.453125 C 156.746094 178.609375 160.429688 175.117188 157.269531 177.933594 C 157.371094 177.683594 155.75 178.929688 152.808594 181.238281 C 151.769531 181.976562 148.789062 184.660156 146.984375 186.335938 C 144.1875 188.9375 139.5 193.410156 141.945312 191.242188 C 142.394531 190.949219 139.101562 194.230469 145.738281 188.214844 C 142.214844 191.855469 142.699219 191.789062 142.09375 192.71875 C 142.605469 192.589844 142.347656 193.144531 144.726562 191.078125 C 145.601562 190.460938 142.703125 193.398438 142.742188 193.59375 C 140.597656 195.835938 142.410156 194.375 145.84375 191.398438 C 147.449219 190.140625 148.484375 189.429688 151.011719 187.328125 C 151.945312 186.71875 153.277344 185.746094 153.5625 185.773438 C 150.492188 189.230469 153.632812 186.886719 155.21875 186.019531 C 156.269531 185.339844 158.128906 183.910156 159.144531 183.273438 C 159.777344 183 162.894531 180.386719 159.109375 184.269531 C 161.945312 182.25 161.9375 182.90625 160.839844 184.578125 C 160.078125 185.617188 161.613281 184.492188 160.589844 185.769531 C 159.472656 187.136719 164.339844 182.871094 164.34375 183.175781 C 167.117188 181.183594 169.738281 179.316406 167.515625 181.96875 C 170.367188 179.84375 167.433594 183.132812 172.242188 179.097656 C 170.414062 181.171875 174.492188 177.519531 175.542969 176.554688 C 176.476562 175.699219 177.246094 174.839844 177.867188 174 C 180.355469 170.628906 180.445312 167.511719 178.929688 165.777344 C 177.792969 164.472656 176.546875 163.664062 174.691406 163.890625 C 172.839844 164.117188 170.550781 165.210938 166.808594 168.222656 " fill-opacity="1" fill-rule="nonzero"/><path fill="#f7dc19" d="M 188.53125 206.480469 C 184.523438 210.34375 182.742188 211.574219 182.015625 211.472656 C 182.449219 210.664062 178.066406 214.390625 178.105469 213.816406 C 177.246094 214.109375 174.859375 215.804688 174.398438 215.617188 C 170.859375 218.382812 167.828125 220.632812 167.707031 220.074219 C 164.375 222.597656 165.769531 220.570312 164.339844 221.265625 C 159.511719 224.542969 165.355469 217.621094 160.503906 221.171875 C 158.5 222.546875 156.101562 224.351562 154.933594 225.050781 C 155.925781 223.683594 158.28125 220.863281 159.421875 219.519531 C 163.707031 215.160156 159.890625 218.46875 164.257812 213.851562 C 162.449219 215.160156 164.03125 213.140625 166.992188 209.734375 C 172.445312 203.382812 166.238281 207.992188 168.632812 204.3125 C 164.871094 207.226562 166.695312 204.777344 165.535156 205.199219 C 168.152344 201.996094 165.140625 204.203125 168.402344 200.4375 C 169.472656 198.121094 172.152344 194.398438 169.917969 195.710938 C 168.652344 196.089844 171.503906 192.839844 173.40625 191 C 177.761719 186.785156 182.003906 183.429688 182.519531 184.210938 C 185.339844 182.777344 187.910156 182.152344 190.125 182.238281 C 192.339844 182.324219 194.195312 183.125 195.585938 184.550781 C 196.28125 185.261719 196.820312 186.085938 197.183594 187.007812 C 198.707031 186.820312 196.347656 190.289062 197.757812 190.050781 C 197.484375 191.4375 196.675781 193.234375 197.246094 193.601562 C 194.5 197.148438 197.390625 195.179688 195.578125 197.582031 C 193.5625 200.175781 197.285156 197.136719 192.410156 202.175781 C 193.925781 201.085938 193.867188 201.34375 188.53125 206.480469 " fill-opacity="1" fill-rule="nonzero"/><path fill="#ee841e" d="M 192.371094 197.257812 C 191.253906 198.347656 192.722656 196.6875 188.867188 200.019531 C 188.03125 200.457031 189.269531 198.796875 184.789062 202.683594 C 184.179688 202.855469 187.050781 199.742188 182.9375 203.558594 C 184.683594 201.816406 186.746094 199.832031 180.179688 206.199219 C 177.480469 208.851562 175.941406 210.472656 176.863281 209.832031 C 175.488281 211.410156 172.582031 214.0625 174.113281 212.257812 C 170.175781 215.695312 176.761719 208.835938 168.566406 216.101562 C 167.753906 216.683594 161.953125 222.042969 162.867188 220.96875 C 163.691406 219.976562 158.898438 224.375 155.4375 227.503906 C 154.402344 228.117188 157.453125 224.839844 156.625 225.367188 C 159.035156 222.917969 160.453125 221.445312 161.457031 220.394531 C 161.042969 220.703125 162.539062 219.210938 165.222656 216.609375 C 170.386719 211.527344 167.550781 214.070312 170.074219 211.414062 C 171.222656 210.089844 168.550781 212.382812 170.019531 210.660156 C 168.539062 211.46875 166.09375 213.050781 172.582031 205.984375 C 174.609375 203.199219 174.039062 202.820312 173.773438 202.136719 C 165.03125 209.582031 177.53125 196.636719 174.316406 198.816406 C 178.363281 194.027344 175.390625 196.03125 176.050781 194.648438 C 178.253906 191.804688 175.894531 193.4375 179.960938 189.09375 C 181.78125 186.972656 183.328125 185.589844 184.769531 184.664062 C 186.207031 183.738281 187.539062 183.269531 188.929688 182.964844 C 191.714844 182.363281 194.113281 183.042969 195.585938 184.550781 C 196.324219 185.300781 196.914062 186.058594 197.28125 186.875 C 196.535156 188.757812 198.335938 188.046875 197.632812 189.554688 C 198.847656 189.222656 196.832031 191.8125 196.160156 192.910156 C 195.828125 193.679688 195.332031 194.398438 192.371094 197.257812 " fill-opacity="1" fill-rule="nonzero"/><path fill="#f1511b" d="M 134.574219 179.984375 C 134.574219 179.984375 132.007812 184.035156 128.507812 179.617188 C 125.003906 175.195312 135.050781 150.941406 142.230469 143.363281 C 158.890625 125.757812 179.496094 125.851562 202.050781 139.753906 L 179.554688 163.523438 C 177.261719 163.757812 174.703125 163.710938 171.941406 163.664062 C 161.164062 163.480469 147.34375 163.296875 134.574219 179.984375 " fill-opacity="1" fill-rule="nonzero"/><path fill="#f68712" d="M 142.851562 146.441406 C 143.347656 145.808594 143.820312 145.238281 144.292969 144.746094 C 152.699219 135.863281 162.15625 131.699219 172.378906 131.699219 C 175.46875 131.699219 178.632812 132.078125 181.855469 132.824219 C 180.878906 134.3125 179.933594 135.796875 179.019531 137.269531 C 175.410156 136.34375 171.882812 135.871094 168.441406 135.871094 C 159.21875 135.871094 150.625 139.261719 142.851562 146.441406 " fill-opacity="1" fill-rule="nonzero"/><path fill="#ca4316" d="M 132.183594 177.878906 C 148.726562 156.3125 166.761719 161.730469 178.390625 160.59375 L 182.515625 160.394531 L 179.554688 163.523438 C 168.304688 164.679688 150.613281 159.023438 134.574219 179.984375 C 134.574219 179.984375 132.007812 184.035156 128.507812 179.617188 L 128.441406 179.511719 C 130.6875 180.214844 132.183594 177.878906 132.183594 177.878906 " fill-opacity="1" fill-rule="nonzero"/><path fill="#f1511b" d="M 182.453125 225.320312 C 182.453125 225.320312 178.554688 228.105469 183.15625 231.363281 C 187.757812 234.617188 211.425781 223.257812 218.601562 215.675781 C 235.261719 198.078125 234.042969 177.503906 218.933594 155.738281 L 196.429688 179.503906 C 195.890625 190.800781 202.503906 208.160156 182.453125 225.320312 " fill-opacity="1" fill-rule="nonzero"/><path fill="#f68712" d="M 215.640625 215.363281 C 224.949219 204.117188 226.960938 191.6875 222.761719 178.546875 C 224.183594 177.550781 225.609375 176.523438 227.042969 175.460938 C 231.101562 189.234375 228.261719 202.214844 217.261719 213.835938 C 216.789062 214.332031 216.246094 214.839844 215.640625 215.363281 " fill-opacity="1" fill-rule="nonzero"/><path fill="#ca4316" d="M 184.6875 227.589844 C 205.308594 209.894531 198.917969 192.179688 199.417969 180.503906 L 199.394531 176.375 L 196.429688 179.503906 C 195.890625 190.800781 202.503906 208.160156 182.453125 225.320312 C 182.453125 225.320312 178.554688 228.105469 183.15625 231.363281 L 183.261719 231.421875 C 182.4375 229.214844 184.6875 227.589844 184.6875 227.589844 " fill-opacity="1" fill-rule="nonzero"/><path fill="#b2e5d8" d="M 165.660156 166.09375 C 169.597656 148.910156 188.113281 120.835938 207.652344 100.191406 C 239.523438 66.527344 283.269531 42.941406 297.207031 56.144531 C 311.148438 69.335938 289.996094 114.316406 258.125 147.980469 C 238.582031 168.621094 211.5625 188.652344 194.625 193.527344 L 165.660156 166.09375 " fill-opacity="1" fill-rule="nonzero"/><path fill="#255f7d" d="M 203.523438 190.042969 C 200.347656 191.554688 197.355469 192.738281 194.625 193.527344 C 194.625 193.527344 185.875 192.660156 175.445312 183.253906 C 165.015625 173.851562 165.660156 166.09375 165.660156 166.09375 C 166.289062 163.328125 167.3125 160.273438 168.640625 157.019531 C 168.640625 157.019531 172.875 168.253906 182.515625 176.375 C 192.15625 184.5 203.523438 190.042969 203.523438 190.042969 " fill-opacity="1" fill-rule="nonzero"/><path fill="#eea427" d="M 256.007812 62.242188 C 273.988281 52.496094 289.804688 49.128906 297.207031 56.144531 C 304.613281 63.15625 302.113281 79.128906 293.367188 97.613281 C 293.367188 97.613281 282.726562 92.296875 271.867188 82.015625 C 261.003906 71.726562 256.007812 62.242188 256.007812 62.242188 " fill-opacity="1" fill-rule="nonzero"/><path fill="#f1511b" d="M 277.082031 53.640625 C 285.800781 51.507812 292.914062 52.078125 297.207031 56.144531 C 301.496094 60.199219 302.457031 67.277344 300.8125 76.105469 C 300.8125 76.105469 293.171875 72.773438 286.238281 66.207031 C 279.300781 59.640625 277.082031 53.640625 277.082031 53.640625 " fill-opacity="1" fill-rule="nonzero"/><path fill="#f1511b" d="M 147.367188 211.589844 C 147.367188 211.589844 144.867188 214.136719 147.457031 216.589844 C 150.046875 219.046875 152.457031 216.414062 152.457031 216.414062 L 218.234375 158.316406 C 223.472656 152.785156 218.054688 147.984375 215.078125 145.160156 C 212.097656 142.34375 207.007812 137.195312 201.773438 142.726562 L 147.367188 211.589844 " fill-opacity="1" fill-rule="nonzero"/><path fill="#f68712" d="M 219.117188 155.621094 C 217.808594 152.546875 214.738281 149.742188 212.636719 147.746094 C 210.523438 145.746094 207.554688 142.835938 204.414062 141.691406 C 204.945312 141.53125 205.476562 141.457031 205.992188 141.457031 C 209.242188 141.457031 212.144531 144.335938 214.105469 146.191406 C 216.371094 148.34375 220.082031 151.683594 219.117188 155.621094 " fill-opacity="1" fill-rule="nonzero"/><path fill="#f1511b" d="M 236.066406 121.144531 C 243.042969 127.71875 254.816406 126.542969 262.363281 118.53125 C 269.914062 110.519531 270.378906 98.695312 263.398438 92.125 C 256.425781 85.546875 244.652344 86.71875 237.101562 94.734375 C 229.554688 102.746094 229.089844 114.578125 236.066406 121.144531 " fill-opacity="1" fill-rule="nonzero"/><path fill="#2f3d3f" d="M 240.296875 116.652344 C 245.113281 121.1875 253.242188 120.378906 258.449219 114.847656 C 263.660156 109.3125 263.984375 101.152344 259.167969 96.617188 C 254.351562 92.082031 246.226562 92.890625 241.015625 98.417969 C 235.808594 103.953125 235.484375 112.113281 240.296875 116.652344 " fill-opacity="1" fill-rule="nonzero"/><path fill="#37474a" d="M 241.984375 98.464844 C 242.765625 97.636719 243.617188 96.9375 244.511719 96.339844 C 244.339844 96.507812 244.15625 96.667969 243.988281 96.84375 C 239.132812 102.003906 239.082031 109.84375 243.875 114.359375 C 246.335938 116.675781 249.59375 117.664062 252.835938 117.378906 C 248.785156 118.890625 244.34375 118.3125 241.3125 115.457031 C 236.828125 111.226562 237.125 103.625 241.984375 98.464844 " fill-opacity="1" fill-rule="nonzero"/><path fill="#ca4316" d="M 238.121094 98.007812 C 238.707031 98.566406 239.707031 98.464844 240.34375 97.789062 C 240.980469 97.109375 241.023438 96.113281 240.429688 95.554688 C 239.84375 95 238.847656 95.097656 238.210938 95.777344 C 237.570312 96.453125 237.527344 97.453125 238.121094 98.007812 " fill-opacity="1" fill-rule="nonzero"/><path fill="#ca4316" d="M 259.035156 117.710938 C 259.625 118.265625 260.621094 118.167969 261.257812 117.488281 C 261.898438 116.808594 261.9375 115.8125 261.34375 115.257812 C 260.757812 114.703125 259.761719 114.800781 259.121094 115.476562 C 258.484375 116.152344 258.445312 117.15625 259.035156 117.710938 " fill-opacity="1" fill-rule="nonzero"/><path fill="#ca4316" d="M 259.980469 93.613281 C 259.34375 94.289062 259.300781 95.292969 259.890625 95.847656 C 260.480469 96.402344 261.476562 96.304688 262.117188 95.628906 C 262.757812 94.949219 262.792969 93.949219 262.203125 93.390625 C 261.617188 92.835938 260.621094 92.933594 259.980469 93.613281 " fill-opacity="1" fill-rule="nonzero"/><path fill="#ca4316" d="M 237.347656 117.644531 C 236.714844 118.316406 236.675781 119.316406 237.261719 119.871094 C 237.851562 120.429688 238.847656 120.328125 239.484375 119.65625 C 240.125 118.976562 240.164062 117.976562 239.570312 117.421875 C 238.980469 116.863281 237.992188 116.964844 237.347656 117.644531 " fill-opacity="1" fill-rule="nonzero"/><path fill="#ca4316" d="M 248.769531 91.328125 C 248.738281 92.195312 249.414062 92.835938 250.277344 92.753906 C 251.144531 92.664062 251.878906 91.890625 251.914062 91.015625 C 251.949219 90.144531 251.269531 89.507812 250.402344 89.59375 C 249.53125 89.679688 248.800781 90.457031 248.769531 91.328125 " fill-opacity="1" fill-rule="nonzero"/><path fill="#ca4316" d="M 247.554688 122.25 C 247.519531 123.121094 248.199219 123.761719 249.066406 123.671875 C 249.929688 123.585938 250.667969 122.808594 250.699219 121.9375 C 250.734375 121.0625 250.054688 120.429688 249.191406 120.511719 C 248.316406 120.597656 247.589844 121.375 247.554688 122.25 " fill-opacity="1" fill-rule="nonzero"/><path fill="#ca4316" d="M 265.191406 103.527344 C 264.324219 103.609375 263.589844 104.390625 263.554688 105.261719 C 263.523438 106.128906 264.199219 106.769531 265.066406 106.679688 C 265.9375 106.597656 266.667969 105.820312 266.703125 104.945312 C 266.738281 104.074219 266.058594 103.4375 265.191406 103.527344 " fill-opacity="1" fill-rule="nonzero"/><path fill="#ca4316" d="M 234.402344 106.582031 C 233.53125 106.671875 232.800781 107.449219 232.765625 108.320312 C 232.730469 109.1875 233.410156 109.824219 234.277344 109.742188 C 235.148438 109.65625 235.878906 108.878906 235.910156 108.007812 C 235.945312 107.132812 235.265625 106.5 234.402344 106.582031 " fill-opacity="1" fill-rule="nonzero"/><path fill="#255f7d" d="M 206.210938 101.789062 C 207.59375 111.621094 214.800781 122.238281 224.492188 131.414062 C 234.179688 140.589844 247.550781 146.945312 256.605469 149.511719 C 255.601562 150.617188 253.28125 153.097656 252.238281 154.199219 C 249.9375 156.632812 247.167969 158.652344 244.683594 161.039062 C 234.507812 158.632812 224.417969 153.132812 214.796875 144.027344 C 205.175781 134.914062 198.414062 125.042969 195.320312 114.359375 C 197.578125 111.753906 199.460938 108.84375 201.761719 106.410156 C 202.808594 105.304688 205.15625 102.855469 206.210938 101.789062 " fill-opacity="1" fill-rule="nonzero"/><path fill="#ca4316" d="M 154.246094 207.738281 C 154.246094 207.738281 152.601562 209.449219 153.457031 210.257812 C 154.308594 211.0625 155.921875 209.332031 155.921875 209.332031 L 197.710938 168.945312 C 201.1875 165.269531 199.347656 163.746094 198.367188 162.8125 C 197.382812 161.890625 195.761719 160.132812 192.285156 163.808594 L 154.246094 207.738281 " fill-opacity="1" fill-rule="nonzero"/><path fill="#d5f1ea" d="M 185.691406 132.757812 C 185.691406 132.757812 189.628906 126.171875 196.265625 117.277344 C 196.675781 118.433594 197.132812 119.578125 197.628906 120.710938 C 189.933594 128.050781 185.691406 132.757812 185.691406 132.757812 M 208.796875 110.480469 C 207.882812 108.414062 207.167969 106.351562 206.6875 104.320312 C 215.136719 94.613281 225.554688 84.542969 236.84375 77.890625 C 246.332031 72.304688 252.976562 68.394531 258.023438 65.578125 C 259.203125 67.386719 260.90625 69.820312 263.164062 72.613281 C 250.644531 79.449219 236.648438 87.816406 225.960938 96.203125 C 219.574219 101.222656 213.820312 106.058594 208.796875 110.480469 " fill-opacity="1" fill-rule="nonzero"/><path fill="#f6c852" d="M 263.164062 72.613281 C 260.90625 69.820312 259.203125 67.386719 258.023438 65.578125 C 268.050781 59.976562 271.757812 58.675781 278.789062 57.015625 C 279.675781 58.515625 280.949219 60.402344 282.710938 62.480469 C 277.335938 65.132812 270.503906 68.609375 263.164062 72.613281 " fill-opacity="1" fill-rule="nonzero"/><path fill="#f68712" d="M 282.710938 62.480469 C 280.949219 60.402344 279.675781 58.515625 278.789062 57.015625 C 282.316406 56.1875 285.199219 55.90625 287.476562 55.90625 C 292.03125 55.90625 294.164062 57.015625 294.164062 57.015625 C 294.164062 57.015625 289.65625 59.058594 282.710938 62.480469 " fill-opacity="1" fill-rule="nonzero"/><path fill="#4b89a9" d="M 197.628906 120.710938 C 197.132812 119.578125 196.675781 118.433594 196.265625 117.277344 C 199.234375 113.292969 202.746094 108.847656 206.6875 104.320312 C 207.167969 106.351562 207.882812 108.414062 208.796875 110.480469 C 204.527344 114.238281 200.789062 117.695312 197.628906 120.710938 " fill-opacity="1" fill-rule="nonzero"/></svg>