<svg xmlns="http://www.w3.org/2000/svg" xmlns:xlink="http://www.w3.org/1999/xlink" width="559" zoomAndPan="magnify" viewBox="0 0 419.25 297.749993" height="396" preserveAspectRatio="xMidYMid meet" version="1.0"><defs><clipPath id="id1"><path d="M 84.335938 0.140625 L 334.386719 0.140625 L 334.386719 297.359375 L 84.335938 297.359375 Z M 84.335938 0.140625 " clip-rule="nonzero"/></clipPath></defs><g clip-path="url(#id1)"><path fill="#545454" d="M 265.398438 71.503906 L 194.078125 0.140625 L 194.078125 48.292969 C 132.238281 55.976562 84.351562 108.675781 84.351562 172.667969 C 84.351562 236.660156 132.238281 289.359375 194.078125 297.046875 L 194.078125 265.363281 C 149.636719 257.914062 115.703125 219.25 115.703125 172.667969 C 115.703125 126.085938 149.636719 87.425781 194.078125 79.972656 L 194.078125 141.300781 Z M 334.058594 156.984375 C 331.390625 135.183594 322.691406 114.167969 308.585938 95.972656 L 286.40625 118.164062 C 294.789062 130.007812 300.121094 143.261719 302.394531 156.984375 Z M 225.429688 265.285156 L 225.429688 297.046875 C 247.214844 294.378906 268.378906 285.910156 286.5625 271.792969 L 264.066406 249.285156 C 252.3125 257.597656 239.144531 262.933594 225.429688 265.285156 Z M 286.40625 227.171875 L 308.585938 249.367188 C 322.691406 231.171875 331.390625 210.15625 334.058594 188.351562 L 302.394531 188.351562 C 300.121094 202.078125 294.789062 215.332031 286.40625 227.171875 Z M 286.40625 227.171875 " fill-opacity="1" fill-rule="nonzero"/></g></svg>