<svg xmlns="http://www.w3.org/2000/svg" xmlns:xlink="http://www.w3.org/1999/xlink" width="559" zoomAndPan="magnify" viewBox="0 0 419.25 297.749993" height="396" preserveAspectRatio="xMidYMid meet" version="1.0"><defs><clipPath id="id1"><path d="M 0 0.140625 L 418.5 0.140625 L 418.5 297.359375 L 0 297.359375 Z M 0 0.140625 " clip-rule="nonzero"/></clipPath><clipPath id="id2"><path d="M 96.71875 113 L 153 113 L 153 157 L 96.71875 157 Z M 96.71875 113 " clip-rule="nonzero"/></clipPath><clipPath id="id3"><path d="M 182 234 L 205 234 L 205 251.484375 L 182 251.484375 Z M 182 234 " clip-rule="nonzero"/></clipPath><clipPath id="id4"><path d="M 182 235 L 205 235 L 205 251.484375 L 182 251.484375 Z M 182 235 " clip-rule="nonzero"/></clipPath><clipPath id="id5"><path d="M 182 236 L 205 236 L 205 251.484375 L 182 251.484375 Z M 182 236 " clip-rule="nonzero"/></clipPath><clipPath id="id6"><path d="M 266 234 L 290 234 L 290 251.484375 L 266 251.484375 Z M 266 234 " clip-rule="nonzero"/></clipPath><clipPath id="id7"><path d="M 267 235 L 290 235 L 290 251.484375 L 267 251.484375 Z M 267 235 " clip-rule="nonzero"/></clipPath><clipPath id="id8"><path d="M 267 236 L 290 236 L 290 251.484375 L 267 251.484375 Z M 267 236 " clip-rule="nonzero"/></clipPath></defs><g clip-path="url(#id1)"><path fill="#ffffff" d="M 0 0.140625 L 419.25 0.140625 L 419.25 304.097656 L 0 304.097656 Z M 0 0.140625 " fill-opacity="1" fill-rule="nonzero"/><path fill="#c9e265" d="M 0 0.140625 L 418.5 0.140625 L 418.5 297.359375 L 0 297.359375 Z M 0 0.140625 " fill-opacity="1" fill-rule="nonzero"/><path fill="#ffffff" d="M 0 0.140625 L 418.5 0.140625 L 418.5 297.359375 L 0 297.359375 Z M 0 0.140625 " fill-opacity="1" fill-rule="nonzero"/><path fill="#c9e265" d="M 0 0.140625 L 418.5 0.140625 L 418.5 297.359375 L 0 297.359375 Z M 0 0.140625 " fill-opacity="1" fill-rule="nonzero"/></g><path fill="#ae795b" d="M 150.320312 147.148438 C 145.820312 144.992188 119.992188 129.839844 115.316406 127.09375 C 115.472656 126.597656 115.640625 125.761719 115.597656 124.511719 C 115.484375 121.320312 116.019531 117.820312 116.019531 117.820312 C 116.019531 117.820312 116.445312 117.117188 115.3125 117.257812 C 114.183594 117.398438 113.546875 121.910156 113.546875 121.910156 C 113.546875 121.910156 112.964844 122.46875 111.5 121.144531 C 109.734375 119.546875 108.410156 115.769531 107.664062 114.707031 C 107.296875 114.191406 106.847656 114.308594 106.660156 114.339844 C 106.433594 114.382812 106.390625 114.628906 106.390625 115.03125 C 106.390625 115.757812 108.421875 120.613281 108.421875 120.613281 C 108.421875 120.613281 108.773438 121.8125 107.359375 121.054688 C 105.949219 120.300781 103.304688 116.5 102.769531 116.023438 C 101.992188 115.328125 101.417969 115.277344 101.113281 115.695312 C 100.871094 116.023438 100.925781 116.4375 101.21875 117.023438 C 101.78125 118.160156 105.171875 122.191406 105.3125 122.574219 C 105.3125 122.574219 105.527344 123.242188 104.746094 123.027344 C 103.972656 122.816406 99.074219 120.476562 98.746094 120.3125 C 97.96875 119.925781 97.472656 120.3125 97.472656 120.3125 C 97.472656 120.3125 96.910156 120.914062 97.472656 121.335938 C 98.039062 121.761719 104.183594 125.214844 104.183594 125.214844 C 104.183594 125.214844 104.253906 125.78125 103.617188 125.707031 C 102.980469 125.640625 99.496094 125.507812 99.140625 125.507812 C 98.789062 125.507812 97.941406 125.71875 98.011719 126.074219 C 98.082031 126.425781 98.433594 127.128906 99.605469 127.257812 C 100.050781 127.308594 105.03125 127.964844 105.03125 127.964844 C 105.03125 127.964844 106.371094 129.09375 107.503906 129.234375 C 107.503906 129.234375 110.75 131.027344 112.992188 129.5625 C 124.074219 141.960938 148.675781 155.933594 148.675781 155.933594 C 155.011719 153.886719 150.320312 147.148438 150.320312 147.148438 " fill-opacity="1" fill-rule="nonzero"/><g clip-path="url(#id2)"><path stroke-linecap="round" transform="matrix(0.0133014, 0, 0, -0.0132818, 68.139768, 289.722407)" fill="none" stroke-linejoin="round" d="M 6178.342107 10734.509645 C 5840.031628 10896.855454 3898.27044 12037.687689 3546.744708 12244.443312 C 3558.491599 12281.794612 3571.119508 12344.733024 3567.889113 12438.846536 C 3559.372616 12679.130098 3599.60572 12942.647933 3599.60572 12942.647933 C 3599.60572 12942.647933 3631.616 12995.586784 3546.451035 12984.999014 C 3461.579743 12974.411244 3413.71116 12634.720284 3413.71116 12634.720284 C 3413.71116 12634.720284 3369.953988 12592.663308 3259.826879 12692.364811 C 3127.087004 12812.653644 3027.532097 13097.052915 2971.44069 13177.0494 C 2943.835494 13215.871224 2910.063181 13207.048083 2895.966911 13204.695245 C 2878.933918 13201.460093 2875.703523 13182.931495 2875.703523 13152.638708 C 2875.703523 13097.935229 3028.413114 12732.363054 3028.413114 12732.363054 C 3028.413114 12732.363054 3054.84362 12642.072902 2948.534251 12699.129219 C 2842.518554 12755.891432 2643.702413 13042.055331 2603.469309 13077.936108 C 2545.028523 13130.286749 2501.858696 13134.11011 2478.952258 13102.640905 C 2460.744576 13077.936108 2464.855988 13046.761006 2486.88141 13002.645297 C 2529.170219 12917.060822 2784.077768 12613.544744 2794.64997 12584.722481 C 2794.64997 12584.722481 2810.801946 12534.430572 2752.067488 12550.606332 C 2693.920375 12566.487988 2325.655322 12742.656719 2300.986849 12755.009118 C 2242.546064 12784.125485 2205.249683 12755.009118 2205.249683 12755.009118 C 2205.249683 12755.009118 2162.960873 12709.71699 2205.249683 12677.953679 C 2247.832165 12645.896264 2709.778678 12385.907685 2709.778678 12385.907685 C 2709.778678 12385.907685 2715.06478 12343.2625 2667.196196 12348.85049 C 2619.327613 12353.85027 2357.371929 12363.849831 2330.647751 12363.849831 C 2304.217245 12363.849831 2240.490357 12347.968176 2245.776459 12321.204646 C 2251.06256 12294.73522 2277.493066 12241.796369 2365.594753 12232.090913 C 2399.073395 12228.267552 2773.505566 12178.857958 2773.505566 12178.857958 C 2773.505566 12178.857958 2874.235161 12093.861692 2959.400126 12083.273922 C 2959.400126 12083.273922 3203.441799 11948.279852 3372.009694 12058.569125 C 4205.157984 11125.080722 6054.706072 10073.068114 6054.706072 10073.068114 C 6531.042528 10227.178991 6178.342107 10734.509645 6178.342107 10734.509645 Z M 6178.342107 10734.509645 " stroke="#161738" stroke-width="49.889999" stroke-opacity="1" stroke-miterlimit="10"/></g><path fill="#ae795b" d="M 183.183594 157.78125 C 183.183594 157.78125 208.800781 143.238281 219.535156 130.664062 L 217.273438 128.511719 C 217.273438 128.511719 186.492188 146.621094 181.542969 148.996094 C 181.542969 148.996094 176.855469 155.734375 183.183594 157.78125 " fill-opacity="1" fill-rule="nonzero"/><path stroke-linecap="round" transform="matrix(0.0133014, 0, 0, -0.0132818, 68.139768, 289.722407)" fill="none" stroke-linejoin="round" d="M 8649.007091 9933.956578 C 8649.007091 9933.956578 10574.909975 11028.908476 11381.92143 11975.631592 L 11211.885174 12137.683296 C 11211.885174 12137.683296 8897.747521 10774.213783 8525.664728 10595.398109 C 8525.664728 10595.398109 8173.257979 10088.067455 8649.007091 9933.956578 Z M 8649.007091 9933.956578 " stroke="#161738" stroke-width="49.889999" stroke-opacity="1" stroke-miterlimit="10"/><path fill="#ffffff" d="M 203.292969 236.652344 C 203.292969 236.652344 200.277344 233.613281 196.511719 235.710938 C 195.914062 236.046875 195.371094 236.382812 194.867188 236.714844 C 194.398438 238.9375 194.027344 241.929688 195.019531 243.304688 C 196.703125 245.632812 203.058594 239.089844 203.058594 239.089844 L 204.074219 237.746094 C 203.875 237.382812 203.617188 237.019531 203.292969 236.652344 " fill-opacity="1" fill-rule="nonzero"/><path stroke-linecap="round" transform="matrix(0.0133014, 0, 0, -0.0132818, 68.139768, 289.722407)" fill="none" stroke-linejoin="round" d="M 10160.832044 3995.68804 C 10160.832044 3995.68804 9934.117036 4224.501517 9651.016947 4066.567279 C 9606.085087 4041.274273 9565.264638 4015.981266 9527.380913 3990.982364 C 9492.140238 3823.636775 9464.24137 3598.352554 9538.834132 3494.82769 C 9665.40689 3319.541273 10143.211707 3812.166691 10143.211707 3812.166691 L 10219.566503 3913.338717 C 10204.589216 3940.690456 10185.206845 3968.042196 10160.832044 3995.68804 Z M 10160.832044 3995.68804 " stroke="#161738" stroke-width="49.889999" stroke-opacity="1" stroke-miterlimit="10"/><path fill="#295daf" d="M 125.515625 199.914062 C 125.515625 199.914062 123.828125 197.929688 121.175781 197.734375 C 118.546875 197.542969 111.898438 207.046875 111.742188 209.957031 C 111.617188 212.226562 111.382812 214.832031 113.753906 215.976562 C 115.597656 216.863281 118.46875 217.332031 120.386719 214.363281 C 122.304688 211.390625 124.929688 200.375 125.515625 199.914062 " fill-opacity="1" fill-rule="nonzero"/><path stroke-linecap="round" transform="matrix(0.0133014, 0, 0, -0.0132818, 68.139768, 289.722407)" fill="none" stroke-linejoin="round" d="M 4313.523059 6761.742995 C 4313.523059 6761.742995 4186.65663 6911.148197 3987.253144 6925.853433 C 3789.611692 6940.264565 3289.781453 6224.707764 3278.034561 6005.599743 C 3268.637048 5834.724897 3251.016711 5638.557044 3429.275791 5552.384359 C 3567.889113 5485.622586 3783.738246 5450.330019 3927.931341 5673.849611 C 4072.124436 5897.663308 4269.472216 6727.038638 4313.523059 6761.742995 Z M 4313.523059 6761.742995 " stroke="#161738" stroke-width="49.889999" stroke-opacity="1" stroke-miterlimit="10"/><path fill="#d8f2fd" d="M 121.71875 204.160156 C 121.71875 204.160156 118.289062 206.925781 117.816406 208.210938 L 120.902344 209.902344 L 122.28125 207.882812 L 121.71875 204.160156 " fill-opacity="1" fill-rule="nonzero"/><path stroke-linecap="round" transform="matrix(0.0133014, 0, 0, -0.0132818, 68.139768, 289.722407)" fill="none" stroke-linejoin="round" d="M 4028.073592 6442.051157 C 4028.073592 6442.051157 3770.229321 6233.825011 3734.694974 6137.064556 L 3966.696084 6009.717209 L 4070.362402 6161.769353 Z M 4028.073592 6442.051157 " stroke="#161738" stroke-width="49.889999" stroke-opacity="1" stroke-miterlimit="10"/><path fill="#ffffff" d="M 111.800781 209.527344 C 111.769531 209.679688 111.75 209.824219 111.742188 209.957031 C 111.617188 212.226562 111.382812 214.832031 113.753906 215.976562 C 115.597656 216.863281 118.46875 217.332031 120.386719 214.363281 C 120.605469 214.023438 120.832031 213.578125 121.0625 213.0625 C 120.132812 211.671875 117.464844 208.757812 111.800781 209.527344 " fill-opacity="1" fill-rule="nonzero"/><path stroke-linecap="round" transform="matrix(0.0133014, 0, 0, -0.0132818, 68.139768, 289.722407)" fill="none" stroke-linejoin="round" d="M 3282.439646 6037.951263 C 3280.090267 6026.481178 3278.621906 6015.599304 3278.034561 6005.599743 C 3268.637048 5834.724897 3251.016711 5638.557044 3429.275791 5552.384359 C 3567.889113 5485.622586 3783.738246 5450.330019 3927.931341 5673.849611 C 3944.37699 5699.436722 3961.409982 5732.964661 3978.736648 5771.786485 C 3908.842642 5876.487768 3708.264468 6095.889894 3282.439646 6037.951263 Z M 3282.439646 6037.951263 " stroke="#161738" stroke-width="49.889999" stroke-opacity="1" stroke-miterlimit="10"/><path fill="#478fbe" d="M 130.523438 203.015625 C 130.523438 203.015625 130.816406 201.714844 130.496094 201.222656 C 130.171875 200.726562 125.753906 199.175781 125.269531 199.332031 C 124.785156 199.484375 119.953125 203.578125 119.644531 207.78125 C 119.644531 207.78125 122.65625 210.453125 123.386719 210.789062 C 123.386719 210.789062 126.183594 211.277344 127.226562 209.941406 C 128.269531 208.601562 130.523438 203.015625 130.523438 203.015625 " fill-opacity="1" fill-rule="nonzero"/><path stroke-linecap="round" transform="matrix(0.0133014, 0, 0, -0.0132818, 68.139768, 289.722407)" fill="none" stroke-linejoin="round" d="M 4690.010936 6528.223842 C 4690.010936 6528.223842 4712.036358 6626.160716 4687.95523 6663.217912 C 4663.58043 6700.569212 4331.437069 6817.328789 4295.021705 6805.5646 C 4258.606341 6794.094515 3895.333717 6485.872762 3872.133606 6169.416076 C 3872.133606 6169.416076 4098.554942 5968.248443 4153.471661 5942.955436 C 4153.471661 5942.955436 4363.741021 5906.192345 4442.151523 6006.776162 C 4520.562024 6107.654083 4690.010936 6528.223842 4690.010936 6528.223842 Z M 4690.010936 6528.223842 " stroke="#161738" stroke-width="49.889999" stroke-opacity="1" stroke-miterlimit="10"/><path fill="#3873a8" d="M 142.082031 190.71875 C 142.082031 190.71875 139.953125 200.554688 138.316406 206.75 L 127.625 201.550781 C 127.625 201.550781 124.851562 204.882812 124.078125 207.398438 C 123.304688 209.910156 134.476562 220.953125 139.078125 221.796875 C 147.214844 223.285156 165.488281 214.183594 165.488281 214.183594 C 165.488281 214.183594 173.921875 225.75 184.695312 242.535156 C 184.695312 242.535156 189.015625 243.054688 192.257812 240.644531 L 180.695312 196.777344 L 142.082031 190.71875 " fill-opacity="1" fill-rule="nonzero"/><path stroke-linecap="round" transform="matrix(0.0133014, 0, 0, -0.0132818, 68.139768, 289.722407)" fill="none" stroke-linejoin="round" d="M 5558.987245 7454.065522 C 5558.987245 7454.065522 5398.935847 6713.50982 5275.887157 6247.059724 L 4472.106096 6638.513115 C 4472.106096 6638.513115 4263.59877 6387.641783 4205.451656 6198.238339 C 4147.304543 6009.129 4987.207295 5177.694937 5333.153253 5114.168316 C 5944.872636 5002.114415 7318.671613 5687.378428 7318.671613 5687.378428 C 7318.671613 5687.378428 7952.710089 4816.534332 8762.658267 3552.766322 C 8762.658267 3552.766322 9087.459821 3513.650393 9331.207822 3695.113009 L 8461.937841 6997.909091 Z M 5558.987245 7454.065522 " stroke="#161738" stroke-width="49.889999" stroke-opacity="1" stroke-miterlimit="10"/><path fill="#74c5d6" d="M 184.492188 146.347656 C 175.691406 151.011719 168.757812 156.234375 171.699219 160.136719 C 171.699219 160.136719 173.46875 166.703125 188.730469 156.757812 C 187.96875 153.835938 186.527344 148.476562 184.492188 146.347656 " fill-opacity="1" fill-rule="nonzero"/><path stroke-linecap="round" transform="matrix(0.0133014, 0, 0, -0.0132818, 68.139768, 289.722407)" fill="none" stroke-linejoin="round" d="M 8747.387308 10794.801114 C 8085.743637 10443.64007 7564.47532 10050.42205 7785.610555 9756.611428 C 7785.610555 9756.611428 7918.644103 9262.221382 9066.021744 10011.012017 C 9008.755647 10231.002352 8900.390572 10634.514038 8747.387308 10794.801114 Z M 8747.387308 10794.801114 " stroke="#161738" stroke-width="49.889999" stroke-opacity="1" stroke-miterlimit="10"/><path fill="#92dcf1" d="M 167.824219 148.816406 C 167.824219 148.816406 152.519531 144.351562 139.078125 197.757812 C 139.078125 197.757812 161.632812 211.15625 183.675781 202.59375 C 183.675781 202.59375 183.988281 151.445312 167.824219 148.816406 " fill-opacity="1" fill-rule="nonzero"/><path stroke-linecap="round" transform="matrix(0.0133014, 0, 0, -0.0132818, 68.139768, 289.722407)" fill="none" stroke-linejoin="round" d="M 7494.287643 10608.926926 C 7494.287643 10608.926926 6343.679607 10945.088629 5333.153253 6924.088805 C 5333.153253 6924.088805 7028.817061 5915.309592 8686.009799 6559.987153 C 8686.009799 6559.987153 8709.503583 10410.994445 7494.287643 10608.926926 Z M 7494.287643 10608.926926 " stroke="#161738" stroke-width="49.889999" stroke-opacity="1" stroke-miterlimit="10"/><path fill="#92dcf1" d="M 167.0625 147.308594 C 167.0625 147.308594 159.691406 146.8125 158.726562 150.476562 C 157.757812 154.144531 166.152344 164.582031 170.046875 162.042969 C 173.753906 159.625 177.980469 152.734375 175.363281 149.066406 C 175.363281 149.066406 175.363281 147.289062 167.0625 147.308594 " fill-opacity="1" fill-rule="nonzero"/><path stroke-linecap="round" transform="matrix(0.0133014, 0, 0, -0.0132818, 68.139768, 289.722407)" fill="none" stroke-linejoin="round" d="M 7437.021546 10722.451351 C 7437.021546 10722.451351 6882.861933 10759.802651 6810.324877 10483.932417 C 6737.494149 10207.768079 7368.595902 9421.920249 7661.387176 9613.088321 C 7940.08218 9795.139147 8257.835599 10313.939885 8061.075164 10590.104224 C 8061.075164 10590.104224 8061.075164 10723.921874 7437.021546 10722.451351 Z M 7437.021546 10722.451351 " stroke="#161738" stroke-width="49.889999" stroke-opacity="1" stroke-miterlimit="10"/><path fill="#d8f2fd" d="M 114.339844 214.390625 C 112.625 212.074219 113.695312 207.8125 114.246094 206.722656 C 114.679688 205.859375 117.503906 201.011719 121.351562 197.75 C 121.292969 197.746094 121.234375 197.738281 121.175781 197.734375 C 118.546875 197.542969 111.898438 207.046875 111.742188 209.957031 C 111.617188 212.226562 111.382812 214.832031 113.753906 215.976562 C 115.480469 216.808594 118.097656 217.269531 120 214.898438 C 118.222656 215.417969 115.460938 215.90625 114.339844 214.390625 " fill-opacity="1" fill-rule="nonzero"/><path stroke-linecap="round" transform="matrix(0.0133014, 0, 0, -0.0132818, 68.139768, 289.722407)" fill="none" stroke-linejoin="round" d="M 3473.326635 5671.790878 C 3344.404499 5846.194981 3424.870707 6167.063238 3466.2785 6249.118457 C 3498.876124 6314.115601 3711.201191 6679.099567 4000.468397 6924.677014 C 3996.063313 6924.971119 3991.658228 6925.559328 3987.253144 6925.853433 C 3789.611692 6940.264565 3289.781453 6224.707764 3278.034561 6005.599743 C 3268.637048 5834.724897 3251.016711 5638.557044 3429.275791 5552.384359 C 3559.078944 5489.740052 3755.839379 5455.035694 3898.857784 5633.557263 C 3765.236892 5594.441335 3557.610582 5557.678244 3473.326635 5671.790878 Z M 3473.326635 5671.790878 " stroke="#161738" stroke-width="49.889999" stroke-opacity="1" stroke-miterlimit="10"/><path fill="#478fbe" d="M 194.441406 239.847656 C 194.441406 239.847656 192.535156 233.808594 190.757812 234.007812 C 188.980469 234.207031 180.882812 236.464844 180.316406 238.15625 C 179.75 239.847656 183.675781 244.171875 183.675781 244.171875 C 183.675781 244.171875 194.0625 243.046875 194.441406 239.847656 " fill-opacity="1" fill-rule="nonzero"/><path stroke-linecap="round" transform="matrix(0.0133014, 0, 0, -0.0132818, 68.139768, 289.722407)" fill="none" stroke-linejoin="round" d="M 9495.370633 3755.110374 C 9495.370633 3755.110374 9352.058555 4209.796281 9218.437663 4194.79694 C 9084.81677 4179.797599 8476.034111 4009.805067 8433.451629 3882.45772 C 8390.869147 3755.110374 8686.009799 3429.536441 8686.009799 3429.536441 C 8686.009799 3429.536441 9466.884421 3514.238602 9495.370633 3755.110374 Z M 9495.370633 3755.110374 " stroke="#161738" stroke-width="49.889999" stroke-opacity="1" stroke-miterlimit="10"/><path fill="#295daf" d="M 203.292969 236.652344 C 203.292969 236.652344 200.277344 233.613281 196.511719 235.710938 C 192.746094 237.808594 191.050781 240.035156 189.167969 240.789062 C 187.285156 241.539062 180.128906 244.171875 183.582031 248.519531 C 185.113281 250.445312 186.71875 251.132812 190.484375 250.382812 C 194.253906 249.628906 209.128906 243.234375 203.292969 236.652344 " fill-opacity="1" fill-rule="nonzero"/><g clip-path="url(#id3)"><path stroke-linecap="round" transform="matrix(0.0133014, 0, 0, -0.0132818, 68.139768, 289.722407)" fill="none" stroke-linejoin="round" d="M 10160.832044 3995.68804 C 10160.832044 3995.68804 9934.117036 4224.501517 9651.016947 4066.567279 C 9367.916859 3908.633041 9240.463085 3740.993347 9098.91304 3684.231134 C 8957.362996 3627.763027 8419.355359 3429.536441 8678.961664 3102.19788 C 8794.081202 2957.20425 8914.780514 2905.441818 9197.880602 2961.909925 C 9481.274363 3018.672138 10599.578447 3500.121575 10160.832044 3995.68804 Z M 10160.832044 3995.68804 " stroke="#161738" stroke-width="49.889999" stroke-opacity="1" stroke-miterlimit="10"/></g><path fill="#ffffff" d="M 203.292969 236.652344 C 203.292969 236.652344 200.277344 233.613281 196.511719 235.710938 C 195.914062 236.046875 195.371094 236.382812 194.867188 236.714844 C 194.398438 238.9375 194.027344 241.929688 195.019531 243.304688 C 196.703125 245.632812 203.058594 239.089844 203.058594 239.089844 L 204.074219 237.746094 C 203.875 237.382812 203.617188 237.019531 203.292969 236.652344 " fill-opacity="1" fill-rule="nonzero"/><path stroke-linecap="round" transform="matrix(0.0133014, 0, 0, -0.0132818, 68.139768, 289.722407)" fill="none" stroke-linejoin="round" d="M 10160.832044 3995.68804 C 10160.832044 3995.68804 9934.117036 4224.501517 9651.016947 4066.567279 C 9606.085087 4041.274273 9565.264638 4015.981266 9527.380913 3990.982364 C 9492.140238 3823.636775 9464.24137 3598.352554 9538.834132 3494.82769 C 9665.40689 3319.541273 10143.211707 3812.166691 10143.211707 3812.166691 L 10219.566503 3913.338717 C 10204.589216 3940.690456 10185.206845 3968.042196 10160.832044 3995.68804 Z M 10160.832044 3995.68804 " stroke="#161738" stroke-width="49.889999" stroke-opacity="1" stroke-miterlimit="10"/><path fill="#ffffff" d="M 203.292969 236.652344 C 203.292969 236.652344 202.949219 236.304688 202.347656 235.929688 C 200.949219 236.195312 199.078125 236.988281 197.265625 239.089844 C 193.6875 243.234375 191.804688 242.859375 189.167969 244.171875 C 187.289062 245.113281 184.144531 246.242188 182.949219 247.496094 C 183.097656 247.828125 183.300781 248.167969 183.582031 248.519531 C 185.113281 250.445312 186.71875 251.132812 190.484375 250.382812 C 194.253906 249.628906 209.128906 243.234375 203.292969 236.652344 " fill-opacity="1" fill-rule="nonzero"/><g clip-path="url(#id4)"><path stroke-linecap="round" transform="matrix(0.0133014, 0, 0, -0.0132818, 68.139768, 289.722407)" fill="none" stroke-linejoin="round" d="M 10160.832044 3995.68804 C 10160.832044 3995.68804 10134.988883 4021.863361 10089.76335 4050.097415 C 9984.62867 4030.098293 9843.959642 3970.395034 9707.695699 3812.166691 C 9438.691881 3500.121575 9297.141837 3528.355629 9098.91304 3429.536441 C 8957.656668 3358.657202 8721.250474 3273.660936 8631.386753 3179.253319 C 8642.5463 3154.254417 8657.817259 3128.667306 8678.961664 3102.19788 C 8794.081202 2957.20425 8914.780514 2905.441818 9197.880602 2961.909925 C 9481.274363 3018.672138 10599.578447 3500.121575 10160.832044 3995.68804 Z M 10160.832044 3995.68804 " stroke="#161738" stroke-width="49.889999" stroke-opacity="1" stroke-miterlimit="10"/></g><path fill="#d8f2fd" d="M 203.691406 237.144531 C 201.792969 237.472656 199.191406 238.457031 197.265625 241.261719 C 194.265625 245.628906 185.308594 245.578125 183.132812 247.859375 C 183.257812 248.074219 183.402344 248.296875 183.582031 248.519531 C 185.113281 250.445312 186.71875 251.132812 190.484375 250.382812 C 194.15625 249.648438 208.386719 243.550781 203.691406 237.144531 " fill-opacity="1" fill-rule="nonzero"/><g clip-path="url(#id5)"><path stroke-linecap="round" transform="matrix(0.0133014, 0, 0, -0.0132818, 68.139768, 289.722407)" fill="none" stroke-linejoin="round" d="M 10190.786618 3958.630844 C 10048.061885 3933.926047 9852.476139 3859.811656 9707.695699 3648.644462 C 9482.15538 3319.835378 8808.764817 3323.658739 8645.189351 3151.901579 C 8654.586864 3135.725819 8665.452739 3118.96185 8678.961664 3102.19788 C 8794.081202 2957.20425 8914.780514 2905.441818 9197.880602 2961.909925 C 9473.932556 3017.201614 10543.780712 3476.299093 10190.786618 3958.630844 Z M 10190.786618 3958.630844 " stroke="#161738" stroke-width="49.889999" stroke-opacity="1" stroke-miterlimit="10"/></g><path fill="#ae795b" d="M 216.765625 129.5 C 216.765625 129.5 216.1875 128.542969 216.265625 126.355469 C 216.382812 123.167969 215.84375 119.667969 215.84375 119.667969 C 215.84375 119.667969 215.417969 118.960938 216.550781 119.101562 C 217.679688 119.242188 218.316406 123.757812 218.316406 123.757812 C 218.316406 123.757812 218.898438 124.316406 220.363281 122.992188 C 222.128906 121.390625 223.453125 117.613281 224.199219 116.554688 C 224.5625 116.035156 225.019531 116.15625 225.203125 116.1875 C 225.429688 116.222656 225.472656 116.476562 225.472656 116.875 C 225.472656 117.605469 223.441406 122.453125 223.441406 122.453125 C 223.441406 122.453125 223.089844 123.65625 224.503906 122.902344 C 225.914062 122.144531 228.5625 118.347656 229.089844 117.871094 C 229.871094 117.175781 230.445312 117.121094 230.75 117.539062 C 230.988281 117.871094 230.9375 118.28125 230.644531 118.871094 C 230.082031 120.007812 226.691406 124.035156 226.550781 124.417969 C 226.550781 124.417969 226.335938 125.085938 227.113281 124.875 C 227.894531 124.664062 232.789062 122.320312 233.121094 122.15625 C 233.894531 121.773438 234.390625 122.15625 234.390625 122.15625 C 234.390625 122.15625 234.953125 122.757812 234.390625 123.183594 C 233.824219 123.605469 227.679688 127.0625 227.679688 127.0625 C 227.679688 127.0625 227.609375 127.625 228.246094 127.554688 C 228.878906 127.484375 232.367188 127.355469 232.722656 127.355469 C 233.074219 127.355469 233.921875 127.566406 233.851562 127.917969 C 233.78125 128.269531 233.429688 128.976562 232.257812 129.105469 C 231.8125 129.152344 226.832031 129.8125 226.832031 129.8125 C 226.832031 129.8125 225.492188 130.941406 224.363281 131.082031 C 224.363281 131.082031 220.851562 133.027344 218.613281 131.234375 L 216.765625 129.5 " fill-opacity="1" fill-rule="nonzero"/><path stroke-linecap="round" transform="matrix(0.0133014, 0, 0, -0.0132818, 68.139768, 289.722407)" fill="none" stroke-linejoin="round" d="M 11173.707776 12063.2748 C 11173.707776 12063.2748 11130.244277 12135.330458 11136.117723 12300.029105 C 11144.927891 12540.018562 11104.401115 12803.536397 11104.401115 12803.536397 C 11104.401115 12803.536397 11072.390836 12856.769353 11157.5558 12846.181583 C 11242.427092 12835.593813 11290.295675 12495.608749 11290.295675 12495.608749 C 11290.295675 12495.608749 11334.052847 12453.551773 11444.179956 12553.253275 C 11576.919831 12673.836213 11676.474738 12958.235484 11732.566146 13037.937865 C 11759.877669 13077.053793 11794.237327 13067.936547 11808.039924 13065.583709 C 11825.072917 13062.936766 11828.303312 13043.819959 11828.303312 13013.821277 C 11828.303312 12958.823693 11675.593721 12593.839727 11675.593721 12593.839727 C 11675.593721 12593.839727 11649.163215 12503.255471 11755.472584 12560.017684 C 11861.488281 12617.074001 12060.598095 12902.943795 12100.243854 12938.824572 C 12158.978312 12991.175213 12202.148139 12995.292679 12225.054578 12963.823474 C 12242.968587 12938.824572 12239.150847 12907.943575 12217.125426 12863.533762 C 12174.836616 12777.949286 11919.929067 12474.727313 11909.356865 12445.90505 C 11909.356865 12445.90505 11893.204889 12395.613141 11951.645675 12411.494797 C 12010.380133 12427.376452 12378.351513 12603.839288 12403.313658 12616.191687 C 12461.460772 12645.01395 12498.757153 12616.191687 12498.757153 12616.191687 C 12498.757153 12616.191687 12541.045963 12570.899559 12498.757153 12538.842143 C 12456.17467 12507.078833 11994.228157 12246.79615 11994.228157 12246.79615 C 11994.228157 12246.79615 11988.942056 12204.445069 12036.810639 12209.738954 C 12084.38555 12215.032839 12346.634906 12224.738295 12373.359084 12224.738295 C 12399.789591 12224.738295 12463.516478 12208.85664 12458.230377 12182.387215 C 12452.944275 12155.917789 12426.513769 12102.684834 12338.412082 12092.979378 C 12304.933441 12089.450121 11930.50127 12039.746422 11930.50127 12039.746422 C 11930.50127 12039.746422 11829.771674 11954.750156 11744.900382 11944.162386 C 11744.900382 11944.162386 11480.888992 11797.698232 11312.61477 11932.692301 Z M 11173.707776 12063.2748 " stroke="#161738" stroke-width="49.889999" stroke-opacity="1" stroke-miterlimit="10"/><path fill="#92dcf1" d="M 147.371094 144.5 C 156.171875 149.167969 163.105469 154.390625 160.164062 158.292969 C 160.164062 158.292969 158.394531 164.855469 143.132812 154.914062 C 143.894531 151.988281 145.335938 146.628906 147.371094 144.5 " fill-opacity="1" fill-rule="nonzero"/><path stroke-linecap="round" transform="matrix(0.0133014, 0, 0, -0.0132818, 68.139768, 289.722407)" fill="none" stroke-linejoin="round" d="M 5956.619527 10933.912649 C 6618.263199 10582.457501 7139.531515 10189.239481 6918.39628 9895.428859 C 6918.39628 9895.428859 6785.362732 9401.332918 5637.985091 10149.829448 C 5695.251188 10370.113888 5803.616264 10773.625573 5956.619527 10933.912649 Z M 5956.619527 10933.912649 " stroke="#161738" stroke-width="49.889999" stroke-opacity="1" stroke-miterlimit="10"/><path fill="#ae795b" d="M 202.242188 116.386719 C 202.242188 116.386719 199.921875 109.011719 198.441406 100.007812 C 196.152344 86.082031 193.96875 80.917969 189.9375 77.171875 C 174.449219 62.789062 141.597656 65.011719 133.476562 83.933594 C 131.214844 89.210938 129.3125 94.792969 128.097656 100.316406 C 126.476562 99.214844 124.660156 98.789062 122.953125 99.292969 C 119.207031 100.402344 117.425781 105.53125 118.976562 110.746094 C 120.308594 115.238281 124.175781 118.171875 127.175781 118.332031 C 128.550781 126.574219 132.996094 133.46875 142.160156 137.257812 C 145.898438 138.800781 150.0625 140.089844 154.410156 141.054688 C 154.429688 141.058594 154.457031 141.066406 154.480469 141.070312 C 154.519531 141.078125 154.558594 141.089844 154.597656 141.097656 C 156.605469 141.535156 161.476562 143.148438 162.046875 144.5 C 162.449219 145.460938 162.351562 149.765625 162.351562 149.765625 C 164.703125 151.378906 170.953125 150.769531 171.835938 149.984375 C 172.5 149.398438 171.460938 147 171.972656 144.796875 C 172.160156 144.003906 172.976562 143.414062 173.949219 142.976562 C 191.347656 142.414062 205.964844 135.039062 202.242188 116.386719 " fill-opacity="1" fill-rule="nonzero"/><path stroke-linecap="round" transform="matrix(0.0139425, 0, 0, -0.013922, 68.139768, 289.722407)" fill="none" stroke-linejoin="round" d="M 9617.955198 12450.191867 C 9617.955198 12450.191867 9451.535295 12979.92833 9345.351551 13626.386387 C 9181.172993 14626.937354 9024.558977 14997.865111 8735.425407 15266.942053 C 7624.558543 16300.040388 5268.344086 16140.109359 4686.154592 14780.976188 C 4523.657043 14401.91159 4387.215136 14000.961693 4300.362997 13604.501088 C 4184.0932 13683.34428 4053.534824 13714.208163 3931.101326 13677.732665 C 3662.700203 13598.328311 3534.943509 13229.925782 3645.890111 12855.069895 C 3741.427463 12532.682609 4018.793969 12321.966463 4233.963137 12310.462652 C 4332.582339 11718.437262 4651.693905 11223.212232 5308.968473 10951.048901 C 5576.80926 10840.219503 5875.748716 10747.627854 6187.575909 10678.324408 L 6187.295741 10678.324408 C 6188.97675 10678.043827 6190.937927 10677.482666 6192.338768 10677.202085 C 6195.14045 10676.640924 6198.2223 10675.799181 6201.023982 10675.23802 C 6344.750262 10643.812975 6694.119992 10527.652543 6735.024548 10430.852183 C 6763.881871 10361.829318 6756.877666 10052.629327 6756.877666 10052.629327 C 6925.538915 9936.749476 7373.808015 9980.520074 7437.406194 10036.916805 C 7484.754618 10079.003918 7410.22988 10251.280501 7447.212081 10409.528046 C 7460.379985 10466.485939 7519.215305 10508.853633 7588.697015 10540.278677 C 8836.566123 10580.682306 9884.955481 11110.418769 9617.955198 12450.191867 Z M 9617.955198 12450.191867 " stroke="#161738" stroke-width="47.594002" stroke-opacity="1" stroke-miterlimit="10"/><path fill="#161738" d="M 178.660156 116.46875 C 178.660156 116.46875 178.636719 116.4375 178.59375 116.382812 C 178.546875 116.332031 178.480469 116.257812 178.394531 116.167969 C 178.296875 116.078125 178.191406 115.960938 178.050781 115.851562 C 177.902344 115.75 177.765625 115.597656 177.570312 115.492188 C 177.382812 115.378906 177.191406 115.234375 176.953125 115.148438 C 176.726562 115.046875 176.492188 114.933594 176.222656 114.878906 C 176.089844 114.84375 175.957031 114.808594 175.824219 114.769531 C 175.6875 114.746094 175.542969 114.746094 175.402344 114.730469 L 174.972656 114.695312 C 174.859375 114.6875 174.675781 114.707031 174.527344 114.710938 C 174.210938 114.722656 173.949219 114.78125 173.660156 114.824219 C 173.375 114.898438 173.089844 114.945312 172.824219 115.042969 C 172.554688 115.121094 172.296875 115.207031 172.0625 115.3125 C 171.820312 115.402344 171.609375 115.515625 171.414062 115.621094 C 171.210938 115.71875 171.042969 115.835938 170.894531 115.933594 C 170.742188 116.03125 170.613281 116.125 170.527344 116.214844 C 170.335938 116.386719 170.226562 116.484375 170.226562 116.484375 L 170.199219 116.507812 C 170.117188 116.582031 169.992188 116.574219 169.921875 116.492188 C 169.855469 116.417969 169.859375 116.304688 169.921875 116.234375 C 169.921875 116.234375 170.03125 116.109375 170.222656 115.894531 C 170.3125 115.78125 170.445312 115.667969 170.601562 115.546875 C 170.753906 115.421875 170.925781 115.273438 171.140625 115.160156 C 171.347656 115.03125 171.574219 114.894531 171.828125 114.785156 C 172.074219 114.660156 172.34375 114.546875 172.632812 114.453125 C 172.914062 114.34375 173.222656 114.285156 173.527344 114.203125 C 173.839844 114.144531 174.1875 114.070312 174.492188 114.058594 C 174.65625 114.050781 174.78125 114.027344 174.976562 114.035156 L 175.46875 114.082031 C 175.628906 114.101562 175.792969 114.109375 175.949219 114.140625 C 176.101562 114.183594 176.253906 114.226562 176.402344 114.273438 C 176.707031 114.34375 176.976562 114.476562 177.226562 114.613281 C 177.488281 114.730469 177.695312 114.90625 177.894531 115.042969 C 178.101562 115.179688 178.25 115.355469 178.398438 115.488281 C 178.539062 115.625 178.640625 115.769531 178.734375 115.875 C 178.914062 116.113281 178.988281 116.25 178.988281 116.25 L 178.992188 116.25 C 179.042969 116.347656 179.003906 116.46875 178.90625 116.519531 C 178.824219 116.566406 178.71875 116.539062 178.660156 116.46875 " fill-opacity="1" fill-rule="nonzero"/><path stroke-linecap="round" transform="matrix(0.0133014, 0, 0, -0.0132818, 68.139768, 289.722407)" fill="none" stroke-linejoin="round" d="M 8761.483578 12679.130098 C 8761.483578 12679.130098 8164.447811 12236.20838 7014.427119 12679.130098 " stroke="#161738" stroke-width="49.889999" stroke-opacity="1" stroke-miterlimit="10"/><path stroke-linecap="round" transform="matrix(0.0133014, 0, 0, -0.0132818, 68.139768, 289.722407)" fill="none" stroke-linejoin="round" d="M 3947.901057 13601.442521 C 3947.901057 13601.442521 3906.786936 14064.951571 4168.74262 14092.009205 C 4365.209382 14112.302432 4550.81027 13736.730696 4550.81027 13736.730696 C 4550.81027 13736.730696 4467.994684 13570.85563 4568.136936 13483.506526 C 4568.136936 13483.506526 4601.909249 12986.469538 4284.449502 13153.226918 " stroke="#161738" stroke-width="49.889999" stroke-opacity="1" stroke-miterlimit="10"/><path stroke-linecap="round" transform="matrix(0.0133014, 0, 0, -0.0132818, 68.139768, 289.722407)" fill="none" stroke-linejoin="round" d="M 4149.360249 13549.09188 C 4149.360249 13549.09188 4038.352123 13748.20078 4175.497083 13854.666691 C 4175.497083 13854.666691 4302.363512 13969.661639 4441.564178 13910.840694 " stroke="#161738" stroke-width="49.889999" stroke-opacity="1" stroke-miterlimit="10"/><path stroke-linecap="round" transform="matrix(0.0133014, 0, 0, -0.0132818, 68.139768, 289.722407)" fill="none" stroke-linejoin="round" d="M 4467.701012 13874.665812 C 4467.701012 13874.665812 4202.514933 13458.507624 4566.374902 13375.864196 " stroke="#161738" stroke-width="49.889999" stroke-opacity="1" stroke-miterlimit="10"/><path fill="#161738" d="M 161.25 96.457031 C 161.242188 96.449219 161.140625 96.371094 160.914062 96.234375 C 160.6875 96.105469 160.359375 95.921875 159.933594 95.765625 C 159.722656 95.671875 159.484375 95.613281 159.234375 95.535156 C 158.980469 95.484375 158.714844 95.398438 158.429688 95.375 C 158.289062 95.355469 158.144531 95.339844 158 95.320312 C 157.851562 95.316406 157.703125 95.3125 157.554688 95.308594 C 157.253906 95.285156 156.949219 95.339844 156.644531 95.355469 C 156.339844 95.398438 156.042969 95.464844 155.742188 95.523438 C 155.457031 95.613281 155.171875 95.703125 154.894531 95.789062 C 154.632812 95.910156 154.375 96.019531 154.128906 96.128906 C 153.890625 96.246094 153.679688 96.382812 153.476562 96.496094 C 153.0625 96.714844 152.765625 96.976562 152.539062 97.128906 C 152.316406 97.289062 152.191406 97.378906 152.191406 97.378906 L 152.183594 97.386719 C 152.125 97.429688 152.042969 97.417969 152 97.359375 C 151.957031 97.304688 151.96875 97.222656 152.023438 97.179688 C 152.023438 97.179688 152.148438 97.082031 152.371094 96.910156 C 152.59375 96.742188 152.886719 96.464844 153.304688 96.222656 C 153.507812 96.097656 153.722656 95.945312 153.96875 95.8125 C 154.214844 95.691406 154.480469 95.566406 154.75 95.433594 C 155.03125 95.320312 155.332031 95.222656 155.632812 95.113281 C 155.941406 95.039062 156.257812 94.953125 156.578125 94.898438 C 156.902344 94.867188 157.226562 94.800781 157.546875 94.808594 C 157.710938 94.808594 157.871094 94.804688 158.027344 94.804688 C 158.1875 94.816406 158.339844 94.832031 158.496094 94.84375 C 158.804688 94.859375 159.09375 94.9375 159.371094 94.980469 C 159.644531 95.054688 159.90625 95.113281 160.136719 95.199219 C 160.605469 95.351562 160.976562 95.539062 161.234375 95.675781 C 161.492188 95.8125 161.644531 95.925781 161.636719 95.917969 C 161.785156 96.023438 161.820312 96.230469 161.714844 96.378906 C 161.605469 96.527344 161.398438 96.5625 161.25 96.457031 " fill-opacity="1" fill-rule="nonzero"/><path fill="#161738" d="M 183.554688 97.03125 C 183.546875 97.039062 183.703125 96.925781 183.957031 96.789062 C 184.214844 96.652344 184.585938 96.464844 185.054688 96.3125 C 185.285156 96.226562 185.550781 96.167969 185.820312 96.09375 C 186.101562 96.050781 186.390625 95.972656 186.699219 95.957031 C 186.851562 95.945312 187.007812 95.933594 187.164062 95.917969 C 187.320312 95.921875 187.480469 95.921875 187.644531 95.925781 C 187.964844 95.914062 188.289062 95.984375 188.613281 96.011719 C 188.933594 96.070312 189.25 96.152344 189.558594 96.226562 C 189.859375 96.335938 190.15625 96.433594 190.441406 96.542969 C 190.710938 96.675781 190.976562 96.804688 191.222656 96.925781 C 191.46875 97.058594 191.679688 97.210938 191.886719 97.335938 C 192.304688 97.578125 192.597656 97.855469 192.820312 98.023438 C 193.039062 98.195312 193.167969 98.292969 193.167969 98.292969 C 193.222656 98.339844 193.234375 98.421875 193.1875 98.476562 C 193.144531 98.53125 193.066406 98.542969 193.007812 98.5 L 193 98.492188 C 193 98.492188 192.871094 98.402344 192.652344 98.242188 C 192.425781 98.089844 192.128906 97.828125 191.714844 97.609375 C 191.511719 97.496094 191.296875 97.359375 191.058594 97.242188 C 190.816406 97.132812 190.5625 97.023438 190.296875 96.90625 C 190.019531 96.816406 189.734375 96.726562 189.445312 96.636719 C 189.148438 96.578125 188.851562 96.511719 188.546875 96.46875 C 188.242188 96.453125 187.941406 96.398438 187.640625 96.425781 C 187.488281 96.429688 187.339844 96.433594 187.191406 96.4375 C 187.046875 96.453125 186.902344 96.472656 186.761719 96.492188 C 186.476562 96.511719 186.210938 96.597656 185.957031 96.648438 C 185.710938 96.726562 185.46875 96.785156 185.261719 96.878906 C 184.835938 97.035156 184.503906 97.21875 184.277344 97.347656 C 184.050781 97.484375 183.953125 97.5625 183.941406 97.570312 C 183.792969 97.675781 183.585938 97.640625 183.480469 97.492188 C 183.371094 97.34375 183.40625 97.136719 183.554688 97.03125 " fill-opacity="1" fill-rule="nonzero"/><path stroke-linecap="round" transform="matrix(0.0133014, 0, 0, -0.0132818, 68.139768, 289.722407)" fill="none" stroke-linejoin="round" d="M 7000.037177 13440.567236 C 7000.037177 13440.567236 6751.003074 13860.548785 6454.687733 13440.567236 " stroke="#161738" stroke-width="49.889999" stroke-opacity="1" stroke-miterlimit="10"/><path stroke-linecap="round" transform="matrix(0.0133014, 0, 0, -0.0132818, 68.139768, 289.722407)" fill="none" stroke-linejoin="round" d="M 9285.394945 13380.275767 C 9285.394945 13380.275767 9036.06717 13800.257316 8739.751829 13380.275767 " stroke="#161738" stroke-width="49.889999" stroke-opacity="1" stroke-miterlimit="10"/><path fill="#4b211c" d="M 127.601562 99.996094 C 127.601562 99.996094 131.445312 103.023438 133.007812 102.542969 C 134.570312 102.058594 135.886719 98.171875 136.265625 96.164062 C 136.265625 96.164062 139.84375 93.78125 139.84375 90.585938 C 139.84375 90.585938 143.984375 87.578125 143.800781 81.9375 C 143.800781 81.9375 148.320312 79.886719 148.695312 76.304688 C 148.695312 76.304688 159.054688 82.605469 162.253906 77.191406 C 162.253906 77.191406 171.390625 81.5625 174.449219 78.175781 C 174.449219 78.175781 181.507812 82.125 184.390625 78.550781 C 184.390625 78.550781 190.203125 82.5625 192.332031 79.898438 C 192.332031 79.898438 195.601562 85.660156 196.738281 91.191406 C 196.738281 91.191406 200.488281 86.636719 198.417969 82.5 C 198.417969 82.5 201.457031 78.550781 199.277344 74.976562 C 199.277344 74.976562 200.367188 67.246094 193.082031 64.625 C 193.082031 64.625 191.304688 57.675781 183.75 58.804688 C 183.75 58.804688 181.277344 54.101562 176.003906 56.359375 C 176.003906 56.359375 170.089844 50.996094 164.761719 55.746094 C 164.761719 55.746094 157.171875 52.035156 153.214844 57.488281 C 153.214844 57.488281 147 55.984375 144.550781 60.871094 C 144.550781 60.871094 137.398438 59.722656 135.136719 64.625 C 135.136719 64.625 129.78125 63.507812 128.878906 70.277344 C 128.878906 70.277344 122.078125 73.914062 122.765625 79.898438 C 122.765625 79.898438 120.257812 83.984375 121.953125 87.285156 C 121.953125 87.285156 119.644531 90.585938 121.363281 93.03125 C 121.363281 93.03125 119.242188 97.46875 122.953125 99.292969 C 122.953125 99.292969 125.417969 98.496094 127.601562 99.996094 " fill-opacity="1" fill-rule="nonzero"/><path stroke-linecap="round" transform="matrix(0.0146674, 0, 0, -0.0146459, 68.139768, 289.722407)" fill="none" stroke-linejoin="round" d="M 4054.264908 12954.513474 C 4054.264908 12954.513474 4316.058572 12747.543972 4422.587021 12780.616418 C 4529.115471 12813.688864 4618.865689 13079.068573 4644.698838 13215.892483 C 4644.698838 13215.892483 4888.648987 13378.587582 4888.648987 13597.025754 C 4888.648987 13597.025754 5171.215699 13802.394976 5158.432285 14187.528946 C 5158.432285 14187.528946 5466.565825 14327.286702 5492.132653 14572.129489 C 5492.132653 14572.129489 6198.416272 14141.920976 6416.533272 14511.318862 C 6416.533272 14511.318862 7039.458379 14213.13342 7247.987819 14444.37383 C 7247.987819 14444.37383 7729.49641 14174.726709 7925.775078 14418.769356 C 7925.775078 14418.769356 8322.060909 14144.588109 8467.205921 14326.486563 C 8467.205921 14326.486563 8690.116702 13933.084481 8767.616149 13555.685196 C 8767.616149 13555.685196 9023.284427 13866.406162 8882.134232 14149.122234 C 8882.134232 14149.122234 9089.332066 14418.769356 8940.724879 14662.54529 C 8940.724879 14662.54529 9015.294793 15190.637575 8518.605898 15369.602183 C 8518.605898 15369.602183 8397.429787 15843.818387 7882.098413 15767.004963 C 7882.098413 15767.004963 7713.517142 16087.861034 7353.983626 15933.70076 C 7353.983626 15933.70076 6950.773445 16299.898088 6587.511433 15975.574745 C 6587.511433 15975.574745 6070.04949 16229.21907 5800.266192 15856.887337 C 5800.266192 15856.887337 5376.549285 15959.305235 5209.832262 15625.646927 C 5209.832262 15625.646927 4721.931964 15704.327344 4567.732034 15369.602183 C 4567.732034 15369.602183 4202.605773 15445.88218 4141.085594 14983.668073 C 4141.085594 14983.668073 3677.420518 14735.358014 3724.559357 14326.486563 C 3724.559357 14326.486563 3553.314875 14047.504476 3668.898242 13822.131759 C 3668.898242 13822.131759 3511.76878 13597.025754 3628.683753 13429.79653 C 3628.683753 13429.79653 3484.071383 13126.810249 3737.07645 13002.25515 C 3737.07645 13002.25515 3905.125079 13056.664658 4054.264908 12954.513474 Z M 4054.264908 12954.513474 " stroke="#161738" stroke-width="45.243999" stroke-opacity="1" stroke-miterlimit="10"/><path fill="#fbcbb1" d="M 320.972656 122.382812 C 321.53125 121.964844 320.972656 121.367188 320.972656 121.367188 C 320.972656 121.367188 320.480469 120.984375 319.710938 121.367188 C 319.386719 121.527344 314.527344 123.851562 313.753906 124.0625 C 312.984375 124.273438 313.195312 123.609375 313.195312 123.609375 C 313.335938 123.226562 316.699219 119.234375 317.257812 118.101562 C 317.546875 117.523438 317.601562 117.113281 317.363281 116.785156 C 317.0625 116.371094 316.488281 116.421875 315.71875 117.113281 C 315.1875 117.585938 312.5625 121.355469 311.164062 122.101562 C 309.765625 122.851562 310.113281 121.660156 310.113281 121.660156 C 310.113281 121.660156 312.125 116.851562 312.125 116.125 C 312.125 115.730469 312.082031 115.480469 311.859375 115.441406 C 311.675781 115.410156 311.226562 115.292969 310.863281 115.808594 C 310.121094 116.859375 308.808594 120.605469 307.054688 122.191406 C 305.605469 123.507812 305.023438 122.953125 305.023438 122.953125 C 305.023438 122.953125 304.394531 118.476562 303.273438 118.335938 C 302.152344 118.195312 302.570312 118.894531 302.570312 118.894531 C 302.570312 118.894531 303.105469 122.367188 302.992188 125.535156 C 302.949219 126.777344 303.117188 127.601562 303.269531 128.09375 C 298.632812 130.820312 273.007812 145.851562 268.542969 147.992188 C 268.542969 147.992188 263.890625 154.675781 270.171875 156.707031 C 270.171875 156.707031 294.582031 142.84375 305.578125 130.542969 C 307.796875 132 311.023438 130.21875 311.023438 130.21875 C 312.144531 130.078125 313.476562 128.960938 313.476562 128.960938 C 313.476562 128.960938 318.417969 128.308594 318.855469 128.257812 C 320.019531 128.128906 320.367188 127.429688 320.441406 127.078125 C 320.507812 126.730469 319.667969 126.519531 319.316406 126.519531 C 318.96875 126.519531 315.507812 126.652344 314.875 126.722656 C 314.246094 126.792969 314.316406 126.230469 314.316406 126.230469 C 314.316406 126.230469 320.410156 122.804688 320.972656 122.382812 " fill-opacity="1" fill-rule="nonzero"/><path stroke-linecap="round" transform="matrix(0.0155453, 0, 0, -0.0155225, 68.139768, 289.722407)" fill="none" stroke-linejoin="round" d="M 16263.979356 10780.217876 C 16299.912567 10807.396205 16263.979356 10845.647187 16263.979356 10845.647187 C 16263.979356 10845.647187 16232.317925 10870.309005 16182.815529 10845.647187 C 16161.95919 10835.329488 15849.36538 10685.597027 15799.611703 10672.007862 C 15750.109307 10658.670349 15763.678492 10701.199401 15763.678492 10701.199401 C 15772.473334 10725.861218 15989.077726 10983.04874 16025.010937 11056.027587 C 16043.605746 11093.271964 16047.123682 11119.69534 16031.795529 11140.83404 C 16012.195596 11167.509067 15975.508541 11164.237602 15926.006145 11119.69534 C 15891.831903 11089.245545 15722.970938 10846.402141 15633.012269 10798.336762 C 15542.80232 10750.019733 15565.417627 10826.773348 15565.417627 10826.773348 C 15565.417627 10826.773348 15694.827444 11136.807621 15694.827444 11183.363093 C 15694.827444 11209.031515 15692.063351 11224.88554 15677.489041 11227.402052 C 15665.930106 11229.415262 15637.032769 11236.964797 15613.663617 11203.998491 C 15565.92019 11136.052668 15481.489707 10894.719171 15368.66445 10792.548785 C 15275.439126 10707.742332 15237.998227 10743.476802 15237.998227 10743.476802 C 15237.998227 10743.476802 15197.541955 11032.120724 15125.424251 11040.928516 C 15053.306547 11049.987959 15080.193636 11004.942395 15080.193636 11004.942395 C 15080.193636 11004.942395 15114.61916 10781.224481 15107.332005 10577.135361 C 15104.567912 10497.361932 15115.373003 10444.011878 15125.17297 10412.303827 C 14826.902189 10236.902944 13178.497535 9268.297489 12891.283126 9130.392634 C 12891.283126 9130.392634 12592.007221 8699.817437 12996.067386 8568.958815 C 12996.067386 8568.958815 14566.323587 9462.06891 15273.680157 10254.518527 C 15416.407877 10160.904282 15623.966146 10275.405577 15623.966146 10275.405577 C 15696.08385 10284.46502 15781.770738 10356.688913 15781.770738 10356.688913 C 15781.770738 10356.688913 16099.390171 10398.714663 16127.784947 10401.734477 C 16202.666743 10410.038967 16225.03077 10455.084531 16229.805113 10477.733138 C 16234.076893 10500.130095 16180.051436 10513.719259 16157.436128 10513.719259 C 16135.072101 10513.719259 15912.436961 10505.41477 15871.729407 10500.885048 C 15831.273134 10496.355327 15835.796196 10532.341448 15835.796196 10532.341448 C 15835.796196 10532.341448 16227.794863 10753.291198 16263.979356 10780.217876 Z M 16263.979356 10780.217876 " stroke="#161738" stroke-width="42.688" stroke-opacity="1" stroke-miterlimit="10"/><path fill="#ffffff" d="M 287.601562 236.765625 C 287.601562 236.765625 284.613281 233.75 280.875 235.832031 C 280.28125 236.160156 279.742188 236.496094 279.246094 236.824219 C 278.777344 239.03125 278.410156 242 279.390625 243.363281 C 281.0625 245.671875 287.371094 239.179688 287.371094 239.179688 L 288.378906 237.851562 C 288.179688 237.488281 287.921875 237.125 287.601562 236.765625 " fill-opacity="1" fill-rule="nonzero"/><path stroke-linecap="round" transform="matrix(0.0135116, 0, 0, -0.0134917, 68.139768, 289.722407)" fill="none" stroke-linejoin="round" d="M 16242.528694 3925.141875 C 16242.528694 3925.141875 16021.074699 4148.659157 15744.690861 3994.339583 C 15700.457883 3969.729519 15660.850575 3945.119456 15623.845208 3920.509392 C 15589.152676 3757.214383 15561.976859 3537.171462 15634.831176 3436.125437 C 15758.278769 3265.013113 16225.182428 3746.212237 16225.182428 3746.212237 L 16300.060476 3844.652491 C 16285.027046 3871.289265 16266.235258 3898.5051 16242.528694 3925.141875 Z M 16242.528694 3925.141875 " stroke="#161738" stroke-width="49.113998" stroke-opacity="1" stroke-miterlimit="10"/><path fill="#295daf" d="M 210.4375 200.3125 C 210.4375 200.3125 208.765625 198.34375 206.132812 198.152344 C 203.523438 197.960938 196.929688 207.390625 196.769531 210.277344 C 196.652344 212.53125 196.414062 215.117188 198.765625 216.246094 C 200.601562 217.128906 203.445312 217.59375 205.347656 214.648438 C 207.253906 211.703125 209.855469 200.769531 210.4375 200.3125 " fill-opacity="1" fill-rule="nonzero"/><path stroke-linecap="round" transform="matrix(0.0133014, 0, 0, -0.0132818, 68.139768, 289.722407)" fill="none" stroke-linejoin="round" d="M 10697.958665 6731.744313 C 10697.958665 6731.744313 10572.266924 6879.973096 10374.3318 6894.384227 C 10178.15871 6908.795359 9682.439882 6198.826548 9670.399319 5981.483155 C 9661.58915 5811.784728 9643.67514 5617.087399 9820.465859 5532.091133 C 9958.491836 5465.623464 10172.285264 5430.625002 10315.303669 5652.379966 C 10458.615747 5874.13493 10654.201493 6697.33406 10697.958665 6731.744313 Z M 10697.958665 6731.744313 " stroke="#161738" stroke-width="49.889999" stroke-opacity="1" stroke-miterlimit="10"/><path fill="#d8f2fd" d="M 206.671875 204.527344 C 206.671875 204.527344 203.269531 207.269531 202.800781 208.546875 L 205.863281 210.222656 L 207.230469 208.21875 L 206.671875 204.527344 " fill-opacity="1" fill-rule="nonzero"/><path stroke-linecap="round" transform="matrix(0.0133014, 0, 0, -0.0132818, 68.139768, 289.722407)" fill="none" stroke-linejoin="round" d="M 10414.858576 6414.405313 C 10414.858576 6414.405313 10159.070011 6207.943795 10123.829336 6111.771549 L 10354.068412 5985.600621 L 10456.853714 6136.476346 Z M 10414.858576 6414.405313 " stroke="#161738" stroke-width="49.889999" stroke-opacity="1" stroke-miterlimit="10"/><path fill="#ffffff" d="M 196.828125 209.851562 C 196.800781 210.003906 196.777344 210.148438 196.769531 210.277344 C 196.652344 212.53125 196.414062 215.117188 198.765625 216.246094 C 200.601562 217.128906 203.445312 217.59375 205.347656 214.648438 C 205.566406 214.316406 205.792969 213.871094 206.023438 213.355469 C 205.097656 211.980469 202.449219 209.085938 196.828125 209.851562 " fill-opacity="1" fill-rule="nonzero"/><path stroke-linecap="round" transform="matrix(0.0133014, 0, 0, -0.0132818, 68.139768, 289.722407)" fill="none" stroke-linejoin="round" d="M 9674.804403 6013.54057 C 9672.748697 6002.070486 9670.986663 5991.188611 9670.399319 5981.483155 C 9661.58915 5811.784728 9643.67514 5617.087399 9820.465859 5532.091133 C 9958.491836 5465.623464 10172.285264 5430.625002 10315.303669 5652.379966 C 10331.749318 5677.378868 10348.782311 5710.906807 10366.108976 5749.728631 C 10296.508643 5853.253494 10097.39883 6071.185097 9674.804403 6013.54057 Z M 9674.804403 6013.54057 " stroke="#161738" stroke-width="49.889999" stroke-opacity="1" stroke-miterlimit="10"/><path fill="#66b5e7" d="M 215.402344 203.390625 C 215.402344 203.390625 215.699219 202.101562 215.375 201.613281 C 215.058594 201.121094 210.675781 199.582031 210.195312 199.734375 C 209.714844 199.886719 204.917969 203.949219 204.613281 208.117188 C 204.613281 208.117188 207.601562 210.769531 208.328125 211.101562 C 208.328125 211.101562 211.101562 211.585938 212.136719 210.261719 C 213.171875 208.933594 215.402344 203.390625 215.402344 203.390625 " fill-opacity="1" fill-rule="nonzero"/><path stroke-linecap="round" transform="matrix(0.0133014, 0, 0, -0.0132818, 68.139768, 289.722407)" fill="none" stroke-linejoin="round" d="M 11071.216146 6499.989789 C 11071.216146 6499.989789 11093.53524 6597.044348 11069.16044 6633.807439 C 11045.372985 6670.864635 10715.872674 6786.741897 10679.750983 6775.271813 C 10643.629291 6763.801728 10282.999717 6457.932813 10260.093279 6144.123069 C 10260.093279 6144.123069 10484.752581 5944.42596 10539.375627 5919.427058 C 10539.375627 5919.427058 10747.882954 5882.958072 10825.706111 5982.659574 C 10903.529268 6082.655181 11071.216146 6499.989789 11071.216146 6499.989789 Z M 11071.216146 6499.989789 " stroke="#161738" stroke-width="49.889999" stroke-opacity="1" stroke-miterlimit="10"/><path fill="#498cd1" d="M 226.875 191.191406 C 226.875 191.191406 224.761719 200.953125 223.140625 207.097656 L 212.53125 201.9375 C 212.53125 201.9375 209.777344 205.246094 209.011719 207.738281 C 208.246094 210.234375 219.328125 221.1875 223.894531 222.023438 C 231.964844 223.5 250.097656 214.46875 250.097656 214.46875 C 250.097656 214.46875 258.460938 225.945312 269.148438 242.597656 C 269.148438 242.597656 273.4375 243.113281 276.65625 240.722656 L 265.183594 197.203125 L 226.875 191.191406 " fill-opacity="1" fill-rule="nonzero"/><path stroke-linecap="round" transform="matrix(0.0133014, 0, 0, -0.0132818, 68.139768, 289.722407)" fill="none" stroke-linejoin="round" d="M 11933.731665 7418.47885 C 11933.731665 7418.47885 11774.854955 6683.511138 11652.980955 6220.884403 L 10855.367013 6609.396747 C 10855.367013 6609.396747 10648.328047 6360.290043 10590.768278 6172.651228 C 10533.208509 5984.718307 11366.356799 5160.048653 11709.659707 5097.110242 C 12316.38666 4985.938655 13679.613435 5665.908783 13679.613435 5665.908783 C 13679.613435 5665.908783 14308.36581 4801.829096 15111.853198 3548.060646 C 15111.853198 3548.060646 15434.305373 3509.238822 15676.291341 3689.230915 L 14813.775822 6965.851676 Z M 11933.731665 7418.47885 " stroke="#161738" stroke-width="49.889999" stroke-opacity="1" stroke-miterlimit="10"/><path fill="#df781b" d="M 271.46875 145.363281 C 262.738281 149.992188 255.859375 155.175781 258.78125 159.046875 C 258.78125 159.046875 260.53125 165.558594 275.675781 155.695312 C 274.917969 152.792969 273.492188 147.476562 271.46875 145.363281 " fill-opacity="1" fill-rule="nonzero"/><path stroke-linecap="round" transform="matrix(0.0133014, 0, 0, -0.0132818, 68.139768, 289.722407)" fill="none" stroke-linejoin="round" d="M 15286.294538 10868.915505 C 14629.936968 10520.401404 14112.780064 10130.124431 14332.446937 9838.666647 C 14332.446937 9838.666647 14464.012124 9348.394067 15602.579596 10091.008502 C 15545.607171 10309.528314 15438.416785 10709.804848 15286.294538 10868.915505 Z M 15286.294538 10868.915505 " stroke="#161738" stroke-width="49.889999" stroke-opacity="1" stroke-miterlimit="10"/><path fill="#f78f24" d="M 252.410156 149.617188 C 252.410156 149.617188 237.226562 145.1875 223.894531 198.175781 C 223.894531 198.175781 246.269531 211.46875 268.136719 202.972656 C 268.136719 202.972656 268.449219 152.230469 252.410156 149.617188 " fill-opacity="1" fill-rule="nonzero"/><path stroke-linecap="round" transform="matrix(0.0133014, 0, 0, -0.0132818, 68.139768, 289.722407)" fill="none" stroke-linejoin="round" d="M 13853.467431 10548.635457 C 13853.467431 10548.635457 12711.963236 10882.150217 11709.659707 6892.619599 C 11709.659707 6892.619599 13391.814589 5891.781214 15035.792074 6531.458994 C 15035.792074 6531.458994 15059.285857 10351.879395 13853.467431 10548.635457 Z M 13853.467431 10548.635457 " stroke="#161738" stroke-width="49.889999" stroke-opacity="1" stroke-miterlimit="10"/><path fill="#f78f24" d="M 251.660156 148.125 C 251.660156 148.125 244.34375 147.628906 243.386719 151.265625 C 242.425781 154.90625 250.757812 165.261719 254.617188 162.742188 C 258.296875 160.34375 262.488281 153.503906 259.894531 149.867188 C 259.894531 149.867188 259.894531 148.101562 251.660156 148.125 " fill-opacity="1" fill-rule="nonzero"/><path stroke-linecap="round" transform="matrix(0.0133014, 0, 0, -0.0132818, 68.139768, 289.722407)" fill="none" stroke-linejoin="round" d="M 13797.082351 10660.983463 C 13797.082351 10660.983463 13247.03415 10698.334763 13175.084439 10424.523263 C 13102.841055 10150.417657 13729.244052 9370.746027 14019.392275 9560.443575 C 14296.031573 9741.023878 14611.435614 10256.001254 14416.14354 10529.812755 C 14416.14354 10529.812755 14416.14354 10662.748091 13797.082351 10660.983463 Z M 13797.082351 10660.983463 " stroke="#161738" stroke-width="49.889999" stroke-opacity="1" stroke-miterlimit="10"/><path fill="#d8f2fd" d="M 199.351562 214.679688 C 197.648438 212.378906 198.710938 208.152344 199.253906 207.070312 C 199.6875 206.214844 202.488281 201.40625 206.308594 198.167969 C 206.25 198.164062 206.191406 198.15625 206.132812 198.152344 C 203.523438 197.960938 196.929688 207.390625 196.769531 210.277344 C 196.652344 212.53125 196.414062 215.117188 198.765625 216.246094 C 200.480469 217.074219 203.082031 217.535156 204.964844 215.179688 C 203.199219 215.699219 200.464844 216.179688 199.351562 214.679688 " fill-opacity="1" fill-rule="nonzero"/><path stroke-linecap="round" transform="matrix(0.0133014, 0, 0, -0.0132818, 68.139768, 289.722407)" fill="none" stroke-linejoin="round" d="M 9864.516703 5650.027128 C 9736.475584 5823.254812 9816.354447 6141.476127 9857.174896 6222.943136 C 9889.77252 6287.352071 10100.335552 6649.39499 10387.547053 6893.207808 C 10383.141969 6893.501913 10378.736884 6894.090122 10374.3318 6894.384227 C 10178.15871 6908.795359 9682.439882 6198.826548 9670.399319 5981.483155 C 9661.58915 5811.784728 9643.67514 5617.087399 9820.465859 5532.091133 C 9949.387995 5469.740931 10144.973741 5435.036573 10286.523785 5612.381723 C 10153.783909 5573.265794 9948.213306 5537.090913 9864.516703 5650.027128 Z M 9864.516703 5650.027128 " stroke="#161738" stroke-width="49.889999" stroke-opacity="1" stroke-miterlimit="10"/><path fill="#66b5e7" d="M 278.820312 239.933594 C 278.820312 239.933594 276.929688 233.941406 275.167969 234.140625 C 273.402344 234.335938 265.367188 236.578125 264.804688 238.257812 C 264.246094 239.933594 268.136719 244.226562 268.136719 244.226562 C 268.136719 244.226562 278.445312 243.105469 278.820312 239.933594 " fill-opacity="1" fill-rule="nonzero"/><path stroke-linecap="round" transform="matrix(0.0133014, 0, 0, -0.0132818, 68.139768, 289.722407)" fill="none" stroke-linejoin="round" d="M 15838.98579 3748.64007 C 15838.98579 3748.64007 15696.848401 4199.79672 15564.402198 4184.797379 C 15431.662322 4170.092143 14827.57842 4001.27603 14785.28961 3874.810997 C 14743.294472 3748.64007 15035.792074 3425.418975 15035.792074 3425.418975 C 15035.792074 3425.418975 15810.79325 3509.827031 15838.98579 3748.64007 Z M 15838.98579 3748.64007 " stroke="#161738" stroke-width="49.889999" stroke-opacity="1" stroke-miterlimit="10"/><path fill="#295daf" d="M 287.601562 236.765625 C 287.601562 236.765625 284.609375 233.75 280.875 235.832031 C 277.140625 237.910156 275.457031 240.121094 273.589844 240.867188 C 271.71875 241.613281 264.621094 244.226562 268.046875 248.539062 C 269.5625 250.445312 271.160156 251.132812 274.894531 250.382812 C 278.632812 249.640625 293.394531 243.292969 287.601562 236.765625 " fill-opacity="1" fill-rule="nonzero"/><g clip-path="url(#id6)"><path stroke-linecap="round" transform="matrix(0.0138201, 0, 0, -0.0137998, 68.139768, 289.722407)" fill="none" stroke-linejoin="round" d="M 15880.977338 3837.779701 C 15880.977338 3837.779701 15664.468223 4056.306024 15394.255803 3905.43228 C 15123.760734 3754.841602 15001.939026 3594.626707 14866.832816 3540.561257 C 14731.726606 3486.495807 14217.870769 3297.125198 14465.75392 2984.621234 C 14575.704372 2846.202359 14691.025153 2796.665952 14961.520222 2850.731402 C 15232.015292 2904.796852 16300.145768 3364.777777 15880.977338 3837.779701 Z M 15880.977338 3837.779701 " stroke="#161738" stroke-width="48.02" stroke-opacity="1" stroke-miterlimit="10"/></g><path fill="#ffffff" d="M 287.601562 236.765625 C 287.601562 236.765625 284.613281 233.75 280.875 235.832031 C 280.28125 236.160156 279.742188 236.496094 279.246094 236.824219 C 278.777344 239.03125 278.410156 242 279.390625 243.363281 C 281.0625 245.671875 287.371094 239.179688 287.371094 239.179688 L 288.378906 237.851562 C 288.179688 237.488281 287.921875 237.125 287.601562 236.765625 " fill-opacity="1" fill-rule="nonzero"/><path stroke-linecap="round" transform="matrix(0.0135116, 0, 0, -0.0134917, 68.139768, 289.722407)" fill="none" stroke-linejoin="round" d="M 16242.528694 3925.141875 C 16242.528694 3925.141875 16021.074699 4148.659157 15744.690861 3994.339583 C 15700.457883 3969.729519 15660.850575 3945.119456 15623.845208 3920.509392 C 15589.152676 3757.214383 15561.976859 3537.171462 15634.831176 3436.125437 C 15758.278769 3265.013113 16225.182428 3746.212237 16225.182428 3746.212237 L 16300.060476 3844.652491 C 16285.027046 3871.289265 16266.235258 3898.5051 16242.528694 3925.141875 Z M 16242.528694 3925.141875 " stroke="#161738" stroke-width="49.113998" stroke-opacity="1" stroke-miterlimit="10"/><path fill="#ffffff" d="M 287.601562 236.765625 C 287.601562 236.765625 287.261719 236.417969 286.667969 236.046875 C 285.277344 236.3125 283.421875 237.097656 281.621094 239.179688 C 278.070312 243.292969 276.203125 242.921875 273.589844 244.226562 C 271.722656 245.15625 268.605469 246.277344 267.417969 247.523438 C 267.566406 247.847656 267.769531 248.1875 268.046875 248.539062 C 269.5625 250.445312 271.160156 251.132812 274.894531 250.382812 C 278.632812 249.640625 293.394531 243.292969 287.601562 236.765625 " fill-opacity="1" fill-rule="nonzero"/><g clip-path="url(#id7)"><path stroke-linecap="round" transform="matrix(0.0138201, 0, 0, -0.0137998, 68.139768, 289.722407)" fill="none" stroke-linejoin="round" d="M 15880.977338 3837.779701 C 15880.977338 3837.779701 15856.386877 3862.689437 15813.424233 3889.863695 C 15712.801198 3870.615263 15578.542935 3813.71916 15448.241757 3662.562352 C 15191.313839 3364.777777 15056.207629 3391.66897 14866.832816 3297.125198 C 14732.009255 3229.472619 14506.455373 3148.232911 14420.530084 3058.218182 C 14430.988096 3034.440707 14445.685843 3009.814036 14465.75392 2984.621234 C 14575.704372 2846.202359 14691.025153 2796.665952 14961.520222 2850.731402 C 15232.015292 2904.796852 16300.145768 3364.777777 15880.977338 3837.779701 Z M 15880.977338 3837.779701 " stroke="#161738" stroke-width="48.02" stroke-opacity="1" stroke-miterlimit="10"/></g><path fill="#d8f2fd" d="M 287.996094 237.253906 C 286.113281 237.578125 283.527344 238.554688 281.621094 241.335938 C 278.644531 245.667969 269.757812 245.621094 267.601562 247.882812 C 267.722656 248.09375 267.867188 248.3125 268.046875 248.539062 C 269.5625 250.445312 271.160156 251.132812 274.894531 250.382812 C 278.539062 249.65625 292.65625 243.609375 287.996094 237.253906 " fill-opacity="1" fill-rule="nonzero"/><g clip-path="url(#id8)"><path stroke-linecap="round" transform="matrix(0.0137736, 0, 0, -0.0137533, 68.139768, 289.722407)" fill="none" stroke-linejoin="round" d="M 15961.597706 3814.964873 C 15825.184021 3791.39105 15637.437953 3720.101538 15499.039038 3518.161922 C 15282.648932 3203.181565 14637.449075 3206.589829 14480.899483 3042.141112 C 14489.974822 3026.519904 14500.468182 3010.614674 14513.230377 2994.425422 C 14623.552462 2855.538682 14739.26303 2805.834839 15010.388773 2860.083034 C 15274.991615 2912.911119 16299.937675 3352.861139 15961.597706 3814.964873 Z M 15961.597706 3814.964873 " stroke="#161738" stroke-width="48.178001" stroke-opacity="1" stroke-miterlimit="10"/></g><path fill="#fbcbb1" d="M 246.015625 183.640625 C 244.761719 182.699219 242.816406 182.28125 242.816406 182.28125 C 242.816406 182.28125 243.050781 179.410156 241.644531 180.042969 C 240.378906 180.617188 239.300781 181.488281 238.730469 181.992188 C 237.21875 180.003906 230.167969 170.742188 228.835938 169.410156 L 236.3125 163.765625 L 232.667969 158.644531 C 232.667969 158.644531 221.832031 165.769531 220.335938 168.570312 C 218.953125 171.15625 234.40625 182.433594 236.746094 184.121094 C 236.460938 184.636719 236.132812 185.484375 236.488281 186.199219 C 237.050781 187.320312 240.105469 190.210938 241.226562 190.300781 C 242.347656 190.390625 243.308594 188.019531 243.308594 188.019531 L 244.347656 186.480469 C 246.246094 185.78125 246.515625 184.015625 246.015625 183.640625 " fill-opacity="1" fill-rule="nonzero"/><path stroke-linecap="round" transform="matrix(0.0133014, 0, 0, -0.0132818, 68.139768, 289.722407)" fill="none" stroke-linejoin="round" d="M 13372.725891 7986.983287 C 13278.457085 8057.862526 13132.208284 8089.331732 13132.208284 8089.331732 C 13132.208284 8089.331732 13149.828622 8305.498706 13044.106597 8257.85374 C 12948.956775 8214.620346 12867.903222 8149.034992 12825.027068 8111.095482 C 12711.375891 8260.794788 12181.297406 8958.117095 12081.155155 9058.406807 L 12643.24392 9483.388137 L 12369.247672 9868.959434 C 12369.247672 9868.959434 11554.600737 9332.512412 11442.12425 9121.639323 C 11338.164259 8926.941994 12499.931842 8077.861648 12675.841544 7950.808406 C 12654.403467 7911.986582 12629.734994 7848.165856 12656.459173 7794.344691 C 12698.747983 7709.936634 12928.399714 7492.299137 13012.683662 7485.534728 C 13096.967609 7478.770319 13169.210993 7657.291888 13169.210993 7657.291888 L 13247.327822 7773.169151 C 13390.052556 7825.813897 13410.315944 7958.749233 13372.725891 7986.983287 Z M 13372.725891 7986.983287 " stroke="#161738" stroke-width="49.889999" stroke-opacity="1" stroke-miterlimit="10"/><path fill="#fbcbb1" d="M 286.535156 117.382812 C 286.535156 117.382812 284.234375 110.066406 282.765625 101.136719 C 280.492188 87.316406 278.328125 82.195312 274.328125 78.476562 C 258.960938 64.207031 226.371094 66.414062 218.316406 85.1875 C 216.070312 90.421875 214.179688 95.960938 212.976562 101.4375 C 211.367188 100.347656 209.566406 99.925781 207.871094 100.425781 C 204.15625 101.523438 202.390625 106.613281 203.925781 111.789062 C 205.246094 116.242188 209.085938 119.152344 212.0625 119.3125 C 213.425781 127.492188 217.835938 134.332031 226.929688 138.089844 C 230.636719 139.621094 234.769531 140.902344 239.085938 141.859375 L 239.082031 141.859375 C 240.941406 142.230469 246.074219 143.894531 246.660156 145.28125 C 247.058594 146.226562 247.023438 151.164062 247.023438 151.164062 C 249.359375 152.765625 255.558594 152.160156 256.433594 151.382812 C 257.089844 150.796875 255.996094 147.753906 256.507812 145.570312 C 256.691406 144.785156 257.503906 144.195312 258.464844 143.761719 C 275.730469 143.203125 290.230469 135.886719 286.535156 117.382812 " fill-opacity="1" fill-rule="nonzero"/><path stroke-linecap="round" transform="matrix(0.0138561, 0, 0, -0.0138357, 68.139768, 289.722407)" fill="none" stroke-linejoin="round" d="M 15762.287983 12456.448528 C 15762.287983 12456.448528 15595.957325 12985.255461 15490.238687 13630.947641 C 15326.16336 14629.554219 15169.981692 14999.97317 14881.29933 15268.470443 C 13772.240334 16300.109808 11419.93015 16140.592501 10838.618597 14783.424896 C 10676.516684 14405.100662 10540.069162 14004.75457 10453.520836 13608.925783 C 10337.089376 13687.696276 10207.12593 13718.18808 10084.774226 13682.049646 C 9816.671759 13602.714489 9689.24556 13235.118854 9800.038693 12860.747261 C 9895.326426 12538.889331 10172.450216 12328.552351 10387.27049 12316.976759 C 10485.659303 11725.774561 10803.942883 11231.694405 11460.244191 10959.809154 C 11727.782825 10849.135199 12026.050343 10756.530461 12337.567931 10687.641571 L 12337.286015 10687.359239 C 12471.478207 10660.820077 12841.916316 10540.264519 12884.203771 10440.319161 C 12912.959241 10371.712603 12910.70391 10014.845564 12910.70391 10014.845564 C 13079.007982 9899.089642 13526.40926 9942.851027 13589.558526 9999.034999 C 13637.202393 10041.384727 13557.983893 10261.320979 13594.914937 10419.144298 C 13608.165007 10475.892933 13666.803612 10518.524992 13736.436955 10549.86379 C 14982.22539 10590.237197 16028.980868 11119.04413 15762.287983 12456.448528 Z M 15762.287983 12456.448528 " stroke="#161738" stroke-width="47.894001" stroke-opacity="1" stroke-miterlimit="10"/><path fill="#6a2448" d="M 269.75 111.625 C 269.75 113.519531 270.785156 115.050781 272.058594 115.050781 C 273.335938 115.050781 274.371094 113.519531 274.371094 111.625 C 274.371094 109.730469 273.335938 108.195312 272.058594 108.195312 C 270.785156 108.195312 269.75 109.730469 269.75 111.625 " fill-opacity="1" fill-rule="nonzero"/><path stroke-linecap="round" transform="matrix(0.0133014, 0, 0, -0.0132818, 68.139768, 289.722407)" fill="none" stroke-linejoin="round" d="M 15157.07873 13409.09803 C 15157.07873 13266.457237 15234.901887 13151.168185 15330.639054 13151.168185 C 15426.669893 13151.168185 15504.493051 13266.457237 15504.493051 13409.09803 C 15504.493051 13551.738822 15426.669893 13667.32198 15330.639054 13667.32198 C 15234.901887 13667.32198 15157.07873 13551.738822 15157.07873 13409.09803 Z M 15157.07873 13409.09803 " stroke="#161738" stroke-width="49.889999" stroke-opacity="1" stroke-miterlimit="10"/><path fill="#6a2448" d="M 239.515625 111.625 C 239.515625 113.519531 240.550781 115.050781 241.828125 115.050781 C 243.101562 115.050781 244.136719 113.519531 244.136719 111.625 C 244.136719 109.730469 243.101562 108.195312 241.828125 108.195312 C 240.550781 108.195312 239.515625 109.730469 239.515625 111.625 " fill-opacity="1" fill-rule="nonzero"/><path stroke-linecap="round" transform="matrix(0.0133014, 0, 0, -0.0132818, 68.139768, 289.722407)" fill="none" stroke-linejoin="round" d="M 12884.055198 13409.09803 C 12884.055198 13266.457237 12961.878356 13151.168185 13057.909195 13151.168185 C 13153.646361 13151.168185 13231.469519 13266.457237 13231.469519 13409.09803 C 13231.469519 13551.738822 13153.646361 13667.32198 13057.909195 13667.32198 C 12961.878356 13667.32198 12884.055198 13551.738822 12884.055198 13409.09803 Z M 12884.055198 13409.09803 " stroke="#161738" stroke-width="49.889999" stroke-opacity="1" stroke-miterlimit="10"/><path fill="#161738" d="M 263.140625 117.464844 C 263.140625 117.464844 263.117188 117.4375 263.070312 117.378906 C 263.027344 117.332031 262.960938 117.257812 262.875 117.167969 C 262.777344 117.082031 262.675781 116.964844 262.535156 116.855469 C 262.386719 116.753906 262.25 116.605469 262.058594 116.5 C 261.871094 116.386719 261.683594 116.242188 261.449219 116.15625 C 261.21875 116.058594 260.988281 115.941406 260.722656 115.890625 C 260.589844 115.855469 260.460938 115.816406 260.324219 115.78125 C 260.1875 115.757812 260.046875 115.757812 259.90625 115.742188 L 259.480469 115.707031 C 259.371094 115.703125 259.1875 115.71875 259.042969 115.722656 C 258.726562 115.734375 258.46875 115.792969 258.179688 115.835938 C 257.898438 115.910156 257.613281 115.957031 257.351562 116.054688 C 257.085938 116.132812 256.832031 116.214844 256.597656 116.320312 C 256.355469 116.40625 256.148438 116.523438 255.953125 116.625 C 255.75 116.722656 255.585938 116.835938 255.4375 116.9375 C 255.285156 117.03125 255.160156 117.125 255.074219 117.214844 C 254.882812 117.386719 254.773438 117.480469 254.773438 117.480469 L 254.746094 117.507812 C 254.667969 117.578125 254.542969 117.570312 254.472656 117.488281 C 254.40625 117.417969 254.40625 117.304688 254.472656 117.230469 C 254.472656 117.230469 254.578125 117.109375 254.769531 116.894531 C 254.859375 116.78125 254.988281 116.667969 255.144531 116.550781 C 255.296875 116.425781 255.46875 116.277344 255.679688 116.164062 C 255.882812 116.035156 256.109375 115.902344 256.359375 115.792969 C 256.605469 115.667969 256.875 115.554688 257.160156 115.464844 C 257.441406 115.351562 257.746094 115.292969 258.046875 115.210938 C 258.355469 115.15625 258.703125 115.082031 259.007812 115.070312 C 259.167969 115.0625 259.292969 115.039062 259.488281 115.046875 L 259.972656 115.09375 C 260.136719 115.113281 260.296875 115.125 260.453125 115.152344 C 260.601562 115.195312 260.753906 115.238281 260.902344 115.285156 C 261.203125 115.355469 261.472656 115.484375 261.71875 115.621094 C 261.980469 115.738281 262.183594 115.910156 262.382812 116.050781 C 262.589844 116.183594 262.734375 116.359375 262.882812 116.488281 C 263.019531 116.628906 263.125 116.769531 263.214844 116.875 C 263.394531 117.109375 263.46875 117.246094 263.46875 117.246094 L 263.46875 117.25 C 263.519531 117.34375 263.484375 117.464844 263.386719 117.515625 C 263.300781 117.5625 263.199219 117.539062 263.140625 117.464844 " fill-opacity="1" fill-rule="nonzero"/><path stroke-linecap="round" transform="matrix(0.0133014, 0, 0, -0.0132818, 68.139768, 289.722407)" fill="none" stroke-linejoin="round" d="M 10333.511351 13522.034245 C 10333.511351 13522.034245 10292.690903 13981.719933 10552.884553 14008.777568 C 10747.589282 14029.070794 10932.01548 13656.146 10932.01548 13656.146 C 10932.01548 13656.146 10849.493567 13491.741458 10949.048473 13404.980564 C 10949.048473 13404.980564 10982.527114 12912.061042 10667.416746 13077.642003 " stroke="#161738" stroke-width="49.889999" stroke-opacity="1" stroke-miterlimit="10"/><path stroke-linecap="round" transform="matrix(0.0133014, 0, 0, -0.0132818, 68.139768, 289.722407)" fill="none" stroke-linejoin="round" d="M 10533.502182 13470.271813 C 10533.502182 13470.271813 10423.375073 13667.616085 10559.639016 13773.199682 C 10559.639016 13773.199682 10685.330756 13887.60642 10823.356733 13828.785475 " stroke="#161738" stroke-width="49.889999" stroke-opacity="1" stroke-miterlimit="10"/><path stroke-linecap="round" transform="matrix(0.0133014, 0, 0, -0.0132818, 68.139768, 289.722407)" fill="none" stroke-linejoin="round" d="M 10849.493567 13792.904698 C 10849.493567 13792.904698 10586.069522 13380.275767 10947.28644 13298.220548 " stroke="#161738" stroke-width="49.889999" stroke-opacity="1" stroke-miterlimit="10"/><path fill="#161738" d="M 245.867188 97.613281 C 245.859375 97.609375 245.761719 97.527344 245.535156 97.394531 C 245.3125 97.265625 244.984375 97.082031 244.558594 96.925781 C 244.355469 96.835938 244.117188 96.777344 243.867188 96.699219 C 243.617188 96.648438 243.355469 96.5625 243.070312 96.539062 C 242.929688 96.523438 242.789062 96.503906 242.644531 96.484375 C 242.5 96.480469 242.347656 96.476562 242.199219 96.472656 C 241.902344 96.449219 241.601562 96.503906 241.296875 96.519531 C 241 96.5625 240.703125 96.628906 240.40625 96.683594 C 240.121094 96.777344 239.835938 96.863281 239.566406 96.949219 C 239.300781 97.066406 239.046875 97.179688 238.804688 97.285156 C 238.570312 97.402344 238.359375 97.539062 238.15625 97.652344 C 237.746094 97.867188 237.453125 98.125 237.226562 98.277344 C 237.007812 98.4375 236.882812 98.527344 236.882812 98.527344 L 236.875 98.535156 C 236.816406 98.578125 236.730469 98.566406 236.691406 98.507812 C 236.648438 98.449219 236.660156 98.371094 236.714844 98.328125 C 236.714844 98.328125 236.839844 98.230469 237.058594 98.058594 C 237.28125 97.894531 237.570312 97.613281 237.984375 97.375 C 238.1875 97.253906 238.398438 97.101562 238.640625 96.972656 C 238.890625 96.851562 239.152344 96.722656 239.417969 96.589844 C 239.699219 96.480469 239.996094 96.382812 240.292969 96.273438 C 240.601562 96.199219 240.914062 96.117188 241.234375 96.0625 C 241.554688 96.035156 241.875 95.964844 242.195312 95.976562 C 242.355469 95.972656 242.515625 95.972656 242.671875 95.96875 C 242.828125 95.984375 242.984375 95.996094 243.136719 96.007812 C 243.441406 96.023438 243.726562 96.101562 244.003906 96.144531 C 244.277344 96.21875 244.535156 96.273438 244.765625 96.363281 C 245.230469 96.515625 245.601562 96.699219 245.855469 96.832031 C 246.109375 96.96875 246.261719 97.078125 246.253906 97.074219 C 246.402344 97.179688 246.4375 97.386719 246.332031 97.535156 C 246.222656 97.683594 246.015625 97.71875 245.867188 97.613281 " fill-opacity="1" fill-rule="nonzero"/><path fill="#161738" d="M 267.996094 98.179688 C 267.988281 98.1875 268.140625 98.074219 268.394531 97.941406 C 268.652344 97.804688 269.019531 97.621094 269.484375 97.46875 C 269.714844 97.378906 269.976562 97.324219 270.246094 97.25 C 270.523438 97.207031 270.808594 97.128906 271.113281 97.113281 C 271.265625 97.101562 271.421875 97.089844 271.578125 97.074219 C 271.734375 97.078125 271.894531 97.078125 272.050781 97.082031 C 272.375 97.070312 272.695312 97.136719 273.015625 97.167969 C 273.332031 97.226562 273.648438 97.308594 273.953125 97.382812 C 274.253906 97.488281 274.550781 97.589844 274.828125 97.699219 C 275.097656 97.828125 275.359375 97.957031 275.605469 98.078125 C 275.847656 98.207031 276.058594 98.359375 276.265625 98.484375 C 276.679688 98.722656 276.96875 99 277.191406 99.164062 C 277.410156 99.335938 277.535156 99.433594 277.535156 99.433594 C 277.589844 99.480469 277.601562 99.558594 277.554688 99.617188 C 277.511719 99.671875 277.433594 99.683594 277.375 99.640625 L 277.367188 99.632812 C 277.367188 99.632812 277.238281 99.542969 277.019531 99.382812 C 276.796875 99.230469 276.503906 98.972656 276.09375 98.757812 C 275.890625 98.644531 275.679688 98.507812 275.445312 98.390625 C 275.203125 98.285156 274.949219 98.171875 274.683594 98.058594 C 274.410156 97.96875 274.128906 97.878906 273.84375 97.789062 C 273.550781 97.734375 273.25 97.664062 272.949219 97.625 C 272.648438 97.609375 272.347656 97.558594 272.046875 97.582031 C 271.898438 97.585938 271.753906 97.589844 271.605469 97.59375 C 271.464844 97.609375 271.320312 97.628906 271.179688 97.644531 C 270.898438 97.667969 270.632812 97.753906 270.378906 97.800781 C 270.136719 97.882812 269.898438 97.941406 269.691406 98.03125 C 269.265625 98.1875 268.941406 98.371094 268.714844 98.5 C 268.492188 98.632812 268.390625 98.710938 268.382812 98.71875 C 268.234375 98.824219 268.027344 98.789062 267.921875 98.640625 C 267.8125 98.492188 267.847656 98.285156 267.996094 98.179688 " fill-opacity="1" fill-rule="nonzero"/><path fill="#ffffff" d="M 266.085938 123.609375 C 266.085938 123.609375 266.082031 123.625 266.082031 123.660156 C 266.082031 123.683594 266.066406 123.75 266.03125 123.84375 C 266 123.929688 265.960938 124.039062 265.914062 124.167969 C 265.878906 124.277344 265.828125 124.398438 265.773438 124.539062 C 265.652344 124.804688 265.496094 125.125 265.277344 125.464844 C 265.167969 125.632812 265.042969 125.8125 264.910156 126 C 264.761719 126.171875 264.605469 126.355469 264.4375 126.542969 C 264.269531 126.734375 264.066406 126.902344 263.859375 127.085938 C 263.644531 127.261719 263.433594 127.457031 263.175781 127.609375 C 262.925781 127.765625 262.664062 127.929688 262.394531 128.089844 C 262.113281 128.226562 261.816406 128.347656 261.511719 128.476562 C 261.359375 128.535156 261.203125 128.597656 261.046875 128.648438 C 260.886719 128.691406 260.726562 128.730469 260.5625 128.773438 C 260.238281 128.851562 259.902344 128.925781 259.566406 128.980469 C 259.234375 129.015625 258.894531 129.027344 258.554688 129.042969 L 258.046875 129.0625 L 257.554688 129.011719 C 257.230469 128.976562 256.902344 128.941406 256.578125 128.894531 C 256.25 128.851562 255.96875 128.746094 255.664062 128.671875 C 255.371094 128.578125 255.078125 128.488281 254.789062 128.398438 C 254.5 128.316406 254.261719 128.164062 254 128.050781 C 253.75 127.933594 253.503906 127.804688 253.269531 127.679688 C 253.152344 127.621094 253.035156 127.558594 252.921875 127.496094 C 252.808594 127.429688 252.710938 127.355469 252.609375 127.28125 C 252.207031 127 251.835938 126.71875 251.507812 126.449219 C 251.167969 126.195312 250.914062 125.90625 250.6875 125.652344 C 250.457031 125.402344 250.265625 125.175781 250.117188 124.984375 C 249.816406 124.601562 249.664062 124.367188 249.664062 124.367188 C 249.070312 123.433594 249.34375 122.195312 250.277344 121.601562 C 250.65625 121.359375 251.085938 121.257812 251.503906 121.289062 L 251.777344 121.308594 C 251.777344 121.308594 252.03125 121.328125 252.445312 121.390625 C 252.652344 121.421875 252.894531 121.46875 253.160156 121.527344 C 253.433594 121.582031 253.726562 121.675781 254.042969 121.714844 C 254.359375 121.769531 254.691406 121.832031 255.027344 121.917969 C 255.367188 122.015625 255.710938 122.019531 256.054688 122.097656 C 256.222656 122.125 256.402344 122.179688 256.5625 122.191406 C 256.730469 122.203125 256.894531 122.21875 257.0625 122.238281 C 257.394531 122.3125 257.703125 122.289062 258.003906 122.316406 L 258.230469 122.335938 L 258.441406 122.324219 C 258.582031 122.324219 258.71875 122.316406 258.859375 122.332031 C 258.992188 122.328125 259.117188 122.296875 259.25 122.296875 L 259.445312 122.300781 C 259.511719 122.296875 259.570312 122.277344 259.628906 122.269531 C 259.757812 122.253906 259.882812 122.246094 260.007812 122.234375 C 260.125 122.210938 260.25 122.191406 260.375 122.171875 C 260.503906 122.164062 260.617188 122.121094 260.734375 122.097656 C 260.855469 122.070312 260.984375 122.058594 261.09375 122.019531 C 261.214844 121.988281 261.328125 121.957031 261.4375 121.925781 C 261.550781 121.894531 261.65625 121.859375 261.753906 121.828125 C 261.964844 121.769531 262.144531 121.699219 262.300781 121.652344 C 262.375 121.628906 262.441406 121.601562 262.507812 121.585938 C 262.570312 121.566406 262.597656 121.578125 262.632812 121.574219 C 262.664062 121.574219 262.699219 121.570312 262.730469 121.546875 C 262.761719 121.527344 262.773438 121.519531 262.773438 121.519531 L 262.796875 121.507812 C 263.851562 120.902344 265.191406 121.261719 265.800781 122.3125 C 266.035156 122.71875 266.125 123.171875 266.085938 123.609375 " fill-opacity="1" fill-rule="nonzero"/><path stroke-linecap="round" transform="matrix(0.0133014, 0, 0, -0.0132818, 68.139768, 289.722407)" fill="none" stroke-linejoin="round" d="M 14881.614121 12506.784728 C 14881.614121 12506.784728 14881.320449 12505.608309 14881.320449 12502.961367 C 14881.320449 12501.196738 14880.14576 12496.196958 14877.502709 12489.138445 C 14875.153331 12482.668141 14872.216608 12474.433208 14868.692541 12464.727752 C 14866.04949 12456.49282 14862.23175 12447.375573 14858.120338 12436.787803 C 14849.016497 12416.788682 14837.269606 12392.672094 14820.823957 12367.084983 C 14812.601133 12354.43848 14803.20362 12340.909662 14793.218762 12326.792635 C 14782.059215 12313.852027 14770.312323 12300.029105 14757.684415 12285.912078 C 14745.056506 12271.500947 14729.785547 12258.854443 14714.220916 12245.031521 C 14698.06894 12231.796809 14682.210636 12217.091572 14662.828265 12205.621488 C 14644.033238 12193.857299 14624.357195 12181.5049 14604.093806 12169.446607 C 14582.949402 12159.152941 14560.630307 12150.035695 14537.723869 12140.330239 C 14526.270649 12135.918668 14514.523758 12131.212992 14502.776866 12127.389631 C 14490.736302 12124.154479 14478.695738 12121.213431 14466.361502 12117.978279 C 14441.986702 12112.096185 14416.730885 12106.508195 14391.475068 12102.390729 C 14366.512923 12099.743786 14340.963434 12098.861472 14315.413944 12097.685053 L 14277.236547 12096.21453 L 14240.233838 12100.037891 C 14215.859038 12102.684834 14191.190565 12105.331776 14166.815765 12108.861033 C 14142.147293 12112.096185 14121.002888 12120.037012 14098.096449 12125.625002 C 14076.071027 12132.683516 14054.045606 12139.447924 14032.313856 12146.212333 C 14010.582106 12152.388532 13992.668097 12163.858617 13972.992053 12172.387654 C 13954.197027 12181.210796 13935.695672 12190.916252 13918.075335 12200.327603 C 13909.265166 12204.739174 13900.454997 12209.444849 13891.938501 12214.150525 C 13883.422005 12219.150305 13876.080197 12224.738295 13868.444718 12230.326285 C 13838.196472 12251.501825 13810.297604 12272.677366 13785.629132 12292.970592 C 13760.079642 12312.087399 13740.990943 12333.851149 13723.957951 12352.967956 C 13706.631285 12371.790659 13692.241343 12388.848733 13681.081796 12403.259864 C 13658.46903 12432.082128 13647.01581 12449.728411 13647.01581 12449.728411 C 13602.377622 12520.019441 13622.934682 12613.250639 13693.12236 12657.954558 C 13721.608572 12676.189051 13753.912524 12683.835774 13785.335459 12681.482936 L 13805.89252 12680.012412 C 13805.89252 12680.012412 13824.981219 12678.541889 13856.110481 12673.836213 C 13871.675113 12671.483375 13889.882795 12667.954118 13910.146183 12663.542548 C 13930.409571 12659.425081 13952.434993 12652.366568 13976.222448 12649.425521 C 14000.009904 12645.308054 14024.972049 12640.602379 14050.227866 12634.132075 C 14075.777355 12626.779457 14101.620517 12626.485352 14127.463678 12620.603257 C 14140.091587 12618.544524 14153.600512 12614.427058 14165.641076 12613.544744 C 14178.268985 12612.66243 14190.603221 12611.486011 14203.231129 12610.015487 C 14228.193274 12604.427497 14251.393385 12606.192126 14274.006151 12604.133393 L 14291.039144 12602.662869 L 14306.897448 12603.545183 C 14317.469651 12603.545183 14327.748181 12604.133393 14338.320383 12602.956974 C 14348.305241 12603.251079 14357.702754 12605.603916 14367.687612 12605.603916 L 14382.371227 12605.309812 C 14387.363656 12605.603916 14391.76874 12607.07444 14396.173825 12607.662649 C 14405.86501 12608.839068 14415.262523 12609.427278 14424.660037 12610.309592 C 14433.470205 12612.07422 14442.867719 12613.544744 14452.265232 12615.015268 C 14461.956418 12615.603477 14470.472914 12618.838629 14479.283083 12620.603257 C 14488.386924 12622.66199 14498.078109 12623.544305 14506.300934 12626.485352 C 14515.404775 12628.83819 14523.921271 12631.191028 14532.144095 12633.543865 C 14540.660592 12635.896703 14548.589744 12638.543646 14555.931551 12640.896484 C 14571.789854 12645.308054 14585.29878 12650.60194 14597.045672 12654.131196 C 14602.625445 12655.895825 14607.617874 12657.954558 14612.610303 12659.130977 C 14617.30906 12660.6015 14619.364766 12659.719186 14622.007816 12660.013291 C 14624.357195 12660.013291 14627.000245 12660.307396 14629.349624 12662.072024 C 14631.699002 12663.542548 14632.580019 12664.130757 14632.580019 12664.130757 L 14634.342052 12665.013071 C 14713.633571 12710.599304 14814.363167 12683.541669 14860.176044 12604.427497 C 14877.796382 12573.840606 14884.550844 12539.724458 14881.614121 12506.784728 Z M 14881.614121 12506.784728 " stroke="#161738" stroke-width="49.889999" stroke-opacity="1" stroke-miterlimit="10"/><path fill="#da674e" d="M 211.21875 100.542969 C 211.21875 100.542969 216.820312 106.160156 221.492188 105.824219 C 221.492188 105.824219 216.445312 95.042969 221.492188 88.886719 C 226.535156 82.730469 235.0625 79.933594 236.3125 74.523438 C 236.3125 74.523438 248.019531 84.96875 250.730469 83.664062 C 253.441406 82.355469 250.730469 75.734375 250.730469 75.734375 C 250.730469 75.734375 260.089844 86.523438 263.304688 85.46875 C 266.519531 84.410156 262.378906 77.695312 262.378906 77.695312 C 262.378906 77.695312 271.566406 87.183594 273.621094 86.449219 C 275.675781 85.714844 274.371094 79.746094 274.371094 79.746094 C 274.371094 79.746094 278.667969 84.386719 279.355469 86.449219 C 280.042969 88.511719 281.582031 94.6875 281.582031 94.6875 C 281.582031 94.6875 287.519531 79.59375 283.597656 72.652344 C 283.597656 72.652344 289.503906 74.332031 290.8125 72.839844 C 292.121094 71.347656 284.269531 63.886719 279.601562 61.648438 C 279.601562 61.648438 284.316406 60.339844 284.832031 58.289062 C 285.347656 56.238281 269.402344 54.371094 266.09375 55.492188 C 266.09375 55.492188 274.375 52.503906 274.371094 49.332031 C 274.367188 46.164062 253.667969 50.453125 249.347656 53.8125 C 249.347656 53.8125 254.1875 48.585938 253.628906 47.09375 C 253.066406 45.601562 239.710938 50.851562 235.597656 54.953125 C 235.597656 54.953125 237.582031 49.53125 234.195312 49.144531 C 227.65625 48.402344 219.621094 55.488281 216.820312 61.832031 C 216.820312 61.832031 203.371094 62.765625 202.367188 77.503906 C 202.367188 77.503906 199.441406 93.179688 204.453125 103.378906 C 204.453125 103.378906 206.179688 99.699219 211.21875 100.542969 " fill-opacity="1" fill-rule="nonzero"/><path stroke-linecap="round" transform="matrix(0.0149986, 0, 0, -0.0149766, 68.139768, 289.722407)" fill="none" stroke-linejoin="round" d="M 9539.459098 12631.672788 C 9539.459098 12631.672788 9912.669838 12256.608377 10224.156261 12279.039211 C 10224.156261 12279.039211 9887.667583 12998.651666 10224.156261 13409.70974 C 10560.64494 13820.767815 11129.185795 14007.778373 11212.266203 14369.01913 C 11212.266203 14369.01913 11992.805343 13671.315863 12173.55081 13758.691786 C 12354.296276 13845.806886 12173.55081 14288.163798 12173.55081 14288.163798 C 12173.55081 14288.163798 12797.565418 13567.508049 13011.907664 13638.191259 C 13226.51035 13708.874469 12950.183348 14157.230325 12950.183348 14157.230325 C 12950.183348 14157.230325 13562.738589 13523.428852 13699.730109 13572.724522 C 13836.98207 13621.498545 13749.734619 14020.297908 13749.734619 14020.297908 C 13749.734619 14020.297908 14036.479228 13710.43941 14082.316695 13572.724522 C 14128.154162 13435.009634 14230.767582 13022.647441 14230.767582 13022.647441 C 14230.767582 13022.647441 14626.636615 14030.209207 14364.894261 14493.692836 C 14364.894261 14493.692836 14758.940213 14381.538666 14845.927225 14481.173301 C 14933.174676 14581.068759 14409.950408 15079.241933 14098.463984 15228.693886 C 14098.463984 15228.693886 14412.815249 15316.069809 14447.45379 15453.002226 C 14481.83189 15589.934643 13418.715184 15714.347525 13198.122374 15639.75196 C 13198.122374 15639.75196 13749.995059 15839.02123 13749.734619 16050.810035 C 13749.734619 16262.59884 12369.401805 15976.214471 12081.615436 15751.906131 C 12081.615436 15751.906131 12404.300786 16100.627353 12366.797404 16200.522811 C 12329.294022 16299.896622 11438.849137 15949.610458 11164.605655 15675.484801 C 11164.605655 15675.484801 11297.169694 16037.508029 11071.36808 16063.32957 C 10635.130823 16113.146888 10099.665868 15639.75196 9912.669838 15216.17435 C 9912.669838 15216.17435 9016.234829 15153.837498 8949.04127 14169.749861 C 8949.04127 14169.749861 8754.232035 13123.325371 9088.376752 12442.314817 C 9088.376752 12442.314817 9203.4913 12688.010697 9539.459098 12631.672788 Z M 9539.459098 12631.672788 " stroke="#161738" stroke-width="44.243999" stroke-opacity="1" stroke-miterlimit="10"/><path fill="#f78f24" d="M 228.835938 159.71875 C 235.976562 154.277344 242.625 150.886719 244.847656 154.808594 C 244.847656 154.808594 248.617188 159.113281 233.570312 167.328125 C 232.652344 166.832031 231.8125 166.128906 231.242188 165.402344 C 230.058594 163.890625 229.480469 162.269531 228.976562 160.316406 C 228.925781 160.121094 228.878906 159.921875 228.835938 159.71875 " fill-opacity="1" fill-rule="nonzero"/><path stroke-linecap="round" transform="matrix(0.0133014, 0, 0, -0.0132818, 68.139768, 289.722407)" fill="none" stroke-linejoin="round" d="M 12081.155155 9788.080634 C 12617.988103 10197.768518 13117.818342 10453.051421 13284.917876 10157.770275 C 13284.917876 10157.770275 13568.311636 9833.666867 12437.085972 9215.164626 C 12368.072983 9252.515926 12304.933441 9305.454777 12262.057286 9360.158256 C 12173.074582 9473.976786 12129.611083 9596.030247 12091.727357 9743.082611 C 12087.909618 9757.787847 12084.38555 9772.787188 12081.155155 9788.080634 Z M 12081.155155 9788.080634 " stroke="#161738" stroke-width="49.889999" stroke-opacity="1" stroke-miterlimit="10"/></svg>