<svg xmlns="http://www.w3.org/2000/svg" xmlns:xlink="http://www.w3.org/1999/xlink" width="559" zoomAndPan="magnify" viewBox="0 0 419.25 297.749993" height="396" preserveAspectRatio="xMidYMid meet" version="1.0"><defs><clipPath id="id1"><path d="M 0 0.140625 L 418.5 0.140625 L 418.5 297.359375 L 0 297.359375 Z M 0 0.140625 " clip-rule="nonzero"/></clipPath><clipPath id="id2"><path d="M 121.011719 35 L 297.699219 35 L 297.699219 267.175781 L 121.011719 267.175781 Z M 121.011719 35 " clip-rule="nonzero"/></clipPath><clipPath id="id3"><path d="M 179 96 L 297.699219 96 L 297.699219 179 L 179 179 Z M 179 96 " clip-rule="nonzero"/></clipPath><clipPath id="id4"><path d="M 121.011719 35 L 294 35 L 294 267.175781 L 121.011719 267.175781 Z M 121.011719 35 " clip-rule="nonzero"/></clipPath></defs><g clip-path="url(#id1)"><path fill="#ffffff" d="M 0 0.140625 L 419.25 0.140625 L 419.25 2425.054688 L 0 2425.054688 Z M 0 0.140625 " fill-opacity="1" fill-rule="nonzero"/><path fill="#ffe8a8" d="M 0 0.140625 L 418.5 0.140625 L 418.5 297.359375 L 0 297.359375 Z M 0 0.140625 " fill-opacity="1" fill-rule="nonzero"/><path fill="#ffffff" d="M 0 0.140625 L 418.5 0.140625 L 418.5 297.359375 L 0 297.359375 Z M 0 0.140625 " fill-opacity="1" fill-rule="nonzero"/><path fill="#ffe8a8" d="M 0 0.140625 L 418.5 0.140625 L 418.5 297.359375 L 0 297.359375 Z M 0 0.140625 " fill-opacity="1" fill-rule="nonzero"/></g><g clip-path="url(#id2)"><path fill="#ffcfbb" d="M 297.199219 106.488281 C 297.191406 106.171875 297.183594 105.851562 297.171875 105.535156 C 297.15625 105.222656 297.136719 104.910156 297.117188 104.597656 C 297.097656 104.347656 297.078125 104.097656 297.054688 103.847656 C 297.023438 103.496094 296.988281 103.144531 296.945312 102.792969 C 296.921875 102.609375 296.898438 102.429688 296.871094 102.25 C 296.609375 100.304688 296.1875 98.382812 295.589844 96.511719 C 295.578125 96.480469 295.570312 96.449219 295.5625 96.414062 L 295.558594 96.417969 C 295.296875 95.597656 295.011719 94.78125 294.679688 93.980469 C 294.472656 93.476562 294.257812 92.992188 294.039062 92.523438 C 294.007812 92.457031 293.976562 92.398438 293.945312 92.332031 C 293.960938 92.355469 293.976562 92.378906 293.992188 92.402344 C 293.199219 90.132812 292.105469 87.949219 290.703125 85.945312 C 289.292969 83.949219 287.558594 82.128906 285.484375 80.710938 C 283.433594 79.269531 281.015625 78.273438 278.449219 77.914062 C 278.355469 77.902344 278.257812 77.898438 278.164062 77.886719 C 279.394531 70.3125 278.417969 60.96875 271.171875 51.566406 C 254.421875 29.847656 205.65625 32.011719 183.320312 47.863281 C 174.144531 54.375 167.140625 60.851562 163.507812 69.113281 C 153.476562 68.929688 146.058594 75.402344 138.316406 81.585938 C 128.089844 89.753906 121.347656 86.625 121.347656 86.625 C 121.347656 86.625 133.53125 109.722656 148.140625 114.097656 C 150.785156 114.886719 153.394531 115.292969 155.921875 115.351562 C 156.492188 120.671875 159.6875 126.101562 164.644531 128.832031 C 163.046875 136.429688 159.542969 146.148438 151.867188 150.480469 C 151.867188 150.480469 169.027344 161.25 195.050781 165.5625 C 194.199219 168.503906 193.375 171.636719 192.601562 174.929688 C 192.601562 174.929688 192.597656 174.929688 192.597656 174.929688 C 192.582031 174.996094 192.570312 175.0625 192.554688 175.128906 C 192.28125 176.289062 192.019531 177.464844 191.761719 178.664062 C 191.703125 178.9375 191.644531 179.210938 191.585938 179.484375 C 191.476562 180.003906 191.367188 180.53125 191.261719 181.058594 C 191.171875 181.492188 191.089844 181.929688 191.003906 182.367188 C 190.917969 182.8125 190.828125 183.257812 190.746094 183.707031 C 190.582031 184.566406 190.425781 185.433594 190.273438 186.3125 C 190.21875 186.632812 190.167969 186.957031 190.113281 187.28125 C 189.996094 187.976562 189.882812 188.675781 189.769531 189.378906 C 189.722656 189.691406 189.671875 190.003906 189.625 190.316406 C 189.472656 191.3125 189.324219 192.316406 189.1875 193.332031 C 189.1875 193.332031 189.1875 193.332031 189.1875 193.335938 C 188.707031 196.84375 188.328125 200.117188 188.03125 203.148438 C 187.535156 208.199219 187.265625 212.582031 187.136719 216.285156 C 187.101562 217.273438 187.074219 218.210938 187.058594 219.101562 C 187.03125 220.4375 187.027344 221.664062 187.03125 222.777344 C 187.035156 223.15625 187.039062 223.523438 187.042969 223.878906 C 187.050781 224.558594 187.066406 225.191406 187.085938 225.777344 C 187.09375 226.082031 187.105469 226.378906 187.113281 226.660156 C 187.125 226.933594 187.136719 227.195312 187.148438 227.445312 C 187.171875 227.941406 187.195312 228.390625 187.222656 228.792969 C 187.246094 229.191406 187.269531 229.542969 187.296875 229.84375 C 187.320312 230.144531 187.339844 230.394531 187.359375 230.59375 C 187.398438 230.996094 187.421875 231.199219 187.421875 231.199219 C 187.421875 231.199219 193.175781 232.632812 203.0625 233.851562 C 202.914062 240.59375 202.871094 247.074219 203.027344 252.359375 C 203.027344 252.359375 203.027344 252.359375 203.027344 252.363281 C 203.121094 255.640625 203.292969 258.460938 203.566406 260.589844 C 203.570312 260.613281 203.570312 260.636719 203.574219 260.660156 C 203.609375 260.925781 203.644531 261.183594 203.683594 261.425781 C 203.6875 261.445312 203.6875 261.46875 203.691406 261.484375 C 203.695312 261.503906 203.699219 261.519531 203.699219 261.535156 C 203.75 261.851562 203.804688 262.152344 203.859375 262.425781 C 203.859375 262.433594 203.859375 262.445312 203.863281 262.453125 C 203.917969 262.734375 203.980469 262.992188 204.042969 263.226562 C 204.054688 263.261719 204.0625 263.292969 204.074219 263.328125 C 204.125 263.511719 204.179688 263.679688 204.234375 263.832031 C 204.25 263.878906 204.269531 263.925781 204.285156 263.972656 C 204.351562 264.140625 204.421875 264.296875 204.496094 264.421875 C 204.523438 264.464844 204.554688 264.507812 204.597656 264.550781 C 204.613281 264.566406 204.632812 264.582031 204.648438 264.59375 C 204.679688 264.625 204.707031 264.652344 204.746094 264.679688 C 204.769531 264.695312 204.796875 264.714844 204.820312 264.730469 C 204.859375 264.753906 204.898438 264.78125 204.941406 264.804688 C 204.96875 264.824219 205.003906 264.839844 205.039062 264.859375 C 205.082031 264.882812 205.128906 264.90625 205.179688 264.933594 C 205.214844 264.949219 205.257812 264.96875 205.296875 264.984375 C 205.351562 265.007812 205.402344 265.03125 205.460938 265.054688 C 205.503906 265.074219 205.550781 265.089844 205.597656 265.109375 C 205.65625 265.132812 205.714844 265.152344 205.78125 265.175781 C 205.832031 265.195312 205.886719 265.210938 205.941406 265.230469 C 206.003906 265.253906 206.070312 265.273438 206.140625 265.292969 C 206.199219 265.3125 206.257812 265.332031 206.316406 265.347656 C 206.390625 265.371094 206.464844 265.390625 206.542969 265.410156 C 206.601562 265.429688 206.667969 265.445312 206.730469 265.464844 C 206.8125 265.484375 206.894531 265.503906 206.976562 265.527344 C 207.042969 265.542969 207.113281 265.558594 207.179688 265.578125 C 207.269531 265.597656 207.355469 265.617188 207.449219 265.636719 C 207.519531 265.65625 207.589844 265.671875 207.664062 265.6875 C 207.761719 265.707031 207.859375 265.726562 207.957031 265.746094 C 208.03125 265.761719 208.105469 265.777344 208.179688 265.792969 C 208.28125 265.8125 208.390625 265.832031 208.496094 265.851562 C 208.574219 265.867188 208.652344 265.882812 208.730469 265.898438 C 208.839844 265.917969 208.949219 265.9375 209.0625 265.957031 C 209.144531 265.96875 209.222656 265.984375 209.308594 266 C 209.429688 266.019531 209.554688 266.039062 209.679688 266.058594 C 209.757812 266.074219 209.832031 266.085938 209.910156 266.097656 C 210.089844 266.125 210.273438 266.152344 210.457031 266.179688 C 210.484375 266.183594 210.511719 266.1875 210.539062 266.191406 C 210.753906 266.222656 210.96875 266.25 211.191406 266.28125 C 211.269531 266.292969 211.351562 266.300781 211.433594 266.3125 C 211.578125 266.332031 211.722656 266.351562 211.871094 266.371094 C 211.964844 266.382812 212.066406 266.394531 212.164062 266.40625 C 212.296875 266.421875 212.433594 266.4375 212.570312 266.453125 C 212.679688 266.464844 212.789062 266.476562 212.898438 266.488281 C 213.027344 266.503906 213.152344 266.519531 213.28125 266.53125 C 213.402344 266.542969 213.527344 266.558594 213.652344 266.570312 C 213.773438 266.582031 213.894531 266.59375 214.019531 266.605469 C 214.144531 266.621094 214.273438 266.632812 214.398438 266.644531 C 214.523438 266.65625 214.648438 266.667969 214.773438 266.679688 C 214.902344 266.691406 215.027344 266.703125 215.15625 266.710938 C 215.285156 266.722656 215.417969 266.734375 215.550781 266.746094 C 215.675781 266.757812 215.800781 266.765625 215.929688 266.777344 C 216.0625 266.789062 216.199219 266.796875 216.335938 266.808594 C 216.464844 266.820312 216.597656 266.828125 216.726562 266.835938 C 216.855469 266.847656 216.988281 266.855469 217.117188 266.867188 C 217.257812 266.875 217.394531 266.882812 217.535156 266.894531 C 217.664062 266.902344 217.792969 266.910156 217.921875 266.917969 C 218.066406 266.925781 218.207031 266.9375 218.347656 266.945312 C 218.476562 266.953125 218.601562 266.957031 218.730469 266.964844 C 218.878906 266.972656 219.023438 266.980469 219.171875 266.988281 C 219.296875 266.996094 219.417969 267.003906 219.542969 267.007812 C 219.695312 267.015625 219.847656 267.023438 220 267.03125 C 220.121094 267.035156 220.242188 267.039062 220.363281 267.046875 C 220.519531 267.054688 220.675781 267.058594 220.835938 267.066406 C 220.945312 267.070312 221.054688 267.074219 221.164062 267.078125 C 221.332031 267.082031 221.5 267.089844 221.667969 267.09375 C 221.757812 267.097656 221.847656 267.101562 221.933594 267.101562 C 222.640625 267.125 223.351562 267.140625 224.054688 267.148438 C 224.082031 267.148438 224.105469 267.148438 224.128906 267.148438 C 224.328125 267.152344 224.527344 267.152344 224.722656 267.15625 C 224.804688 267.15625 224.882812 267.15625 224.964844 267.15625 C 225.140625 267.160156 225.316406 267.160156 225.492188 267.160156 C 225.59375 267.160156 225.699219 267.160156 225.800781 267.160156 C 225.972656 267.160156 226.140625 267.15625 226.308594 267.15625 C 226.414062 267.15625 226.515625 267.15625 226.617188 267.152344 C 226.789062 267.152344 226.960938 267.148438 227.132812 267.148438 C 227.234375 267.144531 227.332031 267.144531 227.433594 267.144531 C 227.601562 267.140625 227.769531 267.136719 227.9375 267.132812 C 228.039062 267.128906 228.140625 267.128906 228.242188 267.125 C 228.40625 267.121094 228.570312 267.117188 228.734375 267.113281 C 228.835938 267.109375 228.9375 267.105469 229.039062 267.101562 C 229.203125 267.097656 229.363281 267.089844 229.523438 267.082031 C 229.625 267.078125 229.726562 267.074219 229.824219 267.070312 C 229.984375 267.0625 230.144531 267.058594 230.304688 267.050781 C 230.402344 267.042969 230.5 267.039062 230.597656 267.035156 C 230.753906 267.027344 230.914062 267.015625 231.070312 267.007812 C 231.164062 267.003906 231.257812 266.996094 231.351562 266.992188 C 231.507812 266.980469 231.667969 266.96875 231.824219 266.960938 C 231.910156 266.953125 231.992188 266.945312 232.078125 266.941406 C 232.242188 266.929688 232.402344 266.917969 232.558594 266.902344 C 232.632812 266.898438 232.707031 266.890625 232.78125 266.886719 C 232.945312 266.871094 233.113281 266.855469 233.273438 266.839844 C 233.335938 266.835938 233.394531 266.828125 233.453125 266.824219 C 233.628906 266.804688 233.804688 266.789062 233.976562 266.769531 C 233.996094 266.769531 234.019531 266.765625 234.039062 266.761719 C 234.878906 266.671875 235.664062 266.5625 236.390625 266.433594 C 236.417969 266.429688 236.449219 266.425781 236.476562 266.417969 C 236.617188 266.394531 236.753906 266.367188 236.894531 266.339844 C 236.945312 266.332031 237 266.320312 237.050781 266.308594 C 237.179688 266.285156 237.300781 266.257812 237.425781 266.230469 C 237.484375 266.21875 237.539062 266.207031 237.597656 266.191406 C 237.714844 266.164062 237.828125 266.136719 237.941406 266.109375 C 237.996094 266.097656 238.054688 266.082031 238.113281 266.066406 C 238.21875 266.039062 238.324219 266.011719 238.425781 265.980469 C 238.484375 265.964844 238.542969 265.949219 238.597656 265.933594 C 238.695312 265.902344 238.789062 265.875 238.882812 265.84375 C 238.941406 265.824219 238.996094 265.808594 239.050781 265.789062 C 239.140625 265.757812 239.226562 265.726562 239.3125 265.695312 C 239.363281 265.675781 239.414062 265.65625 239.460938 265.636719 C 239.546875 265.605469 239.625 265.570312 239.703125 265.539062 C 239.75 265.519531 239.796875 265.496094 239.839844 265.476562 C 239.914062 265.441406 239.988281 265.40625 240.058594 265.371094 C 240.101562 265.351562 240.140625 265.328125 240.179688 265.308594 C 240.246094 265.273438 240.3125 265.234375 240.375 265.199219 C 240.410156 265.175781 240.445312 265.152344 240.480469 265.128906 C 240.539062 265.089844 240.597656 265.054688 240.652344 265.015625 C 240.679688 264.992188 240.707031 264.96875 240.738281 264.945312 C 240.789062 264.902344 240.839844 264.863281 240.886719 264.820312 C 240.910156 264.796875 240.929688 264.777344 240.949219 264.753906 C 240.996094 264.707031 241.039062 264.664062 241.078125 264.617188 C 241.09375 264.597656 241.101562 264.578125 241.117188 264.5625 C 241.15625 264.507812 241.195312 264.457031 241.222656 264.402344 C 241.4375 264.46875 241.671875 264.53125 241.914062 264.589844 C 241.945312 264.597656 241.976562 264.609375 242.007812 264.617188 C 242.105469 264.636719 242.203125 264.660156 242.304688 264.683594 C 242.359375 264.695312 242.414062 264.710938 242.46875 264.722656 C 242.566406 264.746094 242.667969 264.765625 242.769531 264.789062 C 242.832031 264.800781 242.894531 264.8125 242.957031 264.828125 C 243.058594 264.847656 243.164062 264.867188 243.269531 264.890625 C 243.339844 264.902344 243.40625 264.917969 243.476562 264.929688 C 243.582031 264.949219 243.691406 264.96875 243.800781 264.988281 C 243.875 265 243.945312 265.015625 244.019531 265.027344 C 244.132812 265.046875 244.246094 265.066406 244.363281 265.085938 C 244.4375 265.097656 244.511719 265.109375 244.582031 265.121094 C 244.707031 265.140625 244.828125 265.160156 244.953125 265.179688 C 245.019531 265.191406 245.089844 265.203125 245.160156 265.210938 C 245.292969 265.234375 245.425781 265.253906 245.5625 265.273438 C 245.574219 265.273438 245.589844 265.277344 245.601562 265.277344 C 245.929688 265.324219 246.269531 265.371094 246.617188 265.414062 C 246.679688 265.421875 246.742188 265.429688 246.804688 265.4375 C 246.9375 265.453125 247.070312 265.46875 247.203125 265.484375 C 247.296875 265.496094 247.390625 265.507812 247.488281 265.519531 C 247.621094 265.535156 247.753906 265.550781 247.890625 265.5625 C 247.984375 265.574219 248.082031 265.585938 248.175781 265.59375 C 248.3125 265.609375 248.453125 265.625 248.59375 265.640625 C 248.691406 265.648438 248.792969 265.660156 248.894531 265.667969 C 249.03125 265.683594 249.167969 265.695312 249.308594 265.710938 C 249.414062 265.71875 249.523438 265.730469 249.632812 265.738281 C 249.765625 265.753906 249.902344 265.765625 250.039062 265.777344 C 250.15625 265.785156 250.269531 265.796875 250.386719 265.804688 C 250.519531 265.816406 250.652344 265.828125 250.789062 265.839844 C 250.910156 265.847656 251.03125 265.859375 251.152344 265.867188 C 251.289062 265.878906 251.421875 265.890625 251.558594 265.898438 C 251.691406 265.910156 251.824219 265.917969 251.960938 265.925781 C 252.195312 265.945312 252.433594 265.960938 252.671875 265.976562 C 252.808594 265.984375 252.945312 265.992188 253.082031 266 C 253.21875 266.007812 253.359375 266.015625 253.5 266.023438 C 253.625 266.03125 253.75 266.039062 253.878906 266.046875 C 254.015625 266.054688 254.15625 266.0625 254.296875 266.066406 C 254.425781 266.074219 254.558594 266.082031 254.6875 266.085938 C 254.824219 266.09375 254.960938 266.101562 255.097656 266.105469 C 255.230469 266.113281 255.363281 266.117188 255.5 266.125 C 255.636719 266.128906 255.773438 266.132812 255.910156 266.140625 C 256.050781 266.144531 256.191406 266.148438 256.328125 266.15625 C 256.460938 266.160156 256.585938 266.164062 256.71875 266.167969 C 256.867188 266.171875 257.015625 266.175781 257.164062 266.179688 C 257.289062 266.183594 257.414062 266.1875 257.535156 266.191406 C 257.691406 266.195312 257.84375 266.199219 258 266.199219 C 258.121094 266.203125 258.242188 266.207031 258.363281 266.207031 C 258.601562 266.214844 258.84375 266.214844 259.082031 266.21875 C 259.160156 266.21875 259.234375 266.222656 259.3125 266.222656 C 259.535156 266.222656 259.757812 266.226562 259.980469 266.226562 C 260.074219 266.226562 260.171875 266.226562 260.269531 266.226562 C 260.445312 266.230469 260.621094 266.230469 260.792969 266.226562 C 260.90625 266.226562 261.019531 266.226562 261.132812 266.226562 C 261.289062 266.226562 261.445312 266.226562 261.597656 266.222656 C 261.714844 266.222656 261.832031 266.222656 261.949219 266.21875 C 262.105469 266.21875 262.257812 266.214844 262.410156 266.210938 C 262.523438 266.210938 262.640625 266.207031 262.753906 266.207031 C 262.90625 266.203125 263.058594 266.199219 263.207031 266.195312 C 263.320312 266.191406 263.433594 266.191406 263.546875 266.1875 C 263.703125 266.179688 263.859375 266.175781 264.011719 266.171875 C 264.121094 266.167969 264.226562 266.164062 264.332031 266.160156 C 264.5 266.152344 264.667969 266.148438 264.835938 266.140625 C 264.921875 266.136719 265.011719 266.132812 265.097656 266.128906 C 265.351562 266.117188 265.605469 266.101562 265.855469 266.089844 C 265.859375 266.089844 265.863281 266.089844 265.867188 266.089844 C 266.113281 266.074219 266.351562 266.058594 266.59375 266.042969 C 266.671875 266.039062 266.753906 266.03125 266.832031 266.027344 C 266.996094 266.015625 267.160156 266.003906 267.320312 265.988281 C 267.414062 265.984375 267.503906 265.976562 267.59375 265.96875 C 267.738281 265.953125 267.886719 265.941406 268.027344 265.929688 C 268.121094 265.921875 268.214844 265.914062 268.308594 265.902344 C 268.449219 265.890625 268.589844 265.875 268.726562 265.859375 C 268.816406 265.851562 268.90625 265.84375 268.996094 265.832031 C 269.132812 265.816406 269.269531 265.800781 269.40625 265.785156 C 269.492188 265.777344 269.578125 265.765625 269.664062 265.753906 C 269.796875 265.738281 269.929688 265.71875 270.0625 265.703125 C 270.144531 265.691406 270.226562 265.679688 270.308594 265.667969 C 270.449219 265.648438 270.585938 265.628906 270.722656 265.609375 C 270.789062 265.597656 270.859375 265.585938 270.925781 265.578125 C 271.125 265.542969 271.320312 265.511719 271.511719 265.476562 C 271.519531 265.476562 271.523438 265.472656 271.53125 265.472656 C 271.714844 265.441406 271.898438 265.40625 272.074219 265.367188 C 272.132812 265.355469 272.1875 265.34375 272.246094 265.332031 C 272.371094 265.304688 272.492188 265.28125 272.609375 265.25 C 272.675781 265.238281 272.738281 265.222656 272.800781 265.207031 C 272.90625 265.179688 273.011719 265.152344 273.117188 265.125 C 273.179688 265.109375 273.242188 265.09375 273.308594 265.074219 C 273.402344 265.046875 273.5 265.019531 273.59375 264.992188 C 273.652344 264.972656 273.714844 264.957031 273.773438 264.9375 C 273.863281 264.910156 273.953125 264.878906 274.039062 264.851562 C 274.09375 264.832031 274.152344 264.8125 274.207031 264.789062 C 274.292969 264.757812 274.375 264.726562 274.453125 264.695312 C 274.503906 264.675781 274.554688 264.65625 274.601562 264.636719 C 274.6875 264.601562 274.769531 264.566406 274.847656 264.527344 C 274.886719 264.511719 274.925781 264.492188 274.960938 264.476562 C 275.1875 264.367188 275.386719 264.25 275.558594 264.125 C 275.589844 264.105469 275.613281 264.085938 275.640625 264.066406 C 275.695312 264.023438 275.75 263.980469 275.800781 263.9375 C 275.828125 263.914062 275.851562 263.886719 275.878906 263.863281 C 275.921875 263.824219 275.960938 263.78125 276 263.742188 C 276.023438 263.714844 276.042969 263.683594 276.066406 263.65625 C 276.097656 263.617188 276.128906 263.574219 276.152344 263.53125 C 276.171875 263.503906 276.1875 263.472656 276.203125 263.445312 C 276.226562 263.402344 276.246094 263.355469 276.265625 263.3125 C 276.277344 263.28125 276.289062 263.253906 276.296875 263.222656 C 276.3125 263.175781 276.320312 263.128906 276.328125 263.082031 C 276.332031 263.050781 276.339844 263.023438 276.34375 262.992188 C 276.347656 262.9375 276.34375 262.886719 276.34375 262.832031 C 276.339844 262.804688 276.34375 262.777344 276.339844 262.753906 C 276.332031 262.671875 276.3125 262.589844 276.289062 262.503906 C 275.460938 259.8125 273.152344 257.722656 270.589844 256.15625 C 270.589844 256.152344 270.585938 256.152344 270.582031 256.152344 C 270.226562 255.933594 269.867188 255.722656 269.503906 255.523438 C 269.488281 255.515625 269.472656 255.507812 269.457031 255.5 C 269.097656 255.304688 268.738281 255.121094 268.378906 254.945312 C 268.355469 254.933594 268.332031 254.921875 268.308594 254.910156 C 268.101562 254.808594 267.890625 254.710938 267.683594 254.613281 C 267.636719 254.59375 267.59375 254.574219 267.550781 254.554688 C 267.359375 254.46875 267.167969 254.382812 266.980469 254.304688 C 266.933594 254.28125 266.882812 254.261719 266.832031 254.238281 C 266.648438 254.160156 266.464844 254.082031 266.28125 254.007812 C 266.238281 253.992188 266.191406 253.972656 266.148438 253.953125 C 265.925781 253.867188 265.710938 253.78125 265.496094 253.699219 C 265.992188 252.613281 266.300781 251.269531 265.222656 250.640625 C 263.21875 249.472656 261.882812 251.558594 261.882812 251.558594 C 261.882812 251.558594 261.765625 251.15625 261.484375 250.707031 L 263.570312 231.703125 C 264.753906 231.417969 265.882812 231.132812 266.933594 230.851562 C 272.777344 229.308594 276.460938 227.972656 276.460938 227.972656 C 276.460938 227.972656 276.445312 227.863281 276.414062 227.667969 C 276.410156 227.640625 276.40625 227.613281 276.402344 227.578125 C 276.382812 227.472656 276.363281 227.339844 276.339844 227.191406 C 276.335938 227.160156 276.332031 227.128906 276.328125 227.097656 C 276.316406 227.023438 276.304688 226.941406 276.289062 226.859375 C 276.285156 226.832031 276.28125 226.800781 276.277344 226.773438 C 276.273438 226.746094 276.269531 226.722656 276.265625 226.695312 C 276.234375 226.496094 276.199219 226.277344 276.160156 226.03125 C 276.144531 225.929688 276.128906 225.828125 276.113281 225.71875 C 276.109375 225.695312 276.105469 225.675781 276.101562 225.652344 C 276.082031 225.527344 276.0625 225.394531 276.042969 225.261719 C 276.035156 225.214844 276.027344 225.171875 276.019531 225.125 C 276.007812 225.035156 275.992188 224.941406 275.976562 224.847656 C 275.960938 224.742188 275.945312 224.636719 275.925781 224.527344 C 275.914062 224.441406 275.898438 224.359375 275.886719 224.269531 C 275.871094 224.179688 275.855469 224.082031 275.839844 223.988281 C 275.824219 223.871094 275.804688 223.753906 275.785156 223.632812 C 275.777344 223.59375 275.773438 223.550781 275.765625 223.511719 C 275.707031 223.128906 275.644531 222.730469 275.574219 222.304688 C 275.507812 221.871094 275.433594 221.414062 275.359375 220.933594 C 275.332031 220.773438 275.304688 220.605469 275.28125 220.4375 C 275.265625 220.335938 275.25 220.242188 275.230469 220.140625 C 275.226562 220.109375 275.222656 220.078125 275.21875 220.046875 C 275.144531 219.601562 275.070312 219.132812 274.996094 218.652344 C 274.984375 218.589844 274.972656 218.527344 274.964844 218.460938 C 274.875 217.917969 274.785156 217.355469 274.691406 216.773438 C 274.691406 216.757812 274.6875 216.75 274.6875 216.734375 C 274.65625 216.542969 274.625 216.34375 274.59375 216.148438 C 274.570312 216.007812 274.546875 215.867188 274.523438 215.726562 C 274.433594 215.15625 274.339844 214.570312 274.242188 213.96875 C 274.234375 213.921875 274.226562 213.875 274.21875 213.828125 C 274.171875 213.542969 274.125 213.25 274.074219 212.953125 C 274.070312 212.914062 274.0625 212.875 274.054688 212.835938 C 273.949219 212.171875 273.835938 211.492188 273.722656 210.796875 C 273.71875 210.777344 273.714844 210.753906 273.710938 210.734375 C 273.664062 210.421875 273.609375 210.109375 273.558594 209.792969 C 273.546875 209.714844 273.53125 209.636719 273.519531 209.558594 C 273.46875 209.253906 273.417969 208.949219 273.367188 208.636719 C 273.359375 208.578125 273.351562 208.519531 273.339844 208.464844 C 273.289062 208.164062 273.242188 207.863281 273.191406 207.558594 C 273.171875 207.445312 273.152344 207.332031 273.132812 207.214844 C 273.085938 206.925781 273.039062 206.636719 272.988281 206.339844 C 272.976562 206.265625 272.960938 206.1875 272.949219 206.109375 C 272.894531 205.765625 272.835938 205.417969 272.777344 205.066406 C 272.777344 205.0625 272.777344 205.0625 272.777344 205.058594 C 272.480469 203.273438 272.167969 201.414062 271.84375 199.492188 C 271.679688 198.519531 271.511719 197.53125 271.339844 196.527344 C 271.25 196 271.160156 195.46875 271.066406 194.933594 C 270.761719 193.132812 270.441406 191.292969 270.117188 189.417969 C 270.109375 189.363281 270.097656 189.308594 270.089844 189.257812 C 270.019531 188.851562 269.945312 188.441406 269.875 188.03125 C 269.863281 187.960938 269.851562 187.886719 269.835938 187.8125 C 269.765625 187.410156 269.695312 187.003906 269.625 186.597656 C 269.613281 186.523438 269.597656 186.445312 269.585938 186.367188 C 269.515625 185.980469 269.449219 185.589844 269.378906 185.203125 C 269.359375 185.097656 269.34375 184.992188 269.324219 184.890625 C 269.253906 184.484375 269.183594 184.082031 269.109375 183.675781 C 269.097656 183.605469 269.085938 183.535156 269.074219 183.464844 C 268.996094 183.03125 268.921875 182.601562 268.84375 182.164062 C 268.835938 182.121094 268.828125 182.078125 268.820312 182.03125 C 268.746094 181.613281 268.667969 181.191406 268.59375 180.769531 C 268.574219 180.664062 268.554688 180.554688 268.535156 180.445312 C 268.464844 180.042969 268.394531 179.636719 268.320312 179.230469 C 268.308594 179.167969 268.296875 179.101562 268.285156 179.039062 C 268.207031 178.597656 268.125 178.160156 268.046875 177.71875 C 268.039062 177.667969 268.027344 177.617188 268.019531 177.570312 C 267.941406 177.125 267.859375 176.683594 267.78125 176.238281 C 267.765625 176.164062 267.753906 176.089844 267.738281 176.015625 C 267.660156 175.585938 267.585938 175.160156 267.507812 174.730469 C 267.492188 174.648438 267.476562 174.570312 267.460938 174.488281 C 267.386719 174.066406 267.308594 173.644531 267.230469 173.21875 C 267.214844 173.136719 267.199219 173.054688 267.183594 172.972656 C 267.105469 172.539062 267.027344 172.105469 266.945312 171.671875 C 266.945312 171.667969 266.945312 171.664062 266.945312 171.660156 C 266.398438 168.707031 265.84375 165.734375 265.277344 162.761719 C 265.265625 162.699219 265.253906 162.636719 265.242188 162.574219 C 265.0625 161.632812 264.882812 160.695312 264.699219 159.757812 C 281.570312 154.597656 287.921875 149.015625 287.921875 149.015625 C 287.921875 149.015625 285.621094 145.582031 282.507812 140.453125 C 282.746094 140.222656 282.976562 140.007812 283.222656 139.773438 C 288.1875 135 292.125 128.808594 294.546875 122.101562 C 294.742188 121.554688 294.929688 121.003906 295.105469 120.449219 C 295.171875 120.25 295.226562 120.046875 295.289062 119.847656 C 295.394531 119.496094 295.503906 119.144531 295.601562 118.789062 C 295.671875 118.535156 295.738281 118.28125 295.800781 118.03125 C 295.882812 117.726562 295.960938 117.425781 296.035156 117.121094 C 296.101562 116.835938 296.164062 116.550781 296.226562 116.265625 C 296.285156 115.996094 296.34375 115.722656 296.398438 115.453125 C 296.460938 115.140625 296.519531 114.828125 296.574219 114.511719 C 296.617188 114.273438 296.65625 114.035156 296.695312 113.792969 C 296.75 113.453125 296.800781 113.109375 296.847656 112.765625 C 296.875 112.5625 296.898438 112.355469 296.925781 112.148438 C 296.96875 111.777344 297.011719 111.402344 297.046875 111.027344 C 297.058594 110.863281 297.074219 110.703125 297.085938 110.539062 C 297.121094 110.125 297.148438 109.707031 297.171875 109.289062 C 297.175781 109.195312 297.179688 109.101562 297.183594 109.007812 C 297.207031 108.425781 297.214844 107.84375 297.214844 107.261719 C 297.214844 107.003906 297.203125 106.746094 297.199219 106.488281 Z M 236.9375 235.453125 C 237.195312 235.449219 237.453125 235.4375 237.710938 235.429688 C 237.660156 241.832031 237.71875 247.886719 237.949219 252.761719 C 237.953125 252.792969 237.953125 252.820312 237.953125 252.851562 C 237.980469 253.402344 238.007812 253.933594 238.039062 254.453125 C 238.046875 254.550781 238.050781 254.648438 238.058594 254.742188 C 238.089844 255.269531 238.125 255.785156 238.164062 256.273438 C 238.164062 256.277344 238.164062 256.285156 238.164062 256.289062 C 238.207031 256.828125 238.25 257.339844 238.300781 257.828125 C 238.300781 257.839844 238.300781 257.847656 238.300781 257.859375 C 238.351562 258.34375 238.402344 258.808594 238.457031 259.246094 C 238.199219 259.011719 237.925781 258.789062 237.652344 258.566406 C 237.597656 258.527344 237.546875 258.484375 237.496094 258.445312 C 236.929688 258.007812 236.332031 257.597656 235.714844 257.214844 C 235.664062 257.179688 235.613281 257.148438 235.558594 257.117188 C 234.929688 256.734375 234.285156 256.378906 233.640625 256.050781 C 233.597656 256.03125 233.554688 256.007812 233.515625 255.988281 C 232.851562 255.65625 232.191406 255.351562 231.546875 255.078125 C 231.523438 255.066406 231.503906 255.058594 231.480469 255.050781 C 231.15625 254.914062 230.835938 254.777344 230.519531 254.65625 C 231.140625 253.339844 231.589844 251.679688 230.484375 250.804688 C 228.476562 249.21875 226.808594 251.890625 226.808594 251.890625 C 226.808594 251.890625 226.445312 251.066406 225.769531 250.433594 L 227.621094 235.5 C 230.605469 235.542969 233.710938 235.535156 236.9375 235.453125 Z M 236.9375 235.453125 " fill-opacity="1" fill-rule="nonzero"/></g><path fill="#a0c4c3" d="M 254.347656 152.023438 L 251.195312 138.160156 C 248.148438 139.671875 244.96875 140.894531 241.707031 141.839844 L 243.550781 152.242188 L 225.476562 155.546875 L 223.730469 144.210938 C 219.78125 144.140625 215.851562 143.6875 212.015625 142.871094 L 214.015625 158.1875 C 214.015625 158.1875 210.515625 172.5625 192.597656 174.929688 C 192.3125 176.152344 192.03125 177.398438 191.761719 178.664062 C 191.703125 178.9375 191.644531 179.210938 191.585938 179.484375 C 191.476562 180.007812 191.367188 180.53125 191.261719 181.058594 C 191.171875 181.492188 191.089844 181.929688 191.003906 182.367188 C 190.917969 182.8125 190.828125 183.257812 190.746094 183.707031 C 190.582031 184.566406 190.425781 185.433594 190.273438 186.3125 C 190.21875 186.632812 190.167969 186.957031 190.113281 187.28125 C 189.996094 187.976562 189.882812 188.675781 189.769531 189.382812 C 189.722656 189.691406 189.671875 190.003906 189.625 190.320312 C 189.472656 191.3125 189.324219 192.316406 189.1875 193.332031 C 189.1875 193.332031 189.1875 193.335938 189.1875 193.335938 C 187.910156 202.695312 187.34375 210.359375 187.136719 216.285156 C 187.101562 217.273438 187.074219 218.210938 187.058594 219.101562 C 187.03125 220.4375 187.027344 221.664062 187.03125 222.777344 C 187.035156 223.160156 187.039062 223.523438 187.042969 223.878906 C 187.050781 224.558594 187.066406 225.191406 187.085938 225.777344 C 187.09375 226.082031 187.105469 226.378906 187.113281 226.660156 C 187.125 226.933594 187.136719 227.195312 187.148438 227.445312 C 187.171875 227.945312 187.195312 228.394531 187.222656 228.792969 C 187.246094 229.191406 187.269531 229.542969 187.296875 229.84375 C 187.320312 230.144531 187.339844 230.394531 187.359375 230.597656 C 187.398438 230.996094 187.421875 231.199219 187.421875 231.199219 C 187.421875 231.199219 193.175781 232.632812 203.0625 233.851562 C 209.597656 234.65625 217.9375 235.363281 227.621094 235.5 C 230.605469 235.542969 233.710938 235.535156 236.9375 235.457031 C 237.195312 235.449219 237.453125 235.4375 237.710938 235.429688 C 239.984375 235.355469 242.242188 235.203125 244.457031 234.988281 C 246.304688 234.808594 248.128906 234.589844 249.90625 234.335938 C 250.496094 234.25 251.085938 234.164062 251.667969 234.074219 C 256.019531 233.394531 260.058594 232.546875 263.570312 231.699219 C 264.753906 231.414062 265.882812 231.128906 266.933594 230.851562 C 272.777344 229.304688 276.460938 227.96875 276.460938 227.96875 C 276.460938 227.96875 276.445312 227.863281 276.414062 227.667969 C 276.410156 227.636719 276.40625 227.609375 276.402344 227.578125 C 276.386719 227.46875 276.363281 227.335938 276.339844 227.1875 C 276.335938 227.15625 276.332031 227.128906 276.328125 227.097656 C 276.316406 227.023438 276.304688 226.941406 276.289062 226.855469 C 276.285156 226.828125 276.28125 226.800781 276.277344 226.769531 C 276.273438 226.746094 276.269531 226.71875 276.265625 226.695312 C 276.234375 226.496094 276.199219 226.273438 276.160156 226.03125 C 276.144531 225.929688 276.128906 225.824219 276.113281 225.714844 C 276.109375 225.695312 276.105469 225.671875 276.101562 225.648438 C 276.082031 225.523438 276.0625 225.394531 276.042969 225.257812 C 276.035156 225.214844 276.027344 225.167969 276.019531 225.125 C 276.007812 225.03125 275.992188 224.941406 275.976562 224.84375 C 275.960938 224.742188 275.945312 224.636719 275.925781 224.527344 C 275.914062 224.441406 275.898438 224.355469 275.886719 224.269531 C 275.871094 224.175781 275.855469 224.082031 275.839844 223.984375 C 275.824219 223.871094 275.804688 223.753906 275.785156 223.628906 C 275.777344 223.589844 275.773438 223.550781 275.765625 223.507812 C 275.707031 223.128906 275.644531 222.730469 275.574219 222.304688 C 275.507812 221.871094 275.433594 221.410156 275.359375 220.933594 C 275.332031 220.769531 275.304688 220.601562 275.28125 220.4375 C 275.265625 220.335938 275.25 220.238281 275.230469 220.136719 C 275.226562 220.109375 275.222656 220.078125 275.21875 220.046875 C 275.144531 219.597656 275.070312 219.132812 274.996094 218.652344 C 274.984375 218.585938 274.972656 218.527344 274.964844 218.460938 C 274.875 217.917969 274.785156 217.351562 274.691406 216.769531 C 274.691406 216.757812 274.6875 216.746094 274.6875 216.734375 C 274.65625 216.542969 274.625 216.34375 274.59375 216.148438 C 274.570312 216.003906 274.546875 215.867188 274.523438 215.722656 C 274.433594 215.152344 274.339844 214.570312 274.242188 213.96875 C 274.234375 213.921875 274.226562 213.875 274.21875 213.828125 C 274.171875 213.539062 274.125 213.246094 274.074219 212.953125 C 274.070312 212.914062 274.0625 212.875 274.054688 212.835938 C 273.949219 212.171875 273.835938 211.492188 273.722656 210.796875 C 273.71875 210.773438 273.71875 210.753906 273.714844 210.730469 C 273.664062 210.421875 273.609375 210.109375 273.558594 209.792969 C 273.546875 209.714844 273.53125 209.636719 273.519531 209.558594 C 273.46875 209.253906 273.417969 208.945312 273.367188 208.636719 C 273.359375 208.578125 273.351562 208.519531 273.339844 208.460938 C 273.289062 208.164062 273.242188 207.859375 273.191406 207.554688 C 273.171875 207.441406 273.152344 207.328125 273.132812 207.214844 C 273.085938 206.925781 273.039062 206.632812 272.988281 206.339844 C 272.976562 206.261719 272.960938 206.183594 272.949219 206.109375 C 272.894531 205.761719 272.835938 205.414062 272.777344 205.0625 C 272.777344 205.0625 272.777344 205.058594 272.777344 205.058594 C 271.984375 200.296875 271.089844 195.007812 270.117188 189.414062 C 270.109375 189.359375 270.097656 189.308594 270.089844 189.253906 C 270.019531 188.847656 269.945312 188.441406 269.875 188.03125 C 269.863281 187.957031 269.851562 187.882812 269.835938 187.808594 C 269.765625 187.40625 269.695312 187 269.625 186.59375 C 269.613281 186.519531 269.597656 186.441406 269.585938 186.367188 C 269.515625 185.976562 269.449219 185.589844 269.378906 185.199219 C 269.363281 185.09375 269.34375 184.992188 269.324219 184.886719 C 269.253906 184.484375 269.183594 184.078125 269.109375 183.671875 C 269.097656 183.601562 269.085938 183.53125 269.074219 183.460938 C 268.996094 183.03125 268.921875 182.597656 268.84375 182.164062 C 268.835938 182.117188 268.828125 182.074219 268.820312 182.03125 C 268.746094 181.609375 268.667969 181.191406 268.59375 180.769531 C 268.574219 180.660156 268.558594 180.550781 268.539062 180.445312 C 268.464844 180.039062 268.394531 179.632812 268.320312 179.230469 C 268.308594 179.164062 268.296875 179.101562 268.285156 179.035156 C 268.207031 178.59375 268.125 178.15625 268.046875 177.714844 C 268.039062 177.664062 268.027344 177.617188 268.019531 177.566406 C 267.941406 177.125 267.859375 176.679688 267.78125 176.234375 C 267.765625 176.160156 267.753906 176.085938 267.738281 176.011719 C 267.664062 175.585938 267.585938 175.15625 267.507812 174.726562 C 267.492188 174.648438 267.476562 174.566406 267.460938 174.488281 C 267.386719 174.0625 267.308594 173.640625 267.230469 173.21875 C 267.214844 173.136719 267.199219 173.050781 267.183594 172.96875 C 267.105469 172.535156 267.027344 172.105469 266.945312 171.667969 C 266.945312 171.664062 266.945312 171.660156 266.945312 171.65625 C 266.398438 168.703125 265.84375 165.730469 265.277344 162.761719 C 265.265625 162.695312 265.253906 162.632812 265.242188 162.570312 C 257.984375 157.371094 254.347656 152.023438 254.347656 152.023438 Z M 250.601562 156.941406 C 253.28125 156.941406 255.449219 159.109375 255.449219 161.785156 C 255.449219 164.457031 253.28125 166.625 250.601562 166.625 C 247.921875 166.625 245.753906 164.457031 245.753906 161.785156 C 245.753906 159.109375 247.925781 156.941406 250.601562 156.941406 Z M 215.632812 164.71875 C 215.632812 162.042969 217.804688 159.875 220.480469 159.875 C 223.160156 159.875 225.332031 162.042969 225.332031 164.71875 C 225.332031 167.394531 223.160156 169.5625 220.480469 169.5625 C 217.804688 169.5625 215.632812 167.394531 215.632812 164.71875 Z M 215.632812 164.71875 " fill-opacity="1" fill-rule="nonzero"/><g clip-path="url(#id3)"><path fill="#ec6648" d="M 191.761719 178.664062 C 192.019531 177.464844 192.285156 176.285156 192.554688 175.128906 C 192.28125 176.285156 192.019531 177.464844 191.761719 178.664062 Z M 206.660156 141.464844 C 206.539062 141.386719 206.425781 141.316406 206.304688 141.238281 C 200.792969 137.714844 202.335938 129.789062 202.335938 129.789062 L 183.863281 111.777344 C 183.074219 113.46875 182.328125 115.34375 181.667969 117.363281 C 181.617188 117.527344 181.5625 117.691406 181.511719 117.859375 C 181.382812 118.257812 181.265625 118.660156 181.144531 119.070312 C 181.082031 119.296875 181.019531 119.527344 180.957031 119.757812 C 180.847656 120.144531 180.742188 120.53125 180.644531 120.929688 C 180.554688 121.292969 180.472656 121.664062 180.390625 122.035156 C 180.273438 122.546875 180.164062 123.066406 180.0625 123.589844 C 179.984375 123.988281 179.910156 124.386719 179.839844 124.792969 C 179.789062 125.101562 179.742188 125.414062 179.695312 125.726562 C 179.628906 126.148438 179.574219 126.570312 179.519531 127 C 179.480469 127.292969 179.445312 127.589844 179.414062 127.890625 C 179.355469 128.414062 179.308594 128.949219 179.269531 129.480469 C 179.253906 129.691406 179.230469 129.894531 179.21875 130.105469 C 179.191406 130.496094 179.179688 130.894531 179.164062 131.292969 C 179.152344 131.640625 179.132812 131.988281 179.128906 132.339844 C 179.125 132.558594 179.128906 132.78125 179.125 133 C 179.125 133.5625 179.128906 134.125 179.144531 134.695312 C 179.152344 134.964844 179.164062 135.238281 179.175781 135.507812 C 179.203125 136.0625 179.238281 136.621094 179.285156 137.183594 C 179.304688 137.433594 179.324219 137.679688 179.347656 137.929688 C 179.425781 138.734375 179.515625 139.542969 179.636719 140.355469 C 181.421875 152.34375 188.933594 160.125 195.304688 164.691406 C 195.21875 164.984375 195.136719 165.265625 195.050781 165.558594 C 194.199219 168.503906 193.375 171.632812 192.601562 174.929688 C 210.519531 172.558594 214.019531 158.183594 214.019531 158.183594 L 212.019531 142.867188 C 210.207031 142.484375 208.421875 142.015625 206.660156 141.464844 Z M 192.554688 175.128906 C 192.570312 175.0625 192.585938 174.996094 192.601562 174.929688 C 192.601562 174.929688 192.597656 174.929688 192.597656 174.929688 C 192.582031 174.996094 192.570312 175.0625 192.554688 175.128906 Z M 223.730469 144.210938 L 225.476562 155.546875 L 243.550781 152.242188 L 241.707031 141.839844 C 235.875 143.523438 229.789062 144.316406 223.730469 144.210938 Z M 242.082031 116.140625 C 238.140625 114.589844 234.246094 114.734375 231.011719 115.457031 C 230.480469 116.453125 229.996094 117.453125 229.5625 118.4375 C 229.539062 118.492188 229.515625 118.542969 229.492188 118.59375 C 229.308594 119.015625 229.132812 119.429688 228.964844 119.839844 C 228.933594 119.914062 228.902344 119.992188 228.871094 120.066406 C 228.6875 120.523438 228.511719 120.972656 228.351562 121.410156 C 228.242188 121.699219 228.140625 121.980469 228.042969 122.257812 C 228.003906 122.367188 227.964844 122.476562 227.929688 122.585938 C 227.859375 122.785156 227.789062 122.984375 227.726562 123.175781 C 227.695312 123.265625 227.664062 123.355469 227.636719 123.441406 C 227.550781 123.695312 227.472656 123.9375 227.398438 124.175781 C 227.367188 124.277344 227.335938 124.375 227.304688 124.472656 C 227.253906 124.636719 227.203125 124.800781 227.15625 124.957031 C 227.132812 125.039062 227.105469 125.125 227.082031 125.207031 C 227.019531 125.417969 226.960938 125.621094 226.90625 125.8125 C 226.882812 125.898438 226.859375 125.976562 226.839844 126.054688 C 226.800781 126.1875 226.765625 126.3125 226.734375 126.433594 C 226.714844 126.5 226.695312 126.570312 226.679688 126.636719 C 226.632812 126.796875 226.59375 126.949219 226.558594 127.089844 C 226.542969 127.148438 226.53125 127.195312 226.519531 127.25 C 226.496094 127.34375 226.472656 127.433594 226.453125 127.515625 C 226.441406 127.558594 226.429688 127.605469 226.417969 127.648438 C 226.394531 127.75 226.371094 127.847656 226.351562 127.921875 C 226.347656 127.941406 226.347656 127.953125 226.34375 127.96875 C 226.328125 128.035156 226.316406 128.085938 226.308594 128.125 C 226.304688 128.140625 226.300781 128.15625 226.296875 128.167969 C 226.292969 128.195312 226.289062 128.214844 226.289062 128.214844 C 226.582031 128.03125 226.898438 127.863281 227.222656 127.699219 C 227.324219 127.648438 227.433594 127.601562 227.535156 127.554688 C 227.769531 127.445312 228.011719 127.339844 228.257812 127.238281 C 228.382812 127.191406 228.503906 127.144531 228.628906 127.097656 C 228.886719 127 229.148438 126.910156 229.417969 126.824219 C 229.53125 126.785156 229.644531 126.746094 229.761719 126.710938 C 230.136719 126.597656 230.519531 126.488281 230.910156 126.390625 C 230.921875 126.390625 230.933594 126.386719 230.945312 126.382812 C 231.359375 126.28125 231.785156 126.1875 232.21875 126.101562 C 232.332031 126.078125 232.445312 126.058594 232.558594 126.039062 C 232.882812 125.976562 233.210938 125.921875 233.542969 125.867188 C 233.679688 125.847656 233.816406 125.828125 233.953125 125.804688 C 234.285156 125.757812 234.625 125.710938 234.964844 125.671875 C 235.082031 125.65625 235.199219 125.640625 235.316406 125.628906 C 235.769531 125.578125 236.230469 125.53125 236.691406 125.492188 C 237.242188 125.445312 237.796875 125.410156 238.355469 125.378906 C 238.460938 125.371094 238.566406 125.367188 238.675781 125.363281 C 239.191406 125.335938 239.710938 125.316406 240.226562 125.300781 C 240.257812 125.300781 240.289062 125.300781 240.320312 125.300781 C 240.875 125.285156 241.429688 125.28125 241.976562 125.277344 C 242.078125 125.277344 242.175781 125.277344 242.273438 125.28125 C 242.773438 125.28125 243.269531 125.285156 243.757812 125.292969 C 243.804688 125.296875 243.851562 125.296875 243.898438 125.296875 C 244.441406 125.308594 244.976562 125.324219 245.503906 125.34375 C 245.570312 125.347656 245.636719 125.351562 245.703125 125.351562 C 246.195312 125.371094 246.679688 125.394531 247.152344 125.421875 C 247.183594 125.421875 247.21875 125.425781 247.253906 125.425781 C 247.769531 125.457031 248.273438 125.488281 248.761719 125.523438 C 248.777344 125.523438 248.789062 125.523438 248.804688 125.527344 C 249.296875 125.558594 249.769531 125.597656 250.222656 125.632812 C 249.136719 122.039062 246.859375 118.023438 242.082031 116.140625 Z M 295.5625 96.414062 L 274.984375 112.316406 C 274.8125 112.84375 274.625 113.371094 274.429688 113.890625 C 274.402344 113.957031 274.378906 114.023438 274.355469 114.089844 C 274.171875 114.5625 273.984375 115.027344 273.785156 115.492188 C 273.757812 115.5625 273.730469 115.628906 273.699219 115.699219 C 273.242188 116.75 272.742188 117.789062 272.1875 118.804688 C 272.171875 118.828125 272.15625 118.855469 272.144531 118.882812 C 271.898438 119.335938 271.636719 119.78125 271.371094 120.226562 C 271.292969 120.359375 271.210938 120.488281 271.132812 120.617188 C 270.917969 120.960938 270.703125 121.300781 270.476562 121.636719 C 270.378906 121.789062 270.277344 121.941406 270.175781 122.089844 C 269.949219 122.417969 269.71875 122.742188 269.484375 123.066406 C 269.382812 123.203125 269.285156 123.339844 269.183594 123.472656 C 268.847656 123.921875 268.503906 124.363281 268.148438 124.796875 C 268.144531 124.800781 268.144531 124.804688 268.140625 124.804688 C 267.566406 125.503906 266.96875 126.183594 266.363281 126.84375 C 266.140625 127.082031 265.914062 127.3125 265.6875 127.546875 C 265.296875 127.953125 264.90625 128.359375 264.503906 128.753906 C 264.214844 129.039062 263.914062 129.316406 263.617188 129.589844 C 263.277344 129.910156 262.933594 130.226562 262.585938 130.535156 C 262.238281 130.839844 261.886719 131.136719 261.535156 131.429688 C 261.230469 131.683594 260.925781 131.933594 260.617188 132.179688 C 260.214844 132.5 259.808594 132.816406 259.398438 133.121094 C 259.144531 133.308594 258.890625 133.496094 258.632812 133.675781 C 258.164062 134.015625 257.6875 134.355469 257.207031 134.675781 C 257.046875 134.785156 256.882812 134.882812 256.722656 134.988281 C 255.46875 135.808594 254.1875 136.578125 252.875 137.289062 L 252.878906 137.296875 C 252.324219 137.597656 251.761719 137.878906 251.199219 138.15625 L 254.347656 152.023438 C 254.347656 152.023438 257.984375 157.371094 265.238281 162.570312 C 265.058594 161.628906 264.878906 160.691406 264.699219 159.753906 C 264.554688 159.011719 264.410156 158.265625 264.265625 157.527344 C 264.113281 156.742188 263.960938 155.988281 263.808594 155.234375 C 268.757812 152.777344 274.285156 148.304688 282.507812 140.449219 C 282.746094 140.21875 282.976562 140.003906 283.222656 139.769531 C 288.1875 134.996094 292.125 128.804688 294.546875 122.097656 C 294.742188 121.550781 294.929688 121 295.105469 120.445312 C 295.167969 120.246094 295.226562 120.042969 295.289062 119.84375 C 295.394531 119.492188 295.503906 119.140625 295.601562 118.785156 C 295.671875 118.53125 295.734375 118.277344 295.800781 118.027344 C 295.878906 117.722656 295.960938 117.421875 296.03125 117.117188 C 296.101562 116.832031 296.164062 116.546875 296.226562 116.261719 C 296.285156 115.992188 296.34375 115.71875 296.398438 115.449219 C 296.460938 115.136719 296.515625 114.824219 296.570312 114.507812 C 296.613281 114.269531 296.65625 114.03125 296.695312 113.789062 C 296.75 113.449219 296.800781 113.105469 296.84375 112.761719 C 296.871094 112.558594 296.898438 112.351562 296.921875 112.144531 C 296.96875 111.773438 297.011719 111.398438 297.042969 111.023438 C 297.058594 110.859375 297.070312 110.699219 297.085938 110.535156 C 297.117188 110.121094 297.148438 109.703125 297.167969 109.285156 C 297.175781 109.191406 297.175781 109.097656 297.179688 109.003906 C 297.363281 104.722656 296.863281 100.457031 295.5625 96.414062 Z M 295.5625 96.414062 " fill-opacity="1" fill-rule="nonzero"/></g><path fill="#c6783e" d="M 240.582031 261.8125 C 240.632812 261.902344 240.683594 261.996094 240.734375 262.089844 L 203.691406 261.484375 C 203.6875 261.46875 203.683594 261.445312 203.683594 261.425781 C 203.644531 261.179688 203.609375 260.925781 203.574219 260.660156 C 203.570312 260.636719 203.566406 260.613281 203.5625 260.589844 C 203.292969 258.457031 203.121094 255.640625 203.023438 252.363281 C 203.023438 252.359375 203.023438 252.359375 203.023438 252.359375 L 222 252.910156 C 221.691406 251.894531 221.746094 250.878906 222.714844 250.222656 C 224.035156 249.332031 225.070312 249.78125 225.769531 250.4375 C 226.441406 251.066406 226.808594 251.890625 226.808594 251.890625 C 226.808594 251.890625 228.476562 249.222656 230.484375 250.804688 C 231.589844 251.679688 231.140625 253.339844 230.519531 254.65625 C 230.832031 254.78125 231.15625 254.914062 231.480469 255.050781 C 231.503906 255.058594 231.523438 255.070312 231.542969 255.078125 C 232.191406 255.351562 232.851562 255.65625 233.515625 255.988281 C 233.554688 256.011719 233.597656 256.03125 233.636719 256.050781 C 234.285156 256.378906 234.929688 256.734375 235.558594 257.117188 C 235.613281 257.148438 235.664062 257.183594 235.714844 257.214844 C 236.332031 257.597656 236.929688 258.007812 237.492188 258.445312 C 237.546875 258.484375 237.597656 258.527344 237.648438 258.566406 C 237.925781 258.789062 238.199219 259.011719 238.453125 259.246094 C 238.664062 259.4375 238.863281 259.632812 239.058594 259.832031 C 239.304688 260.085938 239.542969 260.351562 239.761719 260.621094 C 239.8125 260.6875 239.859375 260.753906 239.90625 260.816406 C 240.058594 261.011719 240.199219 261.203125 240.332031 261.40625 C 240.421875 261.539062 240.5 261.675781 240.582031 261.8125 Z M 275.808594 261.332031 C 274.398438 258.488281 271.332031 256.386719 268.378906 254.941406 C 268.355469 254.929688 268.332031 254.917969 268.308594 254.910156 C 268.097656 254.804688 267.890625 254.707031 267.679688 254.613281 C 267.636719 254.589844 267.59375 254.570312 267.550781 254.550781 C 267.359375 254.464844 267.167969 254.382812 266.980469 254.300781 C 266.933594 254.28125 266.882812 254.257812 266.832031 254.238281 C 266.648438 254.15625 266.460938 254.082031 266.28125 254.007812 C 266.234375 253.988281 266.191406 253.96875 266.148438 253.953125 C 265.925781 253.863281 265.710938 253.777344 265.496094 253.695312 C 265.992188 252.609375 266.300781 251.265625 265.222656 250.640625 C 263.21875 249.472656 261.882812 251.558594 261.882812 251.558594 C 261.882812 251.558594 261.765625 251.152344 261.484375 250.703125 C 261.003906 249.949219 260.050781 249.070312 258.375 249.804688 C 257.300781 250.273438 257.164062 251.335938 257.375 252.4375 L 237.949219 252.761719 C 238.007812 254.015625 238.078125 255.1875 238.160156 256.269531 C 238.164062 256.277344 238.164062 256.285156 238.164062 256.289062 C 238.203125 256.824219 238.25 257.339844 238.296875 257.828125 C 238.296875 257.839844 238.300781 257.847656 238.300781 257.855469 C 238.347656 258.34375 238.398438 258.808594 238.453125 259.246094 C 238.65625 259.429688 238.851562 259.621094 239.042969 259.816406 Z M 220.480469 169.5625 C 223.160156 169.5625 225.332031 167.394531 225.332031 164.71875 C 225.332031 162.042969 223.160156 159.875 220.480469 159.875 C 217.804688 159.875 215.632812 162.042969 215.632812 164.71875 C 215.632812 167.394531 217.804688 169.5625 220.480469 169.5625 Z M 250.601562 166.625 C 253.28125 166.625 255.449219 164.457031 255.449219 161.78125 C 255.449219 159.109375 253.28125 156.9375 250.601562 156.9375 C 247.921875 156.9375 245.753906 159.109375 245.753906 161.78125 C 245.753906 164.457031 247.925781 166.625 250.601562 166.625 Z M 250.601562 166.625 " fill-opacity="1" fill-rule="nonzero"/><g clip-path="url(#id4)"><path fill="#342d2a" d="M 231.011719 115.457031 C 234.222656 109.453125 239.230469 103.761719 246.507812 104.601562 C 261.320312 106.308594 255.621094 126.222656 255.621094 126.222656 C 255.621094 126.222656 253.445312 125.898438 250.222656 125.632812 C 249.136719 122.039062 246.859375 118.019531 242.082031 116.140625 C 238.136719 114.589844 234.246094 114.738281 231.011719 115.457031 Z M 293.992188 92.402344 C 293.976562 92.378906 293.960938 92.355469 293.945312 92.332031 C 292.699219 90.3125 291.378906 88.367188 289.804688 86.660156 C 288.246094 84.917969 286.460938 83.40625 284.5 82.25 C 282.535156 81.117188 280.394531 80.300781 278.199219 80.113281 C 277.660156 80.0625 277.117188 80.046875 276.578125 80.066406 C 276.503906 80.078125 276.425781 80.089844 276.347656 80.101562 C 275.054688 80.320312 273.824219 80.617188 272.835938 81.132812 C 271.828125 81.628906 271.175781 82.394531 270.75 83.492188 C 270.453125 84.261719 270.320312 85.160156 270.210938 86.128906 C 271.195312 85.933594 272.1875 85.992188 273.082031 86.183594 C 274.472656 86.5 275.746094 87.101562 276.777344 88.042969 C 275.398438 88.003906 274.121094 87.945312 272.914062 88.007812 C 271.714844 88.070312 270.601562 88.273438 269.742188 88.734375 C 268.890625 89.195312 268.207031 89.917969 267.707031 90.96875 C 267.394531 91.582031 267.140625 92.273438 266.898438 93.007812 C 267.113281 92.921875 267.332031 92.84375 267.5625 92.789062 C 267.804688 92.691406 268.070312 92.675781 268.328125 92.640625 C 268.585938 92.609375 268.839844 92.566406 269.09375 92.554688 C 269.601562 92.609375 270.109375 92.601562 270.589844 92.722656 C 271.0625 92.855469 271.542969 92.953125 271.980469 93.148438 C 272.421875 93.347656 272.847656 93.5625 273.265625 93.773438 C 271.410156 93.472656 269.519531 93.386719 268.046875 94.132812 C 267.308594 94.476562 266.707031 95.019531 266.191406 95.628906 C 265.695312 96.265625 265.308594 97 265 97.773438 C 264.84375 98.160156 264.71875 98.5625 264.609375 98.96875 C 264.558594 99.171875 264.496094 99.375 264.460938 99.578125 C 264.441406 99.675781 264.414062 99.78125 264.402344 99.875 L 264.378906 100.023438 C 264.375 100.039062 264.375 100.046875 264.375 100.050781 C 264.382812 100.84375 264.523438 101.601562 264.800781 102.273438 C 265.359375 103.628906 266.589844 104.566406 268.109375 104.707031 L 268.949219 104.78125 L 269.082031 105.535156 C 269.210938 106.296875 269.390625 107.046875 269.679688 107.765625 C 269.984375 108.472656 270.382812 109.140625 270.878906 109.753906 C 271.886719 110.953125 273.277344 111.949219 274.984375 112.3125 C 274.121094 112.453125 273.195312 112.34375 272.335938 112.058594 C 271.476562 111.761719 270.648438 111.316406 269.933594 110.710938 C 269.210938 110.113281 268.582031 109.386719 268.109375 108.5625 C 267.769531 107.976562 267.496094 107.351562 267.28125 106.710938 C 266.414062 106.597656 265.554688 106.304688 264.804688 105.804688 C 263.84375 105.164062 263.082031 104.222656 262.652344 103.183594 C 262.210938 102.148438 262.050781 101.042969 262.074219 99.992188 C 262.078125 99.886719 262.109375 99.679688 262.117188 99.644531 L 262.160156 99.445312 C 262.175781 99.351562 262.199219 99.269531 262.222656 99.183594 C 262.011719 99.058594 261.8125 98.921875 261.628906 98.761719 C 261.171875 98.34375 260.789062 97.84375 260.476562 97.308594 C 259.851562 96.238281 259.476562 95.042969 259.238281 93.828125 C 259.019531 92.609375 258.953125 91.359375 259.074219 90.097656 C 259.125 89.46875 259.277344 88.816406 259.410156 88.253906 C 259.546875 87.667969 259.691406 87.082031 259.855469 86.492188 C 259.929688 86.214844 260.011719 85.941406 260.097656 85.664062 L 259.632812 85.851562 C 259.265625 85.996094 258.886719 86.164062 258.511719 86.328125 L 253.851562 88.527344 C 253.140625 88.855469 252.414062 89.179688 251.667969 89.492188 C 252.003906 90.390625 252.058594 91.355469 251.917969 92.207031 C 251.742188 93.304688 251.328125 94.273438 250.808594 95.125 C 249.765625 96.835938 248.40625 98.246094 246.78125 99.292969 C 247.675781 97.597656 248.554688 95.972656 249.148438 94.332031 C 249.777344 92.703125 249.960938 91.050781 249.328125 89.976562 C 249.007812 89.457031 248.5625 89.136719 247.871094 88.960938 C 247.1875 88.789062 246.34375 88.800781 245.492188 88.890625 C 243.761719 89.082031 241.976562 89.582031 240.121094 90.058594 C 241.519531 88.726562 243.191406 87.71875 245.109375 87.097656 C 246.074219 86.808594 247.125 86.621094 248.28125 86.785156 C 248.859375 86.871094 249.457031 87.074219 250.003906 87.414062 C 250.167969 87.515625 250.316406 87.632812 250.464844 87.757812 C 250.976562 87.128906 251.527344 86.535156 252.113281 85.980469 C 253.511719 84.683594 255.109375 83.578125 256.933594 82.765625 C 257.882812 82.382812 258.769531 82.046875 259.921875 81.863281 C 260.609375 81.753906 261.308594 81.761719 261.988281 81.847656 C 262.535156 81.140625 263.1875 80.492188 263.984375 80.007812 C 265.175781 79.25 266.589844 78.941406 267.882812 78.867188 C 269.003906 78.796875 270.167969 78.90625 271.289062 79.214844 C 271.921875 78.84375 272.585938 78.550781 273.265625 78.335938 C 271.890625 74.765625 270.171875 71.300781 268.148438 68.011719 L 246.667969 54.183594 C 246.667969 54.183594 239.773438 67.652344 231.683594 68.25 C 223.59375 68.851562 227.488281 58.074219 227.488281 58.074219 C 227.488281 58.074219 220.898438 69.148438 214.605469 70.046875 C 208.3125 70.945312 206.8125 64.0625 206.8125 64.0625 C 205.410156 81.441406 184.011719 102.417969 181.300781 105.011719 C 178.839844 104.003906 172.652344 101.765625 166.980469 102.042969 C 163.878906 102.195312 160.925781 103.097656 158.828125 105.378906 C 156.394531 108.015625 155.527344 111.652344 155.921875 115.347656 C 153.394531 115.285156 150.785156 114.882812 148.140625 114.089844 C 133.53125 109.722656 121.347656 86.625 121.347656 86.625 C 121.347656 86.625 128.089844 89.753906 138.316406 81.585938 C 146.058594 75.402344 153.476562 68.929688 163.507812 69.113281 C 167.140625 60.851562 174.144531 54.375 183.320312 47.863281 C 205.65625 32.011719 254.421875 29.847656 271.171875 51.566406 C 278.421875 60.96875 279.394531 70.3125 278.167969 77.886719 C 278.261719 77.898438 278.355469 77.902344 278.449219 77.914062 C 281.015625 78.273438 283.433594 79.269531 285.484375 80.710938 C 287.5625 82.128906 289.292969 83.949219 290.703125 85.945312 C 292.105469 87.949219 293.199219 90.132812 293.992188 92.402344 Z M 264.375 100.019531 C 264.375 100.03125 264.375 100.042969 264.375 100.050781 C 264.378906 100.046875 264.382812 100.015625 264.375 100.019531 Z M 268.953125 83.09375 C 268.980469 82.894531 269 82.691406 269.03125 82.488281 L 269.230469 81.886719 C 269.289062 81.648438 269.402344 81.429688 269.523438 81.214844 C 269.027344 81.148438 268.519531 81.128906 268.007812 81.152344 C 266.933594 81.195312 265.964844 81.433594 265.113281 81.910156 C 263.382812 82.839844 262.371094 84.90625 261.589844 87.046875 C 261.214844 88.125 260.8125 89.289062 260.585938 90.324219 C 260.363281 91.414062 260.300781 92.554688 260.375 93.691406 C 260.433594 94.828125 260.648438 95.964844 261.058594 97.03125 C 261.335938 97.730469 261.722656 98.429688 262.28125 98.957031 C 262.335938 98.746094 262.398438 98.539062 262.460938 98.332031 C 262.625 97.847656 262.8125 97.375 263.035156 96.910156 C 263.492188 95.992188 264.058594 95.105469 264.828125 94.371094 C 265.203125 94.035156 265.609375 93.714844 266.039062 93.449219 C 265.804688 92.476562 265.757812 91.449219 265.957031 90.402344 C 266.191406 88.960938 267.175781 87.425781 268.644531 86.671875 C 268.921875 86.527344 269.207031 86.414062 269.492188 86.320312 C 269.070312 85.34375 268.84375 84.261719 268.953125 83.09375 Z M 219.5625 81.449219 C 223.371094 79.316406 225.878906 76.5625 225.171875 75.296875 C 224.460938 74.035156 220.800781 74.738281 216.992188 76.867188 C 213.1875 79 210.675781 81.753906 211.386719 83.019531 C 212.097656 84.28125 215.757812 83.578125 219.5625 81.449219 Z M 179.636719 140.355469 C 179.515625 139.542969 179.425781 138.734375 179.347656 137.933594 C 179.320312 137.683594 179.304688 137.433594 179.285156 137.183594 C 179.238281 136.625 179.203125 136.0625 179.175781 135.507812 C 179.164062 135.238281 179.152344 134.96875 179.144531 134.699219 C 179.128906 134.128906 179.121094 133.5625 179.125 133 C 179.125 132.78125 179.125 132.558594 179.128906 132.34375 C 179.132812 131.988281 179.152344 131.640625 179.164062 131.292969 C 174.421875 131.421875 169.28125 131.023438 165.542969 129.289062 C 165.234375 129.148438 164.9375 128.992188 164.644531 128.832031 C 163.046875 136.429688 159.542969 146.152344 151.867188 150.484375 C 151.867188 150.484375 169.027344 161.25 195.046875 165.5625 C 195.132812 165.269531 195.21875 164.984375 195.304688 164.695312 C 188.929688 160.125 181.421875 152.34375 179.636719 140.355469 Z M 208.105469 128.261719 C 206.378906 129.402344 204.316406 129.894531 202.335938 129.789062 C 203.324219 129.71875 204.289062 129.46875 205.195312 129.121094 C 206.101562 128.769531 206.945312 128.28125 207.675781 127.675781 C 208.40625 127.074219 209.050781 126.375 209.519531 125.5625 C 210.03125 124.777344 210.339844 123.882812 210.628906 122.996094 L 210.738281 122.660156 L 211.136719 122.566406 C 212.042969 122.351562 213.015625 121.902344 213.816406 121.332031 C 214.625 120.753906 215.34375 120.0625 215.894531 119.25 C 216.429688 118.425781 216.875 117.539062 217.121094 116.570312 C 217.28125 116.105469 217.320312 115.589844 217.429688 115.105469 L 217.570312 113.597656 L 217.625 113.027344 C 217.230469 112.335938 216.839844 111.671875 216.441406 111.066406 C 215.847656 110.171875 215.207031 109.402344 214.484375 108.839844 C 214.132812 108.539062 213.726562 108.347656 213.320312 108.121094 C 213.101562 108.050781 212.878906 107.980469 212.652344 107.886719 C 212.433594 107.785156 212.175781 107.785156 211.929688 107.71875 C 211.4375 107.558594 210.894531 107.605469 210.332031 107.511719 C 209.761719 107.46875 209.183594 107.511719 208.535156 107.425781 C 209.007812 107.023438 209.535156 106.671875 210.105469 106.382812 C 210.699219 106.175781 211.304688 105.894531 211.984375 105.878906 C 212.320312 105.863281 212.660156 105.789062 213.003906 105.851562 C 213.347656 105.894531 213.691406 105.957031 214.039062 106.023438 C 214.292969 106.105469 214.542969 106.210938 214.789062 106.316406 C 214.578125 105.710938 214.359375 105.136719 214.09375 104.617188 C 213.59375 103.566406 212.910156 102.84375 212.058594 102.382812 C 211.199219 101.921875 210.085938 101.71875 208.886719 101.65625 C 207.675781 101.59375 206.402344 101.652344 205.019531 101.691406 C 206.054688 100.75 207.328125 100.148438 208.714844 99.832031 C 209.613281 99.640625 210.605469 99.582031 211.589844 99.777344 C 211.480469 98.808594 211.34375 97.910156 211.046875 97.140625 C 210.625 96.042969 209.972656 95.277344 208.964844 94.78125 C 207.976562 94.265625 206.746094 93.96875 205.453125 93.75 C 205.105469 93.691406 204.75 93.640625 204.390625 93.589844 C 204.058594 93.589844 203.726562 93.601562 203.394531 93.636719 C 201.105469 93.820312 198.859375 94.605469 196.800781 95.742188 C 194.738281 96.890625 192.890625 98.4375 191.246094 100.195312 C 189.988281 101.5625 188.90625 103.085938 187.90625 104.675781 C 187.605469 105.152344 187.308594 105.636719 187.019531 106.125 C 187.957031 103.867188 189.0625 101.628906 190.578125 99.644531 C 192.089844 97.664062 193.910156 95.878906 196.039062 94.484375 C 198.15625 93.082031 200.605469 92.121094 203.1875 91.757812 C 204.480469 91.546875 205.8125 91.597656 207.136719 91.785156 C 207.660156 91.878906 208.179688 92.019531 208.691406 92.1875 C 208.933594 92.253906 209.175781 92.332031 209.414062 92.425781 C 210.488281 91.824219 211.605469 91.320312 212.746094 90.886719 C 214.9375 90.070312 217.253906 89.546875 219.675781 89.421875 C 220.90625 89.390625 222.113281 89.414062 223.414062 89.675781 C 224.695312 89.925781 225.910156 90.425781 227 91.070312 C 229.160156 92.390625 230.84375 94.339844 231.59375 96.613281 C 229.640625 95.289062 227.707031 94.320312 225.773438 93.761719 C 224.808594 93.484375 223.847656 93.3125 222.894531 93.253906 C 221.964844 93.195312 220.90625 93.261719 219.886719 93.300781 C 219.128906 93.355469 218.355469 93.433594 217.585938 93.507812 C 217.703125 93.570312 217.824219 93.617188 217.9375 93.6875 C 219.171875 94.433594 220.101562 95.554688 220.769531 96.703125 C 221.453125 97.859375 221.871094 99.078125 222.242188 100.265625 C 222.425781 100.863281 222.589844 101.457031 222.746094 102.042969 C 222.902344 102.609375 223.054688 103.332031 223.128906 103.960938 C 223.289062 105.269531 223.269531 106.5625 223.101562 107.847656 C 222.914062 109.125 222.589844 110.398438 222 111.621094 C 221.722656 112.234375 221.320312 112.828125 220.839844 113.382812 C 220.46875 113.765625 220.035156 114.105469 219.5 114.363281 C 219.460938 114.71875 219.414062 115.074219 219.351562 115.429688 C 219.199219 115.996094 219.117188 116.570312 218.898438 117.121094 C 218.546875 118.242188 217.960938 119.292969 217.261719 120.246094 C 216.546875 121.195312 215.628906 121.984375 214.621094 122.585938 C 213.703125 123.128906 212.75 123.511719 211.675781 123.730469 C 211.527344 124.09375 211.382812 124.460938 211.191406 124.804688 C 210.925781 125.257812 210.691406 125.722656 210.351562 126.125 C 209.746094 126.976562 208.960938 127.691406 208.105469 128.261719 Z M 218.113281 110.316406 C 218.332031 111.085938 218.433594 111.871094 218.402344 112.652344 C 218.667969 112.539062 219.023438 112.320312 219.308594 111.992188 C 219.59375 111.625 219.875 111.214844 220.074219 110.722656 C 220.5 109.761719 220.753906 108.667969 220.878906 107.566406 C 221.011719 106.464844 221.015625 105.335938 220.871094 104.253906 C 220.792969 103.691406 220.695312 103.234375 220.527344 102.644531 C 220.371094 102.070312 220.207031 101.507812 220.03125 100.953125 C 219.335938 98.761719 218.40625 96.671875 216.734375 95.636719 C 215.902344 95.117188 214.914062 94.871094 213.839844 94.789062 C 213.304688 94.757812 212.769531 94.761719 212.25 94.816406 C 212.382812 95.046875 212.507812 95.277344 212.570312 95.535156 L 212.769531 96.136719 C 212.800781 96.339844 212.820312 96.542969 212.847656 96.742188 C 212.957031 97.910156 212.730469 98.992188 212.308594 99.96875 C 212.59375 100.0625 212.878906 100.171875 213.15625 100.320312 C 214.625 101.074219 215.609375 102.609375 215.84375 104.046875 C 216.03125 105.03125 215.996094 105.988281 215.796875 106.90625 C 215.839844 106.933594 215.882812 106.964844 215.925781 106.996094 C 217.042969 107.875 217.75 109.089844 218.113281 110.316406 Z M 268.140625 124.804688 C 267.566406 125.503906 266.96875 126.179688 266.363281 126.84375 C 266.96875 126.179688 267.566406 125.503906 268.140625 124.804688 C 268.140625 124.800781 268.144531 124.800781 268.144531 124.796875 C 268.144531 124.800781 268.144531 124.800781 268.140625 124.804688 Z M 229.5625 118.4375 C 229.996094 117.457031 230.480469 116.453125 231.011719 115.457031 C 230.480469 116.453125 229.996094 117.453125 229.5625 118.4375 Z M 252.679688 75.605469 C 257.019531 76.058594 260.660156 75.257812 260.8125 73.816406 C 260.960938 72.375 257.566406 70.839844 253.226562 70.382812 C 248.886719 69.929688 245.246094 70.730469 245.09375 72.171875 C 244.941406 73.613281 248.339844 75.152344 252.679688 75.605469 Z M 276.289062 262.5 C 276.164062 262.097656 275.996094 261.710938 275.808594 261.332031 L 239.042969 259.816406 C 239.046875 259.820312 239.050781 259.824219 239.058594 259.832031 C 239.304688 260.085938 239.542969 260.351562 239.761719 260.621094 C 239.8125 260.683594 239.859375 260.753906 239.90625 260.816406 C 240.058594 261.007812 240.199219 261.203125 240.332031 261.40625 C 240.421875 261.539062 240.5 261.675781 240.578125 261.8125 C 240.632812 261.902344 240.683594 261.996094 240.734375 262.089844 L 203.691406 261.484375 C 203.691406 261.503906 203.695312 261.519531 203.699219 261.535156 C 203.75 261.851562 203.800781 262.152344 203.855469 262.425781 C 203.855469 262.433594 203.859375 262.445312 203.859375 262.453125 C 203.917969 262.734375 203.976562 262.992188 204.042969 263.226562 C 204.050781 263.261719 204.0625 263.292969 204.070312 263.328125 C 204.121094 263.511719 204.175781 263.679688 204.230469 263.832031 C 204.25 263.878906 204.265625 263.925781 204.285156 263.972656 C 204.351562 264.140625 204.421875 264.296875 204.492188 264.421875 C 204.519531 264.464844 204.554688 264.507812 204.59375 264.550781 C 204.609375 264.566406 204.628906 264.582031 204.644531 264.59375 C 204.675781 264.625 204.707031 264.652344 204.742188 264.679688 C 204.765625 264.695312 204.792969 264.714844 204.820312 264.730469 C 204.855469 264.753906 204.894531 264.78125 204.9375 264.804688 C 204.96875 264.824219 205.003906 264.839844 205.035156 264.859375 C 205.082031 264.882812 205.125 264.90625 205.175781 264.933594 C 205.214844 264.949219 205.253906 264.96875 205.296875 264.984375 C 205.347656 265.007812 205.402344 265.03125 205.457031 265.054688 C 205.5 265.074219 205.546875 265.089844 205.59375 265.109375 C 205.652344 265.132812 205.714844 265.152344 205.777344 265.175781 C 205.828125 265.195312 205.882812 265.210938 205.9375 265.230469 C 206.003906 265.253906 206.070312 265.273438 206.136719 265.292969 C 206.195312 265.3125 206.253906 265.332031 206.316406 265.347656 C 206.386719 265.371094 206.460938 265.390625 206.539062 265.410156 C 206.601562 265.429688 206.664062 265.445312 206.726562 265.464844 C 206.808594 265.484375 206.890625 265.503906 206.976562 265.527344 C 207.042969 265.542969 207.109375 265.558594 207.179688 265.578125 C 207.265625 265.597656 207.355469 265.617188 207.445312 265.636719 C 207.515625 265.65625 207.589844 265.671875 207.664062 265.6875 C 207.757812 265.707031 207.855469 265.726562 207.953125 265.746094 C 208.027344 265.761719 208.101562 265.777344 208.175781 265.792969 C 208.28125 265.8125 208.386719 265.832031 208.492188 265.851562 C 208.570312 265.867188 208.648438 265.882812 208.730469 265.898438 C 208.835938 265.917969 208.949219 265.9375 209.058594 265.957031 C 209.140625 265.96875 209.222656 265.984375 209.304688 266 C 209.425781 266.019531 209.554688 266.039062 209.679688 266.058594 C 209.753906 266.074219 209.832031 266.085938 209.910156 266.097656 C 210.085938 266.125 210.269531 266.152344 210.457031 266.179688 C 210.484375 266.183594 210.507812 266.1875 210.535156 266.191406 C 210.75 266.222656 210.96875 266.25 211.191406 266.28125 C 211.269531 266.292969 211.351562 266.300781 211.429688 266.3125 C 211.574219 266.332031 211.71875 266.351562 211.867188 266.371094 C 211.964844 266.382812 212.0625 266.394531 212.160156 266.40625 C 212.296875 266.421875 212.433594 266.4375 212.570312 266.453125 C 212.675781 266.464844 212.789062 266.476562 212.898438 266.488281 C 213.023438 266.503906 213.152344 266.519531 213.28125 266.53125 C 213.402344 266.542969 213.523438 266.558594 213.648438 266.570312 C 213.769531 266.582031 213.894531 266.59375 214.015625 266.605469 C 214.144531 266.621094 214.269531 266.632812 214.398438 266.644531 C 214.523438 266.65625 214.644531 266.667969 214.773438 266.679688 C 214.898438 266.691406 215.027344 266.703125 215.152344 266.710938 C 215.285156 266.722656 215.414062 266.734375 215.546875 266.746094 C 215.671875 266.757812 215.800781 266.765625 215.925781 266.777344 C 216.0625 266.789062 216.195312 266.796875 216.332031 266.808594 C 216.460938 266.820312 216.59375 266.828125 216.726562 266.835938 C 216.855469 266.847656 216.984375 266.855469 217.117188 266.867188 C 217.253906 266.875 217.394531 266.882812 217.535156 266.894531 C 217.660156 266.902344 217.789062 266.910156 217.921875 266.917969 C 218.0625 266.925781 218.203125 266.9375 218.347656 266.945312 C 218.472656 266.953125 218.601562 266.957031 218.726562 266.964844 C 218.875 266.972656 219.023438 266.980469 219.171875 266.988281 C 219.292969 266.996094 219.417969 267.003906 219.539062 267.007812 C 219.691406 267.015625 219.84375 267.023438 219.996094 267.03125 C 220.117188 267.035156 220.238281 267.039062 220.359375 267.046875 C 220.519531 267.054688 220.675781 267.058594 220.832031 267.066406 C 220.941406 267.070312 221.050781 267.074219 221.160156 267.078125 C 221.328125 267.082031 221.5 267.089844 221.667969 267.09375 C 221.753906 267.097656 221.84375 267.101562 221.929688 267.101562 C 222.636719 267.125 223.347656 267.140625 224.054688 267.148438 C 224.078125 267.148438 224.101562 267.148438 224.125 267.148438 C 224.324219 267.152344 224.523438 267.152344 224.722656 267.15625 C 224.800781 267.15625 224.882812 267.15625 224.960938 267.15625 C 225.140625 267.160156 225.3125 267.160156 225.488281 267.160156 C 225.59375 267.160156 225.695312 267.160156 225.796875 267.160156 C 225.96875 267.160156 226.136719 267.15625 226.308594 267.15625 C 226.410156 267.15625 226.511719 267.15625 226.613281 267.152344 C 226.789062 267.152344 226.960938 267.148438 227.132812 267.148438 C 227.230469 267.144531 227.332031 267.144531 227.429688 267.144531 C 227.601562 267.140625 227.769531 267.136719 227.9375 267.132812 C 228.035156 267.128906 228.136719 267.128906 228.238281 267.125 C 228.402344 267.121094 228.570312 267.117188 228.734375 267.113281 C 228.835938 267.109375 228.9375 267.105469 229.039062 267.101562 C 229.199219 267.097656 229.359375 267.089844 229.523438 267.082031 C 229.621094 267.078125 229.722656 267.074219 229.820312 267.070312 C 229.984375 267.0625 230.144531 267.058594 230.300781 267.050781 C 230.398438 267.042969 230.496094 267.039062 230.59375 267.035156 C 230.75 267.027344 230.910156 267.015625 231.066406 267.007812 C 231.160156 267.003906 231.253906 266.996094 231.347656 266.992188 C 231.503906 266.980469 231.664062 266.96875 231.820312 266.960938 C 231.90625 266.953125 231.992188 266.945312 232.078125 266.941406 C 232.238281 266.929688 232.398438 266.917969 232.558594 266.902344 C 232.632812 266.898438 232.707031 266.890625 232.777344 266.886719 C 232.945312 266.871094 233.109375 266.855469 233.273438 266.839844 C 233.332031 266.835938 233.390625 266.828125 233.453125 266.824219 C 233.625 266.804688 233.800781 266.789062 233.972656 266.769531 C 233.996094 266.769531 234.015625 266.765625 234.039062 266.761719 C 234.875 266.671875 235.664062 266.5625 236.390625 266.433594 C 236.417969 266.429688 236.445312 266.425781 236.472656 266.417969 C 236.617188 266.394531 236.753906 266.367188 236.890625 266.339844 C 236.945312 266.332031 236.996094 266.320312 237.050781 266.308594 C 237.175781 266.285156 237.300781 266.257812 237.421875 266.230469 C 237.480469 266.21875 237.539062 266.207031 237.59375 266.191406 C 237.710938 266.164062 237.824219 266.136719 237.9375 266.109375 C 237.996094 266.097656 238.054688 266.082031 238.109375 266.066406 C 238.21875 266.039062 238.320312 266.011719 238.421875 265.980469 C 238.480469 265.964844 238.539062 265.949219 238.597656 265.933594 C 238.695312 265.902344 238.789062 265.875 238.882812 265.84375 C 238.9375 265.824219 238.992188 265.808594 239.046875 265.789062 C 239.136719 265.757812 239.222656 265.726562 239.308594 265.695312 C 239.359375 265.675781 239.410156 265.65625 239.460938 265.636719 C 239.542969 265.605469 239.621094 265.570312 239.699219 265.539062 C 239.746094 265.519531 239.792969 265.496094 239.839844 265.476562 C 239.914062 265.441406 239.988281 265.40625 240.054688 265.371094 C 240.097656 265.351562 240.136719 265.328125 240.175781 265.308594 C 240.242188 265.273438 240.308594 265.234375 240.371094 265.199219 C 240.410156 265.175781 240.441406 265.152344 240.476562 265.128906 C 240.535156 265.089844 240.59375 265.054688 240.648438 265.015625 C 240.679688 264.992188 240.707031 264.96875 240.734375 264.945312 C 240.785156 264.902344 240.839844 264.863281 240.882812 264.820312 C 240.90625 264.796875 240.925781 264.777344 240.949219 264.753906 C 240.992188 264.707031 241.035156 264.664062 241.074219 264.617188 C 241.089844 264.597656 241.101562 264.578125 241.113281 264.5625 C 241.152344 264.507812 241.191406 264.457031 241.222656 264.402344 C 241.433594 264.46875 241.667969 264.53125 241.914062 264.589844 C 241.945312 264.597656 241.972656 264.609375 242.007812 264.617188 C 242.101562 264.636719 242.203125 264.660156 242.300781 264.683594 C 242.355469 264.695312 242.410156 264.710938 242.464844 264.722656 C 242.5625 264.746094 242.664062 264.765625 242.765625 264.789062 C 242.828125 264.800781 242.890625 264.8125 242.957031 264.828125 C 243.058594 264.847656 243.164062 264.867188 243.269531 264.890625 C 243.335938 264.902344 243.402344 264.917969 243.472656 264.929688 C 243.582031 264.949219 243.6875 264.96875 243.800781 264.988281 C 243.871094 265 243.945312 265.015625 244.015625 265.027344 C 244.128906 265.046875 244.246094 265.066406 244.363281 265.085938 C 244.433594 265.097656 244.507812 265.109375 244.582031 265.121094 C 244.703125 265.140625 244.824219 265.160156 244.949219 265.179688 C 245.015625 265.191406 245.085938 265.203125 245.15625 265.210938 C 245.289062 265.234375 245.425781 265.253906 245.5625 265.273438 C 245.574219 265.273438 245.585938 265.277344 245.597656 265.277344 C 245.925781 265.324219 246.265625 265.371094 246.613281 265.414062 C 246.675781 265.421875 246.738281 265.429688 246.800781 265.4375 C 246.933594 265.453125 247.066406 265.46875 247.199219 265.484375 C 247.296875 265.496094 247.390625 265.507812 247.484375 265.519531 C 247.617188 265.535156 247.753906 265.550781 247.886719 265.5625 C 247.980469 265.574219 248.078125 265.585938 248.175781 265.59375 C 248.3125 265.609375 248.449219 265.625 248.589844 265.640625 C 248.691406 265.648438 248.789062 265.660156 248.890625 265.667969 C 249.027344 265.683594 249.167969 265.695312 249.304688 265.710938 C 249.414062 265.71875 249.519531 265.730469 249.628906 265.738281 C 249.765625 265.753906 249.902344 265.765625 250.039062 265.777344 C 250.152344 265.785156 250.269531 265.796875 250.382812 265.804688 C 250.515625 265.816406 250.652344 265.828125 250.785156 265.839844 C 250.90625 265.847656 251.03125 265.859375 251.152344 265.867188 C 251.285156 265.878906 251.421875 265.890625 251.558594 265.898438 C 251.6875 265.910156 251.824219 265.917969 251.957031 265.925781 C 252.191406 265.945312 252.429688 265.960938 252.667969 265.976562 C 252.804688 265.984375 252.941406 265.992188 253.078125 266 C 253.21875 266.007812 253.359375 266.015625 253.5 266.023438 C 253.625 266.03125 253.75 266.039062 253.875 266.046875 C 254.015625 266.054688 254.15625 266.0625 254.292969 266.066406 C 254.425781 266.074219 254.554688 266.082031 254.6875 266.085938 C 254.824219 266.09375 254.960938 266.101562 255.097656 266.105469 C 255.230469 266.113281 255.363281 266.117188 255.496094 266.125 C 255.632812 266.128906 255.769531 266.132812 255.90625 266.140625 C 256.046875 266.144531 256.1875 266.148438 256.328125 266.15625 C 256.457031 266.160156 256.585938 266.164062 256.714844 266.167969 C 256.863281 266.171875 257.011719 266.175781 257.164062 266.179688 C 257.289062 266.183594 257.410156 266.1875 257.535156 266.191406 C 257.6875 266.195312 257.84375 266.199219 257.996094 266.199219 C 258.117188 266.203125 258.238281 266.207031 258.359375 266.207031 C 258.601562 266.214844 258.839844 266.214844 259.078125 266.21875 C 259.15625 266.21875 259.234375 266.222656 259.308594 266.222656 C 259.53125 266.222656 259.753906 266.226562 259.976562 266.226562 C 260.074219 266.226562 260.171875 266.226562 260.269531 266.226562 C 260.441406 266.230469 260.617188 266.230469 260.789062 266.226562 C 260.902344 266.226562 261.019531 266.226562 261.132812 266.226562 C 261.285156 266.226562 261.441406 266.226562 261.59375 266.222656 C 261.710938 266.222656 261.832031 266.222656 261.949219 266.21875 C 262.101562 266.21875 262.253906 266.214844 262.40625 266.210938 C 262.523438 266.210938 262.636719 266.207031 262.75 266.207031 C 262.902344 266.203125 263.054688 266.199219 263.207031 266.195312 C 263.320312 266.191406 263.433594 266.191406 263.546875 266.1875 C 263.703125 266.179688 263.855469 266.175781 264.011719 266.171875 C 264.117188 266.167969 264.222656 266.164062 264.328125 266.160156 C 264.496094 266.152344 264.667969 266.148438 264.835938 266.140625 C 264.921875 266.136719 265.007812 266.132812 265.09375 266.128906 C 265.347656 266.117188 265.601562 266.101562 265.851562 266.089844 C 265.855469 266.089844 265.859375 266.089844 265.867188 266.089844 C 266.109375 266.074219 266.351562 266.058594 266.589844 266.042969 C 266.671875 266.039062 266.75 266.03125 266.832031 266.027344 C 266.992188 266.015625 267.15625 266.003906 267.316406 265.988281 C 267.410156 265.984375 267.5 265.976562 267.589844 265.96875 C 267.738281 265.953125 267.882812 265.941406 268.027344 265.929688 C 268.121094 265.921875 268.214844 265.914062 268.304688 265.902344 C 268.445312 265.890625 268.585938 265.875 268.722656 265.859375 C 268.816406 265.851562 268.90625 265.84375 268.992188 265.832031 C 269.132812 265.816406 269.269531 265.800781 269.402344 265.785156 C 269.488281 265.777344 269.574219 265.765625 269.660156 265.753906 C 269.796875 265.738281 269.929688 265.71875 270.0625 265.703125 C 270.144531 265.691406 270.226562 265.679688 270.304688 265.667969 C 270.445312 265.648438 270.582031 265.628906 270.71875 265.609375 C 270.785156 265.597656 270.855469 265.585938 270.921875 265.578125 C 271.121094 265.542969 271.320312 265.511719 271.511719 265.476562 C 271.515625 265.476562 271.523438 265.472656 271.527344 265.472656 C 271.714844 265.441406 271.894531 265.40625 272.074219 265.367188 C 272.132812 265.355469 272.1875 265.34375 272.242188 265.332031 C 272.367188 265.304688 272.488281 265.28125 272.609375 265.25 C 272.671875 265.238281 272.734375 265.222656 272.800781 265.207031 C 272.90625 265.179688 273.011719 265.152344 273.113281 265.125 C 273.179688 265.109375 273.242188 265.09375 273.304688 265.074219 C 273.402344 265.046875 273.496094 265.019531 273.589844 264.992188 C 273.652344 264.972656 273.714844 264.957031 273.773438 264.9375 C 273.863281 264.910156 273.949219 264.878906 274.035156 264.851562 C 274.09375 264.832031 274.148438 264.8125 274.203125 264.789062 C 274.289062 264.757812 274.371094 264.726562 274.453125 264.695312 C 274.5 264.675781 274.550781 264.65625 274.597656 264.636719 C 274.683594 264.601562 274.765625 264.566406 274.847656 264.527344 C 274.882812 264.511719 274.921875 264.492188 274.957031 264.476562 C 275.183594 264.367188 275.382812 264.25 275.558594 264.125 C 275.585938 264.105469 275.609375 264.085938 275.636719 264.066406 C 275.691406 264.023438 275.75 263.980469 275.796875 263.9375 C 275.824219 263.914062 275.851562 263.886719 275.875 263.863281 C 275.917969 263.824219 275.960938 263.78125 275.996094 263.742188 C 276.019531 263.714844 276.042969 263.683594 276.0625 263.65625 C 276.09375 263.617188 276.125 263.574219 276.152344 263.53125 C 276.167969 263.503906 276.1875 263.472656 276.203125 263.445312 C 276.226562 263.402344 276.246094 263.355469 276.261719 263.3125 C 276.273438 263.28125 276.285156 263.253906 276.296875 263.222656 C 276.308594 263.175781 276.316406 263.128906 276.324219 263.082031 C 276.332031 263.050781 276.335938 263.023438 276.339844 262.992188 C 276.34375 262.9375 276.34375 262.886719 276.339844 262.832031 C 276.339844 262.804688 276.339844 262.777344 276.335938 262.753906 C 276.328125 262.667969 276.3125 262.585938 276.289062 262.5 Z M 263.808594 155.234375 C 263.960938 155.992188 264.113281 156.746094 264.265625 157.527344 C 264.410156 158.269531 264.554688 159.011719 264.699219 159.753906 C 281.570312 154.597656 287.921875 149.015625 287.921875 149.015625 C 287.921875 149.015625 285.621094 145.582031 282.503906 140.453125 C 274.285156 148.308594 268.757812 152.777344 263.808594 155.234375 Z M 263.808594 155.234375 " fill-opacity="1" fill-rule="nonzero"/></g></svg>