<svg xmlns="http://www.w3.org/2000/svg" xmlns:xlink="http://www.w3.org/1999/xlink" width="559" zoomAndPan="magnify" viewBox="0 0 419.25 297.749993" height="396" preserveAspectRatio="xMidYMid meet" version="1.0"><defs><clipPath id="id1"><path d="M 0 0.140625 L 418.5 0.140625 L 418.5 297.359375 L 0 297.359375 Z M 0 0.140625 " clip-rule="nonzero"/></clipPath><clipPath id="id2"><path d="M 130.050781 87.984375 L 335.867188 87.984375 L 335.867188 184.398438 L 130.050781 184.398438 Z M 130.050781 87.984375 " clip-rule="nonzero"/></clipPath><clipPath id="id3"><path d="M 160.835938 108.398438 L 335.867188 108.398438 L 335.867188 184.398438 L 160.835938 184.398438 Z M 160.835938 108.398438 " clip-rule="nonzero"/></clipPath><clipPath id="id4"><path d="M 195.6875 118.050781 L 335.867188 118.050781 L 335.867188 163.246094 L 195.6875 163.246094 Z M 195.6875 118.050781 " clip-rule="nonzero"/></clipPath><clipPath id="id5"><path d="M 270.132812 127.273438 L 335.867188 127.273438 L 335.867188 159.800781 L 270.132812 159.800781 Z M 270.132812 127.273438 " clip-rule="nonzero"/></clipPath><clipPath id="id6"><path d="M 83.007812 112.824219 L 288.851562 112.824219 L 288.851562 209.265625 L 83.007812 209.265625 Z M 83.007812 112.824219 " clip-rule="nonzero"/></clipPath><clipPath id="id7"><path d="M 83.007812 133.300781 L 258.0625 133.300781 L 258.0625 209.265625 L 83.007812 209.265625 Z M 83.007812 133.300781 " clip-rule="nonzero"/></clipPath><clipPath id="id8"><path d="M 234.910156 198 L 255.355469 198 L 255.355469 209.265625 L 234.910156 209.265625 Z M 234.910156 198 " clip-rule="nonzero"/></clipPath><clipPath id="id9"><path d="M 234.910156 198 L 255.355469 198 L 255.355469 209.265625 L 234.910156 209.265625 Z M 234.910156 198 " clip-rule="nonzero"/></clipPath></defs><g clip-path="url(#id1)"><path fill="#ffffff" d="M 0 0.140625 L 419.25 0.140625 L 419.25 304.097656 L 0 304.097656 Z M 0 0.140625 " fill-opacity="1" fill-rule="nonzero"/><path fill="#8b4338" d="M 0 0.140625 L 418.5 0.140625 L 418.5 297.359375 L 0 297.359375 Z M 0 0.140625 " fill-opacity="1" fill-rule="nonzero"/><path fill="#ffffff" d="M 0 0.140625 L 418.5 0.140625 L 418.5 297.359375 L 0 297.359375 Z M 0 0.140625 " fill-opacity="1" fill-rule="nonzero"/><path fill="#8b4338" d="M 0 0.140625 L 418.5 0.140625 L 418.5 297.359375 L 0 297.359375 Z M 0 0.140625 " fill-opacity="1" fill-rule="nonzero"/></g><g clip-path="url(#id2)"><path fill="#f28d5d" d="M 131.320312 153.480469 C 129.1875 156.488281 129.851562 160.644531 132.820312 162.835938 L 148.976562 174.769531 L 153.09375 177.816406 L 157.292969 180.921875 C 157.292969 180.921875 158.472656 181.433594 160.871094 182.066406 C 161.414062 182.207031 162.019531 182.351562 162.679688 182.507812 C 163.042969 182.59375 163.425781 182.667969 163.824219 182.753906 C 163.992188 182.789062 164.15625 182.824219 164.324219 182.851562 C 164.800781 182.949219 165.308594 183.042969 165.835938 183.132812 C 166.101562 183.183594 166.378906 183.222656 166.660156 183.273438 C 167.960938 183.476562 169.402344 183.671875 170.984375 183.84375 C 171.375 183.882812 171.777344 183.925781 172.191406 183.960938 C 173.613281 184.09375 175.132812 184.199219 176.753906 184.269531 C 177.042969 184.285156 177.339844 184.296875 177.640625 184.304688 C 178.070312 184.328125 178.5 184.332031 178.941406 184.347656 C 179.289062 184.355469 179.640625 184.363281 179.996094 184.367188 C 180.269531 184.375 180.550781 184.375 180.832031 184.375 C 181.839844 184.390625 182.878906 184.382812 183.949219 184.363281 C 184.390625 184.355469 184.835938 184.339844 185.292969 184.328125 C 185.445312 184.328125 185.601562 184.320312 185.75 184.3125 C 186.269531 184.296875 186.796875 184.277344 187.332031 184.257812 C 188.105469 184.222656 188.890625 184.179688 189.699219 184.128906 C 189.90625 184.117188 190.109375 184.101562 190.320312 184.085938 C 190.8125 184.054688 191.308594 184.019531 191.824219 183.984375 C 192.363281 183.941406 192.90625 183.890625 193.460938 183.847656 C 194.628906 183.742188 195.824219 183.625 197.046875 183.484375 C 198.171875 183.363281 199.320312 183.21875 200.484375 183.0625 C 201.308594 182.949219 202.144531 182.832031 202.996094 182.703125 C 203.417969 182.640625 203.847656 182.578125 204.277344 182.507812 C 205.132812 182.375 206.007812 182.226562 206.890625 182.078125 C 207.089844 182.042969 207.292969 182.007812 207.496094 181.972656 C 207.933594 181.898438 208.367188 181.820312 208.8125 181.734375 C 209.71875 181.566406 210.640625 181.390625 211.574219 181.210938 C 212.046875 181.117188 212.515625 181.019531 212.988281 180.921875 C 213.460938 180.824219 213.9375 180.722656 214.414062 180.621094 C 215.730469 180.339844 217.074219 180.042969 218.429688 179.71875 C 219.132812 179.558594 219.84375 179.390625 220.5625 179.214844 C 221.226562 179.046875 221.910156 178.878906 222.59375 178.703125 C 223.648438 178.441406 224.710938 178.160156 225.792969 177.867188 C 231.109375 176.425781 236.753906 174.691406 242.722656 172.628906 C 285.503906 157.808594 314.152344 153.25 326.300781 151.875 C 330.1875 151.433594 333.269531 148.414062 333.765625 144.539062 L 335.796875 128.738281 L 335.867188 128.191406 C 335.867188 128.191406 335.867188 128.191406 335.859375 128.183594 C 335.851562 128.175781 335.847656 128.175781 335.832031 128.164062 C 334.347656 126.898438 284.371094 84.632812 232.246094 88.199219 L 232.226562 88.199219 C 228.984375 88.417969 225.757812 88.816406 222.515625 89.421875 C 222.515625 89.421875 222.507812 89.421875 222.5 89.421875 C 221.128906 89.667969 219.765625 89.953125 218.402344 90.277344 C 195.972656 95.59375 177.242188 107.191406 162.734375 119.378906 C 162.011719 119.992188 161.300781 120.59375 160.605469 121.207031 C 159.726562 121.964844 158.875 122.722656 158.03125 123.480469 C 157.167969 124.265625 156.316406 125.046875 155.484375 125.824219 C 151.914062 129.175781 148.671875 132.496094 145.769531 135.664062 C 145.023438 136.46875 144.300781 137.277344 143.601562 138.0625 C 138.128906 144.234375 134.003906 149.6875 131.320312 153.480469 " fill-opacity="1" fill-rule="nonzero"/></g><g clip-path="url(#id3)"><path fill="#f6b799" d="M 160.871094 182.066406 C 164.332031 182.980469 170.320312 184.136719 178.941406 184.347656 C 180.515625 184.390625 182.191406 184.398438 183.949219 184.363281 C 187.871094 184.292969 192.230469 184.023438 197.046875 183.484375 C 198.171875 183.363281 199.320312 183.21875 200.484375 183.0625 C 207.074219 182.179688 214.4375 180.789062 222.59375 178.703125 C 223.648438 178.441406 224.710938 178.160156 225.792969 177.867188 C 231.109375 176.425781 236.753906 174.691406 242.722656 172.628906 C 285.382812 157.847656 313.988281 153.273438 326.199219 151.886719 C 330.152344 151.4375 333.28125 148.339844 333.785156 144.398438 L 335.796875 128.738281 L 335.867188 128.191406 C 335.867188 128.191406 335.867188 128.191406 335.859375 128.183594 C 335.789062 128.140625 335.234375 127.828125 334.257812 127.292969 C 332.613281 126.402344 329.769531 124.90625 326.023438 123.136719 C 325.375 122.835938 324.707031 122.523438 324.003906 122.203125 C 319.441406 120.117188 313.800781 117.757812 307.503906 115.582031 C 305.226562 114.800781 302.863281 114.035156 300.429688 113.328125 C 289.792969 110.203125 277.878906 107.96875 266.382812 108.496094 C 264.316406 108.589844 262.261719 108.769531 260.230469 109.050781 C 257.925781 109.375 255.640625 109.824219 253.402344 110.421875 C 250.007812 111.328125 246.414062 112.617188 242.695312 114.21875 C 241.730469 114.632812 240.761719 115.070312 239.785156 115.523438 C 238.0625 116.324219 236.316406 117.183594 234.558594 118.101562 C 233.914062 118.433594 233.265625 118.777344 232.621094 119.121094 C 229.917969 120.574219 227.183594 122.144531 224.441406 123.808594 C 223.683594 124.265625 222.921875 124.738281 222.164062 125.207031 C 216.609375 128.675781 211.039062 132.496094 205.640625 136.460938 C 205.007812 136.925781 204.375 137.394531 203.75 137.867188 C 201.644531 139.441406 199.578125 141.027344 197.546875 142.621094 C 196.9375 143.105469 196.324219 143.589844 195.710938 144.074219 L 195.703125 144.074219 C 192.433594 146.699219 189.292969 149.3125 186.320312 151.886719 C 185.769531 152.359375 185.234375 152.820312 184.699219 153.292969 C 181.648438 155.96875 178.800781 158.574219 176.214844 161.058594 C 175.699219 161.554688 175.195312 162.039062 174.703125 162.527344 C 170.617188 166.519531 167.25 170.152344 164.851562 173.132812 C 164.386719 173.71875 163.957031 174.277344 163.570312 174.804688 C 161.742188 177.296875 160.773438 179.207031 160.851562 180.324219 C 160.898438 180.964844 160.898438 181.539062 160.871094 182.066406 " fill-opacity="1" fill-rule="nonzero"/></g><path fill="#f6b799" d="M 306.8125 116.535156 L 307.628906 115.679688 L 307.503906 115.582031 C 305.222656 114.800781 302.863281 114.035156 300.429688 113.328125 C 302.238281 114.449219 303.574219 115.34375 304.402344 115.917969 C 302.089844 118.03125 295.410156 123.585938 286.175781 126.527344 C 270.996094 131.359375 256.363281 127.222656 242.695312 114.21875 C 241.730469 114.632812 240.761719 115.070312 239.785156 115.523438 C 240.25 115.566406 240.691406 115.601562 241.121094 115.636719 C 251.714844 125.75 263.066406 130.746094 274.847656 130.550781 C 293.425781 130.207031 306.273438 117.089844 306.8125 116.535156 " fill-opacity="1" fill-rule="nonzero"/><path fill="#f6b799" d="M 203.75 137.867188 C 203.953125 137.945312 204.121094 138 204.246094 138.050781 C 205.027344 138.75 208.601562 141.933594 212.59375 144.992188 C 220.371094 150.96875 223.464844 151.707031 224.777344 151.707031 C 225.054688 151.707031 225.25 151.679688 225.398438 151.648438 C 226.207031 151.515625 226.832031 151.09375 227.210938 150.414062 C 229.839844 145.710938 225.09375 126.414062 224.546875 124.230469 L 224.441406 123.8125 C 223.683594 124.265625 222.921875 124.738281 222.164062 125.207031 C 222.324219 125.242188 222.488281 125.285156 222.640625 125.328125 C 224.617188 133.339844 227.007812 146.460938 225.371094 149.390625 C 225.335938 149.453125 225.285156 149.535156 225.054688 149.570312 C 223.429688 149.824219 216.714844 146.511719 205.640625 136.464844 C 205.007812 136.925781 204.375 137.394531 203.75 137.867188 " fill-opacity="1" fill-rule="nonzero"/><g clip-path="url(#id4)"><path fill="#f6b799" d="M 195.710938 144.074219 C 195.972656 144.199219 196.175781 144.292969 196.308594 144.347656 C 197.25 145.195312 203.050781 150.371094 209.894531 155.035156 C 217.894531 160.480469 224.292969 163.21875 228.984375 163.21875 C 230.285156 163.21875 231.453125 163.015625 232.492188 162.589844 C 236.042969 161.140625 237.605469 156.339844 238.039062 150.316406 C 241.394531 152.890625 251.671875 158.921875 275.167969 159.773438 C 275.625 159.789062 276.078125 159.792969 276.539062 159.792969 C 291.527344 159.792969 307.074219 151.128906 317.609375 143.730469 C 326.09375 137.769531 332.753906 131.675781 335.796875 128.738281 L 335.867188 128.191406 C 335.867188 128.191406 335.867188 128.191406 335.859375 128.183594 C 335.789062 128.140625 335.234375 127.828125 334.257812 127.292969 C 327.035156 134.203125 299.796875 158.523438 275.242188 157.667969 C 260.421875 157.132812 251.152344 154.457031 245.984375 152.304688 C 240.410156 149.984375 238.292969 147.761719 238.273438 147.738281 L 238.160156 147.84375 C 238.300781 141.832031 237.542969 134.980469 236.628906 129.140625 C 248.226562 136.773438 263.605469 143.917969 280.488281 143.917969 C 287.871094 143.917969 295.535156 142.550781 303.304688 139.257812 C 314.816406 134.382812 322.507812 127.027344 326.023438 123.136719 C 325.375 122.835938 324.707031 122.523438 324.003906 122.203125 C 320.398438 126.058594 313.015625 132.882812 302.398438 137.355469 C 282.167969 145.886719 259.273438 142.058594 236.15625 126.289062 C 235.574219 122.90625 234.980469 120.03125 234.558594 118.101562 C 233.914062 118.433594 233.265625 118.777344 232.621094 119.121094 C 235.332031 131.792969 239.171875 157.597656 231.691406 160.644531 C 223.445312 163.992188 204.289062 148.8125 197.601562 142.675781 L 197.546875 142.621094 C 196.9375 143.105469 196.324219 143.589844 195.710938 144.074219 " fill-opacity="1" fill-rule="nonzero"/></g><path fill="#f6b799" d="M 222.59375 178.703125 C 223.648438 178.441406 224.710938 178.160156 225.792969 177.867188 C 215.082031 172.867188 191.914062 161.269531 186.460938 152.125 C 186.410156 152.050781 186.367188 151.972656 186.316406 151.886719 C 185.769531 152.359375 185.234375 152.820312 184.703125 153.292969 C 190.214844 162.378906 211.019531 173.199219 222.59375 178.703125 " fill-opacity="1" fill-rule="nonzero"/><path fill="#f6b799" d="M 197.046875 183.484375 C 198.171875 183.363281 199.320312 183.21875 200.484375 183.0625 C 197.21875 181.285156 188.773438 175.78125 176.332031 161.199219 C 176.292969 161.148438 176.257812 161.105469 176.214844 161.058594 C 175.699219 161.554688 175.195312 162.039062 174.703125 162.527344 C 174.710938 162.539062 174.722656 162.546875 174.730469 162.558594 C 185.082031 174.699219 192.6875 180.667969 197.046875 183.484375 " fill-opacity="1" fill-rule="nonzero"/><path fill="#f6b799" d="M 163.570312 174.804688 C 167.859375 178.542969 174.097656 181.976562 178.941406 184.347656 C 180.515625 184.390625 182.191406 184.398438 183.949219 184.363281 C 179.273438 182.261719 170.25 177.867188 164.851562 173.136719 C 164.386719 173.71875 163.957031 174.277344 163.570312 174.804688 " fill-opacity="1" fill-rule="nonzero"/><path fill="#ea6537" d="M 202.054688 115.546875 C 201.527344 115.414062 201 115.285156 200.472656 115.160156 C 199.105469 114.835938 197.742188 114.546875 196.371094 114.300781 C 196.363281 114.300781 196.359375 114.300781 196.359375 114.300781 C 196.257812 114.285156 196.160156 114.265625 196.0625 114.246094 C 203.191406 113.027344 211.691406 112.652344 219.414062 112.652344 C 230.9375 112.652344 240.734375 113.484375 241.675781 113.566406 L 242.046875 113.601562 L 242.316406 113.863281 C 242.441406 113.980469 242.570312 114.105469 242.695312 114.21875 C 241.730469 114.632812 240.761719 115.070312 239.785156 115.527344 C 234.644531 115.128906 227.335938 114.769531 219.632812 114.769531 C 213.738281 114.769531 207.609375 114.980469 202.054688 115.546875 " fill-opacity="1" fill-rule="nonzero"/><path fill="#ea6537" d="M 307.503906 115.582031 C 305.226562 114.800781 302.863281 114.035156 300.429688 113.328125 C 289.628906 106.652344 261.828125 91.996094 222.515625 89.421875 C 225.753906 88.816406 228.984375 88.417969 232.226562 88.199219 L 232.246094 88.199219 C 278.226562 93.660156 306.382812 114.730469 306.695312 114.964844 L 307.503906 115.582031 " fill-opacity="1" fill-rule="nonzero"/><path fill="#f09672" d="M 274.179688 130.554688 C 262.636719 130.554688 251.515625 125.558594 241.121094 115.636719 C 240.691406 115.601562 240.25 115.566406 239.785156 115.523438 C 240.761719 115.070312 241.730469 114.632812 242.695312 114.21875 C 252.675781 123.714844 263.171875 128.480469 274.019531 128.480469 C 278.027344 128.480469 282.082031 127.832031 286.175781 126.527344 C 295.410156 123.585938 302.089844 118.03125 304.402344 115.917969 C 303.574219 115.34375 302.238281 114.449219 300.429688 113.328125 C 302.863281 114.035156 305.222656 114.800781 307.503906 115.582031 L 307.628906 115.679688 L 306.8125 116.535156 C 306.273438 117.089844 293.425781 130.207031 274.847656 130.550781 C 274.625 130.554688 274.402344 130.554688 274.179688 130.554688 " fill-opacity="1" fill-rule="nonzero"/><path fill="#f09672" d="M 236.808594 130.324219 C 236.023438 129.847656 235.226562 129.375 234.425781 128.910156 C 233.855469 125.269531 233.210938 121.882812 232.621094 119.121094 C 233.265625 118.777344 233.914062 118.433594 234.558594 118.101562 C 234.980469 120.03125 235.570312 122.90625 236.15625 126.289062 C 236.007812 126.191406 235.867188 126.09375 235.71875 125.992188 L 234.523438 127.726562 C 235.214844 128.199219 235.902344 128.675781 236.621094 129.132812 C 236.621094 129.140625 236.625 129.140625 236.625 129.140625 C 236.6875 129.53125 236.75 129.925781 236.808594 130.324219 " fill-opacity="1" fill-rule="nonzero"/><path fill="#ea6537" d="M 174.828125 113.023438 C 174.964844 112.835938 175.113281 112.652344 175.265625 112.476562 C 179.878906 107.160156 197.328125 102.101562 220.480469 102.101562 C 234.261719 102.101562 250.066406 103.894531 266.382812 108.496094 C 264.316406 108.589844 262.261719 108.769531 260.230469 109.050781 C 246.164062 105.621094 232.523438 104.257812 220.457031 104.257812 C 199.554688 104.257812 183.371094 108.351562 177.859375 112.898438 C 176.847656 112.921875 175.835938 112.964844 174.828125 113.023438 " fill-opacity="1" fill-rule="nonzero"/><path fill="#f09672" d="M 280.488281 143.917969 C 263.605469 143.917969 248.226562 136.773438 236.628906 129.140625 C 236.628906 129.140625 236.621094 129.140625 236.621094 129.132812 C 235.902344 128.675781 235.214844 128.199219 234.527344 127.726562 L 235.71875 125.992188 C 235.867188 126.09375 236.007812 126.191406 236.15625 126.289062 C 251.25 136.582031 266.246094 141.789062 280.464844 141.789062 C 288.03125 141.789062 295.375 140.316406 302.398438 137.355469 C 313.015625 132.882812 320.398438 126.058594 324.003906 122.203125 C 324.707031 122.527344 325.375 122.835938 326.023438 123.136719 C 322.507812 127.027344 314.816406 134.382812 303.304688 139.257812 C 295.535156 142.550781 287.871094 143.917969 280.488281 143.917969 " fill-opacity="1" fill-rule="nonzero"/><g clip-path="url(#id5)"><path fill="#f09672" d="M 276.539062 159.792969 C 276.078125 159.792969 275.625 159.789062 275.167969 159.773438 C 274.179688 159.738281 273.210938 159.691406 272.269531 159.640625 C 271.578125 158.894531 270.871094 158.144531 270.144531 157.386719 C 271.765625 157.507812 273.464844 157.601562 275.242188 157.667969 C 275.667969 157.683594 276.09375 157.6875 276.515625 157.6875 C 300.730469 157.6875 327.160156 134.082031 334.257812 127.292969 C 335.234375 127.828125 335.789062 128.140625 335.859375 128.183594 C 335.867188 128.191406 335.867188 128.191406 335.867188 128.191406 L 335.796875 128.738281 C 332.753906 131.675781 326.09375 137.769531 317.609375 143.730469 C 307.074219 151.128906 291.527344 159.792969 276.539062 159.792969 " fill-opacity="1" fill-rule="nonzero"/></g><g clip-path="url(#id6)"><path fill="#f28d5d" d="M 287.554688 178.359375 C 289.683594 181.371094 289.019531 185.527344 286.054688 187.71875 L 269.898438 199.652344 L 265.777344 202.699219 L 261.578125 205.800781 C 261.578125 205.800781 260.398438 206.316406 258 206.949219 C 257.460938 207.085938 256.855469 207.234375 256.195312 207.390625 C 255.828125 207.472656 255.449219 207.550781 255.046875 207.636719 C 254.878906 207.671875 254.71875 207.707031 254.550781 207.734375 C 254.070312 207.832031 253.566406 207.921875 253.039062 208.015625 C 252.769531 208.0625 252.496094 208.105469 252.214844 208.15625 C 250.914062 208.359375 249.472656 208.554688 247.890625 208.722656 C 247.496094 208.765625 247.097656 208.808594 246.679688 208.84375 C 245.261719 208.976562 243.742188 209.082031 242.117188 209.152344 C 241.828125 209.164062 241.535156 209.179688 241.234375 209.1875 C 240.804688 209.207031 240.375 209.214844 239.933594 209.230469 C 239.585938 209.234375 239.234375 209.242188 238.875 209.25 C 238.601562 209.257812 238.320312 209.257812 238.039062 209.257812 C 237.035156 209.269531 235.992188 209.265625 234.925781 209.242188 C 234.480469 209.234375 234.039062 209.222656 233.582031 209.207031 C 233.425781 209.207031 233.273438 209.199219 233.125 209.195312 C 232.605469 209.179688 232.078125 209.160156 231.542969 209.136719 C 230.769531 209.101562 229.980469 209.0625 229.171875 209.011719 C 228.96875 208.996094 228.765625 208.984375 228.554688 208.96875 C 228.0625 208.933594 227.5625 208.898438 227.050781 208.863281 C 226.507812 208.820312 225.96875 208.773438 225.414062 208.730469 C 224.246094 208.625 223.046875 208.507812 221.824219 208.367188 C 220.699219 208.246094 219.554688 208.097656 218.386719 207.945312 C 217.566406 207.832031 216.726562 207.710938 215.878906 207.585938 C 215.453125 207.523438 215.027344 207.460938 214.597656 207.390625 C 213.738281 207.257812 212.867188 207.109375 211.980469 206.960938 C 211.785156 206.925781 211.582031 206.890625 211.378906 206.855469 C 210.941406 206.777344 210.503906 206.703125 210.0625 206.617188 C 209.15625 206.449219 208.234375 206.273438 207.296875 206.089844 C 206.828125 206 206.355469 205.902344 205.886719 205.800781 C 205.414062 205.703125 204.9375 205.605469 204.457031 205.5 C 203.144531 205.21875 201.800781 204.925781 200.441406 204.601562 C 199.742188 204.441406 199.03125 204.273438 198.3125 204.097656 C 197.644531 203.929688 196.960938 203.757812 196.28125 203.585938 C 195.226562 203.324219 194.164062 203.042969 193.082031 202.75 C 187.765625 201.308594 182.121094 199.574219 176.152344 197.511719 C 133.367188 182.6875 104.722656 178.128906 92.570312 176.757812 C 88.6875 176.316406 85.601562 173.292969 85.105469 169.421875 L 83.078125 153.621094 L 83.007812 153.074219 C 83.007812 153.074219 83.007812 153.074219 83.011719 153.066406 C 83.019531 153.058594 83.027344 153.058594 83.042969 153.042969 C 84.523438 151.78125 134.503906 109.511719 186.625 113.078125 L 186.648438 113.078125 C 189.890625 113.296875 193.117188 113.699219 196.359375 114.300781 C 196.359375 114.300781 196.363281 114.300781 196.371094 114.300781 C 197.742188 114.546875 199.109375 114.835938 200.472656 115.160156 C 222.902344 120.472656 241.632812 132.074219 256.136719 144.261719 C 256.863281 144.871094 257.574219 145.476562 258.269531 146.085938 C 259.148438 146.84375 260 147.605469 260.839844 148.363281 C 261.707031 149.148438 262.558594 149.925781 263.386719 150.707031 C 266.960938 154.054688 270.199219 157.378906 273.105469 160.542969 C 273.851562 161.351562 274.574219 162.160156 275.269531 162.945312 C 280.746094 169.113281 284.867188 174.566406 287.554688 178.359375 " fill-opacity="1" fill-rule="nonzero"/></g><g clip-path="url(#id7)"><path fill="#f6b799" d="M 258 206.949219 C 254.542969 207.859375 248.550781 209.019531 239.929688 209.230469 C 238.355469 209.269531 236.683594 209.277344 234.925781 209.242188 C 231 209.171875 226.640625 208.90625 221.824219 208.367188 C 220.699219 208.246094 219.554688 208.097656 218.386719 207.945312 C 211.800781 207.058594 204.4375 205.667969 196.28125 203.585938 C 195.226562 203.324219 194.164062 203.042969 193.082031 202.75 C 187.765625 201.308594 182.121094 199.574219 176.152344 197.511719 C 133.492188 182.730469 104.886719 178.15625 92.675781 176.769531 C 88.722656 176.316406 85.59375 173.222656 85.085938 169.28125 L 83.078125 153.621094 L 83.007812 153.074219 C 83.007812 153.074219 83.007812 153.074219 83.011719 153.066406 C 83.082031 153.023438 83.640625 152.707031 84.617188 152.175781 C 86.261719 151.28125 89.101562 149.789062 92.851562 148.019531 C 93.496094 147.714844 94.164062 147.40625 94.867188 147.085938 C 99.429688 145 105.070312 142.640625 111.371094 140.464844 C 113.648438 139.683594 116.011719 138.917969 118.445312 138.210938 C 129.082031 135.085938 140.992188 132.851562 152.488281 133.378906 C 154.558594 133.46875 156.609375 133.652344 158.640625 133.933594 C 160.949219 134.257812 163.234375 134.707031 165.46875 135.300781 C 168.867188 136.207031 172.460938 137.5 176.179688 139.101562 C 177.140625 139.515625 178.113281 139.949219 179.089844 140.40625 C 180.8125 141.207031 182.554688 142.0625 184.3125 142.984375 C 184.960938 143.3125 185.605469 143.65625 186.253906 144 C 188.953125 145.457031 191.6875 147.027344 194.429688 148.691406 C 195.191406 149.148438 195.949219 149.617188 196.710938 150.089844 C 202.265625 153.558594 207.832031 157.378906 213.234375 161.34375 C 213.867188 161.808594 214.5 162.277344 215.125 162.75 C 217.226562 164.320312 219.292969 165.90625 221.328125 167.5 C 221.9375 167.984375 222.550781 168.46875 223.160156 168.957031 L 223.167969 168.957031 C 226.4375 171.582031 229.582031 174.191406 232.554688 176.769531 C 233.105469 177.238281 233.636719 177.703125 234.171875 178.175781 C 237.222656 180.847656 240.070312 183.453125 242.660156 185.941406 C 243.171875 186.4375 243.679688 186.921875 244.171875 187.40625 C 248.257812 191.402344 251.625 195.03125 254.023438 198.015625 C 254.484375 198.597656 254.914062 199.160156 255.300781 199.6875 C 257.128906 202.179688 258.101562 204.089844 258.023438 205.207031 C 257.972656 205.84375 257.972656 206.421875 258 206.949219 " fill-opacity="1" fill-rule="nonzero"/></g><path fill="#f6b799" d="M 112.058594 141.417969 L 111.246094 140.5625 L 111.371094 140.464844 C 113.648438 139.683594 116.011719 138.917969 118.445312 138.210938 C 116.636719 139.332031 115.300781 140.222656 114.472656 140.800781 C 116.785156 142.914062 123.464844 148.46875 132.695312 151.410156 C 147.875 156.238281 162.507812 152.105469 176.179688 139.101562 C 177.140625 139.515625 178.113281 139.949219 179.089844 140.40625 C 178.625 140.449219 178.183594 140.484375 177.753906 140.519531 C 167.15625 150.628906 155.808594 155.628906 144.023438 155.433594 C 125.449219 155.089844 112.601562 141.972656 112.058594 141.417969 " fill-opacity="1" fill-rule="nonzero"/><path fill="#f6b799" d="M 215.125 162.75 C 214.921875 162.824219 214.75 162.882812 214.625 162.929688 C 213.84375 163.632812 210.273438 166.8125 206.277344 169.875 C 198.503906 175.851562 195.410156 176.585938 194.09375 176.585938 C 193.820312 176.585938 193.621094 176.558594 193.476562 176.53125 C 192.667969 176.398438 192.039062 175.976562 191.660156 175.296875 C 189.03125 170.589844 193.777344 151.296875 194.328125 149.113281 L 194.433594 148.691406 C 195.191406 149.148438 195.949219 149.617188 196.710938 150.089844 C 196.546875 150.125 196.386719 150.167969 196.230469 150.207031 C 194.257812 158.21875 191.863281 171.34375 193.503906 174.269531 C 193.539062 174.332031 193.589844 174.417969 193.820312 174.453125 C 195.445312 174.707031 202.160156 171.390625 213.234375 161.34375 C 213.867188 161.808594 214.5 162.277344 215.125 162.75 " fill-opacity="1" fill-rule="nonzero"/><path fill="#f6b799" d="M 223.160156 168.957031 C 222.902344 169.082031 222.695312 169.171875 222.5625 169.230469 C 221.621094 170.078125 215.820312 175.253906 208.980469 179.914062 C 200.976562 185.363281 194.578125 188.101562 189.890625 188.101562 C 188.589844 188.101562 187.421875 187.898438 186.378906 187.46875 C 182.828125 186.023438 181.269531 181.222656 180.832031 175.199219 C 177.480469 177.773438 167.199219 183.804688 143.707031 184.65625 C 143.25 184.667969 142.792969 184.675781 142.335938 184.675781 C 127.347656 184.675781 111.800781 176.011719 101.265625 168.609375 C 92.78125 162.648438 86.121094 156.554688 83.078125 153.621094 L 83.007812 153.074219 C 83.007812 153.074219 83.007812 153.074219 83.011719 153.066406 C 83.082031 153.023438 83.640625 152.707031 84.617188 152.175781 C 91.839844 159.082031 119.078125 183.40625 143.628906 182.546875 C 158.453125 182.015625 167.71875 179.339844 172.886719 177.183594 C 178.464844 174.867188 180.578125 172.640625 180.601562 172.621094 L 180.714844 172.726562 C 180.574219 166.714844 181.332031 159.863281 182.246094 154.019531 C 170.644531 161.652344 155.265625 168.800781 138.386719 168.800781 C 131.003906 168.800781 123.335938 167.433594 115.566406 164.136719 C 104.058594 159.265625 96.367188 151.90625 92.851562 148.019531 C 93.496094 147.714844 94.164062 147.40625 94.867188 147.085938 C 98.476562 150.9375 105.859375 157.761719 116.476562 162.234375 C 136.703125 170.765625 159.597656 166.941406 182.71875 151.171875 C 183.300781 147.785156 183.890625 144.914062 184.3125 142.984375 C 184.960938 143.3125 185.605469 143.65625 186.253906 144 C 183.539062 156.675781 179.699219 182.476562 187.183594 185.527344 C 195.429688 188.875 214.582031 173.695312 221.269531 167.558594 L 221.324219 167.5 C 221.9375 167.988281 222.550781 168.472656 223.160156 168.957031 " fill-opacity="1" fill-rule="nonzero"/><path fill="#f6b799" d="M 196.28125 203.585938 C 195.226562 203.324219 194.164062 203.042969 193.082031 202.75 C 203.789062 197.75 226.957031 186.148438 232.414062 177.007812 C 232.464844 176.929688 232.507812 176.855469 232.554688 176.769531 C 233.101562 177.238281 233.636719 177.703125 234.171875 178.175781 C 228.660156 187.257812 207.855469 198.078125 196.28125 203.585938 " fill-opacity="1" fill-rule="nonzero"/><path fill="#f6b799" d="M 221.824219 208.367188 C 220.699219 208.246094 219.554688 208.097656 218.386719 207.945312 C 221.65625 206.167969 230.101562 200.664062 242.539062 186.078125 C 242.582031 186.03125 242.617188 185.988281 242.660156 185.941406 C 243.171875 186.4375 243.679688 186.921875 244.171875 187.40625 C 244.164062 187.421875 244.148438 187.429688 244.140625 187.441406 C 233.792969 199.582031 226.183594 205.550781 221.824219 208.367188 " fill-opacity="1" fill-rule="nonzero"/><g clip-path="url(#id8)"><path fill="#f6b799" d="M 255.300781 199.6875 C 251.011719 203.421875 244.773438 206.855469 239.929688 209.230469 C 238.355469 209.269531 236.683594 209.277344 234.925781 209.242188 C 239.601562 207.144531 248.621094 202.75 254.019531 198.015625 C 254.484375 198.597656 254.914062 199.160156 255.300781 199.6875 " fill-opacity="1" fill-rule="nonzero"/></g><path fill="#ea6537" d="M 223.167969 168.957031 L 223.160156 168.957031 C 222.550781 168.472656 221.9375 167.984375 221.324219 167.5 L 221.402344 167.433594 L 221.566406 167.363281 C 221.691406 167.3125 233.960938 162.003906 236.816406 154.40625 C 237.695312 152.046875 237.582031 149.78125 236.457031 147.464844 C 233.441406 141.25 215.472656 139.648438 199.242188 139.648438 C 191.539062 139.648438 184.230469 140.007812 179.089844 140.40625 C 178.113281 139.949219 177.140625 139.515625 176.179688 139.101562 C 176.304688 138.988281 176.429688 138.863281 176.558594 138.742188 L 176.824219 138.484375 L 177.199219 138.449219 C 178.136719 138.367188 187.9375 137.535156 199.460938 137.535156 C 215.449219 137.535156 234.765625 139.132812 238.355469 146.542969 C 239.726562 149.367188 239.867188 152.265625 238.785156 155.152344 C 236.027344 162.503906 226.058594 167.601562 223.167969 168.957031 M 111.371094 140.464844 L 112.179688 139.84375 C 112.488281 139.613281 140.648438 118.542969 186.628906 113.078125 L 186.648438 113.078125 C 189.890625 113.296875 193.117188 113.699219 196.359375 114.300781 C 157.046875 116.878906 129.246094 131.53125 118.445312 138.210938 C 116.011719 138.917969 113.648438 139.683594 111.371094 140.464844 " fill-opacity="1" fill-rule="nonzero"/><path fill="#f09672" d="M 144.691406 155.4375 C 144.46875 155.4375 144.246094 155.4375 144.023438 155.433594 C 125.449219 155.089844 112.601562 141.972656 112.058594 141.417969 L 111.246094 140.5625 L 111.371094 140.464844 C 113.648438 139.683594 116.011719 138.917969 118.445312 138.210938 C 116.636719 139.332031 115.300781 140.222656 114.472656 140.800781 C 116.785156 142.914062 123.464844 148.46875 132.695312 151.410156 C 136.792969 152.710938 140.847656 153.363281 144.855469 153.363281 C 155.703125 153.363281 166.195312 148.597656 176.179688 139.101562 C 177.140625 139.515625 178.113281 139.949219 179.089844 140.40625 C 178.625 140.449219 178.183594 140.484375 177.753906 140.519531 C 167.359375 150.4375 156.238281 155.4375 144.691406 155.4375 " fill-opacity="1" fill-rule="nonzero"/><path fill="#f09672" d="M 189.890625 188.101562 C 188.589844 188.101562 187.421875 187.898438 186.378906 187.46875 C 182.828125 186.023438 181.269531 181.222656 180.832031 175.199219 C 181.675781 174.550781 182.085938 174.121094 182.15625 174.046875 L 180.714844 172.726562 C 180.703125 172.246094 180.695312 171.757812 180.695312 171.265625 C 180.695312 165.625 181.40625 159.394531 182.246094 154.019531 C 182.246094 154.019531 182.253906 154.019531 182.253906 154.015625 C 182.96875 153.558594 183.660156 153.082031 184.347656 152.609375 L 183.152344 150.875 C 183.003906 150.972656 182.863281 151.070312 182.71875 151.171875 C 183.300781 147.785156 183.890625 144.914062 184.3125 142.984375 C 184.960938 143.3125 185.605469 143.65625 186.253906 144 C 184.71875 151.175781 182.820312 162.550781 182.820312 171.628906 C 182.820312 178.59375 183.933594 184.203125 187.183594 185.527344 C 187.984375 185.851562 188.894531 186 189.882812 186 C 199.042969 186 215.234375 173.097656 221.269531 167.558594 L 221.324219 167.5 C 221.9375 167.988281 222.550781 168.472656 223.160156 168.957031 C 222.902344 169.082031 222.695312 169.171875 222.5625 169.230469 C 221.621094 170.078125 215.820312 175.253906 208.980469 179.914062 C 200.976562 185.363281 194.578125 188.101562 189.890625 188.101562 " fill-opacity="1" fill-rule="nonzero"/><path fill="#ea6537" d="M 215.125 162.75 C 214.5 162.277344 213.867188 161.808594 213.234375 161.34375 C 213.273438 161.308594 213.316406 161.273438 213.359375 161.230469 L 213.515625 161.089844 L 213.71875 161.019531 C 218 159.484375 225.066406 156.570312 227.019531 154.851562 C 224.78125 153.140625 211.394531 149.597656 201.910156 149.597656 C 199.96875 149.597656 198.195312 149.746094 196.710938 150.089844 C 195.949219 149.617188 195.191406 149.148438 194.429688 148.691406 L 194.464844 148.550781 L 195.023438 148.375 C 196.949219 147.742188 199.390625 147.511719 201.925781 147.511719 C 206.699219 147.511719 211.800781 148.328125 214.402344 148.8125 C 219.117188 149.695312 227.511719 151.753906 229.019531 153.902344 C 229.453125 154.527344 229.445312 155.257812 229.003906 155.820312 C 227.121094 158.207031 217.929688 161.714844 215.125 162.75 " fill-opacity="1" fill-rule="nonzero"/><path fill="#f09672" d="M 194.09375 176.585938 C 193.820312 176.585938 193.621094 176.558594 193.476562 176.53125 C 192.667969 176.398438 192.039062 175.976562 191.660156 175.296875 C 191.097656 174.285156 190.871094 172.609375 190.871094 170.570312 C 190.875 163.105469 193.894531 150.828125 194.328125 149.113281 L 194.433594 148.691406 C 195.191406 149.148438 195.949219 149.617188 196.710938 150.089844 C 196.546875 150.125 196.386719 150.167969 196.230469 150.207031 C 194.71875 156.351562 192.957031 165.496094 192.957031 170.75 C 192.957031 172.347656 193.121094 173.585938 193.503906 174.269531 C 193.539062 174.332031 193.589844 174.417969 193.820312 174.453125 C 193.875 174.460938 193.941406 174.464844 194.007812 174.464844 C 195.855469 174.464844 202.109375 171.265625 212.175781 162.292969 C 212.179688 162.292969 212.179688 162.289062 212.183594 162.289062 C 212.253906 162.222656 212.328125 162.160156 212.402344 162.09375 C 212.46875 162.03125 212.535156 161.972656 212.601562 161.914062 C 212.609375 161.90625 212.613281 161.902344 212.621094 161.898438 C 212.632812 161.886719 212.644531 161.875 212.65625 161.863281 C 212.722656 161.804688 212.789062 161.746094 212.855469 161.6875 C 212.871094 161.671875 212.890625 161.65625 212.90625 161.640625 C 212.988281 161.566406 213.070312 161.492188 213.152344 161.417969 C 213.179688 161.394531 213.207031 161.371094 213.234375 161.34375 C 213.867188 161.808594 214.5 162.277344 215.125 162.75 C 214.921875 162.824219 214.75 162.882812 214.625 162.929688 C 213.84375 163.632812 210.273438 166.8125 206.277344 169.875 C 198.503906 175.851562 195.410156 176.585938 194.09375 176.585938 " fill-opacity="1" fill-rule="nonzero"/><path fill="#ea6537" d="M 234.171875 178.175781 C 233.636719 177.703125 233.105469 177.238281 232.554688 176.769531 C 236.792969 169.628906 249.207031 147.027344 242.011719 138.742188 C 237.75 133.828125 220.785156 129.136719 198.417969 129.136719 C 186.347656 129.136719 172.707031 130.503906 158.640625 133.933594 C 156.609375 133.652344 154.558594 133.46875 152.488281 133.378906 C 168.804688 128.777344 184.609375 126.984375 198.394531 126.984375 C 221.546875 126.984375 238.992188 132.042969 243.609375 137.359375 C 246.921875 141.179688 247.1875 147.597656 244.410156 156.4375 C 241.898438 164.433594 237.484375 172.621094 234.226562 178.082031 C 234.207031 178.109375 234.195312 178.144531 234.171875 178.175781 " fill-opacity="1" fill-rule="nonzero"/><path fill="#f09672" d="M 196.28125 203.585938 C 195.226562 203.324219 194.164062 203.042969 193.082031 202.75 C 203.789062 197.75 226.957031 186.148438 232.414062 177.007812 C 232.464844 176.929688 232.507812 176.855469 232.554688 176.769531 C 233.101562 177.238281 233.636719 177.703125 234.171875 178.175781 C 228.660156 187.257812 207.855469 198.078125 196.28125 203.585938 " fill-opacity="1" fill-rule="nonzero"/><path fill="#ea6537" d="M 244.171875 187.40625 C 243.679688 186.921875 243.171875 186.4375 242.660156 185.941406 C 255.554688 170.703125 256.328125 151.304688 256.140625 144.261719 C 256.863281 144.871094 257.574219 145.476562 258.269531 146.085938 C 258.25 154.597656 256.582031 172.839844 244.171875 187.40625 " fill-opacity="1" fill-rule="nonzero"/><path fill="#f09672" d="M 221.824219 208.367188 C 220.699219 208.246094 219.554688 208.097656 218.386719 207.945312 C 221.65625 206.167969 230.101562 200.664062 242.539062 186.078125 C 242.582031 186.03125 242.617188 185.988281 242.660156 185.941406 C 243.171875 186.4375 243.679688 186.921875 244.171875 187.40625 C 244.164062 187.421875 244.148438 187.429688 244.140625 187.441406 C 233.792969 199.582031 226.183594 205.550781 221.824219 208.367188 " fill-opacity="1" fill-rule="nonzero"/><path fill="#ea6537" d="M 255.300781 199.6875 C 254.914062 199.160156 254.484375 198.597656 254.023438 198.015625 C 254.09375 197.953125 254.167969 197.890625 254.238281 197.828125 C 260.996094 191.773438 264.253906 165.550781 260.84375 148.363281 C 261.707031 149.148438 262.558594 149.925781 263.386719 150.707031 C 264.476562 157.96875 264.597656 166.730469 263.660156 175.367188 C 262.375 187.222656 259.449219 195.988281 255.648438 199.394531 C 255.535156 199.492188 255.421875 199.597656 255.300781 199.6875 " fill-opacity="1" fill-rule="nonzero"/><g clip-path="url(#id9)"><path fill="#f09672" d="M 236.949219 209.265625 C 236.289062 209.265625 235.613281 209.257812 234.925781 209.242188 C 239.601562 207.144531 248.621094 202.75 254.019531 198.015625 C 254.484375 198.597656 254.914062 199.160156 255.300781 199.6875 C 251.011719 203.421875 244.773438 206.855469 239.929688 209.230469 C 239.585938 209.234375 239.234375 209.242188 238.875 209.25 C 238.601562 209.257812 238.320312 209.257812 238.039062 209.257812 C 237.679688 209.261719 237.316406 209.265625 236.949219 209.265625 " fill-opacity="1" fill-rule="nonzero"/></g><path fill="#ea6537" d="M 265.777344 202.699219 C 273.308594 191.929688 273.34375 168.660156 273.105469 160.542969 C 273.851562 161.351562 274.574219 162.160156 275.269531 162.945312 C 275.320312 166.636719 275.261719 171.863281 274.792969 177.449219 C 274.003906 186.8125 272.367188 194.238281 269.898438 199.652344 L 265.777344 202.699219 " fill-opacity="1" fill-rule="nonzero"/><path fill="#f09672" d="M 138.386719 168.800781 C 131.003906 168.800781 123.335938 167.433594 115.570312 164.136719 C 104.058594 159.265625 96.367188 151.90625 92.851562 148.019531 C 93.496094 147.714844 94.164062 147.40625 94.867188 147.085938 C 98.476562 150.9375 105.859375 157.761719 116.476562 162.234375 C 123.5 165.199219 130.84375 166.667969 138.40625 166.667969 C 152.628906 166.667969 167.625 161.464844 182.71875 151.171875 C 182.863281 151.070312 183.003906 150.972656 183.152344 150.875 L 184.347656 152.609375 C 183.660156 153.078125 182.96875 153.558594 182.253906 154.015625 C 182.253906 154.019531 182.246094 154.019531 182.246094 154.019531 C 170.644531 161.652344 155.265625 168.800781 138.386719 168.800781 " fill-opacity="1" fill-rule="nonzero"/><path fill="#f09672" d="M 142.335938 184.675781 C 127.347656 184.675781 111.800781 176.011719 101.265625 168.609375 C 92.78125 162.648438 86.121094 156.554688 83.078125 153.621094 L 83.007812 153.074219 C 83.007812 153.074219 83.007812 153.074219 83.011719 153.066406 C 83.082031 153.023438 83.640625 152.707031 84.617188 152.175781 C 91.714844 158.964844 118.144531 182.570312 142.355469 182.570312 C 142.78125 182.570312 143.207031 182.5625 143.628906 182.546875 C 158.453125 182.015625 167.71875 179.339844 172.886719 177.183594 C 178.464844 174.867188 180.578125 172.640625 180.601562 172.621094 L 180.714844 172.726562 L 182.15625 174.046875 C 182.085938 174.121094 181.675781 174.550781 180.832031 175.199219 C 177.480469 177.773438 167.199219 183.804688 143.707031 184.65625 C 143.25 184.667969 142.792969 184.675781 142.335938 184.675781 " fill-opacity="1" fill-rule="nonzero"/></svg>