<svg xmlns="http://www.w3.org/2000/svg" xmlns:xlink="http://www.w3.org/1999/xlink" width="559" zoomAndPan="magnify" viewBox="0 0 419.25 297.749993" height="396" preserveAspectRatio="xMidYMid meet" version="1.0"><defs><clipPath id="id1"><path d="M 0 0.140625 L 418.5 0.140625 L 418.5 297.359375 L 0 297.359375 Z M 0 0.140625 " clip-rule="nonzero"/></clipPath><clipPath id="id2"><path d="M 145 38 L 269 38 L 269 267.175781 L 145 267.175781 Z M 145 38 " clip-rule="nonzero"/></clipPath><clipPath id="id3"><path d="M 171 98 L 253 98 L 253 267.175781 L 171 267.175781 Z M 171 98 " clip-rule="nonzero"/></clipPath></defs><g clip-path="url(#id1)"><path fill="#9daf52" d="M 0 0.140625 L 418.5 0.140625 L 418.5 297.359375 L 0 297.359375 Z M 0 0.140625 " fill-opacity="1" fill-rule="nonzero"/><path fill="#ffffff" d="M 0 0.140625 L 418.5 0.140625 L 418.5 297.359375 L 0 297.359375 Z M 0 0.140625 " fill-opacity="1" fill-rule="nonzero"/><path fill="#9daf52" d="M 0 0.140625 L 418.5 0.140625 L 418.5 297.359375 L 0 297.359375 Z M 0 0.140625 " fill-opacity="1" fill-rule="nonzero"/></g><g clip-path="url(#id2)"><path fill="#fbd09d" d="M 233.679688 45.617188 C 195.148438 29.871094 154.039062 41.082031 148.25 75.226562 C 147.085938 82.085938 147.808594 88.511719 149.214844 93.941406 C 145.191406 98.453125 143.710938 106.007812 146.628906 111.90625 C 150.484375 119.695312 163.339844 126.691406 165.480469 127.816406 C 168.558594 132.539062 172.453125 136.746094 176.914062 140.3125 C 169.808594 143.617188 159.015625 149.953125 155.113281 159.269531 C 154.050781 161.800781 153.496094 164.550781 153.667969 167.515625 C 154.335938 179.101562 161.949219 181.261719 170.003906 180.175781 L 167.34375 209.714844 C 169.074219 210.070312 170.800781 210.394531 172.523438 210.703125 C 171.996094 223.375 171.332031 240.949219 171.195312 252.269531 C 171.191406 252.644531 171.1875 253.007812 171.183594 253.367188 C 171.183594 253.378906 171.183594 253.390625 171.183594 253.398438 C 171.179688 253.742188 171.175781 254.074219 171.175781 254.402344 C 171.175781 254.433594 171.175781 254.46875 171.175781 254.5 C 171.171875 254.808594 171.171875 255.109375 171.167969 255.40625 C 171.167969 255.453125 171.167969 255.5 171.167969 255.546875 C 171.167969 255.824219 171.167969 256.089844 171.167969 256.351562 C 171.167969 256.425781 171.167969 256.496094 171.167969 256.566406 C 171.167969 256.804688 171.171875 257.039062 171.171875 257.269531 C 171.171875 257.351562 171.171875 257.433594 171.175781 257.511719 C 171.175781 257.726562 171.175781 257.941406 171.179688 258.144531 C 171.179688 258.230469 171.183594 258.3125 171.183594 258.398438 C 171.1875 258.59375 171.1875 258.785156 171.191406 258.96875 C 171.195312 259.054688 171.195312 259.140625 171.195312 259.226562 C 171.199219 259.394531 171.203125 259.5625 171.207031 259.722656 C 171.207031 259.726562 171.207031 259.734375 171.207031 259.738281 C 171.210938 259.75 171.210938 259.757812 171.210938 259.765625 C 171.210938 259.847656 171.214844 259.921875 171.214844 260 C 171.21875 260.140625 171.226562 260.28125 171.230469 260.414062 C 171.230469 260.421875 171.230469 260.429688 171.230469 260.4375 C 171.230469 260.4375 171.230469 260.441406 171.230469 260.445312 C 171.234375 260.527344 171.238281 260.605469 171.238281 260.6875 C 171.246094 260.816406 171.25 260.949219 171.257812 261.070312 C 171.257812 261.070312 171.257812 261.074219 171.257812 261.074219 C 171.261719 261.15625 171.265625 261.238281 171.269531 261.316406 C 171.273438 261.425781 171.28125 261.53125 171.289062 261.632812 C 171.289062 261.632812 171.289062 261.636719 171.289062 261.636719 C 171.289062 261.644531 171.289062 261.648438 171.289062 261.652344 C 171.292969 261.730469 171.300781 261.800781 171.304688 261.875 C 171.3125 261.964844 171.316406 262.054688 171.324219 262.136719 C 171.324219 262.140625 171.324219 262.148438 171.324219 262.152344 C 171.332031 262.226562 171.339844 262.292969 171.347656 262.359375 C 171.351562 262.429688 171.359375 262.5 171.367188 262.5625 C 171.367188 262.566406 171.367188 262.570312 171.367188 262.574219 C 171.375 262.644531 171.386719 262.703125 171.394531 262.765625 C 171.402344 262.8125 171.410156 262.867188 171.414062 262.910156 C 171.417969 262.914062 171.417969 262.917969 171.417969 262.921875 C 171.429688 262.984375 171.441406 263.035156 171.449219 263.085938 C 171.457031 263.117188 171.464844 263.152344 171.46875 263.179688 C 171.472656 263.183594 171.472656 263.183594 171.472656 263.183594 C 171.492188 263.257812 171.511719 263.316406 171.53125 263.363281 C 171.53125 263.363281 171.53125 263.367188 171.53125 263.367188 C 171.542969 263.394531 171.566406 263.425781 171.585938 263.453125 C 171.601562 263.476562 171.613281 263.5 171.628906 263.523438 C 172.085938 264.101562 173.597656 264.660156 175.75 265.15625 C 176.058594 265.230469 176.378906 265.296875 176.710938 265.367188 C 177.09375 265.445312 177.492188 265.523438 177.90625 265.597656 C 179.113281 265.820312 180.445312 266.023438 181.847656 266.203125 C 182.121094 266.238281 182.390625 266.273438 182.667969 266.308594 C 183.128906 266.363281 183.597656 266.417969 184.070312 266.46875 C 184.121094 266.476562 184.175781 266.480469 184.230469 266.488281 C 185.441406 266.617188 186.683594 266.734375 187.929688 266.832031 C 187.96875 266.835938 188.003906 266.835938 188.042969 266.839844 C 188.542969 266.878906 189.042969 266.914062 189.546875 266.949219 C 190.050781 266.980469 190.554688 267.011719 191.054688 267.035156 C 191.59375 267.066406 192.132812 267.089844 192.664062 267.113281 C 193.15625 267.132812 193.644531 267.148438 194.125 267.160156 C 194.386719 267.167969 194.644531 267.171875 194.902344 267.179688 C 195.390625 267.1875 195.871094 267.191406 196.34375 267.195312 C 196.820312 267.195312 197.289062 267.195312 197.742188 267.1875 C 198.199219 267.183594 198.648438 267.171875 199.078125 267.15625 C 200.597656 267.105469 201.960938 267 203.09375 266.835938 C 203.417969 266.792969 203.722656 266.738281 204.007812 266.683594 C 205.285156 266.429688 206.144531 266.074219 206.421875 265.601562 C 206.484375 265.492188 206.527344 265.378906 206.5625 265.261719 C 206.566406 265.242188 206.566406 265.222656 206.570312 265.203125 C 206.582031 265.164062 206.585938 265.121094 206.589844 265.082031 C 206.601562 265.019531 206.613281 264.957031 206.617188 264.894531 C 206.617188 264.867188 206.609375 264.835938 206.609375 264.808594 C 206.609375 264.796875 206.609375 264.78125 206.609375 264.765625 C 206.605469 264.722656 206.605469 264.675781 206.601562 264.628906 C 206.59375 264.585938 206.589844 264.542969 206.582031 264.5 C 206.578125 264.476562 206.574219 264.457031 206.566406 264.433594 C 206.566406 264.429688 206.566406 264.421875 206.5625 264.417969 C 206.792969 264.480469 207.035156 264.539062 207.285156 264.597656 C 207.34375 264.613281 207.40625 264.625 207.464844 264.640625 C 207.757812 264.703125 208.066406 264.769531 208.390625 264.832031 C 208.742188 264.898438 209.113281 264.964844 209.5 265.03125 C 209.691406 265.0625 209.886719 265.09375 210.085938 265.125 C 210.484375 265.1875 210.898438 265.246094 211.320312 265.300781 C 211.535156 265.328125 211.75 265.359375 211.964844 265.382812 C 212.617188 265.464844 213.296875 265.539062 213.992188 265.609375 C 214.667969 265.675781 215.363281 265.738281 216.070312 265.792969 C 216.332031 265.8125 216.59375 265.832031 216.855469 265.851562 C 217.34375 265.886719 217.839844 265.917969 218.335938 265.945312 C 218.832031 265.976562 219.332031 266 219.832031 266.023438 C 220.335938 266.046875 220.835938 266.066406 221.335938 266.082031 C 221.839844 266.097656 222.339844 266.113281 222.839844 266.125 C 223.335938 266.132812 223.832031 266.140625 224.324219 266.144531 C 224.570312 266.144531 224.816406 266.144531 225.058594 266.144531 C 225.300781 266.144531 225.546875 266.144531 225.785156 266.144531 C 227.230469 266.132812 228.625 266.089844 229.917969 266.015625 C 230.347656 265.992188 230.769531 265.960938 231.175781 265.929688 C 231.582031 265.898438 231.976562 265.859375 232.355469 265.820312 C 233.496094 265.699219 234.5 265.542969 235.328125 265.347656 C 235.464844 265.3125 235.597656 265.28125 235.726562 265.246094 C 236.109375 265.140625 236.445312 265.027344 236.730469 264.90625 C 237.203125 264.699219 237.527344 264.464844 237.679688 264.203125 C 237.679688 264.203125 237.679688 264.203125 237.683594 264.203125 C 237.738281 264.109375 237.777344 264.011719 237.808594 263.910156 C 237.820312 263.878906 237.828125 263.84375 237.835938 263.808594 C 237.84375 263.78125 237.851562 263.757812 237.855469 263.730469 C 237.863281 263.6875 237.871094 263.648438 237.875 263.605469 C 237.882812 263.554688 237.886719 263.503906 237.890625 263.453125 C 237.890625 263.417969 237.890625 263.382812 237.890625 263.347656 C 237.890625 263.3125 237.886719 263.273438 237.886719 263.234375 C 237.886719 263.222656 237.882812 263.210938 237.878906 263.199219 C 237.871094 263.101562 237.855469 263 237.832031 262.898438 C 237.824219 262.867188 237.824219 262.839844 237.816406 262.808594 C 237.816406 262.796875 237.816406 262.785156 237.8125 262.773438 C 237.796875 262.71875 237.769531 262.65625 237.75 262.597656 C 237.730469 262.539062 237.710938 262.480469 237.6875 262.421875 C 237.667969 262.378906 237.660156 262.335938 237.640625 262.289062 C 237.617188 262.242188 237.59375 262.191406 237.570312 262.140625 C 237.511719 262.019531 237.449219 261.894531 237.378906 261.769531 C 237.347656 261.71875 237.320312 261.664062 237.289062 261.609375 C 237.195312 261.460938 237.097656 261.308594 236.988281 261.152344 C 236.972656 261.132812 236.960938 261.109375 236.945312 261.089844 C 236.820312 260.910156 236.679688 260.734375 236.535156 260.554688 C 236.492188 260.5 236.445312 260.449219 236.402344 260.398438 C 236.292969 260.261719 236.175781 260.128906 236.054688 259.996094 C 236.003906 259.9375 235.957031 259.882812 235.90625 259.828125 C 235.757812 259.671875 235.609375 259.511719 235.453125 259.355469 C 235.429688 259.332031 235.40625 259.304688 235.382812 259.28125 C 235.199219 259.097656 235.011719 258.914062 234.816406 258.730469 C 234.769531 258.6875 234.722656 258.640625 234.675781 258.597656 C 234.519531 258.457031 234.367188 258.3125 234.207031 258.171875 C 234.152344 258.125 234.101562 258.074219 234.046875 258.027344 C 233.859375 257.863281 233.671875 257.699219 233.484375 257.539062 C 233.46875 257.527344 233.453125 257.511719 233.4375 257.5 C 233.21875 257.316406 233.003906 257.136719 232.785156 256.960938 C 232.753906 256.933594 232.722656 256.910156 232.6875 256.882812 C 232.503906 256.730469 232.316406 256.585938 232.132812 256.4375 C 232.09375 256.40625 232.054688 256.375 232.011719 256.34375 C 231.578125 256.003906 231.148438 255.683594 230.742188 255.382812 C 231.601562 253.957031 232.050781 252.046875 229.726562 250.652344 C 229.007812 250.21875 228.363281 250.082031 227.78125 250.132812 L 229.65625 210.335938 C 230.9375 210.054688 232.21875 209.753906 233.496094 209.433594 L 230.773438 180.4375 C 230.773438 180.4375 232.488281 181.390625 236.421875 182.628906 C 236.753906 182.734375 237.089844 182.828125 237.4375 182.917969 C 239.089844 183.347656 240.886719 183.59375 242.707031 183.445312 C 249.40625 182.886719 256.941406 177.296875 255.546875 169.191406 C 253.980469 160.109375 242.425781 150.1875 242.425781 150.1875 C 242.386719 148.039062 242.082031 145.886719 241.527344 143.785156 C 241.472656 143.582031 241.414062 143.378906 241.355469 143.175781 C 251.304688 134.695312 256.488281 121.207031 256.800781 107.28125 C 257.464844 107.503906 258.207031 107.496094 259.027344 107.179688 C 274.359375 101.328125 274.710938 62.386719 233.679688 45.617188 Z M 203.003906 252.113281 C 203.019531 252.480469 203.039062 252.84375 203.054688 253.199219 C 203.054688 253.207031 203.054688 253.214844 203.054688 253.226562 C 203.070312 253.566406 203.085938 253.894531 203.105469 254.222656 C 203.105469 254.253906 203.105469 254.285156 203.109375 254.316406 C 203.125 254.617188 203.140625 254.910156 203.152344 255.199219 C 203.15625 255.257812 203.160156 255.3125 203.164062 255.371094 C 203.175781 255.640625 203.191406 255.90625 203.207031 256.164062 C 203.210938 256.226562 203.214844 256.285156 203.214844 256.347656 C 203.230469 256.597656 203.246094 256.84375 203.261719 257.082031 C 203.265625 257.144531 203.269531 257.210938 203.273438 257.273438 C 203.285156 257.5 203.300781 257.726562 203.3125 257.941406 C 203.320312 258.015625 203.324219 258.085938 203.328125 258.15625 C 203.339844 258.351562 203.355469 258.550781 203.367188 258.738281 C 203.375 258.824219 203.378906 258.90625 203.386719 258.988281 C 203.398438 259.160156 203.414062 259.332031 203.425781 259.492188 C 203.429688 259.570312 203.4375 259.640625 203.441406 259.710938 C 203.441406 259.71875 203.441406 259.722656 203.441406 259.726562 C 203.445312 259.730469 203.445312 259.734375 203.445312 259.738281 C 203.457031 259.890625 203.46875 260.042969 203.480469 260.183594 C 203.488281 260.246094 203.492188 260.308594 203.5 260.367188 C 203.386719 260.269531 203.277344 260.167969 203.164062 260.070312 C 203.113281 260.027344 203.0625 259.984375 203.011719 259.941406 C 202.84375 259.792969 202.675781 259.652344 202.5 259.507812 C 202.4375 259.453125 202.371094 259.398438 202.304688 259.347656 C 202.125 259.195312 201.941406 259.050781 201.753906 258.902344 C 201.714844 258.871094 201.675781 258.835938 201.632812 258.804688 C 201.402344 258.621094 201.167969 258.441406 200.933594 258.265625 C 200.902344 258.242188 200.867188 258.21875 200.835938 258.195312 C 200.636719 258.042969 200.433594 257.890625 200.234375 257.746094 C 200.179688 257.707031 200.125 257.667969 200.070312 257.628906 C 199.871094 257.484375 199.675781 257.339844 199.480469 257.203125 C 199.453125 257.183594 199.421875 257.160156 199.390625 257.140625 C 199.15625 256.972656 198.925781 256.8125 198.699219 256.65625 C 199.90625 255.164062 200.734375 253.128906 198.117188 251.699219 C 197.273438 251.238281 196.53125 251.117188 195.878906 251.222656 L 202.070312 219.4375 C 202.296875 230.507812 202.609375 243.242188 203.003906 252.109375 C 203.003906 252.109375 203.003906 252.113281 203.003906 252.113281 Z M 203.003906 252.113281 " fill-opacity="1" fill-rule="nonzero"/></g><path fill="#96b89f" d="M 171.191406 252.269531 L 171.195312 252.269531 C 171.191406 252.636719 171.183594 253.015625 171.179688 253.367188 C 171.183594 253.007812 171.1875 252.644531 171.191406 252.269531 Z M 201.953125 213.339844 C 192.28125 213.394531 182.464844 212.476562 172.523438 210.703125 C 171.992188 223.375 171.332031 240.949219 171.195312 252.269531 L 192.808594 254.207031 C 193.449219 252.839844 194.4375 251.460938 195.878906 251.222656 L 202.070312 219.4375 C 202.292969 230.507812 202.609375 243.242188 203.003906 252.109375 L 224.546875 253.089844 C 225.21875 251.730469 226.28125 250.273438 227.777344 250.136719 L 229.652344 210.335938 C 220.566406 212.328125 211.324219 213.285156 201.953125 213.339844 Z M 201.953125 213.339844 " fill-opacity="1" fill-rule="nonzero"/><path fill="#f8a680" d="M 187.648438 147.109375 L 155.113281 159.269531 C 159.011719 149.957031 169.808594 143.617188 176.914062 140.3125 C 180.214844 142.949219 183.824219 145.234375 187.648438 147.109375 Z M 236.421875 182.632812 L 228.191406 158.855469 C 226.492188 158.835938 224.785156 158.71875 223.089844 158.429688 C 222.246094 158.285156 221.398438 158.105469 220.566406 157.828125 C 219.738281 157.542969 218.898438 157.207031 218.171875 156.542969 C 217.820312 156.21875 217.503906 155.773438 217.382812 155.234375 C 214.464844 158.078125 205.582031 158.574219 205.582031 158.574219 C 204.1875 164.722656 194.417969 170.941406 184.929688 175.410156 C 181.097656 177.214844 175.449219 179.4375 170.003906 180.175781 L 167.34375 209.714844 C 169.074219 210.070312 170.800781 210.394531 172.523438 210.703125 C 182.464844 212.476562 192.28125 213.394531 201.953125 213.339844 C 211.328125 213.285156 220.566406 212.328125 229.65625 210.335938 C 230.9375 210.054688 232.21875 209.757812 233.496094 209.433594 L 230.773438 180.441406 C 230.773438 180.441406 232.488281 181.394531 236.421875 182.632812 Z M 218.144531 152.644531 C 218.03125 152.65625 217.917969 152.675781 217.804688 152.6875 C 217.855469 152.753906 217.90625 152.820312 217.949219 152.894531 C 218.011719 152.808594 218.074219 152.722656 218.144531 152.644531 Z M 218.144531 152.644531 " fill-opacity="1" fill-rule="nonzero"/><g clip-path="url(#id3)"><path fill="#ffffff" d="M 237.878906 263.199219 C 237.882812 263.25 237.886719 263.300781 237.890625 263.351562 C 237.890625 263.382812 237.890625 263.417969 237.886719 263.453125 C 237.886719 263.503906 237.882812 263.554688 237.875 263.605469 C 237.871094 263.648438 237.863281 263.691406 237.855469 263.730469 C 237.851562 263.761719 237.839844 263.789062 237.832031 263.816406 C 237.824219 263.847656 237.820312 263.882812 237.808594 263.914062 C 237.777344 264.011719 237.734375 264.109375 237.679688 264.203125 C 237.679688 264.203125 237.679688 264.207031 237.679688 264.207031 C 237.527344 264.46875 237.199219 264.703125 236.726562 264.90625 C 236.445312 265.03125 236.109375 265.144531 235.726562 265.246094 C 235.597656 265.28125 235.464844 265.316406 235.328125 265.347656 C 234.5 265.542969 233.492188 265.699219 232.355469 265.820312 C 231.976562 265.863281 231.582031 265.898438 231.175781 265.929688 C 230.769531 265.964844 230.347656 265.992188 229.917969 266.015625 C 228.625 266.09375 227.230469 266.132812 225.785156 266.144531 C 225.542969 266.148438 225.300781 266.148438 225.058594 266.148438 C 224.816406 266.148438 224.570312 266.148438 224.324219 266.144531 C 223.832031 266.140625 223.335938 266.136719 222.835938 266.125 C 222.339844 266.113281 221.835938 266.101562 221.335938 266.085938 C 220.835938 266.070312 220.332031 266.046875 219.832031 266.027344 C 219.332031 266.003906 218.832031 265.976562 218.335938 265.949219 C 217.839844 265.917969 217.34375 265.886719 216.855469 265.851562 C 216.59375 265.835938 216.332031 265.816406 216.070312 265.792969 C 215.363281 265.738281 214.667969 265.675781 213.988281 265.609375 C 213.292969 265.542969 212.617188 265.464844 211.964844 265.386719 C 211.746094 265.359375 211.53125 265.332031 211.320312 265.304688 C 210.898438 265.246094 210.484375 265.1875 210.085938 265.125 C 209.886719 265.09375 209.691406 265.0625 209.5 265.03125 C 209.113281 264.96875 208.742188 264.902344 208.386719 264.832031 C 208.066406 264.769531 207.757812 264.707031 207.464844 264.640625 C 207.402344 264.625 207.34375 264.613281 207.285156 264.597656 C 207.03125 264.539062 206.792969 264.480469 206.5625 264.417969 C 206.5625 264.425781 206.566406 264.429688 206.566406 264.4375 C 206.570312 264.457031 206.578125 264.480469 206.582031 264.5 C 206.585938 264.527344 206.585938 264.554688 206.589844 264.585938 C 206.597656 264.648438 206.605469 264.714844 206.605469 264.777344 C 206.605469 264.789062 206.609375 264.800781 206.609375 264.8125 C 206.609375 264.839844 206.613281 264.867188 206.613281 264.894531 C 206.613281 264.953125 206.597656 265.003906 206.589844 265.058594 C 206.585938 265.105469 206.582031 265.15625 206.570312 265.207031 C 206.566406 265.226562 206.566406 265.246094 206.558594 265.265625 C 206.527344 265.382812 206.480469 265.496094 206.417969 265.605469 C 206.144531 266.074219 205.285156 266.429688 204.003906 266.683594 C 203.722656 266.742188 203.417969 266.792969 203.09375 266.839844 C 201.960938 267.003906 200.59375 267.105469 199.078125 267.160156 C 198.644531 267.171875 198.199219 267.183594 197.742188 267.191406 C 197.285156 267.195312 196.820312 267.199219 196.34375 267.195312 C 195.871094 267.195312 195.390625 267.191406 194.902344 267.179688 C 194.644531 267.175781 194.386719 267.167969 194.125 267.164062 C 193.640625 267.148438 193.152344 267.132812 192.660156 267.113281 C 192.128906 267.09375 191.59375 267.066406 191.054688 267.039062 C 190.554688 267.011719 190.046875 266.980469 189.542969 266.949219 C 189.042969 266.917969 188.542969 266.878906 188.042969 266.839844 C 188.003906 266.839844 187.96875 266.835938 187.929688 266.832031 C 186.679688 266.734375 185.4375 266.621094 184.230469 266.488281 C 184.175781 266.484375 184.121094 266.476562 184.066406 266.472656 C 183.59375 266.421875 183.128906 266.367188 182.667969 266.3125 C 182.390625 266.277344 182.117188 266.242188 181.847656 266.207031 C 180.441406 266.023438 179.113281 265.820312 177.902344 265.601562 C 177.492188 265.523438 177.09375 265.449219 176.710938 265.371094 C 174.046875 264.820312 172.152344 264.1875 171.628906 263.523438 C 171.609375 263.5 171.597656 263.476562 171.582031 263.457031 C 171.566406 263.425781 171.542969 263.398438 171.53125 263.367188 C 171.507812 263.320312 171.488281 263.261719 171.46875 263.1875 C 171.46875 263.1875 171.46875 263.183594 171.46875 263.183594 C 171.464844 263.167969 171.460938 263.144531 171.457031 263.128906 C 171.441406 263.066406 171.429688 263.003906 171.414062 262.921875 C 171.414062 262.921875 171.414062 262.917969 171.414062 262.914062 C 171.410156 262.902344 171.410156 262.882812 171.40625 262.871094 C 171.394531 262.78125 171.378906 262.6875 171.367188 262.578125 C 171.367188 262.574219 171.367188 262.566406 171.363281 262.5625 C 171.363281 262.554688 171.363281 262.542969 171.363281 262.535156 C 171.347656 262.417969 171.335938 262.292969 171.324219 262.152344 C 171.324219 262.148438 171.324219 262.144531 171.324219 262.140625 C 171.324219 262.140625 171.324219 262.136719 171.324219 262.136719 C 171.308594 261.988281 171.296875 261.828125 171.285156 261.65625 C 171.285156 261.652344 171.285156 261.644531 171.285156 261.640625 C 171.285156 261.640625 171.285156 261.636719 171.285156 261.636719 C 171.261719 261.285156 171.242188 260.886719 171.226562 260.445312 C 171.226562 260.445312 171.226562 260.441406 171.226562 260.4375 C 171.21875 260.214844 171.210938 259.984375 171.207031 259.738281 L 203.691406 262.121094 C 203.6875 262.082031 203.679688 262.042969 203.675781 262.003906 C 203.671875 261.984375 203.667969 261.964844 203.667969 261.945312 C 203.648438 261.8125 203.632812 261.671875 203.613281 261.523438 C 203.613281 261.507812 203.609375 261.496094 203.609375 261.480469 C 203.589844 261.320312 203.570312 261.148438 203.554688 260.96875 C 203.554688 260.964844 203.554688 260.960938 203.554688 260.957031 C 203.515625 260.585938 203.476562 260.167969 203.441406 259.714844 L 237.417969 261.847656 C 237.523438 262.046875 237.613281 262.238281 237.683594 262.425781 C 237.707031 262.484375 237.726562 262.542969 237.746094 262.601562 C 237.78125 262.703125 237.808594 262.804688 237.832031 262.902344 C 237.855469 263 237.871094 263.101562 237.878906 263.199219 Z M 251.933594 115.128906 C 251.339844 110 248.582031 105.722656 244.824219 103.273438 C 243.335938 103.46875 240.9375 103.050781 238.394531 102.050781 C 237.667969 101.761719 236.980469 101.449219 236.351562 101.125 C 236.261719 101.132812 236.179688 101.128906 236.089844 101.140625 C 228.613281 102.003906 223.269531 109.222656 223.796875 117.472656 C 224.070312 117.523438 224.339844 117.59375 224.613281 117.679688 C 225.617188 113.074219 229.707031 109.621094 234.609375 109.621094 C 240.265625 109.621094 244.847656 114.210938 244.847656 119.871094 C 244.847656 125.53125 240.265625 130.121094 234.609375 130.121094 C 232.089844 130.121094 229.78125 129.203125 228 127.691406 C 230.988281 131.015625 235.230469 132.886719 239.703125 132.367188 C 247.453125 131.46875 252.929688 123.75 251.933594 115.128906 Z M 183.34375 117.355469 C 183.34375 111.695312 187.925781 107.105469 193.582031 107.105469 C 199.234375 107.105469 203.820312 111.695312 203.820312 117.355469 C 203.820312 123.015625 199.234375 127.605469 193.582031 127.605469 C 190.40625 127.605469 187.570312 126.160156 185.691406 123.886719 C 186.882812 125.390625 188.390625 126.640625 190.191406 127.511719 C 197.21875 130.914062 205.972656 127.332031 209.746094 119.515625 C 213.519531 111.699219 210.882812 102.609375 203.855469 99.207031 C 202.75 98.671875 201.597656 98.328125 200.433594 98.128906 C 200.175781 98.195312 199.910156 98.261719 199.644531 98.320312 C 197.34375 98.835938 195.210938 98.9375 193.746094 98.683594 C 189.847656 100 186.34375 102.972656 184.300781 107.203125 C 181.84375 112.292969 182.121094 117.914062 184.542969 122.164062 C 183.777344 120.730469 183.34375 119.09375 183.34375 117.355469 Z M 183.34375 117.355469 " fill-opacity="1" fill-rule="nonzero"/></g><path fill="#342d2a" d="M 259.027344 107.183594 C 258.203125 107.496094 257.464844 107.503906 256.800781 107.28125 C 252.042969 105.695312 251.078125 92.207031 251.078125 92.207031 C 251.078125 92.207031 249.820312 95.558594 245.214844 94.71875 C 240.609375 93.882812 241.03125 83.820312 241.03125 83.820312 C 241.03125 83.820312 236.007812 93.882812 231.820312 91.367188 C 227.632812 88.851562 226.796875 70.828125 226.796875 70.828125 C 225.539062 79.628906 214.234375 89.691406 209.628906 88.015625 C 205.023438 86.335938 207.953125 79.628906 207.953125 79.628906 C 207.953125 79.628906 200.417969 90.949219 194.136719 90.109375 C 187.859375 89.269531 189.535156 80.886719 189.535156 80.886719 C 186.601562 93.042969 173.277344 104.253906 173.277344 104.253906 C 173.277344 104.253906 165.621094 88.667969 155.871094 90.152344 C 153.261719 90.550781 150.988281 91.949219 149.214844 93.941406 C 147.808594 88.507812 147.085938 82.082031 148.25 75.226562 C 154.039062 41.082031 195.148438 29.871094 233.679688 45.617188 C 274.710938 62.386719 274.359375 101.328125 259.027344 107.183594 Z M 193.746094 98.683594 C 195.210938 98.9375 197.34375 98.835938 199.644531 98.320312 C 199.910156 98.261719 200.175781 98.195312 200.433594 98.128906 C 204.078125 97.179688 206.707031 95.503906 206.425781 94.246094 C 206.125 92.898438 202.605469 92.539062 198.558594 93.441406 C 194.511719 94.34375 191.476562 96.167969 191.773438 97.515625 C 191.902344 98.097656 192.636719 98.492188 193.746094 98.683594 Z M 240.21875 97.398438 C 236.359375 95.878906 232.824219 95.691406 232.320312 96.976562 C 231.910156 98.019531 233.625 99.710938 236.351562 101.125 C 236.980469 101.453125 237.667969 101.761719 238.394531 102.050781 C 240.9375 103.050781 243.335938 103.46875 244.824219 103.273438 C 245.589844 103.171875 246.121094 102.90625 246.292969 102.472656 C 246.796875 101.1875 244.078125 98.914062 240.21875 97.398438 Z M 234.609375 109.621094 C 229.707031 109.621094 225.617188 113.074219 224.613281 117.679688 C 224.34375 117.59375 224.070312 117.523438 223.796875 117.472656 C 223.257812 117.375 222.722656 117.339844 222.203125 117.359375 C 221.117188 117.390625 220.089844 117.648438 219.121094 117.988281 C 218.160156 118.355469 217.238281 118.789062 216.417969 119.394531 C 217.417969 119.246094 218.390625 119.109375 219.351562 119.050781 C 220.308594 118.96875 221.257812 118.984375 222.136719 119.101562 C 223.015625 119.222656 223.828125 119.46875 224.460938 119.878906 C 225.085938 120.289062 225.511719 120.921875 225.808594 121.621094 C 226.386719 123.015625 225.992188 124.65625 224.980469 126.195312 C 224.011719 127.742188 222.664062 129.167969 221.242188 130.589844 C 223.167969 129.945312 224.929688 128.832031 226.371094 127.253906 C 226.558594 127.050781 226.738281 126.832031 226.90625 126.605469 C 227.246094 126.992188 227.609375 127.359375 228 127.691406 C 229.785156 129.203125 232.089844 130.121094 234.613281 130.121094 C 240.265625 130.121094 244.847656 125.53125 244.847656 119.871094 C 244.847656 114.210938 240.265625 109.621094 234.609375 109.621094 Z M 241.527344 143.785156 C 242.082031 145.886719 242.386719 148.039062 242.425781 150.191406 C 242.289062 149.125 242.078125 148.074219 241.820312 147.039062 C 241.5625 146 241.273438 144.972656 240.902344 143.980469 C 240.195312 141.988281 239.230469 140.082031 237.902344 138.519531 C 237.265625 137.714844 236.46875 137.078125 235.65625 136.511719 C 234.808594 135.984375 233.859375 135.589844 232.886719 135.261719 C 230.9375 134.605469 228.863281 134.238281 226.789062 134.054688 C 224.714844 133.890625 222.613281 133.851562 220.597656 134.136719 C 219.953125 134.230469 219.304688 134.359375 218.710938 134.539062 C 218.742188 134.617188 218.78125 134.695312 218.808594 134.78125 C 218.882812 135.066406 218.964844 135.371094 218.953125 135.671875 C 218.945312 135.828125 218.960938 135.960938 218.929688 136.132812 C 218.898438 136.304688 218.867188 136.484375 218.8125 136.640625 C 218.714844 136.90625 218.589844 137.125 218.449219 137.324219 C 218.632812 137.453125 218.824219 137.578125 219.015625 137.691406 C 219.855469 138.214844 220.789062 138.664062 221.738281 139.078125 C 223.636719 139.886719 225.65625 140.585938 227.640625 141.167969 L 227.648438 141.167969 C 228.230469 141.339844 228.5625 141.949219 228.394531 142.53125 C 228.234375 143.078125 227.679688 143.40625 227.132812 143.300781 C 225.277344 142.941406 223.304688 142.710938 221.4375 142.746094 C 220.511719 142.773438 219.582031 142.867188 218.808594 143.117188 C 218.789062 143.125 218.777344 143.128906 218.761719 143.136719 C 218.785156 143.171875 218.816406 143.195312 218.839844 143.230469 C 219.0625 143.558594 219.25 143.984375 219.265625 144.429688 C 219.320312 145.257812 218.972656 145.980469 218.550781 146.511719 C 218.460938 146.621094 218.363281 146.722656 218.269531 146.820312 C 218.683594 147.386719 219.230469 147.886719 219.839844 148.332031 C 221.320312 149.378906 223.175781 150.109375 224.980469 150.527344 L 225.011719 150.535156 C 225.4375 150.632812 225.699219 151.058594 225.601562 151.484375 C 225.515625 151.859375 225.179688 152.109375 224.808594 152.097656 C 223.246094 152.054688 221.53125 152.160156 220.136719 152.746094 C 219.445312 153.039062 218.855469 153.480469 218.589844 154.082031 C 218.464844 154.378906 218.378906 154.746094 218.414062 155.015625 C 218.445312 155.308594 218.605469 155.601562 218.847656 155.867188 C 219.339844 156.402344 220.082031 156.796875 220.832031 157.113281 C 221.59375 157.429688 222.390625 157.691406 223.203125 157.90625 C 224.832031 158.332031 226.503906 158.644531 228.191406 158.851562 C 226.492188 158.835938 224.785156 158.71875 223.089844 158.429688 C 222.246094 158.285156 221.398438 158.105469 220.566406 157.828125 C 219.738281 157.539062 218.898438 157.203125 218.171875 156.542969 C 217.820312 156.21875 217.503906 155.769531 217.382812 155.230469 C 217.566406 155.050781 217.730469 154.859375 217.863281 154.660156 C 218.121094 154.25 218.183594 153.734375 217.976562 153.324219 C 217.78125 152.914062 217.40625 152.613281 217.015625 152.363281 C 216.222656 151.871094 215.328125 151.546875 214.421875 151.273438 C 212.609375 150.746094 210.71875 150.390625 208.851562 150.164062 C 208.558594 150.128906 208.351562 149.859375 208.386719 149.566406 C 208.414062 149.332031 208.589844 149.152344 208.808594 149.109375 L 208.855469 149.097656 C 210.9375 148.671875 213.058594 148.09375 214.929688 147.191406 C 215.847656 146.742188 216.757812 146.191406 217.246094 145.515625 C 217.484375 145.1875 217.597656 144.835938 217.554688 144.5625 C 217.53125 144.371094 217.371094 144.128906 217.019531 143.890625 C 216.304688 143.421875 215.289062 143.117188 214.289062 142.882812 C 213.277344 142.652344 212.222656 142.496094 211.164062 142.378906 C 209.046875 142.140625 206.867188 142.0625 204.746094 142.042969 C 204.152344 142.035156 203.679688 141.550781 203.683594 140.957031 C 203.691406 140.421875 204.085938 139.984375 204.597656 139.90625 L 204.605469 139.902344 C 207.640625 139.445312 210.75 138.820312 213.582031 137.816406 C 214.285156 137.5625 214.972656 137.277344 215.574219 136.941406 C 216.160156 136.621094 216.691406 136.148438 216.757812 135.910156 C 216.789062 135.863281 216.789062 135.597656 216.742188 135.4375 C 216.6875 135.253906 216.550781 135.054688 216.375 134.847656 C 215.984375 134.441406 215.390625 134.074219 214.753906 133.777344 C 213.460938 133.183594 211.980469 132.796875 210.488281 132.523438 C 208.988281 132.257812 207.457031 132.101562 205.917969 132.042969 C 202.863281 131.90625 199.769531 132.105469 196.796875 132.773438 C 195.609375 133.277344 194.5625 134.199219 193.667969 135.253906 C 192.75 136.328125 191.964844 137.550781 191.285156 138.832031 C 190.597656 140.113281 189.984375 141.445312 189.445312 142.808594 C 188.914062 144.175781 188.40625 145.558594 188 146.976562 C 188.246094 145.519531 188.574219 144.074219 188.992188 142.652344 C 189.398438 141.222656 189.894531 139.820312 190.503906 138.449219 C 191.101562 137.082031 191.800781 135.730469 192.730469 134.507812 C 193.175781 133.921875 193.667969 133.351562 194.222656 132.832031 C 194.816406 132.273438 195.484375 131.777344 196.257812 131.398438 C 196.28125 131.386719 196.304688 131.378906 196.328125 131.371094 L 196.367188 131.363281 C 199.5 130.480469 202.734375 130.132812 205.964844 130.148438 C 207.582031 130.164062 209.203125 130.289062 210.820312 130.527344 C 212.433594 130.789062 214.054688 131.125 215.640625 131.835938 C 216.210938 132.097656 216.785156 132.40625 217.332031 132.828125 C 218.355469 132.4375 219.355469 132.273438 220.347656 132.148438 C 222.589844 131.90625 224.796875 131.96875 226.984375 132.257812 C 229.164062 132.546875 231.328125 133.023438 233.410156 133.824219 C 234.445312 134.238281 235.464844 134.734375 236.402344 135.398438 C 237.308594 136.105469 238.152344 136.886719 238.796875 137.808594 C 240.003906 139.445312 240.800781 141.289062 241.351562 143.175781 C 241.414062 143.378906 241.472656 143.582031 241.527344 143.785156 Z M 216.738281 147.976562 C 216.34375 148.195312 215.9375 148.378906 215.539062 148.550781 C 214.238281 149.074219 212.925781 149.433594 211.597656 149.714844 C 211.683594 149.738281 211.769531 149.757812 211.855469 149.78125 C 212.789062 150.042969 213.71875 150.335938 214.625 150.703125 C 215.523438 151.070312 216.421875 151.492188 217.210938 152.097656 C 217.421875 152.269531 217.628906 152.46875 217.804688 152.691406 C 217.855469 152.753906 217.90625 152.820312 217.949219 152.894531 C 218.011719 152.808594 218.078125 152.722656 218.144531 152.644531 C 218.554688 152.179688 219.074219 151.824219 219.585938 151.570312 C 220.0625 151.332031 220.554688 151.160156 221.046875 151.019531 C 220.28125 150.699219 219.535156 150.320312 218.804688 149.855469 C 218.046875 149.359375 217.328125 148.738281 216.738281 147.976562 Z M 217.867188 139.535156 C 217.503906 139.308594 217.144531 139.050781 216.792969 138.769531 C 216.753906 138.796875 216.710938 138.828125 216.667969 138.851562 C 215.894531 139.292969 215.121094 139.617188 214.339844 139.90625 C 213.667969 140.140625 212.992188 140.347656 212.316406 140.539062 C 213.125 140.667969 213.933594 140.820312 214.742188 141.027344 C 215.457031 141.21875 216.171875 141.4375 216.886719 141.769531 C 217.285156 141.488281 217.710938 141.292969 218.117188 141.140625 C 218.765625 140.910156 219.402344 140.785156 220.027344 140.710938 C 219.296875 140.363281 218.574219 139.980469 217.867188 139.535156 Z M 237.570312 262.140625 C 237.511719 262.019531 237.449219 261.898438 237.378906 261.773438 C 237.347656 261.71875 237.320312 261.667969 237.285156 261.613281 C 237.195312 261.460938 237.097656 261.308594 236.988281 261.15625 C 236.972656 261.132812 236.960938 261.113281 236.945312 261.089844 C 236.816406 260.914062 236.679688 260.734375 236.535156 260.554688 C 236.492188 260.503906 236.445312 260.449219 236.402344 260.398438 C 236.289062 260.265625 236.175781 260.132812 236.054688 259.996094 C 236.003906 259.941406 235.953125 259.882812 235.902344 259.828125 C 235.757812 259.671875 235.609375 259.515625 235.453125 259.355469 C 235.429688 259.332031 235.40625 259.308594 235.382812 259.28125 C 235.199219 259.097656 235.007812 258.914062 234.816406 258.730469 C 234.769531 258.6875 234.722656 258.644531 234.671875 258.597656 C 234.519531 258.457031 234.363281 258.3125 234.207031 258.171875 C 234.152344 258.125 234.097656 258.074219 234.042969 258.027344 C 233.859375 257.863281 233.671875 257.703125 233.484375 257.542969 C 233.46875 257.527344 233.449219 257.515625 233.433594 257.5 C 233.21875 257.316406 233 257.136719 232.785156 256.960938 C 232.75 256.933594 232.71875 256.910156 232.6875 256.882812 C 232.503906 256.734375 232.316406 256.585938 232.132812 256.441406 C 232.089844 256.410156 232.050781 256.378906 232.011719 256.347656 C 231.578125 256.007812 231.148438 255.683594 230.742188 255.382812 C 231.601562 253.957031 232.046875 252.046875 229.726562 250.652344 C 229.007812 250.21875 228.359375 250.082031 227.777344 250.136719 C 226.28125 250.273438 225.21875 251.730469 224.550781 253.089844 L 203.003906 252.109375 C 203.003906 252.109375 203.003906 252.113281 203.003906 252.113281 C 203.019531 252.480469 203.035156 252.84375 203.054688 253.195312 C 203.054688 253.207031 203.054688 253.214844 203.054688 253.226562 C 203.070312 253.5625 203.085938 253.894531 203.101562 254.21875 C 203.105469 254.253906 203.105469 254.285156 203.109375 254.316406 C 203.121094 254.617188 203.136719 254.910156 203.152344 255.199219 C 203.15625 255.253906 203.160156 255.3125 203.164062 255.371094 C 203.175781 255.640625 203.191406 255.902344 203.207031 256.164062 C 203.210938 256.222656 203.210938 256.285156 203.214844 256.34375 C 203.230469 256.597656 203.246094 256.839844 203.257812 257.082031 C 203.265625 257.144531 203.265625 257.207031 203.269531 257.273438 C 203.285156 257.5 203.300781 257.722656 203.3125 257.941406 C 203.316406 258.015625 203.324219 258.082031 203.328125 258.152344 C 203.339844 258.351562 203.355469 258.546875 203.367188 258.738281 C 203.375 258.824219 203.378906 258.90625 203.386719 258.988281 C 203.398438 259.160156 203.410156 259.328125 203.425781 259.492188 C 203.429688 259.566406 203.4375 259.640625 203.441406 259.710938 L 237.417969 261.847656 C 237.523438 262.042969 237.613281 262.234375 237.683594 262.421875 C 237.667969 262.378906 237.65625 262.335938 237.636719 262.292969 C 237.617188 262.242188 237.59375 262.191406 237.570312 262.140625 Z M 203.667969 261.941406 C 203.652344 261.8125 203.632812 261.671875 203.617188 261.519531 C 203.613281 261.507812 203.613281 261.496094 203.609375 261.480469 C 203.59375 261.320312 203.574219 261.148438 203.554688 260.964844 C 203.554688 260.960938 203.554688 260.960938 203.554688 260.957031 C 203.515625 260.585938 203.480469 260.175781 203.445312 259.726562 C 203.445312 259.730469 203.445312 259.734375 203.445312 259.738281 C 203.457031 259.890625 203.46875 260.042969 203.484375 260.183594 C 203.488281 260.246094 203.492188 260.308594 203.5 260.367188 C 203.5 260.371094 203.5 260.371094 203.5 260.371094 C 203.386719 260.269531 203.277344 260.167969 203.164062 260.070312 C 203.113281 260.027344 203.0625 259.984375 203.011719 259.941406 C 202.84375 259.792969 202.675781 259.648438 202.503906 259.507812 C 202.4375 259.453125 202.371094 259.398438 202.308594 259.347656 C 202.125 259.195312 201.941406 259.050781 201.757812 258.902344 C 201.714844 258.871094 201.675781 258.835938 201.632812 258.804688 C 201.402344 258.621094 201.167969 258.441406 200.933594 258.265625 C 200.902344 258.242188 200.871094 258.21875 200.839844 258.195312 C 200.636719 258.042969 200.433594 257.890625 200.234375 257.746094 C 200.179688 257.707031 200.125 257.667969 200.070312 257.628906 C 199.875 257.484375 199.675781 257.339844 199.480469 257.203125 C 199.453125 257.183594 199.421875 257.160156 199.390625 257.140625 C 199.15625 256.972656 198.925781 256.8125 198.703125 256.65625 C 199.90625 255.164062 200.734375 253.128906 198.117188 251.699219 C 197.273438 251.238281 196.53125 251.117188 195.882812 251.222656 C 194.4375 251.460938 193.449219 252.839844 192.808594 254.207031 L 171.195312 252.269531 C 171.191406 252.640625 171.1875 253.007812 171.183594 253.367188 C 171.183594 253.378906 171.183594 253.386719 171.183594 253.398438 C 171.179688 253.742188 171.175781 254.074219 171.175781 254.402344 C 171.175781 254.433594 171.175781 254.464844 171.175781 254.496094 C 171.171875 254.808594 171.171875 255.109375 171.171875 255.40625 C 171.171875 255.453125 171.171875 255.5 171.171875 255.546875 C 171.167969 255.820312 171.167969 256.089844 171.167969 256.351562 C 171.167969 256.425781 171.167969 256.496094 171.171875 256.566406 C 171.171875 256.804688 171.171875 257.039062 171.171875 257.269531 C 171.171875 257.351562 171.175781 257.433594 171.175781 257.511719 C 171.175781 257.726562 171.179688 257.9375 171.179688 258.144531 C 171.179688 258.230469 171.183594 258.3125 171.183594 258.394531 C 171.1875 258.59375 171.1875 258.78125 171.191406 258.96875 C 171.195312 259.054688 171.195312 259.140625 171.199219 259.226562 C 171.203125 259.394531 171.203125 259.5625 171.210938 259.722656 C 171.210938 259.726562 171.210938 259.734375 171.210938 259.738281 L 203.695312 262.117188 C 203.691406 262.078125 203.683594 262.042969 203.679688 262 C 203.675781 261.980469 203.671875 261.964844 203.667969 261.941406 Z M 183.34375 117.355469 C 183.34375 119.09375 183.777344 120.730469 184.542969 122.164062 C 184.609375 122.292969 184.6875 122.414062 184.761719 122.542969 C 184.839844 122.675781 184.917969 122.808594 185.003906 122.941406 C 185.214844 123.269531 185.441406 123.585938 185.691406 123.886719 C 187.570312 126.160156 190.40625 127.605469 193.582031 127.605469 C 199.234375 127.605469 203.820312 123.015625 203.820312 117.355469 C 203.820312 111.695312 199.234375 107.105469 193.582031 107.105469 C 187.925781 107.105469 183.34375 111.695312 183.34375 117.355469 Z M 183.34375 117.355469 " fill-opacity="1" fill-rule="nonzero"/></svg>