<svg xmlns="http://www.w3.org/2000/svg" xmlns:xlink="http://www.w3.org/1999/xlink" width="559" zoomAndPan="magnify" viewBox="0 0 419.25 297.749993" height="396" preserveAspectRatio="xMidYMid meet" version="1.0"><defs><clipPath id="id1"><path d="M 0 0.140625 L 418.5 0.140625 L 418.5 297.359375 L 0 297.359375 Z M 0 0.140625 " clip-rule="nonzero"/></clipPath><clipPath id="id2"><path d="M 143 31 L 278 31 L 278 267.175781 L 143 267.175781 Z M 143 31 " clip-rule="nonzero"/></clipPath><clipPath id="id3"><path d="M 156 31 L 278 31 L 278 267.175781 L 156 267.175781 Z M 156 31 " clip-rule="nonzero"/></clipPath></defs><g clip-path="url(#id1)"><path fill="#cb6ce6" d="M 0 0.140625 L 418.5 0.140625 L 418.5 297.359375 L 0 297.359375 Z M 0 0.140625 " fill-opacity="1" fill-rule="nonzero"/><path fill="#ffffff" d="M 0 0.140625 L 418.5 0.140625 L 418.5 297.359375 L 0 297.359375 Z M 0 0.140625 " fill-opacity="1" fill-rule="nonzero"/><path fill="#cb6ce6" d="M 0 0.140625 L 418.5 0.140625 L 418.5 297.359375 L 0 297.359375 Z M 0 0.140625 " fill-opacity="1" fill-rule="nonzero"/></g><g clip-path="url(#id2)"><path fill="#fba982" d="M 262.863281 107.472656 C 261.230469 116.765625 257.476562 125.542969 251.871094 132.523438 C 251.871094 132.527344 251.875 132.527344 251.875 132.53125 C 251.785156 132.644531 251.683594 132.75 251.589844 132.863281 C 251.179688 133.367188 250.757812 133.859375 250.328125 134.339844 C 250.167969 134.519531 250.007812 134.699219 249.84375 134.875 C 249.28125 135.488281 248.703125 136.089844 248.109375 136.667969 C 248.078125 136.691406 248.050781 136.71875 248.023438 136.746094 C 247.136719 137.601562 246.210938 138.417969 245.253906 139.1875 C 245.246094 139.195312 245.238281 139.199219 245.234375 139.203125 C 244.78125 139.566406 244.320312 139.917969 243.855469 140.261719 C 243.792969 140.304688 243.730469 140.351562 243.671875 140.394531 C 243.195312 140.738281 242.71875 141.074219 242.226562 141.398438 C 242.226562 141.398438 242.222656 141.402344 242.21875 141.402344 C 241.746094 141.714844 241.261719 142.015625 240.773438 142.308594 C 240.722656 142.335938 240.675781 142.371094 240.628906 142.398438 C 240.625 142.398438 240.625 142.394531 240.625 142.394531 C 237.808594 144.0625 234.761719 145.390625 231.492188 146.300781 C 229.183594 146.945312 226.859375 147.390625 224.535156 147.691406 L 234.292969 162.464844 L 230.3125 164.449219 C 231.78125 169.3125 232.679688 174 232.117188 177.234375 C 231.101562 183.042969 227.441406 187.234375 223.097656 190.152344 L 224.714844 202.425781 C 224.714844 202.425781 223.226562 203.167969 219.796875 203.945312 L 225.640625 241.679688 C 226.210938 240.675781 227.078125 240.046875 228.394531 240.199219 C 231.710938 240.582031 231.414062 243.773438 230.824219 245.910156 C 230.824219 245.910156 230.828125 245.910156 230.828125 245.910156 C 231.09375 245.941406 231.363281 245.976562 231.636719 246.015625 C 231.664062 246.019531 231.691406 246.023438 231.71875 246.027344 C 231.847656 246.042969 231.976562 246.0625 232.109375 246.085938 C 232.167969 246.09375 232.226562 246.101562 232.285156 246.113281 C 232.480469 246.144531 232.675781 246.175781 232.871094 246.210938 C 232.960938 246.226562 233.050781 246.242188 233.136719 246.257812 C 233.242188 246.277344 233.347656 246.296875 233.453125 246.316406 C 233.609375 246.347656 233.765625 246.378906 233.921875 246.414062 C 234.011719 246.433594 234.105469 246.453125 234.199219 246.476562 C 234.320312 246.503906 234.441406 246.53125 234.5625 246.558594 C 234.644531 246.578125 234.722656 246.597656 234.800781 246.617188 C 234.980469 246.664062 235.15625 246.710938 235.332031 246.757812 C 235.394531 246.777344 235.457031 246.796875 235.519531 246.8125 C 235.664062 246.855469 235.804688 246.898438 235.945312 246.945312 C 236 246.960938 236.054688 246.976562 236.105469 246.996094 C 236.28125 247.054688 236.457031 247.113281 236.628906 247.179688 C 236.679688 247.195312 236.730469 247.21875 236.78125 247.234375 C 236.933594 247.296875 237.085938 247.359375 237.238281 247.421875 C 237.261719 247.433594 237.285156 247.445312 237.3125 247.453125 C 237.480469 247.527344 237.640625 247.605469 237.796875 247.6875 C 237.835938 247.707031 237.875 247.726562 237.914062 247.75 C 238.070312 247.832031 238.222656 247.917969 238.367188 248.007812 C 238.375 248.011719 238.378906 248.015625 238.386719 248.019531 C 238.527344 248.109375 238.65625 248.199219 238.785156 248.296875 C 238.8125 248.316406 238.84375 248.339844 238.871094 248.363281 C 238.996094 248.460938 239.117188 248.5625 239.226562 248.667969 C 239.242188 248.683594 239.253906 248.695312 239.265625 248.710938 C 239.367188 248.808594 239.457031 248.910156 239.539062 249.011719 C 239.558594 249.035156 239.578125 249.058594 239.597656 249.082031 C 239.683594 249.195312 239.761719 249.316406 239.832031 249.4375 C 239.84375 249.460938 239.855469 249.480469 239.867188 249.503906 C 239.925781 249.617188 239.976562 249.730469 240.015625 249.847656 C 240.023438 249.871094 240.035156 249.894531 240.042969 249.917969 C 240.082031 250.046875 240.113281 250.183594 240.132812 250.324219 C 240.136719 250.355469 240.140625 250.386719 240.144531 250.417969 C 240.15625 250.546875 240.160156 250.683594 240.15625 250.820312 C 240.152344 250.839844 240.15625 250.855469 240.152344 250.871094 C 240.144531 251.023438 240.117188 251.179688 240.082031 251.339844 C 240.074219 251.378906 240.0625 251.417969 240.054688 251.453125 C 240.011719 251.617188 239.960938 251.785156 239.886719 251.960938 C 239.214844 253.601562 236.175781 255.859375 232.296875 258.027344 C 231.59375 258.421875 230.859375 258.816406 230.109375 259.199219 C 227.480469 260.542969 224.628906 261.800781 221.941406 262.785156 C 220.789062 263.207031 219.667969 263.582031 218.609375 263.890625 C 218.257812 263.992188 217.910156 264.089844 217.574219 264.175781 C 214.871094 264.882812 212.679688 265.097656 211.589844 264.554688 C 210.296875 263.910156 207.773438 259.816406 204.867188 254.375 L 205.671875 254.046875 C 199.265625 239.476562 190.757812 215.023438 190.757812 215.023438 L 183.878906 248.824219 C 184.15625 248.855469 184.445312 248.933594 184.746094 249.0625 C 187.359375 250.203125 186.847656 252.535156 185.898438 254.359375 C 186.113281 254.457031 186.332031 254.566406 186.558594 254.675781 C 186.628906 254.710938 186.699219 254.746094 186.773438 254.78125 C 186.863281 254.824219 186.957031 254.871094 187.046875 254.917969 C 187.136719 254.964844 187.230469 255.011719 187.320312 255.058594 C 187.429688 255.117188 187.542969 255.171875 187.652344 255.230469 C 187.777344 255.296875 187.902344 255.367188 188.03125 255.433594 C 188.105469 255.476562 188.179688 255.515625 188.257812 255.558594 C 188.367188 255.621094 188.480469 255.683594 188.59375 255.746094 C 188.660156 255.785156 188.726562 255.824219 188.796875 255.863281 C 188.964844 255.960938 189.136719 256.058594 189.304688 256.160156 C 189.355469 256.191406 189.40625 256.222656 189.457031 256.253906 C 189.589844 256.335938 189.71875 256.417969 189.851562 256.5 C 189.910156 256.535156 189.96875 256.574219 190.027344 256.613281 C 190.183594 256.714844 190.335938 256.816406 190.488281 256.917969 C 190.507812 256.933594 190.53125 256.945312 190.550781 256.960938 C 190.722656 257.078125 190.890625 257.195312 191.054688 257.316406 C 191.101562 257.351562 191.144531 257.382812 191.191406 257.417969 C 191.324219 257.515625 191.453125 257.617188 191.578125 257.714844 C 191.617188 257.746094 191.652344 257.773438 191.691406 257.804688 C 191.847656 257.929688 192 258.058594 192.148438 258.1875 C 192.175781 258.210938 192.203125 258.234375 192.230469 258.261719 C 192.351562 258.371094 192.46875 258.476562 192.582031 258.589844 C 192.621094 258.625 192.65625 258.660156 192.691406 258.695312 C 192.824219 258.824219 192.953125 258.957031 193.070312 259.09375 C 193.074219 259.09375 193.078125 259.097656 193.078125 259.101562 C 193.199219 259.238281 193.3125 259.375 193.421875 259.515625 C 193.445312 259.550781 193.472656 259.585938 193.5 259.621094 C 193.582031 259.734375 193.660156 259.847656 193.734375 259.964844 C 193.753906 259.992188 193.773438 260.023438 193.792969 260.050781 C 193.878906 260.191406 193.957031 260.335938 194.023438 260.476562 C 194.035156 260.503906 194.046875 260.53125 194.058594 260.558594 C 194.113281 260.675781 194.15625 260.792969 194.199219 260.914062 C 194.210938 260.953125 194.222656 260.992188 194.234375 261.027344 C 194.277344 261.171875 194.3125 261.316406 194.332031 261.460938 C 194.332031 261.460938 194.335938 261.460938 194.335938 261.460938 C 194.355469 261.609375 194.363281 261.753906 194.359375 261.898438 C 194.359375 261.9375 194.355469 261.976562 194.355469 262.015625 C 194.347656 262.132812 194.332031 262.25 194.3125 262.367188 C 194.304688 262.402344 194.300781 262.433594 194.292969 262.464844 C 194.261719 262.609375 194.214844 262.753906 194.15625 262.898438 C 194.144531 262.929688 194.125 262.960938 194.113281 262.992188 C 194.058594 263.109375 193.996094 263.226562 193.925781 263.34375 C 193.902344 263.386719 193.878906 263.425781 193.851562 263.46875 C 193.753906 263.613281 193.648438 263.757812 193.523438 263.902344 C 193.136719 264.351562 192.546875 264.746094 191.792969 265.09375 C 191.289062 265.324219 190.714844 265.53125 190.082031 265.71875 C 189.84375 265.789062 189.597656 265.855469 189.34375 265.921875 C 188.832031 266.050781 188.292969 266.167969 187.726562 266.277344 C 186.3125 266.546875 184.730469 266.746094 183.058594 266.890625 C 181.726562 267.003906 180.335938 267.082031 178.929688 267.125 C 177.992188 267.15625 177.050781 267.171875 176.109375 267.171875 C 175.640625 267.171875 175.171875 267.167969 174.707031 267.164062 C 170.054688 267.101562 165.679688 266.722656 163.066406 266.183594 C 162.804688 266.132812 162.5625 266.078125 162.335938 266.019531 C 161.4375 265.792969 160.847656 265.542969 160.65625 265.28125 C 159.738281 264.015625 158.757812 259.292969 158.007812 252.457031 L 158.480469 252.46875 C 157.480469 239.476562 157.378906 218.800781 159.304688 199.683594 C 157.347656 198.984375 156.367188 198.515625 156.367188 198.515625 C 157.144531 194.640625 158 191.019531 158.890625 187.65625 C 156.027344 185.992188 152.984375 183.847656 150.273438 181.140625 C 142 172.886719 139.824219 158.988281 153.753906 149.433594 C 154.25 149.09375 154.761719 148.765625 155.289062 148.441406 L 152.667969 146.828125 C 152.667969 146.828125 162.765625 137.894531 182.242188 135.140625 C 175.058594 129.398438 169.230469 122.074219 165.585938 113.832031 C 163.578125 112.324219 151.5625 103.015625 148.910156 94.40625 C 146.636719 87.019531 150.511719 78.40625 156.617188 75.101562 C 159.820312 48.207031 182.582031 29.867188 209.042969 31.9375 C 242.347656 34.546875 274.777344 61.695312 277.390625 85.582031 C 279.046875 100.730469 269.101562 108.628906 262.863281 107.472656 Z M 262.863281 107.472656 " fill-opacity="1" fill-rule="nonzero"/></g><path fill="#ffd3a0" d="M 224.535156 147.691406 L 234.292969 162.464844 L 230.3125 164.453125 L 220.363281 169.414062 L 223.097656 190.15625 L 224.714844 202.425781 C 224.714844 202.425781 223.226562 203.167969 219.796875 203.945312 C 214.921875 205.050781 206.125 206.234375 192.066406 205.46875 C 175.011719 204.539062 164.148438 201.410156 159.304688 199.683594 C 157.347656 198.988281 156.367188 198.519531 156.367188 198.519531 C 157.144531 194.640625 158 191.023438 158.890625 187.65625 C 163.988281 168.398438 170.296875 157.6875 170.296875 157.6875 L 155.289062 148.445312 L 152.667969 146.828125 C 152.667969 146.828125 162.765625 137.898438 182.242188 135.144531 C 183.582031 136.214844 184.972656 137.222656 186.398438 138.175781 C 188.453125 139.550781 190.597656 140.796875 192.808594 141.914062 C 193.246094 142.136719 193.683594 142.367188 194.128906 142.582031 C 194.242188 142.632812 194.359375 142.683594 194.472656 142.734375 C 195.210938 143.082031 195.957031 143.414062 196.707031 143.730469 C 196.804688 143.769531 196.90625 143.808594 197 143.847656 C 197.777344 144.167969 198.558594 144.472656 199.347656 144.757812 C 199.421875 144.785156 199.5 144.8125 199.578125 144.839844 C 200.390625 145.128906 201.207031 145.40625 202.03125 145.660156 C 202.089844 145.675781 202.148438 145.691406 202.203125 145.710938 C 203.050781 145.96875 203.90625 146.207031 204.765625 146.425781 C 204.800781 146.4375 204.839844 146.445312 204.875 146.453125 C 205.757812 146.675781 206.644531 146.878906 207.535156 147.054688 C 207.550781 147.058594 207.570312 147.0625 207.589844 147.066406 C 208.5 147.246094 209.414062 147.40625 210.335938 147.542969 C 210.335938 147.542969 210.339844 147.542969 210.34375 147.542969 C 211.226562 147.671875 212.109375 147.777344 213 147.863281 C 216.5625 148.207031 220.175781 148.179688 223.789062 147.765625 C 224.035156 147.738281 224.285156 147.726562 224.535156 147.691406 Z M 224.535156 147.691406 " fill-opacity="1" fill-rule="nonzero"/><g clip-path="url(#id3)"><path fill="#342d2a" d="M 262.863281 107.472656 C 261.757812 107.269531 260.765625 106.785156 259.976562 106 C 254.753906 100.785156 257.800781 88.625 257.800781 88.625 C 257.800781 88.625 249.964844 95.574219 245.175781 91.664062 C 240.386719 87.753906 246.917969 76.027344 246.917969 76.027344 C 246.917969 76.027344 233.5625 89.5 226.890625 84.714844 C 222.25 81.382812 229.214844 73.855469 229.214844 73.855469 C 229.214844 73.855469 219.925781 81.675781 212.527344 80.804688 C 205.125 79.9375 205.125 75.160156 205.125 75.160156 C 195.546875 81.675781 177.539062 91.050781 177.539062 91.050781 C 177.539062 91.050781 172.300781 73.824219 162.042969 73.710938 C 160.121094 73.6875 158.289062 74.199219 156.621094 75.101562 C 159.820312 48.207031 182.582031 29.867188 209.042969 31.9375 C 242.347656 34.546875 274.777344 61.695312 277.390625 85.582031 C 279.046875 100.730469 269.101562 108.628906 262.863281 107.472656 Z M 194.335938 261.460938 C 194.3125 261.316406 194.277344 261.171875 194.234375 261.03125 C 194.222656 260.992188 194.210938 260.953125 194.199219 260.917969 C 194.160156 260.796875 194.113281 260.679688 194.058594 260.558594 C 194.046875 260.53125 194.039062 260.507812 194.023438 260.480469 C 193.957031 260.335938 193.878906 260.195312 193.792969 260.054688 C 193.773438 260.023438 193.753906 259.996094 193.738281 259.964844 C 193.664062 259.851562 193.582031 259.734375 193.5 259.621094 C 193.472656 259.585938 193.449219 259.550781 193.421875 259.515625 C 193.3125 259.378906 193.203125 259.238281 193.078125 259.101562 C 193.078125 259.097656 193.074219 259.097656 193.074219 259.09375 C 192.953125 258.960938 192.824219 258.828125 192.691406 258.695312 C 192.65625 258.660156 192.621094 258.625 192.585938 258.589844 C 192.472656 258.480469 192.351562 258.371094 192.230469 258.261719 C 192.203125 258.238281 192.175781 258.214844 192.148438 258.1875 C 192.003906 258.058594 191.847656 257.929688 191.691406 257.804688 C 191.65625 257.777344 191.617188 257.746094 191.582031 257.71875 C 191.453125 257.617188 191.324219 257.519531 191.195312 257.421875 C 191.148438 257.386719 191.101562 257.351562 191.054688 257.316406 C 190.890625 257.199219 190.722656 257.078125 190.554688 256.960938 C 190.53125 256.949219 190.511719 256.933594 190.492188 256.921875 C 190.339844 256.816406 190.183594 256.714844 190.027344 256.613281 C 189.96875 256.578125 189.910156 256.539062 189.851562 256.5 C 189.722656 256.417969 189.589844 256.335938 189.460938 256.257812 C 189.40625 256.226562 189.355469 256.195312 189.304688 256.164062 C 189.136719 256.0625 188.96875 255.960938 188.796875 255.863281 C 188.730469 255.824219 188.660156 255.785156 188.59375 255.75 C 188.480469 255.683594 188.371094 255.621094 188.257812 255.558594 C 188.183594 255.519531 188.105469 255.476562 188.03125 255.4375 C 187.90625 255.367188 187.78125 255.300781 187.65625 255.234375 C 187.542969 255.175781 187.433594 255.117188 187.320312 255.0625 C 187.230469 255.015625 187.140625 254.96875 187.050781 254.921875 C 186.957031 254.875 186.863281 254.828125 186.773438 254.78125 C 186.703125 254.746094 186.632812 254.710938 186.558594 254.679688 C 186.335938 254.566406 186.113281 254.460938 185.902344 254.359375 C 186.847656 252.539062 187.359375 250.207031 184.746094 249.066406 C 184.445312 248.933594 184.15625 248.859375 183.878906 248.828125 C 181.910156 248.609375 180.539062 250.777344 179.660156 253.03125 L 158.484375 252.46875 L 158.011719 252.457031 C 158.761719 259.296875 159.742188 264.019531 160.65625 265.28125 C 160.847656 265.546875 161.441406 265.796875 162.339844 266.023438 C 162.5625 266.078125 162.804688 266.132812 163.066406 266.1875 C 165.679688 266.726562 170.058594 267.105469 174.710938 267.167969 C 175.175781 267.171875 175.644531 267.175781 176.113281 267.175781 C 177.050781 267.171875 177.996094 267.160156 178.933594 267.128906 C 180.335938 267.085938 181.726562 267.007812 183.0625 266.894531 C 185.730469 266.664062 188.179688 266.285156 190.082031 265.722656 C 190.71875 265.535156 191.292969 265.324219 191.792969 265.09375 C 192.546875 264.75 193.136719 264.355469 193.527344 263.90625 C 193.652344 263.761719 193.757812 263.617188 193.851562 263.46875 C 193.878906 263.429688 193.902344 263.390625 193.929688 263.347656 C 194 263.230469 194.0625 263.113281 194.113281 262.996094 C 194.128906 262.964844 194.144531 262.933594 194.15625 262.902344 C 194.21875 262.757812 194.261719 262.613281 194.296875 262.46875 C 194.304688 262.4375 194.308594 262.402344 194.3125 262.371094 C 194.335938 262.253906 194.351562 262.136719 194.355469 262.019531 C 194.359375 261.980469 194.363281 261.941406 194.363281 261.902344 C 194.363281 261.757812 194.359375 261.609375 194.335938 261.464844 C 194.335938 261.464844 194.335938 261.460938 194.335938 261.460938 Z M 240.132812 250.324219 C 240.113281 250.183594 240.082031 250.050781 240.042969 249.917969 C 240.035156 249.894531 240.023438 249.871094 240.015625 249.847656 C 239.976562 249.730469 239.925781 249.617188 239.867188 249.503906 C 239.855469 249.484375 239.84375 249.460938 239.832031 249.4375 C 239.761719 249.316406 239.683594 249.195312 239.597656 249.082031 C 239.578125 249.058594 239.558594 249.035156 239.539062 249.011719 C 239.457031 248.910156 239.367188 248.808594 239.265625 248.710938 C 239.253906 248.695312 239.242188 248.683594 239.226562 248.667969 C 239.117188 248.5625 238.996094 248.460938 238.871094 248.363281 C 238.84375 248.339844 238.8125 248.316406 238.785156 248.296875 C 238.65625 248.203125 238.527344 248.109375 238.386719 248.019531 C 238.378906 248.015625 238.375 248.011719 238.367188 248.007812 C 238.222656 247.917969 238.070312 247.832031 237.914062 247.75 C 237.875 247.730469 237.835938 247.707031 237.796875 247.6875 C 237.640625 247.609375 237.480469 247.53125 237.3125 247.457031 C 237.285156 247.445312 237.261719 247.433594 237.238281 247.425781 C 237.085938 247.359375 236.933594 247.296875 236.78125 247.238281 C 236.730469 247.21875 236.679688 247.199219 236.628906 247.179688 C 236.457031 247.117188 236.28125 247.054688 236.105469 246.996094 C 236.054688 246.976562 236 246.960938 235.945312 246.945312 C 235.804688 246.898438 235.664062 246.855469 235.519531 246.816406 C 235.457031 246.796875 235.394531 246.777344 235.332031 246.761719 C 235.15625 246.710938 234.980469 246.664062 234.800781 246.617188 C 234.722656 246.597656 234.644531 246.582031 234.5625 246.5625 C 234.441406 246.53125 234.320312 246.503906 234.199219 246.476562 C 234.105469 246.457031 234.011719 246.433594 233.921875 246.414062 C 233.765625 246.382812 233.609375 246.347656 233.453125 246.320312 C 233.347656 246.296875 233.242188 246.277344 233.136719 246.257812 C 233.050781 246.242188 232.960938 246.226562 232.871094 246.210938 C 232.675781 246.175781 232.480469 246.144531 232.285156 246.113281 C 232.226562 246.105469 232.167969 246.09375 232.109375 246.085938 C 231.976562 246.066406 231.847656 246.046875 231.71875 246.027344 C 231.691406 246.023438 231.664062 246.019531 231.636719 246.015625 C 231.363281 245.976562 231.09375 245.941406 230.828125 245.910156 C 230.824219 245.910156 230.824219 245.910156 230.824219 245.910156 C 231.414062 243.773438 231.710938 240.585938 228.394531 240.203125 C 227.078125 240.046875 226.210938 240.675781 225.640625 241.679688 C 224.960938 242.886719 224.710938 244.632812 224.652344 246.246094 L 205.671875 254.046875 L 204.867188 254.378906 C 207.773438 259.816406 210.296875 263.914062 211.589844 264.558594 C 212.679688 265.101562 214.871094 264.882812 217.574219 264.179688 C 217.910156 264.089844 218.257812 263.992188 218.609375 263.890625 C 219.667969 263.582031 220.789062 263.210938 221.941406 262.785156 C 224.628906 261.800781 227.480469 260.542969 230.109375 259.199219 C 230.859375 258.816406 231.59375 258.425781 232.296875 258.03125 C 236.175781 255.863281 239.214844 253.605469 239.886719 251.960938 C 239.957031 251.789062 240.011719 251.621094 240.054688 251.457031 C 240.0625 251.417969 240.074219 251.378906 240.082031 251.34375 C 240.117188 251.183594 240.144531 251.027344 240.152344 250.875 C 240.15625 250.855469 240.152344 250.839844 240.15625 250.824219 C 240.160156 250.683594 240.15625 250.550781 240.144531 250.417969 C 240.140625 250.386719 240.136719 250.355469 240.132812 250.324219 Z M 244.691406 123.082031 C 244.070312 122.902344 243.476562 122.714844 242.890625 122.4375 C 242.292969 122.183594 241.632812 121.867188 241 121.570312 C 239.71875 120.953125 238.410156 120.304688 237.027344 119.675781 C 235.707031 119.074219 234.339844 118.492188 232.765625 118.019531 C 232.074219 117.480469 231.328125 117.125 230.582031 116.859375 C 228.695312 116.226562 226.773438 116.050781 224.878906 116.292969 C 226.636719 116.996094 228.347656 117.644531 229.835938 118.503906 C 230.566406 118.929688 231.242188 119.414062 231.6875 119.953125 C 232.128906 120.496094 232.296875 121.011719 232.246094 121.613281 C 232.121094 122.835938 231.003906 124.039062 229.546875 124.960938 C 228.113281 125.917969 226.460938 126.695312 224.753906 127.515625 C 226.660156 127.636719 228.570312 127.3125 230.398438 126.566406 C 231.3125 126.191406 232.210938 125.667969 232.996094 124.898438 C 233.773438 124.144531 234.417969 123.058594 234.546875 121.832031 C 234.558594 121.667969 234.5625 121.5 234.558594 121.332031 C 234.789062 121.605469 235.027344 121.871094 235.273438 122.128906 C 236.441406 123.296875 237.800781 124.292969 239.332031 125.035156 C 239.722656 125.207031 240.113281 125.382812 240.515625 125.535156 C 240.941406 125.660156 241.3125 125.820312 241.785156 125.914062 C 242.675781 126.140625 243.636719 126.210938 244.574219 126.105469 C 246.441406 125.90625 248.296875 124.882812 249.003906 123.226562 C 247.296875 123.574219 245.929688 123.410156 244.691406 123.082031 Z M 211.058594 113.410156 C 212.082031 112.992188 213.0625 112.390625 213.671875 111.492188 C 212.628906 111.667969 211.675781 111.636719 210.765625 111.542969 C 209.855469 111.441406 208.996094 111.253906 208.160156 110.996094 C 206.492188 110.484375 204.925781 109.753906 203.328125 108.890625 C 201.734375 108.03125 200.125 107.085938 198.472656 106.121094 C 196.804688 105.15625 195.109375 104.183594 193.183594 103.304688 C 193.957031 105.289062 195.183594 106.960938 196.578125 108.46875 C 197.992188 109.964844 199.636719 111.265625 201.503906 112.277344 C 203.359375 113.292969 205.53125 113.980469 207.773438 113.996094 C 208.890625 113.996094 210.023438 113.816406 211.058594 113.410156 Z M 222.203125 98.703125 C 221.992188 97.289062 218.367188 96.652344 214.105469 97.28125 C 209.839844 97.914062 206.554688 99.570312 206.765625 100.988281 C 206.976562 102.402344 210.601562 103.039062 214.867188 102.40625 C 219.128906 101.777344 222.414062 100.117188 222.203125 98.703125 Z M 242.953125 115.703125 C 244.136719 114.898438 243.140625 111.363281 240.722656 107.804688 C 238.304688 104.242188 235.382812 102.007812 234.195312 102.808594 C 233.007812 103.613281 234.007812 107.148438 236.425781 110.707031 C 238.84375 114.269531 241.765625 116.503906 242.953125 115.703125 Z M 212.269531 136.675781 C 212.269531 136.671875 212.269531 136.667969 212.269531 136.664062 C 212.230469 136.660156 212.191406 136.65625 212.152344 136.648438 C 212.191406 136.65625 212.230469 136.671875 212.269531 136.675781 Z M 214.847656 136.695312 C 219.054688 135.96875 218.910156 133.21875 217.605469 132.207031 C 216.296875 131.191406 214.738281 131.640625 213.542969 130.179688 C 211.996094 128.289062 211.800781 125.691406 209.769531 124.964844 C 208.761719 124.605469 207.679688 124.699219 206.746094 125.15625 C 209.265625 127.136719 211.886719 130.628906 212.269531 136.664062 C 213.152344 136.808594 214.027344 136.835938 214.847656 136.695312 Z M 214.847656 136.695312 " fill-opacity="1" fill-rule="nonzero"/></g><path fill="#ee6647" d="M 219.796875 203.945312 L 225.640625 241.679688 C 224.960938 242.882812 224.710938 244.628906 224.652344 246.246094 L 205.671875 254.046875 C 199.265625 239.476562 190.757812 215.023438 190.757812 215.023438 L 183.878906 248.824219 C 181.90625 248.609375 180.539062 250.777344 179.65625 253.03125 L 158.480469 252.46875 C 157.480469 239.476562 157.378906 218.804688 159.304688 199.683594 C 164.148438 201.410156 175.011719 204.539062 192.0625 205.46875 C 206.121094 206.234375 214.921875 205.050781 219.796875 203.945312 Z M 186.839844 122.503906 C 191.167969 122.503906 194.675781 119.003906 194.675781 114.683594 C 194.675781 110.367188 191.167969 106.867188 186.839844 106.867188 C 182.511719 106.867188 179.003906 110.367188 179.003906 114.683594 C 179.003906 119.003906 182.511719 122.503906 186.839844 122.503906 Z M 244.742188 127.933594 C 240.414062 127.933594 236.90625 131.433594 236.90625 135.753906 C 236.90625 138.5625 238.398438 141.019531 240.628906 142.398438 C 241.167969 142.082031 241.699219 141.75 242.21875 141.40625 C 242.222656 141.402344 242.226562 141.402344 242.230469 141.398438 C 242.71875 141.074219 243.199219 140.742188 243.671875 140.398438 C 243.734375 140.351562 243.792969 140.308594 243.855469 140.261719 C 244.320312 139.917969 244.78125 139.566406 245.234375 139.203125 C 245.242188 139.199219 245.246094 139.195312 245.253906 139.191406 C 246.210938 138.417969 247.136719 137.601562 248.023438 136.746094 C 248.050781 136.722656 248.078125 136.695312 248.109375 136.667969 C 249.445312 135.375 250.699219 133.992188 251.875 132.53125 C 250.644531 129.820312 247.914062 127.933594 244.742188 127.933594 Z M 204.550781 130.84375 C 204.574219 130.914062 204.601562 130.980469 204.625 131.050781 C 204.675781 131.203125 204.734375 131.351562 204.800781 131.5 C 204.832031 131.574219 204.871094 131.652344 204.90625 131.726562 C 204.976562 131.871094 205.054688 132.011719 205.140625 132.152344 C 205.179688 132.21875 205.222656 132.289062 205.265625 132.359375 C 205.375 132.53125 205.496094 132.699219 205.625 132.863281 C 205.648438 132.894531 205.671875 132.929688 205.695312 132.960938 C 205.847656 133.148438 206.011719 133.332031 206.183594 133.511719 C 206.25 133.582031 206.320312 133.648438 206.390625 133.71875 C 206.503906 133.828125 206.617188 133.9375 206.738281 134.042969 C 206.824219 134.117188 206.910156 134.191406 207 134.265625 C 207.113281 134.359375 207.230469 134.449219 207.347656 134.539062 C 207.445312 134.613281 207.539062 134.6875 207.636719 134.757812 C 207.761719 134.84375 207.886719 134.925781 208.011719 135.007812 C 208.179688 135.113281 208.34375 135.214844 208.515625 135.3125 C 208.660156 135.398438 208.800781 135.480469 208.945312 135.554688 C 209.078125 135.625 209.210938 135.6875 209.34375 135.75 C 209.449219 135.800781 209.558594 135.851562 209.664062 135.898438 C 209.804688 135.957031 209.945312 136.015625 210.089844 136.070312 C 210.191406 136.113281 210.292969 136.148438 210.398438 136.1875 C 210.546875 136.238281 210.695312 136.292969 210.84375 136.339844 C 210.9375 136.367188 211.035156 136.394531 211.128906 136.421875 C 211.507812 136.527344 211.890625 136.617188 212.269531 136.675781 C 211.890625 130.636719 209.265625 127.136719 206.746094 125.160156 C 206.5625 125.246094 206.390625 125.355469 206.21875 125.472656 C 206.175781 125.5 206.132812 125.535156 206.089844 125.570312 C 205.96875 125.660156 205.855469 125.757812 205.742188 125.859375 C 205.695312 125.90625 205.648438 125.953125 205.601562 126 C 205.496094 126.109375 205.398438 126.222656 205.304688 126.34375 C 205.265625 126.390625 205.226562 126.4375 205.1875 126.488281 C 205.066406 126.660156 204.953125 126.839844 204.855469 127.03125 C 204.851562 127.035156 204.851562 127.035156 204.847656 127.039062 C 204.75 127.234375 204.664062 127.445312 204.59375 127.660156 C 204.570312 127.726562 204.554688 127.792969 204.535156 127.859375 C 204.492188 128.019531 204.453125 128.179688 204.421875 128.347656 C 204.40625 128.429688 204.394531 128.511719 204.382812 128.597656 C 204.363281 128.769531 204.351562 128.945312 204.34375 129.125 C 204.34375 129.207031 204.335938 129.285156 204.339844 129.367188 C 204.34375 129.628906 204.359375 129.898438 204.402344 130.179688 C 204.433594 130.402344 204.488281 130.625 204.550781 130.84375 Z M 204.550781 130.84375 " fill-opacity="1" fill-rule="nonzero"/></svg>