<svg xmlns="http://www.w3.org/2000/svg" xmlns:xlink="http://www.w3.org/1999/xlink" width="559" zoomAndPan="magnify" viewBox="0 0 419.25 297.749993" height="396" preserveAspectRatio="xMidYMid meet" version="1.0"><defs><clipPath id="id1"><path d="M 0 0.140625 L 418.5 0.140625 L 418.5 297.359375 L 0 297.359375 Z M 0 0.140625 " clip-rule="nonzero"/></clipPath><clipPath id="id2"><path d="M 136.027344 110 L 200 110 L 200 133 L 136.027344 133 Z M 136.027344 110 " clip-rule="nonzero"/></clipPath><clipPath id="id3"><path d="M 234 185 L 272 185 L 272 264.789062 L 234 264.789062 Z M 234 185 " clip-rule="nonzero"/></clipPath><clipPath id="id4"><path d="M 177 185 L 236 185 L 236 264.789062 L 177 264.789062 Z M 177 185 " clip-rule="nonzero"/></clipPath><clipPath id="id5"><path d="M 176 232 L 215 232 L 215 264.789062 L 176 264.789062 Z M 176 232 " clip-rule="nonzero"/></clipPath><clipPath id="id6"><path d="M 189 234 L 214.464844 234 L 214.464844 244 L 189 244 Z M 189 234 " clip-rule="nonzero"/></clipPath><clipPath id="id7"><path d="M 187.910156 252.472656 C 184.398438 252.621094 180.746094 253.738281 177.679688 255.460938 C 177.34375 255.648438 176.972656 255.910156 176.957031 256.296875 C 176.9375 256.765625 177.449219 257.058594 177.886719 257.242188 L 201.609375 264.746094 C 201.609375 264.746094 207.238281 252.84375 214.203125 238.617188 L 194.648438 232.191406 C 192.378906 238.9375 190.175781 245.730469 187.910156 252.472656 " clip-rule="nonzero"/></clipPath><clipPath id="id8"><path d="M 189 236 L 214 236 L 214 246 L 189 246 Z M 189 236 " clip-rule="nonzero"/></clipPath><clipPath id="id9"><path d="M 187.910156 252.472656 C 184.398438 252.621094 180.746094 253.738281 177.679688 255.460938 C 177.34375 255.648438 176.972656 255.910156 176.957031 256.296875 C 176.9375 256.765625 177.449219 257.058594 177.886719 257.242188 L 201.609375 264.746094 C 201.609375 264.746094 207.238281 252.84375 214.203125 238.617188 L 194.648438 232.191406 C 192.378906 238.9375 190.175781 245.730469 187.910156 252.472656 " clip-rule="nonzero"/></clipPath><clipPath id="id10"><path d="M 177 252 L 204 252 L 204 264.789062 L 177 264.789062 Z M 177 252 " clip-rule="nonzero"/></clipPath><clipPath id="id11"><path d="M 241 235 L 272 235 L 272 264.789062 L 241 264.789062 Z M 241 235 " clip-rule="nonzero"/></clipPath><clipPath id="id12"><path d="M 241.675781 238 L 267 238 L 267 241 L 241.675781 241 Z M 241.675781 238 " clip-rule="nonzero"/></clipPath><clipPath id="id13"><path d="M 241.785156 235.578125 C 243.976562 251.265625 245.777344 264.382812 245.777344 264.382812 L 270.445312 264.382812 C 270.914062 264.34375 271.492188 264.226562 271.621094 263.773438 C 271.726562 263.402344 271.453125 263.035156 271.191406 262.753906 C 268.816406 260.164062 265.824219 258.144531 262.535156 256.910156 C 262.480469 249.796875 262.425781 242.679688 262.371094 235.5625 Z M 241.785156 235.578125 " clip-rule="nonzero"/></clipPath><clipPath id="id14"><path d="M 241.675781 240 L 267 240 L 267 243 L 241.675781 243 Z M 241.675781 240 " clip-rule="nonzero"/></clipPath><clipPath id="id15"><path d="M 241.785156 235.578125 C 243.976562 251.265625 245.777344 264.382812 245.777344 264.382812 L 270.445312 264.382812 C 270.914062 264.34375 271.492188 264.226562 271.621094 263.773438 C 271.726562 263.402344 271.453125 263.035156 271.191406 262.753906 C 268.816406 260.164062 265.824219 258.144531 262.535156 256.910156 C 262.480469 249.796875 262.425781 242.679688 262.371094 235.5625 Z M 241.785156 235.578125 " clip-rule="nonzero"/></clipPath><clipPath id="id16"><path d="M 245 257 L 272 257 L 272 264.789062 L 245 264.789062 Z M 245 257 " clip-rule="nonzero"/></clipPath><clipPath id="id17"><path d="M 213 128 L 282.761719 128 L 282.761719 155 L 213 155 Z M 213 128 " clip-rule="nonzero"/></clipPath><clipPath id="id18"><path d="M 176 32.703125 L 187 32.703125 L 187 49 L 176 49 Z M 176 32.703125 " clip-rule="nonzero"/></clipPath></defs><g clip-path="url(#id1)"><path fill="#ffffff" d="M 0 0.140625 L 419.25 0.140625 L 419.25 304.097656 L 0 304.097656 Z M 0 0.140625 " fill-opacity="1" fill-rule="nonzero"/><path fill="#eb94c9" d="M 0 0.140625 L 418.5 0.140625 L 418.5 297.359375 L 0 297.359375 Z M 0 0.140625 " fill-opacity="1" fill-rule="nonzero"/><path fill="#ffffff" d="M 0 0.140625 L 418.5 0.140625 L 418.5 297.359375 L 0 297.359375 Z M 0 0.140625 " fill-opacity="1" fill-rule="nonzero"/><path fill="#eb94c9" d="M 0 0.140625 L 418.5 0.140625 L 418.5 297.359375 L 0 297.359375 Z M 0 0.140625 " fill-opacity="1" fill-rule="nonzero"/></g><g clip-path="url(#id2)"><path fill="#f4c5ab" d="M 139.351562 128.027344 C 138.863281 128.105469 138.472656 127.953125 138.117188 127.644531 C 137.714844 127.292969 137.5625 126.738281 137.789062 126.253906 C 138.121094 125.542969 138.824219 125.230469 139.496094 124.945312 C 140.488281 124.519531 142.4375 123.929688 144.363281 123.433594 C 144.316406 123.410156 144.269531 123.390625 144.226562 123.367188 C 142.316406 123.667969 140.410156 123.78125 138.453125 123.539062 C 137.363281 123.402344 136.746094 122.71875 136.609375 122.527344 C 136.269531 122.046875 136.335938 121.207031 136.878906 120.976562 C 138.679688 120.21875 141.464844 119.753906 143.644531 119.441406 C 140.886719 118.847656 138.933594 119.152344 136.835938 117.585938 C 136.472656 117.3125 136.191406 116.917969 136.144531 116.46875 C 136.015625 115.238281 137.351562 114.792969 138.425781 114.648438 C 141.015625 114.292969 143.640625 114.175781 146.253906 114.292969 C 145.617188 113.753906 145 113.195312 144.464844 112.554688 C 144.199219 112.238281 143.941406 111.851562 144.015625 111.449219 C 144.085938 111.070312 144.441406 110.796875 144.816406 110.707031 C 145.1875 110.617188 145.582031 110.675781 145.957031 110.746094 C 149.09375 111.324219 152.097656 112.585938 154.714844 114.40625 C 163.363281 114.46875 176.117188 114.527344 181.429688 114.761719 C 187.476562 115.023438 193.082031 114.953125 199.453125 115.453125 L 198.738281 132.949219 L 156.785156 131.230469 C 156.199219 131.207031 155.621094 131.117188 155.054688 130.964844 C 153.816406 130.636719 151.625 130.050781 151.265625 129.957031 C 150.886719 129.859375 149.414062 130.328125 149.03125 130.414062 C 146.824219 130.929688 144.710938 131.535156 143.050781 132.136719 C 142.625 132.292969 142.15625 132.351562 141.722656 132.222656 C 140.59375 131.894531 140.652344 130.855469 141.125 130.21875 C 141.425781 129.8125 141.867188 129.535156 142.296875 129.265625 C 143.496094 128.523438 146.070312 127.40625 147.652344 126.558594 C 147.613281 126.472656 147.628906 126.503906 147.589844 126.414062 C 144.40625 127.433594 141.136719 127.734375 139.351562 128.027344 " fill-opacity="1" fill-rule="nonzero"/></g><path stroke-linecap="round" transform="matrix(0.266795, 0, 0, 0.266895, 87.20195, 26.628712)" fill="none" stroke-linejoin="miter" d="M 221.337946 328.459434 L 236.521044 343.168506 C 236.521044 343.168506 234.66159 346.300587 234.925135 356.970153 C 235.203321 367.639719 254.149249 373.318446 254.149249 373.318446 " stroke="#c5654c" stroke-width="2" stroke-opacity="1" stroke-miterlimit="10"/><g clip-path="url(#id3)"><path fill="#f4c5ab" d="M 261.5625 185.835938 C 261.566406 185.964844 262.1875 211.445312 262.1875 211.578125 L 262.535156 256.910156 C 265.824219 258.144531 268.816406 260.164062 271.191406 262.753906 C 271.453125 263.035156 271.726562 263.402344 271.621094 263.773438 C 271.492188 264.226562 270.914062 264.34375 270.445312 264.382812 L 245.777344 264.382812 C 245.777344 264.382812 237.378906 203.316406 234.835938 187.09375 " fill-opacity="1" fill-rule="nonzero"/></g><g clip-path="url(#id4)"><path fill="#f4c5ab" d="M 210.597656 185.171875 C 210.554688 185.296875 202.164062 209.359375 202.121094 209.484375 C 197.386719 223.835938 192.652344 238.183594 187.914062 252.535156 C 184.40625 252.699219 180.9375 253.707031 177.882812 255.441406 C 177.546875 255.632812 177.179688 255.898438 177.164062 256.285156 C 177.148438 256.753906 177.660156 257.046875 178.097656 257.222656 L 201.578125 264.78125 C 201.578125 264.78125 228.265625 209.222656 235.65625 194.558594 " fill-opacity="1" fill-rule="nonzero"/></g><g clip-path="url(#id5)"><path fill="#e5e5e5" d="M 194.648438 232.191406 C 192.378906 238.9375 190.175781 245.730469 187.910156 252.472656 C 184.398438 252.621094 180.746094 253.738281 177.679688 255.460938 C 177.34375 255.648438 176.972656 255.910156 176.957031 256.296875 C 176.9375 256.765625 177.449219 257.058594 177.886719 257.242188 L 201.609375 264.746094 C 201.609375 264.746094 207.238281 252.84375 214.203125 238.617188 " fill-opacity="1" fill-rule="nonzero"/></g><g clip-path="url(#id6)"><g clip-path="url(#id7)"><path fill="#76acae" d="M 190.160156 235.304688 C 197.988281 238.011719 205.835938 240.675781 213.664062 243.382812 C 214.375 243.628906 214.675781 242.507812 213.972656 242.261719 C 206.144531 239.554688 198.296875 236.890625 190.46875 234.183594 C 189.761719 233.9375 189.457031 235.058594 190.160156 235.304688 " fill-opacity="1" fill-rule="nonzero"/></g></g><g clip-path="url(#id8)"><g clip-path="url(#id9)"><path fill="#76acae" d="M 189.496094 237.328125 C 197.324219 240.039062 205.171875 242.699219 213 245.410156 C 213.710938 245.652344 214.011719 244.53125 213.308594 244.289062 C 205.480469 241.578125 197.632812 238.917969 189.804688 236.207031 C 189.097656 235.964844 188.792969 237.085938 189.496094 237.328125 " fill-opacity="1" fill-rule="nonzero"/></g></g><g clip-path="url(#id10)"><path fill="#6496b0" d="M 192.203125 258.730469 C 192.050781 258.613281 191.953125 258.445312 191.851562 258.285156 C 190.410156 255.996094 188.429688 254.058594 186.121094 252.652344 C 183.203125 253.023438 180.359375 253.960938 177.808594 255.417969 C 177.472656 255.609375 177.101562 255.875 177.089844 256.257812 C 177.074219 256.730469 177.585938 257.019531 178.023438 257.199219 L 201.515625 264.714844 C 201.515625 264.714844 202.179688 263.324219 203.328125 260.929688 C 200.019531 259.835938 196.574219 259.171875 193.09375 258.960938 C 192.785156 258.941406 192.449219 258.917969 192.203125 258.730469 " fill-opacity="1" fill-rule="nonzero"/></g><g clip-path="url(#id11)"><path fill="#e5e5e5" d="M 262.371094 235.5625 C 262.425781 242.679688 262.480469 249.792969 262.535156 256.910156 C 265.824219 258.144531 268.816406 260.164062 271.191406 262.753906 C 271.453125 263.035156 271.726562 263.402344 271.621094 263.773438 C 271.492188 264.226562 270.914062 264.34375 270.445312 264.382812 L 245.78125 264.382812 C 245.78125 264.382812 243.976562 251.265625 241.785156 235.578125 " fill-opacity="1" fill-rule="nonzero"/></g><g clip-path="url(#id12)"><g clip-path="url(#id13)"><path fill="#76acae" d="M 265.695312 238.757812 C 257.464844 238.890625 249.234375 239.027344 241.003906 239.164062 C 240.257812 239.175781 240.253906 240.339844 241.003906 240.328125 C 249.234375 240.191406 257.464844 240.054688 265.695312 239.917969 C 266.441406 239.90625 266.445312 238.742188 265.695312 238.757812 " fill-opacity="1" fill-rule="nonzero"/></g></g><g clip-path="url(#id14)"><g clip-path="url(#id15)"><path fill="#76acae" d="M 265.695312 240.886719 C 257.464844 241.023438 249.234375 241.160156 241.003906 241.296875 C 240.257812 241.308594 240.253906 242.46875 241.003906 242.457031 C 249.234375 242.320312 257.464844 242.1875 265.695312 242.050781 C 266.441406 242.039062 266.445312 240.875 265.695312 240.886719 " fill-opacity="1" fill-rule="nonzero"/></g></g><g clip-path="url(#id16)"><path fill="#6496b0" d="M 256.472656 261.519531 C 256.652344 261.453125 256.796875 261.328125 256.941406 261.203125 C 259.011719 259.460938 261.492188 258.21875 264.117188 257.582031 C 266.78125 258.824219 269.207031 260.585938 271.191406 262.75 C 271.453125 263.035156 271.726562 263.402344 271.621094 263.773438 C 271.492188 264.226562 270.914062 264.34375 270.445312 264.378906 L 245.78125 264.378906 C 245.78125 264.378906 245.570312 262.855469 245.207031 260.21875 C 248.691406 260.191406 252.179688 260.605469 255.554688 261.464844 C 255.855469 261.542969 256.179688 261.625 256.472656 261.519531 " fill-opacity="1" fill-rule="nonzero"/></g><path fill="#76acae" d="M 261.925781 165.75 C 259.316406 156.054688 261.6875 150.730469 259.738281 140.921875 L 272.707031 129 C 269.09375 125.382812 266.09375 122.390625 262.753906 119.1875 C 261.292969 117.78125 259.703125 116.484375 257.910156 115.539062 C 255.976562 114.511719 253.839844 113.917969 251.699219 113.46875 C 244.523438 111.953125 237.121094 111.960938 229.796875 112.222656 C 218.105469 112.636719 206.4375 113.285156 194.855469 114.9375 C 194.855469 114.9375 192.910156 120.730469 192.785156 126.933594 C 192.65625 133.132812 194.34375 135.441406 194.34375 135.441406 C 199.792969 134.957031 205.257812 134.609375 210.726562 134.398438 L 210.449219 134.6875 C 209.820312 145.992188 212.707031 162.242188 212.925781 166.910156 L 200.691406 204.414062 C 209.296875 208.796875 215.664062 211.152344 226.378906 212.703125 C 229.316406 213.125 234.90625 213.527344 237.871094 213.476562 C 248.8125 213.292969 259.109375 212.765625 269.515625 209.382812 C 268.445312 196.753906 266.417969 184.203125 263.453125 171.882812 Z M 261.925781 165.75 " fill-opacity="1" fill-rule="nonzero"/><path fill="#e5e5e5" d="M 235.621094 128.089844 C 236.816406 126.460938 237.574219 124.558594 238.316406 122.679688 L 242.300781 112.628906 C 236.945312 112.042969 231.507812 112.097656 226.117188 112.285156 C 223.816406 112.367188 221.515625 112.460938 219.214844 112.566406 C 218.625 113.105469 218.085938 113.722656 217.589844 114.335938 C 214.890625 117.664062 212.382812 121.410156 211.90625 125.671875 C 211.828125 126.382812 211.8125 127.132812 212.125 127.777344 C 212.71875 129.011719 214.363281 129.433594 215.671875 129.046875 C 216.984375 128.660156 218.019531 127.660156 218.929688 126.640625 C 220.847656 124.496094 222.480469 122.097656 223.769531 119.523438 C 224.15625 122.113281 223.230469 124.839844 224.011719 127.339844 C 224.867188 130.082031 227.921875 131.9375 230.746094 131.433594 C 232.734375 131.078125 234.429688 129.722656 235.621094 128.089844 " fill-opacity="1" fill-rule="nonzero"/><path fill="#e5e5e5" d="M 223.074219 120.757812 C 220.8125 131.617188 219.785156 142.386719 219.972656 153.476562 C 219.984375 154.226562 221.148438 154.226562 221.132812 153.476562 C 220.949219 142.492188 221.953125 131.824219 224.195312 121.066406 C 224.347656 120.335938 223.226562 120.023438 223.074219 120.757812 " fill-opacity="1" fill-rule="nonzero"/><path fill="#80462d" d="M 262.832031 105.382812 C 262.496094 101.839844 262.164062 98.292969 261.828125 94.746094 C 261.53125 91.570312 261.230469 88.390625 260.753906 85.238281 C 259.195312 74.9375 255.722656 64.933594 250.566406 55.886719 C 249.511719 54.035156 248.347656 52.179688 246.648438 50.890625 C 244.949219 49.601562 242.597656 48.980469 240.648438 49.832031 C 240.648438 49.832031 236.886719 46.359375 228.214844 44.503906 C 221.953125 43.164062 211.675781 44.148438 205.8125 46.714844 C 199.945312 49.28125 194.492188 55.101562 191.425781 60.722656 C 186.824219 69.148438 187.625 77.859375 188.636719 87.40625 C 189.722656 97.65625 191.222656 107.890625 193.871094 117.847656 C 194.558594 120.4375 195.324219 123.003906 196.089844 125.566406 L 196.644531 127.433594 C 196.644531 127.433594 227.339844 114.113281 242.878906 110.429688 C 258.421875 106.746094 262.832031 105.382812 262.832031 105.382812 " fill-opacity="1" fill-rule="nonzero"/><path fill="#f4c5ab" d="M 219.835938 113.949219 L 222.835938 122.363281 C 222.835938 122.363281 226.832031 122.476562 231.417969 119.078125 C 236.003906 115.679688 237.902344 111.609375 237.902344 111.609375 L 234.511719 102.089844 Z M 219.835938 113.949219 " fill-opacity="1" fill-rule="nonzero"/><path fill="#edb29f" d="M 219.835938 113.949219 L 221.871094 119.5 C 221.871094 119.5 228.554688 118.347656 231.289062 113.335938 C 234.617188 107.234375 234.511719 102.089844 234.511719 102.089844 Z M 219.835938 113.949219 " fill-opacity="1" fill-rule="nonzero"/><path fill="#f4c5ab" d="M 197.945312 60.476562 C 200.140625 57.726562 202.851562 55.4375 206.195312 54.347656 C 210.847656 52.835938 217.335938 51.320312 221.949219 51.464844 C 228.777344 51.675781 235.449219 54.5625 240.269531 59.289062 C 245.09375 64.019531 248.011719 70.574219 248.285156 77.292969 L 248.332031 78.460938 C 248.355469 79 248.160156 79.53125 248.160156 79.53125 C 248.160156 79.53125 250.582031 79.660156 252.019531 82.804688 C 255.089844 89.515625 248.957031 99.183594 242.589844 97.664062 C 242.585938 97.664062 242.582031 97.664062 242.578125 97.660156 C 242.042969 97.546875 241.496094 97.792969 241.253906 98.289062 C 239.910156 101.058594 236.238281 107.277344 231.988281 110.519531 C 225.746094 115.285156 218.171875 117 210.128906 116.066406 C 202.453125 115.171875 198.015625 109.746094 194.746094 103.199219 C 193.351562 100.417969 192.226562 95.972656 192.121094 92.847656 C 191.804688 83.617188 188.703125 72.019531 197.945312 60.476562 " fill-opacity="1" fill-rule="nonzero"/><path fill="#c5654c" d="M 248.097656 84.492188 C 246.125 83.632812 243.960938 85.152344 243.199219 86.988281 C 242.527344 88.597656 242.59375 92.363281 244.878906 92.589844 C 245.621094 92.664062 245.613281 91.503906 244.878906 91.429688 C 244.160156 91.355469 243.992188 89.554688 243.980469 89.058594 C 243.96875 88.40625 244.085938 87.734375 244.394531 87.152344 C 244.925781 86.15625 246.308594 84.96875 247.511719 85.496094 C 248.191406 85.789062 248.785156 84.789062 248.097656 84.492188 " fill-opacity="1" fill-rule="nonzero"/><path fill="#c5654c" d="M 243.714844 88.335938 C 245.058594 87.785156 246.097656 88.875 246.511719 90.066406 C 246.757812 90.765625 247.882812 90.464844 247.632812 89.753906 C 247.027344 88.023438 245.363281 86.410156 243.402344 87.214844 C 242.722656 87.496094 243.019531 88.621094 243.714844 88.335938 " fill-opacity="1" fill-rule="nonzero"/><path fill="#c5654c" d="M 206.726562 86.582031 C 206.917969 87.347656 207.109375 88.117188 207.300781 88.886719 C 207.535156 89.816406 207.78125 90.207031 206.792969 90.191406 C 206.089844 90.179688 205.382812 90.144531 204.964844 90.851562 C 204.078125 92.351562 205.601562 94.074219 206.921875 94.558594 C 207.625 94.816406 207.929688 93.695312 207.230469 93.4375 C 206.746094 93.261719 205.691406 92.445312 205.914062 91.746094 C 206.199219 90.867188 206.835938 91.53125 207.335938 91.59375 C 207.839844 91.652344 208.273438 91.605469 208.582031 91.167969 C 208.851562 90.789062 208.804688 90.324219 208.738281 89.890625 C 208.554688 88.683594 208.140625 87.457031 207.84375 86.273438 C 207.664062 85.546875 206.542969 85.855469 206.726562 86.582031 " fill-opacity="1" fill-rule="nonzero"/><path fill="#edb29f" d="M 238.070312 94.613281 C 236.648438 93.933594 235.101562 93.445312 233.523438 93.421875 C 230.949219 93.390625 228.441406 94.640625 226.707031 96.542969 C 224.972656 98.445312 223.980469 100.953125 223.65625 103.503906 C 223.371094 105.753906 223.597656 108.113281 224.601562 110.144531 C 225.238281 111.429688 226.210938 112.566406 227.394531 113.363281 C 228.992188 112.574219 230.527344 111.632812 231.988281 110.519531 C 236.238281 107.277344 239.910156 101.058594 241.253906 98.289062 C 241.363281 98.0625 241.539062 97.890625 241.75 97.777344 C 241.003906 96.375 239.546875 95.320312 238.070312 94.613281 " fill-opacity="1" fill-rule="nonzero"/><path fill="#edb29f" d="M 206.179688 115.125 C 206.03125 114.242188 205.824219 113.375 205.539062 112.53125 C 204.726562 110.160156 203.503906 109.109375 203 108.71875 C 201.691406 107.695312 200.289062 106.765625 198.726562 106.195312 C 197.875 105.886719 196.972656 105.699219 196.070312 105.664062 C 198.542969 109.917969 201.6875 113.4375 206.179688 115.125 " fill-opacity="1" fill-rule="nonzero"/><path fill="#6a3c30" d="M 221.671875 95.417969 C 219.53125 94.03125 216.964844 93.425781 214.441406 93.777344 C 212.574219 94.039062 210.738281 94.519531 208.980469 95.207031 C 208.148438 95.539062 207.292969 95.941406 206.761719 96.664062 C 205.871094 97.882812 206.164062 99.597656 206.707031 101.007812 C 207.167969 102.21875 207.78125 103.371094 208.523438 104.433594 C 209.269531 105.492188 210.1875 106.492188 211.390625 106.960938 C 213.109375 107.636719 215.046875 107.113281 216.796875 106.519531 C 218.804688 105.839844 220.835938 105.039062 222.375 103.582031 C 223.914062 102.125 224.867188 99.867188 224.230469 97.84375 C 223.996094 97.09375 222.875 96.195312 221.671875 95.417969 " fill-opacity="1" fill-rule="nonzero"/><path fill="#bd3544" d="M 212.058594 105.285156 C 211.886719 105.875 211.84375 106.511719 211.921875 107.128906 C 213.503906 107.527344 215.222656 107.054688 216.796875 106.519531 C 218.804688 105.839844 220.835938 105.039062 222.375 103.582031 C 223.914062 102.125 224.863281 99.867188 224.230469 97.84375 C 224.179688 97.679688 224.082031 97.511719 223.953125 97.335938 C 220.449219 97.785156 217.078125 99.320312 214.484375 101.726562 C 213.421875 102.714844 212.460938 103.886719 212.058594 105.285156 " fill-opacity="1" fill-rule="nonzero"/><path fill="#ffffff" d="M 219.261719 94.25 C 217.722656 93.726562 216.074219 93.550781 214.441406 93.777344 C 212.574219 94.039062 210.738281 94.519531 208.980469 95.207031 C 208.472656 95.410156 207.960938 95.636719 207.515625 95.949219 C 207.808594 96.476562 208.117188 96.996094 208.457031 97.496094 C 208.675781 97.816406 208.914062 98.144531 209.261719 98.3125 C 209.824219 98.585938 210.492188 98.378906 211.078125 98.167969 C 213.9375 97.148438 216.867188 96.082031 219.261719 94.25 " fill-opacity="1" fill-rule="nonzero"/><path fill="#5b3123" d="M 213.542969 89.988281 C 215.472656 88.1875 219.417969 85.320312 222.285156 86.175781 C 223.003906 86.390625 223.3125 85.269531 222.59375 85.054688 C 219.285156 84.066406 215.007812 87.035156 212.722656 89.164062 C 212.175781 89.675781 212.996094 90.496094 213.542969 89.988281 " fill-opacity="1" fill-rule="nonzero"/><path fill="#5b3123" d="M 196.121094 93.863281 C 197.964844 93.226562 199.820312 93.246094 201.652344 93.917969 C 202.355469 94.175781 202.660156 93.054688 201.964844 92.796875 C 199.953125 92.0625 197.832031 92.042969 195.808594 92.742188 C 195.105469 92.984375 195.410156 94.109375 196.121094 93.863281 " fill-opacity="1" fill-rule="nonzero"/><path fill="#3e2528" d="M 195.484375 82.6875 C 196.285156 81.359375 197.433594 80.367188 198.84375 79.730469 C 199.523438 79.421875 198.933594 78.417969 198.257812 78.726562 C 196.671875 79.441406 195.375 80.613281 194.480469 82.101562 C 194.09375 82.742188 195.097656 83.328125 195.484375 82.6875 " fill-opacity="1" fill-rule="nonzero"/><path fill="#3e2528" d="M 208.585938 77.039062 C 212.703125 75.613281 216.984375 75.628906 221.09375 77.078125 C 221.800781 77.328125 222.105469 76.207031 221.402344 75.957031 C 217.113281 74.445312 212.574219 74.429688 208.273438 75.917969 C 207.574219 76.160156 207.875 77.285156 208.585938 77.039062 " fill-opacity="1" fill-rule="nonzero"/><path fill="#80462d" d="M 250.007812 79.015625 C 246.269531 80.765625 242.203125 82.855469 240.707031 86.707031 C 241.027344 81.332031 239.796875 75.875 237.195312 71.160156 C 237.441406 73.453125 237.972656 75.71875 238.773438 77.882812 C 235.128906 78.878906 231.113281 77.085938 228.734375 74.152344 C 226.351562 71.21875 225.394531 67.355469 225.195312 63.582031 C 224.855469 68.328125 225.257812 73.375 227.894531 77.335938 C 223.265625 77.550781 218.632812 77.765625 214.003906 77.976562 C 213.765625 77.988281 213.507812 77.996094 213.300781 77.878906 C 213.136719 77.785156 213.023438 77.628906 212.917969 77.476562 C 210.472656 73.972656 208.414062 70.164062 207.214844 66.0625 C 206.015625 61.964844 205.707031 57.554688 206.710938 53.40625 C 206.710938 53.40625 217.503906 47.972656 227.476562 50.679688 C 237.449219 53.390625 243.238281 57.824219 246.683594 65.339844 C 250.132812 72.855469 250.007812 79.015625 250.007812 79.015625 " fill-opacity="1" fill-rule="nonzero"/><g clip-path="url(#id17)"><path fill="#f4c5ab" d="M 272.097656 129.503906 C 275 131.890625 277.328125 134.058594 279.296875 136.925781 C 280.457031 138.625 281.59375 140.382812 282.171875 142.355469 C 282.753906 144.328125 282.71875 146.574219 281.632812 148.320312 C 280.753906 149.738281 279.289062 150.683594 277.808594 151.449219 C 274.996094 152.894531 271.933594 153.847656 268.796875 154.257812 C 266.617188 154.539062 264.414062 154.558594 262.214844 154.488281 C 254.210938 154.226562 237.386719 150.691406 229.515625 149.214844 C 226.984375 148.738281 224.296875 148.1875 222.4375 146.402344 C 222.140625 146.117188 221.863281 145.78125 221.792969 145.375 C 221.722656 144.96875 221.949219 144.492188 222.351562 144.414062 C 221.417969 144.109375 220.453125 143.761719 219.792969 143.035156 C 219.132812 142.308594 218.914062 141.085938 219.574219 140.359375 C 218.515625 139.957031 217.511719 139.210938 217.167969 138.132812 C 216.824219 137.054688 218.160156 135.746094 219.269531 135.523438 C 218.058594 134.933594 215.78125 134.359375 214.476562 133.4375 C 214.191406 133.238281 213.207031 132.238281 213.214844 131.890625 C 213.242188 130.957031 214.425781 130.300781 215.347656 130.4375 C 218.832031 130.953125 222.660156 131.957031 226.089844 132.757812 C 222.992188 131.207031 220.667969 131.207031 220.019531 129.140625 C 219.621094 127.867188 222.023438 127.761719 223.894531 128.367188 C 227.703125 129.59375 255.964844 137.746094 263.816406 137.167969 Z M 272.097656 129.503906 " fill-opacity="1" fill-rule="nonzero"/></g><path stroke-linecap="round" transform="matrix(0.266795, 0, 0, 0.266895, 87.20195, 26.628712)" fill="none" stroke-linejoin="miter" d="M 661.984525 414.167223 L 681.032943 414.050135 " stroke="#c5654c" stroke-width="1" stroke-opacity="1" stroke-miterlimit="10"/><path stroke-linecap="round" transform="matrix(0.266795, 0, 0, 0.266895, 87.20195, 26.628712)" fill="none" stroke-linejoin="miter" d="M 495.014376 408.005512 L 510.431736 410.669244 " stroke="#c5654c" stroke-width="1" stroke-opacity="1" stroke-miterlimit="10"/><path stroke-linecap="round" transform="matrix(0.266795, 0, 0, 0.266895, 87.20195, 26.628712)" fill="none" stroke-linejoin="miter" d="M 496.156403 426.124747 L 510.680639 427.602972 " stroke="#c5654c" stroke-width="1" stroke-opacity="1" stroke-miterlimit="10"/><path stroke-linecap="round" transform="matrix(0.266795, 0, 0, 0.266895, 87.20195, 26.628712)" fill="none" stroke-linejoin="miter" d="M 506.566415 441.316804 L 514.311698 441.389983 " stroke="#c5654c" stroke-width="1" stroke-opacity="1" stroke-miterlimit="10"/><path fill="#6496b0" d="M 165.371094 95.941406 C 163.90625 93.269531 159.472656 92.066406 158.128906 95.601562 C 156.921875 98.773438 160.6875 101.25 163.445312 100.257812 C 170.691406 97.652344 166.082031 87.695312 164.085938 83.027344 C 164.015625 83.292969 163.945312 83.558594 163.875 83.824219 C 166.4375 82.449219 168.875 80.898438 171.207031 79.160156 C 170.921875 78.941406 170.636719 78.722656 170.355469 78.503906 C 169.871094 80.96875 169.351562 83.433594 168.910156 85.90625 C 168.617188 87.539062 168.382812 89.257812 168.902344 90.871094 C 169.652344 93.183594 172.53125 95.109375 174.765625 93.421875 C 176.402344 92.1875 177.335938 88.96875 175.757812 87.335938 C 173.394531 84.894531 171.082031 88.460938 170.414062 90.417969 C 170.171875 91.125 171.292969 91.429688 171.535156 90.726562 C 171.765625 90.039062 173.277344 85.796875 175.09375 88.382812 C 175.664062 89.195312 175.351562 90.664062 174.90625 91.4375 C 173.476562 93.914062 170.582031 92.675781 169.929688 90.265625 C 169.449219 88.5 169.957031 86.589844 170.296875 84.839844 C 170.6875 82.832031 171.082031 80.820312 171.472656 78.8125 C 171.558594 78.375 171.066406 77.824219 170.621094 78.15625 C 168.289062 79.894531 165.851562 81.445312 163.289062 82.820312 C 162.988281 82.980469 162.960938 83.335938 163.082031 83.613281 C 164.199219 86.230469 165.472656 88.976562 166 91.785156 C 166.53125 94.644531 165.796875 99.265625 162.023438 99.378906 C 160.132812 99.4375 158.09375 97.132812 159.617188 95.351562 C 161.128906 93.585938 163.480469 94.914062 164.367188 96.527344 C 164.726562 97.183594 165.730469 96.597656 165.371094 95.941406 " fill-opacity="1" fill-rule="nonzero"/><path fill="#6496b0" d="M 138.882812 59.058594 C 142.019531 58.835938 145.15625 58.78125 148.300781 58.890625 C 148.132812 58.597656 147.964844 58.304688 147.796875 58.015625 C 145.992188 60.859375 143.757812 64.6875 143.75 68.175781 C 143.746094 70.714844 145.832031 72.773438 148.425781 71.800781 C 150.582031 70.992188 151.632812 68.101562 150.539062 66.089844 C 149.078125 63.402344 146.546875 65.171875 145.339844 67.003906 C 144.929688 67.632812 145.933594 68.214844 146.34375 67.59375 C 146.59375 67.183594 146.878906 66.800781 147.207031 66.449219 C 148.648438 65.789062 149.488281 66.03125 149.730469 67.171875 C 149.960938 67.929688 149.722656 68.964844 149.308594 69.613281 C 148.46875 70.929688 146.769531 71.316406 145.644531 70.195312 C 144.9375 69.492188 144.855469 68.632812 144.945312 67.660156 C 145.234375 64.488281 147.132812 61.234375 148.800781 58.601562 C 149.046875 58.214844 148.722656 57.742188 148.300781 57.726562 C 145.15625 57.617188 142.019531 57.671875 138.882812 57.894531 C 138.140625 57.949219 138.136719 59.113281 138.882812 59.058594 " fill-opacity="1" fill-rule="nonzero"/><g clip-path="url(#id18)"><path fill="#6496b0" d="M 185.613281 32.980469 C 183.398438 33.847656 181.351562 34.941406 179.417969 36.328125 C 179.089844 36.5625 179.050781 36.929688 179.300781 37.238281 C 180.84375 39.152344 183.042969 42.273438 182.667969 44.871094 C 182.382812 46.832031 179.894531 48.441406 178.484375 46.28125 C 177.050781 44.082031 180.484375 42.230469 181.167969 44.628906 C 181.371094 45.347656 182.496094 45.039062 182.289062 44.320312 C 181.789062 42.570312 179.597656 41.6875 178.054688 42.78125 C 176.214844 44.085938 176.789062 47.058594 178.640625 48.046875 C 180.820312 49.210938 183.390625 47.738281 183.796875 45.402344 C 184.34375 42.238281 181.996094 38.734375 180.125 36.417969 C 180.085938 36.722656 180.042969 37.027344 180.003906 37.332031 C 181.851562 36.007812 183.804688 34.929688 185.921875 34.101562 C 186.609375 33.832031 186.308594 32.707031 185.613281 32.980469 " fill-opacity="1" fill-rule="nonzero"/></g></svg>