<svg xmlns="http://www.w3.org/2000/svg" xmlns:xlink="http://www.w3.org/1999/xlink" width="559" zoomAndPan="magnify" viewBox="0 0 419.25 297.749993" height="396" preserveAspectRatio="xMidYMid meet" version="1.0"><defs><clipPath id="id1"><path d="M 0 0.140625 L 418.5 0.140625 L 418.5 297.359375 L 0 297.359375 Z M 0 0.140625 " clip-rule="nonzero"/></clipPath><clipPath id="id2"><path d="M 70 34.265625 L 342.949219 34.265625 L 342.949219 267.714844 L 70 267.714844 Z M 70 34.265625 " clip-rule="nonzero"/></clipPath><clipPath id="id3"><path d="M 70 34.265625 L 342.949219 34.265625 L 342.949219 267.714844 L 70 267.714844 Z M 70 34.265625 " clip-rule="nonzero"/></clipPath><clipPath id="id4"><path d="M 69.984375 34.265625 L 343.8125 34.265625 L 343.8125 267.714844 L 69.984375 267.714844 Z M 69.984375 34.265625 " clip-rule="nonzero"/></clipPath></defs><g clip-path="url(#id1)"><path fill="#e4c2c2" d="M 0 0.140625 L 418.5 0.140625 L 418.5 297.359375 L 0 297.359375 Z M 0 0.140625 " fill-opacity="1" fill-rule="nonzero"/><path fill="#ffffff" d="M 0 0.140625 L 418.5 0.140625 L 418.5 297.359375 L 0 297.359375 Z M 0 0.140625 " fill-opacity="1" fill-rule="nonzero"/><path fill="#e4c2c2" d="M 0 0.140625 L 418.5 0.140625 L 418.5 297.359375 L 0 297.359375 Z M 0 0.140625 " fill-opacity="1" fill-rule="nonzero"/></g><g clip-path="url(#id2)"><path fill="#f096a4" d="M 175.867188 34.269531 C 175.867188 34.269531 181.855469 40.097656 190.28125 41.714844 C 198.699219 43.335938 289.71875 58.886719 314.820312 58.398438 C 315.304688 66.496094 316.113281 67.789062 313.847656 78.800781 C 315.949219 80.421875 315.949219 80.101562 317.894531 86.738281 C 319.839844 93.378906 322.429688 113.621094 322.59375 121.074219 C 322.753906 128.519531 324.539062 140.667969 326.804688 147.632812 C 329.070312 154.59375 333.605469 164.148438 335.0625 174.515625 C 336.515625 184.878906 343.96875 244.472656 342.675781 259.699219 C 335.386719 259.863281 327.777344 260.671875 314.335938 263.421875 C 300.894531 266.179688 291.820312 268.929688 280.324219 266.015625 C 268.824219 263.101562 251.984375 260.023438 251.984375 260.023438 L 251.496094 263.75 C 251.496094 263.75 240.164062 267.472656 226.230469 266.339844 C 212.304688 265.203125 201.457031 264.074219 182.664062 256.460938 C 170.6875 250.46875 171.496094 250.144531 166.800781 249.660156 C 162.097656 249.171875 157.566406 247.066406 157.566406 247.066406 C 157.566406 247.066406 158.863281 251.601562 152.867188 250.632812 C 146.878906 249.660156 123.878906 241.722656 110.765625 234.761719 C 97.644531 227.792969 80.152344 222.285156 70.757812 222.285156 C 73.679688 213.867188 86.792969 185.527344 108.007812 149.734375 C 129.222656 113.949219 156.753906 72.648438 159.511719 68.28125 C 162.261719 63.902344 166.800781 60.019531 169.714844 59.371094 C 170.195312 55.804688 173.4375 37.667969 175.867188 34.269531 " fill-opacity="1" fill-rule="nonzero"/></g><path fill="#f096a4" d="M 175.25 216.566406 C 180.386719 208.949219 183.546875 185.53125 185.082031 176.9375 C 181.976562 189.757812 168.992188 219.054688 165.300781 224.914062 C 161.164062 231.480469 157.519531 242.917969 157.566406 247.066406 C 157.566406 247.066406 160.105469 248.242188 163.351562 249.042969 C 165.34375 239.246094 170.515625 223.582031 175.25 216.566406 " fill-opacity="1" fill-rule="nonzero"/><path fill="#f096a4" d="M 214.8125 71.851562 C 214.8125 71.851562 215.96875 87.4375 212.078125 95.226562 C 208.1875 103.011719 197.296875 135.886719 189.703125 141.140625 C 194.765625 128.882812 201.769531 110.777344 204.109375 104.359375 C 206.445312 97.929688 213.0625 73.796875 214.8125 71.851562 " fill-opacity="1" fill-rule="nonzero"/><path fill="#f096a4" d="M 335.0625 174.515625 C 333.605469 164.148438 329.070312 154.59375 326.804688 147.632812 C 324.539062 140.667969 322.753906 128.519531 322.59375 121.074219 C 322.429688 113.621094 319.839844 93.378906 317.894531 86.738281 C 315.949219 80.101562 315.949219 80.421875 313.847656 78.800781 C 316.113281 67.789062 315.304688 66.496094 314.820312 58.398438 C 313.183594 58.433594 311.257812 58.390625 309.097656 58.296875 C 309.417969 61.542969 309.5 65.785156 308.589844 69.929688 C 306.738281 78.367188 306.125 80.421875 306.125 80.421875 C 306.125 80.421875 306.738281 92.355469 308.800781 102.441406 C 310.855469 112.519531 311.0625 133.304688 318.675781 149.765625 C 326.285156 166.230469 327.933594 202.855469 327.933594 202.855469 L 328.5 260.898438 C 334.058594 260.105469 338.421875 259.792969 342.675781 259.699219 C 343.96875 244.472656 336.515625 184.878906 335.0625 174.515625 " fill-opacity="1" fill-rule="nonzero"/><path fill="#f096a4" d="M 259.179688 150.933594 C 259.058594 155.410156 258.515625 174.324219 257.976562 180.835938 C 257.355469 188.246094 254.066406 211.707031 252.210938 223.433594 C 250.359375 235.164062 252.003906 251.414062 252.210938 257.792969 C 252.234375 258.511719 252.222656 259.273438 252.183594 260.058594 C 253.21875 260.253906 258.125 261.160156 264.117188 262.386719 C 262.804688 252.117188 261.027344 237.679688 260.648438 231.867188 C 260.03125 222.402344 263.121094 196.476562 263.121094 186.597656 C 263.121094 177.835938 259.554688 155.792969 259.179688 150.933594 " fill-opacity="1" fill-rule="nonzero"/><path fill="#f096a4" d="M 199.824219 69.90625 C 199.824219 69.90625 195.464844 88.632812 189.238281 98.367188 C 183.007812 108.097656 171.261719 128.449219 166.398438 136.625 C 161.53125 144.800781 137.347656 189.605469 137.347656 189.605469 C 137.347656 189.605469 148.832031 158.660156 153.3125 150.097656 C 157.785156 141.53125 171.992188 114.671875 177.835938 107.078125 C 183.671875 99.492188 196.90625 75.359375 198.078125 68.15625 C 199.824219 69.515625 199.824219 69.90625 199.824219 69.90625 " fill-opacity="1" fill-rule="nonzero"/><path fill="#f096a4" d="M 251.019531 78.664062 C 251.019531 78.664062 247.707031 97.929688 245.171875 106.695312 C 242.644531 115.453125 237.195312 130.046875 236.222656 134.523438 C 235.25 139.003906 233.886719 148.734375 234.277344 153.597656 C 234.667969 158.460938 232.914062 167.808594 232.332031 171.113281 C 231.75 174.421875 228.242188 185.515625 227.464844 189.015625 C 226.6875 192.523438 226.296875 210.039062 225.710938 213.929688 C 225.128906 217.824219 219.675781 228.917969 219.675781 228.917969 C 219.675781 228.917969 226.296875 226.777344 227.269531 220.160156 C 228.242188 213.546875 231.144531 195.707031 234.0625 187.730469 C 236.980469 179.746094 239.191406 161.964844 239.773438 147.757812 C 240.359375 133.546875 246.390625 120.375 248.335938 114.925781 C 250.285156 109.472656 253.738281 79.054688 253.738281 79.054688 C 253.738281 79.054688 252.765625 79.054688 251.019531 78.664062 " fill-opacity="1" fill-rule="nonzero"/><g clip-path="url(#id3)"><path fill="#f096a4" d="M 175.867188 34.269531 C 175.867188 34.269531 181.855469 40.097656 190.28125 41.714844 C 198.699219 43.335938 289.71875 58.886719 314.820312 58.398438 C 315.304688 66.496094 316.113281 67.789062 313.847656 78.800781 C 315.949219 80.421875 315.949219 80.101562 317.894531 86.738281 C 319.839844 93.378906 322.429688 113.621094 322.59375 121.074219 C 322.753906 128.519531 324.539062 140.667969 326.804688 147.632812 C 329.070312 154.59375 333.605469 164.148438 335.0625 174.515625 C 336.515625 184.878906 343.96875 244.472656 342.675781 259.699219 C 335.386719 259.863281 327.777344 260.671875 314.335938 263.421875 C 300.894531 266.179688 291.820312 268.929688 280.324219 266.015625 C 268.824219 263.101562 251.984375 260.023438 251.984375 260.023438 L 251.496094 263.75 C 251.496094 263.75 240.164062 267.472656 226.230469 266.339844 C 212.304688 265.203125 201.457031 264.074219 182.664062 256.460938 C 170.6875 250.46875 171.496094 250.144531 166.800781 249.660156 C 162.097656 249.171875 157.566406 247.066406 157.566406 247.066406 C 157.566406 247.066406 158.863281 251.601562 152.867188 250.632812 C 146.878906 249.660156 123.878906 241.722656 110.765625 234.761719 C 97.644531 227.792969 80.152344 222.285156 70.757812 222.285156 C 73.679688 213.867188 86.792969 185.527344 108.007812 149.734375 C 129.222656 113.949219 156.753906 72.648438 159.511719 68.28125 C 162.261719 63.902344 166.800781 60.019531 169.714844 59.371094 C 170.195312 55.804688 173.4375 37.667969 175.867188 34.269531 " fill-opacity="1" fill-rule="nonzero"/></g><path fill="#de8597" d="M 175.25 216.566406 C 180.386719 208.949219 183.546875 185.53125 185.082031 176.9375 C 181.976562 189.757812 168.992188 219.054688 165.300781 224.914062 C 161.164062 231.480469 157.519531 242.917969 157.566406 247.066406 C 157.566406 247.066406 160.105469 248.242188 163.351562 249.042969 C 165.34375 239.246094 170.515625 223.582031 175.25 216.566406 " fill-opacity="1" fill-rule="nonzero"/><path fill="#de8597" d="M 214.8125 71.851562 C 214.8125 71.851562 215.96875 87.4375 212.078125 95.226562 C 208.1875 103.011719 197.296875 135.886719 189.703125 141.140625 C 194.765625 128.882812 201.769531 110.777344 204.109375 104.359375 C 206.445312 97.929688 213.0625 73.796875 214.8125 71.851562 " fill-opacity="1" fill-rule="nonzero"/><path fill="#de8597" d="M 335.0625 174.515625 C 333.605469 164.148438 329.070312 154.59375 326.804688 147.632812 C 324.539062 140.667969 322.753906 128.519531 322.59375 121.074219 C 322.429688 113.621094 319.839844 93.378906 317.894531 86.738281 C 315.949219 80.101562 315.949219 80.421875 313.847656 78.800781 C 316.113281 67.789062 315.304688 66.496094 314.820312 58.398438 C 313.183594 58.433594 311.257812 58.390625 309.097656 58.296875 C 309.417969 61.542969 309.5 65.785156 308.589844 69.929688 C 306.738281 78.367188 306.125 80.421875 306.125 80.421875 C 306.125 80.421875 306.738281 92.355469 308.800781 102.441406 C 310.855469 112.519531 311.0625 133.304688 318.675781 149.765625 C 326.285156 166.230469 327.933594 202.855469 327.933594 202.855469 L 328.5 260.898438 C 334.058594 260.105469 338.421875 259.792969 342.675781 259.699219 C 343.96875 244.472656 336.515625 184.878906 335.0625 174.515625 " fill-opacity="1" fill-rule="nonzero"/><path fill="#de8597" d="M 259.179688 150.933594 C 259.058594 155.410156 258.515625 174.324219 257.976562 180.835938 C 257.355469 188.246094 254.066406 211.707031 252.210938 223.433594 C 250.359375 235.164062 252.003906 251.414062 252.210938 257.792969 C 252.234375 258.511719 252.222656 259.273438 252.183594 260.058594 C 253.21875 260.253906 258.125 261.160156 264.117188 262.386719 C 262.804688 252.117188 261.027344 237.679688 260.648438 231.867188 C 260.03125 222.402344 263.121094 196.476562 263.121094 186.597656 C 263.121094 177.835938 259.554688 155.792969 259.179688 150.933594 " fill-opacity="1" fill-rule="nonzero"/><path fill="#de8597" d="M 199.824219 69.90625 C 199.824219 69.90625 195.464844 88.632812 189.238281 98.367188 C 183.007812 108.097656 171.261719 128.449219 166.398438 136.625 C 161.53125 144.800781 137.347656 189.605469 137.347656 189.605469 C 137.347656 189.605469 148.832031 158.660156 153.3125 150.097656 C 157.785156 141.53125 171.992188 114.671875 177.835938 107.078125 C 183.671875 99.492188 196.90625 75.359375 198.078125 68.15625 C 199.824219 69.515625 199.824219 69.90625 199.824219 69.90625 " fill-opacity="1" fill-rule="nonzero"/><path fill="#de8597" d="M 251.019531 78.664062 C 251.019531 78.664062 247.707031 97.929688 245.171875 106.695312 C 242.644531 115.453125 237.195312 130.046875 236.222656 134.523438 C 235.25 139.003906 233.886719 148.734375 234.277344 153.597656 C 234.667969 158.460938 232.914062 167.808594 232.332031 171.113281 C 231.75 174.421875 228.242188 185.515625 227.464844 189.015625 C 226.6875 192.523438 226.296875 210.039062 225.710938 213.929688 C 225.128906 217.824219 219.675781 228.917969 219.675781 228.917969 C 219.675781 228.917969 226.296875 226.777344 227.269531 220.160156 C 228.242188 213.546875 231.144531 195.707031 234.0625 187.730469 C 236.980469 179.746094 239.191406 161.964844 239.773438 147.757812 C 240.359375 133.546875 246.390625 120.375 248.335938 114.925781 C 250.285156 109.472656 253.738281 79.054688 253.738281 79.054688 C 253.738281 79.054688 252.765625 79.054688 251.019531 78.664062 " fill-opacity="1" fill-rule="nonzero"/><path fill="#ffdbe1" d="M 113.433594 212.839844 C 115.589844 212.210938 117.910156 211.320312 120.671875 213.214844 C 126.136719 216.96875 120.25 227.273438 114.914062 226.777344 C 105.601562 225.910156 107.089844 214.707031 113.433594 212.839844 " fill-opacity="1" fill-rule="nonzero"/><path fill="#ffdbe1" d="M 107.285156 181.28125 C 109.34375 180.679688 110.859375 178.875 113.492188 180.679688 C 118.710938 184.257812 116.953125 193.503906 108.085938 192.496094 C 99.214844 191.492188 101.226562 183.0625 107.285156 181.28125 " fill-opacity="1" fill-rule="nonzero"/><path fill="#ffdbe1" d="M 149.972656 181.402344 C 151.523438 179.628906 158.105469 177.957031 161.027344 179.960938 C 166.804688 183.917969 163.1875 192.671875 153.457031 190.953125 C 146.699219 189.757812 145.371094 186.664062 149.972656 181.402344 " fill-opacity="1" fill-rule="nonzero"/><path fill="#ffdbe1" d="M 137.683594 144.792969 C 139.578125 144.125 143.144531 142.898438 145.5625 144.90625 C 150.351562 148.867188 147.15625 157.238281 139.019531 156.125 C 130.882812 155.007812 132.125 146.757812 137.683594 144.792969 " fill-opacity="1" fill-rule="nonzero"/><path fill="#ffdbe1" d="M 148.0625 219.222656 C 148.644531 216.304688 155.613281 213.382812 158.171875 215.136719 C 163.234375 218.609375 159.242188 231.171875 151.207031 227.949219 C 147.867188 226.609375 146.859375 225.230469 148.0625 219.222656 " fill-opacity="1" fill-rule="nonzero"/><path fill="#ffdbe1" d="M 147.046875 117.847656 C 147.046875 117.847656 150.113281 121.261719 154.207031 117.164062 C 158.296875 113.074219 154.890625 107.269531 154.890625 107.269531 L 156.933594 103.863281 C 156.933594 103.863281 156.597656 102.835938 152.5 103.519531 C 148.410156 104.207031 144.316406 112.046875 147.730469 113.753906 C 146.703125 115.457031 147.046875 117.847656 147.046875 117.847656 " fill-opacity="1" fill-rule="nonzero"/><path fill="#ffdbe1" d="M 173.988281 112.730469 C 173.988281 112.730469 168.875 108.640625 173.988281 100.792969 C 179.105469 92.949219 180.8125 101.816406 180.8125 101.816406 C 180.8125 101.816406 175.167969 110.742188 173.988281 112.730469 " fill-opacity="1" fill-rule="nonzero"/><path fill="#ffdbe1" d="M 118.054688 143.085938 C 121.800781 138.316406 123.507812 134.5625 120.78125 131.148438 C 120.464844 130.757812 120.179688 130.414062 119.914062 130.097656 C 116.964844 134.871094 114.027344 139.679688 111.179688 144.433594 C 113.183594 145.328125 115.945312 145.773438 118.054688 143.085938 " fill-opacity="1" fill-rule="nonzero"/><path fill="#ffdbe1" d="M 83.9375 211.648438 C 83.9375 207.882812 80.921875 206.195312 78.058594 205.4375 C 75.398438 211.046875 73.382812 215.609375 72.054688 218.902344 C 77.144531 218.066406 83.9375 216.121094 83.9375 211.648438 " fill-opacity="1" fill-rule="nonzero"/><path fill="#ffdbe1" d="M 185.929688 139.1875 C 192.429688 138.292969 193.777344 143.285156 191.730469 148.398438 C 189.679688 153.515625 177.058594 152.835938 177.058594 148.0625 C 177.058594 143.285156 182.824219 139.621094 185.929688 139.1875 " fill-opacity="1" fill-rule="nonzero"/><path fill="#ffdbe1" d="M 207.917969 91.160156 C 207.917969 91.160156 203.589844 90.824219 201.28125 95.332031 C 197.902344 101.933594 203.144531 105.464844 203.144531 105.464844 L 204.351562 102.835938 C 204.351562 102.835938 208.785156 103.863281 209.804688 101.472656 C 210.832031 99.085938 212.539062 90.558594 209.125 88.515625 C 208.582031 90.203125 207.917969 91.160156 207.917969 91.160156 " fill-opacity="1" fill-rule="nonzero"/><path fill="#ffdbe1" d="M 174.339844 110.421875 C 174.339844 110.421875 174.53125 114.339844 177.964844 113.097656 C 181.402344 111.855469 183.398438 107.085938 183.5 105.273438 C 183.59375 103.460938 182.257812 100.222656 182.257812 100.222656 C 182.257812 100.222656 175.773438 107.277344 174.339844 110.421875 " fill-opacity="1" fill-rule="nonzero"/><path fill="#ffdbe1" d="M 167.761719 67.3125 C 167.515625 65.808594 166.089844 63.839844 164.75 62.261719 C 162.835938 63.886719 160.933594 66.011719 159.511719 68.28125 C 159.019531 69.046875 157.757812 70.984375 155.898438 73.828125 C 157.792969 74.804688 161.140625 76.199219 162.988281 74.945312 C 165.664062 73.132812 168.238281 70.265625 167.761719 67.3125 " fill-opacity="1" fill-rule="nonzero"/><path fill="#ffdbe1" d="M 181.015625 68.933594 C 181.015625 68.933594 179.488281 68.167969 177.585938 70.457031 C 175.671875 72.75 174.53125 76.945312 175.007812 77.992188 C 175.488281 79.046875 175.292969 82.09375 178.726562 81.238281 C 182.164062 80.382812 184.738281 79.519531 184.449219 75.515625 C 184.164062 71.507812 183.5 69.601562 181.015625 68.933594 " fill-opacity="1" fill-rule="nonzero"/><path fill="#ffdbe1" d="M 210.855469 169.097656 C 218.40625 170.035156 216.839844 180.359375 210.996094 181.453125 C 205.152344 182.542969 200.449219 178.476562 202.585938 173.945312 C 204.726562 169.410156 210.855469 169.097656 210.855469 169.097656 " fill-opacity="1" fill-rule="nonzero"/><path fill="#ffdbe1" d="M 201.578125 233.871094 C 206.042969 234.25 205.804688 249.042969 195.792969 247.632812 C 185.78125 246.226562 190.472656 232.933594 201.578125 233.871094 " fill-opacity="1" fill-rule="nonzero"/><path fill="#ffdbe1" d="M 220.195312 123.46875 C 220.195312 123.46875 222.945312 121.503906 224.121094 128.578125 C 225.304688 135.652344 219.410156 139.578125 219.410156 139.578125 L 219.410156 135.652344 C 219.410156 135.652344 217.445312 137.617188 214.6875 132.503906 C 211.9375 127.394531 218.226562 119.144531 220.195312 119.542969 C 222.160156 119.933594 220.195312 123.46875 220.195312 123.46875 " fill-opacity="1" fill-rule="nonzero"/><path fill="#ffdbe1" d="M 238.789062 218.46875 C 243.535156 218.46875 243.441406 223.902344 242.667969 226.847656 C 241.886719 229.796875 235.839844 231.964844 233.515625 228.398438 C 231.191406 224.832031 232.117188 218.46875 238.789062 218.46875 " fill-opacity="1" fill-rule="nonzero"/><path fill="#ffdbe1" d="M 253.546875 161.527344 C 250.949219 160.839844 247.050781 162.347656 246.53125 166.589844 C 246.011719 170.839844 248.875 176.453125 252.507812 174.671875 C 256.144531 172.894531 257.054688 169.054688 256.664062 165.910156 C 256.273438 162.757812 253.546875 161.527344 253.546875 161.527344 " fill-opacity="1" fill-rule="nonzero"/><path fill="#ffdbe1" d="M 257.753906 116.253906 C 261.46875 116.460938 262.558594 118.269531 262.25 123.394531 C 261.941406 128.507812 256.355469 132.855469 252.789062 128.664062 C 249.21875 124.476562 252.164062 115.945312 257.753906 116.253906 " fill-opacity="1" fill-rule="nonzero"/><path fill="#ffdbe1" d="M 190.28125 41.714844 C 187.648438 41.210938 185.246094 40.292969 183.195312 39.269531 C 182.9375 39.398438 182.792969 39.472656 182.792969 39.472656 C 182.792969 39.472656 179.6875 45.835938 183.570312 47.542969 C 187.445312 49.246094 190.390625 47.851562 191.632812 45.519531 C 192.175781 44.507812 193.011719 43.464844 193.671875 42.335938 C 192.085938 42.054688 190.933594 41.84375 190.28125 41.714844 " fill-opacity="1" fill-rule="nonzero"/><path fill="#ffdbe1" d="M 206.367188 55.914062 C 210.539062 57.167969 211.796875 57.78125 210.867188 61.964844 C 209.941406 66.152344 207.457031 69.410156 202.335938 66 C 197.21875 62.585938 204.820312 55.449219 206.367188 55.914062 " fill-opacity="1" fill-rule="nonzero"/><path fill="#ffdbe1" d="M 226.535156 51.417969 C 226.535156 51.417969 223.902344 56.222656 226.066406 58.707031 C 228.242188 61.1875 233.355469 59.949219 234.445312 57.621094 C 235.53125 55.296875 235.996094 52.96875 234.445312 51.109375 C 232.898438 49.246094 226.535156 51.417969 226.535156 51.417969 " fill-opacity="1" fill-rule="nonzero"/><path fill="#ffdbe1" d="M 256.472656 60.414062 C 262.367188 60.105469 262.765625 65.082031 262.984375 67.550781 C 263.453125 72.667969 254.613281 75.617188 252.28125 70.960938 C 249.957031 66.308594 255.636719 60.460938 256.472656 60.414062 " fill-opacity="1" fill-rule="nonzero"/><path fill="#ffdbe1" d="M 300.679688 60.414062 C 300.46875 59.160156 299.984375 58.328125 299.542969 57.632812 C 296.609375 57.378906 293.457031 57.058594 290.136719 56.695312 C 289.652344 57.964844 289.339844 59.214844 289.199219 60.105469 C 288.890625 62.070312 288.890625 66.777344 293.546875 66.777344 C 298.195312 66.777344 300.988281 62.277344 300.679688 60.414062 " fill-opacity="1" fill-rule="nonzero"/><path fill="#ffdbe1" d="M 307.816406 80.738281 C 307.816406 80.269531 307.039062 76.546875 302.695312 75.925781 C 298.351562 75.304688 296.488281 80.421875 296.488281 80.421875 C 296.488281 80.421875 294.9375 84.613281 298.195312 86.011719 C 301.453125 87.402344 305.023438 88.800781 306.265625 85.695312 C 307.507812 82.59375 307.816406 80.738281 307.816406 80.738281 " fill-opacity="1" fill-rule="nonzero"/><path fill="#ffdbe1" d="M 189.402344 199.429688 C 194.179688 201.222656 194.5 203.457031 193.957031 206.941406 C 193.421875 210.429688 182.957031 213.382812 183.492188 207.214844 C 184.027344 201.039062 187.25 198.625 189.402344 199.429688 " fill-opacity="1" fill-rule="nonzero"/><path fill="#ffdbe1" d="M 243.59375 88.449219 C 242.25 88.8125 239.324219 90.53125 239.207031 92.953125 C 239.089844 95.378906 239.503906 100.253906 243.9375 99.765625 C 247.054688 99.417969 247.75 96.414062 247.75 96.414062 L 248.324219 91.683594 C 248.324219 91.683594 247.054688 87.53125 243.59375 88.449219 " fill-opacity="1" fill-rule="nonzero"/><path fill="#ffdbe1" d="M 263.078125 238.191406 C 274.015625 236.117188 268.65625 249.664062 263.265625 251 C 257.875 252.328125 255.648438 248.507812 255.835938 245.011719 C 256.023438 241.519531 260.507812 238.683594 263.078125 238.191406 " fill-opacity="1" fill-rule="nonzero"/><path fill="#ffdbe1" d="M 269.632812 193.933594 C 274.296875 195.101562 274.574219 198.4375 273.410156 202.21875 C 272.25 205.996094 265.859375 206.433594 263.824219 202.367188 C 261.792969 198.292969 266.726562 193.210938 269.632812 193.933594 " fill-opacity="1" fill-rule="nonzero"/><path fill="#ffdbe1" d="M 298.835938 221.25 C 298.253906 221.105469 293.605469 219.945312 293.605469 224.734375 C 293.605469 229.527344 293.457031 231.855469 296.804688 233.019531 C 301.214844 234.550781 305.8125 229.964844 304.9375 227.351562 C 304.0625 224.734375 299.851562 223.574219 299.851562 223.574219 L 298.835938 221.25 " fill-opacity="1" fill-rule="nonzero"/><path fill="#ffdbe1" d="M 304.5 255.96875 C 301.371094 256.476562 299.925781 262.308594 300.746094 266.210938 C 304.011719 265.636719 307.4375 264.878906 311.183594 264.082031 C 311.019531 260.457031 306.550781 255.644531 304.5 255.96875 " fill-opacity="1" fill-rule="nonzero"/><path fill="#ffdbe1" d="M 292.734375 157.472656 C 292.734375 157.472656 288.460938 158.050781 288.371094 160.089844 C 288.085938 166.917969 290.84375 168.511719 293.605469 168.660156 C 294.042969 170.253906 294.042969 170.253906 294.042969 170.253906 C 294.042969 170.253906 295.929688 170.253906 296.949219 168.222656 C 297.960938 166.1875 298.398438 163.71875 297.527344 161.832031 C 296.65625 159.941406 293.167969 159.796875 293.167969 159.796875 L 292.734375 157.472656 " fill-opacity="1" fill-rule="nonzero"/><path fill="#ffdbe1" d="M 281.765625 99.066406 C 286.292969 98.472656 286.535156 105.027344 285.984375 107.351562 C 285.4375 109.675781 278.28125 110.691406 277.359375 105.027344 C 276.445312 99.359375 280.664062 99.210938 281.765625 99.066406 " fill-opacity="1" fill-rule="nonzero"/><path fill="#ffdbe1" d="M 306.824219 123.042969 C 306.824219 123.042969 301.160156 124.785156 301.453125 128.851562 C 301.738281 132.917969 308.136719 137.132812 309.148438 135.828125 C 308.566406 132.773438 309.148438 132.917969 309.148438 132.917969 C 309.148438 132.917969 310.601562 132.917969 310.746094 129.582031 C 310.890625 126.234375 308.714844 120.71875 306.386719 120.71875 C 306.824219 123.042969 306.824219 123.042969 306.824219 123.042969 " fill-opacity="1" fill-rule="nonzero"/><path fill="#ffdbe1" d="M 317.136719 186.527344 C 317.136719 186.527344 321.210938 184.203125 322.808594 188.5625 C 324.402344 192.921875 323.675781 200.617188 318.449219 199.019531 C 313.21875 197.425781 313.800781 189.285156 316.707031 188.707031 C 316.5625 187.105469 317.136719 186.527344 317.136719 186.527344 " fill-opacity="1" fill-rule="nonzero"/><path fill="#ffdbe1" d="M 332.828125 223.429688 C 337.332031 223.429688 337.1875 238.019531 331.667969 238.730469 C 326.144531 239.441406 325.277344 232.679688 325.570312 228.410156 C 325.859375 224.140625 332.828125 223.429688 332.828125 223.429688 " fill-opacity="1" fill-rule="nonzero"/><path fill="#ffdbe1" d="M 321.496094 146.578125 C 321.640625 150.207031 321.355469 154.855469 326.144531 155.4375 C 327.515625 155.601562 328.65625 155.550781 329.589844 155.300781 C 328.539062 152.503906 327.550781 149.925781 326.804688 147.632812 C 326.214844 145.824219 325.664062 143.667969 325.15625 141.34375 L 325.132812 141.34375 C 325.132812 141.34375 321.355469 142.941406 321.496094 146.578125 " fill-opacity="1" fill-rule="nonzero"/><path fill="#ffffff" d="M 113.433594 212.839844 C 115.589844 212.210938 117.910156 211.320312 120.671875 213.214844 C 126.136719 216.96875 120.25 227.273438 114.914062 226.777344 C 105.601562 225.910156 107.089844 214.707031 113.433594 212.839844 " fill-opacity="1" fill-rule="nonzero"/><path fill="#ffffff" d="M 107.285156 181.28125 C 109.34375 180.679688 110.859375 178.875 113.492188 180.679688 C 118.710938 184.257812 116.953125 193.503906 108.085938 192.496094 C 99.214844 191.492188 101.226562 183.0625 107.285156 181.28125 " fill-opacity="1" fill-rule="nonzero"/><path fill="#ffffff" d="M 149.972656 181.402344 C 151.523438 179.628906 158.105469 177.957031 161.027344 179.960938 C 166.804688 183.917969 163.1875 192.671875 153.457031 190.953125 C 146.699219 189.757812 145.371094 186.664062 149.972656 181.402344 " fill-opacity="1" fill-rule="nonzero"/><path fill="#ffffff" d="M 137.683594 144.792969 C 139.578125 144.125 143.144531 142.898438 145.5625 144.90625 C 150.351562 148.867188 147.15625 157.238281 139.019531 156.125 C 130.882812 155.007812 132.125 146.757812 137.683594 144.792969 " fill-opacity="1" fill-rule="nonzero"/><path fill="#ffffff" d="M 148.0625 219.222656 C 148.644531 216.304688 155.613281 213.382812 158.171875 215.136719 C 163.234375 218.609375 159.242188 231.171875 151.207031 227.949219 C 147.867188 226.609375 146.859375 225.230469 148.0625 219.222656 " fill-opacity="1" fill-rule="nonzero"/><path fill="#ffffff" d="M 147.046875 117.847656 C 147.046875 117.847656 150.113281 121.261719 154.207031 117.164062 C 158.296875 113.074219 154.890625 107.269531 154.890625 107.269531 L 156.933594 103.863281 C 156.933594 103.863281 156.597656 102.835938 152.5 103.519531 C 148.410156 104.207031 144.316406 112.046875 147.730469 113.753906 C 146.703125 115.457031 147.046875 117.847656 147.046875 117.847656 " fill-opacity="1" fill-rule="nonzero"/><path fill="#ffffff" d="M 173.988281 112.730469 C 173.988281 112.730469 168.875 108.640625 173.988281 100.792969 C 179.105469 92.949219 180.8125 101.816406 180.8125 101.816406 C 180.8125 101.816406 175.167969 110.742188 173.988281 112.730469 " fill-opacity="1" fill-rule="nonzero"/><path fill="#ffffff" d="M 118.054688 143.085938 C 121.800781 138.316406 123.507812 134.5625 120.78125 131.148438 C 120.464844 130.757812 120.179688 130.414062 119.914062 130.097656 C 116.964844 134.871094 114.027344 139.679688 111.179688 144.433594 C 113.183594 145.328125 115.945312 145.773438 118.054688 143.085938 " fill-opacity="1" fill-rule="nonzero"/><path fill="#ffffff" d="M 83.9375 211.648438 C 83.9375 207.882812 80.921875 206.195312 78.058594 205.4375 C 75.398438 211.046875 73.382812 215.609375 72.054688 218.902344 C 77.144531 218.066406 83.9375 216.121094 83.9375 211.648438 " fill-opacity="1" fill-rule="nonzero"/><path fill="#ffffff" d="M 185.929688 139.1875 C 192.429688 138.292969 193.777344 143.285156 191.730469 148.398438 C 189.679688 153.515625 177.058594 152.835938 177.058594 148.0625 C 177.058594 143.285156 182.824219 139.621094 185.929688 139.1875 " fill-opacity="1" fill-rule="nonzero"/><path fill="#ffffff" d="M 207.917969 91.160156 C 207.917969 91.160156 203.589844 90.824219 201.28125 95.332031 C 197.902344 101.933594 203.144531 105.464844 203.144531 105.464844 L 204.351562 102.835938 C 204.351562 102.835938 208.785156 103.863281 209.804688 101.472656 C 210.832031 99.085938 212.539062 90.558594 209.125 88.515625 C 208.582031 90.203125 207.917969 91.160156 207.917969 91.160156 " fill-opacity="1" fill-rule="nonzero"/><path fill="#ffffff" d="M 174.339844 110.421875 C 174.339844 110.421875 174.53125 114.339844 177.964844 113.097656 C 181.402344 111.855469 183.398438 107.085938 183.5 105.273438 C 183.59375 103.460938 182.257812 100.222656 182.257812 100.222656 C 182.257812 100.222656 175.773438 107.277344 174.339844 110.421875 " fill-opacity="1" fill-rule="nonzero"/><path fill="#ffffff" d="M 167.761719 67.3125 C 167.515625 65.808594 166.089844 63.839844 164.75 62.261719 C 162.835938 63.886719 160.933594 66.011719 159.511719 68.28125 C 159.019531 69.046875 157.757812 70.984375 155.898438 73.828125 C 157.792969 74.804688 161.140625 76.199219 162.988281 74.945312 C 165.664062 73.132812 168.238281 70.265625 167.761719 67.3125 " fill-opacity="1" fill-rule="nonzero"/><path fill="#ffffff" d="M 181.015625 68.933594 C 181.015625 68.933594 179.488281 68.167969 177.585938 70.457031 C 175.671875 72.75 174.53125 76.945312 175.007812 77.992188 C 175.488281 79.046875 175.292969 82.09375 178.726562 81.238281 C 182.164062 80.382812 184.738281 79.519531 184.449219 75.515625 C 184.164062 71.507812 183.5 69.601562 181.015625 68.933594 " fill-opacity="1" fill-rule="nonzero"/><path fill="#ffffff" d="M 210.855469 169.097656 C 218.40625 170.035156 216.839844 180.359375 210.996094 181.453125 C 205.152344 182.542969 200.449219 178.476562 202.585938 173.945312 C 204.726562 169.410156 210.855469 169.097656 210.855469 169.097656 " fill-opacity="1" fill-rule="nonzero"/><path fill="#ffffff" d="M 201.578125 233.871094 C 206.042969 234.25 205.804688 249.042969 195.792969 247.632812 C 185.78125 246.226562 190.472656 232.933594 201.578125 233.871094 " fill-opacity="1" fill-rule="nonzero"/><path fill="#ffffff" d="M 220.195312 123.46875 C 220.195312 123.46875 222.945312 121.503906 224.121094 128.578125 C 225.304688 135.652344 219.410156 139.578125 219.410156 139.578125 L 219.410156 135.652344 C 219.410156 135.652344 217.445312 137.617188 214.6875 132.503906 C 211.9375 127.394531 218.226562 119.144531 220.195312 119.542969 C 222.160156 119.933594 220.195312 123.46875 220.195312 123.46875 " fill-opacity="1" fill-rule="nonzero"/><path fill="#ffffff" d="M 238.789062 218.46875 C 243.535156 218.46875 243.441406 223.902344 242.667969 226.847656 C 241.886719 229.796875 235.839844 231.964844 233.515625 228.398438 C 231.191406 224.832031 232.117188 218.46875 238.789062 218.46875 " fill-opacity="1" fill-rule="nonzero"/><path fill="#ffffff" d="M 253.546875 161.527344 C 250.949219 160.839844 247.050781 162.347656 246.53125 166.589844 C 246.011719 170.839844 248.875 176.453125 252.507812 174.671875 C 256.144531 172.894531 257.054688 169.054688 256.664062 165.910156 C 256.273438 162.757812 253.546875 161.527344 253.546875 161.527344 " fill-opacity="1" fill-rule="nonzero"/><path fill="#ffffff" d="M 257.753906 116.253906 C 261.46875 116.460938 262.558594 118.269531 262.25 123.394531 C 261.941406 128.507812 256.355469 132.855469 252.789062 128.664062 C 249.21875 124.476562 252.164062 115.945312 257.753906 116.253906 " fill-opacity="1" fill-rule="nonzero"/><path fill="#ffffff" d="M 190.28125 41.714844 C 187.648438 41.210938 185.246094 40.292969 183.195312 39.269531 C 182.9375 39.398438 182.792969 39.472656 182.792969 39.472656 C 182.792969 39.472656 179.6875 45.835938 183.570312 47.542969 C 187.445312 49.246094 190.390625 47.851562 191.632812 45.519531 C 192.175781 44.507812 193.011719 43.464844 193.671875 42.335938 C 192.085938 42.054688 190.933594 41.84375 190.28125 41.714844 " fill-opacity="1" fill-rule="nonzero"/><path fill="#ffffff" d="M 206.367188 55.914062 C 210.539062 57.167969 211.796875 57.78125 210.867188 61.964844 C 209.941406 66.152344 207.457031 69.410156 202.335938 66 C 197.21875 62.585938 204.820312 55.449219 206.367188 55.914062 " fill-opacity="1" fill-rule="nonzero"/><path fill="#ffffff" d="M 226.535156 51.417969 C 226.535156 51.417969 223.902344 56.222656 226.066406 58.707031 C 228.242188 61.1875 233.355469 59.949219 234.445312 57.621094 C 235.53125 55.296875 235.996094 52.96875 234.445312 51.109375 C 232.898438 49.246094 226.535156 51.417969 226.535156 51.417969 " fill-opacity="1" fill-rule="nonzero"/><path fill="#ffffff" d="M 256.472656 60.414062 C 262.367188 60.105469 262.765625 65.082031 262.984375 67.550781 C 263.453125 72.667969 254.613281 75.617188 252.28125 70.960938 C 249.957031 66.308594 255.636719 60.460938 256.472656 60.414062 " fill-opacity="1" fill-rule="nonzero"/><path fill="#ffffff" d="M 300.679688 60.414062 C 300.46875 59.160156 299.984375 58.328125 299.542969 57.632812 C 296.609375 57.378906 293.457031 57.058594 290.136719 56.695312 C 289.652344 57.964844 289.339844 59.214844 289.199219 60.105469 C 288.890625 62.070312 288.890625 66.777344 293.546875 66.777344 C 298.195312 66.777344 300.988281 62.277344 300.679688 60.414062 " fill-opacity="1" fill-rule="nonzero"/><path fill="#ffffff" d="M 307.816406 80.738281 C 307.816406 80.269531 307.039062 76.546875 302.695312 75.925781 C 298.351562 75.304688 296.488281 80.421875 296.488281 80.421875 C 296.488281 80.421875 294.9375 84.613281 298.195312 86.011719 C 301.453125 87.402344 305.023438 88.800781 306.265625 85.695312 C 307.507812 82.59375 307.816406 80.738281 307.816406 80.738281 " fill-opacity="1" fill-rule="nonzero"/><path fill="#ffffff" d="M 189.402344 199.429688 C 194.179688 201.222656 194.5 203.457031 193.957031 206.941406 C 193.421875 210.429688 182.957031 213.382812 183.492188 207.214844 C 184.027344 201.039062 187.25 198.625 189.402344 199.429688 " fill-opacity="1" fill-rule="nonzero"/><path fill="#ffffff" d="M 243.59375 88.449219 C 242.25 88.8125 239.324219 90.53125 239.207031 92.953125 C 239.089844 95.378906 239.503906 100.253906 243.9375 99.765625 C 247.054688 99.417969 247.75 96.414062 247.75 96.414062 L 248.324219 91.683594 C 248.324219 91.683594 247.054688 87.53125 243.59375 88.449219 " fill-opacity="1" fill-rule="nonzero"/><path fill="#ffffff" d="M 263.078125 238.191406 C 274.015625 236.117188 268.65625 249.664062 263.265625 251 C 257.875 252.328125 255.648438 248.507812 255.835938 245.011719 C 256.023438 241.519531 260.507812 238.683594 263.078125 238.191406 " fill-opacity="1" fill-rule="nonzero"/><path fill="#ffffff" d="M 269.632812 193.933594 C 274.296875 195.101562 274.574219 198.4375 273.410156 202.21875 C 272.25 205.996094 265.859375 206.433594 263.824219 202.367188 C 261.792969 198.292969 266.726562 193.210938 269.632812 193.933594 " fill-opacity="1" fill-rule="nonzero"/><path fill="#ffffff" d="M 298.835938 221.25 C 298.253906 221.105469 293.605469 219.945312 293.605469 224.734375 C 293.605469 229.527344 293.457031 231.855469 296.804688 233.019531 C 301.214844 234.550781 305.8125 229.964844 304.9375 227.351562 C 304.0625 224.734375 299.851562 223.574219 299.851562 223.574219 L 298.835938 221.25 " fill-opacity="1" fill-rule="nonzero"/><path fill="#ffffff" d="M 304.5 255.96875 C 301.371094 256.476562 299.925781 262.308594 300.746094 266.210938 C 304.011719 265.636719 307.4375 264.878906 311.183594 264.082031 C 311.019531 260.457031 306.550781 255.644531 304.5 255.96875 " fill-opacity="1" fill-rule="nonzero"/><path fill="#ffffff" d="M 292.734375 157.472656 C 292.734375 157.472656 288.460938 158.050781 288.371094 160.089844 C 288.085938 166.917969 290.84375 168.511719 293.605469 168.660156 C 294.042969 170.253906 294.042969 170.253906 294.042969 170.253906 C 294.042969 170.253906 295.929688 170.253906 296.949219 168.222656 C 297.960938 166.1875 298.398438 163.71875 297.527344 161.832031 C 296.65625 159.941406 293.167969 159.796875 293.167969 159.796875 L 292.734375 157.472656 " fill-opacity="1" fill-rule="nonzero"/><path fill="#ffffff" d="M 281.765625 99.066406 C 286.292969 98.472656 286.535156 105.027344 285.984375 107.351562 C 285.4375 109.675781 278.28125 110.691406 277.359375 105.027344 C 276.445312 99.359375 280.664062 99.210938 281.765625 99.066406 " fill-opacity="1" fill-rule="nonzero"/><path fill="#ffffff" d="M 306.824219 123.042969 C 306.824219 123.042969 301.160156 124.785156 301.453125 128.851562 C 301.738281 132.917969 308.136719 137.132812 309.148438 135.828125 C 308.566406 132.773438 309.148438 132.917969 309.148438 132.917969 C 309.148438 132.917969 310.601562 132.917969 310.746094 129.582031 C 310.890625 126.234375 308.714844 120.71875 306.386719 120.71875 C 306.824219 123.042969 306.824219 123.042969 306.824219 123.042969 " fill-opacity="1" fill-rule="nonzero"/><path fill="#ffffff" d="M 317.136719 186.527344 C 317.136719 186.527344 321.210938 184.203125 322.808594 188.5625 C 324.402344 192.921875 323.675781 200.617188 318.449219 199.019531 C 313.21875 197.425781 313.800781 189.285156 316.707031 188.707031 C 316.5625 187.105469 317.136719 186.527344 317.136719 186.527344 " fill-opacity="1" fill-rule="nonzero"/><path fill="#ffffff" d="M 332.828125 223.429688 C 337.332031 223.429688 337.1875 238.019531 331.667969 238.730469 C 326.144531 239.441406 325.277344 232.679688 325.570312 228.410156 C 325.859375 224.140625 332.828125 223.429688 332.828125 223.429688 " fill-opacity="1" fill-rule="nonzero"/><path fill="#ffffff" d="M 321.496094 146.578125 C 321.640625 150.207031 321.355469 154.855469 326.144531 155.4375 C 327.515625 155.601562 328.65625 155.550781 329.589844 155.300781 C 328.539062 152.503906 327.550781 149.925781 326.804688 147.632812 C 326.214844 145.824219 325.664062 143.667969 325.15625 141.34375 L 325.132812 141.34375 C 325.132812 141.34375 321.355469 142.941406 321.496094 146.578125 " fill-opacity="1" fill-rule="nonzero"/><g clip-path="url(#id4)"><path fill="#211915" d="M 337.355469 183.023438 C 336.382812 176.757812 335.257812 170.511719 333.582031 164.394531 C 331.960938 158.515625 329.605469 152.902344 327.71875 147.113281 C 324.195312 136.285156 323.53125 124.871094 322.714844 113.59375 C 321.839844 101.636719 320.902344 88.980469 315.214844 78.171875 C 315.121094 77.988281 314.964844 77.898438 314.808594 77.886719 C 315.117188 76.285156 315.34375 74.695312 315.53125 73.214844 C 316.140625 68.34375 316.367188 63.257812 316.082031 58.355469 C 316.054688 57.863281 315.382812 57.78125 315.117188 58.101562 C 315.015625 57.878906 314.808594 57.710938 314.488281 57.679688 C 277.4375 54.511719 240.570312 49.902344 203.972656 43.296875 C 194.996094 41.675781 184.257812 41.128906 177.246094 34.578125 C 176.738281 34.105469 176.117188 34.964844 176.605469 35.433594 C 182.210938 40.867188 190.527344 42.257812 197.902344 43.667969 C 207.195312 45.445312 216.507812 47.113281 225.839844 48.644531 C 244.503906 51.71875 263.257812 54.242188 282.0625 56.300781 C 292.789062 57.472656 303.53125 58.53125 314.289062 59.332031 C 314.597656 59.351562 314.824219 59.230469 314.976562 59.050781 C 314.75 63.484375 314.855469 67.90625 314.328125 72.335938 C 314.050781 74.683594 313.648438 77.03125 313.035156 79.316406 L 312.972656 79.546875 C 311.773438 79.914062 310.601562 80.339844 309.324219 80.503906 C 308.195312 80.648438 307.132812 80.601562 306.066406 80.484375 L 306.089844 80.324219 C 306.183594 79.734375 305.308594 79.652344 305.183594 80.21875 L 305.152344 80.371094 C 304.667969 80.304688 304.179688 80.230469 303.683594 80.152344 C 303.207031 80.085938 303.050781 80.773438 303.476562 80.957031 C 303.921875 81.15625 304.414062 81.320312 304.925781 81.460938 C 301.964844 96.269531 304.507812 111.746094 306.777344 126.46875 C 307.320312 129.964844 307.902344 133.472656 308.992188 136.851562 C 310.054688 140.144531 311.695312 143.195312 313.058594 146.367188 C 314.609375 149.960938 315.449219 153.523438 315.25 157.453125 C 315.0625 161.230469 314.242188 164.929688 313.777344 168.671875 C 312.785156 176.617188 314.191406 184.441406 317.84375 191.570312 C 318.25 192.363281 319.527344 191.8125 319.125 191.007812 C 315.816406 184.410156 314.46875 176.945312 315.222656 169.597656 C 315.933594 162.699219 317.75 156.042969 315.558594 149.214844 C 314.546875 146.0625 312.964844 143.140625 311.632812 140.121094 C 310.121094 136.707031 309.183594 133.15625 308.539062 129.488281 C 307.238281 122.074219 306.160156 114.578125 305.425781 107.085938 C 304.597656 98.566406 304.628906 90.117188 305.882812 81.667969 C 307.984375 82.054688 310.390625 81.960938 312.402344 81.285156 C 311.800781 82.902344 311.074219 84.460938 310.507812 86.101562 C 310.28125 86.765625 311.207031 87.386719 311.625 86.738281 C 312.820312 84.910156 313.640625 82.707031 314.238281 80.417969 C 314.398438 80.3125 314.5625 80.207031 314.707031 80.089844 L 314.8125 79.96875 C 318.558594 90.035156 320.011719 100.496094 320.839844 111.1875 C 321.675781 122.011719 322.109375 132.976562 324.910156 143.523438 C 326.453125 149.308594 328.851562 154.804688 330.707031 160.484375 C 332.730469 166.679688 334.046875 173.074219 335.125 179.496094 C 337.246094 192.074219 338.648438 204.753906 339.652344 217.472656 C 340.753906 231.476562 341.367188 245.511719 341.882812 259.546875 C 336.484375 259.546875 331.308594 259.496094 325.925781 260.351562 C 320.277344 261.25 314.71875 262.601562 309.132812 263.773438 C 303.476562 264.953125 297.746094 266.003906 291.957031 266.15625 C 285.511719 266.324219 279.246094 265.019531 272.960938 263.773438 C 266.261719 262.4375 259.589844 260.921875 252.875 259.664062 C 252.953125 254.144531 252.316406 248.652344 251.914062 243.140625 C 251.363281 235.601562 251.855469 228.269531 253.039062 220.8125 C 255.421875 205.84375 257.722656 190.992188 258.8125 175.847656 C 259.425781 167.285156 259.738281 158.703125 259.78125 150.113281 C 259.785156 149.363281 258.609375 149.214844 258.605469 149.972656 C 258.523438 165.039062 257.566406 180.085938 255.671875 195.03125 C 254.71875 202.59375 253.492188 210.089844 252.210938 217.601562 C 251.011719 224.617188 249.953125 231.714844 250.144531 238.851562 C 250.324219 245.699219 251.304688 252.515625 251.214844 259.355469 L 251.09375 259.332031 C 250.398438 259.203125 250.3125 260.242188 250.964844 260.398438 L 251.191406 260.449219 C 251.164062 261.386719 251.117188 262.320312 251.039062 263.253906 C 238.175781 265.9375 224.9375 266.304688 211.945312 264.320312 C 205.261719 263.292969 198.683594 261.664062 192.308594 259.425781 C 186.023438 257.214844 180.242188 254.164062 174.242188 251.3125 C 171.304688 249.921875 168.371094 249.054688 165.152344 248.632812 C 163 248.347656 160.671875 248.144531 158.695312 247.246094 C 158.730469 246.839844 158.757812 246.4375 158.8125 246.070312 C 160.476562 234.179688 166.921875 223.550781 171.984375 212.882812 C 178.046875 200.109375 182.1875 186.558594 186.300781 173.070312 C 186.585938 172.144531 185.175781 171.566406 184.898438 172.5 C 181.394531 184.042969 177.886719 195.605469 173.152344 206.71875 C 168.664062 217.242188 162.089844 226.972656 158.652344 237.925781 C 157.917969 240.277344 157.324219 242.691406 156.941406 245.132812 C 156.898438 245.394531 156.882812 245.726562 156.871094 246.089844 C 156.585938 245.84375 156.3125 245.574219 156.0625 245.265625 C 155.664062 244.789062 154.949219 245.359375 155.308594 245.859375 C 155.757812 246.472656 156.265625 246.980469 156.820312 247.410156 C 156.773438 248.15625 156.671875 248.878906 156.394531 249.308594 C 155.449219 250.773438 152.957031 249.746094 151.753906 249.460938 C 146.289062 248.179688 140.945312 246.398438 135.707031 244.386719 C 125.535156 240.476562 115.742188 235.664062 105.726562 231.375 C 94.816406 226.703125 83.722656 222.910156 71.929688 221.429688 C 75.828125 210.109375 81.042969 199.320312 86.71875 188.785156 C 92.789062 177.527344 99.199219 166.433594 105.660156 155.398438 C 118.410156 133.625 131.6875 112.171875 145.484375 91.050781 C 149.324219 85.171875 153.210938 79.320312 157.128906 73.496094 C 159.003906 70.710938 160.804688 67.847656 162.824219 65.167969 C 164.601562 62.800781 166.722656 60.601562 169.78125 60.15625 C 170.144531 60.105469 170.429688 59.796875 170.476562 59.433594 C 171.535156 51.230469 173.441406 43.15625 176.261719 35.378906 C 176.546875 34.589844 175.351562 34.101562 175.054688 34.882812 C 172.121094 42.566406 170.050781 50.492188 168.921875 58.636719 C 164.683594 59.527344 162.046875 63.25 159.71875 66.664062 C 155.992188 72.148438 152.296875 77.65625 148.636719 83.183594 C 141.464844 94.03125 134.425781 104.96875 127.535156 115.992188 C 113.8125 137.9375 100.585938 160.203125 88.054688 182.847656 C 81.109375 195.378906 74.550781 208.1875 70.03125 221.816406 C 69.867188 222.320312 70.140625 222.898438 70.707031 222.960938 C 93.734375 225.484375 114.027344 238.238281 135.289062 246.355469 C 140.375 248.296875 145.554688 249.992188 150.847656 251.28125 C 152.664062 251.714844 155.179688 252.699219 156.957031 251.636719 C 158.070312 250.957031 158.421875 249.734375 158.585938 248.464844 C 161.945312 249.992188 166.273438 249.757812 169.730469 250.867188 C 173.09375 251.9375 176.105469 253.824219 179.222656 255.421875 C 182.308594 257 185.492188 258.410156 188.71875 259.675781 C 201.496094 264.667969 215.214844 267.238281 228.921875 267.226562 C 236.671875 267.222656 244.375 266.410156 251.949219 264.773438 C 252.304688 264.699219 252.621094 264.425781 252.65625 264.046875 C 252.753906 262.972656 252.816406 261.90625 252.851562 260.835938 C 258.59375 262.140625 264.378906 263.230469 270.128906 264.488281 C 276.328125 265.847656 282.5625 267.441406 288.9375 267.675781 C 300.347656 268.101562 311.375 264.722656 322.476562 262.625 C 328.644531 261.453125 335.695312 260.140625 341.953125 261.335938 C 342.046875 262.476562 343.871094 262.191406 343.808594 261.003906 C 342.4375 234.964844 341.355469 208.820312 337.355469 183.023438 " fill-opacity="1" fill-rule="nonzero"/></g><path fill="#211915" d="M 147.800781 161.363281 C 143.730469 170.664062 140.101562 180.148438 136.898438 189.785156 C 136.707031 190.367188 137.589844 190.730469 137.789062 190.148438 C 143.445312 173.003906 150.503906 156.34375 158.894531 140.359375 C 163.125 132.308594 167.691406 124.4375 172.566406 116.769531 C 177.195312 109.492188 182.058594 102.371094 186.5 94.972656 C 191.3125 86.941406 195.546875 78.582031 198.246094 69.589844 C 198.96875 69.953125 199.742188 70.214844 200.570312 70.359375 C 203.15625 70.800781 205.5625 69.492188 208.140625 69.859375 C 209.800781 70.097656 211.792969 71.191406 213.808594 72.019531 C 206.570312 95.59375 198.421875 118.773438 188.742188 141.464844 C 188.46875 142.109375 189.472656 142.515625 189.746094 141.875 C 195.351562 128.800781 200.558594 115.503906 205.242188 102.03125 L 205.300781 101.859375 C 205.726562 100.6875 206.125 99.511719 206.53125 98.328125 C 206.78125 97.59375 212.660156 80.589844 215.207031 72.539062 C 216.914062 73.09375 218.582031 73.261719 220.007812 72.359375 C 220.339844 72.148438 220.160156 71.546875 219.773438 71.53125 C 217.636719 71.445312 216.023438 71.507812 213.953125 70.699219 C 212.265625 70.039062 210.617188 69.222656 208.832031 68.855469 C 206.871094 68.453125 205.214844 68.972656 203.285156 69.292969 C 200.617188 69.742188 198.152344 68.804688 196.222656 66.96875 C 195.863281 66.617188 195.261719 67.230469 195.605469 67.605469 C 196.175781 68.214844 196.8125 68.738281 197.507812 69.171875 C 192.371094 85.875 182.152344 100.175781 172.820312 114.71875 C 163.269531 129.582031 154.890625 145.171875 147.800781 161.363281 " fill-opacity="1" fill-rule="nonzero"/><path fill="#211915" d="M 228.46875 97.628906 C 227.28125 101.285156 225.988281 104.917969 224.613281 108.511719 C 223.292969 111.960938 221.773438 115.363281 220.839844 118.945312 C 219.074219 125.71875 220.441406 132.8125 219.121094 139.679688 C 217.792969 146.59375 215.078125 153.144531 212.691406 159.738281 C 210.167969 166.691406 207.964844 173.863281 207.957031 181.324219 C 207.957031 182.148438 209.253906 182.292969 209.234375 181.472656 C 209.007812 167.6875 216.535156 155.601562 219.625 142.496094 C 220.40625 139.199219 220.871094 135.855469 220.929688 132.457031 C 221 128.78125 220.714844 125.078125 221.332031 121.429688 C 221.988281 117.570312 223.585938 113.953125 224.996094 110.324219 C 226.386719 106.742188 227.6875 103.109375 228.894531 99.457031 C 231.480469 91.613281 233.621094 83.636719 235.332031 75.5625 L 235.332031 75.480469 C 236.847656 75.820312 238.285156 77.21875 239.773438 77.65625 C 240.964844 78.015625 242.085938 77.757812 243.316406 77.792969 C 244.363281 77.828125 245.425781 78.035156 246.449219 78.261719 C 247.726562 78.546875 249.054688 78.949219 250.386719 79.261719 C 248.417969 89.59375 246.390625 99.824219 243.375 109.921875 C 240.582031 119.257812 236.589844 128.304688 234.574219 137.859375 C 233.496094 142.941406 233.410156 148.023438 233.367188 153.195312 C 233.328125 158.386719 232.867188 163.457031 231.808594 168.542969 C 229.804688 178.203125 226.84375 187.515625 225.988281 197.390625 C 225.058594 208.015625 225.21875 219.332031 219.546875 228.777344 C 219.097656 229.535156 220.195312 230.367188 220.648438 229.609375 C 225.386719 221.710938 226.25 212.554688 226.894531 203.554688 C 227.246094 198.683594 227.570312 193.800781 228.441406 188.988281 C 229.347656 183.917969 230.730469 178.953125 231.953125 173.960938 C 233.171875 168.980469 234.25 163.941406 234.558594 158.804688 C 234.871094 153.613281 234.492188 148.410156 234.988281 143.226562 C 235.980469 132.882812 240.449219 123.183594 243.484375 113.34375 C 246.878906 102.328125 249.804688 90.902344 251.234375 79.441406 C 253.402344 79.886719 255.578125 79.996094 257.632812 78.949219 C 258.371094 78.570312 257.886719 77.425781 257.113281 77.757812 C 252.5625 79.695312 248.074219 76.746094 243.4375 76.703125 C 242.054688 76.691406 240.722656 76.96875 239.394531 76.402344 C 238.378906 75.976562 237.511719 75.242188 236.480469 74.847656 C 235.167969 74.34375 233.730469 74.25 232.652344 75.25 C 232.257812 75.609375 232.714844 76.1875 233.160156 75.894531 C 233.621094 75.59375 234.0625 75.445312 234.5 75.417969 L 234.480469 75.457031 C 232.832031 82.9375 230.847656 90.34375 228.46875 97.628906 " fill-opacity="1" fill-rule="nonzero"/><path fill="#211915" d="M 270.339844 148.984375 C 270.226562 149.78125 271.476562 149.925781 271.578125 149.128906 C 272.382812 142.945312 273.148438 136.746094 273.539062 130.523438 C 273.917969 124.5625 273.585938 118.714844 273.265625 112.765625 C 272.914062 106.378906 274.328125 100.617188 275.921875 94.488281 C 277.085938 89.996094 278.179688 85.1875 277.4375 80.542969 C 279.96875 80.921875 282.523438 81.117188 285.132812 81.191406 C 286.433594 81.230469 287.742188 81.277344 289.054688 81.320312 L 289.035156 81.449219 C 289.242188 100.617188 290.339844 119.839844 291.175781 138.984375 C 292.007812 157.992188 293.0625 176.996094 295.28125 195.898438 C 296.542969 206.613281 298.167969 217.277344 300.234375 227.863281 C 300.386719 228.636719 301.609375 228.457031 301.457031 227.675781 C 294.140625 190.503906 293.121094 152.398438 291.554688 114.652344 C 291.09375 103.589844 290.84375 92.484375 290.066406 81.429688 L 290.050781 81.355469 C 292.757812 81.429688 295.476562 81.464844 298.136719 81.296875 C 298.773438 81.253906 298.742188 80.234375 298.121094 80.183594 C 291.121094 79.59375 284.164062 80.148438 277.207031 79.398438 L 277.121094 79.019531 C 276.992188 78.515625 276.230469 78.609375 276.316406 79.140625 L 276.335938 79.296875 C 275.140625 79.144531 273.941406 78.964844 272.746094 78.722656 C 272.265625 78.621094 272.050781 79.425781 272.53125 79.554688 C 273.847656 79.890625 275.164062 80.164062 276.484375 80.386719 C 277.101562 85.945312 275.785156 91.132812 274.316406 96.539062 C 272.910156 101.730469 271.929688 106.769531 272.167969 112.183594 C 272.4375 118.289062 272.855469 124.285156 272.464844 130.402344 C 272.074219 136.628906 271.183594 142.800781 270.339844 148.984375 " fill-opacity="1" fill-rule="nonzero"/><path fill="#211915" d="M 134.519531 142.007812 C 131.28125 149.765625 128.390625 157.699219 125.703125 165.664062 C 125.484375 166.304688 126.449219 166.707031 126.6875 166.058594 C 131.792969 152.160156 136.542969 138.132812 143.878906 125.199219 C 151.464844 111.816406 160.933594 99.464844 169.726562 86.867188 C 174.660156 79.796875 179.699219 72.773438 184.449219 65.574219 L 184.546875 65.585938 C 184.746094 65.605469 184.957031 65.542969 185.148438 65.5 C 186.21875 65.277344 186.976562 65.152344 187.839844 66.046875 C 188.375 66.609375 189.332031 65.863281 188.789062 65.300781 C 188.230469 64.71875 187.625 64.289062 186.8125 64.144531 C 185.730469 63.9375 184.792969 64.65625 184.027344 63.675781 C 183.464844 62.949219 183.375 62.324219 182.492188 61.800781 C 181.816406 61.40625 181.132812 61.265625 180.375 61.421875 L 180.375 61.433594 C 179.910156 61.515625 179.863281 62.226562 180.386719 62.3125 C 181.59375 62.523438 182.296875 62.867188 182.910156 63.949219 C 183.15625 64.386719 183.253906 64.859375 183.621094 65.203125 C 174.378906 77.660156 165.6875 90.570312 156.808594 103.285156 C 148.195312 115.621094 140.328125 128.089844 134.519531 142.007812 " fill-opacity="1" fill-rule="nonzero"/></svg>