<svg xmlns="http://www.w3.org/2000/svg" xmlns:xlink="http://www.w3.org/1999/xlink" width="559" zoomAndPan="magnify" viewBox="0 0 419.25 297.749993" height="396" preserveAspectRatio="xMidYMid meet" version="1.0"><defs><clipPath id="id1"><path d="M 0 0.140625 L 418.5 0.140625 L 418.5 297.359375 L 0 297.359375 Z M 0 0.140625 " clip-rule="nonzero"/></clipPath><clipPath id="id2"><path d="M 110.425781 40 L 206 40 L 206 234 L 110.425781 234 Z M 110.425781 40 " clip-rule="nonzero"/></clipPath><clipPath id="id3"><path d="M 213.113281 80 L 308.070312 80 L 308.070312 267.175781 L 213.113281 267.175781 Z M 213.113281 80 " clip-rule="nonzero"/></clipPath></defs><g clip-path="url(#id1)"><path fill="#fbd4ab" d="M 0 0.140625 L 418.5 0.140625 L 418.5 297.359375 L 0 297.359375 Z M 0 0.140625 " fill-opacity="1" fill-rule="nonzero"/><path fill="#ffffff" d="M 0 0.140625 L 418.5 0.140625 L 418.5 297.359375 L 0 297.359375 Z M 0 0.140625 " fill-opacity="1" fill-rule="nonzero"/><path fill="#fbd4ab" d="M 0 0.140625 L 418.5 0.140625 L 418.5 297.359375 L 0 297.359375 Z M 0 0.140625 " fill-opacity="1" fill-rule="nonzero"/></g><g clip-path="url(#id2)"><path fill="#f6a447" d="M 149.539062 54.125 L 149.726562 55.058594 C 147.859375 56.363281 147.269531 58.433594 147.269531 60.484375 C 147.269531 78.351562 146.199219 96.488281 146.734375 114.359375 C 147.003906 122.09375 145.398438 125.292969 143.265625 132.761719 C 139.265625 145.5625 132.332031 161.035156 125.929688 173.035156 C 120.328125 183.96875 110.457031 197.039062 110.726562 210.109375 C 110.988281 216.507812 114.457031 223.710938 118.992188 228.242188 C 126.195312 235.445312 139.261719 233.585938 147.265625 228.785156 C 153.933594 225.046875 158.203125 217.839844 163.003906 211.707031 C 168.605469 205.039062 171.539062 195.703125 175.808594 187.703125 C 181.40625 177.035156 186.742188 166.367188 193.410156 155.964844 C 199.8125 146.09375 207.015625 133.292969 205.414062 121.027344 C 204.347656 114.09375 199.28125 109.558594 197.148438 103.421875 C 195.546875 97.824219 197.945312 88.753906 198.214844 82.886719 C 198.480469 75.417969 199.984375 58.128906 200.519531 50.664062 C 200.519531 48.238281 199.917969 46.847656 197.304688 45.914062 C 197.242188 44.664062 197.160156 42.589844 196.886719 40.351562 L 149.539062 54.125 " fill-opacity="1" fill-rule="nonzero"/></g><path fill="#77b099" d="M 197.148438 103.421875 C 197.085938 103.21875 197.046875 103 197 102.789062 C 192.886719 117.410156 188.613281 135.332031 198.054688 148.339844 C 202.777344 139.9375 206.628906 130.328125 205.414062 121.027344 C 204.347656 114.09375 199.28125 109.558594 197.148438 103.421875 " fill-opacity="1" fill-rule="nonzero"/><path fill="#77b099" d="M 191.710938 30.242188 C 190.21875 29.867188 187.417969 31.359375 185.925781 31.921875 C 182.753906 33.226562 179.769531 34.160156 176.410156 34.90625 C 170.8125 36.210938 165.027344 36.210938 159.429688 37.144531 C 155.882812 37.707031 149.355469 37.144531 148.421875 41.4375 C 147.675781 45.355469 149.355469 50.207031 149.539062 54.125 L 149.664062 54.738281 C 149.828125 54.8125 149.984375 54.90625 150.15625 54.96875 C 153.871094 56.300781 158.652344 55.015625 163.160156 54.289062 C 166.894531 53.710938 170.550781 52.613281 174.402344 51.984375 C 178.253906 51.359375 181.679688 50.359375 185.386719 49.378906 C 188.101562 48.640625 195.515625 46.667969 197.289062 45.570312 C 197.09375 41.566406 196.609375 31.148438 191.710938 30.242188 " fill-opacity="1" fill-rule="nonzero"/><g clip-path="url(#id3)"><path fill="#77b099" d="M 221.515625 80.066406 C 218.902344 81 218.300781 82.386719 218.300781 84.8125 C 218.835938 92.28125 220.339844 109.570312 220.605469 117.035156 C 220.875 122.902344 223.273438 131.972656 221.671875 137.574219 C 219.539062 143.707031 214.472656 148.242188 213.40625 155.175781 C 211.804688 167.445312 219.007812 180.246094 225.40625 190.113281 C 232.078125 200.515625 237.410156 211.183594 243.011719 221.855469 C 247.28125 229.855469 250.214844 239.1875 255.816406 245.855469 C 260.617188 251.992188 264.886719 259.195312 271.550781 262.933594 C 279.554688 267.734375 292.625 269.59375 299.828125 262.394531 C 304.359375 257.859375 307.828125 250.65625 308.09375 244.257812 C 308.363281 231.1875 298.492188 218.117188 292.890625 207.183594 C 286.488281 195.183594 279.550781 179.714844 275.554688 166.914062 C 273.417969 159.445312 271.816406 156.242188 272.085938 148.507812 C 272.617188 130.640625 271.550781 112.5 271.550781 94.632812 C 271.550781 92.582031 270.957031 90.511719 269.09375 89.207031 L 269.277344 88.273438 L 221.515625 80.066406 " fill-opacity="1" fill-rule="nonzero"/></g><path fill="#f5895d" d="M 189.085938 72.265625 C 187.128906 70.136719 184.222656 65.394531 180.757812 65.921875 C 175.28125 66.757812 171.601562 74.734375 169.269531 80.695312 C 166.570312 76.335938 162.523438 69.519531 158.832031 71.59375 C 153.730469 74.453125 150.242188 80.003906 146.859375 84.949219 C 146.832031 86.175781 146.804688 87.402344 146.777344 88.625 C 150.007812 85.046875 152.90625 81.183594 156.269531 77.71875 C 160.203125 73.664062 161.363281 76.59375 163.832031 80.394531 C 165.238281 82.5625 166.550781 84.820312 168.3125 86.726562 C 169.515625 88.03125 171.3125 87.164062 171.886719 85.78125 C 172.6875 83.847656 179.3125 68.992188 181.683594 70.867188 C 187.347656 75.34375 192.378906 81.355469 197.757812 86.242188 C 197.800781 86.28125 197.851562 86.296875 197.898438 86.332031 C 198.046875 85.105469 198.164062 83.945312 198.214844 82.886719 C 198.238281 82.171875 198.28125 81.339844 198.328125 80.460938 C 195.605469 77.429688 191.890625 75.316406 189.085938 72.265625 " fill-opacity="1" fill-rule="nonzero"/><path fill="#f5895d" d="M 187.273438 85.21875 C 181.625 80.675781 178.152344 87.011719 175.632812 91.28125 C 174.265625 93.59375 172.867188 95.867188 171.390625 98.113281 C 169.097656 101.605469 165.734375 93.925781 164.9375 92.699219 C 163.5625 90.585938 161.773438 87 159.058594 86.253906 C 154.335938 84.953125 149.375 94.804688 146.601562 100.097656 C 146.59375 101.304688 146.597656 102.507812 146.597656 103.714844 C 149.265625 100.6875 151.53125 97.390625 154.128906 94.300781 C 154.878906 93.410156 157.21875 88.707031 159.128906 91.179688 C 160.53125 92.992188 161.636719 95.152344 162.84375 97.097656 C 164.296875 99.4375 167.601562 106.734375 171.621094 104.378906 C 176.898438 101.289062 179.566406 84.757812 187.246094 91.027344 C 190.519531 93.699219 193.578125 96.617188 196.617188 99.554688 C 196.554688 97.503906 196.738281 95.265625 197.011719 93.015625 C 193.785156 90.34375 190.46875 87.789062 187.273438 85.21875 " fill-opacity="1" fill-rule="nonzero"/><path fill="#f5895d" d="M 181.0625 132.730469 C 175.953125 131.164062 168.539062 137.601562 163.765625 142.167969 C 163.117188 136.742188 162.375 128.320312 158.074219 128.503906 C 152.707031 128.726562 147.527344 131.65625 142.667969 134.5625 C 142.292969 135.710938 141.917969 136.859375 141.5 138.042969 C 145.300781 136.277344 149.035156 134.378906 152.972656 132.921875 C 157.246094 131.339844 157.863281 132.808594 158.542969 136.792969 C 159.128906 140.203125 159.214844 143.78125 160.304688 147.085938 C 160.816406 148.636719 162.664062 149.148438 163.878906 148.027344 C 168.316406 143.941406 173.308594 139.449219 179.027344 137.300781 C 180.234375 136.847656 188.878906 159.550781 189.007812 159.894531 C 189.238281 160.496094 189.730469 160.871094 190.269531 161.054688 C 190.988281 159.859375 191.722656 158.664062 192.46875 157.472656 C 191.527344 151.769531 187.964844 147.085938 186.34375 141.46875 C 185.429688 138.3125 184.625 133.820312 181.0625 132.730469 " fill-opacity="1" fill-rule="nonzero"/><path fill="#f5895d" d="M 163.125 156.652344 C 162.628906 156.992188 155.722656 161.273438 155.703125 161.222656 C 154.519531 158.261719 154.511719 154.34375 154.070312 151.222656 C 153.644531 148.207031 153.539062 144.921875 151.238281 142.734375 C 148.710938 140.332031 142.976562 143.5625 138.113281 146.949219 C 137.480469 148.519531 136.820312 150.09375 136.148438 151.667969 C 138.523438 150.441406 140.871094 149.167969 143.300781 148.03125 C 145.976562 146.773438 149.140625 144.777344 149.667969 148.871094 C 149.9375 150.988281 150.179688 153.109375 150.46875 155.222656 C 150.726562 157.105469 151.023438 167.621094 155.835938 165.667969 C 159.21875 164.292969 162.238281 162.359375 165.300781 160.371094 C 167.40625 159 169.457031 157.542969 171.515625 156.101562 C 174.960938 153.691406 176.089844 158.554688 176.933594 160.300781 C 179.152344 164.886719 180.980469 169.628906 182.800781 174.367188 C 183.84375 172.414062 184.898438 170.464844 185.976562 168.519531 C 184.03125 164.285156 181.917969 160.132812 179.925781 156.054688 C 175.511719 147.027344 169.402344 152.34375 163.125 156.652344 " fill-opacity="1" fill-rule="nonzero"/><path fill="#f5895d" d="M 154.667969 180.847656 C 149.5625 179.285156 142.148438 185.71875 137.375 190.289062 C 136.726562 184.859375 135.980469 176.441406 131.683594 176.621094 C 128.554688 176.753906 125.488281 177.8125 122.511719 179.238281 C 121.625 180.785156 120.714844 182.359375 119.804688 183.960938 C 122.03125 182.914062 124.269531 181.898438 126.582031 181.042969 C 130.855469 179.460938 131.472656 180.929688 132.152344 184.914062 C 132.734375 188.324219 132.824219 191.902344 133.914062 195.203125 C 134.425781 196.757812 136.273438 197.265625 137.488281 196.148438 C 141.925781 192.0625 146.917969 187.570312 152.636719 185.421875 C 153.84375 184.96875 162.484375 207.667969 162.617188 208.015625 C 162.984375 208.964844 163.972656 209.394531 164.835938 209.292969 C 165.335938 208.574219 165.800781 207.828125 166.257812 207.074219 C 165.757812 200.679688 161.710938 195.683594 159.949219 189.589844 C 159.039062 186.433594 158.234375 181.941406 154.667969 180.847656 " fill-opacity="1" fill-rule="nonzero"/><path fill="#f5895d" d="M 136.734375 204.773438 C 136.238281 205.109375 129.332031 209.394531 129.3125 209.34375 C 128.128906 206.378906 128.121094 202.464844 127.679688 199.339844 C 127.25 196.324219 127.148438 193.039062 124.847656 190.855469 C 122.894531 188.996094 119.027344 190.503906 115.125 192.847656 C 114.308594 194.597656 113.566406 196.363281 112.933594 198.140625 C 114.246094 197.457031 115.5625 196.78125 116.90625 196.152344 C 119.585938 194.894531 122.746094 192.898438 123.273438 196.992188 C 123.546875 199.109375 123.789062 201.226562 124.078125 203.339844 C 124.335938 205.226562 124.632812 215.738281 129.441406 213.789062 C 132.828125 212.414062 135.847656 210.480469 138.90625 208.488281 C 141.011719 207.121094 143.066406 205.660156 145.125 204.21875 C 148.570312 201.8125 149.695312 206.675781 150.539062 208.421875 C 152.542969 212.558594 154.222656 216.824219 155.875 221.097656 C 157.117188 219.582031 158.304688 218 159.480469 216.410156 C 157.566406 212.253906 155.488281 208.179688 153.53125 204.171875 C 149.121094 195.144531 143.011719 200.464844 136.734375 204.773438 " fill-opacity="1" fill-rule="nonzero"/><path fill="#f5895d" d="M 245.066406 86.539062 C 248.867188 87.425781 252.414062 87.804688 256.214844 88.3125 C 259.253906 88.691406 268.011719 89.851562 269.09375 89.207031 L 269.277344 88.273438 C 269.464844 84.355469 271.144531 79.503906 270.398438 75.585938 C 269.464844 71.292969 262.933594 71.855469 259.390625 71.292969 C 253.792969 70.363281 248.007812 70.363281 242.410156 69.054688 C 239.050781 68.308594 236.0625 67.375 232.894531 66.070312 C 231.398438 65.511719 228.601562 64.019531 227.109375 64.390625 C 222.074219 65.328125 221.699219 76.332031 221.515625 80.066406 C 224.4375 82.710938 229.351562 83.34375 233.792969 84.386719 C 237.46875 85.273438 241.269531 85.65625 245.066406 86.539062 " fill-opacity="1" fill-rule="nonzero"/><path fill="#f5895d" d="M 220.921875 120.484375 C 220.96875 120.445312 221.019531 120.433594 221.066406 120.394531 C 226.175781 115.75 231.335938 111.199219 236.007812 106.121094 C 239.800781 102 245.65625 116.84375 246.933594 119.933594 C 247.511719 121.316406 249.304688 122.179688 250.511719 120.875 C 253.34375 117.808594 257.140625 107.074219 261.496094 110.855469 C 265.496094 114.332031 268.515625 118.835938 272.042969 122.777344 C 272.015625 121.570312 271.988281 120.363281 271.960938 119.152344 C 268.636719 114.441406 265.351562 109.539062 260.6875 106.132812 C 256.59375 103.144531 252.386719 110.3125 249.558594 114.863281 C 247.226562 108.902344 243.546875 100.90625 238.066406 100.074219 C 235.003906 99.609375 232.351562 103.4375 230.636719 105.378906 C 227.640625 108.78125 223.460938 111.191406 220.492188 114.582031 C 220.539062 115.472656 220.582031 116.3125 220.605469 117.035156 C 220.65625 118.09375 220.773438 119.257812 220.921875 120.484375 " fill-opacity="1" fill-rule="nonzero"/><path fill="#f5895d" d="M 259.765625 120.398438 C 257.007812 121.15625 255.320312 124.730469 253.882812 126.84375 C 252.476562 128.914062 251.167969 131.039062 249.738281 133.09375 C 248.4375 134.960938 243.550781 126.039062 243.1875 125.425781 C 240.664062 121.15625 237.191406 114.820312 231.542969 119.367188 C 228.351562 121.933594 225.035156 124.488281 221.808594 127.160156 C 222.078125 129.410156 222.265625 131.648438 222.199219 133.699219 C 225.242188 130.761719 228.304688 127.84375 231.574219 125.171875 C 239.253906 118.902344 241.921875 135.4375 247.195312 138.523438 C 251.242188 140.894531 254.488281 133.566406 255.976562 131.242188 C 257.867188 128.292969 259.871094 122.261719 263.398438 126.8125 C 266.28125 130.53125 269.109375 134.328125 272.222656 137.859375 C 272.222656 136.652344 272.226562 135.449219 272.21875 134.242188 C 269.441406 128.949219 264.484375 119.101562 259.765625 120.398438 " fill-opacity="1" fill-rule="nonzero"/><path fill="#f5895d" d="M 236.691406 169.898438 C 242.261719 171.191406 247.753906 176.871094 251.835938 180.625 C 253.050781 181.746094 254.902344 181.238281 255.410156 179.683594 C 256.734375 175.664062 255.519531 163.472656 261.375 165.070312 C 266.921875 166.585938 271.972656 169.699219 277.242188 171.984375 C 276.894531 170.988281 276.585938 170.03125 276.265625 169.0625 C 270.796875 165.800781 264.5625 161.390625 258.433594 161.132812 C 253.097656 160.90625 252.667969 169.195312 251.992188 174.804688 C 247.222656 170.234375 239.777344 163.753906 234.65625 165.324219 C 231.542969 166.277344 230.765625 169.617188 229.859375 172.425781 C 228.195312 177.542969 225.1875 182.359375 223.777344 187.546875 C 224.324219 188.417969 224.867188 189.28125 225.410156 190.113281 C 225.875 190.84375 226.320312 191.574219 226.777344 192.308594 C 227.578125 190.136719 235.113281 169.535156 236.691406 169.898438 " fill-opacity="1" fill-rule="nonzero"/><path fill="#f5895d" d="M 264.851562 190.71875 C 265.460938 187.066406 264.257812 176.429688 270.417969 179.617188 C 274.46875 181.714844 278.519531 183.886719 282.667969 185.804688 C 282.136719 184.5625 281.605469 183.324219 281.097656 182.089844 C 275.878906 178.175781 267.652344 172.3125 264.480469 175.332031 C 262.152344 177.546875 262.140625 180.785156 261.648438 183.816406 C 261.222656 186.449219 260.914062 189.09375 260.453125 191.71875 C 260.578125 194.457031 259.566406 194.660156 257.414062 192.332031 C 255.777344 191.351562 254.167969 190.324219 252.59375 189.246094 C 246.226562 185.042969 240.273438 179.5625 235.792969 188.652344 C 234.132812 192.019531 232.394531 195.449219 230.738281 198.933594 C 231.746094 200.6875 232.726562 202.445312 233.691406 204.207031 C 234.863281 201.109375 236.109375 198.039062 237.613281 195.0625 C 239.449219 191.429688 240.757812 186.285156 245.695312 189.738281 C 249.632812 192.496094 253.796875 195.792969 258.273438 197.609375 C 263.554688 199.753906 264.128906 195.03125 264.851562 190.71875 " fill-opacity="1" fill-rule="nonzero"/><path fill="#f5895d" d="M 261.527344 214.914062 C 267.101562 216.207031 272.59375 221.882812 276.675781 225.640625 C 277.890625 226.757812 279.738281 226.25 280.25 224.695312 C 281.574219 220.679688 280.359375 208.488281 286.214844 210.085938 C 289.964844 211.113281 293.492188 212.871094 297.007812 214.609375 C 296.121094 213.070312 295.257812 211.554688 294.4375 210.074219 C 290.808594 208.019531 287.019531 206.304688 283.273438 206.148438 C 277.933594 205.921875 277.507812 214.210938 276.828125 219.820312 C 272.058594 215.25 264.613281 208.769531 259.492188 210.339844 C 256.382812 211.292969 255.605469 214.632812 254.695312 217.441406 C 252.957031 222.796875 249.734375 227.824219 248.421875 233.289062 C 249.21875 235.003906 250.042969 236.6875 250.910156 238.324219 C 251.175781 238.117188 251.410156 237.859375 251.546875 237.507812 C 251.761719 236.953125 259.886719 214.53125 261.527344 214.914062 " fill-opacity="1" fill-rule="nonzero"/><path fill="#f5895d" d="M 302.546875 224.636719 C 297.660156 221.21875 291.863281 217.925781 289.320312 220.34375 C 286.992188 222.558594 286.980469 225.796875 286.488281 228.832031 C 286.0625 231.464844 285.753906 234.109375 285.292969 236.734375 C 285.417969 239.46875 284.40625 239.671875 282.253906 237.34375 C 280.617188 236.367188 279.007812 235.335938 277.433594 234.261719 C 271.066406 230.054688 265.109375 224.574219 260.632812 233.664062 C 258.816406 237.347656 256.898438 241.101562 255.109375 244.921875 C 255.347656 245.230469 255.566406 245.5625 255.816406 245.855469 C 256.714844 247 257.589844 248.1875 258.46875 249.378906 C 259.660156 246.226562 260.925781 243.101562 262.453125 240.074219 C 264.285156 236.441406 265.597656 231.300781 270.53125 234.753906 C 274.472656 237.507812 278.632812 240.808594 283.113281 242.625 C 288.394531 244.769531 288.96875 240.046875 289.691406 235.734375 C 290.300781 232.082031 289.097656 221.445312 295.253906 224.632812 C 298.429688 226.273438 301.605469 227.96875 304.828125 229.546875 C 304.132812 227.894531 303.363281 226.257812 302.546875 224.636719 " fill-opacity="1" fill-rule="nonzero"/><path fill="#f5895d" d="M 224.050781 145.867188 C 223.429688 142.753906 222.445312 137.417969 222.082031 135.429688 C 221.992188 136.183594 221.863281 136.90625 221.671875 137.574219 C 219.539062 143.707031 214.46875 148.242188 213.402344 155.175781 C 212.324219 163.4375 215.246094 171.9375 219.222656 179.628906 C 223.777344 173.96875 225.664062 167.238281 225.664062 158.800781 C 225.664062 153.628906 225.085938 150.785156 224.050781 145.867188 " fill-opacity="1" fill-rule="nonzero"/><path fill="#f9dacd" d="M 195.273438 85.980469 C 192.160156 83.210938 188.789062 80.578125 185.4375 78.109375 C 184.066406 77.101562 182.425781 75.703125 181.007812 77.210938 C 179.011719 79.339844 177.632812 82.246094 176.148438 84.730469 C 174.363281 87.71875 172.691406 90.9375 170.453125 93.617188 C 169.46875 94.796875 167.863281 91.648438 167.230469 90.761719 C 165.785156 88.730469 164.421875 86.632812 162.886719 84.664062 C 160.417969 81.503906 159.257812 79.464844 155.851562 82.390625 C 152.71875 85.082031 149.136719 88.800781 146.699219 92.621094 C 146.683594 93.453125 146.671875 94.28125 146.65625 95.109375 C 148.914062 91.097656 152.632812 87.511719 155.769531 84.261719 C 156.953125 83.035156 158.6875 81.792969 160.035156 83.359375 C 161.101562 84.597656 162.085938 85.890625 163.039062 87.222656 C 164.394531 89.109375 165.664062 91.058594 167.035156 92.9375 C 167.660156 93.796875 169.097656 96.15625 170.484375 95.476562 C 172.140625 94.664062 173.289062 92.21875 174.222656 90.761719 C 176.011719 87.957031 177.667969 85.0625 179.410156 82.226562 C 180.175781 80.980469 180.945312 79.71875 181.84375 78.558594 C 182.679688 77.476562 183.765625 78.789062 184.664062 79.433594 C 188.183594 81.957031 191.625 84.859375 194.855469 87.75 C 195.734375 88.539062 196.5625 89.382812 197.367188 90.246094 C 197.460938 89.585938 197.550781 88.933594 197.640625 88.289062 C 196.871094 87.496094 196.101562 86.710938 195.273438 85.980469 " fill-opacity="1" fill-rule="nonzero"/><path fill="#f9dacd" d="M 180.539062 146.523438 C 179.707031 145.027344 178.730469 142.992188 176.78125 143.871094 C 173.554688 145.324219 170.640625 147.640625 167.726562 149.617188 C 164.914062 151.527344 162.003906 153.898438 158.808594 155.140625 C 158.078125 155.425781 155.703125 142.167969 155.34375 140.789062 C 154.167969 136.292969 152.445312 136.671875 148.222656 138.1875 C 145.691406 139.097656 142.917969 140.125 140.277344 141.378906 C 140.066406 141.953125 139.863281 142.515625 139.640625 143.089844 C 142.902344 141.449219 146.496094 140.191406 149.679688 139.050781 C 153.902344 137.539062 154.097656 141.234375 154.707031 144.167969 C 155.207031 146.5625 155.554688 148.988281 155.980469 151.398438 C 156.171875 152.484375 156.460938 156.6875 158.300781 156.699219 C 160.28125 156.710938 162.484375 154.851562 164.050781 153.855469 C 167.042969 151.945312 169.945312 149.890625 172.90625 147.929688 C 174.078125 147.152344 175.261719 146.398438 176.480469 145.703125 C 178.332031 144.648438 178.773438 146.480469 179.609375 148.015625 C 181.613281 151.703125 183.296875 155.582031 185.132812 159.351562 C 186.132812 161.410156 186.859375 163.589844 187.5 165.808594 C 187.851562 165.1875 188.199219 164.5625 188.558594 163.941406 C 188.078125 162.40625 187.542969 160.890625 186.898438 159.417969 C 184.988281 155.0625 182.847656 150.683594 180.539062 146.523438 " fill-opacity="1" fill-rule="nonzero"/><path fill="#f9dacd" d="M 154.148438 194.644531 C 153.316406 193.144531 152.339844 191.113281 150.390625 191.988281 C 147.164062 193.445312 144.25 195.757812 141.335938 197.738281 C 138.523438 199.648438 135.613281 202.019531 132.414062 203.261719 C 131.6875 203.542969 129.3125 190.289062 128.953125 188.910156 C 127.777344 184.414062 126.050781 184.792969 121.832031 186.308594 C 120.480469 186.792969 119.0625 187.316406 117.632812 187.882812 C 117.316406 188.46875 117.011719 189.054688 116.707031 189.648438 C 118.9375 188.722656 121.203125 187.917969 123.289062 187.167969 C 127.511719 185.65625 127.707031 189.355469 128.316406 192.285156 C 128.8125 194.683594 129.164062 197.109375 129.589844 199.515625 C 129.78125 200.605469 130.070312 204.808594 131.910156 204.816406 C 133.890625 204.828125 136.09375 202.972656 137.65625 201.972656 C 140.652344 200.0625 143.554688 198.011719 146.515625 196.046875 C 147.6875 195.273438 148.871094 194.515625 150.089844 193.820312 C 151.941406 192.769531 152.382812 194.597656 153.21875 196.136719 C 155.222656 199.824219 156.90625 203.699219 158.742188 207.472656 C 159.773438 209.589844 160.511719 211.839844 161.164062 214.128906 C 161.550781 213.609375 161.941406 213.101562 162.332031 212.59375 C 161.808594 210.875 161.226562 209.179688 160.507812 207.539062 C 158.597656 203.179688 156.453125 198.804688 154.148438 194.644531 " fill-opacity="1" fill-rule="nonzero"/><path fill="#f9dacd" d="M 153.972656 52.296875 C 153.253906 49.289062 152.089844 46.4375 152.039062 43.300781 C 152.027344 42.488281 150.761719 42.484375 150.769531 43.304688 C 150.792969 46.5 151.746094 49.625 152.75 52.632812 C 153.007812 53.40625 154.160156 53.09375 153.972656 52.296875 " fill-opacity="1" fill-rule="nonzero"/><path fill="#f9dacd" d="M 192.5 43.53125 C 192.570312 44.191406 193.625 44.472656 193.753906 43.703125 C 194.289062 40.414062 193.046875 36.730469 191.6875 33.773438 C 191.363281 33.070312 190.171875 33.574219 190.4375 34.300781 C 191.566406 37.410156 192.144531 40.253906 192.5 43.53125 " fill-opacity="1" fill-rule="nonzero"/><path fill="#f9dacd" d="M 158.40625 50.21875 C 157.878906 47.832031 157.054688 45.597656 156.96875 43.117188 C 156.941406 42.246094 155.605469 42.238281 155.609375 43.117188 C 155.628906 45.6875 156.175781 48.367188 157.222656 50.71875 C 157.535156 51.421875 158.558594 50.902344 158.40625 50.21875 " fill-opacity="1" fill-rule="nonzero"/><path fill="#f9dacd" d="M 162.851562 50.023438 C 162.566406 47.257812 161.644531 44.59375 161.371094 41.8125 C 161.289062 40.972656 160.09375 40.949219 160.050781 41.8125 C 159.910156 44.480469 160.65625 47.707031 161.578125 50.191406 C 161.8125 50.832031 162.933594 50.796875 162.851562 50.023438 " fill-opacity="1" fill-rule="nonzero"/><path fill="#f9dacd" d="M 165.539062 49.628906 C 165.839844 50.363281 166.941406 50.109375 166.753906 49.292969 C 166.109375 46.488281 165.511719 43.742188 165.121094 40.882812 C 165.019531 40.125 163.6875 40.304688 163.785156 41.066406 C 164.15625 43.921875 164.425781 46.945312 165.539062 49.628906 " fill-opacity="1" fill-rule="nonzero"/><path fill="#f9dacd" d="M 169.828125 47.203125 C 169.949219 47.914062 171.085938 47.734375 171.070312 47.035156 C 171.023438 44.90625 170.527344 42.792969 170.113281 40.710938 C 169.953125 39.902344 168.761719 40.253906 168.894531 41.046875 C 169.234375 43.09375 169.472656 45.160156 169.828125 47.203125 " fill-opacity="1" fill-rule="nonzero"/><path fill="#f9dacd" d="M 175.046875 47.203125 C 175.34375 47.976562 176.402344 47.675781 176.273438 46.867188 C 175.867188 44.234375 175.46875 41.488281 174.390625 39.039062 C 174.074219 38.332031 172.835938 38.851562 173.132812 39.570312 C 174.152344 42.03125 174.097656 44.742188 175.046875 47.203125 " fill-opacity="1" fill-rule="nonzero"/><path fill="#f9dacd" d="M 179.351562 45.523438 C 179.570312 46.144531 180.664062 46.097656 180.578125 45.355469 C 180.308594 42.933594 180.058594 40.492188 179.6875 38.082031 C 179.570312 37.3125 178.222656 37.492188 178.328125 38.265625 C 178.648438 40.65625 178.53125 43.230469 179.351562 45.523438 " fill-opacity="1" fill-rule="nonzero"/><path fill="#f9dacd" d="M 182.75 44.96875 C 182.921875 45.679688 184.042969 45.527344 184.023438 44.796875 C 183.953125 41.996094 183.347656 39.164062 182.957031 36.394531 C 182.84375 35.585938 181.421875 35.773438 181.527344 36.585938 C 181.878906 39.363281 182.078125 42.25 182.75 44.96875 " fill-opacity="1" fill-rule="nonzero"/><path fill="#f9dacd" d="M 186.964844 39.8125 C 187.140625 41.25 187.121094 42.742188 187.558594 44.125 C 187.773438 44.808594 188.796875 44.6875 188.804688 43.957031 C 188.832031 40.800781 188.113281 37.285156 186.84375 34.402344 C 186.558594 33.753906 185.429688 34.230469 185.699219 34.886719 C 186.34375 36.484375 186.757812 38.101562 186.964844 39.8125 " fill-opacity="1" fill-rule="nonzero"/><path fill="#f9dacd" d="M 236.53125 112.203125 C 237.425781 112.996094 238.050781 114.21875 238.6875 115.210938 C 240.597656 118.199219 242.34375 121.289062 244.214844 124.300781 C 246.128906 127.390625 248.097656 131.917969 251.304688 127.71875 C 252.660156 125.941406 253.898438 124.085938 255.167969 122.25 C 256.542969 120.257812 259.0625 114.90625 262.046875 117.464844 C 265.597656 120.503906 269.792969 124.984375 272.160156 129.25 C 272.148438 128.4375 272.132812 127.621094 272.121094 126.808594 C 269.863281 123.386719 266.707031 120.324219 263.976562 117.488281 C 260.605469 113.988281 259.429688 114.53125 256.570312 118.003906 C 255.621094 119.152344 249.257812 128.632812 248.617188 128.03125 C 246.269531 125.828125 244.710938 122.285156 243.082031 119.558594 C 241.5 116.910156 240.03125 114.015625 238.046875 111.640625 C 236.71875 110.046875 235.585938 110.777344 234.011719 111.816406 C 229.210938 114.988281 225.109375 118.765625 221.230469 122.800781 C 221.304688 123.359375 221.382812 123.925781 221.464844 124.5 C 222.046875 123.859375 222.628906 123.21875 223.234375 122.601562 C 226.15625 119.644531 229.707031 117.085938 232.960938 114.496094 C 233.179688 114.324219 236.136719 111.847656 236.53125 112.203125 " fill-opacity="1" fill-rule="nonzero"/><path fill="#f9dacd" d="M 259.566406 184.898438 C 260.042969 182.554688 260.375 180.179688 260.800781 177.828125 C 261.191406 175.6875 261.390625 170.328125 264.90625 171.292969 C 267.367188 171.972656 269.660156 173.15625 272.007812 174.140625 C 274.472656 175.175781 277.035156 176.171875 279.316406 177.597656 C 279.070312 176.957031 278.835938 176.332031 278.601562 175.699219 C 275.441406 173.863281 271.847656 172.546875 268.582031 171.226562 C 265 169.785156 261.929688 168.175781 260.640625 172.480469 C 259.179688 177.351562 259.328125 182.941406 257.34375 187.613281 C 257 188.425781 249.359375 183.148438 248.636719 182.660156 C 245.671875 180.652344 242.757812 178.492188 239.601562 176.789062 C 237.523438 175.667969 236.722656 176.609375 235.554688 178.472656 C 232.34375 183.597656 230.097656 189.019531 228.183594 194.585938 C 228.484375 195.089844 228.78125 195.597656 229.078125 196.097656 C 229.347656 195.257812 229.609375 194.414062 229.910156 193.582031 C 231.421875 189.421875 233.703125 185.34375 235.699219 181.394531 C 236.128906 180.546875 237.316406 177.390625 238.484375 177.914062 C 239.597656 178.414062 240.632812 179.128906 241.660156 179.78125 C 244.839844 181.808594 247.910156 184 251.0625 186.066406 C 252.820312 187.21875 254.902344 188.886719 257.03125 189.273438 C 259.003906 189.632812 259.324219 186.070312 259.566406 184.898438 " fill-opacity="1" fill-rule="nonzero"/><path fill="#f9dacd" d="M 299.320312 218.652344 C 297.34375 217.78125 295.324219 217.011719 293.421875 216.242188 C 289.839844 214.796875 286.769531 213.191406 285.476562 217.492188 C 284.015625 222.363281 284.167969 227.957031 282.183594 232.628906 C 281.835938 233.441406 274.199219 228.160156 273.476562 227.675781 C 270.511719 225.667969 267.597656 223.507812 264.441406 221.804688 C 262.363281 220.683594 261.5625 221.625 260.394531 223.488281 C 256.890625 229.082031 254.523438 235.023438 252.496094 241.125 C 252.800781 241.628906 253.117188 242.125 253.4375 242.613281 C 253.839844 241.265625 254.265625 239.925781 254.75 238.597656 C 256.261719 234.4375 258.539062 230.355469 260.539062 226.410156 C 260.964844 225.5625 262.152344 222.40625 263.324219 222.929688 C 264.4375 223.429688 265.472656 224.144531 266.5 224.796875 C 269.675781 226.824219 272.75 229.015625 275.902344 231.082031 C 277.660156 232.234375 279.742188 233.902344 281.867188 234.289062 C 283.84375 234.648438 284.164062 231.085938 284.402344 229.914062 C 284.882812 227.570312 285.214844 225.195312 285.640625 222.84375 C 286.03125 220.703125 286.226562 215.34375 289.746094 216.308594 C 292.207031 216.988281 294.496094 218.167969 296.847656 219.15625 C 298.039062 219.65625 299.257812 220.152344 300.453125 220.6875 C 300.078125 220.003906 299.703125 219.324219 299.320312 218.652344 " fill-opacity="1" fill-rule="nonzero"/><path fill="#f9dacd" d="M 266.070312 86.785156 C 267.070312 83.777344 268.027344 80.648438 268.050781 77.453125 C 268.058594 76.632812 266.796875 76.636719 266.78125 77.453125 C 266.730469 80.585938 265.566406 83.4375 264.851562 86.445312 C 264.660156 87.246094 265.8125 87.554688 266.070312 86.785156 " fill-opacity="1" fill-rule="nonzero"/><path fill="#f9dacd" d="M 226.320312 77.683594 C 226.675781 74.40625 227.253906 71.558594 228.382812 68.449219 C 228.648438 67.722656 227.453125 67.21875 227.132812 67.921875 C 225.773438 70.878906 224.53125 74.5625 225.066406 77.851562 C 225.191406 78.617188 226.25 78.335938 226.320312 77.683594 " fill-opacity="1" fill-rule="nonzero"/><path fill="#f9dacd" d="M 261.597656 84.867188 C 262.640625 82.519531 263.195312 79.835938 263.210938 77.265625 C 263.214844 76.390625 261.882812 76.394531 261.851562 77.265625 C 261.765625 79.746094 260.941406 81.980469 260.414062 84.371094 C 260.261719 85.054688 261.285156 85.570312 261.597656 84.867188 " fill-opacity="1" fill-rule="nonzero"/><path fill="#f9dacd" d="M 257.242188 84.34375 C 258.167969 81.855469 258.910156 78.628906 258.769531 75.960938 C 258.722656 75.097656 257.53125 75.125 257.449219 75.960938 C 257.175781 78.742188 256.253906 81.40625 255.96875 84.167969 C 255.886719 84.949219 257.007812 84.980469 257.242188 84.34375 " fill-opacity="1" fill-rule="nonzero"/><path fill="#f9dacd" d="M 253.285156 83.777344 C 254.394531 81.09375 254.664062 78.074219 255.035156 75.214844 C 255.136719 74.453125 253.800781 74.273438 253.699219 75.03125 C 253.304688 77.890625 252.710938 80.636719 252.066406 83.441406 C 251.882812 84.253906 252.980469 84.511719 253.285156 83.777344 " fill-opacity="1" fill-rule="nonzero"/><path fill="#f9dacd" d="M 248.992188 81.351562 C 249.347656 79.308594 249.585938 77.242188 249.925781 75.195312 C 250.058594 74.40625 248.867188 74.050781 248.707031 74.859375 C 248.296875 76.941406 247.800781 79.054688 247.75 81.183594 C 247.734375 81.886719 248.871094 82.066406 248.992188 81.351562 " fill-opacity="1" fill-rule="nonzero"/><path fill="#f9dacd" d="M 243.773438 81.355469 C 244.722656 78.894531 244.667969 76.183594 245.6875 73.71875 C 245.984375 73 244.746094 72.480469 244.429688 73.1875 C 243.347656 75.636719 242.953125 78.382812 242.546875 81.015625 C 242.417969 81.824219 243.476562 82.128906 243.773438 81.355469 " fill-opacity="1" fill-rule="nonzero"/><path fill="#f9dacd" d="M 239.472656 79.671875 C 240.292969 77.378906 240.175781 74.804688 240.492188 72.414062 C 240.597656 71.640625 239.25 71.464844 239.132812 72.230469 C 238.761719 74.640625 238.511719 77.082031 238.242188 79.503906 C 238.15625 80.25 239.246094 80.292969 239.472656 79.671875 " fill-opacity="1" fill-rule="nonzero"/><path fill="#f9dacd" d="M 236.070312 79.117188 C 236.742188 76.402344 236.941406 73.511719 237.292969 70.738281 C 237.394531 69.925781 235.976562 69.734375 235.863281 70.542969 C 235.472656 73.3125 234.867188 76.144531 234.796875 78.945312 C 234.777344 79.679688 235.894531 79.828125 236.070312 79.117188 " fill-opacity="1" fill-rule="nonzero"/><path fill="#f9dacd" d="M 231.261719 78.273438 C 231.699219 76.894531 231.703125 75.394531 231.855469 73.960938 C 232.039062 72.257812 232.480469 70.625 233.125 69.039062 C 233.390625 68.378906 232.261719 67.90625 231.972656 68.554688 C 230.707031 71.433594 229.984375 74.949219 230.015625 78.105469 C 230.023438 78.835938 231.050781 78.953125 231.261719 78.273438 " fill-opacity="1" fill-rule="nonzero"/></svg>