<svg xmlns="http://www.w3.org/2000/svg" xmlns:xlink="http://www.w3.org/1999/xlink" width="559" zoomAndPan="magnify" viewBox="0 0 419.25 297.749993" height="396" preserveAspectRatio="xMidYMid meet" version="1.0"><defs><clipPath id="id1"><path d="M 72.78125 69 L 346.042969 69 L 346.042969 227 L 72.78125 227 Z M 72.78125 69 " clip-rule="nonzero"/></clipPath></defs><path fill="#ffcc4d" d="M 292.90625 148.335938 C 292.90625 149.703125 292.871094 151.066406 292.804688 152.433594 C 292.738281 153.796875 292.636719 155.160156 292.503906 156.519531 C 292.371094 157.882812 292.203125 159.238281 292 160.589844 C 291.800781 161.941406 291.566406 163.289062 291.300781 164.628906 C 291.035156 165.96875 290.734375 167.300781 290.402344 168.628906 C 290.070312 169.953125 289.707031 171.269531 289.308594 172.578125 C 288.914062 173.886719 288.484375 175.183594 288.023438 176.46875 C 287.5625 177.757812 287.074219 179.03125 286.550781 180.292969 C 286.027344 181.558594 285.472656 182.804688 284.890625 184.042969 C 284.304688 185.277344 283.691406 186.496094 283.046875 187.703125 C 282.402344 188.910156 281.730469 190.097656 281.027344 191.269531 C 280.324219 192.441406 279.59375 193.597656 278.835938 194.734375 C 278.074219 195.867188 277.289062 196.984375 276.472656 198.082031 C 275.660156 199.183594 274.820312 200.257812 273.953125 201.316406 C 273.085938 202.371094 272.195312 203.40625 271.277344 204.417969 C 270.359375 205.433594 269.417969 206.421875 268.449219 207.386719 C 267.484375 208.355469 266.496094 209.296875 265.484375 210.214844 C 264.46875 211.132812 263.4375 212.023438 262.378906 212.890625 C 261.324219 213.757812 260.246094 214.597656 259.148438 215.414062 C 258.050781 216.226562 256.933594 217.015625 255.796875 217.773438 C 254.664062 218.53125 253.507812 219.265625 252.335938 219.964844 C 251.164062 220.667969 249.976562 221.34375 248.769531 221.988281 C 247.566406 222.632812 246.34375 223.246094 245.109375 223.828125 C 243.875 224.414062 242.625 224.96875 241.363281 225.492188 C 240.101562 226.015625 238.828125 226.507812 237.539062 226.964844 C 236.253906 227.425781 234.957031 227.855469 233.648438 228.253906 C 232.339844 228.648438 231.023438 229.011719 229.699219 229.34375 C 228.375 229.675781 227.042969 229.976562 225.699219 230.242188 C 224.359375 230.511719 223.015625 230.742188 221.664062 230.945312 C 220.3125 231.144531 218.957031 231.3125 217.597656 231.445312 C 216.234375 231.578125 214.875 231.679688 213.507812 231.746094 C 212.144531 231.816406 210.777344 231.847656 209.414062 231.847656 C 208.046875 231.847656 206.679688 231.816406 205.316406 231.746094 C 203.949219 231.679688 202.589844 231.578125 201.230469 231.445312 C 199.867188 231.3125 198.511719 231.144531 197.160156 230.945312 C 195.808594 230.742188 194.464844 230.511719 193.125 230.242188 C 191.785156 229.976562 190.449219 229.675781 189.125 229.34375 C 187.800781 229.011719 186.484375 228.648438 185.175781 228.253906 C 183.867188 227.855469 182.570312 227.425781 181.285156 226.964844 C 179.996094 226.507812 178.722656 226.015625 177.460938 225.492188 C 176.199219 224.96875 174.949219 224.414062 173.714844 223.828125 C 172.480469 223.246094 171.257812 222.632812 170.054688 221.988281 C 168.847656 221.34375 167.660156 220.667969 166.488281 219.964844 C 165.316406 219.265625 164.164062 218.53125 163.027344 217.773438 C 161.890625 217.015625 160.773438 216.226562 159.675781 215.414062 C 158.578125 214.597656 157.5 213.757812 156.445312 212.890625 C 155.390625 212.023438 154.355469 211.132812 153.34375 210.214844 C 152.328125 209.296875 151.339844 208.355469 150.375 207.386719 C 149.40625 206.421875 148.464844 205.433594 147.546875 204.417969 C 146.628906 203.40625 145.738281 202.371094 144.871094 201.316406 C 144.003906 200.257812 143.164062 199.179688 142.351562 198.082031 C 141.535156 196.984375 140.75 195.867188 139.992188 194.734375 C 139.230469 193.597656 138.5 192.441406 137.796875 191.269531 C 137.09375 190.097656 136.421875 188.910156 135.777344 187.703125 C 135.132812 186.496094 134.519531 185.277344 133.9375 184.042969 C 133.351562 182.804688 132.796875 181.558594 132.273438 180.292969 C 131.753906 179.03125 131.261719 177.757812 130.800781 176.46875 C 130.339844 175.183594 129.910156 173.886719 129.515625 172.578125 C 129.117188 171.269531 128.753906 169.953125 128.421875 168.628906 C 128.089844 167.300781 127.789062 165.96875 127.523438 164.628906 C 127.257812 163.289062 127.023438 161.941406 126.824219 160.589844 C 126.621094 159.238281 126.457031 157.882812 126.320312 156.519531 C 126.1875 155.160156 126.085938 153.796875 126.019531 152.433594 C 125.953125 151.066406 125.917969 149.703125 125.917969 148.335938 C 125.917969 146.96875 125.953125 145.601562 126.019531 144.238281 C 126.085938 142.871094 126.1875 141.511719 126.320312 140.148438 C 126.457031 138.789062 126.621094 137.433594 126.824219 136.082031 C 127.023438 134.730469 127.257812 133.382812 127.523438 132.042969 C 127.789062 130.703125 128.089844 129.367188 128.421875 128.042969 C 128.753906 126.71875 129.117188 125.402344 129.515625 124.09375 C 129.910156 122.785156 130.339844 121.488281 130.800781 120.199219 C 131.261719 118.914062 131.753906 117.640625 132.273438 116.375 C 132.796875 115.113281 133.351562 113.863281 133.9375 112.628906 C 134.519531 111.394531 135.132812 110.171875 135.777344 108.96875 C 136.421875 107.761719 137.09375 106.574219 137.796875 105.402344 C 138.5 104.230469 139.230469 103.074219 139.992188 101.9375 C 140.75 100.800781 141.535156 99.683594 142.351562 98.585938 C 143.164062 97.488281 144.003906 96.410156 144.871094 95.355469 C 145.738281 94.296875 146.628906 93.265625 147.546875 92.25 C 148.464844 91.238281 149.40625 90.25 150.375 89.28125 C 151.339844 88.316406 152.328125 87.375 153.34375 86.457031 C 154.355469 85.539062 155.390625 84.644531 156.445312 83.777344 C 157.5 82.910156 158.578125 82.070312 159.675781 81.257812 C 160.773438 80.441406 161.890625 79.65625 163.027344 78.898438 C 164.164062 78.136719 165.316406 77.40625 166.488281 76.703125 C 167.660156 76 168.847656 75.328125 170.054688 74.683594 C 171.257812 74.039062 172.480469 73.425781 173.714844 72.839844 C 174.949219 72.257812 176.199219 71.703125 177.460938 71.179688 C 178.722656 70.65625 179.996094 70.164062 181.285156 69.703125 C 182.570312 69.242188 183.867188 68.816406 185.175781 68.417969 C 186.484375 68.023438 187.800781 67.65625 189.125 67.324219 C 190.449219 66.992188 191.785156 66.695312 193.125 66.425781 C 194.464844 66.160156 195.808594 65.925781 197.160156 65.726562 C 198.511719 65.527344 199.867188 65.359375 201.230469 65.222656 C 202.589844 65.089844 203.949219 64.988281 205.316406 64.921875 C 206.679688 64.855469 208.046875 64.824219 209.414062 64.824219 C 210.777344 64.824219 212.144531 64.855469 213.507812 64.921875 C 214.875 64.988281 216.234375 65.089844 217.597656 65.222656 C 218.957031 65.359375 220.3125 65.527344 221.664062 65.726562 C 223.015625 65.925781 224.359375 66.160156 225.699219 66.425781 C 227.042969 66.695312 228.375 66.992188 229.699219 67.324219 C 231.023438 67.65625 232.339844 68.023438 233.648438 68.417969 C 234.957031 68.816406 236.253906 69.242188 237.539062 69.703125 C 238.828125 70.164062 240.101562 70.65625 241.363281 71.179688 C 242.625 71.703125 243.875 72.257812 245.109375 72.839844 C 246.34375 73.425781 247.566406 74.039062 248.769531 74.683594 C 249.976562 75.328125 251.164062 76 252.335938 76.703125 C 253.507812 77.40625 254.664062 78.136719 255.796875 78.898438 C 256.933594 79.65625 258.050781 80.441406 259.148438 81.257812 C 260.246094 82.070312 261.324219 82.910156 262.378906 83.777344 C 263.4375 84.644531 264.46875 85.539062 265.484375 86.457031 C 266.496094 87.375 267.484375 88.316406 268.449219 89.28125 C 269.417969 90.25 270.359375 91.238281 271.277344 92.25 C 272.195312 93.265625 273.085938 94.296875 273.953125 95.355469 C 274.820312 96.410156 275.660156 97.488281 276.472656 98.585938 C 277.289062 99.683594 278.074219 100.800781 278.835938 101.9375 C 279.59375 103.074219 280.324219 104.230469 281.027344 105.402344 C 281.730469 106.574219 282.402344 107.761719 283.046875 108.96875 C 283.691406 110.171875 284.304688 111.394531 284.890625 112.628906 C 285.472656 113.863281 286.027344 115.113281 286.550781 116.375 C 287.074219 117.640625 287.5625 118.914062 288.023438 120.199219 C 288.484375 121.488281 288.914062 122.785156 289.308594 124.09375 C 289.707031 125.402344 290.070312 126.71875 290.402344 128.042969 C 290.734375 129.367188 291.035156 130.703125 291.300781 132.042969 C 291.566406 133.382812 291.800781 134.730469 292 136.082031 C 292.203125 137.433594 292.371094 138.789062 292.503906 140.148438 C 292.636719 141.511719 292.738281 142.871094 292.804688 144.238281 C 292.871094 145.601562 292.90625 146.96875 292.90625 148.335938 Z M 292.90625 148.335938 " fill-opacity="1" fill-rule="nonzero"/><path fill="#f4900c" d="M 148.742188 185.4375 C 141.050781 185.960938 135.554688 183.03125 131.539062 178.277344 C 133.210938 182.625 135.34375 186.71875 137.691406 190.675781 C 143.710938 192.933594 150.113281 193.878906 157.523438 188.554688 C 153.910156 186.78125 150.652344 185.3125 148.742188 185.4375 Z M 249.121094 74.988281 C 249.472656 77.550781 247.660156 78.894531 243.265625 77.824219 C 235.808594 76.011719 229.265625 83.886719 225.511719 90.46875 C 218.117188 103.410156 187.613281 117.988281 187.589844 106.765625 C 187.582031 101.464844 160.640625 113.347656 157.195312 108.023438 C 153.941406 102.996094 144.210938 104.929688 142.199219 98.902344 C 133.335938 110.960938 127.605469 125.46875 126.269531 141.246094 C 129.214844 146.851562 133.015625 151.257812 136.828125 153.160156 C 141.980469 155.738281 165.917969 165.09375 169.414062 159.121094 C 175.246094 149.15625 210.238281 156.207031 209.40625 150.96875 C 207.804688 140.933594 228.351562 149.171875 235.738281 136.238281 C 239.503906 129.65625 247.707031 124.601562 255.171875 126.414062 C 263.886719 128.53125 274.636719 113.582031 273.824219 95.207031 C 267.023438 86.953125 258.589844 80.128906 249.121094 74.988281 Z M 273.957031 201.304688 C 271.316406 202.601562 268.71875 203.59375 266.34375 203.851562 C 248.792969 205.75 245 219.507812 233.226562 217.152344 C 227.160156 215.933594 218.882812 226.632812 209.414062 227.28125 C 204.640625 227.609375 197.785156 228.382812 190.785156 229.683594 C 196.78125 231.050781 203.003906 231.847656 209.414062 231.847656 C 235.417969 231.847656 258.636719 219.953125 273.957031 201.304688 Z M 273.957031 201.304688 " fill-opacity="1" fill-rule="nonzero"/><g clip-path="url(#id1)"><path fill="#e85e00" d="M 250.207031 75.503906 C 257.648438 79.683594 264.34375 84.976562 270.148438 91.148438 C 289.59375 89.921875 301.453125 94.496094 300.464844 105.023438 C 299.949219 110.53125 295.894531 117.066406 289.289062 124.039062 C 272.832031 141.386719 240.035156 161.492188 202.863281 175.597656 C 177.027344 185.398438 154.003906 190.433594 137.542969 190.699219 C 120.796875 190.972656 110.859375 186.304688 111.765625 176.621094 C 112.359375 170.257812 117.636719 162.515625 126.222656 154.308594 C 126.074219 152.316406 125.917969 150.351562 125.917969 148.335938 C 125.917969 141.714844 126.769531 135.300781 128.230469 129.117188 C 94.644531 152.410156 72.78125 178.066406 72.78125 198.074219 C 72.78125 225.304688 113.082031 233.667969 168.617188 221.164062 C 181.5 218.269531 195.203125 214.246094 209.414062 209.070312 C 239.863281 197.988281 267.882812 183.296875 290.601562 167.546875 C 324.183594 144.25 346.042969 118.597656 346.042969 98.589844 C 346.042969 71.367188 305.742188 62.996094 250.207031 75.503906 Z M 250.207031 75.503906 " fill-opacity="1" fill-rule="nonzero"/></g><path fill="#f4900c" d="M 118.503906 148.734375 C 112.710938 154.285156 107.8125 160.636719 103.824219 167.335938 C 100 173.988281 96.742188 181.476562 97.234375 188.195312 C 97.507812 194.878906 102.558594 198.863281 109.398438 200.703125 C 116.222656 202.476562 123.804688 202.945312 131.523438 202.492188 C 146.84375 201.796875 162.207031 199.253906 177.128906 194.957031 C 192.148438 191.011719 206.726562 185.390625 220.96875 179.058594 C 249.449219 166.34375 276.152344 149.46875 300.074219 129.21875 C 302.945312 126.617188 306.09375 124.148438 308.847656 121.519531 C 311.449219 118.886719 313.898438 115.949219 315.953125 112.953125 C 320.027344 106.953125 322.402344 99.933594 318.570312 94.582031 C 314.742188 89.148438 306.894531 86.1875 299.417969 84.65625 C 291.757812 83.199219 283.722656 82.863281 275.761719 83.792969 C 283.503906 81.722656 291.664062 80.707031 299.871094 81.324219 C 307.910156 82.042969 316.828125 83.667969 323.355469 90.859375 C 326.554688 94.425781 328.03125 99.800781 327.445312 104.492188 C 327 109.265625 325.15625 113.472656 323.050781 117.261719 C 320.878906 121.050781 318.445312 124.484375 315.671875 127.789062 C 312.921875 130.945312 310.136719 133.855469 307.300781 136.871094 C 284.410156 160.253906 257.023438 179.152344 227.191406 192.777344 C 197.398438 206.210938 164.933594 215.511719 131.460938 214.285156 C 123.21875 213.972656 114.621094 213.246094 106.199219 210.003906 C 102.027344 208.375 97.75 205.96875 94.488281 202.070312 C 91.136719 198.246094 89.527344 192.925781 89.886719 188.21875 C 90.652344 178.746094 95.382812 171.410156 100.421875 164.976562 C 105.605469 158.582031 111.71875 153.066406 118.503906 148.734375 Z M 118.503906 148.734375 " fill-opacity="1" fill-rule="nonzero"/></svg>