<svg xmlns="http://www.w3.org/2000/svg" xmlns:xlink="http://www.w3.org/1999/xlink" width="559" zoomAndPan="magnify" viewBox="0 0 419.25 297.749993" height="396" preserveAspectRatio="xMidYMid meet" version="1.0"><defs><filter x="0%" y="0%" width="100%" height="100%" id="id1"><feColorMatrix values="0 0 0 0 1 0 0 0 0 1 0 0 0 0 1 0 0 0 1 0" color-interpolation-filters="sRGB"/></filter><clipPath id="id2"><path d="M 50 0.140625 L 367 0.140625 L 367 297.359375 L 50 297.359375 Z M 50 0.140625 " clip-rule="nonzero"/></clipPath><mask id="id3"><g filter="url(#id1)"><rect x="-41.925" width="503.1" fill="#000000" y="-29.774999" height="357.299992" fill-opacity="0.498"/></g></mask><clipPath id="id4"><path d="M 0.96875 0.140625 L 315.40625 0.140625 L 315.40625 297.359375 L 0.96875 297.359375 Z M 0.96875 0.140625 " clip-rule="nonzero"/></clipPath><clipPath id="id5"><path d="M 0.96875 0.140625 L 256 0.140625 L 256 297.359375 L 0.96875 297.359375 Z M 0.96875 0.140625 " clip-rule="nonzero"/></clipPath><clipPath id="id6"><rect x="0" width="317" y="0" height="298"/></clipPath></defs><g clip-path="url(#id2)"><g mask="url(#id3)"><g transform="matrix(1, 0, 0, 1, 50, -0.000000000000026729)"><g clip-path="url(#id6)"><g clip-path="url(#id4)"><path fill="#ffde59" d="M 158.144531 0.128906 L 208.789062 101.628906 L 315.355469 114.523438 L 240.09375 198.113281 L 255.304688 299.617188 L 158.144531 257.746094 L 60.984375 299.617188 L 76.195312 198.113281 L 0.9375 114.523438 L 107.496094 101.628906 L 158.144531 0.128906 " fill-opacity="1" fill-rule="nonzero"/></g><g clip-path="url(#id5)"><path fill="#d2a113" d="M 255.304688 299.617188 L 158.144531 257.746094 L 60.984375 299.617188 L 76.195312 198.113281 L 0.9375 114.523438 L 107.496094 101.628906 L 158.144531 0.128906 C 158.144531 0.128906 138.578125 73.957031 132.78125 88.632812 C 127.542969 101.890625 125.96875 112.511719 112.691406 116.335938 C 108.394531 117.578125 103.640625 117.828125 98.753906 117.828125 C 97.09375 117.828125 95.421875 117.796875 93.746094 117.769531 C 92.070312 117.738281 90.394531 117.710938 88.726562 117.710938 C 77.816406 117.710938 67.320312 118.941406 60.769531 129.429688 C 51.796875 143.789062 60.683594 155.859375 72.179688 165.078125 C 83.722656 174.332031 97.199219 180.261719 100.757812 192.425781 C 104.625 205.660156 87.679688 226.027344 93.75 238.601562 C 98.4375 248.308594 108.164062 254.527344 118.855469 254.527344 C 124.15625 254.527344 129.699219 253 134.976562 249.597656 C 142.121094 245 148.242188 240.597656 155.925781 240.597656 C 161.464844 240.597656 167.816406 242.886719 175.9375 249.042969 C 186.480469 257.023438 196.621094 264.082031 203.597656 266.953125 C 208.117188 268.808594 211.9375 269.621094 215.246094 269.621094 C 222.820312 269.621094 227.714844 265.34375 232.128906 259.4375 C 240.804688 247.839844 243.371094 227.671875 242.515625 214.277344 L 255.304688 299.617188 " fill-opacity="1" fill-rule="nonzero"/></g></g></g></g></g></svg>