<svg xmlns="http://www.w3.org/2000/svg" xmlns:xlink="http://www.w3.org/1999/xlink" width="559" zoomAndPan="magnify" viewBox="0 0 419.25 297.749993" height="396" preserveAspectRatio="xMidYMid meet" version="1.0"><defs><clipPath id="id1"><path d="M 50.96875 0.140625 L 365.40625 0.140625 L 365.40625 297.359375 L 50.96875 297.359375 Z M 50.96875 0.140625 " clip-rule="nonzero"/></clipPath><clipPath id="id2"><path d="M 50.96875 0.140625 L 306 0.140625 L 306 297.359375 L 50.96875 297.359375 Z M 50.96875 0.140625 " clip-rule="nonzero"/></clipPath></defs><g clip-path="url(#id1)"><path fill="#f5c116" d="M 208.144531 0.128906 L 258.789062 101.628906 L 365.355469 114.523438 L 290.09375 198.113281 L 305.304688 299.617188 L 208.144531 257.746094 L 110.984375 299.617188 L 126.195312 198.113281 L 50.9375 114.523438 L 157.496094 101.628906 L 208.144531 0.128906 " fill-opacity="1" fill-rule="nonzero"/></g><g clip-path="url(#id2)"><path fill="#d2a113" d="M 305.304688 299.617188 L 208.144531 257.746094 L 110.984375 299.617188 L 126.195312 198.113281 L 50.9375 114.523438 L 157.496094 101.628906 L 208.144531 0.128906 C 208.144531 0.128906 188.578125 73.957031 182.78125 88.632812 C 177.542969 101.890625 175.96875 112.511719 162.691406 116.335938 C 158.394531 117.578125 153.640625 117.828125 148.753906 117.828125 C 147.09375 117.828125 145.421875 117.796875 143.746094 117.769531 C 142.070312 117.738281 140.394531 117.710938 138.726562 117.710938 C 127.816406 117.710938 117.320312 118.941406 110.769531 129.429688 C 101.796875 143.789062 110.683594 155.859375 122.179688 165.078125 C 133.722656 174.332031 147.199219 180.261719 150.757812 192.425781 C 154.625 205.660156 137.679688 226.027344 143.75 238.601562 C 148.4375 248.308594 158.164062 254.527344 168.855469 254.527344 C 174.15625 254.527344 179.699219 253 184.976562 249.601562 C 192.121094 245 198.242188 240.597656 205.925781 240.597656 C 211.464844 240.597656 217.816406 242.886719 225.9375 249.042969 C 236.480469 257.023438 246.621094 264.082031 253.597656 266.953125 C 258.117188 268.808594 261.9375 269.621094 265.246094 269.621094 C 272.820312 269.621094 277.714844 265.347656 282.128906 259.4375 C 290.804688 247.839844 293.371094 227.671875 292.515625 214.277344 L 305.304688 299.617188 " fill-opacity="1" fill-rule="nonzero"/></g></svg>