<svg xmlns="http://www.w3.org/2000/svg" xmlns:xlink="http://www.w3.org/1999/xlink" width="559" zoomAndPan="magnify" viewBox="0 0 419.25 297.749993" height="396" preserveAspectRatio="xMidYMid meet" version="1.0"><defs><clipPath id="id1"><path d="M 0 0.140625 L 418.5 0.140625 L 418.5 297.359375 L 0 297.359375 Z M 0 0.140625 " clip-rule="nonzero"/></clipPath><clipPath id="id2"><path d="M 85.085938 91 L 331 91 L 331 244 L 85.085938 244 Z M 85.085938 91 " clip-rule="nonzero"/></clipPath></defs><g clip-path="url(#id1)"><path fill="#ffffff" d="M 0 0.140625 L 419.25 0.140625 L 419.25 304.097656 L 0 304.097656 Z M 0 0.140625 " fill-opacity="1" fill-rule="nonzero"/><path fill="#ff9b24" d="M 0 0.140625 L 418.5 0.140625 L 418.5 297.359375 L 0 297.359375 Z M 0 0.140625 " fill-opacity="1" fill-rule="nonzero"/><path fill="#ffffff" d="M 0 0.140625 L 418.5 0.140625 L 418.5 297.359375 L 0 297.359375 Z M 0 0.140625 " fill-opacity="1" fill-rule="nonzero"/><path fill="#ff9b24" d="M 0 0.140625 L 418.5 0.140625 L 418.5 297.359375 L 0 297.359375 Z M 0 0.140625 " fill-opacity="1" fill-rule="nonzero"/></g><g clip-path="url(#id2)"><path fill="#bf501f" d="M 86.144531 157.730469 C 86.144531 157.730469 85.246094 190.277344 86.53125 196.121094 C 88.308594 204.199219 116.324219 217.253906 140.285156 227.25 C 164.25 237.238281 230.074219 249.816406 260.6875 240.207031 C 291.304688 230.597656 319.082031 215.910156 325.03125 189.960938 C 330.972656 164.007812 333.644531 110.363281 321.480469 94.371094 C 309.316406 78.375 105.324219 138.632812 86.144531 157.730469 " fill-opacity="1" fill-rule="nonzero"/></g><path fill="#b6481f" d="M 324.710938 100.296875 C 322.808594 108.25 319.484375 116.003906 316.988281 124.382812 C 312.585938 139.148438 304.84375 152.789062 300.242188 167.28125 C 300.679688 169.296875 300.71875 171.433594 300.242188 173.574219 C 296.074219 192.332031 285.832031 211.273438 269.050781 221.410156 C 259.640625 227.09375 246.902344 227.242188 236.289062 227.230469 C 224.359375 227.214844 212.4375 227.785156 200.511719 227.382812 C 176.71875 226.574219 156.046875 221.691406 133.605469 214.054688 C 116.453125 208.222656 100.003906 201.605469 86.019531 190.40625 C 86.125 192.988281 86.292969 195.027344 86.53125 196.121094 C 88.308594 204.199219 116.324219 217.253906 140.285156 227.25 C 164.25 237.238281 230.074219 249.816406 260.6875 240.207031 C 291.304688 230.601562 319.082031 215.910156 325.027344 189.960938 C 330.371094 166.621094 333.066406 120.90625 324.710938 100.296875 " fill-opacity="1" fill-rule="nonzero"/><path fill="#f47052" d="M 215.671875 208.820312 C 160.359375 206.601562 98.035156 181.328125 89.582031 169.371094 C 85.847656 164.082031 85.09375 157.867188 87.457031 151.855469 C 91.085938 142.640625 101.960938 134.464844 113.910156 131.980469 C 137.085938 127.160156 162.863281 110.394531 192.726562 80.722656 C 210.570312 62.988281 230.476562 54.429688 251.894531 55.285156 C 269.003906 55.972656 283.253906 62.445312 292.484375 67.253906 C 314.375 78.664062 327.867188 92.800781 327.445312 127.953125 C 327.09375 158.160156 318.035156 194.414062 250.582031 206.710938 C 240.09375 208.621094 228.347656 209.332031 215.671875 208.828125 C 215.671875 208.828125 215.671875 208.828125 215.671875 208.820312 " fill-opacity="1" fill-rule="nonzero"/><path fill="#b12c2b" d="M 289.984375 72.054688 C 270.390625 61.847656 233.65625 47.675781 196.535156 84.5625 C 155.816406 125.027344 129.570312 134.253906 115.007812 137.285156 C 100.453125 140.3125 85.460938 154.15625 93.996094 166.238281 C 102.535156 178.324219 188.707031 212.484375 249.609375 201.382812 C 310.515625 190.277344 321.660156 159.84375 322.042969 127.890625 C 322.417969 95.933594 310.890625 82.953125 289.984375 72.054688 " fill-opacity="1" fill-rule="nonzero"/><path fill="#f6846a" d="M 108.628906 152.945312 C 108.628906 152.945312 122.511719 144.359375 141.402344 145.796875 C 160.296875 147.230469 177.085938 133.671875 178.929688 129.855469 C 180.773438 126.039062 173.449219 148.429688 148.714844 149.132812 C 123.980469 149.832031 118.671875 147.25 108.628906 152.945312 " fill-opacity="1" fill-rule="nonzero"/><path fill="#ececea" d="M 279 98.480469 C 279 98.480469 268.320312 94.667969 257.664062 98.980469 C 247 103.296875 246.859375 115.144531 253.089844 120.132812 C 259.320312 125.121094 282.023438 124.339844 285.863281 121.449219 C 289.699219 118.550781 291.960938 104.417969 279 98.480469 " fill-opacity="1" fill-rule="nonzero"/><path fill="#d1d2d0" d="M 276.464844 101.46875 C 276.464844 101.46875 268.484375 98.621094 260.511719 101.84375 C 252.542969 105.066406 252.441406 113.921875 257.097656 117.652344 C 261.757812 121.382812 278.722656 120.800781 281.59375 118.632812 C 284.464844 116.472656 286.148438 105.90625 276.464844 101.46875 " fill-opacity="1" fill-rule="nonzero"/><path fill="#f6846a" d="M 178.511719 164.972656 C 178.511719 164.972656 179.988281 170.984375 194.070312 177.839844 C 208.152344 184.6875 225.027344 181.523438 228.410156 179.363281 C 231.796875 177.207031 211.8125 183.105469 199.074219 177.203125 C 186.328125 171.296875 184.09375 168.125 178.511719 164.972656 " fill-opacity="1" fill-rule="nonzero"/><path fill="#f6846a" d="M 224.992188 65.234375 C 224.992188 65.234375 222.144531 76.109375 215.070312 83.726562 C 207.996094 91.347656 197.96875 93.875 198.390625 100.214844 C 198.8125 106.554688 199.402344 97.910156 205.515625 94.363281 C 211.625 90.816406 222.863281 80.652344 225.566406 75.117188 C 228.269531 69.578125 224.992188 65.234375 224.992188 65.234375 " fill-opacity="1" fill-rule="nonzero"/><path fill="#f6846a" d="M 225.941406 116.449219 C 225.941406 116.449219 234.929688 128.546875 225.195312 134.929688 C 215.46875 141.3125 224.011719 137.367188 229.945312 135.121094 C 235.882812 132.878906 229.875 119.542969 225.941406 116.449219 " fill-opacity="1" fill-rule="nonzero"/><path fill="#f6846a" d="M 310.632812 125.394531 C 310.632812 125.394531 296.179688 147.289062 287.546875 146.011719 C 280.285156 144.9375 260.734375 160.289062 259.636719 164.984375 C 258.550781 169.679688 257.273438 168.726562 266.890625 161.886719 C 276.507812 155.050781 281.683594 149.464844 290.722656 148.546875 C 301.175781 147.488281 310.492188 128.914062 310.632812 125.394531 " fill-opacity="1" fill-rule="nonzero"/></svg>