<svg xmlns="http://www.w3.org/2000/svg" xmlns:xlink="http://www.w3.org/1999/xlink" width="559" zoomAndPan="magnify" viewBox="0 0 419.25 297.749993" height="396" preserveAspectRatio="xMidYMid meet" version="1.0"><defs><clipPath id="id1"><path d="M 0 0.140625 L 418.5 0.140625 L 418.5 297.359375 L 0 297.359375 Z M 0 0.140625 " clip-rule="nonzero"/></clipPath><clipPath id="id2"><path d="M 144 33 L 274 33 L 274 267.175781 L 144 267.175781 Z M 144 33 " clip-rule="nonzero"/></clipPath><clipPath id="id3"><path d="M 170 129 L 258 129 L 258 267.175781 L 170 267.175781 Z M 170 129 " clip-rule="nonzero"/></clipPath><clipPath id="id4"><path d="M 157 85 L 258 85 L 258 267.175781 L 157 267.175781 Z M 157 85 " clip-rule="nonzero"/></clipPath></defs><g clip-path="url(#id1)"><path fill="#99bba2" d="M 0 0.140625 L 418.5 0.140625 L 418.5 297.359375 L 0 297.359375 Z M 0 0.140625 " fill-opacity="1" fill-rule="nonzero"/><path fill="#ffffff" d="M 0 0.140625 L 418.5 0.140625 L 418.5 297.359375 L 0 297.359375 Z M 0 0.140625 " fill-opacity="1" fill-rule="nonzero"/><path fill="#99bba2" d="M 0 0.140625 L 418.5 0.140625 L 418.5 297.359375 L 0 297.359375 Z M 0 0.140625 " fill-opacity="1" fill-rule="nonzero"/></g><g clip-path="url(#id2)"><path fill="#fba982" d="M 244.460938 134.136719 C 244.46875 134.195312 244.476562 134.253906 244.484375 134.3125 C 244.769531 137.246094 244.648438 140.179688 244.289062 143.066406 C 244.289062 143.0625 253.804688 134.902344 256.238281 138.871094 C 257.796875 141.417969 253.265625 146.957031 249.808594 150.605469 C 250.871094 152.027344 251.800781 153.566406 252.476562 155.199219 C 252.601562 155.507812 252.710938 155.816406 252.816406 156.125 C 252.847656 156.222656 252.875 156.320312 252.90625 156.417969 C 252.972656 156.636719 253.039062 156.855469 253.09375 157.078125 C 253.125 157.183594 253.152344 157.292969 253.175781 157.402344 C 253.230469 157.625 253.277344 157.847656 253.320312 158.070312 C 253.339844 158.167969 253.359375 158.261719 253.375 158.359375 C 253.425781 158.648438 253.472656 158.941406 253.507812 159.230469 C 253.511719 159.257812 253.515625 159.285156 253.519531 159.3125 C 253.558594 159.644531 253.589844 159.980469 253.613281 160.3125 C 253.613281 160.359375 253.617188 160.410156 253.617188 160.457031 C 253.636719 160.738281 253.648438 161.019531 253.652344 161.296875 C 253.652344 161.371094 253.652344 161.445312 253.652344 161.519531 C 253.65625 161.785156 253.652344 162.050781 253.644531 162.3125 C 253.644531 162.375 253.644531 162.4375 253.640625 162.5 C 253.628906 162.816406 253.613281 163.132812 253.589844 163.449219 C 253.5625 163.824219 253.523438 164.199219 253.480469 164.566406 C 253.480469 164.585938 253.476562 164.605469 253.472656 164.625 C 253.433594 164.964844 253.386719 165.300781 253.332031 165.636719 C 253.328125 165.667969 253.324219 165.699219 253.316406 165.734375 C 253.203125 166.4375 253.066406 167.121094 252.917969 167.777344 C 252.914062 167.800781 252.90625 167.824219 252.902344 167.84375 C 252.671875 168.835938 252.410156 169.757812 252.144531 170.589844 C 252.140625 170.609375 252.132812 170.625 252.128906 170.644531 C 251.949219 171.195312 251.773438 171.707031 251.601562 172.167969 C 251.601562 172.179688 251.597656 172.1875 251.59375 172.199219 C 251.511719 172.417969 251.429688 172.628906 251.355469 172.824219 C 251.351562 172.835938 251.34375 172.847656 251.339844 172.855469 C 251.183594 173.257812 251.039062 173.605469 250.914062 173.894531 C 250.90625 173.914062 250.902344 173.929688 250.894531 173.945312 C 250.835938 174.078125 250.78125 174.195312 250.734375 174.300781 C 250.734375 174.304688 250.730469 174.308594 250.730469 174.3125 C 250.679688 174.421875 250.636719 174.515625 250.601562 174.59375 C 250.597656 174.601562 250.59375 174.609375 250.589844 174.621094 C 250.5625 174.679688 250.539062 174.730469 250.519531 174.765625 C 250.515625 174.777344 250.511719 174.78125 250.507812 174.789062 C 250.496094 174.816406 250.484375 174.839844 250.484375 174.839844 C 250.484375 174.839844 250.492188 174.847656 250.507812 174.867188 C 250.507812 174.871094 250.507812 174.871094 250.511719 174.875 C 250.523438 174.894531 250.546875 174.921875 250.570312 174.960938 C 250.570312 174.960938 250.574219 174.964844 250.578125 174.96875 C 250.601562 175.007812 250.636719 175.054688 250.671875 175.109375 C 250.675781 175.113281 250.679688 175.121094 250.683594 175.125 C 250.722656 175.183594 250.765625 175.25 250.8125 175.324219 C 250.816406 175.328125 250.820312 175.332031 250.820312 175.332031 C 251.535156 176.425781 253.285156 179.292969 254.855469 183.363281 C 254.867188 183.386719 254.875 183.410156 254.882812 183.429688 C 255.0625 183.898438 255.238281 184.378906 255.414062 184.878906 C 255.421875 184.902344 255.429688 184.929688 255.4375 184.953125 C 255.785156 185.957031 256.113281 187.019531 256.410156 188.132812 C 256.417969 188.171875 256.429688 188.207031 256.4375 188.246094 C 256.578125 188.769531 256.707031 189.308594 256.828125 189.855469 C 256.847656 189.933594 256.863281 190.015625 256.882812 190.097656 C 256.996094 190.628906 257.105469 191.175781 257.203125 191.726562 C 257.21875 191.820312 257.234375 191.914062 257.25 192.007812 C 257.34375 192.570312 257.429688 193.136719 257.503906 193.71875 C 257.511719 193.792969 257.519531 193.867188 257.53125 193.941406 C 257.605469 194.550781 257.667969 195.171875 257.714844 195.800781 C 257.730469 196.046875 257.738281 196.316406 257.742188 196.601562 C 257.742188 196.65625 257.742188 196.710938 257.742188 196.761719 C 257.738281 197.050781 257.734375 197.347656 257.71875 197.667969 C 257.699219 198.074219 257.671875 198.507812 257.628906 198.96875 C 257.625 199 257.625 199.03125 257.621094 199.0625 C 257.589844 199.414062 257.550781 199.777344 257.507812 200.15625 C 257.429688 200.800781 257.335938 201.496094 257.226562 202.21875 C 257.140625 202.765625 257.054688 203.324219 256.953125 203.914062 C 256.949219 203.949219 256.941406 203.984375 256.933594 204.019531 C 256.734375 205.191406 256.492188 206.445312 256.222656 207.757812 C 256.074219 208.488281 255.917969 209.234375 255.75 210.003906 C 255.742188 210.042969 255.734375 210.082031 255.726562 210.121094 C 255.570312 210.832031 255.410156 211.554688 255.238281 212.292969 C 255.238281 212.296875 255.238281 212.304688 255.234375 212.308594 C 254.890625 213.808594 254.515625 215.363281 254.117188 216.953125 C 254.109375 216.984375 254.101562 217.015625 254.09375 217.046875 C 253.898438 217.835938 253.695312 218.636719 253.484375 219.445312 C 253.484375 219.449219 253.484375 219.457031 253.480469 219.460938 C 253.058594 221.097656 252.613281 222.769531 252.152344 224.453125 C 252.148438 224.46875 252.144531 224.484375 252.136719 224.5 C 251.820312 225.660156 251.492188 226.828125 251.160156 228 C 251.109375 228.175781 251.0625 228.355469 251.011719 228.53125 C 250.691406 229.648438 250.367188 230.761719 250.039062 231.878906 C 250.011719 231.980469 249.980469 232.085938 249.949219 232.191406 C 247.226562 241.421875 244.222656 250.492188 241.679688 257.074219 C 241.679688 257.074219 241.675781 257.078125 241.675781 257.078125 C 241.390625 257.816406 241.113281 258.519531 240.839844 259.191406 C 240.835938 259.195312 240.835938 259.203125 240.832031 259.207031 C 240.695312 259.542969 240.5625 259.871094 240.429688 260.1875 C 240.429688 260.1875 240.429688 260.191406 240.429688 260.191406 C 240.296875 260.503906 240.171875 260.804688 240.042969 261.097656 C 240.039062 261.109375 240.035156 261.121094 240.03125 261.132812 C 239.90625 261.414062 239.789062 261.691406 239.667969 261.957031 C 239.660156 261.976562 239.652344 261.992188 239.644531 262.007812 C 239.53125 262.265625 239.417969 262.511719 239.308594 262.753906 C 239.296875 262.777344 239.285156 262.800781 239.273438 262.824219 C 239.167969 263.054688 239.0625 263.273438 238.960938 263.488281 C 238.945312 263.515625 238.929688 263.550781 238.917969 263.578125 C 238.820312 263.78125 238.722656 263.972656 238.628906 264.160156 C 238.609375 264.195312 238.59375 264.230469 238.574219 264.265625 C 238.484375 264.441406 238.398438 264.605469 238.3125 264.765625 C 238.289062 264.804688 238.269531 264.84375 238.25 264.882812 C 238.167969 265.03125 238.085938 265.167969 238.007812 265.304688 C 237.984375 265.34375 237.960938 265.386719 237.941406 265.425781 C 237.863281 265.554688 237.792969 265.667969 237.722656 265.78125 C 237.695312 265.816406 237.671875 265.859375 237.648438 265.898438 C 237.578125 266.003906 237.515625 266.09375 237.449219 266.183594 C 237.421875 266.21875 237.398438 266.261719 237.375 266.292969 C 237.3125 266.375 237.253906 266.445312 237.199219 266.511719 C 237.171875 266.542969 237.144531 266.582031 237.117188 266.609375 C 237.0625 266.671875 237.011719 266.722656 236.960938 266.769531 C 236.933594 266.796875 236.90625 266.824219 236.882812 266.847656 C 236.832031 266.894531 236.78125 266.925781 236.730469 266.957031 C 236.710938 266.96875 236.6875 266.992188 236.667969 267 C 236.597656 267.039062 236.535156 267.0625 236.472656 267.070312 C 235.902344 267.152344 235.226562 267.1875 234.472656 267.195312 C 234.460938 267.195312 234.449219 267.195312 234.4375 267.195312 C 234.125 267.195312 233.800781 267.191406 233.460938 267.183594 C 233.457031 267.183594 233.453125 267.183594 233.449219 267.183594 C 233.113281 267.171875 232.765625 267.15625 232.410156 267.132812 C 232.382812 267.132812 232.359375 267.132812 232.332031 267.128906 C 232 267.109375 231.660156 267.082031 231.3125 267.054688 C 231.257812 267.046875 231.207031 267.042969 231.152344 267.039062 C 230.761719 267.007812 230.363281 266.964844 229.957031 266.921875 C 229.953125 266.921875 229.953125 266.917969 229.949219 266.917969 C 220.417969 265.851562 206.382812 261.914062 206.382812 258.464844 C 206.382812 258.3125 206.402344 258.167969 206.429688 258.023438 C 206.4375 257.976562 206.457031 257.929688 206.46875 257.882812 C 206.496094 257.789062 206.523438 257.691406 206.5625 257.597656 C 206.582031 257.546875 206.609375 257.496094 206.632812 257.445312 C 206.675781 257.359375 206.722656 257.277344 206.773438 257.195312 C 206.804688 257.144531 206.835938 257.09375 206.871094 257.042969 C 206.929688 256.964844 206.996094 256.882812 207.0625 256.804688 C 207.101562 256.757812 207.136719 256.714844 207.179688 256.671875 C 207.261719 256.582031 207.351562 256.496094 207.445312 256.410156 C 207.480469 256.378906 207.507812 256.347656 207.546875 256.316406 C 207.679688 256.203125 207.820312 256.089844 207.972656 255.984375 C 208 255.964844 208.03125 255.945312 208.058594 255.925781 C 208.1875 255.839844 208.316406 255.753906 208.453125 255.667969 C 208.507812 255.636719 208.566406 255.601562 208.625 255.570312 C 208.742188 255.503906 208.859375 255.4375 208.980469 255.371094 C 209.046875 255.335938 209.113281 255.304688 209.179688 255.269531 C 209.304688 255.207031 209.429688 255.148438 209.554688 255.089844 C 209.625 255.058594 209.691406 255.027344 209.761719 254.996094 C 209.898438 254.933594 210.042969 254.875 210.1875 254.8125 C 210.246094 254.789062 210.304688 254.765625 210.363281 254.742188 C 210.558594 254.664062 210.757812 254.589844 210.960938 254.515625 C 210.96875 254.515625 210.976562 254.511719 210.988281 254.507812 C 211.207031 254.429688 211.433594 254.351562 211.660156 254.28125 C 211.6875 254.269531 211.714844 254.261719 211.738281 254.253906 C 211.9375 254.195312 212.132812 254.132812 212.332031 254.074219 C 212.378906 254.0625 212.429688 254.046875 212.480469 254.03125 C 212.660156 253.980469 212.835938 253.929688 213.015625 253.882812 C 213.066406 253.871094 213.117188 253.855469 213.164062 253.84375 C 213.351562 253.796875 213.535156 253.746094 213.722656 253.703125 C 213.757812 253.695312 213.796875 253.683594 213.832031 253.675781 C 214.050781 253.621094 214.269531 253.570312 214.484375 253.523438 C 213.816406 251.796875 213.402344 249.429688 215.71875 248.683594 C 217.597656 248.078125 218.796875 248.863281 219.566406 249.996094 L 222.324219 228.664062 L 223.492188 219.628906 C 223.492188 219.628906 223.476562 219.660156 223.457031 219.703125 C 223.449219 219.722656 223.4375 219.746094 223.425781 219.777344 C 223.410156 219.804688 223.394531 219.839844 223.378906 219.875 C 223.375 219.882812 223.371094 219.894531 223.367188 219.902344 C 223.34375 219.945312 223.324219 219.992188 223.296875 220.046875 C 223.28125 220.082031 223.265625 220.121094 223.246094 220.15625 C 223.222656 220.214844 223.195312 220.269531 223.167969 220.332031 C 223.113281 220.453125 223.046875 220.589844 222.980469 220.738281 C 222.824219 221.074219 222.636719 221.480469 222.414062 221.953125 C 222.378906 222.03125 222.34375 222.109375 222.304688 222.1875 C 222.25 222.304688 222.195312 222.429688 222.136719 222.554688 C 222.109375 222.609375 222.082031 222.667969 222.054688 222.726562 C 221.984375 222.875 221.914062 223.027344 221.839844 223.183594 C 221.808594 223.25 221.78125 223.308594 221.75 223.375 C 221.542969 223.816406 221.320312 224.289062 221.085938 224.792969 C 221.078125 224.804688 221.074219 224.816406 221.066406 224.828125 C 220.957031 225.0625 220.84375 225.300781 220.730469 225.546875 C 220.703125 225.605469 220.671875 225.667969 220.644531 225.730469 C 220.550781 225.921875 220.457031 226.121094 220.363281 226.320312 C 220.320312 226.410156 220.277344 226.5 220.234375 226.589844 C 220.144531 226.78125 220.050781 226.976562 219.957031 227.175781 C 219.914062 227.269531 219.871094 227.359375 219.824219 227.457031 C 219.707031 227.707031 219.582031 227.960938 219.460938 228.222656 C 219.449219 228.246094 219.4375 228.269531 219.425781 228.292969 C 216.089844 235.289062 211.289062 245.097656 207.332031 252.148438 C 207.332031 252.148438 207.332031 252.152344 207.332031 252.152344 C 207.160156 252.457031 206.992188 252.757812 206.824219 253.050781 C 206.785156 253.121094 206.746094 253.1875 206.707031 253.253906 C 206.582031 253.472656 206.457031 253.691406 206.332031 253.902344 C 206.28125 253.992188 206.230469 254.078125 206.179688 254.167969 C 206.066406 254.359375 205.957031 254.546875 205.847656 254.730469 C 205.792969 254.820312 205.742188 254.90625 205.691406 254.992188 C 205.582031 255.175781 205.472656 255.355469 205.367188 255.53125 C 205.320312 255.609375 205.269531 255.691406 205.222656 255.769531 C 205.097656 255.972656 204.976562 256.171875 204.851562 256.367188 C 204.828125 256.410156 204.800781 256.453125 204.773438 256.496094 C 204.625 256.730469 204.480469 256.960938 204.335938 257.179688 C 204.308594 257.222656 204.28125 257.261719 204.253906 257.304688 C 204.144531 257.476562 204.03125 257.644531 203.921875 257.808594 C 203.878906 257.875 203.835938 257.9375 203.789062 258.003906 C 203.699219 258.136719 203.609375 258.265625 203.523438 258.390625 C 203.476562 258.460938 203.429688 258.523438 203.382812 258.589844 C 203.296875 258.707031 203.214844 258.820312 203.132812 258.933594 C 203.089844 258.992188 203.046875 259.050781 203.003906 259.109375 C 202.917969 259.222656 202.832031 259.332031 202.746094 259.441406 C 202.714844 259.480469 202.679688 259.527344 202.648438 259.566406 C 202.535156 259.707031 202.421875 259.839844 202.316406 259.964844 C 202.296875 259.984375 202.28125 260 202.265625 260.015625 C 202.175781 260.117188 202.089844 260.210938 202.007812 260.296875 C 201.972656 260.332031 201.941406 260.363281 201.90625 260.394531 C 201.84375 260.457031 201.777344 260.515625 201.71875 260.570312 C 201.683594 260.601562 201.648438 260.628906 201.617188 260.65625 C 201.558594 260.703125 201.503906 260.742188 201.449219 260.78125 C 201.417969 260.800781 201.386719 260.824219 201.355469 260.84375 C 201.300781 260.875 201.25 260.902344 201.199219 260.925781 C 201.175781 260.933594 201.148438 260.949219 201.125 260.957031 C 201.054688 260.984375 200.984375 261 200.921875 261.003906 C 200.460938 261.015625 199.746094 260.972656 198.851562 260.875 C 198.847656 260.875 198.84375 260.875 198.835938 260.875 C 198.527344 260.839844 198.195312 260.800781 197.839844 260.757812 C 197.820312 260.753906 197.796875 260.75 197.777344 260.75 C 197.421875 260.703125 197.046875 260.648438 196.652344 260.59375 C 196.644531 260.589844 196.636719 260.589844 196.628906 260.589844 C 196.265625 260.535156 195.886719 260.476562 195.5 260.414062 C 195.390625 260.394531 195.28125 260.375 195.167969 260.359375 C 194.8125 260.300781 194.453125 260.238281 194.078125 260.171875 C 194.039062 260.164062 194 260.15625 193.960938 260.148438 C 184.550781 258.464844 169.859375 254.484375 170.980469 250.007812 C 171.015625 249.863281 171.070312 249.726562 171.136719 249.59375 C 171.160156 249.550781 171.183594 249.511719 171.207031 249.46875 C 171.261719 249.378906 171.320312 249.289062 171.386719 249.203125 C 171.417969 249.160156 171.453125 249.117188 171.488281 249.074219 C 171.5625 248.988281 171.644531 248.90625 171.730469 248.824219 C 171.765625 248.789062 171.800781 248.753906 171.835938 248.722656 C 171.964844 248.609375 172.101562 248.503906 172.253906 248.398438 C 172.273438 248.382812 172.300781 248.371094 172.324219 248.355469 C 172.453125 248.269531 172.59375 248.183594 172.738281 248.101562 C 172.796875 248.070312 172.855469 248.039062 172.917969 248.007812 C 173.039062 247.945312 173.164062 247.882812 173.292969 247.820312 C 173.359375 247.789062 173.421875 247.761719 173.492188 247.730469 C 173.636719 247.667969 173.785156 247.609375 173.9375 247.546875 C 173.992188 247.527344 174.042969 247.507812 174.09375 247.488281 C 174.304688 247.410156 174.519531 247.335938 174.742188 247.265625 C 174.785156 247.25 174.828125 247.238281 174.871094 247.226562 C 175.054688 247.167969 175.238281 247.113281 175.425781 247.0625 C 175.5 247.042969 175.574219 247.023438 175.652344 247.003906 C 175.816406 246.957031 175.984375 246.914062 176.15625 246.875 C 176.230469 246.855469 176.304688 246.839844 176.378906 246.820312 C 176.582031 246.773438 176.789062 246.730469 176.996094 246.6875 C 177.03125 246.679688 177.066406 246.671875 177.101562 246.664062 C 177.355469 246.613281 177.609375 246.5625 177.863281 246.519531 C 177.902344 246.511719 177.9375 246.507812 177.972656 246.5 C 178.1875 246.460938 178.40625 246.425781 178.621094 246.394531 C 178.679688 246.382812 178.742188 246.375 178.800781 246.367188 C 179.007812 246.335938 179.210938 246.304688 179.414062 246.277344 C 179.457031 246.273438 179.503906 246.265625 179.546875 246.257812 C 180.058594 246.191406 180.558594 246.132812 181.039062 246.082031 C 180.527344 244.449219 180.429688 242.503906 182.484375 241.84375 C 184.039062 241.34375 185.128906 241.800781 185.894531 242.613281 L 194.835938 204.714844 C 191.703125 204.175781 189.859375 203.746094 189.859375 203.746094 L 190.449219 170.792969 L 179.128906 175.28125 L 179.878906 168.335938 C 178.453125 169.210938 177 170.074219 175.542969 170.902344 C 175.515625 170.917969 175.492188 170.929688 175.464844 170.945312 C 175.207031 171.089844 174.949219 171.234375 174.691406 171.378906 C 174.636719 171.410156 174.582031 171.441406 174.527344 171.46875 C 174.296875 171.597656 174.066406 171.722656 173.839844 171.847656 C 173.769531 171.886719 173.699219 171.925781 173.628906 171.960938 C 173.417969 172.074219 173.210938 172.1875 173 172.300781 C 172.914062 172.347656 172.828125 172.390625 172.742188 172.4375 C 172.546875 172.539062 172.351562 172.644531 172.15625 172.746094 C 172.0625 172.792969 171.972656 172.839844 171.882812 172.886719 C 171.695312 172.980469 171.507812 173.078125 171.320312 173.171875 C 171.222656 173.222656 171.125 173.269531 171.03125 173.316406 C 170.847656 173.410156 170.667969 173.496094 170.488281 173.585938 C 170.390625 173.632812 170.292969 173.683594 170.195312 173.730469 C 170.019531 173.816406 169.839844 173.898438 169.664062 173.984375 C 169.566406 174.03125 169.46875 174.078125 169.371094 174.121094 C 169.195312 174.203125 169.023438 174.28125 168.851562 174.363281 C 168.753906 174.40625 168.65625 174.453125 168.558594 174.496094 C 168.382812 174.574219 168.214844 174.648438 168.042969 174.722656 C 167.949219 174.765625 167.855469 174.804688 167.761719 174.847656 C 167.582031 174.921875 167.410156 174.996094 167.234375 175.066406 C 167.148438 175.101562 167.0625 175.140625 166.976562 175.175781 C 166.792969 175.25 166.609375 175.324219 166.425781 175.394531 C 166.351562 175.421875 166.28125 175.453125 166.210938 175.480469 C 165.972656 175.570312 165.738281 175.660156 165.507812 175.742188 C 165.492188 175.746094 165.476562 175.753906 165.460938 175.757812 C 165.210938 175.851562 164.964844 175.933594 164.722656 176.015625 C 164.679688 176.03125 164.636719 176.042969 164.589844 176.058594 C 164.398438 176.121094 164.203125 176.183594 164.011719 176.242188 C 163.9375 176.265625 163.859375 176.285156 163.785156 176.308594 C 163.628906 176.351562 163.476562 176.398438 163.328125 176.4375 C 163.238281 176.460938 163.152344 176.480469 163.066406 176.503906 C 162.929688 176.539062 162.792969 176.574219 162.664062 176.605469 C 162.570312 176.625 162.484375 176.644531 162.394531 176.664062 C 162.269531 176.691406 162.144531 176.714844 162.019531 176.738281 C 161.929688 176.757812 161.839844 176.773438 161.75 176.785156 C 161.636719 176.808594 161.519531 176.824219 161.40625 176.84375 C 161.316406 176.855469 161.230469 176.867188 161.140625 176.875 C 161.03125 176.890625 160.921875 176.902344 160.816406 176.910156 C 160.730469 176.917969 160.644531 176.925781 160.5625 176.929688 C 160.457031 176.9375 160.355469 176.941406 160.253906 176.945312 C 160.171875 176.945312 160.09375 176.949219 160.011719 176.945312 C 159.914062 176.945312 159.816406 176.945312 159.722656 176.941406 C 159.644531 176.9375 159.570312 176.933594 159.492188 176.925781 C 159.402344 176.917969 159.308594 176.910156 159.222656 176.898438 C 159.148438 176.886719 159.078125 176.878906 159.007812 176.867188 C 158.921875 176.851562 158.835938 176.832031 158.75 176.8125 C 158.6875 176.800781 158.621094 176.785156 158.554688 176.765625 C 158.472656 176.746094 158.394531 176.714844 158.316406 176.6875 C 158.257812 176.667969 158.195312 176.648438 158.140625 176.625 C 158.058594 176.59375 157.984375 176.554688 157.910156 176.519531 C 157.859375 176.492188 157.808594 176.46875 157.757812 176.441406 C 157.679688 176.398438 157.605469 176.34375 157.53125 176.292969 C 157.492188 176.265625 157.453125 176.242188 157.417969 176.214844 C 157.308594 176.128906 157.207031 176.039062 157.113281 175.941406 C 149.296875 167.703125 161.832031 147.992188 161.832031 147.992188 C 161.832031 147.992188 151.507812 141.078125 151.507812 136.960938 C 151.507812 132.839844 161.539062 136.664062 161.539062 136.664062 C 161.46875 136.527344 161.40625 136.386719 161.335938 136.25 C 155.621094 129.796875 152.367188 121.722656 151.285156 113.113281 C 147.28125 108.351562 142.957031 99.527344 145.3125 84.589844 C 149.445312 58.40625 174.519531 41.34375 209.625 45.460938 C 209.625 45.460938 201.363281 38.109375 208.445312 33.988281 C 215.523438 29.871094 220.246094 45.460938 220.246094 45.460938 C 220.246094 45.460938 220.539062 32.222656 227.914062 33.695312 C 235.289062 35.164062 230.570312 48.699219 230.570312 48.699219 C 230.570312 48.699219 253.285156 52.523438 263.019531 73.707031 C 266.800781 81.933594 266.550781 92.011719 265.023438 100.875 C 265.847656 101.160156 266.683594 101.519531 267.53125 101.976562 C 275.535156 106.308594 275.945312 118.730469 268.785156 125.722656 C 260.226562 134.085938 247.582031 134.234375 244.460938 134.136719 Z M 244.460938 134.136719 " fill-opacity="1" fill-rule="nonzero"/></g><g clip-path="url(#id3)"><path fill="#ec6459" d="M 220.734375 253.023438 L 229.949219 266.921875 C 220.417969 265.851562 206.382812 261.917969 206.382812 258.464844 C 206.382812 258.316406 206.398438 258.167969 206.429688 258.023438 C 206.4375 257.976562 206.453125 257.929688 206.46875 257.882812 C 206.492188 257.789062 206.523438 257.691406 206.558594 257.601562 C 206.582031 257.546875 206.605469 257.496094 206.632812 257.445312 C 206.675781 257.363281 206.71875 257.277344 206.773438 257.195312 C 206.804688 257.144531 206.835938 257.09375 206.871094 257.046875 C 206.929688 256.964844 206.992188 256.882812 207.0625 256.804688 C 207.097656 256.757812 207.136719 256.714844 207.175781 256.671875 C 207.261719 256.582031 207.351562 256.496094 207.445312 256.410156 C 207.476562 256.378906 207.507812 256.347656 207.542969 256.316406 C 207.675781 256.203125 207.820312 256.09375 207.96875 255.984375 C 208 255.964844 208.03125 255.945312 208.058594 255.925781 C 208.183594 255.839844 208.316406 255.753906 208.453125 255.671875 C 208.507812 255.636719 208.566406 255.601562 208.625 255.570312 C 208.742188 255.503906 208.859375 255.4375 208.980469 255.371094 C 209.046875 255.335938 209.113281 255.304688 209.179688 255.269531 C 209.304688 255.207031 209.429688 255.148438 209.554688 255.089844 C 209.625 255.058594 209.691406 255.027344 209.757812 254.996094 C 209.898438 254.933594 210.042969 254.875 210.1875 254.816406 C 210.246094 254.792969 210.304688 254.765625 210.363281 254.742188 C 210.558594 254.667969 210.757812 254.589844 210.960938 254.519531 C 210.96875 254.515625 210.976562 254.511719 210.984375 254.507812 C 211.207031 254.429688 211.433594 254.351562 211.660156 254.28125 C 211.6875 254.273438 211.714844 254.265625 211.738281 254.257812 C 211.933594 254.195312 212.132812 254.132812 212.328125 254.074219 C 212.378906 254.0625 212.429688 254.046875 212.480469 254.03125 C 212.65625 253.980469 212.835938 253.929688 213.015625 253.882812 C 213.066406 253.871094 213.113281 253.855469 213.164062 253.84375 C 213.351562 253.796875 213.535156 253.75 213.71875 253.703125 C 213.757812 253.695312 213.792969 253.683594 213.832031 253.675781 C 214.050781 253.625 214.269531 253.574219 214.484375 253.523438 C 213.816406 251.796875 213.402344 249.429688 215.71875 248.683594 C 217.59375 248.078125 218.796875 248.867188 219.566406 250 C 220.226562 250.96875 220.566406 252.1875 220.734375 253.023438 Z M 233.457031 267.183594 C 233.796875 267.191406 234.121094 267.195312 234.4375 267.195312 C 234.121094 267.195312 233.796875 267.191406 233.457031 267.183594 Z M 234.46875 267.195312 C 234.457031 267.195312 234.449219 267.195312 234.4375 267.195312 C 234.449219 267.195312 234.460938 267.195312 234.46875 267.195312 Z M 225.558594 253.957031 L 234.46875 267.195312 C 235.222656 267.1875 235.902344 267.152344 236.472656 267.070312 C 236.53125 267.0625 236.597656 267.039062 236.664062 267 C 236.6875 266.992188 236.707031 266.96875 236.730469 266.957031 C 236.78125 266.925781 236.828125 266.894531 236.882812 266.847656 C 236.90625 266.828125 236.933594 266.796875 236.957031 266.773438 C 237.011719 266.722656 237.0625 266.671875 237.117188 266.613281 C 237.140625 266.582031 237.167969 266.546875 237.195312 266.511719 C 237.253906 266.445312 237.3125 266.375 237.371094 266.292969 C 237.394531 266.261719 237.421875 266.21875 237.445312 266.1875 C 237.511719 266.09375 237.578125 266.003906 237.644531 265.898438 C 237.667969 265.863281 237.695312 265.820312 237.71875 265.78125 C 237.789062 265.667969 237.863281 265.554688 237.9375 265.425781 C 237.960938 265.390625 237.984375 265.34375 238.007812 265.304688 C 238.085938 265.171875 238.164062 265.03125 238.246094 264.882812 C 238.265625 264.84375 238.289062 264.804688 238.308594 264.765625 C 238.394531 264.605469 238.484375 264.441406 238.574219 264.265625 C 238.589844 264.230469 238.609375 264.195312 238.625 264.164062 C 238.71875 263.976562 238.816406 263.78125 238.914062 263.578125 C 238.929688 263.550781 238.945312 263.519531 238.960938 263.488281 C 239.0625 263.273438 239.167969 263.054688 239.273438 262.828125 C 239.285156 262.800781 239.296875 262.777344 239.304688 262.753906 C 239.417969 262.515625 239.53125 262.265625 239.644531 262.007812 C 239.652344 261.992188 239.660156 261.976562 239.667969 261.957031 C 239.785156 261.691406 239.90625 261.417969 240.027344 261.132812 C 240.035156 261.121094 240.039062 261.109375 240.042969 261.097656 C 240.167969 260.804688 240.296875 260.503906 240.425781 260.191406 C 240.425781 260.191406 240.429688 260.191406 240.429688 260.1875 C 240.5625 259.871094 240.695312 259.542969 240.832031 259.210938 C 240.832031 259.203125 240.835938 259.195312 240.839844 259.191406 C 241.109375 258.519531 241.390625 257.816406 241.675781 257.078125 C 241.675781 257.078125 241.675781 257.074219 241.675781 257.074219 Z M 198.855469 260.875 C 198.847656 260.875 198.84375 260.875 198.839844 260.875 C 198.84375 260.875 198.851562 260.875 198.855469 260.875 Z M 197.84375 260.757812 C 198.195312 260.800781 198.527344 260.84375 198.839844 260.875 C 198.527344 260.839844 198.195312 260.800781 197.84375 260.757812 Z M 206.824219 253.050781 C 206.992188 252.757812 207.164062 252.457031 207.332031 252.152344 C 207.332031 252.152344 207.335938 252.148438 207.335938 252.148438 L 187.5625 246.503906 L 192.757812 247.988281 L 198.855469 260.875 C 199.75 260.972656 200.464844 261.015625 200.925781 261.003906 C 200.988281 261 201.054688 260.984375 201.128906 260.957031 C 201.152344 260.949219 201.175781 260.9375 201.199219 260.925781 C 201.25 260.902344 201.304688 260.875 201.359375 260.84375 C 201.390625 260.824219 201.421875 260.800781 201.453125 260.78125 C 201.503906 260.742188 201.5625 260.703125 201.617188 260.65625 C 201.652344 260.628906 201.683594 260.601562 201.71875 260.570312 C 201.78125 260.515625 201.84375 260.457031 201.910156 260.394531 C 201.941406 260.363281 201.976562 260.332031 202.007812 260.296875 C 202.09375 260.210938 202.179688 260.117188 202.269531 260.019531 C 202.285156 260 202.300781 259.984375 202.316406 259.964844 C 202.425781 259.839844 202.535156 259.707031 202.652344 259.566406 C 202.683594 259.527344 202.714844 259.480469 202.75 259.441406 C 202.832031 259.335938 202.917969 259.222656 203.007812 259.109375 C 203.050781 259.050781 203.09375 258.992188 203.136719 258.933594 C 203.21875 258.820312 203.300781 258.707031 203.386719 258.589844 C 203.429688 258.523438 203.476562 258.460938 203.523438 258.394531 C 203.613281 258.265625 203.703125 258.136719 203.792969 258.003906 C 203.835938 257.9375 203.878906 257.875 203.925781 257.808594 C 204.035156 257.648438 204.144531 257.476562 204.257812 257.304688 C 204.285156 257.261719 204.3125 257.222656 204.339844 257.179688 C 204.480469 256.960938 204.628906 256.730469 204.777344 256.496094 C 204.800781 256.453125 204.828125 256.410156 204.855469 256.367188 C 204.976562 256.171875 205.101562 255.972656 205.226562 255.769531 C 205.273438 255.691406 205.320312 255.613281 205.367188 255.53125 C 205.476562 255.355469 205.582031 255.175781 205.691406 254.992188 C 205.746094 254.90625 205.796875 254.820312 205.847656 254.730469 C 205.957031 254.546875 206.070312 254.359375 206.179688 254.167969 C 206.234375 254.078125 206.285156 253.992188 206.335938 253.902344 C 206.457031 253.691406 206.582031 253.472656 206.707031 253.253906 C 206.746094 253.1875 206.785156 253.121094 206.824219 253.050781 Z M 195.171875 260.359375 C 194.816406 260.300781 194.453125 260.238281 194.082031 260.171875 C 194.453125 260.238281 194.816406 260.300781 195.171875 260.359375 Z M 182.488281 241.84375 C 180.429688 242.503906 180.527344 244.445312 181.039062 246.082031 C 180.5625 246.132812 180.0625 246.191406 179.550781 246.257812 C 179.503906 246.265625 179.460938 246.269531 179.414062 246.277344 C 179.210938 246.304688 179.007812 246.335938 178.804688 246.363281 C 178.742188 246.375 178.683594 246.382812 178.621094 246.390625 C 178.40625 246.425781 178.191406 246.460938 177.976562 246.5 C 177.9375 246.503906 177.902344 246.511719 177.867188 246.519531 C 177.613281 246.5625 177.355469 246.613281 177.105469 246.664062 C 177.066406 246.671875 177.03125 246.679688 176.996094 246.6875 C 176.789062 246.730469 176.582031 246.773438 176.378906 246.820312 C 176.304688 246.839844 176.230469 246.855469 176.160156 246.875 C 175.988281 246.914062 175.820312 246.957031 175.652344 247 C 175.578125 247.019531 175.503906 247.039062 175.429688 247.0625 C 175.238281 247.113281 175.054688 247.167969 174.871094 247.222656 C 174.828125 247.238281 174.785156 247.25 174.742188 247.261719 C 174.523438 247.332031 174.304688 247.40625 174.097656 247.484375 C 174.042969 247.503906 173.992188 247.527344 173.941406 247.546875 C 173.789062 247.605469 173.636719 247.667969 173.492188 247.730469 C 173.425781 247.761719 173.359375 247.789062 173.292969 247.820312 C 173.164062 247.878906 173.039062 247.941406 172.917969 248.007812 C 172.859375 248.039062 172.796875 248.066406 172.742188 248.101562 C 172.59375 248.183594 172.457031 248.265625 172.324219 248.355469 C 172.300781 248.371094 172.277344 248.382812 172.253906 248.398438 C 172.105469 248.5 171.96875 248.609375 171.839844 248.722656 C 171.800781 248.753906 171.769531 248.789062 171.734375 248.820312 C 171.644531 248.902344 171.566406 248.988281 171.488281 249.074219 C 171.453125 249.117188 171.421875 249.160156 171.386719 249.203125 C 171.320312 249.289062 171.261719 249.378906 171.210938 249.46875 C 171.1875 249.511719 171.160156 249.550781 171.140625 249.59375 C 171.074219 249.726562 171.015625 249.863281 170.980469 250.007812 C 169.859375 254.484375 184.554688 258.464844 193.960938 260.148438 L 187.5625 246.503906 C 187.398438 245.550781 186.957031 243.738281 185.898438 242.613281 C 185.128906 241.800781 184.039062 241.34375 182.488281 241.84375 Z M 195.5 260.414062 C 195.890625 260.476562 196.269531 260.535156 196.628906 260.589844 C 196.269531 260.535156 195.890625 260.476562 195.5 260.414062 Z M 195.5 260.414062 C 195.390625 260.394531 195.28125 260.375 195.171875 260.359375 C 195.28125 260.375 195.390625 260.394531 195.5 260.414062 Z M 194.082031 260.171875 C 194.039062 260.164062 194 260.15625 193.960938 260.148438 L 193.960938 260.152344 C 194.003906 260.15625 194.039062 260.164062 194.082031 260.171875 Z M 194.839844 204.714844 L 190.15625 224.554688 L 219.425781 228.292969 C 219.4375 228.269531 219.449219 228.246094 219.460938 228.222656 C 219.585938 227.960938 219.707031 227.707031 219.828125 227.457031 C 219.871094 227.359375 219.914062 227.269531 219.960938 227.175781 C 220.054688 226.976562 220.144531 226.78125 220.238281 226.589844 C 220.28125 226.5 220.320312 226.410156 220.363281 226.320312 C 220.460938 226.121094 220.554688 225.921875 220.644531 225.730469 C 220.671875 225.667969 220.703125 225.605469 220.730469 225.546875 C 220.847656 225.300781 220.960938 225.0625 221.070312 224.828125 C 221.074219 224.816406 221.082031 224.804688 221.085938 224.792969 C 221.324219 224.289062 221.542969 223.816406 221.753906 223.375 C 221.78125 223.3125 221.8125 223.25 221.839844 223.183594 C 221.914062 223.027344 221.988281 222.875 222.054688 222.726562 C 222.082031 222.667969 222.109375 222.613281 222.136719 222.554688 C 222.195312 222.429688 222.25 222.308594 222.308594 222.1875 C 222.34375 222.109375 222.378906 222.03125 222.417969 221.953125 C 222.734375 221.273438 222.988281 220.726562 223.167969 220.332031 C 223.199219 220.269531 223.222656 220.214844 223.25 220.160156 C 223.265625 220.121094 223.285156 220.082031 223.300781 220.050781 C 223.324219 219.992188 223.347656 219.945312 223.367188 219.902344 C 223.371094 219.894531 223.375 219.882812 223.378906 219.875 C 223.394531 219.839844 223.414062 219.804688 223.425781 219.777344 C 223.441406 219.746094 223.449219 219.726562 223.457031 219.703125 C 223.480469 219.660156 223.492188 219.632812 223.492188 219.632812 L 222.324219 228.664062 L 249.949219 232.191406 C 250.707031 229.621094 251.441406 227.042969 252.140625 224.5 C 252.144531 224.484375 252.148438 224.472656 252.152344 224.457031 C 252.613281 222.769531 253.058594 221.097656 253.480469 219.460938 C 253.484375 219.457031 253.484375 219.453125 253.484375 219.445312 C 253.695312 218.636719 253.898438 217.835938 254.097656 217.046875 C 254.105469 217.015625 254.109375 216.984375 254.117188 216.957031 C 254.515625 215.363281 254.890625 213.808594 255.234375 212.308594 C 255.238281 212.304688 255.238281 212.300781 255.238281 212.292969 C 255.410156 211.554688 255.570312 210.832031 255.726562 210.121094 C 255.734375 210.082031 255.742188 210.042969 255.753906 210.003906 C 256.21875 207.859375 256.621094 205.847656 256.9375 204.019531 C 256.941406 203.984375 256.949219 203.949219 256.953125 203.914062 C 257.265625 202.097656 257.492188 200.464844 257.621094 199.0625 C 257.625 199.03125 257.625 199 257.628906 198.96875 C 257.671875 198.511719 257.703125 198.074219 257.71875 197.667969 C 237.980469 210.46875 206.867188 206.785156 194.839844 204.714844 Z M 193.664062 141.03125 C 193.863281 141.074219 194.0625 141.109375 194.265625 141.136719 C 194.359375 141.148438 194.453125 141.164062 194.550781 141.175781 C 194.820312 141.203125 195.09375 141.21875 195.371094 141.21875 C 195.453125 141.21875 195.535156 141.21875 195.617188 141.21875 C 195.910156 141.214844 196.210938 141.195312 196.511719 141.15625 C 196.570312 141.148438 196.625 141.136719 196.683594 141.128906 C 197.011719 141.082031 197.34375 141.019531 197.679688 140.929688 C 198.105469 140.816406 198.503906 140.6875 198.890625 140.550781 C 199.007812 140.507812 199.117188 140.464844 199.234375 140.417969 C 199.496094 140.316406 199.753906 140.207031 199.996094 140.09375 C 200.109375 140.042969 200.222656 139.988281 200.332031 139.933594 C 200.585938 139.804688 200.828125 139.667969 201.0625 139.527344 C 201.128906 139.488281 201.203125 139.449219 201.269531 139.40625 C 201.558594 139.222656 201.828125 139.027344 202.082031 138.828125 C 202.148438 138.773438 202.207031 138.71875 202.273438 138.664062 C 202.457031 138.511719 202.632812 138.351562 202.796875 138.191406 C 202.871094 138.117188 202.945312 138.042969 203.015625 137.96875 C 203.167969 137.808594 203.308594 137.648438 203.441406 137.480469 C 203.496094 137.414062 203.554688 137.347656 203.609375 137.277344 C 203.785156 137.042969 203.953125 136.808594 204.101562 136.566406 C 204.117188 136.542969 204.128906 136.519531 204.140625 136.496094 C 204.277344 136.273438 204.398438 136.046875 204.511719 135.816406 C 204.546875 135.742188 204.582031 135.664062 204.617188 135.585938 C 204.699219 135.398438 204.777344 135.214844 204.851562 135.027344 C 204.878906 134.949219 204.910156 134.871094 204.9375 134.796875 C 205.015625 134.570312 205.085938 134.339844 205.148438 134.113281 C 205.15625 134.082031 205.167969 134.050781 205.175781 134.019531 C 205.246094 133.75 205.304688 133.480469 205.351562 133.210938 C 205.363281 133.164062 205.367188 133.113281 205.375 133.066406 C 205.414062 132.84375 205.445312 132.621094 205.46875 132.402344 C 205.476562 132.339844 205.484375 132.28125 205.488281 132.21875 C 205.511719 131.988281 205.527344 131.757812 205.539062 131.527344 C 205.539062 131.5 205.542969 131.46875 205.542969 131.441406 C 205.566406 130.898438 205.554688 130.367188 205.519531 129.859375 C 205.519531 129.84375 205.519531 129.828125 205.515625 129.8125 C 205.5 129.5625 205.476562 129.316406 205.449219 129.078125 C 202.546875 129.65625 197.589844 131.054688 195.171875 134.164062 C 193.566406 136.230469 193 138.71875 192.847656 140.820312 C 192.847656 140.824219 192.847656 140.828125 192.847656 140.828125 C 192.976562 140.867188 193.101562 140.898438 193.230469 140.933594 C 193.375 140.96875 193.519531 141 193.664062 141.03125 Z M 193.664062 141.03125 " fill-opacity="1" fill-rule="nonzero"/></g><g clip-path="url(#id4)"><path fill="#ffffff" d="M 225.558594 253.957031 L 234.46875 267.195312 C 234.148438 267.195312 233.808594 267.191406 233.457031 267.183594 C 233.453125 267.183594 233.453125 267.183594 233.449219 267.183594 C 233.113281 267.171875 232.765625 267.15625 232.410156 267.132812 C 232.382812 267.132812 232.355469 267.132812 232.328125 267.128906 C 232 267.109375 231.65625 267.082031 231.308594 267.054688 C 231.257812 267.050781 231.203125 267.046875 231.148438 267.039062 C 230.761719 267.007812 230.363281 266.964844 229.953125 266.921875 C 229.953125 266.921875 229.949219 266.921875 229.949219 266.921875 L 220.734375 253.023438 Z M 187.5625 246.503906 L 193.960938 260.148438 C 194.914062 260.320312 195.808594 260.46875 196.628906 260.589844 C 196.636719 260.589844 196.644531 260.589844 196.652344 260.59375 C 197.046875 260.648438 197.421875 260.703125 197.777344 260.75 C 197.800781 260.75 197.820312 260.753906 197.84375 260.757812 C 198.199219 260.800781 198.539062 260.84375 198.855469 260.875 L 192.757812 247.988281 Z M 250.519531 174.765625 C 250.535156 174.730469 250.5625 174.679688 250.589844 174.621094 C 250.59375 174.609375 250.597656 174.601562 250.601562 174.59375 C 250.636719 174.515625 250.679688 174.421875 250.730469 174.3125 C 250.730469 174.308594 250.734375 174.304688 250.734375 174.300781 C 250.78125 174.195312 250.835938 174.078125 250.890625 173.945312 C 250.898438 173.929688 250.90625 173.914062 250.914062 173.894531 C 251.039062 173.605469 251.183594 173.257812 251.339844 172.855469 C 251.34375 172.847656 251.347656 172.835938 251.351562 172.824219 C 251.429688 172.628906 251.507812 172.417969 251.589844 172.199219 C 251.59375 172.1875 251.597656 172.179688 251.601562 172.167969 C 251.773438 171.707031 251.949219 171.195312 252.125 170.644531 C 252.132812 170.625 252.136719 170.609375 252.144531 170.589844 C 252.410156 169.757812 252.671875 168.835938 252.902344 167.84375 C 252.90625 167.820312 252.910156 167.800781 252.917969 167.777344 C 253.066406 167.121094 253.203125 166.4375 253.316406 165.734375 C 253.320312 165.699219 253.328125 165.667969 253.332031 165.636719 C 253.382812 165.300781 253.433594 164.964844 253.472656 164.625 C 253.476562 164.605469 253.476562 164.585938 253.480469 164.566406 C 253.523438 164.199219 253.5625 163.824219 253.589844 163.449219 C 253.613281 163.132812 253.628906 162.816406 253.640625 162.5 C 253.644531 162.4375 253.644531 162.375 253.644531 162.3125 C 253.652344 162.050781 253.65625 161.785156 253.652344 161.519531 C 253.652344 161.445312 253.652344 161.371094 253.652344 161.296875 C 253.644531 161.019531 253.632812 160.738281 253.617188 160.457031 C 253.617188 160.410156 253.613281 160.359375 253.609375 160.3125 C 253.589844 159.980469 253.558594 159.644531 253.519531 159.3125 C 253.515625 159.285156 253.511719 159.257812 253.507812 159.230469 C 253.472656 158.941406 253.425781 158.648438 253.375 158.359375 C 253.359375 158.261719 253.339844 158.167969 253.320312 158.070312 C 253.277344 157.847656 253.230469 157.625 253.175781 157.402344 C 253.148438 157.292969 253.121094 157.183594 253.09375 157.078125 C 253.035156 156.855469 252.972656 156.636719 252.90625 156.417969 C 252.875 156.320312 252.847656 156.222656 252.816406 156.125 C 252.710938 155.816406 252.601562 155.503906 252.472656 155.199219 C 251.800781 153.566406 250.871094 152.027344 249.808594 150.605469 C 247.875 152.644531 246.28125 154.097656 246.28125 154.097656 L 250.484375 174.839844 C 250.484375 174.839844 250.496094 174.816406 250.507812 174.789062 C 250.511719 174.78125 250.515625 174.777344 250.519531 174.765625 Z M 257.738281 196.601562 C 257.738281 196.316406 257.730469 196.046875 257.710938 195.800781 C 257.664062 195.171875 257.601562 194.550781 257.527344 193.941406 C 257.519531 193.867188 257.511719 193.792969 257.503906 193.71875 C 257.429688 193.136719 257.34375 192.570312 257.25 192.007812 C 257.234375 191.914062 257.21875 191.820312 257.199219 191.726562 C 257.101562 191.175781 256.996094 190.632812 256.878906 190.097656 C 256.863281 190.015625 256.84375 189.933594 256.828125 189.855469 C 256.703125 189.308594 256.574219 188.769531 256.4375 188.246094 C 256.429688 188.207031 256.417969 188.171875 256.40625 188.132812 C 256.113281 187.019531 255.785156 185.957031 255.4375 184.957031 C 255.429688 184.929688 255.421875 184.902344 255.410156 184.878906 C 255.238281 184.378906 255.0625 183.898438 254.882812 183.433594 C 254.875 183.410156 254.863281 183.386719 254.855469 183.363281 C 253.285156 179.292969 251.535156 176.425781 250.820312 175.332031 C 250.816406 175.332031 250.816406 175.328125 250.8125 175.324219 C 250.765625 175.25 250.71875 175.183594 250.679688 175.125 C 250.679688 175.121094 250.675781 175.113281 250.671875 175.109375 C 250.632812 175.054688 250.601562 175.007812 250.574219 174.96875 C 250.574219 174.964844 250.570312 174.960938 250.570312 174.960938 C 250.542969 174.921875 250.523438 174.894531 250.507812 174.875 C 250.507812 174.871094 250.507812 174.871094 250.503906 174.867188 C 250.492188 174.847656 250.484375 174.839844 250.484375 174.839844 C 250.484375 174.839844 244.222656 183.671875 235.4375 181.238281 C 223.492188 177.925781 225.484375 158.289062 225.484375 158.289062 C 225.484375 158.289062 221.847656 154.800781 218.347656 150.660156 C 218.351562 150.664062 218.355469 150.667969 218.359375 150.675781 C 218.222656 150.53125 218.089844 150.378906 217.953125 150.234375 C 206.3125 153.578125 193.566406 153.542969 182.035156 149.589844 L 181.898438 149.609375 L 179.878906 168.335938 L 179.128906 175.28125 L 190.449219 170.792969 L 189.863281 203.746094 C 189.863281 203.746094 191.703125 204.175781 194.839844 204.714844 C 206.867188 206.785156 237.980469 210.46875 257.71875 197.667969 C 257.734375 197.347656 257.738281 197.050781 257.738281 196.765625 C 257.738281 196.710938 257.738281 196.65625 257.738281 196.601562 Z M 216.042969 121.464844 C 224.464844 120.808594 230.714844 112.886719 230 103.773438 C 229.285156 94.664062 221.875 87.808594 213.453125 88.464844 C 212.675781 88.527344 211.921875 88.667969 211.183594 88.851562 C 211.925781 88.71875 212.683594 88.636719 213.460938 88.636719 C 220.546875 88.636719 226.292969 94.367188 226.292969 101.433594 C 226.292969 108.503906 220.546875 114.234375 213.460938 114.234375 C 206.375 114.234375 200.628906 108.503906 200.628906 101.433594 C 200.628906 99.261719 201.175781 97.21875 202.132812 95.425781 C 200.195312 98.441406 199.183594 102.183594 199.496094 106.15625 C 200.210938 115.265625 207.617188 122.121094 216.042969 121.464844 Z M 172.898438 86.0625 C 174.488281 86.0625 176 86.363281 177.40625 86.890625 C 176.738281 86.601562 176.054688 86.34375 175.328125 86.164062 C 167.628906 84.222656 159.675781 89.40625 157.566406 97.738281 C 155.460938 106.070312 159.992188 114.394531 167.695312 116.332031 C 170.457031 117.027344 173.246094 116.792969 175.789062 115.839844 C 175.40625 114.960938 175.113281 114.003906 175.054688 112.921875 C 175.039062 112.449219 175.089844 111.945312 175.230469 111.4375 C 174.472656 111.574219 173.695312 111.65625 172.898438 111.65625 C 165.8125 111.65625 160.066406 105.929688 160.066406 98.859375 C 160.066406 91.792969 165.8125 86.0625 172.898438 86.0625 Z M 183.746094 108.988281 C 184.484375 107.699219 185.070312 106.28125 185.457031 104.757812 C 186.078125 102.300781 186.109375 99.847656 185.664062 97.554688 C 185.707031 97.984375 185.730469 98.421875 185.730469 98.859375 C 185.730469 102.644531 184.074219 106.035156 181.453125 108.378906 C 181.90625 108.445312 182.351562 108.539062 182.78125 108.652344 C 183.113281 108.75 183.429688 108.871094 183.746094 108.988281 Z M 183.746094 108.988281 " fill-opacity="1" fill-rule="nonzero"/></g><path fill="#342d2a" d="M 205.148438 134.113281 C 205.085938 134.339844 205.015625 134.566406 204.9375 134.796875 C 205.015625 134.570312 205.085938 134.339844 205.148438 134.113281 Z M 202.082031 138.828125 C 201.828125 139.027344 201.558594 139.222656 201.269531 139.40625 C 201.558594 139.222656 201.828125 139.027344 202.082031 138.828125 Z M 195.371094 141.21875 C 195.453125 141.21875 195.535156 141.21875 195.617188 141.21875 C 195.535156 141.21875 195.453125 141.21875 195.371094 141.21875 Z M 202.796875 138.191406 C 202.632812 138.351562 202.457031 138.511719 202.273438 138.664062 C 202.457031 138.511719 202.632812 138.351562 202.796875 138.191406 Z M 193.664062 141.03125 C 193.519531 141.003906 193.375 140.96875 193.230469 140.929688 C 193.375 140.96875 193.519531 141.003906 193.664062 141.03125 Z M 194.265625 141.136719 C 194.359375 141.148438 194.453125 141.164062 194.550781 141.175781 C 194.453125 141.164062 194.359375 141.148438 194.265625 141.136719 Z M 196.683594 141.128906 C 196.625 141.136719 196.570312 141.148438 196.511719 141.15625 C 196.570312 141.148438 196.625 141.136719 196.683594 141.128906 Z M 203.441406 137.480469 C 203.308594 137.648438 203.167969 137.808594 203.015625 137.96875 C 203.167969 137.808594 203.308594 137.648438 203.441406 137.480469 Z M 201.0625 139.527344 C 200.828125 139.667969 200.585938 139.804688 200.328125 139.933594 C 200.585938 139.804688 200.828125 139.667969 201.0625 139.527344 Z M 197.679688 140.929688 C 198.105469 140.816406 198.503906 140.6875 198.890625 140.550781 C 198.503906 140.6875 198.105469 140.816406 197.679688 140.929688 Z M 199.996094 140.09375 C 199.753906 140.207031 199.496094 140.316406 199.234375 140.417969 C 199.496094 140.316406 199.753906 140.207031 199.996094 140.09375 Z M 203.609375 137.277344 C 203.785156 137.042969 203.953125 136.808594 204.101562 136.566406 C 203.953125 136.808594 203.785156 137.042969 203.609375 137.277344 Z M 204.140625 136.496094 C 204.277344 136.273438 204.398438 136.046875 204.511719 135.816406 C 204.398438 136.046875 204.277344 136.273438 204.140625 136.496094 Z M 205.175781 134.019531 C 205.246094 133.75 205.304688 133.480469 205.351562 133.210938 C 205.304688 133.480469 205.246094 133.75 205.175781 134.019531 Z M 205.449219 129.078125 C 205.476562 129.316406 205.5 129.5625 205.515625 129.8125 C 205.5 129.5625 205.476562 129.316406 205.449219 129.078125 Z M 205.375 133.066406 C 205.414062 132.84375 205.445312 132.621094 205.46875 132.402344 C 205.445312 132.621094 205.414062 132.84375 205.375 133.066406 Z M 205.488281 132.21875 C 205.511719 131.988281 205.527344 131.757812 205.539062 131.527344 C 205.527344 131.757812 205.511719 131.988281 205.488281 132.21875 Z M 205.542969 131.441406 C 205.566406 130.894531 205.554688 130.367188 205.519531 129.859375 C 205.554688 130.367188 205.566406 130.898438 205.542969 131.441406 Z M 204.617188 135.585938 C 204.699219 135.398438 204.777344 135.214844 204.851562 135.023438 C 204.777344 135.214844 204.699219 135.398438 204.617188 135.585938 Z M 192.847656 140.820312 C 193 138.714844 193.566406 136.230469 195.171875 134.164062 C 197.589844 131.050781 202.546875 129.652344 205.449219 129.078125 C 205.203125 126.914062 204.613281 125.339844 204.613281 125.339844 C 198.125 129.15625 189.570312 130.449219 185.300781 130.875 C 185.308594 131.238281 185.308594 131.597656 185.308594 131.960938 C 185.277344 132.925781 185.195312 133.878906 185.097656 134.824219 C 186.886719 137.132812 189.570312 139.824219 192.847656 140.820312 Z M 159.429688 129.535156 C 159.160156 128.335938 158.949219 127.121094 158.902344 125.933594 C 158.878906 125.339844 158.894531 124.75 159.003906 124.222656 C 159.109375 123.691406 159.335938 123.246094 159.644531 123.070312 C 159.945312 122.882812 160.402344 122.832031 160.800781 123 C 161.21875 123.152344 161.636719 123.480469 162.023438 123.871094 C 162.796875 124.65625 163.433594 125.683594 164 126.730469 C 165.113281 128.847656 166.003906 131.167969 166.742188 133.449219 C 166.863281 133.828125 167.199219 134.117188 167.621094 134.164062 C 168.191406 134.226562 168.710938 133.816406 168.773438 133.246094 L 168.777344 133.214844 C 169.007812 131.128906 169.433594 128.972656 170.097656 127.023438 C 170.4375 126.0625 170.863281 125.113281 171.414062 124.449219 C 171.988281 123.765625 172.507812 123.5625 173.089844 123.734375 C 173.59375 123.867188 174.089844 124.539062 174.390625 125.449219 C 174.707031 126.335938 174.878906 127.363281 174.976562 128.398438 C 175.164062 130.476562 175.09375 132.667969 174.878906 134.761719 L 174.875 134.78125 C 174.820312 135.308594 175.144531 135.8125 175.671875 135.972656 C 176.269531 136.152344 176.898438 135.816406 177.078125 135.21875 C 177.480469 133.875 177.988281 132.484375 178.578125 131.195312 C 179.171875 129.917969 179.882812 128.632812 180.765625 127.792969 C 180.980469 127.585938 181.207031 127.441406 181.414062 127.328125 C 181.625 127.230469 181.800781 127.203125 181.980469 127.214844 C 182.15625 127.214844 182.386719 127.328125 182.574219 127.449219 C 182.636719 127.519531 182.726562 127.550781 182.792969 127.664062 C 182.867188 127.753906 182.941406 127.851562 183.003906 127.988281 C 183.539062 129.035156 183.671875 130.550781 183.726562 131.96875 C 183.832031 134.867188 183.523438 137.832031 183.199219 140.773438 C 182.835938 143.722656 182.402344 146.667969 181.894531 149.609375 C 181.902344 149.589844 181.90625 149.570312 181.914062 149.550781 C 182.78125 146.714844 183.53125 143.839844 184.121094 140.925781 C 184.535156 138.914062 184.878906 136.886719 185.097656 134.824219 C 185.195312 133.878906 185.277344 132.925781 185.308594 131.960938 C 185.308594 131.597656 185.308594 131.238281 185.300781 130.875 C 185.277344 129.6875 185.164062 128.476562 184.613281 127.1875 C 184.527344 126.976562 184.398438 126.765625 184.246094 126.558594 C 184.121094 126.347656 183.894531 126.15625 183.6875 125.972656 C 183.277344 125.667969 182.824219 125.414062 182.25 125.332031 C 181.695312 125.242188 181.109375 125.332031 180.632812 125.53125 C 180.164062 125.734375 179.761719 126.007812 179.429688 126.304688 C 178.511719 127.140625 177.871094 128.074219 177.328125 129.03125 C 177.3125 128.75 177.308594 128.476562 177.285156 128.195312 C 177.179688 127.039062 177.015625 125.867188 176.605469 124.667969 C 176.398438 124.074219 176.117188 123.46875 175.675781 122.886719 C 175.242188 122.3125 174.582031 121.757812 173.773438 121.523438 C 172.992188 121.285156 172.125 121.320312 171.363281 121.648438 C 170.613281 121.96875 170.0625 122.488281 169.640625 123.007812 C 168.796875 124.066406 168.351562 125.1875 167.960938 126.296875 C 167.660156 127.234375 167.433594 128.164062 167.25 129.101562 C 166.746094 127.996094 166.195312 126.910156 165.566406 125.847656 C 164.894531 124.742188 164.164062 123.652344 163.144531 122.703125 C 162.632812 122.238281 162.023438 121.800781 161.25 121.570312 C 160.476562 121.332031 159.554688 121.425781 158.835938 121.957031 C 158.101562 122.511719 157.863281 123.335938 157.769531 124.011719 C 157.671875 124.710938 157.699219 125.378906 157.785156 126.023438 C 157.949219 127.3125 158.273438 128.539062 158.648438 129.742188 C 159.371094 131.992188 160.292969 134.15625 161.339844 136.25 C 161.410156 136.390625 161.472656 136.527344 161.542969 136.664062 C 160.703125 134.320312 159.96875 131.9375 159.429688 129.535156 Z M 243.9375 131.183594 C 243.832031 130.765625 243.707031 130.347656 243.558594 129.929688 C 243.28125 129.214844 242.941406 128.507812 242.453125 127.855469 C 241.96875 127.207031 241.300781 126.617188 240.480469 126.285156 C 239.652344 125.960938 238.773438 125.871094 237.886719 126.058594 C 236.996094 126.242188 236.191406 126.789062 235.628906 127.433594 C 234.496094 128.75 234.027344 130.292969 233.6875 131.777344 C 233.4375 132.90625 233.292969 134.035156 233.21875 135.164062 C 232.683594 134.039062 232.113281 132.929688 231.476562 131.835938 C 230.679688 130.488281 229.804688 129.164062 228.671875 127.949219 C 228.105469 127.347656 227.457031 126.761719 226.644531 126.304688 C 225.851562 125.847656 224.777344 125.507812 223.6875 125.722656 C 223.15625 125.828125 222.644531 126.007812 222.1875 126.335938 C 221.710938 126.636719 221.355469 127.085938 221.082031 127.535156 C 220.550781 128.453125 220.433594 129.382812 220.386719 130.238281 C 220.335938 131.957031 220.644531 133.527344 221.027344 135.050781 C 221.445312 136.585938 221.945312 138.066406 222.515625 139.515625 C 221.722656 138.910156 220.90625 138.332031 220.03125 137.808594 C 218.90625 137.164062 217.699219 136.585938 216.320312 136.363281 C 215.636719 136.25 214.90625 136.234375 214.1875 136.410156 C 213.46875 136.582031 212.785156 136.957031 212.277344 137.464844 C 211.691406 138.019531 211.40625 138.84375 211.402344 139.570312 C 211.421875 140.289062 211.578125 140.957031 211.8125 141.566406 C 212.222656 142.667969 212.792969 143.652344 213.40625 144.597656 C 213.476562 144.707031 213.542969 144.816406 213.613281 144.921875 C 214.910156 146.828125 216.398438 148.566406 217.953125 150.234375 C 218.089844 150.378906 218.222656 150.527344 218.359375 150.671875 C 218.355469 150.667969 218.351562 150.664062 218.347656 150.660156 C 216.875 148.675781 215.441406 146.660156 214.253906 144.53125 C 213.660156 143.46875 213.113281 142.371094 212.796875 141.25 C 212.625 140.691406 212.558594 140.125 212.578125 139.613281 C 212.628906 139.101562 212.808594 138.710938 213.140625 138.414062 C 213.925781 137.722656 214.976562 137.59375 216.039062 137.84375 C 217.105469 138.085938 218.152344 138.625 219.144531 139.253906 C 221.113281 140.535156 222.925781 142.21875 224.515625 143.957031 C 224.800781 144.265625 225.265625 144.375 225.667969 144.195312 C 226.175781 143.96875 226.402344 143.375 226.171875 142.871094 L 226.164062 142.847656 C 224.953125 140.167969 223.886719 137.335938 223.207031 134.507812 C 222.863281 133.101562 222.613281 131.660156 222.667969 130.347656 C 222.703125 129.703125 222.828125 129.085938 223.074219 128.691406 C 223.308594 128.308594 223.640625 128.09375 224.089844 128.007812 C 224.902344 127.820312 226.046875 128.566406 226.976562 129.550781 C 227.921875 130.546875 228.75 131.75 229.5 133 C 230.988281 135.515625 232.242188 138.265625 233.320312 140.996094 L 233.332031 141.023438 C 233.503906 141.460938 233.949219 141.746094 234.441406 141.695312 C 235.03125 141.636719 235.460938 141.113281 235.398438 140.523438 C 235.117188 137.757812 235.085938 134.847656 235.527344 132.140625 C 235.757812 130.796875 236.160156 129.460938 236.90625 128.527344 C 237.277344 128.066406 237.730469 127.742188 238.261719 127.589844 C 238.792969 127.4375 239.433594 127.460938 239.964844 127.640625 C 241.070312 127.996094 241.902344 129.136719 242.457031 130.378906 C 243.023438 131.636719 243.378906 133.023438 243.636719 134.429688 C 244.136719 137.25 244.308594 140.160156 244.289062 143.0625 C 244.648438 140.179688 244.769531 137.246094 244.484375 134.3125 C 244.476562 134.253906 244.46875 134.195312 244.460938 134.136719 C 244.351562 133.148438 244.195312 132.160156 243.9375 131.183594 Z M 160.066406 98.859375 C 160.066406 105.929688 165.8125 111.660156 172.898438 111.660156 C 173.695312 111.660156 174.472656 111.574219 175.230469 111.4375 C 175.257812 111.335938 175.285156 111.230469 175.320312 111.128906 C 175.542969 110.519531 175.945312 109.933594 176.453125 109.507812 C 177.464844 108.734375 178.582031 108.386719 179.683594 108.296875 C 180.292969 108.257812 180.882812 108.296875 181.457031 108.378906 C 184.074219 106.035156 185.730469 102.644531 185.730469 98.859375 C 185.730469 98.421875 185.710938 97.984375 185.667969 97.554688 C 185.167969 92.644531 181.875 88.566406 177.40625 86.890625 C 176 86.363281 174.488281 86.0625 172.898438 86.0625 C 165.8125 86.0625 160.066406 91.792969 160.066406 98.859375 Z M 213.460938 114.234375 C 220.546875 114.234375 226.292969 108.503906 226.292969 101.433594 C 226.292969 94.367188 220.546875 88.636719 213.460938 88.636719 C 212.683594 88.636719 211.925781 88.71875 211.183594 88.847656 C 207.257812 89.550781 203.949219 92.027344 202.132812 95.421875 C 201.175781 97.214844 200.628906 99.261719 200.628906 101.433594 C 200.628906 108.503906 206.375 114.234375 213.460938 114.234375 Z M 181.453125 108.378906 C 180.882812 108.296875 180.292969 108.257812 179.683594 108.296875 C 178.582031 108.386719 177.460938 108.730469 176.453125 109.507812 C 175.945312 109.933594 175.542969 110.519531 175.320312 111.128906 C 175.285156 111.230469 175.257812 111.332031 175.230469 111.4375 C 175.089844 111.945312 175.039062 112.449219 175.058594 112.921875 C 175.113281 114.003906 175.40625 114.960938 175.789062 115.839844 C 175.808594 115.882812 175.824219 115.929688 175.839844 115.96875 C 176.683594 117.789062 177.839844 119.367188 179.296875 120.660156 C 178.664062 118.835938 178 117.089844 177.589844 115.367188 C 177.386719 114.515625 177.25 113.664062 177.285156 112.917969 C 177.332031 112.164062 177.550781 111.636719 177.96875 111.300781 C 178.453125 110.933594 179.160156 110.625 179.929688 110.503906 C 180.710938 110.375 181.570312 110.390625 182.445312 110.457031 C 184.210938 110.601562 186.023438 111.03125 187.910156 111.453125 C 186.703125 110.378906 185.292969 109.558594 183.746094 108.988281 C 183.425781 108.871094 183.113281 108.746094 182.78125 108.652344 C 182.351562 108.539062 181.910156 108.445312 181.453125 108.378906 Z M 181.453125 108.378906 " fill-opacity="1" fill-rule="nonzero"/><path fill="#ffe8a8" d="M 265.027344 100.875 C 264.050781 100.535156 263.097656 100.308594 262.167969 100.179688 C 252.53125 98.867188 245.515625 107.96875 245.515625 107.96875 C 245.515625 107.96875 226.148438 94.300781 222.902344 66.644531 C 222.902344 66.644531 204.613281 83.707031 196.058594 82.53125 C 187.503906 81.355469 197.828125 68.703125 197.828125 68.703125 C 197.828125 68.703125 167.433594 85.625 154.054688 87.40625 C 151.242188 95.804688 150.234375 104.710938 151.289062 113.113281 C 147.285156 108.351562 142.960938 99.527344 145.316406 84.589844 C 149.445312 58.40625 174.523438 41.34375 209.628906 45.460938 C 209.628906 45.460938 201.367188 38.105469 208.445312 33.988281 C 215.527344 29.867188 220.246094 45.460938 220.246094 45.460938 C 220.246094 45.460938 220.542969 32.222656 227.917969 33.695312 C 235.292969 35.164062 230.570312 48.699219 230.570312 48.699219 C 230.570312 48.699219 253.285156 52.523438 263.023438 73.707031 C 266.804688 81.933594 266.554688 92.011719 265.027344 100.875 Z M 219.382812 79.695312 C 215.269531 78.191406 211.53125 78.078125 211.027344 79.441406 C 210.527344 80.808594 213.457031 83.132812 217.570312 84.636719 C 221.683594 86.136719 225.425781 86.25 225.925781 84.886719 C 226.425781 83.519531 223.496094 81.195312 219.382812 79.695312 Z M 219.382812 79.695312 " fill-opacity="1" fill-rule="nonzero"/></svg>