<svg xmlns="http://www.w3.org/2000/svg" xmlns:xlink="http://www.w3.org/1999/xlink" width="559" zoomAndPan="magnify" viewBox="0 0 419.25 297.749993" height="396" preserveAspectRatio="xMidYMid meet" version="1.0"><defs><clipPath id="id1"><path d="M 0 0.140625 L 418.5 0.140625 L 418.5 297.359375 L 0 297.359375 Z M 0 0.140625 " clip-rule="nonzero"/></clipPath><clipPath id="id2"><path d="M 204 60.347656 L 236 60.347656 L 236 99 L 204 99 Z M 204 60.347656 " clip-rule="nonzero"/></clipPath><clipPath id="id3"><path d="M 71 75 L 347.957031 75 L 347.957031 214 L 71 214 Z M 71 75 " clip-rule="nonzero"/></clipPath><clipPath id="id4"><path d="M 117 175 L 179 175 L 179 237.03125 L 117 237.03125 Z M 117 175 " clip-rule="nonzero"/></clipPath><clipPath id="id5"><path d="M 247 175 L 310 175 L 310 237.03125 L 247 237.03125 Z M 247 175 " clip-rule="nonzero"/></clipPath><clipPath id="id6"><path d="M 87 152 L 347.957031 152 L 347.957031 168 L 87 168 Z M 87 152 " clip-rule="nonzero"/></clipPath></defs><g clip-path="url(#id1)"><path fill="#7fad4c" d="M 0 0.140625 L 418.5 0.140625 L 418.5 297.359375 L 0 297.359375 Z M 0 0.140625 " fill-opacity="1" fill-rule="nonzero"/><path fill="#ffffff" d="M 0 0.140625 L 418.5 0.140625 L 418.5 297.359375 L 0 297.359375 Z M 0 0.140625 " fill-opacity="1" fill-rule="nonzero"/><path fill="#7fad4c" d="M 0 0.140625 L 418.5 0.140625 L 418.5 297.359375 L 0 297.359375 Z M 0 0.140625 " fill-opacity="1" fill-rule="nonzero"/></g><g clip-path="url(#id2)"><path fill="#ccd6dd" d="M 235.410156 86.839844 C 236.09375 93.109375 229.03125 98.324219 219.632812 98.480469 C 210.230469 98.632812 203.527344 93.601562 204.664062 87.242188 L 207.402344 71.875 C 208.53125 65.507812 214.613281 60.355469 220.984375 60.355469 C 227.347656 60.355469 233.066406 65.4375 233.75 71.707031 Z M 235.410156 86.839844 " fill-opacity="1" fill-rule="nonzero"/></g><g clip-path="url(#id3)"><path fill="#ffcc4d" d="M 318.953125 129.484375 L 317.914062 129.484375 L 314.503906 106.4375 C 311.988281 89.46875 300.175781 75.710938 288.117188 75.710938 L 195.328125 75.710938 C 183.265625 75.710938 167.855469 89.46875 160.90625 106.4375 L 151.46875 129.484375 L 124.21875 129.484375 C 108.285156 129.484375 92.675781 143.242188 89.339844 160.210938 L 84.820312 183.257812 C 84.8125 183.316406 84.820312 183.371094 84.804688 183.417969 C 77.109375 184.269531 71.101562 190.707031 71.101562 198.621094 C 71.101562 207.101562 77.988281 213.984375 86.472656 213.984375 L 317.0625 213.984375 C 334.042969 213.984375 347.808594 200.226562 347.808594 183.257812 L 347.808594 160.210938 C 347.808594 143.242188 334.886719 129.484375 318.953125 129.484375 Z M 318.953125 129.484375 " fill-opacity="1" fill-rule="nonzero"/></g><g clip-path="url(#id4)"><path fill="#292f33" d="M 178.707031 206.300781 C 178.707031 207.308594 178.660156 208.3125 178.5625 209.3125 C 178.460938 210.316406 178.316406 211.308594 178.117188 212.296875 C 177.921875 213.285156 177.675781 214.257812 177.386719 215.222656 C 177.09375 216.183594 176.753906 217.132812 176.367188 218.0625 C 175.984375 218.992188 175.554688 219.898438 175.078125 220.789062 C 174.605469 221.675781 174.085938 222.535156 173.527344 223.375 C 172.96875 224.210938 172.367188 225.019531 171.730469 225.796875 C 171.089844 226.574219 170.414062 227.320312 169.703125 228.03125 C 168.992188 228.742188 168.246094 229.417969 167.46875 230.054688 C 166.691406 230.695312 165.882812 231.292969 165.042969 231.851562 C 164.207031 232.410156 163.34375 232.925781 162.457031 233.402344 C 161.570312 233.875 160.660156 234.304688 159.730469 234.691406 C 158.800781 235.074219 157.851562 235.414062 156.886719 235.707031 C 155.925781 236 154.949219 236.242188 153.960938 236.441406 C 152.972656 236.636719 151.980469 236.785156 150.976562 236.882812 C 149.976562 236.980469 148.96875 237.03125 147.964844 237.03125 C 146.957031 237.03125 145.953125 236.980469 144.949219 236.882812 C 143.949219 236.785156 142.953125 236.636719 141.964844 236.441406 C 140.976562 236.242188 140.003906 236 139.039062 235.707031 C 138.074219 235.414062 137.128906 235.074219 136.199219 234.691406 C 135.269531 234.304688 134.359375 233.875 133.46875 233.402344 C 132.582031 232.925781 131.71875 232.410156 130.882812 231.851562 C 130.046875 231.292969 129.238281 230.695312 128.460938 230.054688 C 127.679688 229.417969 126.933594 228.742188 126.222656 228.03125 C 125.511719 227.320312 124.835938 226.574219 124.199219 225.796875 C 123.558594 225.019531 122.960938 224.210938 122.398438 223.375 C 121.839844 222.535156 121.324219 221.675781 120.847656 220.789062 C 120.375 219.898438 119.945312 218.992188 119.558594 218.0625 C 119.171875 217.132812 118.835938 216.183594 118.542969 215.222656 C 118.25 214.257812 118.003906 213.285156 117.808594 212.296875 C 117.613281 211.308594 117.464844 210.316406 117.367188 209.3125 C 117.269531 208.3125 117.21875 207.308594 117.21875 206.300781 C 117.21875 205.296875 117.269531 204.292969 117.367188 203.289062 C 117.464844 202.289062 117.613281 201.292969 117.808594 200.308594 C 118.003906 199.320312 118.25 198.34375 118.542969 197.382812 C 118.835938 196.417969 119.171875 195.472656 119.558594 194.542969 C 119.945312 193.613281 120.375 192.703125 120.847656 191.816406 C 121.324219 190.929688 121.839844 190.066406 122.398438 189.230469 C 122.960938 188.394531 123.558594 187.585938 124.199219 186.808594 C 124.835938 186.03125 125.511719 185.285156 126.222656 184.574219 C 126.933594 183.863281 127.679688 183.1875 128.460938 182.550781 C 129.238281 181.910156 130.046875 181.3125 130.882812 180.753906 C 131.71875 180.195312 132.582031 179.675781 133.46875 179.203125 C 134.359375 178.730469 135.269531 178.300781 136.199219 177.914062 C 137.128906 177.527344 138.074219 177.191406 139.039062 176.898438 C 140.003906 176.605469 140.976562 176.363281 141.964844 176.164062 C 142.953125 175.96875 143.949219 175.820312 144.949219 175.722656 C 145.953125 175.625 146.957031 175.574219 147.964844 175.574219 C 148.96875 175.574219 149.976562 175.625 150.976562 175.722656 C 151.980469 175.820312 152.972656 175.96875 153.960938 176.164062 C 154.949219 176.363281 155.925781 176.605469 156.886719 176.898438 C 157.851562 177.191406 158.800781 177.527344 159.730469 177.914062 C 160.660156 178.300781 161.570312 178.730469 162.457031 179.203125 C 163.34375 179.675781 164.207031 180.195312 165.042969 180.753906 C 165.882812 181.3125 166.691406 181.910156 167.46875 182.550781 C 168.246094 183.1875 168.992188 183.863281 169.703125 184.574219 C 170.414062 185.285156 171.089844 186.03125 171.730469 186.808594 C 172.367188 187.585938 172.96875 188.394531 173.527344 189.230469 C 174.085938 190.066406 174.605469 190.929688 175.078125 191.816406 C 175.554688 192.703125 175.984375 193.613281 176.367188 194.542969 C 176.753906 195.472656 177.09375 196.417969 177.386719 197.382812 C 177.675781 198.34375 177.921875 199.320312 178.117188 200.308594 C 178.316406 201.292969 178.460938 202.289062 178.5625 203.289062 C 178.660156 204.292969 178.707031 205.296875 178.707031 206.300781 Z M 178.707031 206.300781 " fill-opacity="1" fill-rule="nonzero"/></g><path fill="#ccd6dd" d="M 163.335938 206.300781 C 163.335938 207.3125 163.238281 208.308594 163.039062 209.300781 C 162.84375 210.289062 162.550781 211.25 162.167969 212.183594 C 161.78125 213.113281 161.304688 214 160.746094 214.839844 C 160.183594 215.675781 159.546875 216.453125 158.832031 217.167969 C 158.121094 217.878906 157.34375 218.515625 156.503906 219.078125 C 155.664062 219.636719 154.777344 220.109375 153.847656 220.496094 C 152.914062 220.882812 151.953125 221.175781 150.960938 221.371094 C 149.972656 221.566406 148.972656 221.667969 147.964844 221.667969 C 146.953125 221.667969 145.953125 221.566406 144.964844 221.371094 C 143.976562 221.175781 143.011719 220.882812 142.082031 220.496094 C 141.148438 220.109375 140.261719 219.636719 139.421875 219.078125 C 138.582031 218.515625 137.808594 217.878906 137.09375 217.167969 C 136.378906 216.453125 135.742188 215.675781 135.183594 214.839844 C 134.621094 214 134.148438 213.113281 133.761719 212.183594 C 133.375 211.25 133.082031 210.289062 132.886719 209.300781 C 132.691406 208.308594 132.589844 207.3125 132.589844 206.300781 C 132.589844 205.292969 132.691406 204.292969 132.886719 203.304688 C 133.082031 202.316406 133.375 201.355469 133.761719 200.421875 C 134.148438 199.492188 134.621094 198.605469 135.183594 197.765625 C 135.742188 196.929688 136.378906 196.152344 137.09375 195.4375 C 137.808594 194.726562 138.582031 194.089844 139.421875 193.527344 C 140.261719 192.96875 141.148438 192.492188 142.082031 192.109375 C 143.011719 191.722656 143.976562 191.429688 144.964844 191.234375 C 145.953125 191.035156 146.953125 190.9375 147.964844 190.9375 C 148.972656 190.9375 149.972656 191.035156 150.960938 191.234375 C 151.953125 191.429688 152.914062 191.722656 153.847656 192.109375 C 154.777344 192.492188 155.664062 192.96875 156.503906 193.527344 C 157.34375 194.089844 158.121094 194.726562 158.832031 195.4375 C 159.546875 196.152344 160.183594 196.929688 160.746094 197.765625 C 161.304688 198.605469 161.78125 199.492188 162.167969 200.421875 C 162.550781 201.355469 162.84375 202.316406 163.039062 203.304688 C 163.238281 204.292969 163.335938 205.292969 163.335938 206.300781 Z M 163.335938 206.300781 " fill-opacity="1" fill-rule="nonzero"/><g clip-path="url(#id5)"><path fill="#292f33" d="M 309.375 206.300781 C 309.375 207.308594 309.328125 208.3125 309.226562 209.3125 C 309.128906 210.316406 308.980469 211.308594 308.785156 212.296875 C 308.589844 213.285156 308.34375 214.257812 308.050781 215.222656 C 307.761719 216.183594 307.421875 217.132812 307.035156 218.0625 C 306.652344 218.992188 306.21875 219.898438 305.746094 220.789062 C 305.269531 221.675781 304.753906 222.535156 304.195312 223.375 C 303.636719 224.210938 303.035156 225.019531 302.398438 225.796875 C 301.757812 226.574219 301.082031 227.320312 300.371094 228.03125 C 299.660156 228.742188 298.914062 229.417969 298.136719 230.054688 C 297.355469 230.695312 296.550781 231.292969 295.710938 231.851562 C 294.875 232.410156 294.011719 232.925781 293.125 233.402344 C 292.234375 233.875 291.328125 234.304688 290.398438 234.691406 C 289.464844 235.074219 288.519531 235.414062 287.554688 235.707031 C 286.59375 236 285.617188 236.242188 284.628906 236.441406 C 283.640625 236.636719 282.648438 236.785156 281.644531 236.882812 C 280.640625 236.980469 279.636719 237.03125 278.632812 237.03125 C 277.625 237.03125 276.621094 236.980469 275.617188 236.882812 C 274.617188 236.785156 273.621094 236.636719 272.632812 236.441406 C 271.644531 236.242188 270.667969 236 269.707031 235.707031 C 268.742188 235.414062 267.796875 235.074219 266.867188 234.691406 C 265.933594 234.304688 265.027344 233.875 264.136719 233.402344 C 263.25 232.925781 262.386719 232.410156 261.550781 231.851562 C 260.710938 231.292969 259.90625 230.695312 259.125 230.054688 C 258.347656 229.417969 257.601562 228.742188 256.890625 228.03125 C 256.179688 227.320312 255.503906 226.574219 254.863281 225.796875 C 254.226562 225.019531 253.625 224.210938 253.066406 223.375 C 252.507812 222.535156 251.992188 221.675781 251.515625 220.789062 C 251.042969 219.898438 250.613281 218.992188 250.226562 218.0625 C 249.839844 217.132812 249.5 216.183594 249.210938 215.222656 C 248.917969 214.257812 248.671875 213.285156 248.476562 212.296875 C 248.28125 211.308594 248.132812 210.316406 248.035156 209.3125 C 247.933594 208.3125 247.886719 207.308594 247.886719 206.300781 C 247.886719 205.296875 247.933594 204.292969 248.035156 203.289062 C 248.132812 202.289062 248.28125 201.292969 248.476562 200.308594 C 248.671875 199.320312 248.917969 198.34375 249.210938 197.382812 C 249.5 196.417969 249.839844 195.472656 250.226562 194.542969 C 250.613281 193.613281 251.042969 192.703125 251.515625 191.816406 C 251.992188 190.929688 252.507812 190.066406 253.066406 189.230469 C 253.625 188.394531 254.226562 187.585938 254.863281 186.808594 C 255.503906 186.03125 256.179688 185.285156 256.890625 184.574219 C 257.601562 183.863281 258.347656 183.1875 259.125 182.550781 C 259.90625 181.910156 260.710938 181.3125 261.550781 180.753906 C 262.386719 180.195312 263.25 179.675781 264.136719 179.203125 C 265.027344 178.730469 265.933594 178.300781 266.867188 177.914062 C 267.796875 177.527344 268.742188 177.191406 269.707031 176.898438 C 270.667969 176.605469 271.644531 176.363281 272.632812 176.164062 C 273.621094 175.96875 274.617188 175.820312 275.617188 175.722656 C 276.621094 175.625 277.625 175.574219 278.632812 175.574219 C 279.636719 175.574219 280.640625 175.625 281.644531 175.722656 C 282.648438 175.820312 283.640625 175.96875 284.628906 176.164062 C 285.617188 176.363281 286.59375 176.605469 287.554688 176.898438 C 288.519531 177.191406 289.464844 177.527344 290.398438 177.914062 C 291.328125 178.300781 292.234375 178.730469 293.125 179.203125 C 294.011719 179.675781 294.875 180.195312 295.710938 180.753906 C 296.550781 181.3125 297.355469 181.910156 298.136719 182.550781 C 298.914062 183.1875 299.660156 183.863281 300.371094 184.574219 C 301.082031 185.285156 301.757812 186.03125 302.398438 186.808594 C 303.035156 187.585938 303.636719 188.394531 304.195312 189.230469 C 304.753906 190.066406 305.269531 190.929688 305.746094 191.816406 C 306.21875 192.703125 306.652344 193.613281 307.035156 194.542969 C 307.421875 195.472656 307.761719 196.417969 308.050781 197.382812 C 308.34375 198.34375 308.589844 199.320312 308.785156 200.308594 C 308.980469 201.292969 309.128906 202.289062 309.226562 203.289062 C 309.328125 204.292969 309.375 205.296875 309.375 206.300781 Z M 309.375 206.300781 " fill-opacity="1" fill-rule="nonzero"/></g><path fill="#ccd6dd" d="M 294.003906 206.300781 C 294.003906 207.3125 293.90625 208.308594 293.707031 209.300781 C 293.511719 210.289062 293.21875 211.25 292.832031 212.183594 C 292.445312 213.113281 291.972656 214 291.414062 214.839844 C 290.851562 215.675781 290.214844 216.453125 289.5 217.167969 C 288.789062 217.878906 288.011719 218.515625 287.171875 219.078125 C 286.332031 219.636719 285.445312 220.109375 284.515625 220.496094 C 283.582031 220.882812 282.621094 221.175781 281.628906 221.371094 C 280.640625 221.566406 279.640625 221.667969 278.632812 221.667969 C 277.621094 221.667969 276.621094 221.566406 275.632812 221.371094 C 274.640625 221.175781 273.679688 220.882812 272.75 220.496094 C 271.816406 220.109375 270.929688 219.636719 270.089844 219.078125 C 269.25 218.515625 268.476562 217.878906 267.761719 217.167969 C 267.046875 216.453125 266.410156 215.675781 265.847656 214.839844 C 265.289062 214 264.816406 213.113281 264.429688 212.183594 C 264.042969 211.25 263.75 210.289062 263.554688 209.300781 C 263.355469 208.308594 263.257812 207.3125 263.257812 206.300781 C 263.257812 205.292969 263.355469 204.292969 263.554688 203.304688 C 263.75 202.316406 264.042969 201.355469 264.429688 200.421875 C 264.816406 199.492188 265.289062 198.605469 265.847656 197.765625 C 266.410156 196.929688 267.046875 196.152344 267.761719 195.4375 C 268.476562 194.726562 269.25 194.089844 270.089844 193.527344 C 270.929688 192.96875 271.816406 192.492188 272.75 192.109375 C 273.679688 191.722656 274.640625 191.429688 275.632812 191.234375 C 276.621094 191.035156 277.621094 190.9375 278.632812 190.9375 C 279.640625 190.9375 280.640625 191.035156 281.628906 191.234375 C 282.621094 191.429688 283.582031 191.722656 284.515625 192.109375 C 285.445312 192.492188 286.332031 192.96875 287.171875 193.527344 C 288.011719 194.089844 288.789062 194.726562 289.5 195.4375 C 290.214844 196.152344 290.851562 196.929688 291.414062 197.765625 C 291.972656 198.605469 292.445312 199.492188 292.832031 200.421875 C 293.21875 201.355469 293.511719 202.316406 293.707031 203.304688 C 293.90625 204.292969 294.003906 205.292969 294.003906 206.300781 Z M 294.003906 206.300781 " fill-opacity="1" fill-rule="nonzero"/><g clip-path="url(#id6)"><path fill="#f4900c" d="M 89.339844 160.210938 L 87.832031 167.894531 L 347.808594 167.894531 L 347.808594 160.210938 C 347.808594 157.539062 347.386719 154.996094 346.785156 152.527344 L 91.867188 152.527344 C 90.785156 154.996094 89.863281 157.539062 89.339844 160.210938 Z M 89.339844 160.210938 " fill-opacity="1" fill-rule="nonzero"/></g><path fill="#55acee" d="M 255.570312 129.484375 L 301.074219 129.484375 C 300.96875 126.289062 300.582031 122.507812 299.875 117.960938 C 296.839844 98.753906 295.632812 91.074219 273.457031 91.074219 L 255.570312 91.074219 Z M 240.199219 91.074219 L 201.769531 91.074219 C 189.515625 91.074219 176.894531 103.109375 172.199219 117.960938 C 170.707031 122.5625 169.484375 126.320312 168.570312 129.484375 L 240.199219 129.484375 Z M 240.199219 91.074219 " fill-opacity="1" fill-rule="nonzero"/></svg>