<svg xmlns="http://www.w3.org/2000/svg" xmlns:xlink="http://www.w3.org/1999/xlink" width="559" zoomAndPan="magnify" viewBox="0 0 419.25 297.749993" height="396" preserveAspectRatio="xMidYMid meet" version="1.0"><defs><clipPath id="id1"><path d="M 0 0.140625 L 418.5 0.140625 L 418.5 297.359375 L 0 297.359375 Z M 0 0.140625 " clip-rule="nonzero"/></clipPath><clipPath id="id2"><path d="M 112 45.273438 L 309 45.273438 L 309 251.90625 L 112 251.90625 Z M 112 45.273438 " clip-rule="nonzero"/></clipPath><clipPath id="id3"><path d="M 110 52 L 285 52 L 285 251.90625 L 110 251.90625 Z M 110 52 " clip-rule="nonzero"/></clipPath></defs><g clip-path="url(#id1)"><path fill="#ff5757" d="M 0 0.140625 L 418.5 0.140625 L 418.5 297.359375 L 0 297.359375 Z M 0 0.140625 " fill-opacity="1" fill-rule="nonzero"/><path fill="#ffffff" d="M 0 0.140625 L 418.5 0.140625 L 418.5 297.359375 L 0 297.359375 Z M 0 0.140625 " fill-opacity="1" fill-rule="nonzero"/><path fill="#ff5757" d="M 0 0.140625 L 418.5 0.140625 L 418.5 297.359375 L 0 297.359375 Z M 0 0.140625 " fill-opacity="1" fill-rule="nonzero"/></g><g clip-path="url(#id2)"><path fill="#e9a65e" d="M 287.511719 250.28125 C 278.71875 251.890625 273.640625 250.03125 269.429688 246.316406 C 266.210938 246.070312 243.921875 251.890625 229.308594 251.890625 C 221.011719 251.519531 219.398438 244.335938 219.398438 244.335938 C 219.398438 244.335938 214.902344 251.765625 193.558594 250.527344 C 182.839844 249.90625 180.019531 245.902344 180.019531 245.902344 C 180.019531 245.902344 167.664062 248.917969 153.050781 245.574219 C 147.105469 243.34375 148.234375 236.160156 153.683594 232.074219 C 152.582031 222.757812 148.210938 179.046875 154.058594 158.1875 C 137.363281 142.914062 112.347656 116.65625 112.136719 112.96875 C 117.621094 108.851562 122.113281 101.269531 127.863281 92.496094 C 114.882812 78.417969 123.6875 59.40625 127.644531 58.992188 C 131.03125 58.636719 144.890625 63.917969 149.9375 65.898438 C 167.316406 50.898438 183.242188 51.15625 191.050781 50.335938 C 198.859375 49.519531 214.375 45.96875 234.585938 57.03125 C 239.09375 54.046875 251.503906 46.015625 254.890625 45.664062 C 258.847656 45.246094 271.546875 62.007812 261.886719 78.453125 C 269.390625 85.839844 275.414062 92.320312 281.664062 95.210938 C 280.441406 99.167969 268.589844 124.996094 262.730469 139.011719 C 268.191406 140.921875 295.128906 152.339844 305.34375 194.542969 C 316.738281 241.609375 297.789062 248.398438 287.511719 250.28125 Z M 287.511719 250.28125 C 278.71875 251.890625 273.640625 250.03125 269.429688 246.316406 C 266.210938 246.070312 243.921875 251.890625 229.308594 251.890625 C 221.011719 251.519531 219.398438 244.335938 219.398438 244.335938 C 219.398438 244.335938 214.902344 251.765625 193.558594 250.527344 C 182.839844 249.90625 180.019531 245.902344 180.019531 245.902344 C 180.019531 245.902344 167.664062 248.917969 153.050781 245.574219 C 147.105469 243.34375 148.234375 236.160156 153.683594 232.074219 C 152.582031 222.757812 148.210938 179.046875 154.058594 158.1875 C 150.035156 155.710938 114.371094 118.554688 112.136719 112.96875 C 117.621094 108.851562 122.113281 101.269531 127.863281 92.496094 C 114.882812 78.417969 123.6875 59.40625 127.644531 58.992188 C 131.03125 58.636719 144.890625 63.917969 149.9375 65.898438 C 167.316406 50.898438 183.242188 51.15625 191.050781 50.335938 C 198.859375 49.519531 214.375 45.96875 234.585938 57.03125 C 239.09375 54.046875 251.503906 46.015625 254.890625 45.664062 C 258.847656 45.246094 271.546875 62.007812 261.886719 78.453125 C 269.390625 85.839844 275.414062 92.320312 281.664062 95.210938 C 280.148438 104.078125 260.828125 133.914062 262.730469 139.011719 C 268.191406 140.921875 295.128906 152.339844 305.34375 194.542969 C 316.738281 241.609375 297.789062 248.398438 287.511719 250.28125 Z M 287.511719 250.28125 " fill-opacity="1" fill-rule="nonzero"/></g><path fill="#a85636" d="M 154.675781 243.757812 C 148.730469 241.527344 151.867188 235.914062 153.683594 232.074219 C 152.582031 222.757812 148.210938 179.046875 154.058594 158.1875 L 160.546875 160.261719 C 160.546875 160.261719 162.433594 169.773438 165.285156 186.367188 C 168.132812 202.964844 185.207031 206.460938 185.207031 206.460938 C 185.207031 206.460938 184.230469 226.128906 183.734375 235.292969 C 176.925781 240.496094 169.289062 247.101562 154.675781 243.757812 Z M 154.675781 243.757812 C 148.730469 241.527344 151.867188 235.914062 153.683594 232.074219 C 152.582031 222.757812 148.210938 179.046875 154.058594 158.1875 L 160.546875 160.261719 C 160.546875 160.261719 162.433594 169.773438 165.285156 186.367188 C 168.132812 202.964844 185.207031 206.460938 185.207031 206.460938 C 185.207031 206.460938 184.230469 226.128906 183.734375 235.292969 C 176.925781 240.496094 169.289062 247.101562 154.675781 243.757812 Z M 154.675781 243.757812 " fill-opacity="1" fill-rule="nonzero"/><g clip-path="url(#id3)"><path fill="#f9f1e9" d="M 112.136719 112.96875 C 112.511719 112.6875 112.882812 112.386719 113.25 112.070312 C 113.25 112.070312 113.25 112.070312 113.253906 112.070312 C 116 111.816406 117.277344 114.46875 126.550781 124.378906 C 135.828125 134.289062 154.59375 136.269531 165.417969 121.902344 C 176.242188 107.535156 189.589844 104.230469 194.714844 104.066406 C 210.238281 103.570312 217.238281 106.980469 225.617188 119.09375 C 232.859375 129.566406 253.660156 127.019531 261.753906 120.25 C 269.84375 113.480469 278.28125 93.300781 279.980469 94.335938 C 280.539062 94.652344 281.101562 94.949219 281.664062 95.210938 C 293.425781 100.652344 272.035156 156.277344 203.359375 163.472656 C 134.683594 170.667969 101.808594 120.726562 112.136719 112.96875 Z M 164.808594 81.511719 C 164.835938 81.503906 164.863281 81.488281 164.890625 81.472656 C 165.027344 81.378906 165.058594 81.191406 164.964844 81.054688 C 164.101562 79.816406 162.792969 79.183594 161.4375 78.90625 C 160.082031 78.621094 158.597656 78.820312 157.359375 79.28125 C 156.136719 79.726562 154.894531 80.457031 153.953125 81.507812 C 153.019531 82.558594 152.414062 83.863281 152.390625 85.265625 C 152.390625 85.304688 152.398438 85.351562 152.414062 85.390625 C 152.480469 85.554688 152.667969 85.632812 152.832031 85.5625 L 152.839844 85.5625 C 154.097656 85.039062 155.066406 84.605469 156.003906 84.292969 C 156.925781 83.96875 157.804688 83.707031 158.769531 83.40625 L 164.757812 81.527344 Z M 222.492188 77.660156 L 228.699219 78.589844 C 229.699219 78.738281 230.609375 78.863281 231.570312 79.039062 C 232.542969 79.203125 233.566406 79.484375 234.894531 79.804688 L 234.898438 79.804688 C 235.070312 79.847656 235.242188 79.742188 235.285156 79.570312 C 235.292969 79.527344 235.296875 79.480469 235.289062 79.441406 C 235.046875 78.0625 234.25 76.863281 233.164062 75.96875 C 232.070312 75.078125 230.730469 74.546875 229.457031 74.296875 C 228.160156 74.035156 226.664062 74.066406 225.367188 74.558594 C 224.070312 75.042969 222.878906 75.867188 222.214844 77.226562 C 222.144531 77.375 222.203125 77.554688 222.351562 77.625 C 222.382812 77.640625 222.410156 77.648438 222.4375 77.652344 Z M 185.011719 206.707031 C 185.011719 206.707031 151.164062 197.886719 159.464844 159.242188 C 172.835938 155.898438 203.054688 161.96875 203.054688 161.96875 C 203.054688 161.96875 203.671875 169.152344 197.234375 176.957031 C 190.792969 184.757812 186.089844 181.910156 185.011719 206.707031 Z M 183.734375 235.292969 C 183.734375 235.292969 165.40625 225.757812 153.683594 232.074219 C 148.234375 236.160156 147.105469 243.34375 153.050781 245.574219 C 167.664062 248.917969 180.019531 245.902344 180.019531 245.902344 C 180.019531 245.902344 180.691406 246.847656 182.605469 247.890625 C 182.605469 247.894531 182.605469 247.894531 182.605469 247.894531 C 184.632812 248.996094 188.050781 250.207031 193.558594 250.527344 C 214.902344 251.765625 219.398438 244.335938 219.398438 244.335938 C 218.65625 234.921875 189.925781 231.082031 183.734375 235.292969 Z M 229.308594 251.890625 C 233.671875 251.890625 238.722656 251.371094 243.746094 250.648438 C 247.28125 235.289062 233.757812 233.171875 233.757812 233.171875 C 222.042969 236.160156 219.816406 240.988281 219.429688 244.441406 C 219.664062 245.328125 221.601562 251.546875 229.308594 251.890625 Z M 177.488281 100.265625 C 177.34375 90.183594 169.664062 87.539062 165.113281 87.800781 C 160.5625 88.0625 152.871094 90.027344 153.363281 100.519531 C 153.871094 111.367188 160.640625 113.859375 166.359375 113.285156 C 171.269531 112.789062 177.636719 110.347656 177.488281 100.265625 Z M 226.839844 108.574219 C 232.578125 108.195312 238.839844 104.625 237.554688 93.839844 C 236.308594 83.410156 228.402344 82.738281 223.871094 83.230469 C 219.339844 83.722656 212.199219 87.597656 213.714844 97.566406 C 215.234375 107.535156 221.914062 108.894531 226.839844 108.574219 Z M 239.714844 60.082031 C 241.941406 58.597656 250.609375 52.90625 252.863281 52.667969 C 255.375 52.40625 263.527344 63.230469 256.882812 73.652344 C 251.949219 69.058594 246.351562 64.34375 239.714844 60.082031 Z M 145.90625 69.621094 C 143.160156 68.535156 133.195312 64.675781 130.863281 64.921875 C 128.238281 65.195312 122.355469 77.984375 131.414062 87.203125 C 135.390625 81.453125 140.03125 75.40625 145.90625 69.621094 Z M 145.90625 69.621094 " fill-opacity="1" fill-rule="nonzero"/></g><path fill="#a85636" d="M 206.523438 126.695312 C 206.027344 126.726562 205.503906 126.730469 204.953125 126.707031 C 200.226562 126.496094 198.039062 123.730469 197.027344 121.132812 C 196.339844 123.832031 194.507812 126.84375 189.839844 127.625 C 189.292969 127.71875 188.773438 127.777344 188.277344 127.804688 C 180.363281 128.289062 178.972656 121.359375 178.960938 121.285156 C 178.902344 120.976562 179.109375 120.675781 179.417969 120.617188 C 179.726562 120.558594 180.027344 120.765625 180.085938 121.074219 C 180.136719 121.351562 181.480469 127.867188 189.652344 126.496094 C 195.386719 125.539062 196.25 120.8125 196.289062 118.257812 C 196.148438 117.246094 196.160156 116.550781 196.160156 116.527344 C 196.171875 116.25 196.375 116.039062 196.640625 115.992188 C 196.652344 115.988281 196.664062 115.980469 196.679688 115.976562 C 196.691406 115.976562 196.703125 115.980469 196.714844 115.980469 C 196.726562 115.980469 196.738281 115.972656 196.75 115.972656 C 196.761719 115.972656 196.773438 115.980469 196.785156 115.980469 C 197.058594 115.992188 197.289062 116.179688 197.332031 116.453125 C 197.335938 116.480469 197.433594 117.167969 197.414062 118.191406 C 197.761719 120.71875 199.195312 125.304688 205 125.5625 C 213.289062 125.929688 213.820312 119.300781 213.839844 119.019531 C 213.863281 118.703125 214.140625 118.464844 214.449219 118.484375 C 214.761719 118.507812 215 118.777344 214.980469 119.09375 C 214.976562 119.167969 214.4375 126.210938 206.523438 126.695312 Z M 206.523438 126.695312 C 206.027344 126.726562 205.503906 126.730469 204.953125 126.707031 C 200.226562 126.496094 198.039062 123.730469 197.027344 121.132812 C 196.339844 123.832031 194.507812 126.84375 189.839844 127.625 C 189.292969 127.71875 188.773438 127.777344 188.277344 127.804688 C 180.363281 128.289062 178.972656 121.359375 178.960938 121.285156 C 178.902344 120.976562 179.109375 120.675781 179.417969 120.617188 C 179.726562 120.558594 180.027344 120.765625 180.085938 121.074219 C 180.136719 121.351562 181.480469 127.867188 189.652344 126.496094 C 195.386719 125.539062 196.25 120.8125 196.289062 118.257812 C 196.148438 117.246094 196.160156 116.550781 196.160156 116.527344 C 196.171875 116.25 196.375 116.039062 196.640625 115.992188 C 196.652344 115.988281 196.664062 115.980469 196.679688 115.976562 C 196.691406 115.976562 196.703125 115.980469 196.714844 115.980469 C 196.726562 115.980469 196.738281 115.972656 196.75 115.972656 C 196.761719 115.972656 196.773438 115.980469 196.785156 115.980469 C 197.058594 115.992188 197.289062 116.179688 197.332031 116.453125 C 197.335938 116.480469 197.433594 117.167969 197.414062 118.191406 C 197.761719 120.71875 199.195312 125.304688 205 125.5625 C 213.289062 125.929688 213.820312 119.300781 213.839844 119.019531 C 213.863281 118.703125 214.140625 118.464844 214.449219 118.484375 C 214.761719 118.507812 215 118.777344 214.980469 119.09375 C 214.976562 119.167969 214.4375 126.210938 206.523438 126.695312 Z M 190.714844 165.402344 C 169.480469 165.402344 155.023438 159.917969 153.734375 159.410156 C 153.753906 159.292969 153.964844 158.40625 154.054688 158.1875 C 154.3125 158.292969 180.257812 168.71875 214.859375 161.71875 C 215.203125 161.652344 215.535156 161.871094 215.605469 162.214844 C 215.671875 162.558594 215.449219 162.890625 215.109375 162.960938 C 206.335938 164.734375 198.113281 165.402344 190.714844 165.402344 Z M 246.917969 228.195312 C 246.523438 228.285156 240.886719 229.578125 235.191406 231.371094 C 226.96875 228.285156 223.253906 219.636719 223.234375 214.398438 C 224.371094 206.042969 225.71875 198.457031 227.125 195.570312 C 231.058594 187.492188 240.378906 183.277344 247.164062 182.121094 C 247.507812 182.0625 247.738281 181.734375 247.679688 181.390625 C 247.621094 181.046875 247.296875 180.816406 246.953125 180.875 C 239.871094 182.078125 230.132812 186.503906 225.988281 195.015625 C 222.15625 202.886719 218.90625 242.597656 218.769531 244.285156 C 218.742188 244.628906 219 244.933594 219.34375 244.964844 C 219.363281 244.964844 219.382812 244.964844 219.402344 244.964844 C 219.722656 244.964844 220 244.71875 220.03125 244.390625 C 220.035156 244.347656 220.492188 240.089844 225.613281 236.6875 C 230.921875 233.160156 247.035156 229.464844 247.199219 229.429688 C 247.539062 229.351562 247.753906 229.011719 247.675781 228.671875 C 247.597656 228.328125 247.257812 228.113281 246.917969 228.195312 Z M 291.757812 234.117188 C 291.597656 233.808594 291.21875 233.6875 290.90625 233.847656 C 284.195312 237.320312 279.242188 229.835938 272.382812 219.484375 C 270.957031 217.328125 269.484375 215.105469 267.894531 212.832031 C 262.34375 204.886719 256.019531 201.996094 251.691406 200.964844 C 246.53125 199.738281 241.289062 200.503906 237.667969 203.011719 C 233.726562 205.742188 232.976562 209.226562 233.589844 211.574219 C 234.21875 213.976562 236.277344 215.6875 238.835938 215.929688 C 243.683594 216.390625 248.699219 216.871094 254.957031 226.542969 C 260.714844 235.441406 266.398438 244.03125 267.972656 246.40625 C 268.296875 246.402344 269.039062 246.367188 269.453125 246.347656 C 269.386719 246.25 262.75 236.261719 256.019531 225.855469 C 249.429688 215.667969 244.105469 215.160156 238.953125 214.671875 C 236.898438 214.472656 235.3125 213.167969 234.816406 211.253906 C 234.160156 208.75 235.496094 206.054688 238.386719 204.054688 C 244.320312 199.949219 257.46875 200.128906 266.859375 213.558594 C 268.4375 215.816406 269.90625 218.035156 271.328125 220.183594 C 278.28125 230.675781 283.769531 238.964844 291.488281 234.972656 C 291.796875 234.8125 291.917969 234.429688 291.757812 234.117188 Z M 291.757812 234.117188 C 291.597656 233.808594 291.21875 233.6875 290.90625 233.847656 C 284.195312 237.320312 279.242188 229.835938 272.382812 219.484375 C 270.957031 217.328125 269.484375 215.105469 267.894531 212.832031 C 262.34375 204.886719 256.019531 201.996094 251.691406 200.964844 C 246.53125 199.738281 241.289062 200.503906 237.667969 203.011719 C 233.726562 205.742188 232.976562 209.226562 233.589844 211.574219 C 234.21875 213.976562 236.277344 215.6875 238.835938 215.929688 C 243.683594 216.390625 248.699219 216.871094 254.957031 226.542969 C 260.714844 235.441406 266.398438 244.03125 267.972656 246.40625 C 268.296875 246.402344 269.039062 246.367188 269.453125 246.347656 C 269.386719 246.25 262.75 236.261719 256.019531 225.855469 C 249.429688 215.667969 244.105469 215.160156 238.953125 214.671875 C 236.898438 214.472656 235.3125 213.167969 234.816406 211.253906 C 234.160156 208.75 235.496094 206.054688 238.386719 204.054688 C 244.320312 199.949219 257.46875 200.128906 266.859375 213.558594 C 268.4375 215.816406 269.90625 218.035156 271.328125 220.183594 C 278.28125 230.675781 283.769531 238.964844 291.488281 234.972656 C 291.796875 234.8125 291.917969 234.429688 291.757812 234.117188 Z M 178.796875 246.15625 C 176.597656 239.578125 180.949219 235.753906 182.445312 234.671875 C 182.734375 234.464844 183.375 234.808594 183.734375 235.292969 C 183.488281 235.4375 177.609375 238.976562 180.058594 245.941406 C 179.617188 246.058594 179 246.164062 178.796875 246.15625 Z M 178.796875 246.15625 " fill-opacity="1" fill-rule="nonzero"/><path fill="#231f20" d="M 196.445312 106.839844 C 196.316406 106.84375 196.019531 106.867188 195.726562 106.894531 C 195.429688 106.917969 195.132812 106.941406 195.007812 106.960938 C 190.445312 107.386719 186.4375 108.910156 186.730469 109.851562 C 186.882812 110.332031 195.261719 117.480469 196.550781 117.371094 C 196.558594 117.371094 196.628906 117.367188 196.636719 117.363281 C 197.925781 117.257812 205.015625 108.828125 205.085938 108.328125 C 205.21875 107.351562 201.015625 106.507812 196.445312 106.839844 Z M 159.78125 99.921875 C 159.335938 91.390625 165.328125 89.835938 168.878906 89.652344 C 170.242188 89.578125 171.96875 89.867188 173.589844 90.707031 C 175.726562 92.433594 177.640625 95.722656 177.707031 100.304688 C 177.761719 103.800781 176.789062 106.605469 175.59375 108.238281 C 173.929688 109.652344 171.835938 110.195312 170.003906 110.375 C 165.542969 110.808594 160.246094 108.746094 159.78125 99.921875 Z M 222.707031 106.308594 C 220.867188 106.433594 218.714844 106.242188 216.84375 105.121094 C 215.394531 103.707031 213.972656 101.105469 213.449219 97.644531 C 212.757812 93.117188 214.105469 89.554688 215.929688 87.5 C 217.386719 86.40625 219.042969 85.835938 220.402344 85.683594 C 223.933594 85.28125 230.101562 85.824219 231.066406 94.3125 C 232.066406 103.09375 227.179688 106 222.707031 106.308594 Z M 231.175781 114.003906 C 232.90625 113.023438 234.433594 112.019531 235.761719 110.9375 C 236.417969 110.382812 237.023438 109.8125 237.582031 109.21875 C 238.117188 108.601562 238.636719 107.984375 239.078125 107.304688 C 239.96875 105.953125 240.636719 104.429688 241.15625 102.75 C 241.691406 101.070312 242.039062 99.257812 242.492188 97.316406 L 242.492188 97.308594 C 242.550781 97.066406 242.792969 96.914062 243.035156 96.972656 C 243.179688 97.003906 243.296875 97.109375 243.351562 97.234375 C 244.148438 99.121094 244.488281 101.1875 244.363281 103.300781 C 244.242188 105.410156 243.589844 107.582031 242.378906 109.457031 C 242.234375 109.691406 242.066406 109.914062 241.910156 110.144531 L 241.371094 110.789062 C 241.03125 111.230469 240.597656 111.585938 240.199219 111.96875 C 239.351562 112.6875 238.417969 113.28125 237.433594 113.726562 C 236.445312 114.171875 235.410156 114.460938 234.363281 114.601562 C 233.316406 114.738281 232.265625 114.746094 231.21875 114.488281 C 231.082031 114.453125 231 114.3125 231.03125 114.175781 C 231.050781 114.105469 231.09375 114.046875 231.152344 114.015625 Z M 161.234375 118.753906 C 161.28125 118.621094 161.214844 118.472656 161.082031 118.425781 L 161.0625 118.417969 C 159.199219 117.714844 157.535156 116.964844 156.054688 116.101562 C 155.320312 115.65625 154.636719 115.183594 153.988281 114.683594 C 153.363281 114.15625 152.757812 113.628906 152.210938 113.027344 C 151.125 111.828125 150.226562 110.425781 149.457031 108.847656 C 148.664062 107.273438 148.039062 105.535156 147.292969 103.691406 L 147.289062 103.679688 C 147.234375 103.550781 147.125 103.449219 146.980469 103.414062 C 146.738281 103.351562 146.492188 103.5 146.429688 103.742188 C 145.933594 105.730469 145.917969 107.824219 146.371094 109.894531 C 146.820312 111.957031 147.796875 114 149.285156 115.664062 C 149.46875 115.875 149.667969 116.070312 149.859375 116.273438 L 150.488281 116.824219 C 150.894531 117.207031 151.378906 117.492188 151.832031 117.808594 C 152.777344 118.386719 153.792969 118.828125 154.835938 119.113281 C 155.878906 119.402344 156.949219 119.527344 158.003906 119.503906 C 159.058594 119.472656 160.097656 119.320312 161.09375 118.902344 C 161.15625 118.875 161.207031 118.824219 161.234375 118.753906 Z M 156.929688 125.203125 C 156.941406 125.066406 156.839844 124.949219 156.703125 124.9375 L 156.679688 124.9375 C 153.824219 124.726562 151.109375 124.1875 148.667969 123.253906 C 146.21875 122.320312 144.09375 120.925781 142.34375 119.128906 C 141.496094 118.25 140.789062 117.277344 140.210938 116.195312 C 139.636719 115.109375 139.195312 113.914062 138.839844 112.648438 C 138.488281 111.382812 138.230469 110.050781 138.011719 108.683594 L 137.421875 104.464844 L 137.421875 104.457031 C 137.398438 104.296875 137.285156 104.152344 137.121094 104.101562 C 136.890625 104.023438 136.640625 104.148438 136.5625 104.382812 C 135.644531 107.183594 135.222656 110.175781 135.558594 113.261719 C 135.726562 114.800781 136.113281 116.363281 136.765625 117.855469 C 137.425781 119.34375 138.386719 120.726562 139.53125 121.894531 C 141.78125 124.175781 144.765625 125.734375 147.828125 126.289062 C 150.894531 126.839844 154.015625 126.601562 156.78125 125.410156 C 156.863281 125.375 156.925781 125.296875 156.929688 125.203125 Z M 235.171875 120.683594 C 235.085938 120.695312 235.007812 120.757812 234.980469 120.851562 C 234.9375 120.980469 235.007812 121.117188 235.136719 121.160156 C 238.007812 122.082031 241.136719 122.023438 244.132812 121.179688 C 247.132812 120.335938 249.953125 118.5 251.976562 116.015625 C 253.003906 114.742188 253.828125 113.273438 254.34375 111.730469 C 254.851562 110.183594 255.089844 108.589844 255.109375 107.042969 C 255.144531 103.9375 254.445312 101 253.261719 98.300781 C 253.195312 98.148438 253.050781 98.042969 252.875 98.035156 C 252.628906 98.023438 252.425781 98.214844 252.414062 98.457031 L 252.414062 98.464844 L 252.230469 102.71875 C 252.140625 104.101562 252.011719 105.453125 251.78125 106.746094 C 251.550781 108.039062 251.226562 109.269531 250.757812 110.40625 C 250.28125 111.539062 249.671875 112.574219 248.914062 113.53125 C 247.339844 115.484375 245.359375 117.078125 243.011719 118.238281 C 240.671875 119.402344 238.015625 120.199219 235.195312 120.679688 Z M 210.375 60.53125 C 210.464844 60.542969 210.558594 60.503906 210.613281 60.425781 C 210.691406 60.3125 210.664062 60.160156 210.550781 60.082031 C 209.148438 59.101562 207.597656 58.453125 206.019531 57.863281 C 204.429688 57.300781 202.792969 56.886719 201.128906 56.597656 C 199.46875 56.300781 197.78125 56.167969 196.09375 56.113281 C 194.410156 56.09375 192.695312 56.167969 191.046875 56.363281 C 187.746094 56.730469 184.40625 57.402344 181.234375 58.636719 C 178.074219 59.871094 175.101562 61.660156 172.730469 64.027344 C 172.609375 64.152344 172.566406 64.34375 172.636719 64.511719 C 172.734375 64.734375 172.992188 64.839844 173.214844 64.742188 C 176.21875 63.460938 179.171875 62.4375 182.207031 61.746094 C 185.234375 61.039062 188.324219 60.609375 191.46875 60.277344 C 192.261719 60.191406 193.035156 60.140625 193.808594 60.0625 C 194.582031 59.996094 195.359375 59.96875 196.136719 59.910156 C 197.691406 59.859375 199.253906 59.808594 200.824219 59.832031 C 203.957031 59.886719 207.125 60.085938 210.359375 60.527344 Z M 205.785156 70.628906 C 205.859375 70.628906 205.933594 70.597656 205.984375 70.539062 C 206.074219 70.429688 206.0625 70.269531 205.957031 70.179688 C 205.035156 69.402344 203.996094 68.859375 202.921875 68.398438 C 201.84375 67.941406 200.722656 67.605469 199.578125 67.367188 C 197.296875 66.882812 194.90625 66.832031 192.613281 67.097656 C 190.347656 67.355469 188.039062 67.851562 185.863281 68.773438 C 183.695312 69.695312 181.675781 71.035156 180.167969 72.816406 C 180.070312 72.929688 180.035156 73.09375 180.082031 73.246094 C 180.160156 73.480469 180.414062 73.609375 180.648438 73.53125 L 180.652344 73.53125 C 182.792969 72.839844 184.796875 72.265625 186.835938 71.882812 C 188.867188 71.484375 190.925781 71.234375 193.039062 71.015625 L 194.597656 70.867188 L 196.144531 70.746094 C 197.179688 70.691406 198.21875 70.628906 199.269531 70.601562 C 201.371094 70.554688 203.503906 70.558594 205.765625 70.628906 Z M 201.707031 80.402344 C 201.75 80.394531 201.789062 80.375 201.828125 80.34375 C 201.941406 80.25 201.957031 80.078125 201.863281 79.964844 C 200.894531 78.796875 199.605469 78.160156 198.277344 77.765625 C 196.945312 77.375 195.515625 77.296875 194.171875 77.464844 C 192.855469 77.617188 191.496094 77.953125 190.230469 78.589844 C 188.976562 79.226562 187.828125 80.152344 187.113281 81.398438 C 187.0625 81.484375 187.039062 81.585938 187.050781 81.691406 C 187.082031 81.957031 187.320312 82.144531 187.585938 82.113281 L 187.597656 82.113281 C 188.945312 81.957031 190.078125 81.796875 191.203125 81.699219 L 194.597656 81.382812 C 195.179688 81.332031 195.710938 81.273438 196.273438 81.203125 C 196.832031 81.148438 197.394531 81.074219 197.96875 81 C 199.117188 80.855469 200.304688 80.683594 201.671875 80.410156 Z M 205.675781 201.882812 C 204.757812 201.878906 203.832031 201.855469 202.90625 201.863281 C 201.984375 201.910156 201.050781 201.914062 200.125 202.003906 C 199.199219 202.09375 198.265625 202.160156 197.339844 202.316406 C 196.40625 202.4375 195.484375 202.625 194.554688 202.816406 C 192.707031 203.234375 190.867188 203.769531 189.070312 204.5 C 188.171875 204.871094 187.277344 205.269531 186.402344 205.75 C 185.988281 205.964844 185.585938 206.210938 185.179688 206.460938 C 184.847656 206.257812 181.933594 205.4375 181.03125 205.066406 C 179.234375 204.335938 177.394531 203.796875 175.546875 203.382812 C 174.617188 203.191406 173.695312 203 172.761719 202.882812 C 171.839844 202.726562 170.902344 202.65625 169.976562 202.566406 C 169.050781 202.476562 168.117188 202.476562 167.195312 202.425781 C 166.269531 202.421875 165.34375 202.441406 164.425781 202.449219 C 164.152344 202.449219 163.914062 202.648438 163.871094 202.925781 C 163.824219 203.234375 164.035156 203.523438 164.34375 203.574219 L 164.375 203.578125 C 165.269531 203.71875 166.15625 203.84375 167.039062 203.992188 C 167.917969 204.1875 168.796875 204.332031 169.660156 204.5625 C 170.519531 204.789062 171.378906 204.996094 172.21875 205.28125 C 173.0625 205.535156 173.886719 205.851562 174.703125 206.160156 C 176.324219 206.816406 177.890625 207.570312 179.34375 208.460938 C 180.0625 208.90625 180.769531 209.371094 181.417969 209.882812 C 181.75 210.128906 182.054688 210.398438 182.355469 210.65625 C 182.496094 210.789062 182.652344 210.921875 182.777344 211.054688 C 182.902344 211.175781 183.054688 211.359375 183.09375 211.394531 C 183.621094 211.875 184.601562 212.957031 184.828125 213.429688 C 185.128906 212.441406 186.335938 211.472656 187.007812 210.828125 C 187.046875 210.792969 187.199219 210.609375 187.324219 210.488281 C 187.449219 210.359375 187.605469 210.226562 187.746094 210.09375 C 188.046875 209.832031 188.351562 209.5625 188.683594 209.316406 C 189.332031 208.808594 190.039062 208.339844 190.761719 207.894531 C 192.210938 207.007812 193.777344 206.253906 195.398438 205.597656 C 196.214844 205.285156 197.039062 204.96875 197.882812 204.71875 C 198.722656 204.429688 199.582031 204.222656 200.441406 203.996094 C 201.304688 203.765625 202.183594 203.621094 203.0625 203.429688 C 203.945312 203.277344 204.832031 203.152344 205.726562 203.015625 L 205.757812 203.007812 C 206.027344 202.96875 206.234375 202.734375 206.238281 202.453125 C 206.238281 202.140625 205.988281 201.886719 205.675781 201.882812 Z M 163.257812 190.273438 C 163.007812 190.183594 162.753906 190.089844 162.503906 190 C 161.628906 189.683594 160.726562 189.445312 159.84375 189.167969 C 158.949219 188.929688 158.050781 188.722656 157.160156 188.5 C 156.894531 188.433594 156.613281 188.566406 156.503906 188.824219 C 156.378906 189.109375 156.511719 189.441406 156.796875 189.566406 L 156.828125 189.582031 C 157.65625 189.9375 158.488281 190.28125 159.304688 190.648438 C 160.105469 191.054688 160.921875 191.414062 161.699219 191.851562 C 162.476562 192.285156 163.257812 192.699219 163.996094 193.1875 C 164.753906 193.640625 165.46875 194.152344 166.183594 194.660156 C 166.441406 194.847656 166.691406 195.042969 166.941406 195.238281 C 165.625 193.761719 164.378906 192.113281 163.257812 190.273438 Z M 204.277344 185.359375 C 203.367188 185.492188 202.449219 185.605469 201.535156 185.753906 C 200.628906 185.9375 199.710938 186.078125 198.804688 186.304688 C 197.902344 186.53125 196.988281 186.738281 196.097656 187.03125 C 195.191406 187.289062 194.308594 187.613281 193.417969 187.9375 C 191.65625 188.625 189.914062 189.429688 188.246094 190.421875 C 187.734375 190.726562 187.230469 191.058594 186.734375 191.394531 C 186.605469 191.917969 186.484375 192.472656 186.367188 193.0625 C 186.160156 194.382812 185.902344 196.046875 185.65625 197.710938 C 185.625 197.957031 185.597656 198.207031 185.570312 198.457031 C 186.199219 197.949219 187.308594 196.738281 187.410156 196.601562 C 187.511719 196.453125 187.648438 196.300781 187.769531 196.148438 C 188.027344 195.84375 188.289062 195.535156 188.582031 195.242188 C 189.144531 194.640625 189.773438 194.074219 190.421875 193.527344 C 191.726562 192.429688 193.164062 191.453125 194.667969 190.5625 C 195.429688 190.132812 196.195312 189.699219 196.996094 189.324219 C 197.777344 188.914062 198.601562 188.582031 199.417969 188.230469 C 200.234375 187.875 201.085938 187.597656 201.921875 187.277344 C 202.773438 186.996094 203.632812 186.742188 204.496094 186.472656 L 204.527344 186.460938 C 204.785156 186.378906 204.957031 186.121094 204.917969 185.839844 C 204.871094 185.53125 204.585938 185.316406 204.277344 185.359375 Z M 240.871094 195.316406 C 239.960938 195.445312 239.046875 195.5625 238.128906 195.707031 C 237.226562 195.890625 236.304688 196.03125 235.402344 196.261719 C 234.496094 196.484375 233.582031 196.695312 232.691406 196.984375 C 231.789062 197.242188 230.902344 197.566406 230.015625 197.894531 C 228.320312 198.554688 226.652344 199.324219 225.042969 200.261719 L 223.730469 206.867188 C 223.875 206.710938 223.976562 206.59375 224.003906 206.558594 C 224.109375 206.40625 224.242188 206.253906 224.363281 206.101562 C 224.621094 205.800781 224.882812 205.488281 225.175781 205.195312 C 225.738281 204.59375 226.367188 204.027344 227.015625 203.480469 C 228.320312 202.386719 229.757812 201.40625 231.261719 200.515625 C 232.023438 200.085938 232.789062 199.652344 233.589844 199.277344 C 234.375 198.867188 235.195312 198.535156 236.011719 198.183594 C 236.828125 197.828125 237.679688 197.554688 238.515625 197.234375 C 239.367188 196.953125 240.226562 196.695312 241.089844 196.425781 L 241.121094 196.414062 C 241.382812 196.332031 241.550781 196.074219 241.511719 195.796875 C 241.46875 195.484375 241.179688 195.269531 240.871094 195.316406 Z M 251.800781 216.972656 L 251.777344 216.996094 C 251.679688 217.082031 251.632812 217.21875 251.664062 217.355469 C 251.710938 217.546875 251.90625 217.664062 252.101562 217.617188 C 256.375 216.554688 260.214844 214.070312 263.292969 210.714844 C 263.519531 210.464844 263.742188 210.207031 263.960938 209.945312 C 262.796875 208.683594 261.597656 207.582031 260.378906 206.636719 C 260.140625 207.070312 259.894531 207.5 259.632812 207.925781 C 257.621094 211.175781 254.9375 214.207031 251.800781 216.972656 Z M 278.835938 148.601562 C 278.765625 148.792969 278.699219 148.984375 278.625 149.175781 C 276.703125 154.214844 273.792969 159.128906 270.1875 163.800781 L 270.15625 163.839844 C 270.046875 163.984375 270.015625 164.1875 270.097656 164.363281 C 270.21875 164.621094 270.519531 164.730469 270.773438 164.613281 C 276.03125 162.175781 280.441406 158.121094 283.746094 153.152344 C 282.085938 151.453125 280.4375 149.945312 278.835938 148.601562 Z M 294.378906 167.039062 C 289.652344 172.082031 283.847656 176.527344 277.339844 180.359375 L 277.285156 180.390625 C 277.078125 180.515625 276.945312 180.742188 276.957031 181 C 276.976562 181.367188 277.289062 181.648438 277.65625 181.628906 C 284.976562 181.242188 292.066406 178.628906 298.335938 174.449219 C 297.078125 171.796875 295.753906 169.328125 294.378906 167.039062 Z M 307.960938 207.996094 C 303.773438 208.523438 299.371094 208.546875 294.863281 208.140625 L 294.816406 208.136719 C 294.636719 208.121094 294.453125 208.203125 294.347656 208.367188 C 294.195312 208.601562 294.265625 208.914062 294.5 209.0625 C 298.683594 211.742188 303.539062 213.246094 308.601562 213.675781 C 308.453125 211.875 308.238281 209.980469 307.960938 207.996094 Z M 303.589844 188.109375 C 299.070312 190.140625 294.121094 191.652344 288.898438 192.691406 L 288.84375 192.703125 C 288.644531 192.742188 288.46875 192.890625 288.410156 193.101562 C 288.320312 193.40625 288.496094 193.722656 288.796875 193.808594 C 294.105469 195.355469 299.753906 195.453125 305.296875 194.363281 C 304.769531 192.199219 304.199219 190.113281 303.589844 188.109375 Z M 278.113281 229.792969 C 276.230469 232.664062 273.871094 235.398438 271.144531 237.96875 L 271.117188 237.996094 C 271.007812 238.097656 270.96875 238.253906 271.027344 238.402344 C 271.109375 238.617188 271.367188 238.742188 271.597656 238.675781 C 275.308594 237.640625 278.640625 235.765625 281.472656 233.3125 C 280.34375 232.347656 279.230469 231.160156 278.113281 229.792969 Z M 267.835938 222.117188 C 267.699219 222.0625 267.546875 222.089844 267.441406 222.183594 L 267.410156 222.207031 C 264.371094 224.820312 261.15625 227.023438 257.832031 228.652344 C 258.699219 229.984375 259.550781 231.292969 260.378906 232.5625 C 263.78125 229.902344 266.488281 226.527344 268.054688 222.621094 C 268.132812 222.421875 268.035156 222.195312 267.835938 222.117188 Z M 267.835938 222.117188 " fill-opacity="1" fill-rule="nonzero"/></svg>