<svg xmlns="http://www.w3.org/2000/svg" xmlns:xlink="http://www.w3.org/1999/xlink" width="559" zoomAndPan="magnify" viewBox="0 0 419.25 297.749993" height="396" preserveAspectRatio="xMidYMid meet" version="1.0"><defs><clipPath id="id1"><path d="M 0 0.140625 L 418.5 0.140625 L 418.5 297.359375 L 0 297.359375 Z M 0 0.140625 " clip-rule="nonzero"/></clipPath><clipPath id="id2"><path d="M 123 35 L 296 35 L 296 267.175781 L 123 267.175781 Z M 123 35 " clip-rule="nonzero"/></clipPath><clipPath id="id3"><path d="M 163 113 L 261 113 L 261 267.175781 L 163 267.175781 Z M 163 113 " clip-rule="nonzero"/></clipPath></defs><g clip-path="url(#id1)"><path fill="#38b6ff" d="M 0 0.140625 L 418.5 0.140625 L 418.5 297.359375 L 0 297.359375 Z M 0 0.140625 " fill-opacity="1" fill-rule="nonzero"/><path fill="#ffffff" d="M 0 0.140625 L 418.5 0.140625 L 418.5 297.359375 L 0 297.359375 Z M 0 0.140625 " fill-opacity="1" fill-rule="nonzero"/><path fill="#38b6ff" d="M 0 0.140625 L 418.5 0.140625 L 418.5 297.359375 L 0 297.359375 Z M 0 0.140625 " fill-opacity="1" fill-rule="nonzero"/></g><g clip-path="url(#id2)"><path fill="#fdcdb9" d="M 291.34375 172.203125 C 283.535156 177.773438 278.570312 171.332031 273.183594 178.953125 C 267.800781 186.578125 273.59375 198.289062 264.210938 202.71875 C 253.347656 207.84375 241.355469 193.0625 231.589844 196.367188 C 232.617188 202.011719 233.28125 205.882812 233.28125 205.882812 C 233.28125 205.882812 237.832031 213.546875 240.476562 219.070312 C 243.121094 224.589844 240.65625 231.894531 238.628906 232.714844 C 236.597656 233.53125 235.871094 226.402344 235.871094 226.402344 C 235.871094 226.402344 234.769531 232.328125 232.402344 233.597656 C 233.03125 241.902344 233.109375 249.109375 233.109375 249.109375 C 233.109375 249.109375 235.433594 250.238281 238.050781 251.90625 C 238.484375 252.183594 238.929688 252.476562 239.371094 252.785156 C 239.59375 252.9375 239.816406 253.09375 240.035156 253.25 C 240.695312 253.726562 241.339844 254.226562 241.941406 254.742188 C 242.539062 255.261719 243.09375 255.792969 243.574219 256.328125 C 243.890625 256.6875 244.175781 257.050781 244.417969 257.410156 C 244.539062 257.589844 244.648438 257.773438 244.746094 257.953125 C 245.039062 258.492188 245.222656 259.03125 245.265625 259.558594 C 245.292969 259.910156 245.261719 260.253906 245.15625 260.59375 C 245 261.097656 244.679688 261.585938 244.167969 262.046875 C 241.175781 264.738281 213.472656 265.082031 210.183594 262.613281 C 210.082031 262.539062 209.984375 262.441406 209.890625 262.328125 C 209.855469 262.289062 209.828125 262.238281 209.796875 262.195312 C 209.734375 262.109375 209.671875 262.027344 209.613281 261.929688 C 209.578125 261.867188 209.542969 261.792969 209.507812 261.722656 C 209.457031 261.625 209.40625 261.53125 209.355469 261.421875 C 209.316406 261.339844 209.28125 261.246094 209.246094 261.15625 C 209.203125 261.046875 209.15625 260.941406 209.113281 260.824219 C 209.078125 260.71875 209.042969 260.605469 209.003906 260.496094 C 208.96875 260.378906 208.925781 260.261719 208.890625 260.136719 C 208.855469 260.011719 208.820312 259.878906 208.785156 259.75 C 208.75 259.625 208.714844 259.5 208.683594 259.371094 C 208.648438 259.226562 208.613281 259.078125 208.578125 258.925781 C 208.550781 258.796875 208.519531 258.667969 208.488281 258.53125 C 208.457031 258.367188 208.421875 258.199219 208.390625 258.03125 C 208.363281 257.898438 208.335938 257.765625 208.3125 257.628906 C 208.277344 257.449219 208.246094 257.257812 208.214844 257.070312 C 208.191406 256.941406 208.167969 256.8125 208.148438 256.679688 C 208.117188 256.476562 208.085938 256.265625 208.054688 256.054688 C 208.035156 255.929688 208.015625 255.804688 208 255.679688 C 207.964844 255.453125 207.9375 255.222656 207.90625 254.992188 C 207.890625 254.878906 207.875 254.761719 207.863281 254.644531 C 207.832031 254.394531 207.800781 254.144531 207.769531 253.890625 C 207.761719 253.789062 207.75 253.6875 207.738281 253.585938 C 207.707031 253.3125 207.679688 253.035156 207.648438 252.753906 C 207.640625 252.671875 207.632812 252.59375 207.625 252.511719 C 207.59375 252.210938 207.566406 251.910156 207.539062 251.605469 C 207.535156 251.542969 207.527344 251.480469 207.523438 251.417969 C 207.496094 251.09375 207.464844 250.765625 207.441406 250.433594 C 207.4375 250.402344 207.433594 250.367188 207.433594 250.335938 C 207.40625 249.980469 207.378906 249.621094 207.351562 249.265625 C 207.351562 249.265625 207.351562 249.261719 207.351562 249.261719 C 206.890625 242.734375 206.890625 236.300781 206.890625 236.300781 L 199.589844 229.941406 C 199.6875 235.410156 196.753906 240.636719 194.808594 241.125 C 192.414062 241.722656 192.710938 233.652344 192.710938 233.652344 C 192.710938 233.652344 192.039062 235.671875 190.945312 237.636719 C 191.296875 245.574219 191.417969 252.398438 191.417969 252.398438 C 191.417969 252.398438 192.683594 252.988281 194.402344 253.941406 C 195.183594 254.375 196.054688 254.882812 196.945312 255.445312 C 197.382812 255.722656 197.824219 256.015625 198.257812 256.316406 C 198.695312 256.617188 199.125 256.925781 199.542969 257.246094 C 199.957031 257.566406 200.359375 257.894531 200.738281 258.226562 C 201.117188 258.5625 201.46875 258.898438 201.792969 259.242188 C 202.113281 259.582031 202.402344 259.929688 202.648438 260.273438 C 202.773438 260.445312 202.882812 260.617188 202.984375 260.792969 C 203.492188 261.65625 203.703125 262.511719 203.484375 263.328125 C 203.351562 263.816406 203.0625 264.289062 202.585938 264.738281 C 202.347656 264.960938 201.863281 265.175781 201.175781 265.375 C 200.488281 265.578125 199.597656 265.765625 198.554688 265.9375 C 197.507812 266.109375 196.304688 266.265625 194.988281 266.40625 C 194.109375 266.5 193.183594 266.582031 192.21875 266.65625 C 191.253906 266.734375 190.25 266.796875 189.226562 266.855469 C 188.199219 266.910156 187.152344 266.957031 186.09375 266.992188 C 184.503906 267.046875 182.890625 267.074219 181.300781 267.078125 C 173.871094 267.089844 166.898438 266.519531 164.921875 265.082031 C 164.84375 265.027344 164.773438 264.945312 164.707031 264.84375 C 164.683594 264.8125 164.664062 264.769531 164.640625 264.730469 C 164.59375 264.65625 164.550781 264.574219 164.507812 264.480469 C 164.484375 264.425781 164.460938 264.363281 164.4375 264.300781 C 164.398438 264.203125 164.359375 264.101562 164.324219 263.992188 C 164.300781 263.917969 164.28125 263.839844 164.257812 263.761719 C 164.222656 263.644531 164.191406 263.515625 164.160156 263.386719 C 164.136719 263.296875 164.117188 263.210938 164.097656 263.117188 C 164.066406 262.972656 164.035156 262.820312 164.003906 262.664062 C 163.988281 262.566406 163.96875 262.472656 163.949219 262.371094 C 163.921875 262.191406 163.890625 262.003906 163.863281 261.8125 C 163.847656 261.71875 163.832031 261.632812 163.820312 261.535156 C 163.78125 261.246094 163.742188 260.941406 163.703125 260.625 C 163.699219 260.5625 163.691406 260.492188 163.683594 260.429688 C 163.65625 260.167969 163.628906 259.90625 163.601562 259.628906 C 163.589844 259.496094 163.578125 259.355469 163.566406 259.21875 C 163.546875 259.003906 163.527344 258.785156 163.511719 258.5625 C 163.5 258.40625 163.488281 258.246094 163.476562 258.085938 C 163.460938 257.871094 163.445312 257.660156 163.429688 257.4375 C 163.421875 257.265625 163.410156 257.09375 163.398438 256.917969 C 163.386719 256.703125 163.375 256.484375 163.363281 256.269531 C 163.351562 256.082031 163.34375 255.898438 163.335938 255.710938 C 163.324219 255.488281 163.3125 255.265625 163.304688 255.039062 C 163.296875 254.855469 163.289062 254.671875 163.28125 254.484375 C 163.269531 254.234375 163.261719 253.984375 163.253906 253.730469 C 163.246094 253.5625 163.242188 253.394531 163.234375 253.226562 C 163.222656 252.84375 163.210938 252.460938 163.203125 252.078125 C 163.203125 252.050781 163.199219 252.027344 163.199219 252 C 162.992188 243.742188 163.273438 234.65625 163.273438 234.65625 C 163.273438 234.65625 139.820312 216.15625 142.289062 185.734375 C 142.320312 185.34375 142.363281 184.957031 142.410156 184.574219 C 135.066406 182.832031 127.847656 180.109375 125.027344 175.894531 C 118.003906 165.40625 132.03125 154.785156 141.707031 143.085938 C 147.527344 136.042969 150.453125 123.148438 152.777344 109.570312 C 152.667969 109.40625 152.554688 109.242188 152.457031 109.078125 C 148.027344 101.746094 150.332031 91.222656 156.550781 86.828125 C 157.332031 82.632812 158.191406 78.675781 159.207031 75.160156 C 165.042969 54.984375 180.746094 29.878906 227.863281 36.15625 C 274.980469 42.429688 289.113281 79.644531 290.347656 93.65625 C 291.582031 107.667969 287.53125 129.09375 290.238281 142.636719 C 293.191406 157.433594 300.675781 165.546875 291.34375 172.203125 Z M 291.34375 172.203125 " fill-opacity="1" fill-rule="nonzero"/></g><path fill="#c4783e" d="M 183.960938 137.070312 C 152.855469 149.25 141.558594 175.367188 141.558594 175.367188 C 141.558594 175.367188 142.449219 176.289062 144 177.769531 C 143.234375 179.976562 142.691406 182.25 142.410156 184.574219 C 135.066406 182.835938 127.847656 180.113281 125.027344 175.898438 C 118.003906 165.410156 132.03125 154.785156 141.707031 143.085938 C 147.527344 136.046875 150.453125 123.148438 152.777344 109.574219 C 157.605469 116.90625 170.277344 122.757812 173.558594 124.179688 C 176.308594 128.988281 179.847656 133.3125 183.960938 137.070312 Z M 204.421875 193.957031 C 204.421875 193.957031 207.378906 196.394531 211.335938 200 C 210.554688 194.988281 209.714844 188.972656 209.105469 182.839844 Z M 290.234375 142.636719 C 287.53125 129.09375 291.582031 107.667969 290.347656 93.65625 C 289.113281 79.644531 274.980469 42.429688 227.863281 36.15625 C 180.746094 29.878906 165.042969 54.984375 159.207031 75.160156 C 158.191406 78.679688 157.332031 82.632812 156.550781 86.828125 C 157.703125 86.011719 158.992188 85.40625 160.398438 85.074219 C 161.441406 84.824219 162.476562 84.773438 163.496094 84.867188 C 171.128906 85.570312 177.824219 94.871094 179.707031 97.730469 C 181.792969 97.433594 188.199219 96.464844 196.324219 94.664062 C 196.785156 93.25 197.453125 91.894531 198.261719 90.734375 C 201.730469 85.742188 207.203125 81.214844 207.203125 81.214844 C 207.203125 81.214844 209.222656 85.980469 210.191406 91.101562 C 225.453125 86.582031 241.660156 79.539062 246.929688 69.234375 C 246.929688 69.234375 257.878906 97.601562 273.070312 110.667969 C 271.460938 125.429688 264.414062 138.980469 251.628906 146.246094 C 242.339844 151.523438 231.945312 153.5625 221.703125 152.945312 L 221.605469 153.1875 C 222.210938 154.445312 222.808594 155.984375 223.375 157.882812 C 226.011719 166.675781 229.535156 185.078125 231.589844 196.367188 C 241.355469 193.0625 253.347656 207.84375 264.210938 202.71875 C 273.59375 198.289062 267.800781 186.578125 273.183594 178.953125 C 278.570312 171.332031 283.535156 177.773438 291.34375 172.203125 C 300.675781 165.546875 293.191406 157.433594 290.234375 142.636719 Z M 224.441406 107.78125 C 228.855469 107.25 232.285156 105.632812 232.109375 104.167969 C 231.933594 102.699219 228.214844 101.941406 223.804688 102.472656 C 219.394531 103 215.960938 104.621094 216.136719 106.085938 C 216.3125 107.550781 220.03125 108.308594 224.441406 107.78125 Z M 263.46875 116.40625 C 264.171875 115.109375 261.574219 112.34375 257.664062 110.234375 C 253.757812 108.121094 250.019531 107.464844 249.316406 108.761719 C 248.613281 110.0625 251.210938 112.824219 255.121094 114.9375 C 259.027344 117.046875 262.765625 117.707031 263.46875 116.40625 Z M 263.46875 116.40625 " fill-opacity="1" fill-rule="nonzero"/><path fill="#9ec2c1" d="M 221.703125 152.949219 L 221.601562 153.1875 L 219.644531 157.832031 L 209.105469 182.839844 L 204.421875 193.957031 C 204.421875 193.957031 200.046875 196.808594 193.59375 198.617188 C 194.203125 184.125 194.824219 160.113281 192.863281 149.8125 C 191.066406 140.394531 182.492188 141.4375 178.503906 146.222656 C 173.203125 152.578125 170.40625 178.300781 169.75 196.828125 C 159.46875 191.949219 148.703125 182.265625 144 177.769531 C 142.449219 176.289062 141.558594 175.367188 141.558594 175.367188 C 141.558594 175.367188 152.855469 149.25 183.960938 137.070312 C 194.113281 146.335938 207.757812 152.109375 221.703125 152.949219 Z M 201.277344 106.097656 C 208.722656 107.957031 211.199219 99.539062 210.566406 93.59375 C 210.476562 92.765625 210.347656 91.929688 210.191406 91.101562 C 209.222656 85.984375 207.203125 81.21875 207.203125 81.21875 C 207.203125 81.21875 201.730469 85.742188 198.261719 90.734375 C 197.453125 91.898438 196.785156 93.25 196.324219 94.664062 C 194.804688 99.328125 195.566406 104.671875 201.277344 106.097656 Z M 185.839844 116.644531 C 190.820312 117.890625 192.476562 112.265625 192.050781 108.292969 C 191.628906 104.316406 189.800781 100.019531 189.800781 100.019531 C 189.800781 100.019531 186.144531 103.042969 183.828125 106.378906 C 181.507812 109.714844 180.871094 115.40625 185.839844 116.644531 Z M 185.839844 116.644531 " fill-opacity="1" fill-rule="nonzero"/><g clip-path="url(#id3)"><path fill="#342d2a" d="M 244.746094 257.953125 C 245.039062 258.496094 245.222656 259.035156 245.265625 259.558594 C 245.292969 259.910156 245.261719 260.257812 245.15625 260.59375 C 245 261.101562 244.679688 261.589844 244.167969 262.050781 C 241.175781 264.738281 213.472656 265.082031 210.183594 262.617188 C 210.082031 262.539062 209.984375 262.441406 209.890625 262.328125 C 209.855469 262.289062 209.828125 262.238281 209.796875 262.195312 C 209.734375 262.109375 209.671875 262.027344 209.613281 261.929688 C 209.578125 261.867188 209.542969 261.792969 209.507812 261.726562 C 209.457031 261.628906 209.40625 261.535156 209.355469 261.425781 C 209.316406 261.34375 209.28125 261.246094 209.246094 261.160156 C 209.203125 261.050781 209.15625 260.941406 209.113281 260.824219 C 209.078125 260.722656 209.042969 260.609375 209.003906 260.496094 C 208.96875 260.378906 208.925781 260.265625 208.890625 260.136719 C 208.855469 260.015625 208.820312 259.882812 208.785156 259.75 C 208.75 259.625 208.714844 259.503906 208.683594 259.371094 C 208.648438 259.226562 208.613281 259.078125 208.578125 258.929688 C 208.550781 258.796875 208.519531 258.667969 208.488281 258.53125 C 208.457031 258.371094 208.421875 258.203125 208.390625 258.03125 C 208.363281 257.898438 208.335938 257.769531 208.3125 257.632812 C 208.277344 257.449219 208.246094 257.261719 208.214844 257.070312 C 208.191406 256.941406 208.167969 256.8125 208.148438 256.679688 C 208.117188 256.476562 208.085938 256.265625 208.054688 256.058594 C 208.035156 255.933594 208.015625 255.808594 208 255.679688 C 207.964844 255.453125 207.9375 255.226562 207.90625 254.996094 C 207.890625 254.878906 207.875 254.761719 207.863281 254.648438 C 207.832031 254.398438 207.800781 254.144531 207.769531 253.890625 C 207.761719 253.789062 207.75 253.6875 207.738281 253.589844 C 207.707031 253.3125 207.679688 253.035156 207.648438 252.753906 C 207.640625 252.675781 207.632812 252.59375 207.625 252.511719 C 207.59375 252.210938 207.566406 251.910156 207.539062 251.605469 C 207.535156 251.542969 207.527344 251.480469 207.523438 251.421875 C 207.496094 251.09375 207.464844 250.765625 207.441406 250.4375 C 207.4375 250.402344 207.433594 250.371094 207.433594 250.335938 C 207.40625 249.980469 207.378906 249.625 207.351562 249.265625 C 207.351562 249.265625 207.351562 249.265625 207.351562 249.261719 L 233.109375 249.109375 C 233.109375 249.109375 235.433594 250.238281 238.050781 251.90625 C 238.484375 252.183594 238.929688 252.480469 239.371094 252.785156 C 239.59375 252.9375 239.816406 253.09375 240.035156 253.25 C 240.695312 253.726562 241.339844 254.226562 241.941406 254.746094 C 242.539062 255.261719 243.09375 255.792969 243.574219 256.328125 C 243.890625 256.6875 244.175781 257.050781 244.417969 257.410156 C 244.539062 257.59375 244.648438 257.773438 244.746094 257.953125 Z M 202.648438 260.273438 C 202.402344 259.929688 202.113281 259.585938 201.792969 259.242188 C 201.148438 258.558594 200.375 257.886719 199.542969 257.25 C 199.125 256.929688 198.695312 256.617188 198.257812 256.316406 C 197.820312 256.015625 197.378906 255.726562 196.941406 255.449219 C 194.097656 253.644531 191.417969 252.398438 191.417969 252.398438 L 163.199219 252.003906 C 163.199219 252.027344 163.199219 252.054688 163.203125 252.078125 C 163.210938 252.464844 163.222656 252.847656 163.234375 253.226562 C 163.238281 253.398438 163.246094 253.5625 163.253906 253.734375 C 163.261719 253.984375 163.269531 254.238281 163.28125 254.484375 C 163.289062 254.671875 163.296875 254.855469 163.304688 255.042969 C 163.3125 255.269531 163.324219 255.492188 163.335938 255.714844 C 163.34375 255.902344 163.351562 256.085938 163.363281 256.269531 C 163.375 256.488281 163.386719 256.703125 163.398438 256.917969 C 163.410156 257.09375 163.421875 257.269531 163.429688 257.441406 C 163.445312 257.660156 163.460938 257.875 163.476562 258.089844 C 163.488281 258.246094 163.5 258.40625 163.511719 258.5625 C 163.527344 258.789062 163.546875 259.003906 163.566406 259.222656 C 163.578125 259.359375 163.589844 259.5 163.601562 259.632812 C 163.628906 259.90625 163.65625 260.171875 163.683594 260.429688 C 163.691406 260.496094 163.695312 260.566406 163.703125 260.628906 C 163.742188 260.945312 163.78125 261.246094 163.820312 261.539062 C 163.832031 261.632812 163.847656 261.722656 163.863281 261.8125 C 163.890625 262.003906 163.917969 262.195312 163.949219 262.371094 C 163.96875 262.476562 163.988281 262.570312 164.003906 262.667969 C 164.035156 262.824219 164.0625 262.976562 164.09375 263.117188 C 164.117188 263.210938 164.136719 263.300781 164.15625 263.386719 C 164.191406 263.519531 164.222656 263.644531 164.257812 263.761719 C 164.277344 263.84375 164.300781 263.921875 164.324219 263.992188 C 164.359375 264.105469 164.398438 264.207031 164.4375 264.304688 C 164.460938 264.363281 164.484375 264.425781 164.507812 264.480469 C 164.550781 264.578125 164.59375 264.65625 164.640625 264.734375 C 164.660156 264.769531 164.683594 264.816406 164.707031 264.847656 C 164.773438 264.945312 164.84375 265.027344 164.917969 265.082031 C 166.898438 266.523438 173.871094 267.09375 181.296875 267.082031 C 182.890625 267.078125 184.503906 267.046875 186.09375 266.996094 C 187.152344 266.957031 188.199219 266.914062 189.226562 266.855469 C 190.25 266.800781 191.253906 266.734375 192.214844 266.660156 C 193.179688 266.582031 194.109375 266.5 194.988281 266.40625 C 196.304688 266.269531 197.507812 266.113281 198.554688 265.941406 C 200.644531 265.59375 202.109375 265.1875 202.585938 264.738281 C 203.0625 264.289062 203.351562 263.816406 203.484375 263.328125 C 203.703125 262.515625 203.488281 261.65625 202.984375 260.792969 C 202.882812 260.621094 202.769531 260.449219 202.648438 260.273438 Z M 215.664062 120.003906 C 216.535156 120.429688 217.371094 120.960938 218.171875 121.597656 C 219.773438 122.875 221.21875 124.535156 222.539062 126.542969 C 222.71875 124.109375 221.890625 121.625 220.371094 119.539062 C 219.597656 118.511719 218.648438 117.570312 217.539062 116.839844 C 216.417969 116.082031 215.289062 115.59375 214.121094 115.148438 C 211.792969 114.328125 209.410156 113.917969 207.03125 113.835938 C 204.65625 113.773438 202.273438 113.960938 199.9375 114.722656 C 202.1875 115.667969 204.375 116.339844 206.53125 116.980469 C 208.683594 117.625 210.796875 118.210938 212.8125 118.878906 C 213.785156 119.238281 214.808594 119.585938 215.664062 120.003906 Z M 257.984375 125.175781 C 257.117188 124.476562 256.0625 123.921875 254.933594 123.652344 C 253.777344 123.375 252.8125 123.347656 251.769531 123.34375 C 249.738281 123.398438 247.804688 123.820312 245.984375 124.5 C 245.21875 124.792969 244.46875 125.140625 243.742188 125.53125 C 243.652344 125.355469 243.554688 125.1875 243.441406 125.027344 C 243.058594 124.496094 242.574219 124.070312 242.066406 123.769531 C 241.042969 123.164062 239.976562 122.933594 238.957031 122.832031 C 236.910156 122.667969 234.945312 122.972656 233.113281 123.683594 C 235.042969 123.953125 236.921875 124.175781 238.621094 124.667969 C 239.460938 124.914062 240.257812 125.230469 240.835938 125.65625 C 241.304688 126.007812 241.808594 126.570312 241.824219 127.554688 C 241.816406 128.726562 241.054688 130.042969 239.949219 131.207031 C 238.75 132.523438 237.292969 133.710938 235.792969 134.960938 C 237.726562 134.605469 239.554688 133.804688 241.199219 132.601562 C 242.019531 131.996094 242.789062 131.25 243.378906 130.285156 C 243.84375 129.539062 244.167969 128.605469 244.203125 127.628906 C 245.023438 127.625 245.832031 127.601562 246.628906 127.570312 L 251.871094 127.308594 C 252.285156 127.300781 252.707031 127.289062 253.109375 127.292969 L 253.714844 127.296875 C 253.914062 127.304688 254.074219 127.308594 254.253906 127.320312 C 254.953125 127.378906 255.648438 127.527344 256.363281 127.796875 C 257.796875 128.328125 259.253906 129.320312 260.757812 130.640625 C 260.703125 128.609375 259.703125 126.609375 257.984375 125.175781 Z M 223.152344 142.527344 C 223.414062 143.78125 223.570312 144.972656 223.648438 146.089844 C 227.183594 144.800781 230.5625 140.863281 229.871094 138.316406 C 229.390625 136.554688 225.730469 135.503906 220.871094 136.855469 C 221.792969 138.296875 222.652344 140.15625 223.152344 142.527344 Z M 223.152344 142.527344 " fill-opacity="1" fill-rule="nonzero"/></g><path fill="#ea6648" d="M 193.515625 253.457031 C 192.820312 253.089844 192.25 252.800781 191.878906 252.621094 C 192.25 252.800781 192.820312 253.089844 193.515625 253.457031 Z M 163.203125 252.078125 C 163.203125 252.054688 163.199219 252.027344 163.199219 252.003906 C 163.199219 252.027344 163.203125 252.054688 163.203125 252.078125 Z M 190.945312 237.636719 C 189.738281 239.808594 188.015625 241.910156 186.132812 241.125 C 182.542969 239.632812 184.636719 230.367188 184.636719 230.367188 C 184.636719 230.367188 180.746094 241.722656 177.15625 239.332031 C 173.566406 236.941406 175.960938 226.179688 175.960938 226.179688 C 175.960938 226.179688 170.1875 223.535156 169.679688 209.742188 C 169.550781 206.308594 169.574219 201.832031 169.75 196.828125 C 159.46875 191.949219 148.703125 182.265625 144 177.769531 C 143.234375 179.976562 142.691406 182.246094 142.410156 184.574219 C 142.367188 184.960938 142.320312 185.347656 142.289062 185.734375 C 139.820312 216.15625 163.273438 234.660156 163.273438 234.660156 C 163.273438 234.660156 162.992188 243.746094 163.203125 252.003906 L 191.417969 252.398438 C 191.417969 252.398438 191.585938 252.476562 191.882812 252.621094 C 191.585938 252.476562 191.417969 252.398438 191.417969 252.398438 C 191.417969 252.398438 191.296875 245.578125 190.945312 237.636719 Z M 194.402344 253.941406 C 194.089844 253.769531 193.792969 253.605469 193.515625 253.457031 C 193.792969 253.605469 194.089844 253.769531 194.402344 253.941406 Z M 232.402344 233.597656 C 231.976562 233.828125 231.511719 233.90625 231.003906 233.773438 C 227.667969 232.898438 228.371094 224.503906 228.371094 224.503906 C 228.371094 224.503906 226.347656 234.957031 222.898438 233.296875 C 219.453125 231.632812 220.238281 221.886719 220.238281 221.886719 C 220.238281 221.886719 214.84375 220.265625 212.703125 208.210938 C 212.324219 206.058594 211.839844 203.238281 211.335938 200 C 207.375 196.394531 204.421875 193.957031 204.421875 193.957031 C 204.421875 193.957031 200.046875 196.808594 193.59375 198.617188 C 193.300781 205.574219 193.011719 210.339844 193.011719 210.339844 C 193.011719 210.339844 196.898438 219.605469 198.996094 226.179688 C 199.386719 227.410156 199.566406 228.683594 199.589844 229.941406 L 206.890625 236.304688 C 206.890625 236.304688 206.890625 242.734375 207.351562 249.261719 L 233.109375 249.109375 C 233.109375 249.109375 233.03125 241.902344 232.402344 233.597656 Z M 223.355469 146.203125 C 223.453125 146.171875 223.550781 146.128906 223.648438 146.089844 C 223.570312 144.972656 223.414062 143.78125 223.152344 142.527344 C 222.652344 140.15625 221.792969 138.292969 220.871094 136.855469 C 220.699219 136.902344 220.53125 136.945312 220.355469 137 C 215.917969 138.363281 214.558594 141.160156 215.128906 143.199219 C 215.792969 145.585938 219.121094 147.566406 223.355469 146.203125 Z M 223.355469 146.203125 " fill-opacity="1" fill-rule="nonzero"/></svg>