<svg xmlns="http://www.w3.org/2000/svg" xmlns:xlink="http://www.w3.org/1999/xlink" width="559" zoomAndPan="magnify" viewBox="0 0 419.25 297.749993" height="396" preserveAspectRatio="xMidYMid meet" version="1.0"><defs><clipPath id="id1"><path d="M 0 0.140625 L 418.5 0.140625 L 418.5 297.359375 L 0 297.359375 Z M 0 0.140625 " clip-rule="nonzero"/></clipPath><clipPath id="id2"><path d="M 103 235 L 319 235 L 319 247.035156 L 103 247.035156 Z M 103 235 " clip-rule="nonzero"/></clipPath><clipPath id="id3"><path d="M 133 50.136719 L 182 50.136719 L 182 75 L 133 75 Z M 133 50.136719 " clip-rule="nonzero"/></clipPath></defs><g clip-path="url(#id1)"><path fill="#ff914d" d="M 0 0.140625 L 418.5 0.140625 L 418.5 297.359375 L 0 297.359375 Z M 0 0.140625 " fill-opacity="1" fill-rule="nonzero"/><path fill="#ffffff" d="M 0 0.140625 L 418.5 0.140625 L 418.5 297.359375 L 0 297.359375 Z M 0 0.140625 " fill-opacity="1" fill-rule="nonzero"/><path fill="#ff914d" d="M 0 0.140625 L 418.5 0.140625 L 418.5 297.359375 L 0 297.359375 Z M 0 0.140625 " fill-opacity="1" fill-rule="nonzero"/></g><g clip-path="url(#id2)"><path fill="#939598" d="M 103.371094 235.101562 L 318.75 235.101562 L 318.75 247.035156 L 103.371094 247.035156 Z M 103.371094 235.101562 " fill-opacity="1" fill-rule="nonzero"/></g><path fill="#231f20" d="M 139.265625 193.335938 L 312.769531 193.335938 L 312.769531 223.167969 L 139.265625 223.167969 Z M 139.265625 193.335938 " fill-opacity="1" fill-rule="nonzero"/><path fill="#58595b" d="M 163.191406 223.167969 C 163.191406 223.753906 163.164062 224.339844 163.105469 224.921875 C 163.046875 225.503906 162.960938 226.085938 162.847656 226.660156 C 162.734375 227.234375 162.589844 227.804688 162.417969 228.363281 C 162.25 228.925781 162.050781 229.476562 161.824219 230.019531 C 161.601562 230.558594 161.351562 231.089844 161.074219 231.605469 C 160.796875 232.121094 160.492188 232.625 160.167969 233.113281 C 159.839844 233.601562 159.492188 234.070312 159.117188 234.523438 C 158.746094 234.976562 158.351562 235.410156 157.933594 235.824219 C 157.519531 236.238281 157.085938 236.632812 156.628906 237.003906 C 156.175781 237.375 155.703125 237.726562 155.214844 238.050781 C 154.726562 238.375 154.222656 238.675781 153.703125 238.953125 C 153.1875 239.230469 152.65625 239.480469 152.113281 239.703125 C 151.570312 239.929688 151.015625 240.125 150.453125 240.296875 C 149.890625 240.46875 149.320312 240.609375 148.746094 240.722656 C 148.167969 240.839844 147.589844 240.925781 147.003906 240.980469 C 146.417969 241.039062 145.832031 241.066406 145.242188 241.066406 C 144.65625 241.066406 144.070312 241.039062 143.484375 240.980469 C 142.898438 240.925781 142.320312 240.839844 141.742188 240.722656 C 141.164062 240.609375 140.597656 240.46875 140.035156 240.296875 C 139.472656 240.125 138.917969 239.929688 138.375 239.703125 C 137.832031 239.480469 137.300781 239.230469 136.785156 238.953125 C 136.265625 238.675781 135.761719 238.375 135.273438 238.050781 C 134.785156 237.726562 134.3125 237.375 133.859375 237.003906 C 133.402344 236.632812 132.96875 236.238281 132.550781 235.824219 C 132.136719 235.410156 131.742188 234.976562 131.371094 234.523438 C 130.996094 234.070312 130.648438 233.601562 130.320312 233.113281 C 129.992188 232.625 129.691406 232.121094 129.414062 231.605469 C 129.136719 231.089844 128.886719 230.558594 128.660156 230.019531 C 128.4375 229.476562 128.238281 228.925781 128.070312 228.363281 C 127.898438 227.804688 127.753906 227.234375 127.640625 226.660156 C 127.527344 226.085938 127.441406 225.503906 127.382812 224.921875 C 127.324219 224.339844 127.296875 223.753906 127.296875 223.167969 C 127.296875 222.582031 127.324219 221.996094 127.382812 221.414062 C 127.441406 220.828125 127.527344 220.25 127.640625 219.675781 C 127.753906 219.101562 127.898438 218.53125 128.070312 217.972656 C 128.238281 217.410156 128.4375 216.859375 128.660156 216.316406 C 128.886719 215.777344 129.136719 215.246094 129.414062 214.730469 C 129.691406 214.210938 129.992188 213.710938 130.320312 213.222656 C 130.648438 212.734375 130.996094 212.265625 131.371094 211.8125 C 131.742188 211.359375 132.136719 210.925781 132.550781 210.511719 C 132.96875 210.097656 133.402344 209.703125 133.859375 209.332031 C 134.3125 208.960938 134.785156 208.609375 135.273438 208.285156 C 135.761719 207.957031 136.265625 207.65625 136.785156 207.382812 C 137.300781 207.105469 137.832031 206.855469 138.375 206.628906 C 138.917969 206.40625 139.472656 206.207031 140.035156 206.039062 C 140.597656 205.867188 141.164062 205.726562 141.742188 205.613281 C 142.320312 205.496094 142.898438 205.410156 143.484375 205.355469 C 144.070312 205.296875 144.65625 205.269531 145.242188 205.269531 C 145.832031 205.269531 146.417969 205.296875 147.003906 205.355469 C 147.589844 205.410156 148.167969 205.496094 148.746094 205.613281 C 149.320312 205.726562 149.890625 205.867188 150.453125 206.039062 C 151.015625 206.207031 151.570312 206.40625 152.113281 206.628906 C 152.65625 206.855469 153.1875 207.105469 153.703125 207.382812 C 154.222656 207.65625 154.726562 207.957031 155.214844 208.285156 C 155.703125 208.609375 156.175781 208.960938 156.628906 209.332031 C 157.085938 209.703125 157.519531 210.097656 157.933594 210.511719 C 158.351562 210.925781 158.746094 211.359375 159.117188 211.8125 C 159.492188 212.265625 159.839844 212.734375 160.167969 213.222656 C 160.492188 213.710938 160.796875 214.210938 161.074219 214.730469 C 161.351562 215.246094 161.601562 215.777344 161.824219 216.316406 C 162.050781 216.859375 162.25 217.410156 162.417969 217.972656 C 162.589844 218.53125 162.734375 219.101562 162.847656 219.675781 C 162.960938 220.25 163.046875 220.828125 163.105469 221.414062 C 163.164062 221.996094 163.191406 222.582031 163.191406 223.167969 Z M 163.191406 223.167969 " fill-opacity="1" fill-rule="nonzero"/><path fill="#58595b" d="M 199.089844 223.167969 C 199.089844 223.753906 199.058594 224.339844 199.003906 224.921875 C 198.945312 225.503906 198.859375 226.085938 198.742188 226.660156 C 198.628906 227.234375 198.488281 227.804688 198.316406 228.363281 C 198.144531 228.925781 197.949219 229.476562 197.722656 230.019531 C 197.496094 230.558594 197.246094 231.089844 196.96875 231.605469 C 196.691406 232.121094 196.390625 232.625 196.0625 233.113281 C 195.738281 233.601562 195.386719 234.070312 195.015625 234.523438 C 194.640625 234.976562 194.246094 235.410156 193.832031 235.824219 C 193.417969 236.238281 192.980469 236.632812 192.527344 237.003906 C 192.074219 237.375 191.601562 237.726562 191.113281 238.050781 C 190.625 238.375 190.121094 238.675781 189.601562 238.953125 C 189.082031 239.230469 188.550781 239.480469 188.007812 239.703125 C 187.464844 239.929688 186.914062 240.125 186.351562 240.296875 C 185.789062 240.46875 185.21875 240.609375 184.640625 240.722656 C 184.066406 240.839844 183.484375 240.925781 182.898438 240.980469 C 182.316406 241.039062 181.726562 241.066406 181.140625 241.066406 C 180.554688 241.066406 179.964844 241.039062 179.382812 240.980469 C 178.796875 240.925781 178.214844 240.839844 177.640625 240.722656 C 177.0625 240.609375 176.492188 240.46875 175.929688 240.296875 C 175.367188 240.125 174.816406 239.929688 174.273438 239.703125 C 173.730469 239.480469 173.199219 239.230469 172.679688 238.953125 C 172.160156 238.675781 171.65625 238.375 171.167969 238.050781 C 170.679688 237.726562 170.207031 237.375 169.753906 237.003906 C 169.300781 236.632812 168.863281 236.238281 168.449219 235.824219 C 168.035156 235.410156 167.640625 234.976562 167.265625 234.523438 C 166.894531 234.070312 166.542969 233.601562 166.21875 233.113281 C 165.890625 232.625 165.589844 232.121094 165.3125 231.605469 C 165.035156 231.089844 164.785156 230.558594 164.558594 230.019531 C 164.332031 229.476562 164.136719 228.925781 163.964844 228.363281 C 163.792969 227.804688 163.652344 227.234375 163.539062 226.660156 C 163.421875 226.085938 163.335938 225.503906 163.277344 224.921875 C 163.222656 224.339844 163.191406 223.753906 163.191406 223.167969 C 163.191406 222.582031 163.222656 221.996094 163.277344 221.414062 C 163.335938 220.828125 163.421875 220.25 163.539062 219.675781 C 163.652344 219.101562 163.792969 218.53125 163.964844 217.972656 C 164.136719 217.410156 164.332031 216.859375 164.558594 216.316406 C 164.785156 215.777344 165.035156 215.246094 165.3125 214.730469 C 165.589844 214.210938 165.890625 213.710938 166.21875 213.222656 C 166.542969 212.734375 166.894531 212.265625 167.265625 211.8125 C 167.640625 211.359375 168.035156 210.925781 168.449219 210.511719 C 168.863281 210.097656 169.300781 209.703125 169.753906 209.332031 C 170.207031 208.960938 170.679688 208.609375 171.167969 208.285156 C 171.65625 207.957031 172.160156 207.65625 172.679688 207.382812 C 173.199219 207.105469 173.730469 206.855469 174.273438 206.628906 C 174.816406 206.40625 175.367188 206.207031 175.929688 206.039062 C 176.492188 205.867188 177.0625 205.726562 177.640625 205.613281 C 178.214844 205.496094 178.796875 205.410156 179.382812 205.355469 C 179.964844 205.296875 180.554688 205.269531 181.140625 205.269531 C 181.726562 205.269531 182.316406 205.296875 182.898438 205.355469 C 183.484375 205.410156 184.066406 205.496094 184.640625 205.613281 C 185.21875 205.726562 185.789062 205.867188 186.351562 206.039062 C 186.914062 206.207031 187.464844 206.40625 188.007812 206.628906 C 188.550781 206.855469 189.082031 207.105469 189.601562 207.382812 C 190.121094 207.65625 190.625 207.957031 191.113281 208.285156 C 191.601562 208.609375 192.074219 208.960938 192.527344 209.332031 C 192.980469 209.703125 193.417969 210.097656 193.832031 210.511719 C 194.246094 210.925781 194.640625 211.359375 195.015625 211.8125 C 195.386719 212.265625 195.738281 212.734375 196.0625 213.222656 C 196.390625 213.710938 196.691406 214.210938 196.96875 214.730469 C 197.246094 215.246094 197.496094 215.777344 197.722656 216.316406 C 197.949219 216.859375 198.144531 217.410156 198.316406 217.972656 C 198.488281 218.53125 198.628906 219.101562 198.742188 219.675781 C 198.859375 220.25 198.945312 220.828125 199.003906 221.414062 C 199.058594 221.996094 199.089844 222.582031 199.089844 223.167969 Z M 199.089844 223.167969 " fill-opacity="1" fill-rule="nonzero"/><path fill="#a0041e" d="M 154.21875 223.167969 C 154.21875 223.753906 154.160156 224.335938 154.046875 224.914062 C 153.929688 225.488281 153.761719 226.050781 153.535156 226.59375 C 153.308594 227.136719 153.03125 227.652344 152.707031 228.140625 C 152.378906 228.628906 152.007812 229.082031 151.589844 229.496094 C 151.171875 229.910156 150.71875 230.28125 150.230469 230.609375 C 149.738281 230.9375 149.222656 231.210938 148.679688 231.4375 C 148.132812 231.660156 147.574219 231.832031 146.996094 231.945312 C 146.417969 232.058594 145.832031 232.117188 145.242188 232.117188 C 144.65625 232.117188 144.070312 232.058594 143.492188 231.945312 C 142.914062 231.832031 142.355469 231.660156 141.808594 231.4375 C 141.265625 231.210938 140.75 230.9375 140.257812 230.609375 C 139.769531 230.28125 139.316406 229.910156 138.898438 229.496094 C 138.480469 229.082031 138.109375 228.628906 137.78125 228.140625 C 137.453125 227.652344 137.179688 227.136719 136.953125 226.59375 C 136.726562 226.050781 136.558594 225.488281 136.441406 224.914062 C 136.328125 224.335938 136.269531 223.753906 136.269531 223.167969 C 136.269531 222.582031 136.328125 222 136.441406 221.421875 C 136.558594 220.84375 136.726562 220.285156 136.953125 219.742188 C 137.179688 219.199219 137.453125 218.683594 137.78125 218.195312 C 138.109375 217.707031 138.480469 217.253906 138.898438 216.839844 C 139.316406 216.421875 139.769531 216.050781 140.257812 215.726562 C 140.75 215.398438 141.265625 215.125 141.808594 214.898438 C 142.355469 214.675781 142.914062 214.503906 143.492188 214.390625 C 144.070312 214.273438 144.65625 214.21875 145.242188 214.21875 C 145.832031 214.21875 146.417969 214.273438 146.996094 214.390625 C 147.574219 214.503906 148.132812 214.675781 148.679688 214.898438 C 149.222656 215.125 149.738281 215.398438 150.230469 215.726562 C 150.71875 216.050781 151.171875 216.421875 151.589844 216.839844 C 152.007812 217.253906 152.378906 217.707031 152.707031 218.195312 C 153.03125 218.683594 153.308594 219.199219 153.535156 219.742188 C 153.761719 220.285156 153.929688 220.84375 154.046875 221.421875 C 154.160156 222 154.21875 222.582031 154.21875 223.167969 Z M 154.21875 223.167969 " fill-opacity="1" fill-rule="nonzero"/><path fill="#a0041e" d="M 190.113281 223.167969 C 190.113281 223.753906 190.058594 224.335938 189.941406 224.914062 C 189.828125 225.488281 189.65625 226.050781 189.433594 226.59375 C 189.207031 227.136719 188.929688 227.652344 188.601562 228.140625 C 188.273438 228.628906 187.902344 229.082031 187.488281 229.496094 C 187.070312 229.910156 186.617188 230.28125 186.125 230.609375 C 185.636719 230.9375 185.121094 231.210938 184.574219 231.4375 C 184.03125 231.660156 183.46875 231.832031 182.890625 231.945312 C 182.3125 232.058594 181.730469 232.117188 181.140625 232.117188 C 180.550781 232.117188 179.96875 232.058594 179.390625 231.945312 C 178.8125 231.832031 178.25 231.660156 177.707031 231.4375 C 177.160156 231.210938 176.644531 230.9375 176.15625 230.609375 C 175.664062 230.28125 175.210938 229.910156 174.796875 229.496094 C 174.378906 229.082031 174.007812 228.628906 173.679688 228.140625 C 173.351562 227.652344 173.074219 227.136719 172.851562 226.59375 C 172.625 226.050781 172.453125 225.488281 172.339844 224.914062 C 172.222656 224.335938 172.167969 223.753906 172.167969 223.167969 C 172.167969 222.582031 172.222656 222 172.339844 221.421875 C 172.453125 220.84375 172.625 220.285156 172.851562 219.742188 C 173.074219 219.199219 173.351562 218.683594 173.679688 218.195312 C 174.007812 217.707031 174.378906 217.253906 174.796875 216.839844 C 175.210938 216.421875 175.664062 216.050781 176.15625 215.726562 C 176.644531 215.398438 177.160156 215.125 177.707031 214.898438 C 178.25 214.675781 178.8125 214.503906 179.390625 214.390625 C 179.96875 214.273438 180.550781 214.21875 181.140625 214.21875 C 181.730469 214.21875 182.3125 214.273438 182.890625 214.390625 C 183.46875 214.503906 184.03125 214.675781 184.574219 214.898438 C 185.121094 215.125 185.636719 215.398438 186.125 215.726562 C 186.617188 216.050781 187.070312 216.421875 187.488281 216.839844 C 187.902344 217.253906 188.273438 217.707031 188.601562 218.195312 C 188.929688 218.683594 189.207031 219.199219 189.433594 219.742188 C 189.65625 220.285156 189.828125 220.84375 189.941406 221.421875 C 190.058594 222 190.113281 222.582031 190.113281 223.167969 Z M 190.113281 223.167969 " fill-opacity="1" fill-rule="nonzero"/><path fill="#dd2e44" d="M 133.285156 229.132812 L 109.351562 229.132812 C 103.371094 229.132812 100.378906 226.152344 109.351562 217.199219 L 133.285156 193.335938 C 139.265625 187.367188 145.25 181.394531 145.25 193.335938 L 145.25 217.199219 C 145.25 229.132812 145.242188 229.132812 133.285156 229.132812 Z M 133.285156 229.132812 " fill-opacity="1" fill-rule="nonzero"/><path fill="#231f20" d="M 151.234375 151.570312 C 151.234375 171.335938 143.199219 187.367188 133.285156 187.367188 C 123.371094 187.367188 115.335938 171.335938 115.335938 151.570312 C 115.335938 131.796875 123.371094 115.769531 133.285156 115.769531 C 143.199219 115.769531 151.234375 131.796875 151.234375 151.570312 Z M 151.234375 151.570312 " fill-opacity="1" fill-rule="nonzero"/><path fill="#6d6e71" d="M 169.179688 121.734375 L 145.25 121.734375 L 133.285156 74.003906 L 181.148438 74.003906 Z M 169.179688 121.734375 " fill-opacity="1" fill-rule="nonzero"/><path fill="#414042" d="M 258.921875 181.402344 C 258.921875 187.988281 253.5625 193.335938 246.957031 193.335938 L 139.265625 193.335938 C 132.664062 193.335938 127.300781 187.988281 127.300781 181.402344 L 127.300781 121.734375 C 127.300781 115.148438 132.664062 109.800781 139.265625 109.800781 L 246.957031 109.800781 C 253.5625 109.800781 258.921875 115.148438 258.921875 121.734375 Z M 258.921875 181.402344 " fill-opacity="1" fill-rule="nonzero"/><path fill="#c1694f" d="M 181.148438 187.367188 C 181.148438 190.667969 178.464844 193.335938 175.164062 193.335938 C 171.863281 193.335938 169.179688 190.667969 169.179688 187.367188 L 169.179688 109.800781 C 169.179688 106.507812 171.863281 103.835938 175.164062 103.835938 C 178.464844 103.835938 181.148438 106.507812 181.148438 109.800781 Z M 217.042969 187.367188 C 217.042969 190.667969 214.367188 193.335938 211.058594 193.335938 C 207.753906 193.335938 205.078125 190.667969 205.078125 187.367188 L 205.078125 109.800781 C 205.078125 106.507812 207.753906 103.835938 211.058594 103.835938 C 214.367188 103.835938 217.042969 106.507812 217.042969 109.800781 Z M 217.042969 187.367188 " fill-opacity="1" fill-rule="nonzero"/><path fill="#808285" d="M 318.75 187.367188 C 318.75 190.667969 316.074219 193.335938 312.769531 193.335938 L 145.25 193.335938 C 141.949219 193.335938 139.265625 190.667969 139.265625 187.367188 C 139.265625 184.070312 141.949219 181.402344 145.25 181.402344 L 312.769531 181.402344 C 316.074219 181.402344 318.75 184.070312 318.75 187.367188 Z M 318.75 187.367188 " fill-opacity="1" fill-rule="nonzero"/><path fill="#58595b" d="M 306.777344 217.199219 C 306.777344 217.984375 306.742188 218.761719 306.664062 219.539062 C 306.585938 220.320312 306.472656 221.089844 306.320312 221.855469 C 306.167969 222.625 305.976562 223.382812 305.75 224.128906 C 305.519531 224.878906 305.257812 225.613281 304.957031 226.335938 C 304.65625 227.054688 304.324219 227.761719 303.953125 228.453125 C 303.582031 229.140625 303.179688 229.8125 302.746094 230.460938 C 302.308594 231.109375 301.84375 231.738281 301.347656 232.34375 C 300.847656 232.945312 300.324219 233.523438 299.769531 234.078125 C 299.214844 234.628906 298.636719 235.152344 298.03125 235.648438 C 297.421875 236.144531 296.792969 236.609375 296.144531 237.046875 C 295.492188 237.480469 294.820312 237.882812 294.128906 238.25 C 293.4375 238.617188 292.730469 238.953125 292.003906 239.25 C 291.28125 239.550781 290.542969 239.8125 289.792969 240.039062 C 289.042969 240.265625 288.285156 240.457031 287.515625 240.609375 C 286.746094 240.761719 285.972656 240.875 285.195312 240.953125 C 284.414062 241.027344 283.632812 241.066406 282.847656 241.066406 C 282.0625 241.066406 281.28125 241.027344 280.503906 240.953125 C 279.722656 240.875 278.949219 240.761719 278.179688 240.609375 C 277.410156 240.457031 276.652344 240.265625 275.902344 240.039062 C 275.152344 239.8125 274.414062 239.550781 273.691406 239.25 C 272.964844 238.953125 272.257812 238.617188 271.566406 238.25 C 270.875 237.882812 270.203125 237.480469 269.550781 237.046875 C 268.902344 236.609375 268.273438 236.144531 267.667969 235.648438 C 267.058594 235.152344 266.480469 234.628906 265.925781 234.078125 C 265.371094 233.523438 264.847656 232.945312 264.347656 232.34375 C 263.851562 231.738281 263.386719 231.109375 262.949219 230.460938 C 262.515625 229.8125 262.113281 229.140625 261.742188 228.453125 C 261.371094 227.761719 261.039062 227.054688 260.738281 226.335938 C 260.4375 225.613281 260.175781 224.878906 259.945312 224.128906 C 259.71875 223.382812 259.53125 222.625 259.375 221.855469 C 259.222656 221.089844 259.109375 220.320312 259.03125 219.539062 C 258.957031 218.761719 258.917969 217.984375 258.917969 217.199219 C 258.917969 216.417969 258.957031 215.640625 259.03125 214.863281 C 259.109375 214.082031 259.222656 213.3125 259.375 212.546875 C 259.53125 211.777344 259.71875 211.019531 259.945312 210.273438 C 260.175781 209.523438 260.4375 208.789062 260.738281 208.066406 C 261.039062 207.347656 261.371094 206.640625 261.742188 205.949219 C 262.113281 205.261719 262.515625 204.589844 262.949219 203.941406 C 263.386719 203.292969 263.851562 202.664062 264.347656 202.058594 C 264.847656 201.457031 265.371094 200.878906 265.925781 200.324219 C 266.480469 199.773438 267.058594 199.25 267.667969 198.753906 C 268.273438 198.257812 268.902344 197.792969 269.550781 197.355469 C 270.203125 196.921875 270.875 196.519531 271.566406 196.152344 C 272.257812 195.785156 272.964844 195.449219 273.691406 195.152344 C 274.414062 194.851562 275.152344 194.589844 275.902344 194.363281 C 276.652344 194.136719 277.410156 193.945312 278.179688 193.792969 C 278.949219 193.640625 279.722656 193.527344 280.503906 193.449219 C 281.28125 193.375 282.0625 193.335938 282.847656 193.335938 C 283.632812 193.335938 284.414062 193.375 285.195312 193.449219 C 285.972656 193.527344 286.746094 193.640625 287.515625 193.792969 C 288.285156 193.945312 289.042969 194.136719 289.792969 194.363281 C 290.542969 194.589844 291.28125 194.851562 292.003906 195.152344 C 292.730469 195.449219 293.4375 195.785156 294.128906 196.152344 C 294.820312 196.519531 295.492188 196.921875 296.144531 197.355469 C 296.792969 197.792969 297.421875 198.257812 298.03125 198.753906 C 298.636719 199.25 299.214844 199.773438 299.769531 200.324219 C 300.324219 200.878906 300.847656 201.457031 301.347656 202.058594 C 301.84375 202.664062 302.308594 203.292969 302.746094 203.941406 C 303.179688 204.589844 303.582031 205.261719 303.953125 205.949219 C 304.324219 206.640625 304.65625 207.347656 304.957031 208.066406 C 305.257812 208.789062 305.519531 209.523438 305.75 210.273438 C 305.976562 211.019531 306.167969 211.777344 306.320312 212.546875 C 306.472656 213.3125 306.585938 214.082031 306.664062 214.863281 C 306.742188 215.640625 306.777344 216.417969 306.777344 217.199219 Z M 306.777344 217.199219 " fill-opacity="1" fill-rule="nonzero"/><path fill="#58595b" d="M 258.917969 217.199219 C 258.917969 217.984375 258.878906 218.761719 258.800781 219.539062 C 258.726562 220.320312 258.609375 221.089844 258.457031 221.855469 C 258.304688 222.625 258.113281 223.382812 257.886719 224.128906 C 257.660156 224.878906 257.394531 225.613281 257.09375 226.335938 C 256.796875 227.054688 256.460938 227.761719 256.089844 228.453125 C 255.722656 229.140625 255.320312 229.8125 254.882812 230.460938 C 254.449219 231.109375 253.980469 231.738281 253.484375 232.34375 C 252.988281 232.945312 252.460938 233.523438 251.90625 234.078125 C 251.351562 234.628906 250.773438 235.152344 250.167969 235.648438 C 249.5625 236.144531 248.933594 236.609375 248.28125 237.046875 C 247.628906 237.480469 246.957031 237.882812 246.265625 238.25 C 245.574219 238.617188 244.867188 238.953125 244.144531 239.25 C 243.417969 239.550781 242.683594 239.8125 241.933594 240.039062 C 241.183594 240.265625 240.421875 240.457031 239.65625 240.609375 C 238.886719 240.761719 238.109375 240.875 237.332031 240.953125 C 236.550781 241.027344 235.769531 241.066406 234.984375 241.066406 C 234.203125 241.066406 233.421875 241.027344 232.640625 240.953125 C 231.859375 240.875 231.085938 240.761719 230.316406 240.609375 C 229.546875 240.457031 228.789062 240.265625 228.039062 240.039062 C 227.289062 239.8125 226.550781 239.550781 225.828125 239.25 C 225.101562 238.953125 224.394531 238.617188 223.703125 238.25 C 223.011719 237.882812 222.34375 237.480469 221.691406 237.046875 C 221.039062 236.609375 220.410156 236.144531 219.804688 235.648438 C 219.199219 235.152344 218.617188 234.628906 218.0625 234.078125 C 217.507812 233.523438 216.984375 232.945312 216.488281 232.34375 C 215.988281 231.738281 215.523438 231.109375 215.085938 230.460938 C 214.652344 229.8125 214.25 229.140625 213.878906 228.453125 C 213.511719 227.761719 213.175781 227.054688 212.875 226.335938 C 212.578125 225.613281 212.3125 224.878906 212.085938 224.128906 C 211.859375 223.382812 211.667969 222.625 211.515625 221.855469 C 211.363281 221.089844 211.246094 220.320312 211.167969 219.539062 C 211.09375 218.761719 211.054688 217.984375 211.054688 217.199219 C 211.054688 216.417969 211.09375 215.640625 211.167969 214.863281 C 211.246094 214.082031 211.363281 213.3125 211.515625 212.546875 C 211.667969 211.777344 211.859375 211.019531 212.085938 210.273438 C 212.3125 209.523438 212.578125 208.789062 212.875 208.066406 C 213.175781 207.347656 213.511719 206.640625 213.878906 205.949219 C 214.25 205.261719 214.652344 204.589844 215.085938 203.941406 C 215.523438 203.292969 215.988281 202.664062 216.488281 202.058594 C 216.984375 201.457031 217.507812 200.878906 218.0625 200.324219 C 218.617188 199.773438 219.199219 199.25 219.804688 198.753906 C 220.410156 198.257812 221.039062 197.792969 221.691406 197.355469 C 222.34375 196.921875 223.011719 196.519531 223.703125 196.152344 C 224.394531 195.785156 225.101562 195.449219 225.828125 195.152344 C 226.550781 194.851562 227.289062 194.589844 228.039062 194.363281 C 228.789062 194.136719 229.546875 193.945312 230.316406 193.792969 C 231.085938 193.640625 231.859375 193.527344 232.640625 193.449219 C 233.421875 193.375 234.203125 193.335938 234.984375 193.335938 C 235.769531 193.335938 236.550781 193.375 237.332031 193.449219 C 238.109375 193.527344 238.886719 193.640625 239.65625 193.792969 C 240.421875 193.945312 241.183594 194.136719 241.933594 194.363281 C 242.683594 194.589844 243.417969 194.851562 244.144531 195.152344 C 244.867188 195.449219 245.574219 195.785156 246.265625 196.152344 C 246.957031 196.519531 247.628906 196.921875 248.28125 197.355469 C 248.933594 197.792969 249.5625 198.257812 250.167969 198.753906 C 250.773438 199.25 251.351562 199.773438 251.90625 200.324219 C 252.460938 200.878906 252.988281 201.457031 253.484375 202.058594 C 253.980469 202.664062 254.449219 203.292969 254.882812 203.941406 C 255.320312 204.589844 255.722656 205.261719 256.089844 205.949219 C 256.460938 206.640625 256.796875 207.347656 257.09375 208.066406 C 257.394531 208.789062 257.660156 209.523438 257.886719 210.273438 C 258.113281 211.019531 258.304688 211.777344 258.457031 212.546875 C 258.609375 213.3125 258.726562 214.082031 258.800781 214.863281 C 258.878906 215.640625 258.917969 216.417969 258.917969 217.199219 Z M 258.917969 217.199219 " fill-opacity="1" fill-rule="nonzero"/><path fill="#a0041e" d="M 294.8125 217.199219 C 294.8125 217.984375 294.738281 218.761719 294.582031 219.527344 C 294.429688 220.296875 294.203125 221.042969 293.902344 221.769531 C 293.601562 222.492188 293.234375 223.179688 292.796875 223.832031 C 292.359375 224.480469 291.863281 225.085938 291.308594 225.640625 C 290.753906 226.191406 290.148438 226.6875 289.496094 227.125 C 288.84375 227.558594 288.152344 227.925781 287.425781 228.226562 C 286.699219 228.527344 285.953125 228.753906 285.183594 228.90625 C 284.410156 229.058594 283.632812 229.132812 282.847656 229.132812 C 282.0625 229.132812 281.285156 229.058594 280.511719 228.90625 C 279.742188 228.753906 278.996094 228.527344 278.269531 228.226562 C 277.542969 227.925781 276.851562 227.558594 276.199219 227.125 C 275.546875 226.6875 274.941406 226.191406 274.386719 225.640625 C 273.832031 225.085938 273.335938 224.480469 272.898438 223.832031 C 272.460938 223.179688 272.09375 222.492188 271.792969 221.769531 C 271.492188 221.042969 271.265625 220.296875 271.113281 219.527344 C 270.957031 218.761719 270.882812 217.984375 270.882812 217.199219 C 270.882812 216.417969 270.957031 215.640625 271.113281 214.875 C 271.265625 214.105469 271.492188 213.359375 271.792969 212.632812 C 272.09375 211.910156 272.460938 211.222656 272.898438 210.570312 C 273.335938 209.921875 273.832031 209.316406 274.386719 208.761719 C 274.941406 208.210938 275.546875 207.714844 276.199219 207.277344 C 276.851562 206.84375 277.542969 206.476562 278.269531 206.175781 C 278.996094 205.875 279.742188 205.648438 280.511719 205.496094 C 281.285156 205.34375 282.0625 205.269531 282.847656 205.269531 C 283.632812 205.269531 284.410156 205.34375 285.183594 205.496094 C 285.953125 205.648438 286.699219 205.875 287.425781 206.175781 C 288.152344 206.476562 288.84375 206.84375 289.496094 207.277344 C 290.148438 207.714844 290.753906 208.210938 291.308594 208.761719 C 291.863281 209.316406 292.359375 209.917969 292.796875 210.570312 C 293.234375 211.222656 293.601562 211.910156 293.902344 212.632812 C 294.203125 213.359375 294.429688 214.105469 294.582031 214.875 C 294.738281 215.640625 294.8125 216.417969 294.8125 217.199219 Z M 294.8125 217.199219 " fill-opacity="1" fill-rule="nonzero"/><path fill="#a0041e" d="M 246.949219 217.199219 C 246.949219 217.984375 246.875 218.761719 246.722656 219.527344 C 246.566406 220.296875 246.339844 221.042969 246.039062 221.769531 C 245.738281 222.492188 245.371094 223.179688 244.933594 223.832031 C 244.5 224.480469 244.003906 225.085938 243.445312 225.640625 C 242.890625 226.191406 242.285156 226.6875 241.632812 227.125 C 240.980469 227.558594 240.289062 227.925781 239.566406 228.226562 C 238.839844 228.527344 238.089844 228.753906 237.320312 228.90625 C 236.550781 229.058594 235.769531 229.132812 234.984375 229.132812 C 234.199219 229.132812 233.421875 229.058594 232.652344 228.90625 C 231.878906 228.753906 231.132812 228.527344 230.40625 228.226562 C 229.679688 227.925781 228.992188 227.558594 228.335938 227.125 C 227.683594 226.6875 227.082031 226.191406 226.523438 225.640625 C 225.96875 225.085938 225.472656 224.480469 225.035156 223.832031 C 224.601562 223.179688 224.230469 222.492188 223.929688 221.769531 C 223.628906 221.042969 223.402344 220.296875 223.25 219.527344 C 223.097656 218.761719 223.019531 217.984375 223.019531 217.199219 C 223.019531 216.417969 223.097656 215.640625 223.25 214.875 C 223.402344 214.105469 223.628906 213.359375 223.929688 212.632812 C 224.230469 211.910156 224.601562 211.222656 225.035156 210.570312 C 225.472656 209.921875 225.96875 209.316406 226.523438 208.761719 C 227.082031 208.210938 227.683594 207.714844 228.335938 207.277344 C 228.992188 206.84375 229.679688 206.476562 230.40625 206.175781 C 231.132812 205.875 231.878906 205.648438 232.652344 205.496094 C 233.421875 205.34375 234.199219 205.269531 234.984375 205.269531 C 235.769531 205.269531 236.550781 205.34375 237.320312 205.496094 C 238.089844 205.648438 238.839844 205.875 239.566406 206.175781 C 240.289062 206.476562 240.980469 206.84375 241.632812 207.277344 C 242.285156 207.714844 242.890625 208.210938 243.445312 208.761719 C 244.003906 209.316406 244.5 209.917969 244.933594 210.570312 C 245.371094 211.222656 245.738281 211.910156 246.039062 212.632812 C 246.339844 213.359375 246.566406 214.105469 246.722656 214.875 C 246.875 215.640625 246.949219 216.417969 246.949219 217.199219 Z M 246.949219 217.199219 " fill-opacity="1" fill-rule="nonzero"/><g clip-path="url(#id3)"><path fill="#414042" d="M 175.164062 50.136719 L 139.265625 50.136719 C 135.964844 50.136719 133.285156 52.808594 133.285156 56.101562 L 133.285156 74.003906 L 181.148438 74.003906 L 181.148438 56.101562 C 181.148438 52.808594 178.464844 50.136719 175.164062 50.136719 Z M 175.164062 50.136719 " fill-opacity="1" fill-rule="nonzero"/></g><path fill="#be1931" d="M 240.972656 74.003906 L 312.769531 74.003906 L 312.769531 181.402344 L 240.972656 181.402344 Z M 240.972656 74.003906 " fill-opacity="1" fill-rule="nonzero"/><path fill="#a0041e" d="M 318.75 68.035156 C 318.75 71.328125 316.074219 74.003906 312.769531 74.003906 L 240.972656 74.003906 C 237.664062 74.003906 234.992188 71.328125 234.992188 68.035156 C 234.992188 64.742188 237.664062 62.070312 240.972656 62.070312 L 312.769531 62.070312 C 316.074219 62.070312 318.75 64.742188 318.75 68.035156 Z M 318.75 68.035156 " fill-opacity="1" fill-rule="nonzero"/><path fill="#ea596e" d="M 252.941406 139.636719 L 300.800781 139.636719 L 300.800781 169.46875 L 252.941406 169.46875 Z M 252.941406 139.636719 " fill-opacity="1" fill-rule="nonzero"/><path fill="#f4900c" d="M 282.855469 223.167969 L 234.992188 223.167969 C 234.230469 223.167969 233.476562 223.023438 232.773438 222.746094 L 203.921875 211.234375 L 163.199219 211.234375 C 159.894531 211.234375 157.214844 208.566406 157.214844 205.269531 C 157.214844 201.96875 159.894531 199.300781 163.199219 199.300781 L 205.078125 199.300781 C 205.84375 199.300781 206.589844 199.445312 207.304688 199.726562 L 236.140625 211.234375 L 282.855469 211.234375 C 286.164062 211.234375 288.835938 213.902344 288.835938 217.199219 C 288.835938 220.5 286.164062 223.167969 282.855469 223.167969 Z M 282.855469 223.167969 " fill-opacity="1" fill-rule="nonzero"/><path fill="#55acee" d="M 300.800781 91.902344 C 300.800781 88.609375 298.128906 85.9375 294.820312 85.9375 L 258.921875 85.9375 C 255.613281 85.9375 252.941406 88.609375 252.941406 91.902344 L 252.941406 121.734375 C 252.941406 125.027344 255.613281 127.703125 258.921875 127.703125 L 294.820312 127.703125 C 298.128906 127.703125 300.800781 125.027344 300.800781 121.734375 Z M 300.800781 91.902344 " fill-opacity="1" fill-rule="nonzero"/></svg>