<svg xmlns="http://www.w3.org/2000/svg" xmlns:xlink="http://www.w3.org/1999/xlink" width="559" zoomAndPan="magnify" viewBox="0 0 419.25 297.749993" height="396" preserveAspectRatio="xMidYMid meet" version="1.0"><defs><filter x="0%" y="0%" width="100%" height="100%" id="id1"><feColorMatrix values="0 0 0 0 1 0 0 0 0 1 0 0 0 0 1 0 0 0 1 0" color-interpolation-filters="sRGB"/></filter><clipPath id="id2"><path d="M 0 0.140625 L 418.5 0.140625 L 418.5 297.359375 L 0 297.359375 Z M 0 0.140625 " clip-rule="nonzero"/></clipPath><mask id="id3"><g filter="url(#id1)"><rect x="-41.925" width="503.1" fill="#000000" y="-29.774999" height="357.299992" fill-opacity="0.2"/></g></mask><clipPath id="id4"><path d="M 0.0390625 0.0117188 L 92.75 0.0117188 L 92.75 120.996094 L 0.0390625 120.996094 Z M 0.0390625 0.0117188 " clip-rule="nonzero"/></clipPath><clipPath id="id5"><rect x="0" width="93" y="0" height="121"/></clipPath><mask id="id6"><g filter="url(#id1)"><rect x="-41.925" width="503.1" fill="#000000" y="-29.774999" height="357.299992" fill-opacity="0.498"/></g></mask><clipPath id="id7"><path d="M 0.148438 0.148438 L 94.777344 0.148438 L 94.777344 90.464844 L 0.148438 90.464844 Z M 0.148438 0.148438 " clip-rule="nonzero"/></clipPath><clipPath id="id8"><rect x="0" width="95" y="0" height="91"/></clipPath></defs><g clip-path="url(#id2)"><path fill="#ffffff" d="M 0 0.140625 L 419.25 0.140625 L 419.25 304.097656 L 0 304.097656 Z M 0 0.140625 " fill-opacity="1" fill-rule="nonzero"/><path fill="#38b6ff" d="M 0 0.140625 L 418.5 0.140625 L 418.5 297.359375 L 0 297.359375 Z M 0 0.140625 " fill-opacity="1" fill-rule="nonzero"/><path fill="#ffffff" d="M 0 0.140625 L 418.5 0.140625 L 418.5 297.359375 L 0 297.359375 Z M 0 0.140625 " fill-opacity="1" fill-rule="nonzero"/><path fill="#38b6ff" d="M 0 0.140625 L 418.5 0.140625 L 418.5 297.359375 L 0 297.359375 Z M 0 0.140625 " fill-opacity="1" fill-rule="nonzero"/></g><path fill="#284e65" d="M 290.058594 163.78125 C 275.265625 162.339844 279.164062 175.359375 257.03125 194.183594 C 252.859375 197.734375 248.289062 200.824219 243.390625 203.484375 C 247.230469 205.511719 251.476562 207.378906 253.539062 208.214844 C 257.449219 209.800781 265.515625 218.296875 245.601562 223.277344 C 235.097656 225.902344 219.179688 219.953125 210.390625 214.238281 C 208.886719 214.472656 207.371094 214.6875 205.84375 214.867188 C 186.265625 217.1875 174.042969 206.191406 156.335938 199.996094 C 104.800781 179.847656 98.714844 154.558594 96.265625 140.160156 C 93.738281 125.285156 86.976562 118.121094 84.457031 107.527344 C 84.414062 107.335938 84.359375 107.128906 84.304688 106.910156 C 83.964844 105.46875 83.164062 101.707031 83.195312 98.019531 C 85.710938 85.488281 106.355469 64.101562 147.183594 73.066406 C 196.761719 83.949219 202.382812 120.421875 219.03125 142.449219 C 235.679688 164.480469 260.085938 161.683594 261.917969 159.042969 C 264.988281 154.621094 261.425781 148.765625 257.042969 145.445312 C 250.980469 140.859375 244.183594 124.375 249.90625 112.15625 C 255.632812 99.9375 266.910156 89.453125 266.199219 98.261719 C 265.488281 107.066406 271.769531 117.535156 275.410156 121.238281 C 278.9375 124.820312 287.964844 133.121094 284.917969 142.574219 C 288.105469 134.632812 298.492188 131.429688 312.859375 130.296875 C 327.773438 129.121094 329.777344 117.375 332.71875 118.667969 C 335.664062 119.957031 337.222656 123.800781 334.628906 136.6875 C 331.703125 151.222656 308.578125 165.59375 290.058594 163.78125 Z M 290.058594 163.78125 C 275.265625 162.339844 279.164062 175.359375 257.03125 194.183594 C 252.859375 197.734375 248.289062 200.824219 243.390625 203.484375 C 247.230469 205.511719 251.476562 207.378906 253.539062 208.214844 C 257.449219 209.800781 265.515625 218.296875 245.601562 223.277344 C 235.097656 225.902344 219.179688 219.953125 210.390625 214.238281 C 208.886719 214.472656 207.371094 214.6875 205.84375 214.867188 C 186.265625 217.1875 174.042969 206.191406 156.335938 199.996094 C 104.800781 179.847656 98.714844 154.558594 96.265625 140.160156 C 93.738281 125.285156 86.976562 118.121094 84.457031 107.527344 C 84.414062 107.335938 84.359375 107.128906 84.304688 106.910156 C 83.964844 105.46875 83.164062 101.707031 83.195312 98.019531 C 85.710938 85.488281 106.355469 64.101562 147.183594 73.066406 C 196.761719 83.949219 202.382812 120.421875 219.03125 142.449219 C 235.679688 164.480469 260.085938 161.683594 261.917969 159.042969 C 264.988281 154.621094 261.425781 148.765625 257.042969 145.445312 C 250.980469 140.859375 244.183594 124.375 249.90625 112.15625 C 255.632812 99.9375 266.910156 89.453125 266.199219 98.261719 C 265.488281 107.066406 271.769531 117.535156 275.410156 121.238281 C 278.9375 124.820312 287.964844 133.121094 284.917969 142.574219 C 288.105469 134.632812 298.492188 131.429688 312.859375 130.296875 C 327.773438 129.121094 329.777344 117.375 332.71875 118.667969 C 335.664062 119.957031 337.222656 123.800781 334.628906 136.6875 C 331.703125 151.222656 308.578125 165.59375 290.058594 163.78125 Z M 290.058594 163.78125 " fill-opacity="1" fill-rule="nonzero"/><path fill="#f9f1e9" d="M 205.84375 214.867188 C 186.875 216.796875 166.5625 214.714844 149.503906 208.746094 C 97.96875 188.597656 86.878906 153.925781 84.429688 139.527344 C 81.960938 124.988281 86.601562 117.738281 84.457031 107.527344 L 84.460938 107.527344 C 84.460938 107.527344 88.78125 94.792969 109.730469 95.566406 C 132.820312 96.414062 158.707031 127.917969 164.648438 157.527344 C 170.59375 187.136719 177.835938 206.792969 205.84375 214.867188 Z M 205.84375 214.867188 " fill-opacity="1" fill-rule="nonzero"/><path fill="#f9f1e9" d="M 205.84375 214.867188 C 186.875 216.796875 166.5625 214.714844 149.503906 208.746094 C 97.96875 188.597656 86.878906 153.925781 84.429688 139.527344 C 81.960938 124.988281 86.601562 117.738281 84.457031 107.527344 L 84.460938 107.527344 C 84.460938 107.527344 88.78125 94.792969 109.730469 95.566406 C 132.820312 96.414062 158.707031 127.917969 164.648438 157.527344 C 170.59375 187.136719 177.835938 206.792969 205.84375 214.867188 Z M 205.84375 214.867188 " fill-opacity="1" fill-rule="nonzero"/><path fill="#e1d7ce" d="M 194.988281 141.613281 C 189.863281 139.800781 184.222656 141 180.742188 151.050781 C 177.257812 161.101562 183.359375 165.085938 187.484375 166.335938 C 191.609375 167.582031 198.472656 166.859375 201.121094 157.003906 C 203.773438 147.148438 199.386719 143.167969 194.988281 141.613281 Z M 194.988281 141.613281 C 189.863281 139.800781 184.222656 141 180.742188 151.050781 C 177.257812 161.101562 183.359375 165.085938 187.484375 166.335938 C 191.609375 167.582031 198.472656 166.859375 201.121094 157.003906 C 203.773438 147.148438 199.386719 143.167969 194.988281 141.613281 Z M 194.988281 141.613281 " fill-opacity="1" fill-rule="nonzero"/><path fill="#231f20" d="M 201.121094 157.105469 C 199.070312 164.746094 194.503906 167.089844 190.605469 166.792969 C 187.253906 165.179688 183.46875 161.511719 185.882812 154.476562 C 188.734375 146.175781 194.074219 145.488281 198.445312 147.042969 C 199.625 147.464844 200.753906 148.0625 201.675781 148.933594 C 202.335938 150.976562 202.011719 153.796875 201.121094 157.105469 Z M 201.121094 157.105469 " fill-opacity="1" fill-rule="nonzero"/><g mask="url(#id3)"><g transform="matrix(1, 0, 0, 1, 91, 95)"><g clip-path="url(#id5)"><g clip-path="url(#id4)"><path fill="#284e65" d="M 92.695312 120.320312 C 91.894531 120.273438 91.097656 120.21875 90.304688 120.160156 C 71.941406 106.976562 63.394531 88.367188 63.597656 62.414062 C 63.710938 48.175781 61.433594 36.925781 59.097656 29.179688 C 59.859375 30.28125 60.597656 31.40625 61.3125 32.546875 C 63.269531 40.121094 64.925781 50.183594 64.832031 62.425781 C 64.625 88.699219 73.53125 107.3125 92.695312 120.320312 Z M 69.074219 116.847656 C 48.015625 99.976562 47.671875 80.636719 47.148438 49.523438 C 46.746094 25.695312 42.214844 13.75 38.527344 7.941406 C 37.539062 7.265625 36.542969 6.632812 35.539062 6.039062 C 39.082031 10.171875 45.441406 21.464844 45.914062 49.542969 C 46.410156 78.980469 46.769531 99.179688 66.308594 116.136719 C 67.222656 116.382812 68.144531 116.621094 69.074219 116.847656 Z M 28.308594 49.257812 C 28.527344 19.546875 20.535156 5.898438 15.984375 0.550781 C 15.417969 0.5625 14.871094 0.582031 14.332031 0.613281 C 18.46875 5.183594 27.304688 18.558594 27.078125 49.25 C 26.925781 69.882812 28.710938 82.300781 33.234375 92.113281 C 35.984375 98.082031 39.789062 103.140625 45.140625 107.773438 C 46.871094 108.652344 48.660156 109.511719 50.503906 110.355469 C 31.398438 96.605469 28.085938 79.640625 28.308594 49.257812 Z M 7.414062 44.679688 C 8.683594 20.046875 4.324219 8.867188 1.285156 4.152344 C 0.90625 4.371094 0.546875 4.59375 0.199219 4.820312 C 3.058594 9.292969 7.4375 20.261719 6.183594 44.617188 C 5.472656 58.449219 7.457031 70.863281 12.085938 81.515625 C 12.429688 82.304688 12.785156 83.085938 13.160156 83.855469 C 14.113281 84.917969 15.113281 85.980469 16.160156 87.039062 C 9.503906 75.371094 6.5625 61.222656 7.414062 44.679688 Z M 7.414062 44.679688 " fill-opacity="1" fill-rule="nonzero"/></g></g></g></g><path fill="#163349" d="M 243.390625 203.484375 C 241.941406 202.492188 234.890625 197.460938 229.71875 191.675781 C 229.492188 191.421875 229.515625 191.03125 229.769531 190.804688 C 230.023438 190.578125 230.410156 190.601562 230.640625 190.855469 C 236.289062 197.171875 244.167969 202.492188 244.246094 202.546875 C 244.328125 202.601562 244.542969 202.730469 244.589844 202.8125 C 244.210938 203.023438 243.769531 203.273438 243.390625 203.484375 Z M 210.222656 214.261719 C 208.59375 213.320312 197.945312 207.097656 192.546875 202.175781 C 192.296875 201.949219 191.90625 201.964844 191.675781 202.21875 C 191.449219 202.46875 191.464844 202.855469 191.714844 203.085938 C 196.441406 207.390625 204.8125 212.503906 208.273438 214.550781 C 208.925781 214.457031 209.574219 214.363281 210.222656 214.261719 Z M 200.917969 219.363281 C 200.011719 218.511719 198.589844 217.105469 197.011719 215.464844 C 185.429688 215.40625 172.785156 214.289062 161.914062 212.277344 C 168.683594 220.132812 178.390625 229.179688 188.042969 230.515625 C 208.378906 233.324219 203.984375 222.257812 200.917969 219.363281 Z M 200.917969 219.363281 " fill-opacity="1" fill-rule="nonzero"/><g mask="url(#id6)"><g transform="matrix(1, 0, 0, 1, 163, 86)"><g clip-path="url(#id8)"><g clip-path="url(#id7)"><path fill="#163349" d="M 15.125 15.296875 C 10.222656 8.46875 15.898438 7.449219 18.964844 10.398438 C 24.707031 15.910156 20.023438 22.125 15.125 15.296875 Z M 4.429688 0.585938 C 1.785156 -0.675781 -1.699219 1.21875 2.984375 4.617188 C 7.664062 8.015625 9.375 2.945312 4.429688 0.585938 Z M 6.953125 11.011719 C 4.765625 9.449219 1.316406 10.601562 5 14.425781 C 8.683594 18.246094 11.042969 13.9375 6.953125 11.011719 Z M 77.457031 79.648438 C 83.863281 82.496094 80.214844 85.613281 76.765625 84.789062 C 70.3125 83.242188 71.054688 76.804688 77.457031 79.648438 Z M 91.824219 90.023438 C 94.453125 89.472656 95.9375 86.152344 90.628906 86.28125 C 85.316406 86.40625 86.902344 91.058594 91.824219 90.023438 Z M 88.792969 83.292969 C 90.535156 83.121094 91.726562 81.074219 88.28125 80.789062 C 84.835938 80.503906 85.535156 83.621094 88.792969 83.292969 Z M 88.792969 83.292969 " fill-opacity="1" fill-rule="nonzero"/></g></g></g></g></svg>